<?xml version="1.0" encoding="UTF-8"?>
<svg id="glasses" xmlns="http://www.w3.org/2000/svg" viewBox="0 0 300 300">
    <defs>
        <style>.cls-1{fill:none;}.cls-1,.cls-2{stroke-width:0px;}.cls-2{fill:#e77fa9;}</style>
    </defs>
    <g id="component_2">
        <g id="component_2-2">
            <path class="cls-2"
                  d="m199.56,139.92c-.57-.05-1.13-.24-1.69-.27s-1.15.27-1.71.25-1.13-.76-1.69-.77-1.14.69-1.7.71-1.14-.13-1.7-.1-1.12.26-1.68.31-1.2-.51-1.76-.45-1.04.86-1.59.95-1.21-.31-1.76-.2-1.19-.05-1.73.08-1.07.49-1.6.64-1.13.23-1.66.4-1.01.6-1.53.8-1.14.25-1.65.47-1.16.25-1.66.49-.67,1.19-1.16,1.46-1.29.05-1.76.34-.88.76-1.33,1.08c-.48.33-.66,1.02-1.09,1.36-.46.36-1.03.53-1.44.9-.44.39-1,.61-1.39,1-.42.41-1.14.53-1.5.94-.39.44-.34,1.48-.68,1.9-.43-.28-.86-1.07-1.41-1.37-.47-.26-1.14-.22-1.69-.48-.49-.23-.88-.8-1.44-1.02-.51-.2-1.06-.43-1.63-.61-.53-.17-1.16-.08-1.74-.22-.54-.14-1.03-.62-1.61-.73-.55-.1-1.13-.26-1.71-.34s-1.2.56-1.79.52-1.12-.1-1.71-.11-1.12.03-1.71.06-1.12.09-1.71.15-1.16-.15-1.74-.06-1.15.05-1.72.16-.99.77-1.56.91-1.15.04-1.72.21-1.26-.19-1.81,0-.92.82-1.47,1.03-.98.61-1.52.83-1.08-.3-1.62-.05c-.34-.41-.45-.7-.84-1.12-.37-.4-.97-.62-1.38-1.02-.39-.38-1.25-.25-1.69-.63-.41-.35-.68-.89-1.13-1.24s-.82-.74-1.29-1.06-.91-.62-1.4-.91-1.05-.37-1.56-.64-.68-1.11-1.2-1.35-1.15-.16-1.67-.38-.93-.69-1.46-.88-1-.54-1.55-.72-1.27.37-1.82.23-.95-.8-1.5-.92-1.13-.04-1.69-.15-1.12-.06-1.68-.14-1.07-.37-1.64-.44-1.12.02-1.69-.03-1.1-.33-1.66-.36-1.13.43-1.7.42-1.1.25-1.67.26-1.12-.5-1.69-.48-1.11.15-1.68.19-1.08.47-1.65.52c-.59.05-1.2-.28-1.76-.23s-1.2-.31-1.77-.26-1.11.7-1.68.75-1.16.17-1.72.23-1.18.02-1.74.08c-.59.06-1.18,0-1.74.06-.59.07-1.16.2-1.72.27-.59.07-1.18.04-1.73.11-.59.08-1.24-.34-1.79-.26-.59.09-1.15.32-1.7.41-.6.1-1.2.05-1.74.15-.6.11-1.02,1-1.56,1.11-.6.12-1.21,0-1.74.12-.6.14-1.07.61-1.59.75-.61.16-1.36-.36-1.86-.2-.61.2-.97.89-1.45,1.09-.61.25-1.05.55-1.48.81-.59.36-1.3.35-1.62.71-.44.51-.8,1.07-.9,1.58-.11.57.04,1.2.04,1.77s-.2,1.2-.09,1.72c.12.57.59,1.06.86,1.51.29.48.68.96,1.15,1.25.43.26,1.06,0,1.67.06.49.04.96.07,1.56-.04.49-.09.9-.44,1.47-.65.48-.18,1.17.05,1.75-.13.51-.16,1.18.17,1.74.02.53-.14,1.01-.51,1.57-.64s1.15.02,1.7-.09.98-.91,1.52-1c.57-.1,1.2.26,1.74.19.6-.08,1.15-.19,1.66-.23.65-.05,1.22-.46,1.68-.44.95.05,1.25.38.98.83-.15.25-.68.61-1.16,1.31-.29.41-.41,1.05-.76,1.6-.29.45-.27,1.15-.59,1.69-.28.48-.8.86-1.08,1.4-.26.5-.88.86-1.13,1.41-.23.52.09,1.3-.12,1.85s-.91.91-1.09,1.48-.13,1.19-.27,1.76-.18,1.16-.28,1.74-.11,1.16-.16,1.75-.44,1.16-.44,1.75.29,1.17.34,1.76.02,1.19.12,1.77.75,1.01.91,1.58.38,1.06.59,1.62.16,1.17.42,1.71.63.96.94,1.48.14,1.3.49,1.79c.33.47,1.03.68,1.41,1.11s.56,1.07.98,1.46,1.06.55,1.51.9,1.11.39,1.6.7.67,1.09,1.18,1.37,1,.59,1.52.84,1.1.38,1.63.59,1.17.15,1.71.33.92.94,1.47,1.09,1.14.26,1.7.39,1.13.3,1.69.4,1.24-.46,1.81-.38,1.09.56,1.66.62,1.14.21,1.72.24,1.16-.03,1.73-.01,1.16.19,1.73.19,1.13-.7,1.71-.73,1.13-.17,1.7-.21,1.22.6,1.78.53,1.16-.13,1.72-.22,1.03-.79,1.59-.91,1.29.47,1.84.33.91-1.07,1.45-1.23,1.33.35,1.86.16,1.06-.53,1.58-.75,1.13-.37,1.64-.62.7-1.14,1.18-1.43c.5-.31,1.41,0,1.86-.33.47-.35.43-1.3.84-1.69.43-.41.86-.74,1.2-1.18.35-.45.64-.92.95-1.37s.64-.92.94-1.38.58-.95.85-1.43.8-.84,1.05-1.33.92-.82,1.14-1.33-.15-1.29.05-1.81.5-1.01.67-1.54.81-.95.95-1.49-.23-1.22-.12-1.76.03-1.13.1-1.67c.07-.57.83-1.07.87-1.61.03-.57-.74-1.15-.75-1.7-.01-.58-.01-1.11-.07-1.65-.06-.58-.33-1.06-.45-1.58-.13-.57.22-1.22.04-1.73-.2-.55-.45-1.03-.71-1.49.32-.82.48-.45,1.54-.82.46-.16,1.03-.36,1.68-.54.51-.14,1.03-.59,1.66-.71.54-.11,1.26.58,1.87.5.55-.08,1.05-.92,1.66-.97.56-.05,1.19.48,1.8.46.57-.02,1.15-.13,1.75-.11.57.01,1.17-.29,1.78-.25.57.04,1.19-.07,1.78,0s1.07.76,1.67.86,1.16.09,1.75.21,1.25-.23,1.83-.09.92,1.06,1.5,1.23,1,.13,1.57.32c-.26.46-.13.93-.33,1.48-.18.5-.68.95-.8,1.51-.12.53-.15,1.11-.21,1.68-.06.54-.1,1.1-.12,1.68-.01.54.04,1.11.07,1.68s-.2,1.14-.12,1.71.12,1.13.23,1.69,1.02.9,1.17,1.45-.15,1.19.02,1.73.58.97.79,1.5.26,1.09.49,1.61.54.97.8,1.47.63.92.91,1.41.52.97.82,1.45.45,1.04.78,1.5.41,1.09.75,1.54c.34.44.95.71,1.37,1.12.4.38.71.95,1.18,1.3.45.33,1.02.56,1.52.86s1.25.07,1.77.33.88.75,1.42.98,1.17.06,1.72.26.99.58,1.54.75,1.12.17,1.68.31.97.88,1.54,1,1.14.15,1.71.24,1.16-.03,1.74.04,1.12.39,1.69.44,1.18-.62,1.76-.59,1.13.22,1.7.23,1.15.36,1.72.35,1.13-.41,1.7-.44,1.18.33,1.75.27,1.09-.57,1.65-.65,1.09-.36,1.65-.47,1.25.38,1.8.25,1.03-.63,1.58-.78,1.17-.1,1.71-.29,1.03-.53,1.56-.74.96-.63,1.48-.87,1.39.19,1.89-.09.75-1,1.23-1.32.9-.7,1.35-1.05,1.18-.4,1.6-.79.47-1.15.85-1.58.76-.84,1.09-1.31c.35-.49,1.02-.75,1.31-1.24.31-.51.01-1.33.27-1.84s.48-1.04.69-1.57,1.02-.9,1.18-1.45.38-1.15.48-1.71-.44-1.25-.39-1.82-.07-1.15-.07-1.72.56-1.19.51-1.76.06-1.21-.04-1.78-.87-1.02-1.01-1.58.04-1.22-.14-1.77-.86-.93-1.07-1.47-.29-1.13-.53-1.65c-.25-.55-.55-1.03-.81-1.53-.28-.54-.5-1.07-.78-1.55-.31-.54-.58-1.05-.87-1.5-.35-.55-.68-1.03-.96-1.44-.48-.7-.6-1.35-.75-1.6-.27-.45.22-.5,1.17-.55.46-.02,1.03-.2,1.67-.15.51.04,1.12-.23,1.72-.15.53.07,1.02.65,1.59.75s1.04.48,1.6.59,1.16-.07,1.71.05,1.02.59,1.55.73c.56.15,1.27-.27,1.78-.12.58.17,1,.68,1.48.86.57.21,1.13.37,1.62.46.61.12,1.21.07,1.69.03.61-.06.92-.68,1.35-.94.47-.29.88-.47,1.17-.95.27-.45.83-.83.95-1.39.11-.51-.1-1.11-.1-1.68s.13-1.16,0-1.74c-.1-.51-.04-1.3-.49-1.81-.32-.36-1.03-.52-1.62-.88-.43-.26-1.09-.19-1.7-.44-.48-.2-.91-.66-1.52-.86-.51-.16-1.01-.52-1.62-.68-.52-.14-1.18.13-1.78,0-.53-.12-.97-.86-1.57-.98-.54-.11-1.28.71-1.88.61-.55-.1-.97-1.04-1.57-1.14-.55-.09-1.14-.06-1.74-.14-.55-.08-1.12-.25-1.71-.33-.56-.07-1.19.31-1.78.23-.56-.07-1.09-.45-1.68-.52-.56-.07-1.17.24-1.76.18s-1.16.09-1.75.03-1.06-.94-1.65-1-1.19.41-1.78.36-1.16.06-1.75,0-1.14-.18-1.73-.23Zm-69.2,32.02c-.15.56-.47,1.05-.66,1.56-.2.54-.12,1.2-.36,1.69s-1.16.65-1.45,1.12-.05,1.34-.39,1.77-.85.78-1.24,1.18-.69.94-1.13,1.3-1.26.19-1.72.51-.57,1.22-1.07,1.49-1.22.08-1.74.31-1.12.17-1.65.37-.97.58-1.51.75-1.09.23-1.64.36-1.03.51-1.58.62-1.13.05-1.68.14-1.13-.06-1.7.02-1.01.91-1.57.98-1.18-.48-1.74-.45-1.12.21-1.67.21-1.16.41-1.72.36-1.12-.35-1.67-.43-1.07-.42-1.62-.55-.95-.71-1.48-.88-1.33.34-1.84.11-.79-.95-1.28-1.22-1.14-.28-1.6-.6-.67-.95-1.09-1.32-.78-.75-1.18-1.17-.94-.64-1.29-1.09-.35-1.09-.66-1.57-.5-.95-.77-1.46-1.11-.69-1.34-1.22-.38-1.06-.56-1.61-.37-1.06-.51-1.62c-.14-.56-.28-1.14-.35-1.7s.17-1.17.17-1.73.18-1.12.25-1.68-.37-1.24-.25-1.79.52-1.06.7-1.6.88-.88,1.1-1.4.02-1.24.27-1.74.35-1.13.63-1.62,1.25-.58,1.56-1.05.63-.94.96-1.39c.34-.48.46-1.08.8-1.52.37-.47.22-1.34.57-1.75.39-.46.97-.74,1.32-1.13.44-.47.91-.82,1.25-1.17.75-.76.52-.78,1.26-1.18.57-.16,1.11-.52,1.66-.66s1.29.37,1.85.25,1.08-.57,1.64-.67,1.2.08,1.76-.01,1.17.01,1.74-.06,1.09-.85,1.66-.89c.59-.05,1.2.45,1.77.43.6-.02,1.16-.22,1.73-.22.6,0,1.18-.11,1.74-.07.6.04,1.15.32,1.71.39.59.08,1.18.04,1.73.15.59.12,1.08.49,1.62.65.57.16,1.27-.1,1.8.1.56.21,1.22.21,1.73.46.53.26.8,1.01,1.28,1.31s1.03.56,1.48.92,1.18.47,1.59.87.54,1.12.9,1.57.36,1.16.68,1.64,1.12.69,1.38,1.21.56,1.05.78,1.59.32,1.14.48,1.7.18,1.17.29,1.73.27,1.14.35,1.71.01,1.18.04,1.75-.47,1.16-.48,1.73.1,1.15.05,1.71c-.06.6-.27,1.12-.37,1.67-.11.6.41,1.29.27,1.82Zm79.46-.34c-.14.56-.45,1.06-.62,1.58s-.07,1.2-.29,1.71-1.12.73-1.37,1.22.06,1.34-.24,1.8-.77.87-1.11,1.3-.58,1.02-.97,1.42-1.23.35-1.65.71-.44,1.29-.89,1.61-1.22.21-1.71.48-1.1.26-1.62.49-.94.63-1.47.81-1.08.24-1.63.38-1.04.48-1.6.57-1.13-.02-1.69.02-1.11-.18-1.68-.17-1.14.76-1.7.72-1.07-.68-1.63-.75-1.14.03-1.69-.05-1.19.26-1.74.17-1.08-.44-1.62-.55-1.06-.46-1.59-.6-.96-.71-1.49-.88-1.32.39-1.84.19-.85-.9-1.36-1.12-1.17-.18-1.65-.44-.77-.88-1.24-1.19-.87-.66-1.31-1.01-1.01-.53-1.4-.93-.47-1.04-.82-1.48-.58-.89-.88-1.37-1.16-.61-1.41-1.13-.43-1.04-.63-1.58-.4-1.05-.55-1.61c-.15-.53-.31-1.11-.42-1.71-.1-.55.09-1.17.03-1.77-.05-.56.05-1.14.03-1.74s-.56-1.17-.53-1.76.32-1.15.4-1.73.7-1.05.82-1.62-.21-1.23-.04-1.79.16-1.19.37-1.73,1.16-.74,1.43-1.26.53-.97.85-1.46.41-1.08.78-1.54.27-1.33.68-1.75,1.03-.63,1.5-.99.99-.62,1.49-.93,1-.58,1.54-.84.97-.69,1.53-.9c.53-.2,1.28.25,1.86.08.54-.15,1.01-.61,1.6-.73.55-.11,1.16.08,1.75,0,.56-.07,1.13.05,1.73,0,.56-.04,1.11-.79,1.7-.8.57,0,1.14.53,1.73.55.56.02,1.15-.14,1.74-.1s1.15-.04,1.74.03,1.11.36,1.69.45,1.15.05,1.74.16,1.07.46,1.65.59,1.23-.21,1.81-.07,1.29.07,1.87.22c.75.41.22.86.97,1.62.34.34.82.68,1.25,1.16.35.39,1.04.56,1.44,1.02.35.41.42,1.11.79,1.57.34.43.35,1.13.69,1.61s1.13.59,1.45,1.07.66.94.95,1.44.47,1.05.73,1.57.37,1.09.59,1.62.48,1.04.66,1.59.23,1.13.35,1.68-.27,1.18-.2,1.75.25,1.07.26,1.64-.16,1.07-.23,1.64.48,1.22.34,1.78Z"/>
        </g>
    </g>
    <rect class="cls-1" x="0" y="-.69" width="300" height="300"/>
</svg>
