<?xml version="1.0" encoding="UTF-8"?><svg id="glasses" xmlns="http://www.w3.org/2000/svg" viewBox="0 0 300 300"><defs><style>.cls-1{fill:none;}.cls-1,.cls-2{stroke-width:0px;}.cls-2{fill:#ffc602;}</style></defs><g id="component_1"><g id="component_1-2"><path class="cls-2" d="m219.94,150.69c-.22-.49-.67-1.08-1.1-1.5-.37-.37-1.27-.18-1.79-.5-.45-.27-.99-.38-1.54-.62-.49-.21-.94-.54-1.5-.73-.51-.17-1.06-.24-1.63-.39-.53-.14-.95-.8-1.52-.92-.54-.11-1.08-.32-1.65-.41s-1.19.43-1.76.35-1.13.09-1.7.03-1.06-.67-1.63-.72-1.12-.07-1.69-.11-1.11-.36-1.68-.38-1.15.61-1.72.59-1.12-.1-1.69-.11-1.12-.32-1.69-.32-1.13.18-1.69.19-1.14-.29-1.7-.28-1.11.75-1.67.77-1.13-.06-1.7-.03-1.15-.19-1.71-.16-1.11.34-1.67.38-1.14-.07-1.7-.03-1.16-.23-1.71-.18-1.13.17-1.68.23-1.09.54-1.63.61c-.58.07-1.17-.12-1.71-.05-.58.08-1.15.09-1.68.17-.58.09-1.12.25-1.65.35-.59.11-1.11.34-1.62.45-.59.13-1.15.17-1.67.36-.56.21-1.07.44-1.55.71-.52.29-1.22.3-1.65.66-.46.37-.88.82-1.25,1.25s-.92.82-1.23,1.31-.16,1.26-.39,1.78-.46,1.06-.62,1.61-.14,1.15-.26,1.71-.15,1.14-.22,1.7c-.07.6-.41,1.06-.43,1.61-.45-.31-.98-.33-1.5-.56s-.84-.99-1.39-1.14-1.21.28-1.78.18-1.07-.4-1.64-.45-1.11-.43-1.68-.43-1.11.52-1.68.55-1.15-.3-1.71-.25-1.02.86-1.58.94-1.1.11-1.66.21-1.13.04-1.68.15-1.13.07-1.68.19-1.16,0-1.7.13-1.06.44-1.59.59-1,.63-1.52.79-1.18.03-1.7.2c-.55.18-.98.68-1.49.86-.56.19-1.13.25-1.63.42-.57.21-1.09.21-1.57.39.03-.48.39-.97.39-1.6,0-.52-.83-1.05-.87-1.64-.03-.53.69-1.17.61-1.74-.07-.54-.53-1.04-.66-1.59s-.32-1.06-.5-1.59-.12-1.16-.36-1.67-.46-1.06-.77-1.53-.65-.96-1.03-1.38-1.04-.54-1.49-.89-.83-.74-1.33-1.02c-.47-.26-1.05-.33-1.6-.53-.5-.18-.97-.6-1.54-.72-.51-.11-1.04-.41-1.63-.51-.53-.1-1.11-.06-1.7-.16-.54-.08-1.18.39-1.75.31-.54-.07-1.1-.12-1.67-.19s-1.02-.86-1.59-.92-1.18.59-1.75.54-1.08-.45-1.65-.5-1.15.33-1.72.29-1.07-.81-1.64-.84-1.13.15-1.7.13-1.13.09-1.7.07-1.12-.26-1.69-.27-1.13-.1-1.7-.11-1.13.16-1.7.16-1.14-.34-1.7-.34-1.13.22-1.7.23-1.12.47-1.68.49-1.15-.25-1.71-.22-1.16-.19-1.71-.14-1.06.9-1.61.96-1.24-.74-1.79-.67-1.04.82-1.58.91-1.08.4-1.62.51c-.57.12-1.09.27-1.62.4-.57.15-1.08.32-1.59.49-.56.18-1.17.09-1.66.3-.55.24-1.25.12-1.71.4-.52.31-.55,1.16-.92,1.53-.43.42-1,.6-1.22,1.09-.23.51-.18,1.12-.38,1.64s-.89.87-1.06,1.41-.32,1.08-.46,1.63-.31,1.09-.42,1.64.36,1.2.27,1.75-.3,1.08-.36,1.63-.54,1.08-.58,1.63.43,1.15.41,1.7.17,1.12.17,1.67-.76,1.15-.73,1.7.79,1.08.84,1.62c.05.57-.59,1.21-.52,1.75.08.58.34,1.12.43,1.64.11.58.31,1.12.43,1.62.13.52.78.93.93,1.48s0,1.15.19,1.68.26,1.09.52,1.6.69.87,1.03,1.33c.32.44.87.64,1.28,1.05.39.37.62.9,1.1,1.23.44.3.74.89,1.27,1.15.48.23,1.01.46,1.57.65.5.17,1.07.27,1.65.4.52.12,1.14-.14,1.72-.06.53.08,1.02.7,1.61.75.53.04,1.12-.38,1.71-.36.54.02,1.1.36,1.68.36.54,0,1.07-.7,1.65-.73.54-.03,1.11.2,1.69.16.54-.04,1.11.04,1.69-.02.89-.05.88-.35,1.76-.38s.9.23,1.78.2.89-.01,1.77-.04.9.28,1.78.25.87-.64,1.75-.67.9.4,1.79.37.9.37,1.79.34.88-.4,1.76-.43.89.18,1.78.14.89-.11,1.78-.14.9.14,1.79.1.87-.75,1.76-.76c.81-.01.63-.12,1.62-.12.47,0,1-.01,1.6-.03.51-.02,1.1.89,1.66.85.53-.03.98-1.06,1.53-1.12s1.14.39,1.66.31c.55-.09,1.18.18,1.68.05.56-.14.84-1.02,1.3-1.22.56-.25,1.23-.16,1.54-.51.32-.36.25-1.05.51-1.67.2-.48.24-1.04.41-1.64.15-.53.79-.95.91-1.54.12-.55.42-1.08.52-1.67s-.36-1.22-.28-1.8.43-1.12.49-1.7c.52-.23.86-.88,1.37-1.09s1.33.28,1.84.09,1-.53,1.51-.72,1.14-.15,1.66-.32,1.08-.31,1.6-.47c.55-.17.82-1.2,1.35-1.35.55-.16,1.23.18,1.76.05.56-.14,1.18.09,1.71-.03.56-.12.97-.91,1.51-1.01.57-.1,1.18.16,1.71.09.57-.08,1.08-.68,1.61-.73.58-.05,1.17.29,1.71.27.58-.02,1.15-.2,1.69-.19.58.01,1.08.81,1.61.86.58.06,1.25-.73,1.77-.64.58.1,1.08.5,1.59.65.57.16.99.64,1.48.83.55.22,1.19.17,1.64.42.53.29.83.76,1.24,1.06.05.59.69,1.1.75,1.71s-.13,1.23-.05,1.83.1,1.22.2,1.81-.4,1.33-.28,1.91c.13.62.45,1.2.6,1.75.18.63.64,1.13.85,1.64.27.65.19,1.51.52,1.89.31.35,1.24.07,1.8.32.45.2.94.3,1.5.44.5.13.99.33,1.54.42s1.08-.07,1.61-.01,1.04.49,1.57.52c.56.04,1.11-.24,1.62-.23.6.02,1.13.54,1.6.54.98,0,.8.25,1.6.26.89.02.91-.73,1.79-.69s.88.15,1.77.18.88.15,1.77.19.88.28,1.76.31.89-.13,1.78-.1.89-.16,1.78-.13.87.55,1.76.59.89.08,1.78.11.89-.15,1.78-.12.89.08,1.78.11.92-.65,1.81-.62.87.57,1.76.62c.57.06,1.16-.24,1.7-.19.58.05,1.13.08,1.67.11.58.03,1.13-.1,1.67-.09.58,0,1.15.82,1.69.81.59-.02,1.17-.09,1.7-.14.58-.05,1.15-.25,1.68-.32.58-.09,1.06-.58,1.58-.7.58-.13,1.14-.18,1.64-.35.56-.19.91-.74,1.38-.97.53-.26,1.15-.23,1.59-.53.48-.33.78-.81,1.16-1.18.41-.4,1.11-.53,1.43-.97.34-.46.75-.91,1-1.4s-.2-1.31-.02-1.83.42-1.02.56-1.55c.15-.55,1.08-.89,1.21-1.41.13-.51.27-1.08.38-1.66.1-.52.05-1.12.13-1.7.07-.53-.46-1.16-.41-1.73.05-.54.14-1.09.17-1.66s-.12-1.1-.11-1.67.45-1.11.43-1.68-.44-1.09-.48-1.65.63-1.18.57-1.74-.75-1.03-.83-1.59-.32-1.06-.43-1.61,0-1.13-.14-1.68-.39-1.04-.55-1.58-.59-.96-.79-1.48.51-1.42.28-1.93Zm-93.65,14.31c-.01.6-.01,1.15-.04,1.69-.03.6.62,1.21.57,1.74-.06.61.02,1.21-.06,1.72-.09.61-.36,1.16-.48,1.66-.15.61-.26,1.21-.45,1.68-.25.6-1.01.81-1.31,1.21-.38.49-.78.71-1.23.99-.48.31-.72,1.06-1.26,1.25s-.99.55-1.54.74c-.34.11-1.07-.32-1.81-.24-.48.06-1.04.12-1.67.17-.52.04-1.09-.22-1.69-.18-.53.03-1.06.71-1.64.74-.54.02-1.11-.03-1.68,0-.55.02-1.12-.27-1.69-.26s-1.11.21-1.67.22-1.12-.29-1.68-.27-1.1.74-1.67.75-1.12-.09-1.68-.08-1.13-.23-1.69-.23-1.12.28-1.68.29-1.13-.15-1.68-.14-1.13-.32-1.68-.32-1.13.07-1.68.07c-.58,0-1.13.42-1.68.43-.58,0-1.15-.26-1.69-.26-.59,0-1.15-.07-1.68-.06-.61,0-1.17.08-1.68.09-.66,0-1.21.14-1.66.16-.62.02-1.24-.2-1.72-.37-.55-.2-1.08-.54-1.48-.92s-.44-1.06-.72-1.56-.5-.96-.67-1.5-.1-1.12-.2-1.65c-.11-.6-.66-1.1-.7-1.6-.08-1,0-.85-.03-1.69s-.25-.66-.33-1.74c-.03-.51-.12-1.11-.14-1.76-.02-.55.32-1.15.33-1.77,0-.57-.25-1.17-.22-1.77s.68-1.11.75-1.7-.41-1.24-.3-1.81.5-1.11.67-1.65c.18-.59.72-.95.98-1.44.29-.55.18-1.27.58-1.66.42-.42,1.04-.38,1.6-.56.43-.14.82-.99,1.5-1.09.51-.08,1.1-.1,1.72-.16.53-.05,1.12.06,1.72.02.54-.04,1.12.1,1.71.07.55-.03,1.13.22,1.71.21.55-.02,1.12-.19,1.7-.2s1.12-.36,1.7-.36,1.13.31,1.71.31,1.13-.35,1.71-.35,1.14.14,1.71.15,1.14.22,1.71.23,1.14.31,1.71.32,1.16-.8,1.73-.78,1.12.81,1.69.83,1.16-.33,1.72-.31,1.15-.01,1.71.01,1.14.34,1.69.36c.59.03,1.15.13,1.7.16.59.03,1.16.1,1.7.13.61.04,1.2-.29,1.72-.25.63.04,1.19.21,1.69.25.71.06,1.31-.05,1.71,0,.58.08.96.56,1.39.93.4.35.55.84.84,1.37.26.47.58.89.76,1.45.17.52.87.93.99,1.49s.25,1.14.32,1.69c.08.58-.6,1.23-.56,1.76.05.62.78,1.16.8,1.65.03,1.02-.8.84-.83,1.68Zm83.52,12.77c-.45-.01-1.03,0-1.69-.01-.51,0-1.08.68-1.69.68-.53,0-1.09.14-1.68.14-.54,0-1.1-.16-1.68-.16-.54,0-1.1.08-1.68.07s-1.1-.56-1.68-.57-1.11-.11-1.68-.12-1.12.6-1.68.6-1.12.22-1.68.21-1.11-.57-1.68-.58-1.13,0-1.69-.01-1.12-.31-1.68-.32-1.14.63-1.69.62-1.13-.1-1.68-.11-1.12-.34-1.67-.36c-.58-.02-1.15.14-1.69.11-.59-.02-1.13-.36-1.66-.39-.6-.03-1.21.65-1.72.61-.63-.05-1.2-.21-1.68-.26-.74-.09-1.3-.44-1.64-.55-.55-.18-1.19-.08-1.71-.27s-1.06-.58-1.54-.88c-.45-.29-.67-.91-1.04-1.41-.3-.4-.63-.84-.87-1.44-.19-.47-.77-.9-.92-1.51-.12-.5.02-1.12-.07-1.74-.08-.52-.07-1.09-.13-1.7-.05-.53-.16-1.09-.19-1.69-.03-.54-.17-1.1-.19-1.7-.03-.85.09-.68.12-1.7.01-.49.04-1.07.09-1.69.04-.53.48-1.06.56-1.64s.14-1.1.26-1.66.46-1.03.63-1.55c.19-.56-.05-1.25.21-1.72.29-.53.67-.98,1.07-1.32.43-.37.93-.8,1.51-.88.4-.06.99-.17,1.7-.23.5-.04,1.1.26,1.73.22.53-.04,1.08-.35,1.69-.38.54-.03,1.14.54,1.73.51.55-.03,1.09-.62,1.67-.65.55-.03,1.13.2,1.72.18s1.14.32,1.72.3,1.11-.55,1.69-.56,1.14.34,1.72.33,1.12-.78,1.69-.79,1.14.03,1.71.02,1.15.15,1.72.14,1.14.16,1.71.15,1.14.27,1.71.27,1.15-.15,1.71-.15,1.16-.32,1.71-.31,1.14.34,1.7.36c.59.02,1.17-.31,1.72-.28.59.03,1.16.2,1.7.23.6.04,1.16.3,1.69.35.62.06,1.14.42,1.64.5.67.1,1.42-.57,1.85-.44.57.18.69,1.16,1.11,1.58.4.39,1,.62,1.28,1.17.26.49.53,1.03.71,1.62.17.54.02,1.18.14,1.77s.11,1.14.18,1.73.08,1.16.11,1.74.41,1.17.41,1.74c0,.62-.13,1.21-.14,1.76-.02.65.12,1.26.09,1.76-.07,1.07-.39.86-.43,1.73s-.16.67-.24,1.66c-.04.5.02,1.06-.09,1.66-.1.53.31,1.24.13,1.79s-.4,1.14-.67,1.63-1.19.5-1.6.89-.51,1.27-1.06,1.47c-.49.17-1.14-.54-1.77-.56Z"/></g></g><rect class="cls-1" x="0" y="-.69" width="300" height="300"/></svg>