<?xml version="1.0" encoding="UTF-8"?>
<svg id="glasses" xmlns="http://www.w3.org/2000/svg" viewBox="0 0 300 300">
  <path d="m230.72,151.57c0-.92-.6-2.2-1.34-2.69-1.56-1.03-10.92-4.21-18.99-5.71-9.24-1.72-19.71-1.54-23.2-1.29-5.09.36-7.49,0-16.81,1.52-4.21.69-15.06,3-19.38,3.05-9.95.12-13.39-2.28-23.31-3.67-7.43-1.05-20.46-1.38-28.31-.94-10.36.58-15.61.29-24,2.39-2.87.72-3.64,11.84-4.16,17.48-.6,6.48-.39,19.76.95,24.87,1.3,4.99,3.76,9.48,8.97,11.77,4.18,1.83,15.07,3.18,17.37,3.39,5.15.48,17.85-.53,22.76-2.23,8.01-2.77,11.95-6.43,16.2-13.73,2-3.44,3.27-7.31,4.99-10.93,1.45-3.07,2.61-5.1,4.66-8.41,1.72-2.79,5.26-1.69,6.34-.64,2,1.95,5.35,7.27,7.2,10.42,3.36,5.73,6.73,13.03,10.53,17.2s6.85,7.01,12.07,7.73c7.64,1.05,20.94,1.87,29.89-.05,3.77-.81,7.04-2.46,9.57-5.24,3.1-3.42,4.59-7.85,5.33-12.22.92-5.4,2.19-17.37,2.21-17.88.18-4.73.42-9.46.45-14.19Zm-94.88,19.78c-1.93,4.06-3.52,8.32-5.83,12.14-3.31,5.48-9.12,9.62-15.47,11.11-2.62.62-10.72.67-13.43.62-6.57-.12-15.67-2.5-18.07-3.84-2.91-1.64-4.78-5.87-5.26-8.92-.68-4.39-.66-8.76-.35-13.24.3-4.28.85-7.98,2.18-11.58,1.6-4.36,5.76-4.5,10.08-5.27,2.26-.4,14.35-1.06,17.9-1.07,3.52,0,17.01-.28,23.37,1.64,3.8,1.15,7.06,5.42,7.05,9.12-.01,3.27-.77,6.35-2.17,9.3Zm86.62,10.76c-1.56,9.29-5.44,11.41-8.62,12.5-3.35,1.15-11.72,2.24-17.5,2.19-6.97-.07-14.3-1.54-19.41-6.73s-11.3-16.92-12.84-22.47c-2.45-8.83.24-12.87,4.41-13.99,7.86-2.11,11.55-2.34,19.71-2.36,7.09-.02,17.15-.26,28.97,2.83,6.77,1.77,7.09,7.82,6.88,11.27-.44,7.09-.42,9.78-1.59,16.76Z" style="fill: #151515; stroke-width: 0px;"/>
</svg>