<?xml version="1.0" encoding="UTF-8"?><svg id="glasses" xmlns="http://www.w3.org/2000/svg" viewBox="0 0 300 300"><defs><style>.cls-1{fill:none;}.cls-1,.cls-2,.cls-3{stroke-width:0px;}.cls-4{opacity:.59;}.cls-2{fill:#c5e7fa;}.cls-3{fill:#fff100;}</style></defs><g id="component_5"><g class="cls-4"><path class="cls-2" d="m120.28,178.97c-1.29,0-1.29-.17-2.57-.17s-1.29-.2-2.58-.2-1.29.3-2.57.3-1.29-.32-2.58-.32-1.29.58-2.58.58-1.29-.21-2.57-.21-1.29-.23-2.57-.23-1.29-.08-2.58-.08-1.29-.26-2.58-.26-1.29,0-2.58,0-1.29.55-2.58.55-1.29.09-2.58.09c-.82,0-1.72-.07-2.46-.31s-1.28-1.08-1.92-1.55-1.35-.88-1.82-1.53-1.2-1.25-1.45-2.02-.28-1.66-.28-2.49c0,0,.26,0,.26,0,0-.82.22-1.6.46-2.34s.36-1.65.83-2.29,1-1.41,1.65-1.88,1.46-.93,2.23-1.18,1.68.38,2.5.38c1.29,0,1.29-.35,2.57-.35s1.29.29,2.58.29,1.29.14,2.57.14,1.29-.17,2.58-.17,1.29-.59,2.58-.59,1.29.81,2.57.81,1.29-.29,2.57-.29,1.29-.21,2.58-.21,1.29.28,2.58.28,1.29-.23,2.58-.23,1.29-.02,2.58-.02,1.29.26,2.58.26c.82,0,1.64-.2,2.39.04s1.71.36,2.35.83.86,1.46,1.34,2.11.94,1.28,1.19,2.05.71,1.54.71,2.36c0,0-.71,0-.71,0,0,.82.04,1.55-.2,2.3s-.31,1.63-.78,2.27-1.33.9-1.97,1.37-1.23.92-2,1.18-1.49.72-2.31.72Z"/></g><g class="cls-4"><path class="cls-2" d="m206.53,178.88c-1.29,0-1.29-.27-2.57-.27s-1.29-.05-2.58-.05-1.29-.05-2.57-.05-1.29-.05-2.58-.05-1.29.23-2.58.23-1.29.32-2.57.32-1.29-.04-2.57-.04-1.29-.39-2.58-.39-1.29.48-2.58.48-1.29.18-2.58.18-1.29-.04-2.58-.04-1.29-.36-2.58-.36c-.82,0-1.52-.46-2.27-.71s-1.49-.47-2.13-.93-.97-1.16-1.44-1.81-.78-1.24-1.03-2.01-1.19-1.41-1.19-2.23c0,0,.11,0,.11,0,0-.82.73-1.52.97-2.27s.58-1.41,1.04-2.05,1.06-1.05,1.71-1.52,1.1-1.19,1.87-1.45,1.54-.71,2.36-.71c1.29,0,1.29.78,2.57.78s1.29-.6,2.58-.6,1.29-.2,2.57-.2,1.29.09,2.58.09,1.29.23,2.58.23,1.29-.12,2.57-.12,1.29-.3,2.57-.3,1.29.82,2.58.82,1.29-.07,2.58-.07,1.29.02,2.58.02,1.29-.67,2.58-.67,1.29.47,2.58.47c.82,0,1.52.34,2.26.58s1.53.39,2.17.86.9,1.24,1.38,1.88.89,1.19,1.14,1.96.97,1.43.97,2.26c0,0-.21,0-.21,0,0,.82-.33,1.57-.57,2.31s-.12,1.79-.59,2.44-1.32,1.07-1.97,1.54-1.51.53-2.28.78-1.47.68-2.3.68Z"/></g><path class="cls-3" d="m169.61,170.65c.17-.51.29-1.32-.08-1.7-.43-.44-1.47-.64-2.52-1.3-.67-.42-1.22-1.36-2.2-1.79-.76-.33-1.83-.1-2.81-.4-.81-.25-1.71-.37-2.69-.58-.84-.19-1.68-.64-2.66-.78-.86-.13-1.78-.14-2.76-.23-.88-.08-1.78-.28-2.75-.32-.88-.04-1.81.03-2.77.03-1.32-.02-1,.23-2.61.3-.76.03-1.65-.12-2.63-.04-.82.07-1.74-.18-2.65-.06-.84.11-1.69.43-2.58.6s-1.81.02-2.66.25-1.71.55-2.53.85-1.51,1.03-2.27,1.43c-.8.43-1.69.71-2.34,1.25-.7.58-1.43,1.19-1.9,1.91-.33.5.29,1.07.63,1.56.06.08-.64.55-.58.63.48.72,2.05.93,2.71.38.51-.42,1.15-.92,2.01-1.48.63-.41.99-1.5,1.82-1.92.7-.36,1.53-.67,2.37-1,.75-.29,1.57-.61,2.43-.85.78-.22,1.68-.15,2.56-.32.8-.15,1.66-.13,2.54-.23.81-.09,1.65-.06,2.54-.09.82-.02,1.66-.04,2.54,0,.12,0,.2-.33.31-.35.33-.07,1.28-.22,2.56-.19.72.02,1.53.68,2.47.77.78.08,1.65-.17,2.53-.03.79.13,1.66.14,2.5.34.79.19,1.47.9,2.28,1.15s1.82-.12,2.6.21,1.43.93,2.18,1.33,1.52.74,2.22,1.21c.84.57,1.76.39,2.07-.57,0,0,.11.04.11.04Z"/></g><rect class="cls-1" x="0" y="-.69" width="300" height="300"/></svg>