<svg xmlns="http://www.w3.org/2000/svg" viewBox="0 0 300 300">
    <path d="M150 141.68c-9.65 0-12.05-.92-25.25-5.37-15.96-5.38-64.98.06-64.98.06v8.51s5.88 1.58 6.72 5.22c.84 3.64-6.68 54.22 35.57 56.01 44.39 1.88 34.88-47.3 47.94-47.3s3.54 49.18 47.94 47.3c42.25-1.79 34.73-52.37 35.57-56.01.84-3.64 6.72-5.22 6.72-5.22v-8.51s-49.01-5.45-64.98-.06c-13.2 4.45-15.61 5.37-25.25 5.37Zm-46.26 59.77c-17.32-.69-32.19-12.83-32.21-34.55-.02-24.31 17.8-26.46 28.85-26.46 7 0 34.73 0 35.85 21.38 1.23 23.49-15.17 40.32-32.49 39.63Zm60.03-39.63c1.12-21.38 28.85-21.38 35.85-21.38 11.04 0 28.87 2.15 28.85 26.46-.02 21.72-14.89 33.86-32.21 34.55-17.32.69-33.72-16.14-32.49-39.63Z" fill="#231815" stroke-width="0"/>
</svg>
