<?xml version="1.0" encoding="UTF-8"?>
<svg width="42.6px" height="21.288px" viewBox="0 0 42.6 21.288" version="1.1" xmlns="http://www.w3.org/2000/svg" xmlns:xlink="http://www.w3.org/1999/xlink">
    <title>btn_eyebrowe</title>
    <g id="Symbols" stroke="none" stroke-width="1" fill="none" fill-rule="evenodd">
        <g id="btn_eyebrowe" transform="translate(0.000000, -0.000000)" fill="#B8BDB4" fill-rule="nonzero">
            <path d="M5.448,21.288 C5.448,21.288 6.288,21.288 6.576,20.76 C7.128,20.424 11.976,20.376 13.296,20.088 L14.52,20.4 L15.24,20.472 L15.72,20.4 C15.96,19.824 16.104,17.496 16.272,16.848 C16.344,16.296 16.44,12.528 16.44,12.528 C16.344,11.88 16.2,11.232 16.032,10.608 C15.792,9.96 15.624,9.312 15.384,8.76 C14.904,8.52 14.424,8.28 13.872,8.112 C13.296,8.04 7.536,7.92 7.536,7.92 L6.336,7.584 L6.576,6.624 C8.04,6.552 10.848,6.192 11.928,6.144 C13.056,6.096 14.664,6.264 15.72,5.856 C16.032,5.376 17.52,2.184 17.616,1.608 L17.448,1.056 C16.968,0.504 16.392,0.168 15.768,1.42108547e-14 C15.192,1.42108547e-14 14.712,1.42108547e-14 14.16,1.42108547e-14 C13.584,1.42108547e-14 9.696,0.264 8.568,0.384 L4.968,0.6 C4.32,0.696 3.768,0.84 3.216,1.08 L3.288,1.488 L4.08,2.136 C3.648,4.944 2.088,9.912 1.68,11.448 C1.272,12.96 0.648,14.304 4.54747351e-13,15.744 L0.216,16.44 C0.672,16.68 1.32,16.272 1.992,15.624 C2.4,15.048 3.6,13.176 4.08,12.072 C4.32,11.52 4.656,10.872 4.968,10.32 L5.208,10.32 L4.8,17.064 C4.728,17.712 4.56,18.336 4.488,18.912 L4.656,20.16 C4.8,20.544 5.04,20.952 5.448,21.288 Z M13.392,17.976 L12.264,18.144 C12.264,18.144 7.368,18.192 7.128,17.952 L7.536,16.44 L8.352,16.2 L13.368,16.464 L13.392,17.976 Z M13.224,14.544 L8.256,14.592 L7.704,14.352 C7.704,13.944 7.872,13.296 8.112,12.984 L12.336,13.032 L13.128,13.104 L13.224,14.544 Z M13.128,11.4 L7.704,11.28 L7.704,10.008 C8.112,9.768 12.408,9.72 12.408,9.72 C12.744,9.96 12.984,10.296 13.128,10.68 L13.128,11.4 Z M8.496,4.704 L6.744,4.776 C6.816,4.368 6.888,2.616 7.224,2.28 L9.384,2.208 C9.384,2.208 8.904,4.368 8.496,4.704 Z M11.592,4.176 C11.76,3.768 12.192,1.944 12.192,1.944 L14.208,1.944 C14.112,2.592 13.944,3.72 13.704,4.272 C12.24,4.416 11.928,4.344 11.592,4.176 Z" id="Shape"></path>
            <path d="M38.184,20.232 C38.832,20.232 39.48,20.232 40.104,20.112 C40.68,20.112 41.232,20.04 41.808,19.872 C42.192,19.704 42.432,19.488 42.6,19.104 C42.6,18.624 42.6,18.144 42.528,17.712 C42.432,17.304 42.408,17.016 42.312,16.128 C42.24,15.12 41.688,14.496 41.4,14.136 C41.112,13.776 40.92,13.728 40.512,13.8 C40.296,14.28 39.624,15.84 39.384,16.32 C39.144,16.824 38.76,17.256 38.352,17.664 L38.112,17.808 C37.464,17.736 36.816,17.736 36.192,17.664 C35.544,17.664 34.968,17.568 34.416,17.328 C33.936,17.088 33.528,16.752 33.288,16.248 C33.288,15.576 33.456,15 33.696,14.448 C34.344,14.064 35.064,13.896 35.856,13.896 C36.576,13.968 37.392,13.896 38.112,13.728 C38.832,13.656 39.48,13.392 40.104,13.152 L40.656,12.864 L41.088,12.456 L40.992,11.544 C40.68,11.136 40.272,10.992 39.72,11.064 L38.52,11.232 C36.768,11.544 35.448,11.736 34.968,11.736 C34.488,11.808 34.104,11.736 33.696,11.496 C33.624,10.728 33.768,10.152 34.104,9.552 C34.488,9.072 35.064,8.808 35.688,8.712 C36.264,8.64 36.816,8.568 37.392,8.328 L37.944,7.752 L37.704,7.224 C37.296,6.816 36.912,6.552 36.336,6.552 C35.784,6.624 34.872,6.552 34.32,6.552 C34.368,5.712 34.728,4.872 34.968,4.272 L35.448,4.44 L36.576,4.344 C36.912,4.272 37.152,4.056 37.224,3.72 L37.344,2.112 C36.96,1.872 36.48,1.632 36.072,1.56 C35.592,1.488 35.112,1.32 34.704,1.056 C34.224,1.248 33.744,1.32 33.168,1.248 C32.088,1.608 31.536,1.704 31.128,1.944 C30.6,2.568 30.096,3.144 29.688,3.456 C29.184,3.816 28.536,4.32 28.128,4.656 C27.72,4.968 27.312,5.304 26.928,5.616 C27,5.832 27.24,5.952 27.648,6.024 L28.608,5.832 L30.168,5.952 L30.48,6.36 L30.312,6.888 C29.928,7.056 29.448,7.128 28.968,7.224 C28.392,7.296 27.912,7.368 27.432,7.464 C26.952,7.536 26.472,7.632 25.896,7.536 L25.512,7.944 L25.632,8.496 L27.744,9.552 L29.592,9.456 L29.928,9.888 L29.688,11.808 C29.208,12.048 27.432,12.072 26.208,12.144 L25.272,11.64 L24.624,11.64 L24.144,12.192 L24.312,13.176 C24.552,13.488 24.792,13.728 25.104,13.896 C25.416,14.136 25.752,14.304 26.064,14.448 L28.392,14.208 L29.352,14.304 C29.448,14.736 29.592,15.24 29.76,15.648 C29.928,16.08 30.168,16.464 30.48,16.848 C30.792,17.28 31.056,17.688 31.296,18.12 C31.848,18.744 32.568,19.248 33.288,19.488 C34.008,19.704 34.824,19.872 35.688,19.968 C36.576,20.04 37.392,20.112 38.184,20.232 Z" id="Path"></path>
        </g>
    </g>
</svg>