<?xml version="1.0" encoding="UTF-8"?>
<svg width="46.2721815px" height="20.832px" viewBox="0 0 46.2721815 20.832" version="1.1" xmlns="http://www.w3.org/2000/svg" xmlns:xlink="http://www.w3.org/1999/xlink">
    <title>btn_blush</title>
    <g id="Symbols" stroke="none" stroke-width="1" fill="none" fill-rule="evenodd">
        <g id="btn_blush" transform="translate(0.000000, -0.000000)" fill="#B8BDB4" fill-rule="nonzero">
            <path d="M4.87218147,20.76 L7.03218147,20.664 L7.44018147,19.632 L7.27218147,17.064 L7.12818147,6.792 C7.12818147,5.496 7.03218147,4.224 6.88818147,3 L6.96018147,2.52 L6.79218147,1.896 C6.07218147,1.416 5.18418147,1.08 4.32018147,1.008 L3.12018147,1.176 C2.61618147,1.176 2.13618147,1.08 1.65618147,0.936 L0.384181474,1.008 L0.144181474,1.488 L0.216181474,1.968 L0.0481814745,5.496 L0.00018147448,15.936 C0.00018147448,17.304 -0.0238185255,18.816 0.480181474,20.016 C0.744181474,20.208 1.03218147,20.208 1.32018147,19.944 C1.96818147,18.888 1.94418147,17.856 2.11218147,16.296 L2.40018147,13.392 C3.14418147,13.32 3.50418147,13.2 4.15218147,12.96 L4.46418147,12.96 L5.04018147,17.064 L4.70418147,17.712 C4.22418147,17.952 3.74418147,18.096 3.19218147,18.192 C3.38418147,18.816 3.60018147,19.608 3.91218147,20.04 L4.87218147,20.76 Z M17.5441815,20.52 C18.1681815,20.352 18.6481815,20.112 19.2001815,19.728 L20.0881815,17.952 L20.0161815,17.64 L20.1601815,16.608 L20.0881815,15.648 L19.5361815,15.168 L18.9121815,15.48 L18.6001815,16.44 C18.1921815,17.16 17.7841815,17.664 17.0881815,18.048 C16.3441815,18.048 15.7681815,17.736 15.1921815,17.256 C14.7121815,16.68 14.3041815,16.128 13.9921815,15.48 C13.6561815,14.832 13.4161815,14.208 13.1761815,13.56 L11.7601815,12.768 L10.8001815,12.912 C10.8961815,13.944 11.1361815,14.736 11.5201815,15.456 C11.9281815,16.176 12.3361815,16.824 12.8881815,17.472 C13.6081815,18.192 14.3281815,18.912 15.0481815,19.464 C15.7681815,20.04 16.5841815,20.352 17.5441815,20.52 Z M9.14418147,18.504 C9.91218147,17.784 10.3201815,16.872 10.8241815,15.816 L10.5841815,14.784 C10.2721815,14.304 9.79218147,14.136 9.38418147,14.136 L8.73618147,14.136 L7.80018147,14.304 L7.56018147,15.168 L8.11218147,17.088 L9.14418147,18.504 Z M17.1361815,15.456 L17.6881815,15.456 L18.0721815,14.904 L17.6881815,13.32 L16.0801815,12.432 C15.6001815,12.36 15.1441815,12.6 15.0721815,13.056 C15.3121815,13.704 15.6241815,14.256 16.1761815,14.808 L17.1361815,15.456 Z M21.2161815,14.544 L21.6241815,14.472 L22.4881815,13.104 L22.4161815,12.552 C21.7681815,12 21.2161815,11.688 20.4241815,11.52 L19.9441815,11.592 L19.8001815,11.904 L19.8001815,12.696 C20.1841815,13.344 20.5921815,13.896 21.2161815,14.544 Z M4.32018147,10.8 L2.95218147,11.088 L2.56818147,10.848 L2.64018147,9.24 C3.04818147,9 3.74418147,8.712 4.15218147,8.64 L4.56018147,8.784 C4.63218147,9.192 4.56018147,9.6 4.32018147,10.8 Z M11.8321815,10.968 C12.8881815,10.824 13.9201815,10.656 14.9761815,10.488 C16.0081815,10.416 16.9681815,10.104 17.9281815,9.696 L18.7441815,10.248 L19.0561815,10.248 L19.4641815,9.864 L19.3681815,9.288 L19.4641815,9.048 L20.1841815,2.88 L20.1121815,2.16 L20.1841815,1.824 L19.9441815,1.272 C19.3681815,0.864 18.7441815,0.624 18.0241815,0.384 C17.3041815,0.216 16.5601815,0.144 15.8401815,0.072 C14.8801815,-0.024 13.9201815,-0.024 13.0321815,0.072 C12.0721815,0.144 11.1841815,0.312 10.3201815,0.552 L9.84018147,0.384 L9.33618147,0.456 L8.61618147,1.032 C8.71218147,2.64 8.85618147,4.224 9.02418147,5.76 C9.19218147,7.368 9.67218147,8.808 10.3921815,10.104 L11.8321815,10.968 Z M4.22418147,6.456 L4.15218147,6.552 C3.74418147,6.552 3.36018147,6.384 3.12018147,6.144 L3.36018147,4.128 L3.26418147,3.408 L3.50418147,3.336 L3.84018147,3.408 C4.08018147,4.608 4.32018147,5.832 4.39218147,6.144 L4.22418147,6.456 Z M13.1281815,8.256 L12.4081815,8.4 C12.0721815,8.496 11.8321815,8.328 11.6641815,8.088 L11.8801815,6.504 L13.3201815,6.408 C13.4161815,6.744 13.2721815,8.016 13.1281815,8.256 Z M17.4481815,7.848 L16.1761815,8.016 C15.7681815,8.088 15.3601815,8.016 15.0481815,7.848 L15.2881815,6.36 L17.3761815,6.144 L17.6161815,7.44 L17.4481815,7.848 Z M13.1761815,4.104 L11.7361815,4.272 L11.4241815,3.672 L11.5921815,2.88 L12.7921815,2.304 C13.0321815,2.232 13.2721815,2.304 13.4401815,2.544 L13.1761815,4.104 Z M17.0641815,4.224 L15.6001815,3.984 L15.7681815,2.88 L16.3201815,2.304 L16.9681815,2.4 L17.2081815,3.192 C17.2081815,3.192 17.2081815,3.816 17.0641815,4.224 Z" id="Shape"></path>
            <path d="M29.3281815,20.832 L30.0961815,20.664 C30.3361815,20.352 30.5041815,19.944 30.5761815,19.536 C30.6481815,19.152 30.7441815,18.72 30.7441815,18.336 L30.6481815,15.72 L30.5761815,15.288 L29.8561815,12.504 L31.6321815,11.688 L32.6161815,12.792 L33.7921815,13.704 C34.3681815,13.776 34.8721815,13.344 35.0401815,13.056 L35.0401815,12.792 C34.8001815,12.36 34.1761815,11.616 33.6241815,11.136 C33.0721815,10.656 32.7121815,10.296 32.4721815,9.96 C32.1361815,9.72 31.8241815,9.48 31.4161815,9.408 L30.9361815,9.624 L30.9361815,10.656 L29.1601815,11.136 L28.6801815,11.064 L28.6801815,10.752 L30.4561815,9.336 C30.6961815,9.072 31.0081815,8.76 31.3441815,8.4 C31.5841815,8.16 31.8241815,7.8 31.8961815,7.416 C31.9921815,6.912 31.8961815,6.504 31.6561815,6.216 L30.2881815,5.352 L30.0481815,5.352 C29.8081815,5.76 29.5681815,6.096 29.2561815,6.432 C28.8481815,6.864 28.5361815,7.176 28.2961815,7.512 C27.9601815,7.968 27.6481815,8.304 27.2401815,8.544 L26.7601815,8.136 L26.7601815,7.704 C27.1681815,7.128 27.4801815,6.648 27.8881815,6.048 C28.2961815,5.544 28.6801815,5.04 29.1601815,4.608 C29.4241815,4.368 29.7361815,4.152 29.9761815,3.888 C30.2161815,3.6 30.5281815,3.528 30.9361815,3.456 C31.3441815,3.216 31.6561815,2.808 31.8241815,2.352 C31.8961815,2.04 31.8241815,1.752 31.5841815,1.536 L29.4241815,0.168 C29.0161815,0.168 28.6801815,0.36 28.4401815,0.576 C28.2001815,0.84 27.8881815,1.104 27.5761815,1.272 C27.2401815,1.656 27.0001815,2.064 26.7601815,2.496 C26.5201815,3.024 26.3521815,3.528 26.1121815,3.936 C25.8721815,4.344 25.6321815,4.848 25.5601815,5.328 C25.3201815,5.76 25.0801815,6.096 24.8401815,6.432 C24.5281815,6.768 24.2641815,7.104 24.0241815,7.512 L24.0241815,7.8 L25.6321815,9.6 C25.3201815,10.056 25.1521815,10.44 25.0801815,10.848 C25.0081815,11.376 24.7681815,11.784 24.4321815,12.216 L24.4321815,13.44 L24.9121815,13.92 C25.4881815,13.848 25.9681815,13.752 26.5201815,13.656 C27.0001815,13.56 27.4801815,13.488 27.9121815,13.248 C28.0081815,13.896 28.0321815,14.64 28.1281815,15.216 C28.2001815,15.792 28.2721815,16.392 28.3681815,16.944 C28.4401815,17.544 28.5121815,18.12 28.5121815,19.392 L28.5121815,19.872 C28.6801815,20.28 28.9201815,20.592 29.3281815,20.832 Z M31.3681815,16.536 C31.6321815,17.04 31.8001815,17.496 31.9201815,17.928 L32.7601815,18.912 L33.3361815,18.912 L33.9361815,18.36 C33.9121815,17.952 33.8161815,17.352 33.5521815,16.92 C33.1441815,16.536 32.8081815,16.152 32.4961815,15.792 C32.1601815,15.432 31.6321815,15.096 31.1041815,14.832 C30.8881815,15.288 31.0801815,16.08 31.3681815,16.536 Z M25.8721815,19.008 L26.3521815,19.008 C26.6881815,18.912 27.0001815,18.624 27.2401815,18.336 C27.4801815,18.072 27.6481815,17.712 27.8161815,17.304 L27.7201815,16.584 C27.4801815,16.2 27.1681815,15.912 26.8561815,15.624 C26.4481815,15.432 26.1121815,15.264 25.8001815,14.976 L25.4881815,15.072 C25.3921815,15.624 25.3201815,16.104 25.1521815,16.584 C25.1521815,17.304 25.2481815,18.072 25.4881815,18.72 L25.8721815,19.008 Z M43.2241815,19.776 C43.7761815,19.776 44.1841815,19.776 44.6641815,19.776 C45.0481815,19.776 45.5041815,19.632 45.9121815,19.392 L46.2721815,18.552 L46.0801815,17.928 C45.3121815,17.736 44.8081815,17.64 44.1121815,17.544 C43.3681815,17.424 42.8161815,17.592 42.1921815,17.352 C41.4241815,17.088 40.9201815,16.68 40.9201815,16.68 C40.9201815,15.792 40.8001815,14.76 40.8481815,13.944 C40.9201815,13.248 41.0641815,12.48 41.2561815,11.664 C41.3521815,10.92 41.8321815,9.744 42.0481815,8.64 L44.5921815,8.064 L44.9761815,7.104 C44.5681815,6.696 43.7521815,6.336 41.7601815,6.336 C41.1841815,6.336 40.2721815,6.216 39.3121815,6.168 L35.5921815,6.408 L35.1601815,6.48 L35.4001815,8.136 L36.3361815,8.688 L38.7121815,8.712 L38.6401815,12.48 L38.7121815,15.432 L38.6401815,16.632 C37.6081815,16.848 36.5521815,17.064 36.1681815,17.16 C35.7121815,17.232 34.8241815,17.232 34.0801815,17.376 L34.3681815,17.904 C34.7761815,18.24 35.3041815,18.312 36.0961815,18.528 C36.6241815,18.744 37.1041815,18.816 37.8481815,18.912 C38.4961815,19.008 39.0481815,19.152 39.6961815,19.248 C40.3441815,19.344 40.8481815,19.464 41.5201815,19.56 C42.1921815,19.656 42.6241815,19.704 43.2241815,19.776 Z" id="Shape"></path>
        </g>
    </g>
</svg>