<?xml version="1.0" encoding="UTF-8"?>
<svg width="46.032px" height="22.488px" viewBox="0 0 46.032 22.488" version="1.1" xmlns="http://www.w3.org/2000/svg" xmlns:xlink="http://www.w3.org/1999/xlink">
    <title>相框</title>
    <g id="Symbols" stroke="none" stroke-width="1" fill="none" fill-rule="evenodd">
        <g id="相框" fill="#B8BDB4" fill-rule="nonzero">
            <path d="M6.504,22.488 C6.984,22.488 7.296,22.32 7.536,22.008 L7.536,16.464 L7.704,13.104 L7.632,12.36 C7.536,11.808 7.632,11.4 7.944,11.016 L9.072,11.496 L9.888,11.472 L9.96,11.736 C9.96,12.288 9.864,12.864 9.624,13.344 L9.72,13.824 C9.72,14.376 9.72,15.024 9.624,15.576 C9.552,16.152 9.552,16.776 9.552,17.352 C9.48,18 9.48,18.624 9.48,19.2 L8.904,19.752 C8.904,20.232 9.072,20.64 9.48,21.048 C9.792,21.288 10.104,21.528 10.44,21.768 C10.752,22.008 11.16,22.176 11.544,22.176 C12.288,22.08 13.08,21.912 13.8,21.672 C14.52,21.528 15.24,21.36 15.96,21.288 C16.704,21.192 17.424,21.12 18.216,21.048 C18.696,21.048 19.104,21.192 19.512,21.6 L20.136,21.432 L20.544,17.76 C20.616,16.392 20.544,14.952 20.472,13.584 C20.304,12.216 20.136,10.92 20.064,9.552 C19.896,8.208 19.752,6.912 19.584,5.544 C19.512,5.304 19.344,4.992 19.176,4.752 C18.384,4.344 17.496,4.032 16.608,3.864 C15.648,3.792 14.688,3.624 13.8,3.456 C12.84,3.312 11.952,2.976 11.16,2.568 L10.752,2.568 C10.848,3.792 10.824,4.224 10.8,4.848 L7.632,4.632 L7.464,2.832 C7.392,2.424 7.296,2.088 7.296,1.704 C7.296,1.296 7.224,0.984 7.152,0.648 C6.888,0.24 6.504,0.096 6.096,0 L5.688,0 L5.208,4.752 C4.728,4.992 4.248,5.064 3.696,5.064 C3.12,5.136 2.64,5.232 2.16,5.304 C1.608,5.4 1.128,5.544 0.648,5.784 L0.48,6.432 L0.792,7.392 L1.608,7.8 L2.88,7.632 L3.456,7.8 C3.048,8.688 2.496,9.552 1.92,10.368 C1.368,11.256 0.888,12.12 0.648,13.104 C0.408,14.064 0.168,15.024 0,16.056 L0.168,16.464 L0.552,16.704 L0.96,16.704 C1.44,16.464 1.92,16.152 2.328,15.744 C2.736,15.336 3.048,14.952 3.456,14.544 C3.84,14.136 4.248,13.728 4.656,13.344 L4.896,13.416 C4.968,14.304 5.136,18.072 5.208,18.96 C5.304,19.848 5.544,20.712 5.784,21.6 L6.504,22.488 Z M18.144,19.44 C17.328,19.44 16.704,19.344 15.96,19.272 C15.24,19.2 14.616,19.104 13.872,19.104 C13.152,19.2 12.432,19.104 11.784,18.864 C11.88,18.312 11.88,17.832 11.952,17.28 C11.952,16.776 12.048,16.296 12.192,15.816 C12.768,15.744 13.392,15.576 14.04,15.432 C14.616,15.336 15.24,15.192 15.888,15.096 C16.44,15.024 17.256,15 17.832,14.736 L18,14.952 L18.288,19.104 L18.144,19.44 Z M18,13.992 C17.448,13.656 16.776,13.656 16.2,13.584 C15.576,13.488 14.928,13.416 14.28,13.344 C13.56,13.248 13.008,13.104 12.432,12.864 L12.6,11.4 C13.008,11.16 13.488,11.088 14.04,11.016 C14.616,11.016 15.096,10.92 15.576,10.848 C16.056,10.776 16.536,10.68 17.016,10.608 L17.496,10.68 C17.736,11.088 17.904,12.936 17.976,13.344 L18,13.992 Z M17.496,9 C16.848,9.072 16.296,8.928 15.816,8.76 C15.24,8.688 14.76,8.592 14.208,8.592 C13.632,8.688 13.152,8.52 12.768,8.112 L12.84,6.984 L12.768,5.4 L12.84,5.136 C13.08,4.824 13.488,4.656 13.872,4.752 L16.776,5.304 C17.088,5.712 17.256,6.192 17.328,6.744 C17.424,7.32 17.496,7.872 17.568,8.448 L17.496,9 Z M10.344,8.688 C10.2,9.216 10.08,9.792 10.008,10.344 L7.704,8.28 L7.944,6.96 C8.256,6.912 8.664,6.792 9.072,6.696 C10.008,6.6 10.368,6.6 10.728,6.552 C10.656,7.152 10.56,7.92 10.344,8.688 Z" id="Shape"></path>
            <path d="M28.104,21.816 L28.8,21.6 C29.256,20.52 29.52,19.392 29.496,18.288 L29.616,13.776 L29.904,11.784 L31.368,12.576 L32.232,12.552 L31.728,10.704 C31.176,9.936 30.6,9.192 30.024,8.52 L29.688,7.848 L29.712,7.512 C30.216,7.296 30.792,6.936 31.416,6.408 L31.44,5.952 L30.864,5.52 L29.664,5.544 C29.568,4.8 29.424,3.816 29.328,2.928 L29.712,2.064 L29.664,1.512 C29.112,0.984 28.488,0.72 27.72,0.624 L26.664,0.576 L26.904,5.208 L26.832,5.4 C25.896,5.592 24.84,5.76 23.76,5.952 L23.256,6.864 C23.688,7.344 24.216,7.536 24.888,7.656 L26.28,7.68 L26.088,8.472 C25.776,9.576 25.32,10.68 24.984,11.88 C24.552,13.08 24.216,14.4 24.048,15.6 C23.88,16.296 23.952,17.04 24.192,17.76 L24.504,17.952 L24.912,17.856 C25.224,17.016 25.536,16.2 25.968,15.432 C26.376,14.64 26.784,13.872 27.072,13.176 L27.312,13.2 C27.48,14.496 27.528,15.96 27.72,17.328 C27.792,18.768 27.912,20.232 28.104,21.816 Z M35.328,21.192 C36.96,21.048 38.568,20.952 40.2,20.88 C41.784,20.808 42.744,20.688 44.376,20.28 C44.904,20.112 45.552,19.68 46.032,18.864 L45.768,18.312 L44.448,18.384 L43.176,18.312 C42.312,18.264 40.944,18.336 39.576,18.504 C38.232,18.672 36.864,18.912 35.064,19.152 L35.568,15.912 C35.664,14.712 35.568,13.584 35.496,12.144 C35.4,11.424 34.968,4.896 34.968,4.896 C35.76,4.824 43.272,4.464 43.272,4.464 L44.04,4.296 L44.208,3.984 L44.04,3.432 C43.272,2.688 42.672,2.712 41.928,2.64 L34.392,2.928 L32.688,2.76 L32.136,2.76 C32.64,4.44 32.784,6.048 32.904,7.656 C32.976,9.336 33.048,10.944 33.144,12.552 C33.144,13.272 33.144,13.992 33.048,14.712 C32.976,15.432 32.904,16.08 32.784,16.8 C32.904,18.168 33.336,19.512 33.984,20.808 L35.328,21.192 Z M37.728,15.984 L40.848,15.984 C42.696,16.056 43.656,15.984 44.376,15.504 L44.304,15.048 C43.272,14.64 41.28,14.4 40.488,14.256 C40.752,13.752 40.992,12.96 41.112,12.36 C42.36,12.288 42.792,12.12 43.296,11.808 L43.032,11.112 C42.504,11.04 41.208,10.8 40.848,10.56 C40.68,9.744 40.848,9 41.208,8.352 L43.2,7.8 L43.104,7.176 L39,6.864 C37.872,6.864 36.792,6.936 35.52,7.176 L35.52,7.728 C36.384,8.28 37.368,8.52 38.424,8.448 L38.664,9.168 C38.76,9.648 38.664,10.152 38.496,10.488 L37.8,10.392 L36.12,10.56 L36.192,11.088 C37.032,11.736 37.872,12.048 38.664,12.12 L39.096,13.92 L39.024,14.16 C38.136,14.4 37.104,14.64 36.048,14.952 L36.12,15.504 L37.728,15.984 Z" id="Shape"></path>
        </g>
    </g>
</svg>