<?xml version="1.0" encoding="UTF-8"?>
<svg width="44.016px" height="22.896px" viewBox="0 0 44.016 22.896" version="1.1" xmlns="http://www.w3.org/2000/svg" xmlns:xlink="http://www.w3.org/1999/xlink">
    <title>btn_hair@2x</title>
    <g id="Symbols" stroke="none" stroke-width="1" fill="none" fill-rule="evenodd">
        <g id="btn_hair" transform="translate(0.000000, 0.000000)" fill="#B8BDB4" fill-rule="nonzero">
            <path d="M2.784,22.392 L3.096,22.296 C3.504,21.744 3.816,21.168 3.888,20.544 L3.816,19.416 C3.888,19.008 3.984,18.6 4.056,18.216 C4.056,17.808 4.128,17.4 4.224,16.992 C4.632,16.752 6.72,16.2 7.512,16.032 L7.752,16.752 L7.512,17.736 C7.104,17.976 6.72,18.048 6.216,18.048 C5.736,18.048 5.256,18.048 4.872,18.12 C5.184,18.696 5.592,19.248 6.072,19.656 C6.456,20.064 6.96,20.544 7.344,21.024 C7.752,21.504 8.16,21.888 8.712,22.296 L9.768,21.984 L10.08,21.336 L9.912,20.304 L9.912,16.032 L10.008,15.48 C9.912,15 9.912,14.52 9.84,14.04 C9.768,13.56 9.672,13.08 9.6,12.576 C9.6,12.192 9.6,11.856 9.672,11.472 C9.672,11.136 9.768,10.824 9.912,10.584 L9.768,9.936 L8.64,9.384 C8.16,9.384 7.68,9.384 7.2,9.456 C6.624,9.528 6.144,9.624 5.736,9.768 C5.352,9.864 4.944,9.696 4.704,9.384 C3.744,9.408 3.216,9.168 2.208,9.288 L2.064,10.176 L2.304,10.656 L2.304,11.472 C2.208,12.096 2.136,12.744 2.064,13.32 C1.968,13.944 1.896,14.592 1.824,15.168 C1.728,15.792 1.656,16.44 1.56,17.088 C1.56,17.568 1.56,18.048 1.56,18.456 C1.56,18.936 1.56,19.416 1.656,19.896 C1.656,20.376 1.728,20.784 1.896,21.168 C2.064,21.648 2.376,22.056 2.784,22.392 Z M15.864,22.44 L16.752,22.272 L17.472,21.384 L17.568,20.352 L17.472,11.424 L17.712,9.816 C17.712,9.336 17.616,8.952 17.376,8.616 C16.824,8.304 16.272,8.064 15.696,7.896 C15.456,7.824 15.216,7.896 14.976,8.064 C15.144,8.472 15.216,8.856 15.216,9.264 C15.216,9.744 15.216,10.224 15.288,10.632 C15.288,11.184 15.288,11.76 15.288,12.312 C15.288,12.888 15.288,13.44 15.288,13.992 C15.216,14.568 15.144,15.12 15.144,16.248 L14.904,17.28 C14.328,17.544 13.776,17.784 13.2,17.928 C12.576,18.096 11.928,18.264 11.352,18.408 L11.352,18.648 C11.928,18.984 12.408,19.296 12.888,19.704 C13.368,20.112 13.848,20.592 14.328,21.072 C14.808,21.624 15.288,22.032 15.864,22.44 Z M7.44,14.808 L4.944,15.048 L4.392,14.808 L4.536,14.4 C4.872,14.16 5.256,13.992 5.664,13.92 C6.072,13.92 6.456,13.848 6.864,13.752 C7.2,13.68 7.44,13.752 7.584,13.992 C7.68,14.328 7.584,14.568 7.44,14.808 Z M11.928,14.712 L12.24,14.568 C12.48,14.232 12.648,13.848 12.72,13.44 C12.816,13.032 12.96,12.72 13.128,12.312 C13.056,11.832 12.96,11.352 12.96,10.8 C12.888,10.32 12.888,9.816 12.816,9.264 L11.616,8.856 L10.872,8.952 C11.04,9.576 11.112,10.224 11.04,10.944 C10.968,11.664 11.04,12.312 11.208,12.96 C11.28,13.68 11.52,14.232 11.928,14.712 Z M7.128,12.12 L6.384,12.072 L4.896,12.264 L4.992,11.736 L6.456,11.592 C6.792,11.52 7.008,11.376 7.176,11.616 L7.128,12.12 Z M1.128,8.208 C3,7.848 4.944,7.536 6.864,7.416 C8.712,7.272 10.704,7.152 12.696,7.152 C14.616,7.2 16.56,7.08 18.504,6.936 L19.872,5.64 L19.752,4.848 C19.296,4.464 18.72,4.296 18.168,4.248 L12.552,4.176 L12.072,4.056 L12.168,3.744 C12.576,3.768 12.984,3.72 13.32,3.504 C13.632,3.24 13.992,3.024 14.304,2.736 L14.184,2.016 C13.896,1.68 13.608,1.32 13.2,1.056 C12.816,0.792 12.36,0.528 11.952,0.432 L11.472,0.48 C11.208,0.888 11.04,1.176 10.776,1.584 C10.512,1.968 10.32,2.352 10.056,2.736 C9.768,3.12 9.576,3.6 9.48,4.008 C9.24,4.224 8.88,4.344 8.496,4.416 C8.088,4.464 7.68,4.536 7.368,4.632 L6.96,4.416 L7.344,3.168 C7.368,2.76 7.248,2.328 7.032,2.088 L6.12,2.112 L5.424,1.992 C4.848,1.896 4.464,2.016 4.104,2.4 L4.08,2.64 C4.536,2.904 4.92,3.336 5.136,3.888 L6.072,4.56 L5.976,4.776 C5.256,4.896 4.584,5.088 4.032,5.304 C3.36,5.592 2.688,5.88 2.04,6.072 C1.392,6.288 0.744,6.48 -4.54747351e-13,6.6 L-4.54747351e-13,6.912 L1.128,8.208 Z" id="Shape"></path>
            <path d="M40.488,22.896 L40.728,22.896 L41.208,22.416 L41.04,22.008 C40.152,21.6 39.192,21.12 38.304,20.64 C37.44,20.232 36.552,19.68 35.664,19.032 L36.792,18.24 L37.104,17.424 L36.96,16.704 C36.456,16.296 35.904,16.152 35.184,16.224 C34.296,16.536 33.504,16.944 32.784,17.52 C32.376,17.52 31.968,17.184 31.656,16.848 L32.304,16.104 L34.464,15.744 C35.424,15.672 36.384,15.576 37.344,15.432 C37.512,15.024 37.68,14.616 37.824,14.136 L37.512,13.488 L35.904,13.008 C34.872,13.104 34.464,13.2 33.768,13.2 L34.224,12.288 L34.128,11.976 C33.744,11.568 33.264,11.256 32.688,11.16 L31.896,11.328 L31.08,13.176 C30.456,13.488 29.736,13.656 28.92,13.656 C28.128,13.728 27.408,13.824 26.664,14.064 C26.352,14.136 26.184,14.376 26.112,14.688 L26.184,15.096 C27,15.816 27.96,16.152 29.088,16.152 C28.848,16.872 28.512,17.592 27.96,18.144 C27.408,18.792 27,19.44 26.664,20.16 C26.592,20.568 26.76,20.88 27.072,21.12 L27.792,21.048 C28.368,20.568 28.848,20.088 29.4,19.68 C29.88,19.272 30.36,18.792 30.768,18.24 L31.56,18.912 C30.912,20.016 30.12,20.952 29.4,22.008 C29.328,22.32 29.496,22.56 29.808,22.8 C30.528,22.56 31.248,22.248 31.896,21.768 C32.544,21.288 33.168,20.808 33.816,20.328 C34.944,20.712 36.072,21.192 37.104,21.672 C38.16,22.152 39.288,22.56 40.488,22.896 Z M40.464,14.736 L40.776,14.592 C40.92,14.064 41.016,13.488 40.704,12.504 L39.744,11.928 C38.952,11.856 38.208,11.928 37.488,12.168 L37.824,12.816 C38.616,13.704 39.504,14.352 40.464,14.736 Z M33.888,11.16 C34.128,11.256 34.392,11.16 34.536,11.016 L34.536,10.776 C34.056,9.72 33.336,9 32.304,8.448 C31.824,8.208 31.248,8.256 30.6,8.592 L30.696,8.928 L30.6,9.24 L29.16,9.48 L28.848,9.312 L28.92,8.928 L29.88,8.448 L30.216,8.04 C31.32,7.632 32.448,7.32 33.576,7.08 L33.576,6.504 C32.688,6.12 31.584,6.048 30.456,6.12 L29.448,6.144 L29.448,5.832 C31.584,5.736 32.4,5.568 33.12,5.232 L33.048,4.92 L32.4,4.68 L30.96,4.752 L29.232,4.656 L29.232,4.344 C30.12,4.416 31.68,4.344 32.4,3.864 C32.52,3.624 32.376,3.384 32.28,3.12 C31.56,2.88 30.84,2.808 29.64,2.904 L29.64,2.496 C30.696,2.328 31.824,2.184 32.856,2.016 L33.408,1.536 L33.264,1.128 C32.544,0.576 31.728,0.336 30.84,0.336 C29.88,0.336 28.992,0.408 28.272,0 L27.552,0.096 L27.168,0.72 C27.168,1.368 27.168,2.256 27.168,3.144 C27.168,4.032 27.24,4.896 27.48,5.712 L27.408,6.264 C26.184,6.504 24.984,6.744 23.856,7.152 L23.952,7.392 C24.672,8.04 25.632,8.28 26.664,8.208 C26.592,8.592 26.352,8.928 26.112,9.312 L26.184,10.368 C26.424,10.92 27,11.16 27.72,11.088 C28.512,11.088 29.328,11.016 30.048,10.92 C30.768,10.848 31.488,10.776 32.208,10.536 L33.888,11.16 Z M37.512,11.376 L37.848,11.376 C38.712,10.584 41.856,7.68 42.648,7.296 C43.08,7.392 43.512,7.44 43.848,7.2 L44.016,6.408 L43.704,5.592 C43.128,5.352 42.648,5.112 42.168,4.728 L41.784,4.728 C41.04,5.76 40.248,6.72 39.36,7.68 C38.472,8.736 37.68,9.696 36.96,10.728 L36.96,11.136 L37.512,11.376 Z M36.552,8.952 C37.128,8.472 37.608,7.896 38.808,6.864 C39.768,6.216 40.488,5.424 41.064,4.464 L40.968,4.056 L39.864,3.504 C39.288,3.576 38.736,3.888 38.256,4.296 C37.368,5.256 36.72,6.312 36.168,7.416 C36.168,7.992 36.312,8.544 36.552,8.952 Z M34.608,6.624 C35.424,5.736 36.288,4.944 37.272,4.128 C38.136,3.336 39.096,2.616 39.984,1.896 L39.912,1.08 L38.544,0.432 C38.136,0.36 37.752,0.432 37.416,0.6 C36.768,1.32 36.144,2.136 35.568,2.928 C35.016,3.744 34.536,4.608 34.128,5.496 L34.2,6.216 L34.608,6.624 Z" id="Shape"></path>
        </g>
    </g>
</svg>