<svg id="face" xmlns="http://www.w3.org/2000/svg" viewBox="0 0 300 300">
    <defs>
        <style>
            .cls-1{fill:#fdd6c9}
        </style>
    </defs>
    <path id="face_5" class="cls-1" d="M134.75 61.83s9.5-3.38 29.2 0c5.02.86 12.83 1.38 21.5 3.89 38.56 11.15 65.22 46.26 62.42 86.31-.05.74-.11 1.48-.18 2.22 0 0-1.87 18.29-2.83 61.17 0 0-1.77 26.96-19.95 38.04-16.79 10.24-57.65 21.87-68.8 24.94s-.89.38-2.46.67c-.26.07-.4.11-.4.11h-.26c-1.57.23-3.66.34-6.11 0h-.11s-.06-.02-.16-.04c-1.67-.25-3.49-.71-5.43-1.49-13.98-3.92-50.44-14.65-66.06-24.18-18.18-11.08-19.95-38.04-19.95-38.04-.96-42.87-3.56-61.17-3.56-61.17-.07-.74-.13-1.49-.18-2.22-2.8-40.04 23.28-75.15 61.84-86.31 8.68-2.51 16.42-4.07 21.5-3.89"/>
</svg>