<?xml version="1.0" encoding="UTF-8"?><svg id="face" xmlns="http://www.w3.org/2000/svg" viewBox="0 0 300 300"><defs><style>.cls-1{fill:#fdd6c9;}.cls-2{fill:#d1848a;}</style></defs><g id="face_7"><path class="cls-1" d="m175.17,264.54c59.9-3.82,66.87-59.57,71.64-103.31,8.38-76.71-51.04-113.51-133.73-94.58,0,0-68.06,15.66-55.04,104.46,5.88,40.13,9.38,83.83,48.84,90.77,0,0,11.31,1.5,15.96,6.32,4.66,4.82-.5,15.8,13.14,16.96,0,0,7.93.67,10.64-4.16,0,0,7.46,7.72,19.21,2.93,8.39-3.43,9.35-19.39,9.35-19.39Z"/><path class="cls-2" d="m146.61,281.01s-2.36-6.84-.85-13.58c.37-1.64,2.79-1.3,2.65.37-.48,5.75.31,13.16,6.35,17.36,0,0-2.55,1.01-8.15-4.14Z"/></g></svg>