<?xml version="1.0" encoding="UTF-8"?><svg id="nose" xmlns="http://www.w3.org/2000/svg" viewBox="0 0 300 300"><defs><style>.cls-1{fill:#d1848a;}</style></defs><g id="nose_6"><path class="cls-1" d="m175.41,180.94c-.12-1.29-.46-.96-1.33-2.33-.39-.62-1.28-1-1.94-1.74-.53-.58-1.12-1.12-1.85-1.73-.62-.51-1.24-1.04-2.02-1.54-.69-.44-1.19-1.26-2.02-1.67-.74-.36-1.59-.56-2.45-.88-.77-.29-1.63-.39-2.51-.63-.8-.22-1.48-1.1-2.37-1.28-.81-.16-1.76.15-2.65.03-.83-.11-1.71.08-2.6.01-.83-.06-1.67-.67-2.57-.7-.84-.02-1.71-.11-2.61-.1-1.28,0-1.02-.12-2.6-.01-.74.05-1.53.98-2.48,1.09-.8.09-1.72-.28-2.61-.13-.82.14-1.68.29-2.53.49s-1.71.29-2.53.55-1.68.51-2.46.85-1.62.72-2.35,1.16-1.41,1.09-2.04,1.65-.98,1.45-1.46,2.15-.5,1.55-.78,2.38c-.26.78-.59,1.48-.64,2.39-.09,1.42-.42,1.53.94,2.44.59.4,1.48.99,2.76.99.69,0,1.61-.52,2.68-.98.74-.32,1.4-1.1,2.34-1.52.78-.35,1.73-.46,2.65-.82.81-.31,1.54-1.07,2.47-1.34.84-.25,1.8-.34,2.74-.53.86-.18,1.82-.07,2.77-.17.88-.09,1.8-.15,2.75-.16.88,0,1.8.1,2.75.18.88.07,1.73.53,2.67.69.87.15,1.88-.22,2.81.01.86.22,1.79.37,2.69.67.84.28,1.6.91,2.48,1.27.82.33,1.83.35,2.69.75.81.38,1.61.88,2.45,1.33,1.29.73,1.18.54,2.69.97.93.27,1.84.88,2.8.7s1.4-.86,1.96-1.87c.38-.69,1.23-1.44,1.3-2.67Z"/><path class="cls-1" d="m148,160.89c.12.83.18,1.71.26,2.62.08.85.15,1.73.18,2.63s.12,1.75.08,2.64-.33,1.73-.44,2.61.1,1.81-.1,2.66-.57,1.69-.87,2.51-.68,1.64-1.12,2.4-1.23,1.25-1.81,1.91-.99,1.44-1.72,1.97c-.68.51-1.36,1.11-2.19,1.5-.76.35-1.62.64-2.52.88s-1.65.67-1.99,1.44-.56,1.85-.15,2.66c.38.75,1.32,1.27,1.9,2.08.51.71.87,1.61,1.55,2.29.63.63,1.22,1.42,2.02,1.95.74.49,1.8.48,2.69.83.82.32,1.62.81,2.58.97,1.02.17,1.68-.99,1.02-1.79s-1.26-1.72-1.88-2.69-1.19-1.96-1.47-2.92.31-2.01,1.23-2.47c.6-.3,1.13-1.08,1.94-1.68.62-.46,1.6-.64,2.23-1.31.55-.58.68-1.55,1.17-2.31.44-.68,1.04-1.28,1.39-2.11.31-.75.78-1.49.98-2.37.18-.79.16-1.66.23-2.56.06-.81-.14-1.64-.18-2.54-.04-.81.15-1.67.01-2.56-.12-.8-.51-1.59-.72-2.46-.19-.79-.3-1.64-.58-2.49-.25-.78-.55-1.58-.87-2.41-.3-.77-.67-1.53-1.04-2.35-.48-1.07-1.98-.68-1.81.48Z"/></g></svg>