<?xml version="1.0" encoding="UTF-8"?><svg id="nose" xmlns="http://www.w3.org/2000/svg" viewBox="0 0 300 300"><defs><style>.cls-1{fill:#7e4e41;}.cls-2{fill:#d1848a;}</style></defs><g id="nose_4"><path class="cls-2" d="m161.41,188.08s-1.39-10.89-13.11-10c0,0-10.8-.76-12.62,8.48-.23,1.18.27,2.44,1.31,3.05.87.51,1.95.51,2.8-1.53,1.44-3.42-1.13-6.18,8.64-6.4,0,0,5.88-.11,7.43,2.58s.89,6.72,5.54,3.82Z"/><path class="cls-1" d="m147.77,187.56c-.06-1.71-2.15-2.56-3.41-1.41-.03.03-.07.06-.1.1-1.99,1.93-1.18,6.47,1.31,5.28,1.87-.89,2.26-2.54,2.21-3.97Z"/><path class="cls-1" d="m148.84,187.56c.06-1.71,2.15-2.56,3.41-1.41.03.03.07.06.1.1,1.99,1.93,1.18,6.47-1.31,5.28-1.87-.89-2.26-2.54-2.21-3.97Z"/></g></svg>