<?xml version="1.0" encoding="UTF-8"?><svg id="nose" xmlns="http://www.w3.org/2000/svg" viewBox="0 0 300 300"><defs><style>.cls-1{fill:#d1848a;}</style></defs><g id="nose_2"><g id="nose_2-2"><path class="cls-1" d="m151.32,193.8c-.42.48-2.29,2.16-2.88,2.41-1.71.75-3.38.88-4.66,1.15-2.99.63-2.34.31-4.7.04-1.94-.03-3.49-.34-4.81-.76-1.89-.61-3.75-.99-4.56-2.17-.92-1.35-.35-3.3-.2-5.02.13-1.55-.39-3.5.32-5.05s1.97-2.87,2.97-4.1c.92-1.12,2.18-2.05,2.93-3.37s1.09-2.78,1.71-4.13,1.87-2.48,2.44-3.81c.61-1.45,1.34-2.74,1.92-4,.7-1.52.21-3.55.96-4.57,1.1-1.5,2.76-1.02,3.8-.96,1.9.11,1.9.04,3.19,1.55.86,1.01,1.33,2.22,1.73,3.69.36,1.32.54,2.68.63,4.12s.07,2.87-.02,4.21c-.12,1.66-.19,3.12-.43,4.19-.82,3.73.83,4.29,3.94,4.2,1.66-.24,2.76.23,3.91.68,1.34.53,2.49.92,3.28,2.16.71,1.11,1.95,2.2,2.34,3.67.55,2.1-.84,3.89-2.14,4.83-1.85,1.34-4.75,1.54-4.97.53-1.22-1.4-1.36-.75-3.28-.56-1.02.1-2.4-.12-3.42,1.06Z"/></g></g></svg>