<?xml version="1.0" encoding="UTF-8"?><svg id="eyebrow" xmlns="http://www.w3.org/2000/svg" viewBox="0 0 300 300"><defs><style>.cls-1{fill:#003882;}</style></defs><g id="eyebrow_10"><path class="cls-1" d="m126.66,138.95c0-1.04-.17-1.93-.52-2.78s-.77-1.68-1.68-2.27c-.69-.45-1.6-.74-2.71-1.01-.82-.2-1.76-.38-2.86-.47-.99-.08-1.92-.21-2.78-.18-1.01.04-1.89.4-2.72.58-1,.21-1.83.52-2.57.89-.92.46-1.65.93-2.21,1.57-.64.74-1.29,1.48-1.48,2.35s-.08,1.9.17,2.81c.21.74.82,1.38,1.52,1.99.58.5,1.3.93,2.11,1.32.72.35,1.44.82,2.28,1.08.78.24,1.67.17,2.5.31s1.65.32,2.48.35,1.7.13,2.51.05c1.28.03,1.22.15,2.54-.33.71-.26,1.44-.76,2.07-1.49.48-.56.94-1.29,1.21-2.24.19-.71.14-1.56.14-2.54Z"/><path class="cls-1" d="m172.36,138.95c0-1.04.33-1.96.68-2.81s.79-1.72,1.7-2.31c.69-.45,1.6-.85,2.71-1.13.82-.2,1.82-.04,2.91-.13.99-.08,1.91-.39,2.77-.36,1.01.04,1.89.42,2.72.59,1,.21,1.87.45,2.62.82.92.46,1.54,1.08,2.09,1.72.64.74,1.01,1.49,1.19,2.37s.43,1.82.18,2.73c-.21.74-.77,1.44-1.47,2.05-.58.5-1.35.87-2.16,1.26-.72.35-1.49.67-2.33.92-.78.24-1.63.28-2.46.42s-1.64.25-2.47.28-1.69.36-2.5.27c-1.28.03-1.25.13-2.57-.35-.71-.26-1.43-.83-2.05-1.56-.48-.56-.85-1.32-1.11-2.28-.19-.71-.45-1.54-.45-2.52Z"/></g></svg>