<?xml version="1.0" encoding="UTF-8"?><svg id="eyebrow" xmlns="http://www.w3.org/2000/svg" viewBox="0 0 300 300"><defs><style>.cls-1{fill:#003882;}</style></defs><g id="eyebrow_4"><path class="cls-1" d="m126.79,136.74c-.14,1.44-.02,1.46-.16,2.9s-.78,1.39-.92,2.83.55,1.51.41,2.96c-.12,1.28-1.57,1.79-2.82,1.49-.71-.17-1.59-.35-2.59-.55-.78-.16-1.75.24-2.69.08-.81-.14-1.61-.75-2.53-.88-.83-.11-1.75.18-2.67.08-.84-.09-1.69-.47-2.6-.54-.85-.06-1.76.36-2.66.32s-1.73-.19-2.63-.21-1.74-.15-2.63-.14-1.75-.17-2.64-.14-1.75.01-2.64.08-1.76,0-2.65.1-1.73.34-2.62.46-1.76.15-2.63.3-1.63.85-2.5,1.03-1.74.24-2.61.45c-1.33.32-2.66-.77-2.66-2.15,0-.82.25-1.79.43-2.92.14-.88.18-1.87.49-2.91.26-.88.62-1.8,1.03-2.77.36-.86.8-1.74,1.31-2.66.28-.51.79-.65,1.36-.79.59-.15,1.34-.99,2.46-1.21.76-.15,1.7-.05,2.67-.2.81-.13,1.76.25,2.7.13.83-.1,1.7-.2,2.63-.28.85-.07,1.72-.14,2.64-.19.86-.05,1.72-.61,2.64-.63.87-.02,1.76-.26,2.67-.25s1.75.42,2.65.46,1.78-.17,2.68-.09,1.76.18,2.65.29,1.66.86,2.54,1.01,1.79,0,2.67.19,1.8.08,2.67.3,1.6.87,2.46,1.12,1.8.19,2.65.48c.92.32,1.55,1.44,1.46,2.41Z"/><path class="cls-1" d="m82.16,135.67c-.35.77-.92,1.62-1.29,2.63-.32.88-.48,1.87-.72,2.84s-.38,1.93-.46,2.87c-.09,1.02-.06,1.98.14,2.88.13.58-.23,1.31-.79,1.48-.82.26-.9,0-1.72.26-.69.22-1.46-.14-1.5-.86-.04-.67-.02-1.57.04-2.63.05-.78.15-1.66.32-2.62.14-.8.29-1.68.54-2.58.23-.8.67-1.58,1-2.44.31-.78.64-1.59,1.05-2.41.14-.28.34-.54.63-.62.66-.19.65-.24,1.32-.43.91-.26,1.83.77,1.44,1.63Z"/><path class="cls-1" d="m76.74,135.7c.23,0,.31.1.16.33-.23.33-.43,1.3-.83,2.48-.24.73-.69,1.52-.92,2.43-.21.81-.24,1.7-.39,2.57s-.38,1.72-.43,2.56c-.06.92.12,1.79.23,2.58.06.43-.22.99-.63,1.13,0,0-.07-.21-.07-.21-.56.18-1.22-.13-1.23-.72-.01-.62.21-1.45.24-2.41.03-.74.05-1.55.13-2.41.08-.77-.04-1.61.1-2.43s.32-1.59.54-2.38.64-1.5.95-2.24c.09-.22.27-.32.5-.4.84-.4.78-.51,1.64-.86Z"/><path class="cls-1" d="m172.34,136.74c.14,1.44.19,1.44.33,2.89s.13,1.45.28,2.9.15,1.45.29,2.89c.12,1.28,1.55,2.38,2.8,2.08.71-.17,1.47-.86,2.47-1.06.78-.16,1.65-.36,2.59-.51.81-.14,1.74.07,2.66-.06.83-.11,1.74.08,2.65-.01.84-.09,1.7-.28,2.61-.34.85-.06,1.7-.53,2.61-.57s1.74-.25,2.64-.27,1.75.2,2.65.21,1.74.26,2.63.3,1.75-.11,2.65-.04,1.75.12,2.64.21,1.73.3,2.61.42,1.68.54,2.56.69,1.73.27,2.6.45,1.82-.09,2.69.12c1.33.32,2.26-.42,2.26-1.79,0-.82.62-1.87.44-3.01-.14-.88-.38-1.89-.69-2.93-.26-.88-1.11-1.64-1.52-2.61-.36-.86-.43-1.92-.94-2.84-.28-.51-.96-.81-1.52-.95-.59-.15-1.57.12-2.69-.1-.76-.15-1.49-1.14-2.47-1.29-.81-.13-1.79.48-2.74.36-.83-.1-1.71-.11-2.64-.19-.85-.07-1.7-.48-2.62-.53-.86-.05-1.74-.29-2.65-.31-.87-.02-1.76-.21-2.67-.19s-1.73.78-2.63.83-1.78-.32-2.68-.24-1.8-.18-2.69-.06-1.75.29-2.64.43-1.76.27-2.64.45-1.66.7-2.53.92-1.67.59-2.53.85-1.76.29-2.61.59c-.92.32-1.64,1.37-1.54,2.34Z"/><path class="cls-1" d="m217.09,135.65c.35.77.69,1.7,1.06,2.71.32.88.81,1.77,1.06,2.73s.22,1.97.3,2.91c.09,1.02.2,2.01,0,2.91-.13.58.12,1.21.68,1.39.82.26.87.11,1.69.37.69.22,1.45-.18,1.5-.9.04-.67-.07-1.56-.14-2.63-.05-.78-.2-1.64-.36-2.6-.14-.8-.29-1.66-.55-2.56-.23-.8-.38-1.67-.72-2.53-.31-.78-.73-1.56-1.14-2.38-.14-.28-.4-.41-.7-.5-.66-.19-.66-.21-1.32-.4-.91-.26-1.74.61-1.35,1.47Z"/><path class="cls-1" d="m222.49,135.62c-.23,0-.44.25-.28.47.23.33.63,1.2,1.02,2.38.24.73.46,1.59.69,2.5.21.81.32,1.68.47,2.55s.4,1.72.45,2.55c.06.92-.1,1.79-.21,2.57-.06.43.23.97.65,1.11,0,0,.07-.22.07-.22.56.18,1.12-.1,1.13-.69.01-.62.13-1.45.09-2.42-.03-.74-.23-1.55-.31-2.4-.08-.77-.21-1.57-.36-2.39s-.26-1.59-.47-2.37c-.21-.78-.39-1.59-.69-2.33-.09-.22-.34-.39-.57-.47-.81-.46-.81-.47-1.67-.82Z"/></g></svg>