<?xml version="1.0" encoding="UTF-8"?><svg id="eyebrow" xmlns="http://www.w3.org/2000/svg" viewBox="0 0 300 300"><defs><style>.cls-1{fill:#003882;}</style></defs><g id="eyebrow_3"><path class="cls-1" d="m178.07,143.33c0,.78-.33,1.52-.84,2.03s-1.25.79-2.03.79-1.5-.3-2.01-.81-.84-1.23-.84-2.01.35-1.47.86-1.98,1.21-.85,1.98-.85,1.52.29,2.03.8.83,1.25.83,2.03Z"/><path class="cls-1" d="m187.83,137.1c.16.76.04,1.52-.35,2.12s-1.03,1.04-1.79,1.2-1.49-.02-2.09-.41-1.14-.96-1.3-1.73.02-1.55.42-2.15,1.05-1.02,1.81-1.19,1.53-.05,2.14.35,1.01,1.05,1.17,1.81Z"/><path class="cls-1" d="m199.33,134.65c.16.76-.02,1.5-.42,2.1s-.99,1.05-1.76,1.22-1.54.08-2.15-.32-1.08-1.05-1.24-1.82.06-1.52.45-2.13,1.01-1.03,1.78-1.2,1.52-.06,2.13.34,1.05,1.04,1.21,1.8Z"/><path class="cls-1" d="m212.06,137.09c.16.76-.06,1.5-.46,2.11s-.99,1.06-1.75,1.22-1.51.03-2.12-.36-1.05-1.02-1.21-1.78-.04-1.53.35-2.14,1.05-1.01,1.82-1.17,1.54-.08,2.14.31,1.07,1.05,1.23,1.81Z"/><circle class="cls-1" cx="220.16" cy="145.03" r="2.82"/><path class="cls-1" d="m83.42,143.33c0,.78-.38,1.47-.89,1.98s-1.2.85-1.98.85-1.46-.35-1.97-.86-.81-1.19-.81-1.97.29-1.46.8-1.97,1.19-.86,1.97-.86,1.48.33,2,.84.88,1.22.88,2Z"/><path class="cls-1" d="m93.22,137.09c.16.76-.01,1.52-.41,2.13s-1.01,1.11-1.77,1.28-1.5-.09-2.11-.49-1.15-.96-1.31-1.72.01-1.56.4-2.16,1.07-.99,1.83-1.15,1.49-.02,2.1.37,1.09.99,1.25,1.75Z"/><path class="cls-1" d="m104.71,134.64c.16.76-.01,1.54-.41,2.14s-1.03,1.08-1.79,1.24-1.5-.07-2.11-.46-1.04-.99-1.21-1.75-.03-1.5.36-2.11.99-1.13,1.75-1.29,1.51.08,2.12.47,1.11.98,1.28,1.74Z"/><path class="cls-1" d="m117.34,137.1c.16.76.05,1.52-.34,2.13s-1.04,1.02-1.81,1.18-1.52.04-2.12-.35-1.1-1.02-1.26-1.78.02-1.54.41-2.15,1.04-1.06,1.8-1.23,1.53,0,2.14.39,1.02,1.04,1.18,1.81Z"/><path class="cls-1" d="m128.23,144.45c.16.76.05,1.52-.34,2.13s-1.03,1.03-1.8,1.2-1.51,0-2.11-.39-1.05-1.01-1.21-1.77-.03-1.52.36-2.13,1.03-1.02,1.8-1.18,1.54-.08,2.14.31,1,1.07,1.16,1.83Z"/></g></svg>