<?xml version="1.0" encoding="UTF-8"?><svg id="eyebrow" xmlns="http://www.w3.org/2000/svg" viewBox="0 0 300 300"><defs><style>.cls-1{fill:#003882;}</style></defs><g id="eyebrow_2"><path class="cls-1" d="m127.59,140.1c-1.25-2.07-2.06-.71-4.54-2.35-1.16-.77-2.22-2.2-3.79-3.09-1.31-.74-3.27-.47-4.82-1.2-1.4-.67-2.8-1.37-4.36-1.96-1.48-.56-2.91-1.21-4.5-1.64s-3.04-.96-4.65-1.21-3.15-.94-4.78-.97-3.29-.17-4.91.06c-1.28.18-2.89.46-3.97,1.18s-2.48,1.99-3.86,3.21c-1.28,1.13-2.51,2.61-3.25,3.9-.91,1.58-.54,3.3.68,4.67.94,1.05,2.23,1.48,3.62,1.29,1.04-.14,2.63.4,4.59.26,1.33-.1,2.83-.23,4.53-.28,1.4-.04,2.91-.16,4.54-.14,1.44.01,2.99-1,4.59-.93,1.46.07,2.9,1.27,4.48,1.4,1.46.12,3.11-.96,4.67-.77,1.47.18,2.96.7,4.5.94s2.84,1.24,4.37,1.54,2.99.81,4.5,1.17c3.19.15,4.35-.57,2.36-5.06Z"/><path class="cls-1" d="m172.81,140.63c1.25-2.07.79-1.83,3.27-3.48,1.16-.77,2.9-1.09,4.47-1.99,1.31-.74,3.03-.88,4.58-1.61,1.4-.67,2.69-1.66,4.25-2.24,1.48-.56,2.71-2.03,4.3-2.46s3.16-.94,4.77-1.19,3.32,1.27,4.95,1.24,3.28-1.47,4.9-1.24c1.28.18,2.05,1.79,3.12,2.5s3.31.75,4.69,1.96c1.28,1.13,2.57,2.57,3.31,3.86.91,1.58.19,3.06-1.04,4.43-.94,1.05-1.82.99-3.22.81-1.04-.14-2.69.53-4.65.38-1.33-.1-2.85-.35-4.55-.4-1.4-.04-2.93.74-4.56.76-1.44.01-2.98-.9-4.58-.82-1.46.07-2.9,1.25-4.47,1.38-1.46.12-3.12-1.09-4.68-.9-1.47.18-2.78,1.78-4.32,2.02s-3.2-.82-4.73-.52-2.75,1.72-4.26,2.07c-2.73.44-3.54-.07-1.54-4.57Z"/></g></svg>