<?xml version="1.0" encoding="UTF-8"?><svg id="eyebrow" xmlns="http://www.w3.org/2000/svg" viewBox="0 0 300 300"><defs><style>.cls-1{fill:#003882;}</style></defs><g id="eyebrow_1"><path class="cls-1" d="m129.34,134.49c-.89.89-2.33,1.59-3.81,2.59-1.12.75-2.32,1.75-3.85,2.47-1.25.6-2.6,1.42-4.17,1.96-1.33.45-3.14-.38-4.73,0-1.38.33-2.6,1.92-4.19,2.19-1.42.23-2.94.57-4.53.74-1.44.15-3-.12-4.59-.03-1.45.07-2.99-.33-4.57-.32-1.46.01-3,.26-4.57.22-3.15-.42-4.64-.92-1.01-4.69.96-1,2.57-1.44,4.69-1.63,1.45-.13,3.2.43,5.07.21,1.53-.17,3.03-1.29,4.78-1.75,1.51-.39,3.43,0,5.08-.74,1.42-.64,3.03-1.4,4.53-2.39,1.31-.86,1.74-3.04,3.1-4.21,1.19-1.03,3.32-1.16,4.54-2.47,1.36-1.29,1.24-.98,3.06-1.38,1.14-.25,1.79-.33,2.9.61.95.8,2.37,1.07,2.91,1.98,1.18,2,1,5-.64,6.64Z"/><path class="cls-1" d="m170.8,134.26c.89.89,2.23,1.62,3.72,2.62,1.12.75,2.38,1.54,3.91,2.27,1.25.6,2.83.58,4.4,1.11,1.33.45,2.36,2.34,3.95,2.72,1.38.33,2.97.37,4.56.63,1.42.23,2.95.39,4.55.55,1.44.15,3.01-.55,4.6-.47,1.45.07,2.94,1.35,4.53,1.36,1.46.01,3.09-.09,4.67-.13,3.15-.42,4.03-1.04.4-4.81-.96-1-2.01-2.22-4.13-2.41-1.45-.13-3.18.35-5.06.14-1.53-.17-2.95-1.38-4.71-1.84-1.51-.39-3.36.01-5-.73-1.42-.64-3.17-1.05-4.67-2.04-1.31-.86-2.44-2.22-3.79-3.39-1.19-1.03-1.85-2.77-3.07-4.08-1.36-1.29-2.02-.33-3.84-.73-1.14-.25-1.92-.2-3.03.74-.95.8-1.45,1.66-1.99,2.57-1.18,2-1.61,4.27.02,5.91Z"/></g></svg>