<?xml version="1.0" encoding="UTF-8"?>
<svg width="99.9526571px" height="27.776px" viewBox="0 0 99.9526571 27.776" version="1.1" xmlns="http://www.w3.org/2000/svg" xmlns:xlink="http://www.w3.org/1999/xlink">
    <title>btn_eyebrowe_active</title>
    <defs>
        <polygon id="path-1" points="0 0 97.961923 0 97.961923 22.4702168 0 22.4702168"></polygon>
        <polygon id="path-3" points="0 0.0263693258 0.970850606 0.0263693258 0.970850606 0.473630674 0 0.473630674"></polygon>
        <polygon id="path-5" points="0.0472913211 0 0.468844036 0 0.468844036 0.5 0.0472913211 0.5"></polygon>
        <polygon id="path-7" points="0.0437166647 0 0.472418692 0 0.472418692 0.5 0.0437166647 0.5"></polygon>
        <polygon id="path-9" points="0 0.0720032547 0.516135357 0.0720032547 0.516135357 0.427996745 0 0.427996745"></polygon>
    </defs>
    <g id="Symbols" stroke="none" stroke-width="1" fill="none" fill-rule="evenodd">
        <g id="btn_eyebrowe_active" transform="translate(0.000000, -0.000000)">
            <g id="Group-72-Copy-6" transform="translate(0.000000, 4.776000)">
                <g id="Group-3" transform="translate(0.000000, 0.529783)">
                    <mask id="mask-2" fill="white">
                        <use xlink:href="#path-1"></use>
                    </mask>
                    <g id="Clip-2"></g>
                    <path d="M87.628377,2.16633777 C87.5886346,2.14084365 87.5478599,2.11435626 87.5070852,2.08753777 C87.4694073,2.10111256 87.3940516,2.11766718 87.4002452,2.12793105 C87.4183099,2.156405 87.4694073,2.1825613 87.5070852,2.20971088 C87.5447631,2.19613609 87.5829571,2.1825613 87.628377,2.16633777 L87.628377,2.16633777 Z M10.9580181,20.213524 C10.9203403,20.1999492 10.8738881,20.1731307 10.8460168,20.1754483 C10.7660158,20.1817391 10.6927246,20.1999492 10.6173688,20.213524 C10.6550467,20.2270987 10.7009827,20.2539172 10.7293702,20.2515996 C10.8093712,20.2453088 10.8821463,20.2270987 10.9580181,20.213524 L10.9580181,20.213524 Z M96.4935179,18.5223038 C96.4542916,18.4968097 96.4135169,18.4703223 96.3722261,18.4435038 C96.3345482,18.4570786 96.2597086,18.4736332 96.2659022,18.4838971 C96.2834508,18.512371 96.3345482,18.5385273 96.3722261,18.5656769 C96.4104201,18.5521021 96.448098,18.5385273 96.4935179,18.5223038 L96.4935179,18.5223038 Z M23.9150801,18.5047559 C23.8774023,18.4911811 23.8309501,18.4643626 23.8030788,18.4663492 C23.7230778,18.472971 23.6497866,18.4911811 23.5744308,18.5047559 C23.6121087,18.5183307 23.6580447,18.5451492 23.6864322,18.5428316 C23.7664332,18.5365408 23.8392083,18.5183307 23.9150801,18.5047559 L23.9150801,18.5047559 Z M96.1528686,17.9988467 C96.1069325,17.9826232 96.0692546,17.9690484 96.0315768,17.9554736 C95.9933827,17.9826232 95.9428015,18.0087795 95.9247367,18.0372534 C95.9185431,18.0475173 95.9933827,18.0640719 96.0315768,18.0773156 C96.0723515,18.0508282 96.1131261,18.0243408 96.1528686,17.9988467 L96.1528686,17.9988467 Z M8.10895098,17.3273912 C8.15437089,17.3111677 8.19256491,17.2975929 8.23024279,17.2840181 C8.15437089,17.2704433 8.08159581,17.2522333 8.00159482,17.2459425 C7.97320738,17.2436249 7.92727133,17.2704433 7.88907732,17.2840181 C7.96340081,17.2985862 8.0377243,17.3134854 8.10895098,17.3273912 L8.10895098,17.3273912 Z M96.6643587,17.2055492 C96.7355854,17.1913123 96.8099089,17.1767442 96.8837162,17.1621761 C96.8460384,17.1486013 96.7995862,17.1217828 96.7717149,17.1237694 C96.6917139,17.1303912 96.6184227,17.1486013 96.5430669,17.1621761 C96.5807448,17.1757509 96.6184227,17.1889946 96.6643587,17.2055492 L96.6643587,17.2055492 Z M89.3331721,16.2030013 C89.2939458,16.1775072 89.252655,16.1510198 89.2118803,16.1245324 C89.1742024,16.1381072 89.0988466,16.1546619 89.1050403,16.1645946 C89.123105,16.1933997 89.1742024,16.219556 89.2118803,16.2467055 C89.2500743,16.2331308 89.2877522,16.219556 89.3331721,16.2030013 L89.3331721,16.2030013 Z M20.4564571,15.592798 C20.4167147,15.5673039 20.37594,15.5408165 20.3351653,15.5143291 C20.2969713,15.5279039 20.2221317,15.5444585 20.2283253,15.5543913 C20.24639,15.5831963 20.2969713,15.6090215 20.3351653,15.6361711 C20.3728432,15.6225963 20.4105211,15.6090215 20.4564571,15.592798 L20.4564571,15.592798 Z M6.47641485,14.8253257 C6.4304788,14.8091022 6.39280092,14.7955274 6.35512304,14.7819526 C6.31692902,14.8091022 6.26634775,14.8349274 6.24828302,14.8637325 C6.24208939,14.8739963 6.31692902,14.8902199 6.35512304,14.9037947 C6.39589773,14.8773073 6.43667242,14.8508199 6.47641485,14.8253257 L6.47641485,14.8253257 Z M7.15822965,14.7031526 C7.11280974,14.6869291 7.07461572,14.6733543 7.03693784,14.6597795 C6.99925996,14.6869291 6.94816256,14.7130854 6.93009782,14.7418905 C6.9239042,14.7518232 6.99874383,14.7683778 7.03693784,14.7819526 C7.07771254,14.7554652 7.11848723,14.7289778 7.15822965,14.7031526 L7.15822965,14.7031526 Z M94.9595636,14.1892972 C94.9136276,14.2055207 94.8759497,14.2190955 94.8382718,14.2326703 C94.9136276,14.2462451 94.9869188,14.2644552 95.0669198,14.2707459 C95.0947911,14.2730636 95.1412433,14.2462451 95.1789211,14.2326703 C95.1051138,14.2181022 95.0307903,14.2032031 94.9595636,14.1892972 L94.9595636,14.1892972 Z M95.3492458,13.683388 C95.3115679,13.6969627 95.2367283,13.7135174 95.2429219,13.7234501 C95.2609867,13.7522552 95.3115679,13.7784115 95.3492458,13.80523 C95.3874398,13.7919863 95.4622795,13.7754316 95.4560858,13.7651678 C95.4385372,13.7366938 95.3874398,13.7105375 95.3492458,13.683388 L95.3492458,13.683388 Z M89.6743376,13.7618569 C89.6345951,13.7363627 89.5938205,13.7098753 89.5530458,13.683388 C89.5148517,13.6969627 89.4400121,13.7135174 89.4462057,13.7234501 C89.4642705,13.7522552 89.5148517,13.7784115 89.5530458,13.80523 C89.5907236,13.7919863 89.6284015,13.7784115 89.6743376,13.7618569 L89.6743376,13.7618569 Z M96.7624244,13.4214938 C96.8083605,13.4052703 96.8460384,13.3916955 96.8837162,13.3781207 C96.8083605,13.3645459 96.7350693,13.3463359 96.6550683,13.3400451 C96.627197,13.3377275 96.5807448,13.3645459 96.5430669,13.3781207 C96.6168743,13.3926888 96.6911977,13.407588 96.7624244,13.4214938 L96.7624244,13.4214938 Z M95.6904113,12.218635 C95.6527334,12.2322098 95.5773776,12.2487645 95.5840874,12.2586972 C95.601636,12.2875023 95.6527334,12.3136586 95.6904113,12.3408081 C95.7280892,12.3272334 95.8034449,12.3106787 95.7972513,12.3004149 C95.7791866,12.2719409 95.7286053,12.2457846 95.6904113,12.218635 L95.6904113,12.218635 Z M6.47641485,11.2856166 C6.43099493,11.269393 6.39280092,11.2558183 6.35512304,11.2422435 C6.31692902,11.269393 6.26634775,11.2952183 6.24828302,11.3240233 C6.24208939,11.3339561 6.31692902,11.3505107 6.35512304,11.3640855 C6.39589773,11.3375981 6.43667242,11.3111107 6.47641485,11.2856166 L6.47641485,11.2856166 Z M94.4475573,8.84447209 C94.4021374,8.82824856 94.3644596,8.81467377 94.3267817,8.80109898 C94.2885877,8.82791746 94.2380064,8.85407377 94.2199417,8.88287881 C94.213748,8.89281158 94.2885877,8.9093662 94.3267817,8.92294099 C94.3675564,8.8964536 94.4083311,8.8699662 94.4475573,8.84447209 L94.4475573,8.84447209 Z M88.9202638,8.57430066 C88.848521,8.58853764 88.7747136,8.6031057 88.7003901,8.61800486 C88.7385842,8.63157965 88.7845202,8.65839814 88.8123915,8.65608049 C88.8929086,8.64978974 88.9656837,8.63157965 89.0415556,8.61800486 C89.0033616,8.60443007 88.9656837,8.59085528 88.9202638,8.57430066 L88.9202638,8.57430066 Z M7.66971979,8.53920487 C7.74094647,8.52496789 7.81526996,8.51039982 7.88907732,8.49583176 C7.85139944,8.48225697 7.80546339,8.45543848 7.77707594,8.45775613 C7.69707496,8.46404688 7.62429988,8.48225697 7.54842798,8.49583176 C7.58610586,8.50940655 7.62429988,8.52298134 7.66971979,8.53920487 L7.66971979,8.53920487 Z M10.0563297,8.17301664 C10.1280725,8.15877966 10.2018799,8.1442116 10.2762033,8.12964353 C10.2385255,8.11606874 10.1920733,8.08925025 10.164202,8.0915679 C10.0836849,8.09785866 10.0109098,8.11606874 9.93503787,8.12964353 C9.97323189,8.14321832 10.0109098,8.15679311 10.0563297,8.17301664 L10.0563297,8.17301664 Z M5.33214276,7.09199985 C5.29394874,7.10557464 5.21910912,7.12212926 5.22530274,7.13239313 C5.24336748,7.16086708 5.29394874,7.18702338 5.33214276,7.21417296 C5.36982064,7.20059817 5.44466027,7.18404355 5.43846664,7.17411078 C5.42091804,7.14530573 5.36982064,7.11914943 5.33214276,7.09199985 L5.33214276,7.09199985 Z M73.6483347,5.54877804 C73.6029148,5.53255451 73.5652369,5.51897972 73.5270429,5.50540493 C73.489365,5.53255451 73.4382676,5.55871081 73.4202029,5.58718476 C73.4140093,5.59744862 73.489365,5.61400325 73.5270429,5.62724694 C73.5678176,5.60075955 73.6091084,5.57427215 73.6483347,5.54877804 L73.6483347,5.54877804 Z M72.1634133,5.50540493 C72.1252193,5.51897972 72.0503797,5.53553434 72.0565733,5.54546711 C72.074638,5.57427215 72.1252193,5.60042846 72.1634133,5.62724694 C72.2010912,5.61400325 72.2759308,5.59744862 72.2697372,5.58718476 C72.2521886,5.55871081 72.2010912,5.53255451 72.1634133,5.50540493 L72.1634133,5.50540493 Z M92.5724376,5.27893771 C92.5270177,5.29516124 92.4888237,5.30873602 92.4511458,5.32231081 C92.5270177,5.3358856 92.5997928,5.35409569 92.6803099,5.36038644 C92.7081812,5.36270409 92.7541172,5.3358856 92.7923113,5.32231081 C92.7179878,5.30774275 92.6441804,5.29284359 92.5724376,5.27893771 L92.5724376,5.27893771 Z M95.0085965,5.86232257 C94.7876905,5.97290744 94.6885926,6.05071416 95.0586616,6.10104021 C95.2434381,6.02985534 95.231567,5.96231248 95.0085965,5.86232257 L95.0085965,5.86232257 Z M16.5229896,21.3998281 C16.5926678,21.4590937 16.181308,21.5577592 16.6370555,21.6014634 C16.8192513,21.5312718 16.8073801,21.463729 16.5229896,21.3998281 L16.5229896,21.3998281 Z M96.0315768,19.7860836 C95.7864125,19.8675324 95.7864125,19.9489811 96.0315768,20.0307609 C96.2762249,19.9489811 96.2762249,19.8675324 96.0315768,19.7860836 L96.0315768,19.7860836 Z M27.9806784,17.4061912 C28.2903596,17.4849912 28.5071364,17.5207492 28.6480414,17.3883122 C28.4488131,17.3220938 28.2599076,17.3260669 27.9806784,17.4061912 L27.9806784,17.4061912 Z M96.5688737,12.5239023 C96.2591925,12.4447712 96.0424156,12.4093443 95.9015106,12.5417813 C96.1007389,12.6079997 96.2896444,12.6036955 96.5688737,12.5239023 L96.5688737,12.5239023 Z M3.62734767,12.4623191 C3.38218338,12.5440989 3.38218338,12.6255476 3.62734767,12.7069964 C3.87199583,12.6255476 3.87199583,12.5440989 3.62734767,12.4623191 L3.62734767,12.4623191 Z M10.7876935,11.8527779 C11.0323416,11.7709981 11.0323416,11.6895493 10.7876935,11.6081006 C10.5425292,11.6895493 10.5425292,11.7709981 10.7876935,11.8527779 L10.7876935,11.8527779 Z M4.99097729,11.1197393 C4.74632913,11.2015191 4.74632913,11.2829678 4.99097729,11.3644166 C5.23614158,11.2829678 5.23614158,11.2015191 4.99097729,11.1197393 L4.99097729,11.1197393 Z M6.11976531,10.7707678 C6.04750636,10.7717611 5.97576355,10.7730855 5.90402073,10.7740788 C5.88389146,10.8283779 5.85498788,10.8826771 5.84931039,10.9369762 C5.84827812,10.950551 5.93240818,10.9786939 5.95769881,10.9760452 C6.03821593,10.9677678 6.17034658,10.9492267 6.17344339,10.932672 C6.18221769,10.8790351 6.141443,10.8247359 6.11976531,10.7707678 L6.11976531,10.7707678 Z M87.8477345,7.10160153 C88.0686405,6.99068557 88.1677385,6.91287885 87.7976694,6.8625528 C87.612893,6.93406876 87.6247641,7.00161162 87.8477345,7.10160153 L87.8477345,7.10160153 Z M94.4960741,6.54271751 C94.7242059,6.63045701 94.9518216,6.63045701 95.1799534,6.54271751 C94.9518216,6.45530911 94.7242059,6.45530911 94.4960741,6.54271751 L94.4960741,6.54271751 Z M1.92203646,5.88086374 C2.14294239,5.76994778 2.24204038,5.69247215 1.87197133,5.64181501 C1.68719487,5.71333097 1.69906598,5.78087383 1.92203646,5.88086374 L1.92203646,5.88086374 Z M20.4801993,17.100924 C20.7439445,17.100924 20.8022678,17.1055593 20.8523329,17.0999307 C20.9483341,17.0896669 21.0396901,17.0734433 21.1325944,17.0595375 C21.0918197,17.0320568 21.0639484,17.0002719 21.0076897,16.9774265 C20.9034303,16.9353778 20.7821385,16.8986265 20.5958137,16.8347257 C20.5571035,16.9244518 20.5276838,16.9916635 20.4801993,17.100924 L20.4801993,17.100924 Z M9.0828984,14.7799661 C8.79747555,14.9037947 8.79747555,15.0259678 9.0828984,15.1497963 C9.36780511,15.0259678 9.36780511,14.9037947 9.0828984,14.7799661 L9.0828984,14.7799661 Z M80.3648041,0.494652091 C80.1031235,0.581398307 80.1015751,0.662515953 80.3431265,0.744295783 C80.4907412,0.674766373 80.7539702,0.638346205 80.806616,0.523788224 C80.6512593,0.513524359 80.5010639,0.503591586 80.3648041,0.494652091 L80.3648041,0.494652091 Z M96.390807,17.3386484 C96.1291263,17.4257257 96.1270618,17.5068433 96.3691293,17.5882921 C96.516744,17.5190938 96.779973,17.4826736 96.8321027,17.3677845 C96.6772621,17.3575207 96.5265506,17.3475879 96.390807,17.3386484 L96.390807,17.3386484 Z M93.809614,12.279556 C94.1559409,12.3818636 94.4971063,12.3818636 94.8434332,12.279556 C94.4971063,12.1775796 94.1559409,12.1775796 93.809614,12.279556 L93.809614,12.279556 Z M8.47747162,17.5412769 C9.31877226,17.5945828 9.31825612,17.5912719 9.52935548,17.5048568 C9.22586789,17.4485711 8.92341257,17.4429425 8.47747162,17.5412769 L8.47747162,17.5412769 Z M94.1827799,9.55830737 C94.2467807,9.60134938 94.2767165,9.6311477 94.3288462,9.65465526 C94.4284603,9.70001493 94.5409778,9.74140148 94.648334,9.7844435 C94.9120792,9.69306198 94.9125953,9.61260652 94.6436888,9.52685358 C94.5089775,9.53612417 94.3587821,9.54605695 94.1827799,9.55830737 L94.1827799,9.55830737 Z M5.19072167,17.118803 C5.48853177,17.0982753 5.6407917,17.0880114 5.86479445,17.0724501 C5.82040681,16.9880215 5.78479347,16.9198165 5.74505104,16.8439963 C5.51640308,16.8595576 5.36414315,16.8701526 5.19072167,16.8817408 L5.19072167,17.118803 Z M23.9444999,16.2642534 C24.24231,16.2437257 24.3945699,16.2334618 24.6185726,16.2182316 C24.574185,16.133803 24.5380555,16.065598 24.4983131,15.9894467 C24.2701813,16.0050081 24.1179213,16.015603 23.9444999,16.0275224 L23.9444999,16.2642534 Z M20.5034254,8.61866705 C20.8368489,8.71998133 21.172853,8.71633932 21.4716954,8.63654604 C21.3354356,8.56469898 21.1976275,8.49218974 21.0598194,8.41934941 C20.8131067,8.50775108 20.6592983,8.56271243 20.5034254,8.61866705 L20.5034254,8.61866705 Z M4.82065262,6.91585868 C5.05033285,6.98704355 5.27846468,7.00094944 5.52208057,6.89930406 C5.4947254,6.84997129 5.46375727,6.79567213 5.4188535,6.71654104 C5.18194737,6.73408894 4.99304183,6.74832591 4.82065262,6.76090742 L4.82065262,6.91585868 Z M5.47098317,17.6614635 C5.73730901,17.6836467 5.77189008,17.8097929 6.07744221,17.813766 C6.19305653,17.581008 6.18686291,17.581008 5.96389244,17.4849912 C5.8100841,17.5399526 5.65627576,17.595245 5.47098317,17.6614635 L5.47098317,17.6614635 Z M7.88907732,3.12551254 C8.11978982,3.21225876 8.34688938,3.21523859 8.59050527,3.11458649 C8.56315009,3.066247 8.53269811,3.01194784 8.48779433,2.93248565 C8.25037207,2.95036465 8.06198266,2.96427053 7.88907732,2.97718313 L7.88907732,3.12551254 Z M19.9712899,14.1889661 C19.8107718,14.6657392 19.8128363,14.6657392 20.0874203,14.7683778 C20.2020024,14.6091224 20.2241962,14.4601308 19.9712899,14.1889661 L19.9712899,14.1889661 Z M7.48133038,14.7137476 C7.93707791,14.8140686 8.24366231,14.7935409 8.58998913,14.7273224 C8.3778575,14.6515022 8.22404916,14.5965409 8.20908124,14.5912434 C7.97527192,14.6306434 7.74404328,14.6693812 7.48133038,14.7137476 L7.48133038,14.7137476 Z M21.4525984,14.5121123 C21.199692,14.5422417 21.0365933,14.5508501 20.9142692,14.5806484 C20.8528491,14.5958787 20.8667847,14.6498468 20.8301391,14.7147409 C21.0097542,14.7607627 21.2275633,14.8167173 21.4515661,14.8739963 C21.6626655,14.8064535 21.5114378,14.6905711 21.4525984,14.5121123 L21.4525984,14.5121123 Z M8.54044014,14.1604921 C8.1399191,14.1916148 7.84830262,14.1326804 7.54481503,14.2310148 C7.57165407,14.2839896 7.60675128,14.3521947 7.64236462,14.4217241 C7.97991714,14.3958989 8.27101748,14.4545022 8.54044014,14.3674249 L8.54044014,14.1604921 Z M4.56671402,14.0098451 C4.36903418,13.9452821 4.24877464,13.9058821 4.22812923,13.8992602 C4.04696572,13.7727829 4.26683938,13.6678266 3.97109382,13.5595594 C3.80541437,13.6214737 3.62683154,13.6807392 3.37857043,13.7777493 C4.00825557,13.7595392 3.65263831,13.9585258 3.98657788,14.0509006 C4.11716013,14.04163 4.30554953,14.0283863 4.56671402,14.0098451 L4.56671402,14.0098451 Z M4.30864635,14.285314 C4.0335462,14.4015274 4.14864439,14.5051594 4.14864439,14.5988585 C4.14864439,14.6925577 4.0335462,14.7958585 4.29316229,14.9057812 C4.45058357,14.8955173 4.64155365,14.8832669 4.88155659,14.8680367 C4.70400603,14.801156 4.59045625,14.7584451 4.56310108,14.7481812 C4.37316327,14.5836283 4.62142437,14.439272 4.30864635,14.285314 L4.30864635,14.285314 Z M23.2833305,8.54681999 C23.2255233,8.43954604 23.1961036,8.3845847 23.1692646,8.33525193 C22.8064214,8.31836621 22.4797077,8.26340487 22.1917042,8.38127378 C22.2180271,8.42994436 22.2474468,8.48490571 22.2809956,8.54681999 L23.2833305,8.54681999 Z M10.2565902,20.6906281 C10.9378889,20.9276903 10.9905347,20.9343122 11.2991836,20.8237273 L11.2991836,20.7042029 C10.9982767,20.6489105 10.6953053,20.5936181 10.34743,20.5297172 C10.3143974,20.5886517 10.2839454,20.6422886 10.2565902,20.6906281 L10.2565902,20.6906281 Z M89.1561377,10.7442805 C89.0012971,11.3442199 89.0012971,11.3442199 89.2763972,11.4634132 C89.3114944,11.448514 89.3770436,11.4336149 89.3780759,11.4187157 C89.3847856,11.2180737 89.3847856,11.0174317 89.3770436,10.8164586 C89.3765275,10.8032149 89.2991072,10.7899712 89.1561377,10.7442805 L89.1561377,10.7442805 Z M94.3494916,5.25178813 C94.3670402,5.25245031 94.1110371,5.26370745 94.1559409,5.40872594 C94.3107815,5.50937804 94.4847191,5.6027461 94.8413686,5.62824022 C95.1360819,5.63519316 95.1809857,5.56467047 95.1809857,5.42494947 C95.0405969,5.39581333 94.8036907,5.34648056 94.3494916,5.25178813 L94.3494916,5.25178813 Z M94.5234292,10.3708082 C94.8320782,10.1456653 95.2176313,10.1628821 95.5345384,10.0840821 C95.4973767,10.0268032 95.4545374,9.95992248 95.3972464,9.87085862 C95.0813716,9.93641492 94.7773678,9.84801324 94.5234292,9.94965862 L94.5234292,10.3708082 Z M89.0100714,2.27063189 C89.1478795,2.22758987 89.2691713,2.18951424 89.5809171,2.09151088 C89.0374265,2.12064702 88.6993579,2.01833945 88.3612892,2.14779659 L88.3612892,2.22692769 C88.5605175,2.32625541 88.7163903,2.40406214 88.8629728,2.47690247 C89.1029757,2.4447865 89.244913,2.42558314 89.4260765,2.4014134 C89.2691713,2.35208062 89.1478795,2.31400499 89.0100714,2.27063189 L89.0100714,2.27063189 Z M10.6163365,11.0591494 C10.6782728,11.1535107 10.4976254,11.2611157 10.7427897,11.3488552 C11.3440874,11.2501897 11.3611199,11.0174317 11.6599622,10.8551964 C11.5804774,10.8161275 11.5200896,10.7866603 11.4602179,10.7571931 C11.1789241,10.8578452 10.8981464,10.9584973 10.6163365,11.0591494 L10.6163365,11.0591494 Z M91.9510106,4.03701 C91.6604264,4.12210076 91.6790073,4.26976798 91.7935893,4.31777638 C92.120303,4.45517974 92.0609475,4.6975394 92.692181,4.74786545 C93.0957988,4.59788058 92.5373404,4.54689234 92.4310165,4.42438814 L92.4310165,4.23963857 C92.2390142,4.15852092 92.0944963,4.09759992 91.9510106,4.03701 L91.9510106,4.03701 Z M20.845107,16.4337728 C20.8920754,16.2649156 20.5648455,16.1950551 20.2087122,16.1165862 C20.0879365,16.1351274 19.9490961,16.1566484 19.7777391,16.1828047 C19.9181279,16.3202081 19.6967059,16.4619156 19.9330959,16.5926971 C20.238648,16.5393913 20.5447163,16.4860854 20.845107,16.4337728 L20.845107,16.4337728 Z M6.06815178,7.10623683 C6.259638,7.01915952 6.38609116,6.96188053 6.50944751,6.90592591 C6.39847841,6.8625528 6.28802544,6.81951078 6.18479837,6.77911751 C6.17757247,6.47649903 6.17757247,6.47649903 5.93911794,6.38644189 C5.90711755,6.40167214 5.84776198,6.41690239 5.84776198,6.43213264 C5.84208449,6.71058137 5.84208449,6.98903011 5.84776198,7.26780993 C5.84827812,7.28270909 5.9122789,7.29727716 6.00260259,7.33634607 C6.14918503,7.32773766 6.33963898,7.31681161 6.58480327,7.30290573 C6.40725271,7.23536288 6.29576747,7.19298304 6.06815178,7.10623683 L6.06815178,7.10623683 Z M5.68414707,14.4190753 C5.79614844,14.3343157 5.90608528,14.2508804 6.00673167,14.174398 C6.30505791,14.1512216 6.60957777,14.2151224 6.85112911,14.1157947 C6.47331803,14.0495762 6.08053903,13.9939527 5.82814884,13.8641644 C5.77292235,13.8360216 5.64853373,13.8078787 5.55924232,13.8092031 C5.42814394,13.8111896 5.30014237,13.8396636 5.15975355,13.8578737 C5.30581986,13.9197879 5.4116276,13.9648165 5.51743535,14.009514 C5.67175982,14.141951 5.28362604,14.2998821 5.68414707,14.4190753 L5.68414707,14.4190753 Z M74.8994468,5.41303014 C74.2806005,5.45077468 74.5118292,5.71796627 74.049888,5.81795618 C74.0091133,5.82689568 73.9053701,5.97356962 74.2697617,5.97191416 C74.4772481,5.89741837 74.6769925,5.82623349 74.8555753,5.76200156 C75.0346743,5.74908896 75.1889988,5.73783181 75.3262908,5.72789904 C75.3582912,5.67558644 75.380485,5.63850409 75.4331308,5.5504335 C75.2803547,5.51136459 75.0635779,5.45540997 74.8994468,5.41303014 L74.8994468,5.41303014 Z M6.5254477,9.06961494 L6.5254477,9.55334098 C6.72157914,9.6880956 6.86661317,9.78775442 7.01474402,9.8893998 C7.20519797,9.89867038 7.4261039,9.93045526 7.51023396,9.82483677 C7.42816844,9.79536955 7.34816746,9.7665645 7.25939218,9.73477963 C7.4524268,9.62452585 7.66197776,9.50268384 7.53449233,9.37223342 C7.4173296,9.25304015 7.18248801,9.14874603 7.00751813,9.04279645 C6.85887114,9.05107376 6.75254726,9.05703343 6.5254477,9.06961494 L6.5254477,9.06961494 Z M7.1370681,8.5594015 C7.14532627,8.37796285 7.13087448,8.36207042 6.8991297,8.23426874 L6.8991297,7.75550908 C7.31771548,7.55718472 7.32700591,7.52275111 7.00700199,7.4704385 C6.84545163,7.52771749 6.68493353,7.5843343 6.75977316,7.5578469 C6.46815668,7.73796118 6.33757443,7.81907883 6.1925404,7.90880488 L6.1925404,8.21109227 C6.39383319,8.35180655 6.53628655,8.45146537 6.67977218,8.55112419 C6.78970901,8.55311075 6.90067811,8.5550973 7.1370681,8.5594015 L7.1370681,8.5594015 Z M8.20030694,11.1942351 C8.27308202,11.0197494 7.89836775,10.9959107 7.90817433,10.9313477 C7.92623906,10.8104989 7.71617197,10.7565309 7.53191165,10.6860082 C7.3574579,10.6191275 7.1706169,10.61383 6.96209822,10.6578653 C6.78248311,10.7260704 6.88674245,10.8085124 6.87022612,10.8836704 C6.85319366,10.9624704 6.85061298,11.0425947 6.87125839,11.1213947 C6.8903554,11.1958905 6.76596678,11.2806502 7.0100988,11.3538216 L7.723914,11.3538216 C7.91591636,11.2892586 8.07746672,11.2352905 8.20030694,11.1942351 L8.20030694,11.1942351 Z M9.1355442,16.6251442 C9.33064337,16.5380669 9.46225788,16.4794635 9.58716264,16.42384 L9.58716264,16.1828047 C9.38019236,16.1089711 9.18096412,16.0374551 8.98121973,15.9662703 C8.91463827,15.8957476 8.84805681,15.8252249 8.77579786,15.7484114 C8.58482778,15.761324 8.43050331,15.7722501 8.25914637,15.7838383 L8.25914637,16.3178904 C8.36805093,16.3569593 8.44805191,16.3854333 8.58379551,16.4341039 L8.58379551,16.9770954 C8.96521954,16.910877 9.27335234,16.8575711 9.59180786,16.8022786 C9.47516127,16.756919 9.36574057,16.7145392 9.1355442,16.6251442 L9.1355442,16.6251442 Z M88.3597408,5.68849904 C88.3597408,5.52626375 88.3623215,5.36402846 88.3540633,5.20179317 C88.3530311,5.18821838 88.2756108,5.17497468 88.200255,5.15080494 L87.7940565,5.15080494 C87.7119909,5.23324695 87.6417965,5.30376964 87.5586987,5.38687384 C87.4105679,5.34118308 87.2939213,5.30509401 87.1752102,5.26867384 C86.6652684,5.39316459 87.2701791,5.48289064 87.2645016,5.59215115 C87.1839845,5.62095619 87.1039835,5.64943014 86.9950789,5.68849904 C87.2041137,5.73584526 87.2748243,5.83815282 87.5592149,5.85305198 C87.6479902,5.82093601 87.7279911,5.79246207 87.8828317,5.73683854 C88.0614146,5.80338812 88.2399974,5.86993769 88.4154834,5.935494 C88.3329018,6.0139629 88.2781914,6.0666066 88.257546,6.08647214 C87.933413,6.15269063 87.6242479,6.06428895 87.2923729,6.19275281 C87.4962464,6.24738306 87.7011521,6.30234441 87.9158644,6.3596234 C88.5403882,6.35598138 88.5403882,6.35598138 88.7081322,6.29605365 C88.6704543,6.1275276 88.7391003,5.94873769 88.688519,5.80603685 C88.5197428,5.74577803 88.4397418,5.71697299 88.3597408,5.68849904 L88.3597408,5.68849904 Z M22.8920999,16.2354484 L22.8920999,15.7007341 C22.7800985,15.6570299 22.6701617,15.614319 22.5664185,15.5742568 C22.6732585,15.5298904 22.774421,15.4881728 22.8797126,15.4447997 C22.1142839,15.3189846 22.1142839,15.3189846 21.6642139,15.0176904 C21.5181476,15.0309341 21.3653715,15.0445089 21.2249827,15.0574215 L21.2249827,15.7106669 C21.4618888,15.7954266 21.661117,15.8669425 21.8603453,15.9384585 C21.9326042,16.0318266 21.7571182,16.1384383 22.0043471,16.2354484 L22.8920999,16.2354484 Z M6.52802838,12.5891275 C6.59615825,12.7132871 5.77447076,12.7768569 6.35254236,12.9483628 C6.48106006,12.9437275 6.6348684,12.9380989 6.77164427,12.9331325 C6.85370979,12.8483728 6.92287193,12.7775191 6.99771156,12.7003745 C7.18403642,12.7113006 7.33887703,12.7205712 7.51229851,12.730835 C7.41216825,12.802351 7.33474794,12.8576434 7.25732764,12.9126048 C7.49578217,12.9725325 7.68984907,12.9662417 7.8668835,12.8996922 C7.87462553,12.8586367 7.88185142,12.8189056 7.88959345,12.7788434 C8.26792067,12.7136182 8.66740944,12.6579947 8.89450899,12.5176115 C8.81502415,12.4891376 8.73502317,12.4603325 8.59566662,12.4103376 L8.59566662,11.9302535 C8.37114774,11.8454939 8.215791,11.7865594 8.06456334,11.7296115 L7.70172018,11.7296115 C7.59229949,11.6475006 7.48184652,11.5647275 7.36158698,11.4743393 C7.18455255,11.4925493 7.03280876,11.5081107 6.86661317,11.5249964 C6.86661317,11.7395443 6.8728068,11.9415107 6.85732274,12.143146 C6.85577433,12.164667 6.7282889,12.1848636 6.66015903,12.2057224 C6.57396443,12.1749308 6.49396345,12.1461258 6.38196207,12.1060636 C6.27408979,12.1385107 6.17550793,12.1802283 6.0495709,12.2027426 C5.86943967,12.2348586 5.59898474,12.1977762 5.5034997,12.2990905 C5.51279013,12.3345174 5.52311284,12.3735863 5.53343555,12.4126552 C5.86272991,12.4709275 6.19202426,12.5295308 6.52802838,12.5891275 L6.52802838,12.5891275 Z M22.0404765,17.4757206 C22.6464194,17.44824 23.1011347,17.5018769 23.5042364,17.4442669 C23.5852697,17.3575207 23.6482382,17.29064 23.76953,17.1611828 C24.0394688,17.2989173 24.2330195,17.3975828 24.3305691,17.4472467 C25.2957422,17.4472467 26.0823325,17.4479089 26.8689228,17.4455912 C26.9055684,17.4452601 26.942214,17.4184417 27.0294409,17.3843391 C26.678985,17.3611627 26.3672392,17.340966 26.0642678,17.3211005 C25.8562652,17.2466047 25.6554886,17.1747576 25.4521312,17.1019173 L23.7586911,17.1019173 C23.277653,16.9598786 23.0464243,16.7691694 22.8843578,16.5619055 C22.8611318,16.5324383 22.7300334,16.5142282 22.6804844,16.4999913 L22.0074439,16.4999913 C21.8360869,16.5642232 21.6858915,16.6205089 21.5780193,16.6609022 C21.7813766,16.8022786 21.9671853,16.9317358 22.152994,17.0605307 C22.0693801,17.0903291 21.988863,17.1191341 21.8773778,17.1591963 C22.1044773,17.1989274 22.3197058,17.2363408 22.5488699,17.276403 C22.431191,17.3224249 22.3228026,17.3648047 22.305254,17.4532064 C22.0409927,17.4803559 21.7772475,17.4714164 22.0084761,17.5780282 C22.0874449,17.5445879 22.1669297,17.5114786 22.0404765,17.4757206 L22.0404765,17.4757206 Z M92.4124356,3.15199993 C92.4877914,3.24669237 92.4625008,3.34138481 92.760827,3.2586117 C92.6679226,3.23013775 92.5750183,3.2016638 92.4511458,3.24801674 L92.4511458,3.00565708 C92.5677924,2.9609596 92.6823744,2.9172554 92.8150212,2.86659826 C92.7778595,2.81527893 92.7376009,2.76064868 92.7030198,2.71297137 L91.8792678,2.71297137 C91.6981043,2.82024532 91.7817182,2.91824868 91.799783,3.0136033 C91.9613333,3.07154447 92.1208192,3.12915456 92.4124356,3.15199993 L92.4124356,3.15199993 Z M24.8993503,16.8228064 C24.974706,16.9174988 24.9494154,17.0118602 25.2477416,16.929087 C25.1548373,16.9009442 25.0619329,16.8724702 24.9504477,16.8569089 C24.9349636,16.7834064 24.9189634,16.710566 24.8972857,16.6109072 C24.6474762,16.6205089 24.4616675,16.628124 24.2015353,16.6380568 C24.2753426,16.7344047 24.3254078,16.7992988 24.3697954,16.8569089 C24.6144436,16.8569089 24.7759939,16.8569089 24.8993503,16.8228064 L24.8993503,16.8228064 Z M93.5128362,10.0556082 C93.4374805,9.96091576 93.4627711,9.86655442 93.1644449,9.94932753 C93.2573492,9.97747038 93.3502536,10.0059443 93.4741261,10.0215057 C93.675935,10.1463275 93.675935,10.1463275 94.1270373,10.0926905 C94.0005841,9.96257122 93.6929675,10.04402 93.5128362,10.0556082 L93.5128362,10.0556082 Z M96.1982885,14.2942535 C96.5508089,14.2214132 96.5508089,14.2214132 96.3949361,14.0532182 C96.093513,14.1114905 96.2390632,14.2124737 96.2968703,14.2796854 C96.032609,14.306835 95.7688639,14.2978955 96.0000925,14.4045073 C96.0790612,14.3710669 96.1585461,14.3379577 96.1982885,14.2942535 L96.1982885,14.2942535 Z M27.0227311,17.867403 C26.9473754,17.7727106 26.972666,17.6783492 26.6743398,17.7611223 C26.7672441,17.7892652 26.8601485,17.8177391 26.9819564,17.8319761 C27.1853138,17.9581223 27.1853138,17.9581223 27.6560292,17.9024988 C27.4929304,17.7945627 27.2106044,17.8465442 27.0227311,17.867403 L27.0227311,17.867403 Z M9.97374802,17.9895761 C9.89839226,17.8948837 9.92368289,17.8005223 9.62587279,17.8829643 C9.71877716,17.9114383 9.81168152,17.9399122 9.93503787,17.9554736 C9.99749025,18.0336114 9.77039069,18.1438652 10.1347823,18.1892248 C10.2839454,18.0276517 10.2839454,18.0276517 9.97374802,17.9895761 L9.97374802,17.9895761 Z M6.5254477,18.68785 C6.61990047,18.6742752 6.78299925,18.6666601 6.79590263,18.6464635 C6.84235481,18.5736231 6.69112715,18.5613727 6.5254477,18.5656769 C6.46299533,18.487208 6.69061102,18.3772853 6.32570332,18.3319257 C6.1765402,18.4934988 6.1765402,18.4934988 6.5254477,18.5656769 L6.5254477,18.68785 C6.43099493,18.7010937 6.26789616,18.70904 6.25499278,18.7289055 C6.20854059,18.8020769 6.35976825,18.8143273 6.5254477,18.809692 C6.58790008,18.888161 6.36028439,18.9980836 6.72519209,19.0434433 C6.87435521,18.8818702 6.87435521,18.8818702 6.5254477,18.809692 L6.5254477,18.68785 Z M95.7564766,9.53546199 C95.9061559,9.64902669 95.7544121,9.77384854 95.9768664,9.88178467 C96.2581602,9.86125694 96.4320978,9.69008215 96.8837162,9.83576282 C96.8837162,9.98806534 96.8862969,10.1678485 96.8821678,10.3473006 C96.8811356,10.3860384 96.8671999,10.4257695 96.8388125,10.4628519 C96.8253929,10.4797376 96.7629406,10.491988 96.6607458,10.5284082 C96.5951966,10.4015998 96.5389378,10.2923393 96.4733886,10.165862 C96.3345482,10.1572536 96.1797076,10.147983 96.0460285,10.1400368 C95.4204725,10.3224687 96.4310655,10.4072284 96.1802237,10.5760855 C95.9809955,10.6098569 95.7482184,10.6492569 95.5113123,10.688988 C95.7322183,10.7972552 96.0413833,10.7376586 96.32629,10.7558687 C96.4419044,10.7207729 96.5668091,10.6826973 96.6932623,10.6439594 C96.7521017,10.6658115 96.8687483,10.6886569 96.8749419,10.7148132 C96.9033294,10.8320199 96.8119734,10.9548552 97.1577841,11.043588 C97.2377851,11.0641157 97.1908168,11.1478821 97.2001072,11.1932418 C96.9177812,11.2869409 96.6220356,11.2127762 96.387194,11.2472099 C96.1611267,11.1713897 96.0052539,11.0694132 95.5964747,11.1518552 C95.5742808,11.1829779 95.5345384,11.2379393 95.4891185,11.3001846 C95.742541,11.3428956 95.9758341,11.3822956 96.1998369,11.4200401 L96.1998369,11.5541325 C95.9794471,11.5912149 95.7549282,11.6292905 95.521635,11.6686905 C95.7683477,11.7739779 96.0738999,11.7104082 96.3675809,11.7329224 C96.4754532,11.6521359 96.5864223,11.5690317 96.7061657,11.4799678 C96.8723613,11.5432065 97.0261696,11.6021409 97.1964943,11.6670351 C97.1061706,11.7044485 97.005008,11.7464972 96.8909421,11.7938435 L96.8909421,12.1537409 C96.959072,12.1802283 97.0349439,12.2096955 97.1128803,12.240156 C97.1495259,12.2739275 97.2166235,12.3086922 97.2197204,12.3441191 C97.2321076,12.4861577 97.2248817,12.6281964 97.2248817,12.7745392 C97.000879,12.8126149 96.7779085,12.8503594 96.4615175,12.9039964 C96.7102948,12.9294905 96.8620385,12.9450518 97.1144287,12.970546 C97.1510743,13.0125947 97.1758488,13.0900703 97.2816566,13.1486737 C97.3993355,13.2138989 97.6207575,13.2559476 97.5237241,13.4145409 C97.4364972,13.4426838 97.2346883,13.507909 97.0906865,13.5542619 L96.2736442,13.5542619 C96.2256437,13.4390417 96.1786753,13.3271325 96.1265457,13.2013174 C95.864865,13.3258081 95.864865,13.3258081 95.8695103,13.7476199 C96.1487395,13.7989392 96.4284848,13.8502585 96.745392,13.9088619 C96.9368782,13.84463 97.1722359,13.7661611 97.4070775,13.6873611 C97.4555942,13.704909 97.5299177,13.7191459 97.53095,13.733714 C97.5392081,13.894956 97.5361113,14.056198 97.5361113,14.2114804 C97.6692742,14.2644552 97.7807595,14.3084905 97.9020513,14.3564989 L97.9020513,14.6322989 C97.675984,14.7706955 97.5345629,14.8574417 97.5051432,14.8756518 C96.8924905,14.9527963 96.7371338,14.6501778 96.2622893,14.8213526 C96.2437084,14.912072 96.5198408,14.9282955 96.6437133,15.0153728 C96.879071,15.0210014 97.1474614,15.0276232 97.4184325,15.033914 C97.5644988,15.1160249 97.8963738,15.1478098 97.912374,15.3080585 C97.7105651,15.4606921 97.1515905,15.5514114 96.9110714,15.707356 L96.9110714,15.95104 C97.0189437,15.9897778 97.0989447,16.0185829 97.2026879,16.0553341 C97.2192042,16.183798 97.237269,16.3205392 97.2543014,16.4506585 C97.4974012,16.4817812 97.6945649,16.5069442 97.9195999,16.5357492 C97.7869531,16.588724 97.6811454,16.631435 97.5748215,16.6738148 C97.6832099,16.7158635 97.7957274,16.7595677 97.961923,16.8241307 C97.7611463,16.9671627 97.5484986,17.1184719 97.2997213,17.2956064 C97.3368831,17.3128232 97.4256584,17.3528854 97.5443695,17.4068534 L97.5443695,17.6465643 C97.470046,17.6770248 97.3621737,17.7217223 97.2444948,17.7703929 C97.3446251,17.810124 97.4519813,17.8525038 97.5650149,17.8972013 L97.5650149,18.13625 C97.4488844,18.1806164 97.3343024,18.2246517 97.2315915,18.2640517 C97.0968801,18.3961576 97.4684976,18.436882 97.6001121,18.5547509 C97.527337,18.6027593 97.4266906,18.6689778 97.2553337,18.7818803 L97.2553337,19.2718971 C97.1743004,19.4238685 96.7588115,19.4569777 96.8992003,19.5973609 C96.9807497,19.6308013 97.0896542,19.6754988 97.206817,19.7235072 C97.1046222,19.7635693 96.9962337,19.8062803 96.8837162,19.8503156 L96.8837162,20.0506265 C96.6906816,20.1837256 96.5440992,20.2847088 96.3964845,20.3863542 C96.291709,20.3896651 96.1822883,20.3933071 96.0382865,20.3976113 C95.9319626,20.3191424 95.8204774,20.2367004 95.7064115,20.1522719 C95.4380211,20.267492 95.4395695,20.4485996 94.9874349,20.5055475 C94.8682077,20.4707828 94.7536256,20.4376735 94.6447211,20.4062197 C94.1528441,20.5598466 94.7211091,20.6141458 94.8279491,20.7240685 C94.6746569,20.740292 94.5234292,20.7561844 94.1884574,20.7916113 C93.8849698,20.9058382 93.4560613,21.0667491 93.0271528,21.2279912 C92.3365637,21.2558029 92.0712702,21.4842567 91.5855868,21.6166937 L90.2322799,21.6166937 C90.0366646,21.6882096 89.8384686,21.7607189 89.6046593,21.8464718 L88.1223185,21.8464718 C88.0547048,21.7805844 87.9824459,21.7100617 87.9070901,21.6362281 C87.5819248,21.6729794 87.4585685,21.8153491 87.1798554,21.8448164 C86.9016584,21.8742836 86.6616555,21.9001088 86.4933954,21.983213 L84.0959466,21.983213 C84.0180102,22.0116869 83.9385253,22.0408231 83.8714277,22.0653239 C83.8146529,22.0812164 83.7718136,22.1037306 83.7289744,22.1037306 C83.16329,22.1063794 82.5976057,22.1053861 82.0443086,22.1053861 C81.771273,22.2606684 81.378494,22.2345121 80.9888118,22.2133222 C80.9088108,22.1845172 80.8282937,22.1557121 80.7477766,22.1269071 C80.6992598,22.1199542 80.6517754,22.1070416 80.6022264,22.1063794 C80.4324179,22.1037306 80.2610609,22.1027374 80.0912524,22.1063794 C79.9286698,22.1096903 79.6731828,22.0990953 79.6200208,22.130218 C79.3124041,22.3109945 78.5769113,22.1398197 78.3240049,22.3437726 C78.1541964,22.298413 77.988517,22.2543777 77.7861919,22.2007407 C77.5833507,22.2566953 77.4156067,22.3030483 77.2473466,22.3494012 C76.6223067,22.3494012 75.9972667,22.3494012 75.372743,22.3497323 C75.3185488,22.3500634 75.2648707,22.3546987 75.2106765,22.3570163 C75.1306755,22.3858214 75.0501584,22.4146264 74.930415,22.4573374 L73.8465307,22.4573374 C73.7205937,22.4219105 73.6080762,22.3897945 73.4996878,22.359334 C73.3845896,22.4003895 73.3045886,22.4291945 73.2271683,22.4570063 L68.7125323,22.4570063 C68.5912405,22.4136332 68.5112395,22.3848281 68.421432,22.3527121 L65.0102934,22.3527121 C64.9024211,22.3884701 64.780097,22.4295256 64.657773,22.47025 C64.5798365,22.4421071 64.4993194,22.4136332 64.4188023,22.384497 C64.3191882,22.3729088 64.2190579,22.3517189 64.1189276,22.3510567 C63.4969845,22.3480768 62.8750414,22.3494012 62.274776,22.3494012 C62.1725812,22.3861525 62.0925802,22.4149575 61.9728368,22.4576684 L60.5307546,22.4576684 C60.4476568,22.4278701 60.3671397,22.3990651 60.2602997,22.3606584 L58.1518868,22.3606584 C58.0404015,22.4007205 57.9604006,22.4295256 57.8618187,22.4646214 C57.7467205,22.4295256 57.6295578,22.3937676 57.4953626,22.3527121 L56.4868341,22.3527121 C56.3774134,22.3888012 56.2550893,22.4295256 56.1327653,22.4699189 C56.0537966,22.441776 55.9732794,22.412971 55.8328906,22.3626449 L54.491971,22.3626449 C54.2896459,22.3000684 54.1647411,22.2613306 53.9871906,22.2067004 C53.8101562,22.2421273 53.6269281,22.2788785 53.3244728,22.3394684 L49.6160402,22.3394684 C49.4761676,22.3278802 49.3796503,22.1821995 48.9920326,22.2321945 C48.894483,22.2633172 48.7706105,22.3027172 48.6400283,22.3441037 C48.5259624,22.3066903 48.406219,22.2672903 48.2813142,22.2265659 L47.6185964,22.2265659 C47.4885303,22.183855 47.365174,22.1434617 47.1907202,22.0861827 C47.0172987,22.1169743 46.8289093,22.1507458 46.4278721,22.2222617 L45.2402447,22.2222617 C45.0998559,22.2725878 45.0193388,22.3013928 44.9119826,22.3397995 L43.2190586,22.3397995 C42.8892481,22.27325 42.5191791,22.1987542 42.0685929,22.1077037 L40.8195454,22.1077037 C40.6899954,22.065655 40.5676713,22.0255928 40.4453472,21.9858617 C40.3653462,22.0146668 40.2848291,22.0434718 40.204312,22.0722769 C40.1604405,22.0832029 40.116569,22.1040617 40.0726975,22.1040617 C37.6902167,22.1057172 35.3072197,22.1053861 32.9717073,22.1053861 C32.8158344,22.151739 32.7002201,22.1858416 32.5871864,22.2192819 C32.4829271,22.1821995 32.40241,22.1533945 32.322409,22.1245895 C32.1066644,22.1663071 31.8909198,22.2080248 31.6808527,22.2487491 C31.5012376,22.191139 31.3773651,22.1514079 31.2416215,22.1077037 L30.2336092,22.1077037 C30.1169626,22.1461105 29.9941224,22.1868348 29.8748951,22.2259037 L29.2054676,22.2259037 C29.0728208,22.1828617 28.9494644,22.1427995 28.8503664,22.1103525 L27.14041,22.1103525 C27.0459572,22.144455 26.9654401,22.172929 26.8493097,22.2146466 L25.458841,22.2146466 C25.4056791,22.1997474 25.2787098,22.1636584 25.0609006,22.1024063 L21.3493713,22.1024063 C21.2089825,22.0520802 21.1289815,22.0232752 21.0324642,21.9891727 L17.6522937,21.9891727 C17.5206792,21.9467928 17.3968067,21.9070617 17.2579663,21.8623643 C16.6675075,21.8600466 16.0564032,21.8620332 15.3054263,21.8607088 C15.5036222,21.7713138 15.5923975,21.7309206 15.7013021,21.6819189 C15.6145913,21.6448365 15.5165256,21.6031189 15.4179438,21.5610701 C15.4742025,21.4905475 15.7900774,21.4720063 15.5665908,21.2796416 C15.5108481,21.2283223 15.6940762,21.2657357 15.7178184,21.313413 C15.7880128,21.4514785 15.9139498,21.3468533 16.1296944,21.320697 C15.9180789,21.2276601 16.2840189,21.0991962 15.8881431,21.0117878 C15.727625,21.0693979 15.5681392,21.1263458 15.5665908,21.2796416 C15.5629778,21.3730096 15.3947177,21.3730096 15.2290382,21.3730096 C15.1087787,21.3329475 14.9895514,21.2935475 14.8120009,21.2342819 C14.7495485,21.3624147 14.6958704,21.4729996 14.6437407,21.5802735 C14.5910949,21.5941794 14.5487718,21.6157004 14.5054165,21.6157004 C13.9448935,21.618018 13.3843705,21.6173559 12.9570104,21.6173559 C12.5647475,21.5455088 12.2819053,21.4938584 12.0088697,21.4441945 C12.3505513,21.3653945 12.6922329,21.2862634 13.0762377,21.1971996 C12.2906796,21.112771 12.2906796,21.112771 10.9884701,21.374334 C10.5409808,21.3644012 10.4103985,21.2038214 10.1502663,21.1419071 C9.93916695,21.1256836 9.78639089,21.1140954 9.5690979,21.0972096 C9.70845445,21.0366197 9.80187495,20.9958954 9.9004568,20.9528533 C9.78277794,20.826376 9.27180394,20.7982332 9.25322307,20.6406332 L9.76522934,20.6406332 C10.0558135,20.5664685 9.89116637,20.4558836 9.94329604,20.3482786 C9.80961698,20.2962971 9.66045386,20.2383559 9.46122561,20.1608803 L8.10224122,20.1608803 C7.8684319,20.081087 7.70430086,20.0251324 7.54636344,19.9711643 L7.54636344,19.7139055 C7.12468085,19.6457004 6.6947401,19.5758399 6.24260553,19.5026685 C6.26892843,19.3103038 6.05937748,19.1182702 5.75279307,18.9792114 C5.41420828,18.8262467 5.15717287,18.6560652 4.82065262,18.4822416 L4.82065262,17.9379257 C4.48103556,17.7031811 4.18993521,17.5015459 3.82967273,17.2525643 L3.82967273,16.7800955 C4.28077504,16.7062618 4.70968352,16.6360702 5.20981868,16.5542904 C4.70090922,16.4248333 4.23329058,16.3059711 3.78270442,16.191082 L3.78270442,15.9361408 C3.56695984,15.8589963 3.36669932,15.7871493 3.1488902,15.7093425 L3.1488902,14.9451812 C3.3796027,14.9160451 3.57676641,14.890882 3.7692849,14.8667123 C3.69186459,14.7504989 3.42295807,14.7968518 3.24592365,14.7680468 C2.99456573,14.6872602 3.1736647,14.5786619 3.11327686,14.4816518 C2.88772571,14.3968921 2.65649707,14.3101459 2.4526236,14.2336636 C2.33752542,14.0999022 2.64978731,14.0492451 2.82682174,13.9482619 C2.73443351,13.8886653 2.63275484,13.8227779 2.49855965,13.7363627 C2.54707637,13.7145106 2.6379162,13.6741174 2.73804645,13.6290888 C2.76282095,13.4999627 2.93882311,13.3489846 2.44333317,13.2781308 L2.44333317,13.0145812 C2.54243115,12.9765056 2.6570132,12.9328014 2.76901458,12.8900905 C2.6570132,12.8473796 2.54294729,12.8033443 2.42423616,12.7579846 L2.42423616,12.5252266 C2.30036367,12.4745695 2.19094298,12.4302031 2.10990973,12.3970939 L2.10990973,11.5412199 C2.20745931,11.5061241 2.28746029,11.4776502 2.42733297,11.4276552 L2.42733297,11.061467 C2.56668952,11.011472 2.6466905,10.982667 2.78553091,10.9330031 L2.78553091,10.1877141 C3.04101791,10.1542737 3.23766548,10.1287796 3.43328078,10.1032855 C3.23766548,9.90529223 2.66165842,9.90165022 2.29004097,9.80000484 C1.86113248,9.68246703 1.85803567,9.48149392 1.43738536,9.36163846 L1.43738536,8.74448217 C1.49828933,8.71832587 1.60254867,8.6732973 1.73364705,8.61668049 L1.73364705,8.37763176 C1.65312993,8.34485361 1.54370924,8.30048722 1.41932062,8.25016117 L1.41932062,7.87470236 C1.53751561,7.86013429 1.6789367,7.84026875 1.82397074,7.82503849 C1.99739222,7.80649732 2.13158741,7.77934774 2.09287726,7.71180488 C2.4087521,7.61545699 2.39842939,7.88827715 2.7416594,7.78000992 L2.7416594,7.26350573 C2.62965803,7.22344355 2.55068932,7.1949696 2.47172061,7.16682674 C2.32720271,6.94267717 2.57804449,6.70230406 2.31481546,6.46325533 C2.09390953,6.54238642 1.93545597,6.59900323 1.77700242,6.65595112 C1.88074563,6.73806205 2.22139496,6.78143515 2.08719977,6.90658809 C1.98242429,6.94598809 1.86835838,6.98903011 1.75687314,7.03140994 C1.86939065,7.07378977 1.98294043,7.11683179 2.09287726,7.15854943 L2.09287726,7.71180488 C1.92255259,7.70253429 1.75222792,7.70253429 1.58138712,7.70253429 C1.42086902,7.64492421 1.26035093,7.58764522 1.08486491,7.52440657 L1.08486491,6.91254776 C1.17260792,6.87778305 1.28409315,6.83341667 1.40538496,6.78507717 L1.40538496,6.40663852 C1.23093121,6.3857797 1.03583205,6.36227214 0.840216748,6.33876458 C0.803055002,6.30366878 0.73544127,6.26857298 0.733892864,6.23314609 C0.724086292,6.00998979 0.72873151,5.78683349 0.72873151,5.56632594 C0.6409885,5.53487215 0.560987519,5.50606711 0.422147108,5.45673434 C0.405114642,5.38290073 0.382920821,5.28655283 0.36640449,5.21569905 C0.216209101,5.13391922 0.100594781,5.07068057 -5.16135357e-05,5.01605032 C0.157885806,4.92797973 0.272467855,4.8637478 0.431437545,4.77501503 C0.336468639,4.72170915 0.222918861,4.6581394 0.0969818336,4.58761671 C0.294661675,4.45087554 0.648214395,4.55682512 0.937250195,4.54225705 C1.13802685,4.61410411 1.33828737,4.68595116 1.54112856,4.7587915 C1.93803665,4.71343184 1.67429148,4.59490075 1.76719585,4.49921503 C1.687711,4.46047722 1.5927421,4.41412428 1.44667579,4.34293941 L1.44667579,4.06581504 C1.60719389,4.05720664 1.78009923,4.03005706 1.91429443,4.0459495 C2.05365097,4.06217303 2.15584577,4.11945202 2.27352463,4.15885202 C2.55585067,4.07773437 2.38036465,3.96781168 2.43713954,3.86881505 C2.33184793,3.82676631 2.22087883,3.78239992 2.10836132,3.73770244 C2.21365293,3.6959848 2.32358976,3.65261169 2.43765568,3.60791421 L2.43765568,3.24603019 C2.60178672,3.18709573 2.76230482,3.12948565 2.92437132,3.07154447 C3.52721742,3.23477304 2.62139986,3.324168 2.80669246,3.49401842 C2.90062909,3.53076968 3.04979221,3.58871085 3.21185871,3.6519495 C3.48128137,3.61188732 3.75122016,3.57182514 4.03457847,3.5297764 C4.24567783,3.40164363 4.08774041,3.25794951 4.14709598,3.12153943 C4.54348793,2.98413607 4.99097729,3.11293103 5.45962819,3.04141506 C5.48801564,3.22748901 5.50866105,3.36423018 5.52930647,3.50163354 C5.75434148,3.59599488 6.05937748,3.53242514 6.33447762,3.55361505 C6.57241602,3.47249741 6.81499964,3.3897243 7.05500258,3.30794447 C7.28519895,3.30959993 7.52623416,3.32085707 7.55462161,3.15895288 C7.48804014,3.12551254 7.36571607,3.06359826 7.23874677,2.99969742 C7.32648978,2.96427053 7.43384593,2.92122851 7.53604073,2.88017305 C7.43126526,2.83779322 7.32648978,2.79541339 7.22274657,2.75336465 C7.39616805,2.69145036 7.55668615,2.63384028 7.79875363,2.54742516 C7.98611076,2.64311087 8.17295176,2.73879658 8.40934176,2.85964532 C8.53476265,2.73846549 8.60753773,2.66827389 8.68082895,2.59742011 C8.90070262,2.63682011 9.12109241,2.67622011 9.42251546,2.73018818 C9.51283915,2.64112432 9.58096902,2.57424364 9.67284111,2.48352432 C9.8493594,2.41035289 10.1538793,2.47425373 10.4253665,2.45306381 C10.5445937,2.49279491 10.6669178,2.53351928 10.7938871,2.57589911 L11.1438269,2.57589911 C11.2506669,2.49478146 11.3611199,2.41101508 11.5082184,2.29910583 C11.7559634,2.35009407 11.9737725,2.39512264 12.1905494,2.43982012 C12.2710665,2.41101508 12.3510675,2.38221003 12.4656495,2.34148567 C12.574038,2.37227726 12.6865555,2.40406214 12.8238475,2.44313104 C12.9270745,2.41200835 13.043205,2.37658146 13.1608839,2.34115457 C13.3575314,2.3616823 13.409145,2.47458482 13.6666965,2.43684029 C13.7224391,2.51464701 13.6976646,2.60900835 13.9954747,2.52623524 C13.9025704,2.49776129 13.809666,2.46928734 13.6666965,2.43684029 C13.7260521,2.41929239 13.7657945,2.38452768 13.8158596,2.34082348 L14.8083879,2.34082348 C14.9456799,2.29910583 15.0711008,2.2613613 15.2125219,2.21865037 C15.3203942,2.2524218 15.4385892,2.28917306 15.5567842,2.32658651 C15.7874967,2.24977306 16.0233705,2.17130416 16.2587283,2.09316634 C16.3547294,2.12759996 16.4347304,2.15607391 16.5498286,2.19746046 L17.5630023,2.19746046 C17.6884232,2.16898651 17.8680383,2.12793105 18.0863636,2.07859828 C18.2979791,2.12031592 18.5281754,2.16567559 18.7526943,2.20971088 C19.2347647,2.21070416 19.3054753,2.01800836 19.6827702,1.97231761 C20.021355,1.92033609 20.143163,2.0468134 20.3465203,2.0819092 L21.0324642,2.0819092 C21.1284654,2.04780668 21.2089825,2.01900164 21.3147902,1.98092601 C21.4716954,2.01569071 21.6358264,2.05177979 21.8701519,2.10343021 C22.0182827,2.0686655 22.194801,2.02727895 22.4363524,1.97066214 L24.0451463,1.97066214 C24.1752124,1.92828231 24.2985687,1.88822013 24.4229573,1.84815795 C24.6598635,1.92828231 24.901931,2.01006214 25.1161271,2.08257139 C25.5063255,2.13289743 25.6064557,1.9901966 25.962073,1.95609408 C26.0828486,1.98158819 26.2645283,2.01966382 26.4900794,2.06701004 C26.576274,2.00377139 26.6784689,1.92828231 26.7796314,1.85345542 C26.8957618,1.8501445 27.0051825,1.84683358 27.129055,1.84319156 C27.2451855,1.8809361 27.3685418,1.92132937 27.5006725,1.96437139 L28.1701,1.96437139 C28.2872628,1.92629576 28.4085546,1.88689576 28.5897181,1.82763021 C28.6511382,1.95576298 28.7043001,2.06734113 28.7600427,2.18355458 C29.2364357,2.2001092 28.867915,2.01734618 29.2395325,1.97860836 C29.3990183,1.97231761 29.6674087,1.96172265 29.9290893,1.95112769 C30.0132194,1.87729408 30.0921881,1.80743358 30.1856086,1.72532265 C30.3125779,1.76306719 30.4276761,1.79716971 30.568581,1.83855626 L32.2599566,1.83855626 C32.3595707,1.80610921 32.4829271,1.76604702 32.6150577,1.72300501 L36.3420711,1.72300501 C36.4685243,1.68194955 36.5903322,1.64254955 36.7121402,1.60314955 C36.7926573,1.63195459 36.8726583,1.66075963 37.0109826,1.7100924 C37.1069837,1.68426719 37.2138238,1.65612434 37.413052,1.60281845 L39.4559157,1.60281845 C39.5199165,1.54686383 39.5601751,1.51209913 39.5999175,1.47733442 L40.4437988,1.47733442 C40.566639,1.5177277 40.6858663,1.55646551 40.8045774,1.59553442 C40.8923204,1.56408064 40.9723214,1.5352756 41.1106457,1.48594283 L44.1795865,1.48594283 C44.3173947,1.43661005 44.3979118,1.40780501 44.5161068,1.36542518 C44.6224307,1.3952235 44.7339159,1.42634619 44.8743047,1.46574619 C44.9754673,1.43594787 45.0905654,1.40151426 45.2304381,1.3601277 L45.8699298,1.3601277 C45.9994798,1.31774787 46.12232,1.27768569 46.2539345,1.23464367 L46.922846,1.23464367 C47.0400087,1.2727193 47.1613005,1.3121193 47.2825923,1.3515193 C47.3636255,1.32238317 47.4436265,1.29390922 47.5804024,1.24490754 C47.9024709,1.23861678 48.284411,1.23100166 48.6637705,1.22338653 C48.9863551,1.10783527 49.3073913,0.992946198 49.6439116,0.872428553 C49.8787531,0.950897459 50.1141109,1.02936637 50.3117907,1.09525376 C50.6885695,1.02307561 51.0503804,0.953877291 51.4121913,0.884678973 C51.4921923,0.913152922 51.5727094,0.941957964 51.6527104,0.970431913 C51.8245834,0.935667208 51.9964565,0.90057141 52.2395563,0.851238638 C52.3866548,0.888652083 52.5585279,0.932687376 52.772208,0.986986534 L53.3843445,0.986986534 C53.5128622,1.02903527 53.6346701,1.06909746 53.7569942,1.10882855 C53.9572547,1.03731258 54.1580314,0.965465526 54.3660339,0.89096973 C54.7231996,0.906199981 54.7866843,1.0541983 55.1608824,1.0846588 C55.2119798,1.06876636 55.3291425,1.03267729 55.4617893,0.991621828 L57.8179472,0.991621828 C57.9433681,0.949904182 58.065176,0.909179813 58.2489202,0.847927714 C58.4816973,0.931363006 58.7186034,1.01612267 59.0071231,1.1197546 C59.6058401,1.00950082 60.2602997,0.889314267 60.9431468,0.763499144 C61.0179864,0.787999984 61.1366975,0.826737798 61.3379903,0.892625192 C61.51967,0.800250404 61.7075433,0.704564691 61.9434171,0.585040324 C62.0678057,0.704564691 62.1405808,0.775087379 62.2278077,0.858853764 C62.4306489,0.862495781 62.6494903,0.866137797 62.9065257,0.870773091 C63.1728515,0.786013429 63.4551776,0.696618473 63.6977612,0.619805029 C64.3749308,0.647616793 64.4110603,0.852563008 64.6701602,0.979371408 C64.9530024,0.881036957 65.237393,0.782371412 65.4773959,0.69893612 C65.5243642,0.623778138 65.5589453,0.568485703 65.5842359,0.527430241 C65.9672084,0.462867217 66.1581784,0.535045367 66.3341806,0.61848066 L67.0397376,0.61848066 C67.1409002,0.585040324 67.2642565,0.54497814 67.3948388,0.501936124 L68.1938163,0.501936124 C68.3285276,0.569147887 68.5200138,0.664502507 68.7620813,0.785020152 C68.8833731,0.666157969 68.9551159,0.595966374 69.039246,0.513193267 L69.8103522,0.513193267 C69.9079018,0.547957972 69.9879028,0.576763013 70.0937105,0.61450755 C70.2057119,0.5817294 70.320294,0.547957972 70.4400374,0.512862174 C70.6645562,0.54630251 70.7873965,0.671124356 71.1868852,0.614176458 C71.2390149,0.55855293 71.3045641,0.488361334 71.3706294,0.417838647 C71.6101162,0.337714279 71.9094747,0.40194621 72.1716715,0.375789908 C72.2516725,0.346984867 72.3321896,0.318510918 72.4121906,0.289705876 C72.512837,0.278448734 72.6129672,0.259245373 72.7146459,0.258252096 C73.107941,0.254610079 73.5012362,0.256927726 73.8682084,0.256927726 C73.9745323,0.295003355 74.0550494,0.323808397 74.1556958,0.359566379 C74.5056356,0.295334448 74.8628012,0.229447054 75.3433232,0.141045375 L78.248133,0.141045375 C78.3792314,0.0996588215 78.50362,0.0605899147 78.6971708,0 C78.9366576,0.0403932765 79.2153707,0.0874084016 79.4940838,0.134754619 C79.5343423,0.169519324 79.5740848,0.204284029 79.6200208,0.244346213 L80.7441636,0.244346213 C80.8288098,0.160910921 80.9005526,0.0903882334 80.9826182,0.00927058804 C81.1292006,0.0552924358 81.2468795,0.092374788 81.3728165,0.131774787 C81.8548869,0.144687392 82.3591512,0.11853109 82.7736078,0.14170756 C83.1994195,0.339369741 82.2383755,0.423136126 82.644574,0.590999988 C82.7694788,0.612520996 82.7694788,0.612520996 83.5457463,0.32149075 C83.6025212,0.2493126 83.6453605,0.195013441 83.6933611,0.133761342 C83.8858795,0.14170756 84.040204,0.147998316 84.1764637,0.153295795 C84.5470489,0.361221841 83.5416173,0.459887385 83.9953002,0.687016793 C83.8146529,0.74661343 83.6226505,0.809520992 83.4311643,0.872759646 C83.3016143,0.826406706 83.2210972,0.797601664 83.1349026,0.766810068 C82.789608,0.790979816 82.7023812,0.928714267 82.4014743,0.97274956 C82.2430207,1.00089242 81.9844369,0.96049914 81.9142425,1.06214452 C81.9663721,1.08068569 82.0061146,1.10750418 82.0468893,1.10750418 C82.7276718,1.11015292 83.4084543,1.10949073 84.1382697,1.10949073 C84.1991737,1.04558989 84.2657552,0.975398299 84.3354334,0.901564687 C84.5362101,0.844947882 84.7297608,0.848589898 84.9346666,0.920105863 C84.8314395,0.962816787 84.730277,1.00486553 84.6162111,1.05221174 C85.0626682,1.13233611 85.5117059,1.21312266 86.0252606,1.30516636 C85.7589348,1.33926888 85.561771,1.364763 85.3646073,1.39025711 C85.4920928,1.62003526 86.2208759,1.57732434 86.5331378,1.71936299 C86.7999798,1.74187727 86.930562,1.67102349 87.1106932,1.62500165 C87.2706952,1.58427728 87.4895366,1.57335123 87.6928939,1.54785711 C87.5525051,1.49256468 87.4405037,1.44852938 87.3109538,1.39754115 C87.3558575,1.34489745 87.4017936,1.29059829 87.4575362,1.2247109 C87.7305718,1.31609241 87.9654134,1.39456132 88.1930291,1.47071257 C88.3194823,1.43263695 88.4361288,1.39721006 88.5316139,1.36840501 C88.7215517,1.42998821 88.8892957,1.48428736 89.0322652,1.53030921 C89.1003951,1.63824534 88.9202638,1.74651257 89.2041383,1.84054282 C89.3156235,1.75909408 89.4209151,1.68194955 89.5174324,1.61076467 C89.7471127,1.65711761 89.969567,1.70181509 90.2312476,1.75478988 C90.7076406,1.92530248 91.2263566,2.11104533 91.7476533,2.29745037 C91.7904925,2.34479659 91.8384931,2.39843356 91.8947519,2.46067894 C92.0475279,2.41134617 92.1672713,2.37260835 92.2864986,2.33387054 C92.566244,2.43419155 92.8475377,2.53484365 92.9177322,2.56000667 C93.1639287,2.71429574 93.279543,2.77687221 93.3657376,2.84441507 C93.4529645,2.91228902 93.5112878,2.98479826 93.5979986,3.07187557 C93.8658728,2.98082515 94.099166,2.90169406 94.3288462,2.82355624 C94.4532348,2.86428061 94.5765912,2.90467389 94.7066573,2.94705372 L95.4168595,2.94705372 C95.4602149,3.00234616 95.5030542,3.05664532 95.544345,3.10862683 C95.4122143,3.15961506 95.2981484,3.20365035 95.1871793,3.24669237 C95.2924709,3.28807892 95.4008594,3.33078985 95.5371191,3.38442682 C95.3151809,3.41256968 95.0813716,3.42150917 94.9291116,3.46620665 C94.7463997,3.51951253 94.5915591,3.55692598 94.3427819,3.55990581 C94.263297,3.56056799 94.1915542,3.6479764 94.1569731,3.67015959 C94.1920703,3.85623353 94.6189143,3.76385875 94.8109166,3.83835454 C94.9791768,3.90324866 95.2656319,3.92907387 95.5097639,3.97377135 L95.5097639,4.21811756 C95.4400856,4.28566042 95.1273076,4.30486378 95.1830502,4.42140831 C94.9786606,4.37969067 94.8145296,4.33532428 94.6173659,4.28234949 C94.5652362,4.34029067 94.5177518,4.39392764 94.4811061,4.43465201 C94.6591728,4.52040495 94.8119489,4.59357638 95.1113074,4.73727049 C95.1556951,4.55914276 95.1747921,4.4833226 95.1830502,4.42140831 C95.2754385,4.42107722 95.4209886,4.42571251 95.4596988,4.45120663 C95.5830551,4.53298646 95.6671852,4.62205032 95.8437035,4.7760083 L95.8437035,5.17199485 C95.9861568,5.24152426 96.1110616,5.30244527 96.2757088,5.38290073 C96.1363522,5.44945031 96.0098991,5.50970913 95.87622,5.57360997 C95.9397047,5.59446879 96.0217702,5.62161837 96.0914485,5.64446375 C96.1327393,5.6861814 96.1962239,5.72160829 96.1972562,5.75703518 C96.2060305,6.01959147 96.2019014,6.28214777 96.2019014,6.52715617 C96.0506738,6.60032759 95.9252529,6.6612486 95.8447358,6.69998642 C95.9128656,6.87447213 96.3479677,6.89831078 96.513131,7.13404859 L96.513131,8.09653429 C96.6199711,8.14520487 96.7201013,8.19056454 96.8470706,8.24817462 C96.7696503,8.28227714 96.6777782,8.32300151 96.5600994,8.37498302 L96.5600994,8.72163679 C96.4450012,8.76832083 96.3360966,8.81268721 96.2246114,8.85804688 C96.5941643,8.94843511 96.5250022,9.13450906 96.8661676,9.24376956 C96.9776529,9.27919645 96.8837162,9.39706535 96.8837162,9.47222333 C96.7102948,9.53446871 96.5502928,9.5917477 96.4000974,9.64538467 C96.2184178,9.60764014 96.0398349,9.57055779 95.7564766,9.53546199 C95.8086063,9.37719981 95.9572533,9.21496452 95.7982836,9.0712704 C95.6945404,9.05769561 95.6331203,9.04114099 95.5980231,9.04676956 C95.2300185,9.102062 94.8666593,9.16132754 94.2989104,9.25171578 C94.8331105,9.28052082 95.1448562,9.29707544 95.4395695,9.31296788 C95.5185382,9.39640317 95.5856358,9.46725695 95.7564766,9.53546199 L95.7564766,9.53546199 Z" id="Fill-1" fill="#EBC41D" mask="url(#mask-2)"></path>
                </g>
                <path d="M38.0164142,1.5365028 C37.9709943,1.55272632 37.9328003,1.56630111 37.8951224,1.5798759 C37.9709943,1.59345069 38.0437694,1.61166078 38.1242865,1.61795153 C38.1521578,1.62026918 38.1980939,1.59345069 38.2362879,1.5798759 C38.1619644,1.56530784 38.0881571,1.55073977 38.0164142,1.5365028 M35.9704537,1.5365028 C35.9250338,1.55272632 35.8873559,1.56630111 35.8491619,1.5798759 C35.9250338,1.59345069 35.9978089,1.61166078 36.078326,1.61795153 C36.1061973,1.62026918 36.1521333,1.59345069 36.1903273,1.5798759 C36.1160039,1.56530784 36.0421965,1.55073977 35.9704537,1.5365028 M41.9870435,1.641128 C41.4972311,1.641128 41.0069025,1.641128 40.51709,1.64079691 C40.3663785,1.60404565 40.215667,1.5669633 40.0680523,1.53087422 C39.8455979,1.63152632 39.9895997,1.73184733 39.9653413,1.77786918 C39.8027587,1.87984565 39.7015962,1.94341539 39.5999175,2.00698514 C39.1343634,2.02089102 39.3464951,1.86329102 39.1457184,1.78184229 C38.4329355,1.6894675 37.9322842,1.90600195 37.3242767,1.98579522 C37.2437596,1.95699018 37.1637586,1.92818514 37.0631122,1.89242716 L35.9941959,1.89242716 C35.8140647,1.81031624 35.6060621,1.71496162 35.4439956,1.641128 L34.5474685,1.641128 C34.3869504,1.71363725 34.1779156,1.80832968 33.9441063,1.91427926 C33.6715868,1.8642843 33.4522293,1.82422212 33.2328717,1.78415993 C33.1523546,1.81296497 33.0723537,1.84177002 32.9717073,1.87785909 L31.9022748,1.87785909 C31.7226597,1.95997001 31.5146571,2.05499354 31.3531068,2.12915825 L30.2201897,2.12915825 C30.0643168,2.07221035 29.9053471,2.01426917 29.7319256,1.95103052 C29.8305075,1.91063724 29.9327023,1.8685885 30.0364455,1.82587758 C29.9347668,1.78515321 29.8274107,1.7417801 29.7205706,1.69873809 C29.8810887,1.6414591 30.0416068,1.58384901 30.2129638,1.52259691 L32.5789283,1.52259691 C32.7064137,1.48054818 32.8287378,1.43982381 32.9567393,1.39744398 L33.6235862,1.39744398 C33.7495232,1.35539524 33.8718473,1.31433978 33.981268,1.27758852 L35.3314781,1.27758852 C35.4651572,1.31864398 35.5823199,1.35473305 35.6979342,1.39015994 C35.9157433,1.31202213 36.11652,1.24017507 36.3126514,1.16998348 C36.6522685,1.10840028 36.8282706,1.19415322 37.028015,1.27063557 L38.0571889,1.27063557 C38.160416,1.23653305 38.2832562,1.19613978 38.4138385,1.15309776 C38.7529394,1.10840028 38.8928121,1.22097171 39.0997823,1.27195994 L39.7779842,1.27195994 C39.8662434,1.24050616 39.9467605,1.21170112 40.0690845,1.16799692 L40.8355456,1.16799692 C41.0290963,1.23719524 41.229873,1.3090423 41.4316819,1.38122045 C41.7480729,1.36367255 41.6020066,1.2653381 41.6737494,1.204086 C41.9498818,1.15342885 42.2285949,1.10210953 42.6120835,1.03158684 L43.5132558,1.03158684 C43.6324831,1.07065575 43.7522265,1.10972465 43.8719699,1.14912465 C44.0779079,1.07562213 44.2781684,1.00377508 44.4835903,0.930272556 C44.8164976,0.960401967 44.9537896,1.07628432 45.2159863,1.14780028 C45.4523763,1.0683381 45.6908309,0.988213731 45.9359952,0.905771716 L46.5858096,0.905771716 C46.72465,0.861736423 46.8485225,0.822336424 46.9796208,0.780618778 L51.0963165,0.780618778 C51.1381234,0.724333065 51.178382,0.669702814 51.2336085,0.595207017 C51.6083227,0.483628868 51.9871661,0.506805338 52.3386543,0.647188528 C52.5089789,0.610768361 52.6793036,0.574017101 52.8346603,0.540576766 C53.3141501,0.547860799 53.4328612,0.716055754 53.7946721,0.788233904 C53.8653826,0.715393569 53.9345448,0.644539789 54.0037069,0.574017101 C54.4568738,0.566070883 54.4568738,0.566070883 54.9126213,0.680959956 C55.0659135,0.648512898 55.247077,0.610437269 55.4736604,0.563091051 C55.5448871,0.583949874 55.6594691,0.618052395 55.7921159,0.656790209 C56.0181832,0.581301135 56.2535409,0.502832229 56.4894148,0.424363323 C56.6519974,0.482304498 56.8125155,0.539914581 56.9756143,0.598517941 C56.9957436,0.672020461 56.9348396,0.761415417 57.2703276,0.787902811 C57.7281397,0.801808693 57.8447862,0.627985167 58.1766613,0.547198615 L59.1929318,0.547198615 C59.3988698,0.586598614 59.525323,0.709764998 59.9046825,0.660763318 C60.0053288,0.583949874 60.1152657,0.500514582 60.2143637,0.424694415 C60.5983684,0.375030551 60.7196602,0.502170044 60.9565663,0.542563321 C61.7199305,0.582294412 62.2087107,0.34357677 62.9106548,0.296230552 C63.025753,0.33132635 63.1506577,0.36940198 63.269885,0.405822147 C63.4830489,0.362449039 63.7018903,0.31775156 63.9031831,0.277027192 C64.0910563,0.338941476 64.2144127,0.379665845 64.3310593,0.418403659 L64.9586799,0.418403659 C65.1702954,0.364104501 65.3421684,0.3204003 65.5259126,0.273385175 C65.7096568,0.322055762 65.8381745,0.356489375 66.003854,0.400524668 C66.1390814,0.370395257 66.3032125,0.334306182 66.4916019,0.292919628 C66.7594761,0.340596938 67.0402538,0.390591895 67.3504511,0.445884331 C67.4892915,0.342914585 67.6007768,0.260141478 67.7117459,0.177699462 L68.0637502,0.177699462 C68.1819452,0.217099462 68.3047854,0.257823831 68.4219481,0.296561645 L69.0996338,0.296561645 C69.1853123,0.265770049 69.2658294,0.236965007 69.3783469,0.196571731 C69.8330622,0.136644001 70.3362942,0.207828874 70.7595251,0.170415429 C70.9479145,0.227694419 71.0733354,0.265770049 71.2514021,0.319738115 C71.4294688,0.282986855 71.6111485,0.245242318 71.8841841,0.188625513 L74.3151816,0.188625513 C74.3415045,0.253850721 74.3636983,0.309143157 74.3838276,0.357813744 C74.3213752,0.379996937 74.2816328,0.406815424 74.2408581,0.407146517 C73.7913042,0.410126348 73.3417503,0.408801979 72.8225182,0.408801979 C72.6537419,0.380659122 72.5339985,0.252857444 72.1788974,0.298879292 C72.0581217,0.338941476 71.9352815,0.379665845 71.8093445,0.421383491 L69.7737066,0.421383491 C69.6906088,0.45118181 69.6100917,0.479655759 69.4640254,0.532299455 C68.8147271,0.563422144 68.0849117,0.524022144 67.365419,0.551171724 C67.2849019,0.579976765 67.2049009,0.608450714 67.0650283,0.658445671 L65.3602332,0.658445671 C65.2203605,0.70877172 65.1398434,0.737245669 65.0283581,0.777307853 C64.9189374,0.745854073 64.8053877,0.713075922 64.6588052,0.671027183 L63.6492445,0.671027183 C63.5584046,0.699832225 63.434016,0.739232224 63.2936272,0.78359861 L62.6417482,0.78359861 C62.5152951,0.825647348 62.392971,0.866371717 62.2742599,0.906102809 C62.1529681,0.865709532 62.0301279,0.824985163 61.8567064,0.767375081 C61.6832849,0.797835584 61.4943794,0.830944827 61.2156663,0.879615414 C61.1805691,0.870013734 61.0711484,0.840215415 60.9121787,0.796842307 L59.8107458,0.796842307 C59.6946154,0.856107852 59.5005485,0.955104488 59.3580951,1.02761373 L58.5312463,1.02761373 C58.4228578,0.991524656 58.3005338,0.950469194 58.175629,0.908751548 C57.3286509,0.908751548 56.4775437,0.908751548 55.6455335,0.925637262 C55.5892747,0.848161634 55.6145654,0.753469199 55.3162391,0.836242306 C55.4091435,0.864716255 55.5020479,0.893190204 55.6455335,0.925637262 C55.5856618,0.943185161 55.5639841,1.00245071 55.502564,1.00807928 C55.2919808,1.02794482 55.0674619,1.0289381 54.8372655,1.03721541 C54.7082317,0.998477597 54.5828108,0.96073306 54.4403574,0.917691044 C54.3335174,0.951131379 54.2158385,0.987551547 54.0847402,1.02860701 L53.3781509,1.02860701 C53.317763,0.966361631 53.2501493,0.896832221 53.1809872,0.825647348 C52.8207247,0.74552298 52.421752,0.800815416 52.0413603,0.788233904 C51.9608432,0.816707853 51.8808422,0.845512894 51.7327113,0.898487683 C51.5376122,0.903454069 51.2697379,0.910075918 51.0142509,0.916366674 C50.881088,0.957753228 50.7561833,0.996491042 50.6230203,1.0378776 L48.9569354,1.0378776 C48.7365456,1.11667759 48.5357689,1.18852465 48.2771851,1.28123053 L45.8905752,1.28123053 C45.752251,1.3305633 45.67225,1.35936835 45.5793456,1.39247759 L44.5532685,1.39247759 C44.452106,1.35903725 44.3292658,1.31897507 44.1702961,1.26699356 C44.1001017,1.34148935 44.0355848,1.41101876 43.9674549,1.48352801 C43.6046117,1.55504397 43.2097682,1.50736666 42.8396991,1.51498179 C42.7158267,1.47624397 42.5981478,1.43949271 42.4701462,1.39909944 C42.3323381,1.49213641 41.9705272,1.51663725 41.9870435,1.641128" id="Fill-4" fill="#EBC41D"></path>
                <path d="M26.4664404,1.88511002 L25.7484962,1.88511002 C25.6860438,1.9513285 25.6189462,2.02185119 25.5497841,2.09535371 C25.1848764,2.16355875 24.7931296,2.12051673 24.3631889,2.12448984 C24.3291239,2.07317052 24.2826718,2.01920245 24.2594457,1.96391001 C24.2424132,1.92417892 24.2104128,1.8596159 24.2635747,1.84604111 C24.5871916,1.76393019 24.4617707,1.5838159 24.8318398,1.51925288 C25.4310729,1.48713691 25.492493,1.80035035 26.1294041,1.76061926 C26.2305666,1.68579237 26.3415357,1.60368145 26.4530209,1.52090834 L26.8034768,1.52090834 C26.9196073,1.55865288 27.0408991,1.59838397 27.162707,1.63811506 C27.2432242,1.60931002 27.3232251,1.58050498 27.4125166,1.54872011 C27.7748436,1.48912347 28.1619451,1.52223271 28.5444014,1.52786128 C28.8107272,1.60831674 28.6331767,1.71724615 28.6930484,1.81789825 C28.794727,1.85729825 28.9072445,1.90133354 29.0197621,1.94503775 C28.9392449,1.96523438 28.8540826,1.98609321 28.7167906,2.02019573 C28.5134333,1.97847808 28.2868498,1.93179405 27.9880075,1.87021086 C27.8440057,1.90596884 27.6705842,1.94867976 27.4476138,2.0039722 L26.8210254,2.0039722 C26.7141854,1.96821422 26.5918613,1.92715875 26.4664404,1.88511002" id="Fill-6" fill="#EBC41D"></path>
                <path d="M22.2088399,2.12922446 L21.0067606,2.12922446 C20.7507575,2.03221438 20.481851,1.93056901 20.2170735,1.83057909 C20.5329484,1.76436061 20.5329484,1.76303624 21.0795357,1.77429338 C21.1440526,1.83984968 21.2132148,1.90971018 21.2849576,1.98288161 C21.5750257,1.97294884 21.6741237,1.87428329 21.8712874,1.82031523 L21.8712874,1.70112195 C21.9616111,1.68059422 22.0509025,1.66072868 22.2083238,1.62563288 C22.3549062,1.65940431 22.5298761,1.69946649 22.788976,1.75906313 C22.9469134,1.68191859 23.1378835,1.58821943 23.3371118,1.49087826 C23.5600823,1.57563792 23.7128583,1.6335791 23.8919573,1.70145304 C23.7639557,1.75111691 23.624083,1.80541607 23.4651133,1.86699926 C23.21582,1.87693203 22.9500103,1.88752699 22.6847167,1.89779086 C22.5427795,1.97957069 22.2062592,2.0097001 22.2088399,2.12922446" id="Fill-8" fill="#EBC41D"></path>
                <path d="M17.3831808,1.96828043 C17.4255039,1.90934598 17.4652463,1.85438464 17.5049887,1.79975439 C17.5849897,1.75505691 17.7295076,1.75869893 17.7331205,1.8123359 C17.74654,2.0003964 18.192481,2.07257455 18.4582907,2.19143673 L18.4582907,2.31990059 C18.0557051,2.4069779 17.6262805,2.37519303 17.2045979,2.35499639 C17.1271776,2.27851404 17.0554348,2.20832245 16.972337,2.12687371 C16.8278191,2.17157119 16.7111725,2.20766026 16.5924614,2.24441152 C16.3679425,2.19640312 16.381362,2.12588043 16.4660082,2.04708043 C16.7003337,1.95569892 17.0089826,2.0441006 17.3831808,1.96828043" id="Fill-10" fill="#EBC41D"></path>
                <path d="M78.8120625,0.115122993 C78.8120625,0.155847362 78.8120625,0.196240639 78.8120625,0.237627192 C78.4853488,0.362780131 78.0662469,0.27404736 77.6951456,0.298548199 C77.521208,0.341590215 77.3467542,0.384963324 77.1144933,0.442573407 C76.9410719,0.399200298 76.7686826,0.356158282 76.5498413,0.301196939 L75.9217045,0.301196939 C75.8133161,0.337617106 75.6915082,0.378341475 75.5697002,0.419065844 C75.4117628,0.362780131 75.2517608,0.305501141 75.0917589,0.24822215 C75.111372,0.233654083 75.1299529,0.207166689 75.1516306,0.206835596 C76.0977067,0.190280975 77.0448151,0.175712908 78.0022462,0.160813749 C78.2298618,0.0737364394 78.4678002,-0.0186383486 78.8120625,0.115122993" id="Fill-12" fill="#EBC41D"></path>
                <path d="M19.2048805,2.46270076 C19.2456552,2.15412261 18.7197133,2.07631589 18.4838394,1.93891254 C18.7217778,1.83428733 19.2611392,1.95712262 19.2343002,1.70284363 C19.4701741,1.86838985 19.6121113,1.96771758 19.7628228,2.07300497 C19.5300458,2.13458816 19.5094004,2.25643018 19.2048805,2.46270076" id="Fill-14" fill="#EBC41D"></path>
                <path d="M4.75071628,2.53140244 C4.80542663,2.55093689 4.96026723,2.60656042 5.1305919,2.66715034 L5.1305919,2.8131621 C4.86478219,2.90023941 4.57781093,2.84196714 4.28774286,2.86448142 C4.22941957,2.81713521 4.16903173,2.76813353 4.05599809,2.67608983 C4.27742016,2.63006798 4.51381015,2.58073521 4.75071628,2.53140244" id="Fill-16" fill="#EBC41D"></path>
                <path d="M14.3678664,2.3270853 L14.3678664,2.17610715 C14.4989648,2.16153909 14.6739347,2.11849707 14.7823231,2.13438951 C15.1105852,2.18206682 15.4130405,2.2525895 15.7712384,2.32344328 C15.2721355,2.39562143 14.8194848,2.39959454 14.3678664,2.3270853" id="Fill-18" fill="#EBC41D"></path>
                <g id="Group-22" transform="translate(81.605387, 0.030218)">
                    <mask id="mask-4" fill="white">
                        <use xlink:href="#path-3"></use>
                    </mask>
                    <g id="Clip-21"></g>
                    <path d="M0.445940948,0.0361693258 C0.556393915,0.0361693258 0.666330746,0.0361693258 0.857300828,0.0361693258 C0.894462574,0.128669326 0.935237267,0.229669326 0.970850606,0.317169326 C0.613684939,0.445669326 0.312261891,0.427669326 0,0.350669326 C0.0278713093,0.195669326 0.308132808,0.144669326 0.445940948,0.0361693258" id="Fill-20" fill="#DD9BA1" mask="url(#mask-4)"></path>
                </g>
                <path d="M12.1091548,2.01718279 C12.4152231,2.07843489 12.700646,2.13538278 12.9994883,2.19531051 C12.700646,2.28867858 12.4136747,2.23206177 12.1530263,2.25159623 C11.8990877,2.17047858 11.930572,2.08902984 12.1091548,2.01718279" id="Fill-23" fill="#EBC41D"></path>
                <path d="M3.20969094,3.15355822 C2.76323386,3.25222377 2.46129468,3.24626411 2.15729095,3.18997839 C2.36839031,3.10356327 2.36839031,3.10058344 3.20969094,3.15355822" id="Fill-25" fill="#EBC41D"></path>
                <path d="M22.2064657,2.12495337 C22.4124037,2.13025085 22.6136965,2.13554833 22.8232474,2.1411769 C22.8170538,2.26335001 22.5383407,2.29381051 22.4113714,2.36267774 C22.0423346,2.31798026 22.2751117,2.20706429 22.2064657,2.12495337" id="Fill-27" fill="#EBC41D"></path>
                <path d="M15.8838592,2.01354077 C15.7481156,2.00460127 15.597404,1.9946685 15.4425634,1.98440464 C15.4606282,1.86024497 15.8023098,1.84567691 15.875601,1.75363321 C16.1476043,1.84567691 16.1455398,1.92646346 15.8838592,2.01354077" id="Fill-29" fill="#EBC41D"></path>
                <path d="M87.7036812,1.09174633 C87.4244519,1.17153961 87.2355464,1.17584381 87.0363181,1.10962533 C87.1772231,0.977188354 87.3939999,1.01261524 87.7036812,1.09174633" id="Fill-31" fill="#EBC41D"></path>
                <path d="M10.6432788,2.19027791 C10.3640496,2.27007118 10.175144,2.27437539 9.97591579,2.2081569 C10.1168207,2.07571993 10.3335976,2.11114682 10.6432788,2.19027791" id="Fill-33" fill="#EBC41D"></path>
                <g id="Group-37" transform="translate(99.483865, 14.840889)">
                    <mask id="mask-6" fill="white">
                        <use xlink:href="#path-5"></use>
                    </mask>
                    <g id="Clip-36"></g>
                    <path d="M0.419604723,0.2235 C0.380378436,0.262 0.339087607,0.302 0.298312914,0.342 C0.260635033,0.322 0.185279271,0.297 0.191472895,0.2815 C0.209537632,0.2385 0.260635033,0.199 0.298312914,0.158 C0.335990795,0.1785 0.374184811,0.199 0.419604723,0.2235" id="Fill-35" fill="#DD9BA1" mask="url(#mask-6)"></path>
                </g>
                <g id="Group-40" transform="translate(99.480290, 16.183635)">
                    <mask id="mask-8" fill="white">
                        <use xlink:href="#path-7"></use>
                    </mask>
                    <g id="Clip-39"></g>
                    <path d="M0.472367079,0.25 C0.396495181,0.2705 0.323720096,0.298 0.243719116,0.3075 C0.215331671,0.311 0.169395624,0.2705 0.131201608,0.25 C0.207073505,0.2295 0.279848591,0.202 0.360365706,0.1925 C0.388237015,0.189 0.434173062,0.2295 0.472367079,0.25" id="Fill-38" fill="#DD9BA1" mask="url(#mask-8)"></path>
                </g>
                <path d="M9.29203644,21.204552 C9.12945381,21.1548881 9.03654944,21.1264142 8.94364508,21.0982713 C9.24145518,21.0154982 9.21668068,21.1098595 9.29203644,21.204552" id="Fill-41" fill="#EBC41D"></path>
                <g id="Group-45" transform="translate(80.429373, 0.000000)">
                    <mask id="mask-10" fill="white">
                        <use xlink:href="#path-9"></use>
                    </mask>
                    <g id="Clip-44"></g>
                    <path d="M0.307358605,0.239603255 C0.23561579,0.218103255 0.161808434,0.196103255 0.087484943,0.174103255 C0.125678959,0.153603255 0.171615006,0.113103255 0.200002451,0.116603255 C0.280003431,0.126103255 0.352778516,0.153603255 0.428650414,0.174103255 C0.390972533,0.194603255 0.352778516,0.215103255 0.307358605,0.239603255" id="Fill-43" fill="#DD9BA1" mask="url(#mask-10)"></path>
                </g>
                <path d="M79.3989084,0.678377435 C79.5377488,0.620105168 79.6167175,0.586995925 79.6962024,0.553555589 C79.9269149,0.660498444 79.6636859,0.651558949 79.3989084,0.678377435" id="Fill-46" fill="#EBC41D"></path>
                <path d="M85.4612279,0.786545332 C85.4989058,0.813694912 85.5500032,0.839851214 85.5680679,0.868325163 C85.5742615,0.878589028 85.4989058,0.895143649 85.4612279,0.908718439 C85.42355,0.88156886 85.3724526,0.855412558 85.3543879,0.826607516 C85.3481942,0.816674743 85.42355,0.800120122 85.4612279,0.786545332" id="Fill-48" fill="#EBC41D"></path>
                <path d="M85.6705208,1.43091742 C85.5079381,1.38125356 85.4150338,1.35277961 85.3221294,1.32463675 C85.6199395,1.24186364 85.595165,1.33622498 85.6705208,1.43091742" id="Fill-50" fill="#EBC41D"></path>
                <path d="M85.592894,1.36281171 C85.7554766,1.41247557 85.848381,1.44094952 85.9412854,1.46909238 C85.6429591,1.55186548 85.6682498,1.45750414 85.592894,1.36281171" id="Fill-52" fill="#EBC41D"></path>
                <path d="M88.5792016,1.62338145 C88.5074588,1.60914447 88.4336514,1.59457641 88.3593279,1.58000834 C88.3975219,1.56643355 88.443458,1.53961506 88.4713293,1.54193271 C88.5518464,1.54822347 88.6246215,1.56643355 88.7004934,1.58000834 C88.6628155,1.59358313 88.6246215,1.60715792 88.5792016,1.62338145" id="Fill-54" fill="#EBC41D"></path>
                <path d="M41.9480237,1.60692616 C42.1106063,1.65659002 42.2035107,1.68506397 42.2964151,1.71320683 C41.998605,1.79597993 42.0233795,1.70161859 41.9480237,1.60692616" id="Fill-56" fill="#EBC41D"></path>
                <path d="M86.4841565,1.88511002 C86.5218344,1.91225959 86.5729318,1.9384159 86.5909966,1.96688985 C86.5971902,1.97715371 86.5218344,1.99370833 86.4841565,2.00728312 C86.4459625,1.98013354 86.3953813,1.95397724 86.3773165,1.9251722 C86.3711229,1.91523943 86.4464787,1.89868481 86.4841565,1.88511002" id="Fill-58" fill="#EBC41D"></path>
                <path d="M11.2498927,2.17266379 C11.2106664,2.19815791 11.1693756,2.2246453 11.1286009,2.2511327 C11.090923,2.23755791 11.0155672,2.22133438 11.0217609,2.21107051 C11.0398256,2.18259656 11.090923,2.15644026 11.1286009,2.12929068 C11.1662788,2.14286547 11.2044728,2.15644026 11.2498927,2.17266379" id="Fill-60" fill="#EBC41D"></path>
                <path d="M93.8642728,3.18434982 C93.9034991,3.1588557 93.9447899,3.13236831 93.9855646,3.10554982 C94.0232425,3.11912461 94.0985982,3.13567923 94.0924046,3.1459431 C94.0743399,3.17441705 94.0232425,3.20057335 93.9855646,3.22772293 C93.9478867,3.21414814 93.9096927,3.20057335 93.8642728,3.18434982" id="Fill-62" fill="#EBC41D"></path>
                <path d="M6.74511491,3.36741083 C6.79053482,3.38363435 6.82872884,3.39720914 6.86640672,3.41078393 C6.79053482,3.42435872 6.71775974,3.44256881 6.63775876,3.44885956 C6.60937131,3.45117721 6.56343527,3.42435872 6.52524125,3.41078393 C6.59956474,3.39621587 6.6733721,3.3816478 6.74511491,3.36741083" id="Fill-64" fill="#EBC41D"></path>
                <path d="M1.45999208,4.12557938 C1.505412,4.10935585 1.54360601,4.09578106 1.58128389,4.08220627 C1.61896177,4.10935585 1.67005917,4.13551215 1.68812391,4.1639861 C1.69431754,4.17424997 1.61896177,4.19080459 1.58128389,4.20437938 C1.5405092,4.17756089 1.49921837,4.1510735 1.45999208,4.12557938" id="Fill-66" fill="#EBC41D"></path>
                <path d="M6.52529286,13.1145733 C6.58774524,13.0361044 6.36064568,12.9261817 6.72452111,12.8808221 C6.87420036,13.0423952 6.87420036,13.0423952 6.52529286,13.1145733" id="Fill-68" fill="#EBC41D"></path>
                <path d="M8.23034601,12.8094385 C8.15447412,12.8230133 8.08169903,12.8412234 8.00118192,12.8475142 C7.97331061,12.8498318 7.92737456,12.8230133 7.88918054,12.8094385 C7.96505244,12.7958637 8.03782753,12.7776537 8.11834464,12.7713629 C8.14621595,12.7690453 8.192152,12.7958637 8.23034601,12.8094385" id="Fill-70" fill="#EBC41D"></path>
            </g>
            <g id="" transform="translate(28.640000, 0.000000)" fill="#4F7F26" fill-rule="nonzero">
                <path d="M5.448,21.288 C5.448,21.288 6.288,21.288 6.576,20.76 C7.128,20.424 11.976,20.376 13.296,20.088 L14.52,20.4 L15.24,20.472 L15.72,20.4 C15.96,19.824 16.104,17.496 16.272,16.848 C16.344,16.296 16.44,12.528 16.44,12.528 C16.344,11.88 16.2,11.232 16.032,10.608 C15.792,9.96 15.624,9.312 15.384,8.76 C14.904,8.52 14.424,8.28 13.872,8.112 C13.296,8.04 7.536,7.92 7.536,7.92 L6.336,7.584 L6.576,6.624 C8.04,6.552 10.848,6.192 11.928,6.144 C13.056,6.096 14.664,6.264 15.72,5.856 C16.032,5.376 17.52,2.184 17.616,1.608 L17.448,1.056 C16.968,0.504 16.392,0.168 15.768,1.42108547e-14 C15.192,1.42108547e-14 14.712,1.42108547e-14 14.16,1.42108547e-14 C13.584,1.42108547e-14 9.696,0.264 8.568,0.384 L4.968,0.6 C4.32,0.696 3.768,0.84 3.216,1.08 L3.288,1.488 L4.08,2.136 C3.648,4.944 2.088,9.912 1.68,11.448 C1.272,12.96 0.648,14.304 4.54747351e-13,15.744 L0.216,16.44 C0.672,16.68 1.32,16.272 1.992,15.624 C2.4,15.048 3.6,13.176 4.08,12.072 C4.32,11.52 4.656,10.872 4.968,10.32 L5.208,10.32 L4.8,17.064 C4.728,17.712 4.56,18.336 4.488,18.912 L4.656,20.16 C4.8,20.544 5.04,20.952 5.448,21.288 Z M13.392,17.976 L12.264,18.144 C12.264,18.144 7.368,18.192 7.128,17.952 L7.536,16.44 L8.352,16.2 L13.368,16.464 L13.392,17.976 Z M13.224,14.544 L8.256,14.592 L7.704,14.352 C7.704,13.944 7.872,13.296 8.112,12.984 L12.336,13.032 L13.128,13.104 L13.224,14.544 Z M13.128,11.4 L7.704,11.28 L7.704,10.008 C8.112,9.768 12.408,9.72 12.408,9.72 C12.744,9.96 12.984,10.296 13.128,10.68 L13.128,11.4 Z M8.496,4.704 L6.744,4.776 C6.816,4.368 6.888,2.616 7.224,2.28 L9.384,2.208 C9.384,2.208 8.904,4.368 8.496,4.704 Z M11.592,4.176 C11.76,3.768 12.192,1.944 12.192,1.944 L14.208,1.944 C14.112,2.592 13.944,3.72 13.704,4.272 C12.24,4.416 11.928,4.344 11.592,4.176 Z" id="Shape"></path>
                <path d="M38.184,20.232 C38.832,20.232 39.48,20.232 40.104,20.112 C40.68,20.112 41.232,20.04 41.808,19.872 C42.192,19.704 42.432,19.488 42.6,19.104 C42.6,18.624 42.6,18.144 42.528,17.712 C42.432,17.304 42.408,17.016 42.312,16.128 C42.24,15.12 41.688,14.496 41.4,14.136 C41.112,13.776 40.92,13.728 40.512,13.8 C40.296,14.28 39.624,15.84 39.384,16.32 C39.144,16.824 38.76,17.256 38.352,17.664 L38.112,17.808 C37.464,17.736 36.816,17.736 36.192,17.664 C35.544,17.664 34.968,17.568 34.416,17.328 C33.936,17.088 33.528,16.752 33.288,16.248 C33.288,15.576 33.456,15 33.696,14.448 C34.344,14.064 35.064,13.896 35.856,13.896 C36.576,13.968 37.392,13.896 38.112,13.728 C38.832,13.656 39.48,13.392 40.104,13.152 L40.656,12.864 L41.088,12.456 L40.992,11.544 C40.68,11.136 40.272,10.992 39.72,11.064 L38.52,11.232 C36.768,11.544 35.448,11.736 34.968,11.736 C34.488,11.808 34.104,11.736 33.696,11.496 C33.624,10.728 33.768,10.152 34.104,9.552 C34.488,9.072 35.064,8.808 35.688,8.712 C36.264,8.64 36.816,8.568 37.392,8.328 L37.944,7.752 L37.704,7.224 C37.296,6.816 36.912,6.552 36.336,6.552 C35.784,6.624 34.872,6.552 34.32,6.552 C34.368,5.712 34.728,4.872 34.968,4.272 L35.448,4.44 L36.576,4.344 C36.912,4.272 37.152,4.056 37.224,3.72 L37.344,2.112 C36.96,1.872 36.48,1.632 36.072,1.56 C35.592,1.488 35.112,1.32 34.704,1.056 C34.224,1.248 33.744,1.32 33.168,1.248 C32.088,1.608 31.536,1.704 31.128,1.944 C30.6,2.568 30.096,3.144 29.688,3.456 C29.184,3.816 28.536,4.32 28.128,4.656 C27.72,4.968 27.312,5.304 26.928,5.616 C27,5.832 27.24,5.952 27.648,6.024 L28.608,5.832 L30.168,5.952 L30.48,6.36 L30.312,6.888 C29.928,7.056 29.448,7.128 28.968,7.224 C28.392,7.296 27.912,7.368 27.432,7.464 C26.952,7.536 26.472,7.632 25.896,7.536 L25.512,7.944 L25.632,8.496 L27.744,9.552 L29.592,9.456 L29.928,9.888 L29.688,11.808 C29.208,12.048 27.432,12.072 26.208,12.144 L25.272,11.64 L24.624,11.64 L24.144,12.192 L24.312,13.176 C24.552,13.488 24.792,13.728 25.104,13.896 C25.416,14.136 25.752,14.304 26.064,14.448 L28.392,14.208 L29.352,14.304 C29.448,14.736 29.592,15.24 29.76,15.648 C29.928,16.08 30.168,16.464 30.48,16.848 C30.792,17.28 31.056,17.688 31.296,18.12 C31.848,18.744 32.568,19.248 33.288,19.488 C34.008,19.704 34.824,19.872 35.688,19.968 C36.576,20.04 37.392,20.112 38.184,20.232 Z" id="Path"></path>
            </g>
        </g>
    </g>
</svg>