<svg width="99.953" height="27.397" xmlns="http://www.w3.org/2000/svg" xmlns:xlink="http://www.w3.org/1999/xlink">
    <defs>
        <path id="a" d="M0 0h97.962v22.47H0z"/>
        <path id="c" d="M0 .026h.971v.448H0z"/>
        <path id="e" d="M.047 0h.422v.5H.047z"/>
        <path id="g" d="M.044 0h.428v.5H.044z"/>
        <path id="i" d="M0 .072h.516v.356H0z"/>
    </defs>
    <g fill="none" fill-rule="evenodd">
        <g transform="translate(0 4.927)">
            <mask id="b" fill="#fff">
                <use xlink:href="#a"/>
            </mask>
            <path d="M87.628 2.166a12.72 12.72 0 0 1-.12-.078c-.039.013-.114.03-.108.04.018.028.07.055.107.082l.121-.044Zm-76.67 18.048c-.038-.014-.084-.04-.112-.039-.08.007-.153.025-.229.039.038.013.084.04.112.038.08-.007.153-.025.229-.038Zm85.536-1.692-.122-.078c-.037.013-.112.03-.106.04.017.028.069.055.106.082l.122-.044Zm-72.579-.017c-.038-.014-.084-.04-.112-.039-.08.007-.153.025-.229.039.038.013.084.04.112.038.08-.006.153-.025.23-.038Zm72.238-.506-.121-.044c-.039.028-.09.054-.107.082-.006.01.068.027.107.04l.12-.078Zm-88.044-.672.121-.043c-.076-.014-.148-.032-.228-.038-.029-.002-.075.024-.113.038l.22.043Zm88.555-.121.22-.044c-.038-.013-.084-.04-.112-.038-.08.006-.154.025-.229.038l.121.044Zm-7.33-1.003-.122-.078c-.038.013-.113.03-.107.04.018.028.07.055.107.082l.121-.044Zm-68.878-.61-.12-.079c-.039.014-.114.03-.108.04.018.03.069.055.107.082l.121-.043Zm-13.98-.768-.12-.043c-.04.027-.09.053-.108.082-.006.01.069.026.107.04l.121-.079Zm.682-.122-.121-.043c-.038.027-.089.053-.107.082-.006.01.069.026.107.04l.121-.079Zm87.802-.514-.122.044c.076.013.149.031.229.038.028.002.074-.025.112-.038l-.22-.044Zm.39-.506c-.038.014-.113.03-.107.04.018.03.069.055.106.082.038-.013.113-.03.107-.04-.017-.028-.069-.054-.107-.082Zm-5.676.079-.121-.079c-.038.014-.113.03-.107.04.018.03.069.055.107.082l.121-.043Zm7.088-.34.122-.044c-.076-.013-.149-.032-.229-.038-.028-.002-.074.025-.112.038.074.015.148.03.22.043Zm-1.072-1.203c-.037.013-.113.03-.106.04.018.029.069.055.106.082.038-.014.113-.03.107-.04-.018-.03-.068-.055-.107-.082Zm-89.214-.933-.12-.044c-.04.027-.09.053-.108.082-.006.01.069.027.107.04l.121-.078Zm87.972-2.442-.121-.043c-.038.027-.089.053-.107.082-.006.01.069.026.107.04l.12-.079Zm-5.528-.27-.22.044c.039.014.085.04.112.038.08-.006.154-.024.23-.038a15.624 15.624 0 0 1-.122-.044ZM7.67 8.54l.22-.043c-.039-.014-.085-.04-.113-.038-.08.006-.153.024-.229.038l.122.043Zm2.386-.366.22-.043c-.037-.014-.084-.04-.112-.038-.08.006-.153.024-.229.038l.121.043ZM5.332 7.092c-.038.014-.113.03-.107.04.018.029.069.055.107.082.038-.013.113-.03.106-.04-.017-.029-.068-.055-.106-.082Zm68.316-1.543-.121-.044c-.038.028-.089.054-.107.082-.006.01.07.027.107.04l.121-.078Zm-1.485-.044c-.038.014-.113.03-.106.04.018.03.068.055.106.082.038-.013.113-.03.107-.04-.018-.028-.069-.054-.107-.082Zm20.41-.226-.122.043c.076.014.149.032.23.038.027.003.073-.024.111-.038-.074-.014-.148-.03-.22-.043Zm2.436.583c-.221.11-.32.189.05.239.184-.071.173-.139-.05-.239ZM16.523 21.4c.07.06-.342.158.114.201.182-.07.17-.137-.114-.201Zm79.509-1.614c-.246.082-.246.163 0 .245.244-.082.244-.163 0-.245Zm-68.051-2.38c.31.079.526.115.667-.018-.2-.066-.388-.062-.667.018Zm68.588-4.882c-.31-.08-.527-.115-.667.018.199.066.388.062.667-.018Zm-92.942-.062c-.245.082-.245.164 0 .245.245-.081.245-.163 0-.245Zm7.16-.61c.245-.081.245-.162 0-.244-.244.082-.244.163 0 .245Zm-5.796-.732c-.245.082-.245.163 0 .244.245-.081.245-.162 0-.244Zm1.129-.35-.216.004c-.02.054-.049.109-.055.163 0 .014.083.042.109.039.08-.008.212-.027.215-.043.01-.054-.032-.108-.053-.162Zm81.728-3.668c.22-.111.32-.19-.05-.24-.185.072-.173.14.05.24Zm6.648-.56a.921.921 0 0 0 .684 0 .925.925 0 0 0-.684 0ZM1.922 5.882c.22-.111.32-.189-.05-.24-.185.072-.173.14.05.24ZM20.48 17.1c.264 0 .322.005.372-.001.096-.01.188-.027.28-.04-.04-.028-.068-.06-.124-.083-.105-.042-.226-.078-.412-.142l-.116.266ZM9.083 14.78c-.286.124-.286.246 0 .37.285-.124.285-.246 0-.37ZM80.365.495c-.262.086-.263.168-.022.25.148-.07.411-.107.464-.221l-.442-.03ZM96.39 17.339c-.262.087-.264.168-.022.25.148-.07.411-.106.463-.221l-.441-.03Zm-2.581-5.06a1.78 1.78 0 0 0 1.033 0 1.785 1.785 0 0 0-1.033 0ZM8.477 17.542c.842.054.841.05 1.052-.036-.303-.056-.606-.062-1.052.036Zm85.706-7.983c.064.043.094.073.146.097.1.045.212.086.32.13.263-.092.264-.172-.005-.258l-.461.031ZM5.19 17.118l.674-.046-.12-.228-.554.038v.237Zm18.753-.854.675-.046-.12-.229-.555.039v.236Zm-3.44-7.645c.333.101.669.097.968.018l-.412-.218-.557.2ZM4.82 6.916c.23.071.457.085.701-.017l-.103-.182-.598.044v.155Zm.65 10.745c.266.023.3.149.606.153.116-.233.11-.233-.113-.329l-.493.176ZM7.889 3.126c.23.086.458.09.702-.011l-.103-.183-.599.045v.149Zm12.082 11.063c-.16.477-.158.477.116.58.115-.16.137-.309-.116-.58Zm-12.49.525c.456.1.763.08 1.109.013l-.38-.136-.729.123Zm13.972-.202c-.253.03-.416.039-.539.069-.061.015-.047.069-.084.134l.622.159c.21-.068.06-.183 0-.362ZM8.54 14.16c-.4.032-.692-.027-.995.071l.097.19c.338-.025.629.034.898-.054v-.207Zm-3.973-.15-.339-.11c-.181-.127.039-.232-.257-.34-.166.061-.344.12-.592.218.63-.018.274.18.608.273l.58-.041Zm-.258.275c-.275.117-.16.22-.16.314s-.115.197.144.307l.589-.038-.319-.12c-.19-.164.058-.309-.254-.463Zm18.974-5.738-.114-.212c-.363-.017-.69-.072-.977.046l.089.166h1.002ZM10.257 20.69c.68.237.734.243 1.042.133v-.12l-.952-.174-.09.16Zm78.9-9.947c-.156.6-.156.6.12.72.034-.015.1-.03.101-.045a8.37 8.37 0 0 0-.001-.603c0-.013-.078-.026-.22-.072Zm5.192-5.492c.018 0-.238.012-.193.157.155.1.329.194.685.22.295.006.34-.064.34-.204l-.832-.173Zm.174 5.119c.31-.225.695-.208 1.012-.287l-.138-.213c-.316.065-.62-.023-.874.079v.42Zm-5.513-8.1c.138-.043.26-.081.57-.18-.543.03-.88-.073-1.219.057v.079l.502.25.563-.076-.416-.13Zm-78.394 8.788c.062.095-.118.202.127.29.601-.099.618-.332.917-.494l-.2-.098-.844.302Zm81.335-7.022c-.29.085-.272.233-.157.28.326.138.267.38.898.43.404-.15-.155-.2-.261-.323V4.24l-.48-.203ZM20.845 16.434c.047-.17-.28-.239-.636-.317l-.431.066c.14.137-.081.279.155.41l.912-.16ZM6.068 7.106l.441-.2-.324-.127c-.007-.303-.007-.303-.246-.393-.032.016-.091.03-.091.046-.006.279-.006.557 0 .836 0 .015.064.03.155.068l.582-.033-.517-.197Zm-.384 7.313.323-.245c.298-.023.603.041.844-.058-.378-.066-.77-.122-1.023-.252a.706.706 0 0 0-.269-.055c-.13.002-.259.03-.4.049l.358.152c.155.132-.233.29.167.41ZM74.9 5.413c-.618.038-.387.305-.85.405-.04.009-.144.156.22.154l.587-.21.47-.034.107-.178-.534-.137ZM6.525 9.07v.483l.49.336c.19.01.411.041.495-.064l-.25-.09c.192-.11.402-.232.274-.363-.117-.119-.352-.223-.526-.33-.15.01-.255.015-.483.028Zm.612-.51c.008-.182-.006-.198-.238-.326v-.478c.419-.199.428-.233.108-.286a62.09 62.09 0 0 1-.247.088l-.567.35v.303l.487.34.457.008ZM8.2 11.193c.073-.174-.302-.198-.292-.263.018-.12-.192-.174-.376-.245a.985.985 0 0 0-.57-.028c-.18.068-.075.15-.092.226a.507.507 0 0 0 .001.237c.02.075-.105.16.14.233h.713l.476-.16Zm.936 5.431.451-.201v-.241l-.606-.217-.205-.218-.517.036v.534l.325.116v.543l1.008-.175-.456-.177ZM88.36 5.688c0-.162.002-.324-.006-.486-.001-.014-.078-.027-.154-.051h-.406l-.235.236-.384-.118c-.51.124.095.214.09.323l-.27.096c.21.048.28.15.564.165l.324-.116.532.198a33.34 33.34 0 0 0-.157.151c-.325.067-.634-.022-.966.107l.624.167c.624-.004.624-.004.792-.064-.038-.168.031-.347-.02-.49l-.328-.118ZM22.892 16.235v-.534l-.326-.127.314-.13c-.766-.125-.766-.125-1.216-.426l-.439.04v.653l.635.227c.073.094-.103.2.144.297h.888ZM6.528 12.59c.068.124-.754.188-.175.36l.419-.016.226-.233.514.03-.255.183c.239.06.433.053.61-.013l.023-.121c.378-.065.777-.121 1.005-.261l-.3-.108v-.48l-.53-.2h-.363l-.34-.256-.495.051c0 .215.006.417-.01.618-.001.022-.129.042-.197.063l-.278-.1c-.108.033-.206.074-.332.097-.18.032-.451-.005-.547.096l.03.114.995.176Zm15.512 4.887c.606-.028 1.061.026 1.464-.032l.266-.283.56.286 2.539-.001c.037 0 .073-.028.16-.062l-.965-.063-.612-.22H23.76c-.481-.141-.713-.332-.875-.54-.023-.029-.154-.047-.204-.061h-.673l-.429.16.575.4-.276.1.672.116c-.118.046-.226.089-.244.177-.264.027-.528.018-.297.125.08-.033.159-.067.032-.102ZM92.412 3.152c.076.095.05.19.349.107-.093-.029-.186-.057-.31-.011v-.242l.364-.14-.112-.153h-.824c-.18.107-.097.205-.08.3.162.059.322.116.613.139ZM24.9 16.822c.076.095.05.19.349.107-.093-.028-.186-.057-.298-.072l-.053-.246-.695.027.168.219c.244 0 .406 0 .53-.034Zm68.614-6.766c-.076-.095-.05-.19-.349-.107.093.028.186.057.31.073.202.124.202.124.653.07-.126-.13-.434-.048-.614-.036Zm2.685 4.238c.353-.073.353-.073.197-.24-.301.057-.156.158-.098.226-.264.027-.528.018-.297.125.08-.034.159-.067.198-.11Zm-69.175 3.573c-.076-.094-.05-.189-.349-.106.093.028.186.057.308.071.203.126.203.126.674.07-.163-.107-.445-.055-.633-.035Zm-17.05.123c-.075-.095-.05-.19-.347-.107.093.028.186.057.309.072.062.079-.165.189.2.234.149-.161.149-.161-.161-.2Zm-3.448.698c.095-.014.258-.021.27-.042.047-.072-.104-.085-.27-.08-.062-.079.166-.189-.2-.234-.148.161-.148.161.2.234v.122c-.094.013-.257.021-.27.04-.046.074.105.086.27.082.063.078-.165.188.2.233.15-.161.15-.161-.2-.233v-.122Zm89.231-9.153c.15.114-.002.239.22.347.282-.02.456-.192.908-.046 0 .152.002.332-.002.511a.198.198 0 0 1-.043.116c-.014.017-.076.029-.178.065l-.188-.362-.427-.026c-.626.182.385.267.134.436l-.669.113c.221.108.53.049.815.067l.367-.112c.06.022.176.045.182.07.028.118-.063.24.283.33.08.02.033.104.042.15-.282.093-.578.019-.813.053-.226-.076-.382-.178-.79-.095l-.108.148.71.12v.134l-.677.115c.246.105.552.041.846.064l.338-.253.49.187-.305.127v.36l.222.086c.037.034.104.069.107.104.012.142.005.284.005.43l-.763.13.652.067c.037.042.062.12.168.178.117.065.339.107.242.266l-.433.14h-.817l-.147-.354c-.262.125-.262.125-.257.547.279.05.558.102.875.16l.662-.22c.049.017.123.031.124.046.008.161.005.322.005.477l.366.145v.276l-.397.244c-.613.077-.768-.226-1.243-.055-.018.091.258.107.382.194l.774.019c.146.082.478.114.494.274-.201.153-.76.243-1 .4v.243l.29.104.052.396c.243.03.44.056.666.085l-.345.138.387.15-.662.472.244.11v.24l-.3.124.321.127v.24l-.333.127c-.135.132.236.173.368.29l-.345.228v.49c-.08.152-.496.185-.356.325l.308.127-.323.126v.2l-.488.336-.358.012a298.7 298.7 0 0 1-.332-.246c-.268.115-.266.297-.719.354a138.4 138.4 0 0 0-.342-.1c-.492.154.076.208.183.318l-.64.068-1.16.436c-.691.028-.957.256-1.442.389h-1.354l-.627.23h-1.483l-.215-.21c-.325.036-.448.178-.727.208-.278.03-.518.055-.687.138h-2.397l-.225.082c-.056.016-.1.039-.142.039-.566.002-1.131.001-1.685.001-.273.156-.666.13-1.055.108l-.241-.086c-.049-.007-.096-.02-.146-.02-.17-.003-.34-.004-.51 0-.163.003-.419-.008-.472.023-.308.181-1.043.01-1.296.214l-.538-.143-.539.148h-1.874c-.054.001-.108.006-.162.008l-.28.1h-1.084l-.347-.098-.273.098h-4.514l-.292-.104h-3.41c-.109.035-.23.077-.353.117l-.24-.086c-.099-.011-.199-.032-.3-.033-.621-.003-1.243-.002-1.843-.002l-.302.109H60.53l-.27-.097h-2.11l-.29.104-.366-.112h-1.008l-.354.117-.3-.107h-1.341l-.505-.156-.663.132h-3.708c-.14-.011-.236-.157-.624-.107l-.352.112-.359-.117h-.662l-.428-.14-.763.135H45.24l-.328.118h-1.693l-1.15-.232h-1.25l-.374-.122-.24.086c-.045.011-.088.032-.132.032-2.383.002-4.766.001-7.101.001l-.385.114a69.987 69.987 0 0 1-.265-.094l-.641.124-.44-.141h-1.007l-.36.118h-.669l-.355-.116h-1.71l-.29.105h-1.391l-.398-.113h-3.712l-.317-.113h-3.38l-.394-.127c-.59-.002-1.202 0-1.953-.001l.396-.18-.283-.12c.056-.07.372-.089.149-.281-.056-.052.127-.014.15.033.071.138.197.034.413.008-.212-.093.154-.222-.242-.31-.16.058-.32.115-.321.269-.004.093-.172.093-.338.093l-.417-.139-.168.346c-.053.014-.095.036-.139.036-.56.002-1.12.001-1.548.001a763.87 763.87 0 0 0-.948-.173l1.067-.247c-.785-.084-.785-.084-2.088.177-.447-.01-.578-.17-.838-.232l-.58-.045.33-.144c-.117-.127-.628-.155-.647-.312h.512c.29-.075.126-.185.178-.293l-.482-.187H8.102l-.556-.19v-.257l-1.303-.211c.026-.193-.184-.385-.49-.524-.339-.153-.596-.323-.932-.497v-.544l-.991-.685v-.473l1.38-.226-1.427-.363v-.255l-.634-.227v-.764l.62-.078c-.077-.117-.346-.07-.523-.099-.251-.08-.072-.19-.133-.286l-.66-.248c-.115-.134.197-.185.374-.286l-.328-.212.239-.107c.025-.129.2-.28-.295-.35v-.264l.326-.125-.345-.132v-.233l-.314-.128v-.856l.317-.113v-.367l.359-.128v-.745l.647-.085c-.195-.198-.771-.201-1.143-.303-.429-.118-.432-.319-.853-.438v-.618l.297-.127v-.24l-.315-.127v-.375c.119-.015.26-.035.405-.05.173-.019.308-.046.269-.113.316-.097.305.176.649.068v-.516l-.27-.097c-.145-.224.106-.465-.157-.704l-.538.193c.104.082.444.125.31.25l-.33.125.336.128v.553c-.17-.01-.34-.01-.512-.01l-.496-.178v-.611l.32-.128v-.378L.84 6.339c-.037-.035-.105-.07-.106-.106-.01-.223-.005-.446-.005-.667l-.307-.11-.056-.24-.366-.2.431-.241-.334-.187c.198-.137.551-.031.84-.046l.604.217c.397-.046.133-.164.226-.26l-.32-.156v-.277c.16-.009.333-.036.467-.02.14.016.242.073.36.113.282-.081.106-.191.163-.29l-.329-.131.33-.13v-.362l.486-.174c.603.163-.303.252-.117.422l.405.158.823-.122c.21-.128.053-.272.112-.408.396-.138.844-.01 1.313-.08l.07.46c.224.094.53.03.804.052l.721-.246c.23.002.471.013.5-.149-.067-.033-.19-.095-.316-.16l.297-.119-.313-.127.576-.206.61.313.272-.263c.22.04.44.08.742.133l.25-.246c.176-.074.48-.01.752-.03l.369.122h.35l.364-.277.683.14.275-.098.358.102.337-.102c.197.02.248.134.506.096.055.078.03.172.328.09a4.113 4.113 0 0 0-.328-.09c.06-.018.099-.052.149-.096h.992l.405-.122.344.108.702-.234.29.104h1.014c.125-.028.305-.07.523-.118l.667.13c.482.002.552-.191.93-.237.338-.052.46.075.664.11h.685l.283-.101.555.122.566-.132h1.61l.377-.123.693.235c.39.05.49-.093.846-.127l.528.111.29-.214.35-.01.37.121h.67l.42-.136.17.356c.476.016.108-.167.48-.205l.69-.028.256-.226.383.114h1.691l.355-.116h3.727l.37-.12.299.107.402-.107h2.043l.144-.126h.844l.36.119.307-.11h3.069c.137-.05.218-.078.336-.12l.358.1.356-.106h.64l.384-.125h.669l.36.117c.08-.03.16-.058.297-.107l1.084-.022.98-.35.668.222 1.1-.21.24.085.588-.119.532.136h.612l.373.122.609-.218c.357.015.42.163.795.194l.3-.093h2.357l.43-.144.76.272 1.935-.357.395.13.605-.308.285.274.679.012.79-.251c.678.028.714.233.973.36l.807-.281.107-.172c.383-.064.574.008.75.091h.706l.355-.116h.799l.568.283.277-.272h.771l.284.102.346-.102c.225.033.347.158.747.101l.184-.196c.24-.08.538-.016.8-.042l.241-.086c.1-.012.201-.03.303-.032.393-.003.786-.001 1.153-.001l.288.103L75.343.14h2.905l.45-.141.796.135.126.11h1.124l.239-.236.39.123c.482.013.986-.013 1.4.01.426.197-.535.281-.128.449.124.022.124.022.9-.27l.148-.187.483.02c.371.207-.634.306-.18.533l-.565.186-.296-.106c-.345.024-.433.162-.734.206-.158.028-.417-.013-.487.09.052.018.092.045.133.045.68.002 1.361.001 2.091.001l.197-.207a.96.96 0 0 1 .6.018l-.319.132 1.41.253-.661.085c.127.23.856.187 1.168.33.267.022.398-.049.578-.095.16-.04.379-.052.582-.077l-.382-.15.147-.173.735.246.339-.103.5.162c.068.108-.112.217.172.31.112-.08.217-.158.313-.23l.714.145 1.517.542.147.164.391-.127.632.226c.246.154.362.217.448.284.087.068.145.14.232.228l.73-.248.379.123h.71l.127.162-.357.138.35.137c-.222.029-.456.038-.608.082-.183.054-.337.09-.586.094-.08 0-.151.088-.186.11.035.186.462.094.654.168.168.065.455.091.699.136v.244c-.07.068-.383.087-.327.203-.204-.041-.368-.086-.566-.139l-.136.153.63.302c.045-.178.064-.254.072-.316.092 0 .238.005.277.03.123.082.207.171.384.325v.396l.432.21-.4.192.215.07c.042.042.105.078.106.113.009.263.005.525.005.77l-.357.173c.068.174.503.198.668.434v.963l.334.151-.287.127v.347l-.335.136c.37.09.3.277.641.386.112.035.018.153.018.228l-.484.173a7.112 7.112 0 0 0-.644-.11c.053-.158.201-.32.042-.464-.103-.013-.165-.03-.2-.024-.368.055-.731.114-1.3.205l1.142.061a.766.766 0 0 0 .316.222Z" fill="#EBC41D" mask="url(#b)"/>
        </g>
        <path d="m38.016 5.934-.12.043c.075.014.148.032.228.038.028.003.074-.024.112-.038l-.22-.043m-2.046 0-.12.043c.075.014.148.032.228.038.028.003.074-.024.112-.038l-.22-.043m6.017.104h-1.47l-.449-.11c-.222.1-.078.201-.103.247l-.365.23c-.466.013-.254-.144-.454-.226-.713-.092-1.214.124-1.822.204l-.26-.093h-1.07l-.55-.252h-.897l-.603.274-.711-.13-.261.093h-1.07l-.549.251H30.22l-.488-.178.304-.125-.315-.127.492-.176h2.366l.378-.125h.667l.357-.12h1.35l.367.112.615-.22c.34-.061.515.024.715.1h1.03l.356-.117c.339-.044.479.068.686.12h.678l.291-.105h.767l.596.213c.316-.017.17-.115.242-.177l.938-.172h.901l.359.117.612-.218c.332.03.47.146.732.217l.72-.242h.65l.394-.125h4.116l.138-.186a1.661 1.661 0 0 1 1.105.052l.496-.106c.48.007.598.175.96.247l.209-.214c.453-.008.453-.008.909.107l.56-.118.32.094.696-.232.487.174c.02.073-.041.163.294.19.458.013.575-.16.907-.242h1.016c.206.04.332.163.712.114l.31-.236c.383-.05.505.077.742.118.763.04 1.252-.2 1.954-.247l.359.11.633-.129.428.142h.628c.211-.055.383-.098.567-.145l.478.127.488-.108.858.153.362-.268h.352l.358.119h.678l.278-.1c.455-.06.958.011 1.382-.026l.491.149.633-.131h2.431l.069.17c-.063.021-.102.048-.143.048-.45.003-.9.002-1.418.002-.17-.028-.289-.156-.644-.11-.12.04-.244.08-.37.123h-2.035l-.31.11c-.65.032-1.38-.008-2.099.02l-.3.107H65.36l-.332.119-.37-.107H63.65c-.09.03-.215.068-.355.113h-.652l-.368.122-.417-.138-.641.112-.304-.083h-1.101l-.453.23h-.827l-.355-.118c-.847 0-1.698 0-2.53.017-.057-.078-.031-.172-.33-.09.093.029.186.057.33.09-.06.017-.082.077-.143.082-.211.02-.436.021-.666.03l-.397-.12-.355.11h-.707l-.197-.202c-.36-.08-.76-.025-1.14-.038l-.308.11-.719.019-.391.121h-1.666l-.68.243h-2.386l-.312.112h-1.026c-.1-.034-.224-.074-.383-.126l-.203.217c-.362.071-.757.024-1.127.031l-.37-.116c-.138.093-.5.118-.483.242M26.466 6.282h-.718l-.198.21c-.365.069-.757.026-1.187.03-.034-.052-.08-.106-.104-.16-.017-.04-.049-.105.005-.119.323-.082.198-.262.568-.326.6-.033.66.28 1.297.24l.324-.239h.35l.36.117.25-.089c.362-.06.749-.027 1.131-.02.267.08.09.188.149.29l.327.126-.303.075-.729-.15-.54.134h-.627l-.355-.119M22.209 6.526h-1.202l-.79-.298c.316-.066.316-.068.863-.056l.205.208c.29-.01.39-.108.586-.162v-.12l.337-.075.581.133.548-.268.555.21-.427.166-.78.031c-.142.082-.479.112-.476.231M17.383 6.366l.122-.169c.08-.045.225-.041.228.013.014.188.46.26.725.379v.128c-.402.087-.832.055-1.253.035l-.233-.228-.38.118c-.224-.048-.21-.119-.126-.198.234-.091.543-.003.917-.078M78.812 4.512v.123c-.327.125-.746.036-1.117.06l-.58.145-.565-.142h-.628l-.352.118-.478-.17c.02-.015.038-.042.06-.042l2.85-.046c.228-.087.466-.18.81-.046M19.205 6.86c.04-.309-.485-.386-.721-.524.238-.104.777.018.75-.236l.529.37c-.233.062-.254.184-.558.39M4.75 6.929l.38.135v.146c-.265.087-.552.03-.842.052l-.232-.189.695-.144M14.368 6.724v-.15c.131-.015.306-.058.414-.042.329.047.631.118.99.189-.5.072-.953.076-1.404.003" fill="#EBC41D"/>
        <g transform="translate(81.605 4.427)">
            <mask id="d" fill="#fff">
                <use xlink:href="#c"/>
            </mask>
            <path d="M.446.036h.411l.114.281C.614.446.312.427 0 .351.028.196.308.145.446.036" fill="#DD9BA1" mask="url(#d)"/>
        </g>
        <path d="m12.11 6.414.89.179c-.3.093-.586.036-.847.056-.254-.081-.222-.163-.044-.235M3.21 7.55c-.447.1-.749.094-1.053.037.211-.086.211-.09 1.053-.036M22.206 6.522l.617.016c-.006.123-.285.153-.412.222-.369-.045-.136-.156-.205-.238M15.884 6.41l-.441-.028c.018-.125.36-.14.433-.231.272.092.27.173.008.26M87.704 5.489c-.28.08-.468.084-.668.018.141-.133.358-.097.668-.018M10.643 6.588c-.279.08-.468.084-.667.017.14-.132.358-.097.667-.017" fill="#EBC41D"/>
        <g transform="translate(99.484 19.238)">
            <mask id="f" fill="#fff">
                <use xlink:href="#e"/>
            </mask>
            <path d="M.42.224.298.342C.261.322.185.297.191.282.21.238.261.198.298.157L.42.224" fill="#DD9BA1" mask="url(#f)"/>
        </g>
        <g transform="translate(99.48 20.58)">
            <mask id="h" fill="#fff">
                <use xlink:href="#g"/>
            </mask>
            <path d="M.472.25C.396.27.324.298.244.307.215.311.169.272.13.25.207.23.28.202.361.193.387.189.433.23.471.25" fill="#DD9BA1" mask="url(#h)"/>
        </g>
        <path d="m9.292 25.602-.348-.106c.297-.083.273.011.348.106" fill="#EBC41D"/>
        <g transform="translate(80.43 4.397)">
            <mask id="j" fill="#fff">
                <use xlink:href="#i"/>
            </mask>
            <path d="M.307.24a68.106 68.106 0 0 0-.22-.066C.126.154.172.114.2.117c.08.01.153.037.229.057L.307.24" fill="#DD9BA1" mask="url(#j)"/>
        </g>
        <path d="m79.399 5.076.297-.125c.23.107-.032.098-.297.125M85.461 5.184c.038.027.089.053.107.082.006.01-.07.026-.107.04-.037-.027-.089-.053-.107-.082-.006-.01.07-.027.107-.04M85.67 5.828l-.348-.106c.298-.083.273.011.349.106" fill="#EBC41D"/>
        <path d="m85.593 5.76.348.106c-.298.083-.273-.011-.348-.106M88.58 6.02a95.867 95.867 0 0 0-.22-.043c.038-.013.083-.04.111-.038.08.006.154.025.23.038l-.122.044M41.948 6.004l.348.106c-.297.083-.273-.011-.348-.106M86.484 6.282c.038.028.089.054.107.082.006.01-.07.027-.107.04-.038-.027-.089-.053-.107-.082-.006-.01.07-.026.107-.04M11.25 6.57l-.121.078c-.038-.013-.113-.03-.107-.04.018-.028.069-.054.107-.081l.12.043M93.864 7.582l.122-.08c.037.014.113.03.106.041-.018.029-.069.055-.106.082l-.122-.043M6.745 7.765l.121.043c-.075.014-.148.032-.228.038-.029.002-.075-.024-.113-.038.075-.015.148-.03.22-.043M1.46 8.523l.121-.044c.038.028.09.054.107.082.006.01-.069.027-.107.04l-.121-.078M6.525 17.512c.063-.079-.164-.189.2-.234.15.162.15.162-.2.234M8.23 17.207c-.076.013-.148.031-.229.038-.028.002-.074-.025-.112-.038.076-.014.149-.032.23-.038.027-.003.073.024.111.038" fill="#EBC41D"/>
        <g fill="#4F7F26" fill-rule="nonzero">
            <path d="m31.928 20.31.24-.193c.24-.6.48-1.248.72-1.992.24-.648.408-1.32.552-2.064.168-.744.24-1.488.336-2.232l-.168-3.552c-.072-.72-.168-1.104.144-1.68l1.032.12h.6l.624-.744-.144-.528a5.504 5.504 0 0 0-1.224-.984c-.48-.264-.96-.36-1.512-.36-.072-.648-.168-1.344-.24-1.944-.168-.552-.24-1.224-.312-1.848-.096-.6-.096-1.272-.168-1.872L31.16.245h-.48c.144.648.24 1.296.312 2.064 0 .72 0 1.368.072 2.112 0 .744.096 1.512.24 2.16 0 .768 0 1.248.096 1.632 0 .432.072.912.144 1.344l-.072 1.224c.072 1.464.072 2.304 0 3.048-.072.744-.168 1.584-.24 2.304-.072.768-.24 1.584-.312 2.328-.096.648.072 1.2.312 1.752l.696.096Zm5.472-.625c.552-.072 1.032-.24 1.584-.312.576-.144 1.68-.144 2.256-.216.552 0 1.032 0 1.608-.048h1.344c.408 0 .888 0 1.368.048.408.072.888.072 1.296.216l1.752-.216.48-.576-.168-.384c-.984-1.008-2.64-1.224-3.36-1.32a5.6 5.6 0 0 1-2.088-.432l.24-1.56c.624-.288 2.184-.48 2.664-.768l.648-.528v-.336c-.24-.264-2.352-.84-2.976-.912-.24-.576-.336-1.032-.24-1.584.072-.408 0-.936-.096-1.368L44 8.67l2.16-.024.624-.576.024-.792c-.504-.36-1.128-.48-3.168-.672-.072-.744 0-1.392.216-2.688.24-.504.48-1.128.888-1.488l-.072-.384-.648-.216c-.48 0-.96 0-1.44-.096-.48 0-.888.096-1.296.312l.072.408.12 4.128c-.576.288-1.128.024-2.184.024-.072-.576-.072-2.376-.144-2.784-.096-.432-.168-1.008-.24-1.368l-1.536-.528h-.24l.24 1.344c0 .768-.072 1.608-.144 2.424-.168.84-.408 1.656-.648 2.352a8.968 8.968 0 0 0-.72 2.184c0 .456 0 .792.072 1.176 0 .432.072.768.24.984.552-.288.96-.624 1.296-1.176.24-.408.552-.936.792-1.392.312-.288.72-.456 1.128-.528.408-.168.792-.168 1.2-.24l.648.072.312 1.56-.072 1.44c-.408.36-.888.48-1.368.36-.48 0-.96.12-1.368.192-.408.072-.888.264-1.272.408 0 0-.12.456.12.648.336.576 1.32.768 1.32.768l2.232-.168.408.504c-.168.744-.312 1.416-.408 2.136l-4.464.792-.576.144v.192c.24.672.72 1.152 1.296 1.584Zm-9.576-8.928c.384-.192.744-.504 1.104-.96.36-.456.624-.84.984-1.224.384-.408.552-.816.744-1.344l-.144-.432a2.406 2.406 0 0 0-1.752-.192l-1.272.144c-.36.288-.552.816-.552 1.392-.024.528.12.984.24 1.416.144.456.36.84.648 1.2ZM70.664 20.573h.48l.312-.384-.312-1.536a3.636 3.636 0 0 1 0-1.44c.072-.408.168-.888.24-1.296.072-.384.168-.792.168-1.272-.168-1.056-.096-1.68 0-2.256.072-.552.144-1.2.24-1.752.072-.576.072-1.2.072-1.776l-.24-4.488.24-2.16c.072-.408 0-.816-.168-1.128l-.792-.408-1.608.072-.312.096c.24.312.312.72.312 1.128 0 .384 0 .864.072 1.272v2.256c-.072.792-.072 1.608-.144 2.328-.096.72-.168 1.512-.168 4.008a8.56 8.56 0 0 0 0 1.92c.072.72-.072 1.296-.408 1.848l-1.752-.168h-1.704v.24c.408.408.888.888 1.296 1.368.408.576.72 1.056 1.032 1.608.408.576.888.96 1.464 1.2.552.24 1.104.48 1.68.72Zm-11.088-2.712h1.944l1.104-.408c.24-.408.48-.792.648-1.2.168-.408.24-.888.312-1.368 0-.408.096-.888.168-1.296 0-.552 0-1.032-.072-1.512-.096-.48-.24-.96-.48-1.368-.408-.552-.816-.888-1.368-1.128a7.178 7.178 0 0 0-1.608-.48c-.552-.072-1.2-.168-1.776-.24l-.624-.552.72-1.2c.384-.24.792-.408 1.368-.408.48 0 .864-.168 1.272-.408.408-.24.816-.48 1.2-.648l.24-.792.096-1.776c-.096-.384-.096-.792-.096-1.2 0-.408-.144-.72-.384-1.032L61.184.51l-2.4.096c-.576.072-1.128 0-1.608-.096C56.6.437 56.12.27 55.736.03c-.48-.072-.96 0-1.368.096-.408.144-.888.312-1.296.384l-.24.408c.096.552.24 1.056.48 1.44.24.408.408.888.48 1.368a4.936 4.936 0 0 1 0 1.68c.24.408.192 1.08.504 1.464.336.408.912.528 1.536.6a31.822 31.822 0 0 1-1.152 2.832c-.48.888-1.032 2.496-1.344 3.384-.408.864-.792 1.752-1.272 2.64v.408l.624.24 1.776-.888c.48-.48.888-1.032 1.2-1.608.384-1.272.624-1.92.864-2.472.24-.336.408-.648.648-1.056.168-.24.48-.48.888-.624.48 0 .96.072 1.368.144.384.168.792.336 1.2.48.48.48.72 1.056.792 1.536.096.48 0 .96-.072 1.344-.096.504-.336.888-.648 1.224-.48.384-1.032.624-1.608.792-.552.24-1.2.312-1.848.312l.096.336c.312.312.72.552 1.104.792.408.24.744.408 1.128.576Zm5.544-7.464.648-.168c.24-.552.408-1.032.576-1.608.168-.552.24-1.128.312-1.68.096-.576.096-1.2.168-1.776V3.797c-.072-.384-.168-.792-.24-1.2l-.72-.312-1.152-.072-.384.072.312.792c0 .48 0 .96-.072 1.368-.096.48-.096.96-.168 1.368-.072.48-.168.96-.168 1.44.096.408.096.816.096 1.2 0 .408.072.816.24 1.224l.552.72Zm-4.824-5.304c-.552.072-2.4-.168-2.952-.072-.576.072-.984-.096-1.368-.336 0-.552.144-1.128.48-1.608.552-.24 1.2-.384 1.92-.48.648-.072 1.2 0 1.776.168l.48 1.272-.096.816-.24.24Z"/>
        </g>
    </g>
</svg>
