<svg xmlns="http://www.w3.org/2000/svg" viewBox="0 0 300 300"><path style="fill:none" d="M0-1.21h300v300H0z"/><path d="M.54 162.81s16.47-7.69 28.11 9.6 1.5 37.11-16.71 36.34c0 0-11.1-24.61-11.4-45.95Z" style="fill:#fff"/><path d="M76.54 280.8s17.1-5.2 15.48-24.21-26.89-24.01-37.98-34.33-15.6-22.27-25.76-20.1-12.86 6.26-12.4 15.08c0 0 15.31 39.38 60.65 63.56Z" style="fill:#fff"/><path d="M36.97 197.82s0-6.8-10.64-2.47-13.8 8.18-14.38 13.4c0 0 2.15 6.33 3.94 8.49 0 0 9.26-11.08 22.93-11.66 0 0 1.85-1.69-1.85-7.75Z" style="fill:#f02442"/><path d="M7.15 177.17s-1.66.33-1.55 3.44 4.77 2.22 4.1-.78-1.44-3.64-2.55-2.66ZM18.18 174.24s-1.66.33-1.55 3.44 4.77 2.22 4.1-.78-1.44-3.64-2.55-2.66Z"/><path d="m14.69 180.86 8.95-1.75c1.4-.27 2.25 1.51 1.14 2.42l-6.67 5.49c-.32.26-.73.37-1.13.29-1.22-.25-3.63-1.24-3.41-5.18.04-.62.5-1.14 1.11-1.26Z" style="fill:#f73829"/><path d="M15.89 217.24s6.75 17.95 19.34 29.34c0 0 6.17-1.24 7.72-5.23s-1.37-7.96-9.33-15.84-9.38-10.49-12.22-13.29c0 0-3.4 1.97-5.52 5.02Z" style="fill:#a32829"/><path d="M18.71 214.18s3.87-3.9 6.57-4.51c0 0 5.78 6.79 10.35 11.28s8.12 7.48 7.72 10.97-2.89 6.07-5.64 5.9-6.65-2.06-10.89-8.43-7.99-12.6-8.11-15.22ZM13.56 188.92s2.04 2 3.53.78c0 0-.82-.54-.77-1.16s-1.22.57-2.75.39Z" style="fill:#e72829"/><path d="M.54 164.76s11.43-3.49 20.69 0c0 0 1.89-2.48 0-6.14S6.95 154.96.17 157.29c0 0-.14 4.15.37 7.48Z" style="fill:#f02442"/><path d="M.17 157.28s-.1-12.03 16.91-12.58c0 0 6.06-.7 8.2 5.31 0 0-8.33-1.25-5.47 7.28 0 0-6.33-3.27-19.64 0Z" style="fill:#a32829"/><circle cx="26" cy="150.45" r="2.25" style="fill:#fff"/><circle cx="39.54" cy="216.38" r="1.5" style="fill:#fff"/><circle cx="45.28" cy="223.12" r="1.5" style="fill:#fff"/><circle cx="52.48" cy="229.89" r="1.5" style="fill:#fff"/><path d="M297.07 179.65s-16.02-11.89-33.31 5.29c0 0-20.4 21.06-8.87 38.18 0 0 7.41 10.81 18.34 12.42 0 0 19.46-21.16 23.84-55.89Z" style="fill:#fff"/><path d="M254.89 223.12s-5.76-1.63-20.4 10.41-39.9 17.62-39.02 35c0 0 .4 14.31 13.06 19.62 0 0 41.8-14.31 64.69-52.61 0 0-13.9-11.36-18.34-12.42Z" style="fill:#fff"/><path d="M277.65 229.89s-6.78 10.99-10.34 14.5c0 0-16.69-7.6-23.26-17.68 0 0-1.77-6.25 7.31-11.82 0 0 9.59 8.96 26.29 15Z" style="fill:#f02442"/><path d="M257.08 238.63s-10.39 13.75-25.79 21.81c0 0-2.55 3 0 6.69s8.77 3.83 8.77 3.83 22.5-15.46 27.26-26.59l-10.24-5.75Z" style="fill:#a32829"/><circle cx="242.65" cy="238.63" r="2.16" style="fill:#002829"/><circle cx="234.34" cy="245.07" r="2.16" style="fill:#002829"/><circle cx="224.02" cy="251.22" r="2.16" style="fill:#002829"/><path d="M267.23 194.3s-1.7-.04-2.27 3.01 4.16 3.21 4.17.15-.6-3.87-1.9-3.16ZM279.97 196.04s-1.7-.04-2.27 3.01 4.16 3.21 4.17.15-.6-3.87-1.9-3.16Z"/><path d="m262.29 202.85 8.95-1.75c1.4-.27 2.25 1.51 1.14 2.42l-6.67 5.49c-.32.26-.73.37-1.13.29-1.22-.25-3.63-1.24-3.41-5.18.04-.62.5-1.14 1.11-1.26ZM271.74 206.55s2.73 1.77 5.91 0c0 0-1.14 9.26-3.91 8.34s-2-8.34-2-8.34Z" style="fill:#f73829"/><path d="M269.97 179.39s3.7-4.43 4.68-14.19c0 0-2.86-2.99 0-3.77s13.18 5.87 24.92 0c0 0-.51 10.28-3.04 21.96 0 0-11.82 4.31-26.56-4Z" style="fill:#00b115"/><path d="M295.79 187.47s-17.76 3.08-30.88-7.82c0 0-2.01-1.09 0-3.25 0 0 1.4-1.66 3.61 1 0 0 10.11 8.23 28 6 0 0 .09 2.47-.73 4.08Z" style="fill:#2c7700"/><path d="M135.29 291.95c-1.49 0-.21-.36-1.12-2.1-.38-.73-1.14-1.43-1.58-2.51-.33-.83-.13-1.92-.47-2.97-.28-.88-1.62-1.51-1.88-2.55-.23-.91-.27-1.93-.48-2.97-.18-.89.6-1.98.52-3.04-.08-.95-1.16-1.9-1.18-2.91s-.17-2.01-.15-3 .54-2.03.59-2.97c.06-1.1.9-2.05.97-2.91.14-1.79 1.02-2.59-.24-3.38s-1.25.75-3.06 1.29c-.81.24-1.74.48-2.89.6-.9.1-1.89.86-3 .81-.93-.04-1.95-.38-3.02-.57-.97-.17-1.73-.93-2.58-1.36s-1.8-.72-2.54-1.34-.89-1.78-1.5-2.51c-.64-.76-1.93-.99-2.43-1.76-.58-.89-.78-1.92-1.17-2.67-.79-1.53.17-2.25-1.15-2.8-1.26-.52-1.17.35-2.69 1.03-.71.32-1.46.84-2.42 1.17-.8.28-1.57.85-2.5 1.09-.84.21-1.66.98-2.59 1.11-.87.13-1.87-.29-2.8-.26s-1.8-.19-2.72-.27c-.9-.08-1.78-.1-2.6-.28-.88-.2-1.5-1.08-2.29-1.36-.86-.31-1.77-.28-2.52-.65-.83-.41-1.7-.64-2.38-1.07-.83-.53-1.28-1.38-1.86-1.85-1.25-1-2.41-1.27-2.41-1.27.76 1.17.37 1.02 1.25 2.49.41.69.8 1.55 1.31 2.45.43.76 1.99.97 2.46 1.84.42.8.21 1.97.63 2.83s1.12 1.54 1.5 2.39.71 1.75 1.04 2.61.92 1.72 1.18 2.58c.29.94.33 1.94.48 2.8.16.9.51 1.77.57 2.58.07.92-.46 1.82-.49 2.63-.03.94-.45 1.75-.57 2.52-.16.98-.24 1.81-.46 2.5-.49 1.55-1.49 1.35-.77 2.42s.94.11 2.6.15c.74.02 1.54.51 2.53.64.79.1 1.59.26 2.52.47.8.18 1.95-.74 2.83-.45.79.25 1.75.33 2.6.68.78.32 1.1 1.75 1.91 2.17.82.42 1.73.53 2.4 1 .76.53 1.52.98 2.1 1.56.66.65 1.64 1.04 2.11 1.71.54.77.96 1.65 1.3 2.38.41.89-.45 2.12-.26 2.85.4 1.53-.23 2.5 1.08 2.56 1.45.07.53-1.18 1.83-2.41.6-.56 1.02-1.73 1.98-2.3.75-.45 1.72-.95 2.72-1.31.84-.31 1.93-.26 2.96-.46.88-.18 1.94.6 2.98.53.91-.06 1.83-.49 2.85-.44.91.04 1.81.54 2.82.67 1.12.15 2.03.43 2.86.6 1.22.24 2.46-.74 3.18-.5 2.49.85 3.61 1.49 2.13 1.48Z" style="fill:#00744d"/><path d="M179.86 260.4c1.26.21 2.26-.7 2.56-1.92.01-.05.22-.04.23-.08.19-.55.09-1.17-.06-1.76-.34-1.33-1.56-2.95-2.98-2.81-.75.07-1.11.98-1.4 1.46-.16.12-.08.47-.23.64-.83.96-.57 1.58-.13 2.52.47.99.86 1.99 2.01 1.96Zm.57-4.4s.1-.1.12-.09c.13.07.13.32.24.41-.04-.01-.04-.06-.08-.07-.1-.09-.18-.19-.29-.25Zm-1.16-.13c-.2.09-.32.31-.46.51.01-.1.03-.21.07-.3.14-.07.24-.18.39-.22Zm-1.37 1.48c.07.33.27.61.41.89 0 .09-.05.14-.05.23-.17-.24-.4-.46-.43-.8 0-.11.06-.22.07-.32ZM90.12 287.24c.33.09.62.35.92.34.51.14 1.21-.09 1.67-.39.47-.3 1.23-.69 1.42-1.23.39-.66.27-1.75.22-2.53s-.84-1.26-1.4-1.86c-.59-.62-1.21-1.36-2.05-1.32-.19-.01-.34.44-.54.48-1.1.19-1.8.66-2.16 1.54s-.6 2-.25 2.92 1.18 1.76 2.19 2.05Zm.86-5.55-.05.21c.32.06.48-.07.71.1-.17-.08.07-.86-.11-.89-.1-.08-.32.22-.43.17l-.11.41ZM103.43 281.58c.03.82.95 1.3 1.53 1.9s.98.53 1.88.47c1.36-.09 2.68-.44 2.9-1.78.11-.72-.11-1.5-.47-2.13s-1.18-.64-1.83-.94c-1.24-.58-2.93-1.06-3.76.07-.45.62-.43 1.7-.26 2.4Zm3.48.56c-.17.12-.4.75-.56.7.02-.02.14-1.15.16-1.17.3-.02.75.65.93.35-.01.13-.33-.02-.53.11Zm-1.83.75c-.09-.08-.36.13-.43.03.02-.02 1.04-.63 1.06-.66.05.12-.7.51-.63.63Zm-.17-1.49c0-.12-.65-.35-.62-.47.03-.11.36-.81.4-.9v.94c-.06.15-.06.32-.08.48 0-.02.3-.03.3-.05Z" style="fill:#f61f49"/><path d="M94.51 259.03c.85.3 1.55 1.07 2.39 1.4s1.69.66 2.52 1.03 1.34 1.38 2.15 1.78 1.51.96 2.3 1.4 1.53.91 2.3 1.39 2.23-.13 2.98.37.74 2.08 1.47 2.62 2.28 0 2.99.56.56 2.15 1.24 2.74 2.04.44 2.69 1.07.69 1.87 1.31 2.52c.65.67 1.98.71 2.6 1.41s1 1.62 1.58 2.34 1.5 1.22 2.05 1.97c.36.49-.54 1.26-.94.72-.53-.72-1.69-.96-2.25-1.65s-1.36-1.16-1.95-1.83-.73-1.73-1.35-2.37-1.46-1.06-2.1-1.68-.73-1.85-1.4-2.44-2.11-.27-2.8-.83-1.02-1.58-1.73-2.11-1.68-.7-2.42-1.2-1.54-.86-2.3-1.33-1.48-.96-2.26-1.4-1.39-1.16-2.18-1.56c-.82-.41-1.53-1.05-2.37-1.42s-1.55-1.07-2.4-1.41-1.86-.3-2.73-.6c-.56-.2.02-1.7.62-1.49Z" style="fill:#ffe4cc"/><path d="M137.86 292.36c1.73.6 1.8-.92 3.57-2.56.74-.69 1.29-1.91 2.24-2.98.73-.82 2.07-1.34 2.89-2.42.68-.9.3-2.69 1.03-3.78.64-.96 1.48-1.85 2.14-2.96.57-.95 2.13-1.58 2.66-2.77.48-1.07-.24-2.71.2-3.88s.64-2.35 1.02-3.5 1.31-2.2 1.64-3.31c.38-1.29 1.64-2.24 1.91-3.27.57-2.13-1.64-2.85.14-3.26s.49.91 2.37 2.28c.84.61 1.96 1.27 3.24 1.89 1 .48 2.45.11 3.74.51 1.09.33 2.17.89 3.48 1.12 1.19.2 2.36.78 3.52.63s2.26-.81 3.36-1.23 2.61-.19 3.62-.78c1.06-.61 1.45-2.24 2.34-2.92 1.03-.79 2.2-1.27 2.95-1.98 1.54-1.44.64-2.23 2.4-2.32 1.67-.09.4 1.13 1.89 2.55.69.66 1.72 1.26 2.7 2.04.81.65 1.96 1 2.94 1.65.89.59 2.18.52 3.2 1.06.96.51 1.66 1.53 2.72 1.95s1.99.98 3.1 1.26c1.07.28 2.15.33 3.18.45 1.1.14 2.16 1.02 3.2 1.02 1.12 0 2.22-.55 3.24-.66 1.13-.13 2.16-.61 3.13-.83 1.17-.27 2.38-.08 3.25-.38 1.86-.64 2.16-3.22 2.48-1.65.34 1.68-1.14.25-2.77 1.59-.76.63-1.75 1.29-2.72 2.13-.81.7-.64 2.63-1.53 3.44-.82.75-2.27.88-3.11 1.7s-1.32 1.9-2.12 2.73-1.6 1.64-2.34 2.5-1.21 1.97-1.87 2.86c-.71.97-1.53 1.75-2.07 2.68-.56.98-.75 2.01-1.16 2.92-.46 1.04-1.46 1.76-1.76 2.7-.35 1.11-1 2.07-1.17 3.01-.22 1.2-.17 2.33-.2 3.22-.06 2 1.8 2.24.52 3.19s-.96-.91-2.9-1.54c-.86-.28-1.82-1.12-3.03-1.39-.96-.21-2.1-.44-3.26-.58-1-.12-2.2 1.23-3.35 1.2-1.02-.03-2.04.28-3.17.34-1.03.05-2.22-1.29-3.34-1.14-1.13.15-2.13.82-3.1 1.1-1.09.31-2.03.87-2.95 1.3-1.03.49-1.58 1.54-2.4 2.12-.94.67-1.71 1.24-2.4 1.94-.84.86-2.68.8-3.19 1.56-1.09 1.61-.58 3.28-.58 3.28-.23-1.76-.38-1.36-1.39-3.31-.46-.9-1.72-1.4-2.59-2.45-.68-.83-1.42-1.55-2.43-2.39-.84-.7-1.48-1.69-2.58-2.35-.95-.57-1.52-2.11-2.69-2.61-1.02-.44-2.36-.39-3.57-.76-1.07-.33-2.14-1.13-3.37-1.39-1.36-.29-2.56-.67-3.6-.82-1.51-.22-2.82 1.24-3.75 1.23-3.23-.04-5.3.43-3.59 1.02Z" style="fill:#00744d"/><path d="M199.09 271.06c-1.11 0-2.21-.57-3.32-.53s-2.2.15-3.31.24-2.3-.64-3.41-.5-2.26.11-3.35.29-2.23.35-3.31.58-1.8 2.04-2.88 2.32-2.57-.96-3.64-.63-1.59 2.27-2.64 2.64-2.65-.75-3.68-.34-1.56 2.01-2.58 2.47-2.47-.02-3.46.48c-1.02.51-1.48 2.09-2.48 2.65s-2.15.82-3.12 1.42-1.63 1.65-2.58 2.29c-.62.42-.15 1.31.54.85.91-.62 1.3-2.01 2.24-2.58s1.71-1.47 2.66-2.01 2.29-.4 3.27-.89 1.82-1.3 2.81-1.75 2.41.08 3.43-.33 1.54-2.14 2.57-2.51 2.32 0 3.37-.32 1.97-1.12 3.03-1.4 2.11-.7 3.19-.93 2.19-.37 3.27-.55 2.25.08 3.33-.05c1.12-.14 2.27.07 3.4-.02s2.26.29 3.38.25 2.23-.54 3.36-.53c.73 0 .66-.58-.11-.59Z" style="fill:#ffe4cc"/><path d="M192.89 290.33c2.62 2 6.41.04 6.91-3.06.48-2.94-2.5-5.79-5.41-5a4.3 4.3 0 0 0-1.88 1.06c-2.25 1.52-1.7 5.4.38 6.99Zm4.83-3.46c.21.69 0 1.41-1 1.95-.08.05-.17.08-.26.12.67-.41 1.17-1.21 1.26-2.07Zm-3.64 1.71c-.56-.41-.88-1.06-.61-1.85-.08.67.11 1.37.6 1.85ZM117.63 259.28c2.62 2 6.41.04 6.91-3.06.48-2.94-2.5-5.79-5.41-5a4.3 4.3 0 0 0-1.88 1.06c-2.25 1.52-1.7 5.4.38 6.99Zm4.83-3.46c.21.69 0 1.41-1 1.95-.08.05-.17.08-.26.12.67-.41 1.17-1.21 1.26-2.07Zm-3.64 1.71c-.56-.41-.88-1.06-.61-1.85-.08.67.11 1.37.6 1.85ZM137.9 266.73c2.62 2 6.41.04 6.91-3.06.48-2.94-2.5-5.79-5.41-5a4.3 4.3 0 0 0-1.88 1.06c-2.25 1.52-1.7 5.4.38 6.99Zm4.83-3.46c.21.69 0 1.41-1 1.95-.08.05-.17.08-.26.12.67-.41 1.17-1.21 1.26-2.07Zm-3.64 1.71c-.56-.41-.88-1.06-.61-1.85-.08.67.11 1.37.6 1.85Z" style="fill:#f61f49"/><circle cx="152.15" cy="288.58" r="11.69" style="fill:#ffa80b"/><circle cx="132.97" cy="283.85" r="15.71" style="fill:#ffdd1e"/><path d="M208.57 21.28c.36-.33.01-.6.15-1.07s-.33-.61-.19-1.08.86-.26 1-.73-.5-.66-.36-1.13.63-.33.77-.8-.18-.56-.04-1.03.48-.37.62-.84.42-.39.55-.87-.51-.66-.37-1.14.07-.35.56-.4-.01.06.22.5.34.38.57.82-.12.62.12 1.06.67.2.91.64.45.33.68.77.05.53.29.97-.17.65.06 1.09.7.19.93.63-.2.67.03 1.11.68.2.92.64-.01.57.22 1.01.1.73.57.9.59.01 1.03-.18.44-.19.87-.38.48-.1.91-.29.21-.7.65-.89.63.26 1.07.07.42-.22.86-.41.35-.4.78-.59.24-.64.68-.83.41-.25.85-.44.5-.16.79.22-.41-.11-.7.27-.28.39-.57.78.15.72-.14 1.11-.6.15-.89.53.2.76-.09 1.15-.25.42-.54.8-.51.22-.8.6-.56.18-.85.57-.18.47-.48.85-.62.14-.91.52-.17.48-.46.87-.73.45-.78.93 1 .32 1.23.76.33.39.55.84-.35.73-.13 1.18.68.22.9.66.27.42.5.86.28.42.5.87.15.48.37.93-.1.61.12 1.06.72.55.41.94c-.29.36-.47-.16-.89-.36s-.51-.02-.94-.22-.5-.04-.93-.24-.05-.99-.47-1.2-.4-.26-.82-.47-.42-.21-.85-.41-.8.59-1.23.38-.28-.5-.71-.71-.21-.66-.63-.86-.56.07-.98-.13-.46-.14-.88-.34-.45-.17-.87-.37-.29-.02-.75.1-.02.2-.3.6-.93-.07-1.21.33-.39.32-.67.71.01.61-.27 1-.12.51-.4.91-.45.27-.74.67-.05.56-.33.96-.59.17-.88.57.05.63-.23 1.03-.37.33-.66.73-.25 1.08-.71.93-.2-.69-.19-1.17-.07-.49-.06-.97.13-.48.14-.97-.15-.49-.14-.98.5-.48.51-.97-.55-.5-.54-.98.68-.47.69-.96-.29-.49-.28-.98.54-.48.55-.97-.46-.5-.45-.99.24-.53-.02-.95-.52.1-.96-.08-.31-.48-.75-.67-.43-.21-.86-.39-.43-.19-.87-.38-.46-.12-.9-.31-.5-.03-.94-.21-.2-.75-.64-.93-.41-.24-.85-.42-.72.48-1.16.3-.38-.32-.82-.51-.57.13-1.01-.06-1.2-.4-1.13-.87.92-.01 1.4-.11.39-.52.87-.62.47-.14.95-.24.62.55 1.1.45.39-.56.87-.66.56.26 1.04.16.5 0 .99-.11.5-.01.98-.11.37-.67.85-.77.58.4 1.07.3.49-.07.98-.17.51.03 1-.07.4-.73.9-.71c.57.02.72.39 1.08.05Z" style="fill:#ffffd1"/><path d="M260.1 62.26c.32-.3.01-.54.14-.96s-.3-.55-.17-.97.77-.23.89-.66-.44-.59-.32-1.01.57-.29.69-.72-.16-.5-.03-.93.43-.33.56-.76.37-.35.5-.78-.45-.6-.33-1.02.06-.31.51-.36-.01.05.2.45.31.34.51.74-.1.56.11.95.61.18.81.58.4.29.61.69.05.48.26.87-.15.59.06.98.63.17.84.56-.18.6.03 1 .61.18.82.58 0 .51.2.91.09.65.51.81.53.01.92-.16l.78-.34c.39-.17.43-.09.82-.26s.19-.63.58-.8.57.23.96.06.38-.19.77-.37.31-.36.7-.53.22-.57.61-.75.37-.22.77-.4.45-.14.71.2-.36-.1-.63.25-.25.35-.51.7.14.65-.12.99-.54.13-.8.48.18.68-.08 1.03-.22.37-.49.72-.46.2-.72.54-.5.16-.76.51-.16.42-.43.77-.56.12-.82.47-.15.43-.41.78-.66.4-.7.84.9.28 1.1.68.3.35.5.75-.31.65-.12 1.05.61.2.81.6.25.38.44.77.25.38.45.78.14.43.33.84-.09.55.11.95.65.49.37.84c-.26.33-.42-.14-.8-.32s-.46-.01-.84-.2-.45-.04-.83-.22-.04-.89-.42-1.07-.35-.24-.74-.42-.38-.19-.76-.37-.72.53-1.1.34-.25-.45-.63-.63-.19-.59-.57-.77-.5.07-.88-.12-.41-.12-.79-.31-.4-.15-.78-.33-.26-.02-.67.09-.02.18-.27.53-.83-.06-1.09.29-.35.29-.6.64.01.54-.24.9-.11.46-.36.81-.41.24-.66.6-.04.5-.29.86-.53.16-.79.51.05.57-.21.92-.33.3-.59.66-.22.97-.64.83-.18-.62-.17-1.05-.06-.44-.06-.87.12-.43.13-.87-.13-.44-.12-.88.45-.43.45-.87-.5-.45-.49-.88.61-.43.62-.86-.26-.44-.25-.88.49-.43.49-.87-.41-.45-.4-.89.21-.48-.02-.85-.47.09-.86-.07-.28-.43-.67-.6-.38-.18-.78-.35-.39-.17-.78-.34-.42-.11-.81-.28-.45-.02-.85-.19-.18-.67-.57-.84-.37-.21-.76-.38-.65.43-1.04.27-.34-.29-.74-.46-.51.11-.91-.05-1.08-.36-1.02-.78.83-.01 1.26-.1.35-.47.78-.56.42-.12.86-.21.56.5.99.41.35-.5.78-.59.5.23.93.14.45 0 .89-.1.45 0 .88-.1.33-.6.76-.69.52.36.96.27.44-.06.88-.15.46.03.9-.06.36-.66.8-.64c.51.02.64.35.97.05Z" style="fill:#d8ffd1"/><path d="M237.42 32.64c.36.15.38.34.77.29s.3-.66.68-.71.45.42.83.37.39-.03.77-.08.31-.6.7-.65.49.02.72.33c.21.28-.35.02-.57.3s-.1.36-.32.64.09.51-.13.79-.44.11-.65.38-.25.25-.47.53-.08.39-.3.67-.05.41-.27.69-.73.03-.69.38c.04.37.08.5.36.75s.42.09.7.34.26.27.54.52.16.38.44.63.67-.17.95.08.57.37.38.69-.37-.08-.75-.17-.45.19-.83.1-.33-.28-.71-.37-.45.18-.83.09-.3-.42-.69-.51-.43.09-.81 0-.41-.74-.79-.63c-.34.1-.09.57-.31.84s-.05.42-.27.69-.46.08-.68.35-.08.39-.31.67-.23.27-.46.54-.16.28-.49.15-.24-.09-.23-.45.18-.36.19-.72.18-.36.19-.72-.37-.37-.36-.73.08-.36.09-.72-.23-.37-.22-.73.49-.35.5-.71.21-.53-.02-.81-.52.35-.88.28-.31-.3-.66-.37-.28-.42-.63-.49-.34-.16-.69-.23-.4.18-.76.11-.43.32-.79.25-.88-.08-.91-.44.72.11 1.06-.03.28-.27.61-.41.41.04.74-.1.13-.62.46-.76.35-.09.69-.24.48.19.81.05.2-.33.39-.64c.2-.33.5-.28.49-.67s-.03-.38-.04-.77-.54-.37-.55-.76.12-.39.12-.77.02-.39.01-.77-.21-.38-.22-.77-.02-.42.33-.59c.33-.15.36-.07.58.22s.18.32.39.61-.29.65-.08.95.71-.07.92.23.3.23.51.52-.23.61-.02.91.17.32.38.62.41.16.59.47.15.35.49.48ZM269.87 84.29c.36.14.38.28.77.23s.32-.56.7-.61.44.34.82.29.39-.03.77-.09.73-.76.98-.46c.22.25-.52.4-.72.66s-.32.17-.53.44-.11.34-.32.6.05.46-.16.73-.39.12-.6.39-.24.24-.44.51-.33.24-.29.57c.05.37.37.08.65.33s.1.45.38.7.11.44.38.7.4.12.68.37.7.04.52.38-.2-.29-.57-.37-.48.38-.85.29-.32-.31-.69-.39-.37-.08-.75-.16-.43.14-.8.06-.3-.45-.67-.34c-.34.1 0 .4-.23.67s-.45.09-.67.36-.1.37-.33.65-.53.03-.75.3.03.86-.31.75-.23-.42-.22-.76.26-.34.27-.68-.15-.35-.14-.69l.02-.69c.01-.35.42-.33.43-.68s-.35-.36-.34-.7.37-.44.15-.71-.33-.22-.67-.29-.41.24-.75.17-.33-.12-.68-.19-.38.12-.73.05-.27-.46-.61-.53-.57.31-.61-.04.1-.4.42-.53.4.04.72-.1.44.13.76 0 .36-.07.68-.2.24-.33.57-.47.21-.18.39-.48c.2-.32 0-.22 0-.6s.48-.38.47-.76-.12-.37-.13-.75.15-.38.15-.75-.44-.37-.45-.74-.26-.66.07-.83c.3-.16.06.48.26.76s.52.04.71.32-.17.54.03.81.21.26.41.54.56.02.76.29.11.34.31.62.21.28.38.57.07.38.39.5ZM19.59 96.55c.45.19.49.43.97.37s.38-.83.86-.89.56.53 1.05.47.49-.04.97-.1.39-.76.88-.83.61.02.91.42c.27.36-.44.02-.72.37s-.13.46-.41.81.11.65-.16 1-.55.13-.82.48-.32.32-.59.67-.1.49-.37.84-.06.52-.34.87-.92.04-.87.48c.05.47.1.63.45.94s.53.11.88.43.33.34.68.66.21.48.56.8.84-.22 1.19.1.72.47.47.87-.47-.1-.95-.22-.56.24-1.04.12-.42-.35-.9-.47-.56.23-1.04.12-.38-.54-.86-.65-.54.12-1.02 0-.52-.94-1-.8c-.43.13-.11.72-.39 1.06s-.06.53-.34.87-.58.1-.86.45-.1.5-.39.84-.29.34-.58.69-.21.36-.62.19-.3-.12-.29-.57.23-.45.24-.9.23-.45.24-.9-.47-.47-.46-.92.1-.45.11-.91-.29-.46-.27-.92.62-.44.63-.9.26-.66-.02-1.02-.66.45-1.1.36-.39-.37-.83-.46-.36-.53-.8-.62-.42-.21-.87-.3-.51.23-.96.14-.55.41-1 .32-1.1-.1-1.15-.56.91.14 1.33-.03.35-.34.77-.52.51.05.93-.13.16-.78.58-.96.45-.12.87-.3.6.25 1.03.07.25-.41.49-.8c.26-.41.63-.35.62-.84s-.04-.48-.05-.97-.68-.47-.69-.95.16-.49.15-.98.03-.49.02-.97-.26-.48-.27-.97-.02-.54.42-.74c.41-.19.46-.09.73.28s.23.4.49.77-.37.83-.1 1.2.9-.08 1.17.29.38.29.64.66-.29.77-.02 1.14.22.41.48.78.51.2.74.59.19.44.61.61Z" style="fill:#fff"/><path d="M242.73 47.23c.24-.23.02-.23.09-.55s.55-.21.63-.54-.3-.41-.23-.74-.09-.36-.02-.69.04-.82.37-.87.27.53.44.82.22.26.39.55.07.35.24.64 0 .4.17.69.55.06.72.35-.18.68.15.75c.39.08.49 0 .85-.18s.21-.48.57-.66.42-.07.78-.25.3-.61.59-.32-.04.27-.26.59-.45.17-.67.49.09.54-.13.86-.14.38-.37.7-.96.08-.98.48.66.25.85.58-.14.52.04.85.17.34.36.67.86.31.65.63c-.19.29-.51.04-.83-.09s-.14-.57-.46-.7-.51.33-.83.2-.29-.19-.61-.32-.27-.26-.59-.39-.38-.75-.71-.64-.03.65-.22.95-.02.41-.22.72-.34.21-.53.52-.15.33-.34.64-.12.45-.47.36-.39-.17-.41-.53.38-.38.37-.74-.02-.36-.04-.73-.01-.36-.02-.73-.12-.24-.34-.53c-.23-.31-.11-.3-.47-.43s-.35-.15-.72-.28-.45.12-.82-.02-.2-.59-.56-.72-.79.33-.77-.06.39.1.77 0 .28-.44.66-.54.4-.01.78-.11.36-.15.74-.25.47.27.85.18c.35-.09.27-.34.56-.61ZM282.79 89.21c.28-.31.06-.35.16-.75s.46-.32.55-.73-.45-.82-.04-.94c.37-.1.39.29.59.62s.21.32.4.65.05.41.25.74 0 .5.38.6c.39.1.35-.09.71-.28s.44-.04.8-.23.43-.9.75-.65c.29.23-.34.41-.55.72s-.34.22-.55.52 0 .45-.21.76-.5.22-.51.59.14.39.33.72.34.25.53.58.48.32.21.6-.31.08-.67-.07-.39-.08-.75-.23-.19-.56-.56-.71-.4-.04-.78.06c-.33.08-.34.07-.52.36s-.2.28-.38.57.03.42-.16.71-.16.8-.49.72.2-.53.19-.88-.39-.33-.41-.67.04-.35.02-.69.3-.38.09-.66c-.22-.29-.21-.39-.56-.51s-.44.16-.79.03-.4.02-.74-.1-.68-.07-.69-.44.38-.2.72-.29.41.15.75.06.24-.47.58-.56.41.17.76.11c.32-.06.33-.06.57-.32ZM281.3 118.1c.28-.31.06-.35.16-.75s.46-.32.55-.73-.45-.82-.04-.94c.37-.1.39.29.59.62s.21.32.4.65.05.41.25.74 0 .5.38.6c.39.1.35-.09.71-.28s.44-.04.8-.23.43-.9.75-.65c.29.23-.34.41-.55.72s-.34.22-.55.52 0 .45-.21.76-.5.22-.51.59.14.39.33.72.34.25.53.58.48.32.21.6-.31.08-.67-.07-.39-.08-.75-.23-.19-.56-.56-.71-.4-.04-.78.06c-.33.08-.34.07-.52.36s-.2.28-.38.57.03.42-.16.71-.16.8-.49.72.2-.53.19-.88-.39-.33-.41-.67.04-.35.02-.69.3-.38.09-.66c-.22-.29-.21-.39-.56-.51s-.44.16-.79.03-.4.02-.74-.1-.68-.07-.69-.44.38-.2.72-.29.41.15.75.06.24-.47.58-.56.41.17.76.11c.32-.06.33-.06.57-.32Z" style="fill:#fff900"/><path d="M295.97 147.6c.28-.31.06-.35.16-.75s.46-.32.55-.73-.45-.82-.04-.94c.37-.1.39.29.59.62s.21.32.4.65.05.41.25.74 0 .5.38.6c.39.1.35-.09.71-.28s.44-.04.8-.23.43-.9.75-.65c.29.23-.34.41-.55.72s-.34.22-.55.52 0 .45-.21.76-.5.22-.51.59.14.39.33.72.34.25.53.58.48.32.21.6-.31.08-.67-.07-.39-.08-.75-.23-.19-.56-.56-.71-.4-.04-.78.06c-.33.08-.34.07-.52.36s-.2.28-.38.57.03.42-.16.71-.16.8-.49.72.2-.53.19-.88-.39-.33-.41-.67.04-.35.02-.69.3-.38.09-.66c-.22-.29-.21-.39-.56-.51s-.44.16-.79.03-.4.02-.74-.1-.68-.07-.69-.44.38-.2.72-.29.41.15.75.06.24-.47.58-.56.41.17.76.11c.32-.06.33-.06.57-.32ZM284.2 153.41c.28-.31.06-.35.16-.75s.46-.32.55-.73-.45-.82-.04-.94c.37-.1.39.29.59.62s.21.32.4.65.05.41.25.74 0 .5.38.6c.39.1.35-.09.71-.28s.44-.04.8-.23.43-.9.75-.65c.29.23-.34.41-.55.72s-.34.22-.55.52 0 .45-.21.76-.5.22-.51.59.14.39.33.72.34.25.53.58.48.32.21.6-.31.08-.67-.07-.39-.08-.75-.23-.19-.56-.56-.71-.4-.04-.78.06c-.33.08-.34.07-.52.36s-.2.28-.38.57.03.42-.16.71-.16.8-.49.72.2-.53.19-.88-.39-.33-.41-.67.04-.35.02-.69.3-.38.09-.66c-.22-.29-.21-.39-.56-.51s-.44.16-.79.03-.4.02-.74-.1-.68-.07-.69-.44.38-.2.72-.29.41.15.75.06.24-.47.58-.56.41.17.76.11c.32-.06.33-.06.57-.32Z" style="fill:#fff"/><path d="M196.56 10.68c.28-.31.06-.35.16-.75s.46-.32.55-.73-.45-.82-.04-.94c.37-.1.39.29.59.62s.21.32.4.65.05.41.25.74 0 .5.38.6c.39.1.35-.09.71-.28s.44-.04.8-.23.43-.9.75-.65c.29.23-.34.41-.55.72s-.34.22-.55.52 0 .45-.21.76-.5.22-.51.59.14.39.33.72.34.25.53.58.48.32.21.6-.31.08-.67-.07-.39-.08-.75-.23-.19-.56-.56-.71-.4-.04-.78.06c-.33.08-.34.07-.52.36s-.2.28-.38.57.03.42-.16.71-.16.8-.49.72.2-.53.19-.88-.39-.33-.41-.67.04-.35.02-.69.3-.38.09-.66c-.22-.29-.21-.39-.56-.51s-.44.16-.79.03-.4.02-.74-.1-.68-.07-.69-.44.38-.2.72-.29.41.15.75.06.24-.47.58-.56.41.17.76.11c.32-.06.33-.06.57-.32Z" style="fill:#fff900"/><path d="M7.11 117.29c.28-.31.06-.35.16-.75s.46-.32.55-.73-.45-.82-.04-.94c.37-.1.39.29.59.62s.21.32.4.65.05.41.25.74 0 .5.38.6c.39.1.35-.09.71-.28s.44-.04.8-.23.43-.9.75-.65c.29.23-.34.41-.55.72s-.34.22-.55.52 0 .45-.21.76-.5.22-.51.59.14.39.33.72.34.25.53.58.48.32.21.6-.31.08-.67-.07-.39-.08-.75-.23-.19-.56-.56-.71-.4-.04-.78.06c-.33.08-.34.07-.52.36s-.2.28-.38.57.03.42-.16.71-.16.8-.49.72.2-.53.19-.88-.39-.33-.41-.67.04-.35.02-.69.3-.38.09-.66c-.22-.29-.21-.39-.56-.51s-.44.16-.79.03-.4.02-.74-.1-.68-.07-.69-.44.38-.2.72-.29.41.15.75.06.24-.47.58-.56.41.17.76.11c.32-.06.33-.06.57-.32Z" style="fill:#ffa0d2"/><path d="M11.67 131.26c.52-.59.12-.65.29-1.41s.85-.61 1.03-1.37-.84-1.53-.08-1.75c.68-.19.73.54 1.09 1.15s.39.6.75 1.21.1.77.47 1.38.01.93.7 1.11c.73.19.64-.17 1.32-.51s.81-.08 1.49-.42.8-1.68 1.4-1.21c.54.43-.64.77-1.03 1.34s-.64.4-1.02.98 0 .84-.39 1.41-.93.4-.95 1.1.27.72.62 1.34.64.46 1 1.08.89.6.4 1.13-.58.15-1.26-.13-.73-.16-1.4-.43-.36-1.05-1.04-1.32-.74-.07-1.45.11c-.62.16-.63.13-.97.67s-.36.52-.7 1.06.05.79-.29 1.32-.3 1.5-.92 1.33.38-.99.35-1.63-.73-.61-.76-1.25.07-.64.05-1.28.56-.72.17-1.23c-.41-.54-.4-.73-1.04-.96s-.83.29-1.47.06-.74.04-1.38-.19-1.28-.14-1.29-.82.72-.37 1.36-.54.76.28 1.39.11.45-.87 1.09-1.04.76.32 1.41.2c.6-.11.62-.11 1.06-.6ZM275.96 103.06c.52-.59.12-.65.29-1.41s.85-.61 1.03-1.37-.84-1.53-.08-1.75c.68-.19.73.54 1.09 1.15s.39.6.75 1.21.1.77.47 1.38.01.93.7 1.11c.73.19.64-.17 1.32-.51s.81-.08 1.49-.42.8-1.68 1.4-1.21c.54.43-.64.77-1.03 1.34s-.64.4-1.02.98 0 .84-.39 1.41-.93.4-.95 1.1.27.72.62 1.34.64.46 1 1.08.89.6.4 1.13-.58.15-1.26-.13-.73-.16-1.4-.43-.36-1.05-1.04-1.32-.74-.07-1.45.11c-.62.16-.63.13-.97.67s-.36.52-.7 1.06.05.79-.29 1.32-.3 1.5-.92 1.33.38-.99.35-1.63-.73-.61-.76-1.25.07-.64.05-1.28.56-.72.17-1.23c-.41-.54-.4-.73-1.04-.96s-.83.29-1.47.06-.74.04-1.38-.19-1.28-.14-1.29-.82.72-.37 1.36-.54.76.28 1.39.11.45-.87 1.09-1.04.76.32 1.41.2c.6-.11.62-.11 1.06-.6ZM286.2 129.19c.86-1.13.13-1.19.35-2.59s1.46-1.21 1.69-2.61-1.72-2.68-.38-3.16c1.22-.44 1.39.89 2.13 1.95s.78 1.03 1.53 2.09.29 1.39 1.03 2.44.14 1.69 1.42 1.92c1.36.25 1.15-.39 2.33-1.1s1.46-.25 2.64-.96 1.24-3.15 2.38-2.37c1.04.71-1.07 1.47-1.7 2.56s-1.1.82-1.73 1.91.11 1.52-.52 2.61-1.63.85-1.58 2.11.58 1.28 1.3 2.36 1.22.75 1.94 1.83 1.69.98.87 1.99-1.04.35-2.3-.07-1.34-.19-2.6-.61-.79-1.85-2.05-2.27-1.35-.04-2.61.38c-1.1.37-1.13.32-1.67 1.34s-.59 1-1.14 2.02.19 1.42-.36 2.44-.36 2.76-1.49 2.54.55-1.85.43-3.01-1.41-1.02-1.53-2.17.04-1.18-.08-2.33.92-1.37.15-2.24c-.82-.93-.82-1.27-2.01-1.6s-1.46.64-2.66.31-1.33.16-2.53-.17-2.34-.09-2.45-1.32 1.26-.77 2.39-1.16 1.41.41 2.54.02.71-1.64 1.84-2.03 1.43.49 2.59.18c1.07-.28 1.11-.27 1.84-1.23Z" style="fill:#d0fdff"/><path d="M20.55 114.72c.24-.23.02-.23.09-.55s.55-.21.63-.54-.3-.41-.23-.74-.09-.36-.02-.69.04-.82.37-.87.27.53.44.82.22.26.39.55.07.35.24.64 0 .4.17.69.55.06.72.35-.18.68.15.75c.39.08.49 0 .85-.18s.21-.48.57-.66.42-.07.78-.25.3-.61.59-.32-.04.27-.26.59-.45.17-.67.49.09.54-.13.86-.14.38-.37.7-.96.08-.98.48.66.25.85.58-.14.52.04.85.17.34.36.67.86.31.65.63c-.19.29-.51.04-.83-.09s-.14-.57-.46-.7-.51.33-.83.2-.29-.19-.61-.32-.27-.26-.59-.39-.38-.75-.71-.64-.03.65-.22.95-.02.41-.22.72-.34.21-.53.52-.15.33-.34.64-.12.45-.47.36-.39-.17-.41-.53.38-.38.37-.74-.02-.36-.04-.73-.01-.36-.02-.73-.12-.24-.34-.53c-.23-.31-.11-.3-.47-.43s-.35-.15-.72-.28-.45.12-.82-.02-.2-.59-.56-.72-.79.33-.77-.06.39.1.77 0 .28-.44.66-.54.4-.01.78-.11.36-.15.74-.25.47.27.85.18c.35-.09.27-.34.56-.61Z" style="fill:#fff900"/></svg>