<svg xmlns="http://www.w3.org/2000/svg" viewBox="0 0 300 300"><path style="fill:none" d="M0-1.21h300v300H0z"/><path d="M136.58 272.87s2.32-9.6 13.42-8.6c0 0 11.77-3.67 17.5 8.6 0 0 5.57-5.14 11.72.49 0 0-.23-6.72 9.86-4.83 0 0 5.1-5.34 14.91-5.92 0 0 1.23-5.82 6.85-4.49 0 0 1.13-7.4 8.78-6.15 0 0 6.81-.04 9.51 4.3l1.88-2.72-.75-3.08s-6.74-7.06.75-14.47c0 0 2.66-2.62 4.24-2.48 0 0-3.08-4.76.42-7.17s9.99-3.43 15.64 2.15c0 0-5.5-10.48 4.57-12.88 0 0-3.33-3.08 0-7.4s5.57-3.66 5.57-3.66l1.5-8.81 2.02-2.63s-5.34-1.3-3.89-5.75 5.96-5.65 8.53-4.75c0 0-5.98-4.24-3.32-11.55s8.43-8.31 9.32-8.2c0 0-8.52-4.02-2.28-12.87 0 0 1.97-2.05 4.6-1.21 0 0-4.7-2.23-2.32-6.48 0 0-3.17-2.16-1.02-6.32s7.43-4.07 9.82-1.25c0 0 3.89-4.66 6.57-2.58s-1.4 35.47-1.4 35.47l-20.6 51.81-32.93 41.51-42.21 21.67-48.79 3.24-8.48-13Z" style="fill:#fff"/><path d="M121.7 297.25s-12.94-9.08.09-24.07c0 0 16.03-10.47 24.67 8.13 0 0 .33-6.44 8.98-7.96 0 0 11.9-3.48 12.93 12.79 0 0-.61-13.29 17.25-10.04 0 0-2.19-10.98 11.75-14.28 0 0 12.35-3.52 15.6 9.72 0 0 1.44-12.25 15.41-7.66 0 0-4.34-6.77 1.77-11.02 0 0-2.88-5.15 1.77-7.98s12.53-3.77 16.13 3.77c0 0-2.48-5.44 5.55-7.32 0 0-8.2-8.1 0-15.57 0 0 3.37-7.09 12.9-3.52 0 0-8.07-5.03-2.98-13.63 0 0-6.31-3.79-2.74-11.72s10.14-5.88 13.25-4.55c0 0-6.69-3.3-3.82-12.59s14.72-5.76 14.72-5.76-4.56-4.87-3.32-12.14c0 0-.62-6.8 6.95-5.82 0 0-9.46-3.02-6.23-13.17s10.53-6.83 10.53-6.83-10.82-2.88-8.61-15.96c0 0 3.18-8.65 12.22-4.1 0 0 15.92 68.46-20.33 124.26-22.42 34.52-62.19 68.98-154.46 57.01Z" style="fill:#fff"/><path style="fill:#ff7a64" d="m136.98 295.23 3.04-24.48 6.89-.26 2.92 11.4 2.92-11.4 7.16-.27 1.71 24.63-8.37-.07.03-8.91-1.86 4.77h-3.71l-2.65-4.77.79 9.28-8.87.08zM195.38 269.11l5 17.29 5.17-1.65-4.75-12.46s2.46-3.63 3.8-4.32c1.33-.68 2.79 1.44 2.79 1.44s2.67-1.37 2.6-2.38c-.06-1.01-2.2-4.47-3.85-3.95s-6.31 5.37-6.31 5.37l-.9-2.82-4.15 1.58.6 1.88ZM196.37 283.73s-1.39.52-2.53-1.1-3.08-3.68-4.5-3.84l-1.42-.17s3.25-1.15 3.47-2.9c.21-1.75-.88-5.58-2.1-6.18-1.21-.59-7.62 1.31-7.62 1.31l.33 1.37c.1.16 4.14 17.72 4.14 17.72l4.12-1.23-2.91-8s2.83 2.1 4.28 3.96c1.45 1.86 1.67 3.32 3.13 3.1s2.63-.88 2.63-.88l-1-3.16Zm-10.74-7.61-.64-2.71 3.72-.54.38 1.6-3.46 1.65ZM222.71 257.61l-1.57 6.98-.88.5c-1.06.6-2.39.37-3.19-.54l-.66-.76 1.18-6.99-3.27-.52s-1.8 8.92-1.55 9.98 1.33 2.93 3.29 3.49 3.67-.04 4.72-.66c1.06-.63 1.4-2.17 1.4-2.17s-1.31 7.68-4.09 10.28c-2.78 2.6-6.58-.46-6.58-.46l-.67 2.98s2.56 1 4.74 1.52 5.97-.89 7.95-5.9c1.52-3.83 3.71-17 3.71-17l-4.53-.72ZM177.18 284.4s-1.12 4.51-3.02 4.18c-1.9-.33-1.71-4.76-1.71-4.76s6.59-2.71 6.06-4.99c-.53-2.28-.24-5.68-2.4-5.47-2.16.21-10.14 1.5-10.14 1.5s-.06 2.6.03 6.73c.09 4.14 2.97 11.37 2.97 11.37s4.96-.22 6.82-.4c1.85-.18 6.16-3.96 6.16-3.96l-.42-4.36-4.35.16Zm-6.74-6.94 4.52-.03.19 1.97-4.39 1.4-.32-3.33ZM288.35 187.38l-18.12-7.61 1.46-5.06 9.4.78-7.99-5.01 1.34-4.44 18.94 4.24-1.96 5.88-6.47-2.15 3.19 2.56-.9 2.68-4.28.71 7.27 1.79-1.88 5.63zM254.85 226.52l11.11 7.01 2.02-3.4-8.56-5.54s-.48-2.13-.09-3.15 2.22-.57 2.22-.57.79-2.04.27-2.56c-.53-.52-3.37-1.37-4.01-.29-.64 1.08-.84 5.99-.84 5.99l-1.86-1.1-1.5 2.88 1.24.73ZM236.3 235.54s-5.24 1.41-6.88 6.34c-1.06 3.19.96 9.6 5.67 13.54 4.71 3.94 11.29 2.33 13.58-2.43 2.29-4.76.73-8.96.73-8.96l-3.68.16s1.07 6.1-3.07 7.42c-2.37.76-8.49-2.18-7.68-8.25.37-2.77 3.62-3.71 3.62-3.71l-2.29-4.12ZM237.13 230.23l18.97 16.09 3.11-3.33s-5.13-3.99-5.55-4.34-1.27-2.15.09-2.78c1.36-.63 7.89 3.61 7.89 3.61l1.89-2.41s-7-5.33-10.47-5.3c-3.47.03-2.84 4.01-2.84 4.01l-10.87-8.19-2.23 2.63ZM261.81 214.62l11.36 7.65 2.99-4.92-12.75-5.13-1.6 2.4zM257.05 210.82l-.15 1.43s1.04.75 1.68 1.16c.64.41 1.69-.23 1.98-.65.29-.42.6-1.82.49-1.94s-2.5-1.15-2.84-1.16c-.34-.01-1.16 1.16-1.16 1.16ZM267.27 197.67s-2.72.11-3.46 1.12c-.75 1.01-1.36 3.32-1.21 4.26.15.93 2.1 3.06 3.66 4.01 1.56.96 3.2-.13 4.31-.94 1.11-.81 2.03-2.29 3.47-2.16s3.08 1.8 2.9 3.68c-.19 1.89-3.76 2.86-3.76 2.86l.21 2.2s5.44.45 7.42-2.45c1.98-2.89.13-7.61-2.41-9.2-2.54-1.59-6.94.72-8.49 1.47-1.55.75-3.61-.67-3.44-1.33.18-.66 2.17-1.17 2.17-1.17l-1.35-2.36ZM284.31 191.54s-2.32 2.24-4.96 1.13c-1.19-.5-4.12-2.06-6.97-3.62l2.13-4.31-2.33-1.22-1.93 4.36c-2.59-1.43-4.68-2.61-4.68-2.61l-1.21 3.71s1.89.99 4.39 2.28l-1.73 3.91 2 .64 1.74-3.51c3.94 2.01 8.49 4.29 9.93 4.81 2.7.98 5.33 1 5.94-.31.61-1.31.7-3.71.7-3.71l-3.03-1.56ZM278.3 135.73s-.65 3.06-.21 5.58c.31 1.77 1.8 3.2 3.44 3.48 1.64.28 2.89-.96 4.08-2.72 1.37-2.02 2.39-3.57 4.27-3.18 1.88.38 1.84 2.74 1.48 3.75-.36 1.01-.66 1.49-.66 1.49l3.26 1.77s2.09-2.33 2.17-6.11c.11-4.87-3.15-6.72-6.23-6.24-4.02.63-5.05 5.44-6.8 5.71-1.95.3-1.32-3.12-1.32-3.12l-3.49-.4ZM287.02 151.52c-3.47-.03-12.14.1-12.14.1l-1.08 5.59s.8 1.34 4.1 3.01c3.29 1.68 15.94 6.46 15.94 6.46l1.48-4.98-7.44-2.69.69-2.95 7.57.98.93-5.42s-6.59-.06-10.06-.09Zm-2.61 3.41v3.69l-2.62-.56 1.07-3.46 1.55.33Z"/><path d="M186.62 4.97s-12.15 16.94 2.95 23.94c0 0 35.68 9.92 61.52 40.66 0 0 3.76 10.1 12.04 5.8s11.13-9.84 11.13-9.84-31.05-50.06-87.65-60.56Z" style="fill:#00673f"/><path d="M182.56 13.78s46.92 7.35 84.97 58.86l3.16-2.67s-28.06-46.24-86.17-61.4l-1.96 5.21Z" style="fill:#f73200"/><path d="M221.65 44.07s3.54-13.7 13.02-18.62l5.59 4.08s-10.37 2.09-14.09 17.54l-4.52-3ZM182.56 13.78l-10.8 6.88-3.38-7.82 12.99-1.83 2.94-.41-1.75 3.18z" style="fill:#f73200"/><path style="fill:#f73200" d="m184.52 8.57-6.69-5.74-5.65-.75 1.34 5.33 9.65 4.46 2.67-1.93-1.32-1.37z"/><path style="fill:#f7d400" d="m256.9 64.13 5.6 6.02 8.14-1.2-4 7.19 3.65 7.37-8.07-1.58-5.88 5.75-.99-8.17-7.29-3.81 7.46-3.46 1.38-8.11zM275.27 86.89l3.66 3.94 5.33-.78-2.62 4.7 2.39 4.83-5.28-1.04-3.85 3.77-.65-5.35-4.77-2.5 4.89-2.26.9-5.31zM233.08 257.75l2.98 3.2 4.32-.63-2.12 3.82 1.94 3.92-4.29-.85-3.13 3.06-.52-4.34-3.88-2.03 3.97-1.84.73-4.31z"/><path d="M288.79 129.52c.08-.34-.26-.39-.61-.68-.15-.12-.42-.16-.64-.32-.17-.12-.25-.43-.46-.57-.18-.12-.6.12-.81 0-.19-.11-.36-.28-.57-.39-.2-.1-.26-.51-.48-.61-.2-.09-.58.17-.8.07-.21-.09-.44-.12-.67-.21-.21-.08-.39-.32-.64-.4-.23-.07-.4-.41-.65-.47s-.51 0-.76-.04-.5-.04-.74-.08-.5-.07-.74-.1c-.25-.04-.54.2-.77.17-.26-.03-.5-.15-.73-.17-.28-.03-.51-.23-.72-.24-.45-.04-.63.38-.76.04s.43-.08.67-.49c.11-.18-.08-.56.03-.83.09-.21.29-.4.36-.66.06-.22.18-.46.23-.72.04-.23.16-.48.18-.75.02-.24-.04-.5-.04-.77 0-.24-.15-.48-.2-.71s-.32-.38-.41-.6-.01-.5-.14-.71-.19-.45-.34-.64-.34-.35-.5-.52c-.17-.18-.17-.54-.34-.69-.19-.17-.47-.23-.65-.37-.21-.17-.46-.24-.63-.36-.36-.25-.39-.06-.44-.41-.05-.38.11-.14.39-.52.13-.18.35-.35.5-.59.12-.2.29-.41.42-.65.11-.21-.2-.65-.09-.89.1-.22.45-.35.53-.6.08-.23.04-.51.11-.76s.14-.48.18-.74-.02-.5 0-.76c.02-.25.1-.48.1-.72s-.11-.48-.13-.71c-.03-.25.14-.52.09-.75-.05-.25 0-.52-.06-.75-.07-.25-.2-.47-.28-.69-.09-.25-.29-.44-.38-.64-.12-.25-.15-.52-.25-.7-.23-.39-.43-.11-.25-.42s-.22.25.11.54c.15.13.61-.05.81.12.16.14.4.21.59.37.17.14.08.63.27.78.18.14.45.17.64.32s.4.23.59.37.48.11.67.25.37.28.56.41.16.64.35.75.51.06.71.17.45.16.65.26c.22.1.52-.04.73.04.23.08.43.14.65.2.23.07.41.25.63.29.24.05.41.42.63.45.24.03.5-.11.71-.1.25 0 .5.16.71.14.26-.02.53 0 .72-.04.42-.08.53-.83.75-.58.25.27-.32.38-.41.83-.04.2.07.47.04.75-.02.22.14.47.14.73 0 .23-.46.48-.45.74.01.23.15.48.18.73.03.23.03.49.08.74.04.23.25.45.31.69.06.23-.08.53 0 .78.08.24.37.4.46.62.1.24.26.42.37.63.13.22.06.56.21.75.16.2.35.39.51.55.18.18.56.11.75.25.21.16.25.54.45.65.24.14.5.19.7.27.41.16.53-.18.61.17.07.33-.17 0-.54.23-.17.1-.45.14-.65.31-.16.14-.13.5-.3.69-.14.16-.42.23-.56.43-.12.18-.33.34-.44.55-.1.19.16.57.07.79-.08.2-.62.25-.7.48-.07.21.21.53.16.76-.05.21-.32.4-.36.63-.03.22-.09.45-.12.69-.02.22.32.48.31.72 0 .24-.04.45-.04.66 0 .25-.26.47-.25.67.01.26.09.48.12.66.03.28.18.46.22.63.16.52.46.9.53.59Z" style="fill:#00744d"/><path d="M273.98 121.15c-.07.04-.12.12-.17.17-.19.08-.41.19-.48.46-.07.26.03.52.15.74s.23.58.46.69c.21.09.5-.09.72-.13.02 0 .03-.12.05-.12.23-.02.29-.14.45-.29s.2-.21.2-.45c.06-.28.09-.44-.07-.66s-.21-.69-.48-.76c-.25-.06-.57.19-.84.35Zm.02 1.15s-.04.06-.03.08c-.03-.05.02-.14 0-.19 0 0-.02-.01-.03-.02.02.04.03.09.06.13Zm.04-.73s.1.03.14.03c-.08.04-.2.03-.24.1.02-.05.07-.08.1-.13Zm.68-.24c.12.03.26.08.33.16-.03 0-.08-.02-.11-.02-.09-.07-.23-.08-.34-.13.04 0 .09-.01.12 0ZM281.27 128.86c-.03.07-.12.14-.13.21-.07.31.07.72.26.98.18.24.45.58.73.65s.67-.09.94-.19c.21-.03.29-.3.43-.45.14-.15.35-.25.33-.45.02-.11-.14-.22-.15-.34-.02-.23-.04-.43-.18-.59s-.28-.38-.48-.46-.47-.25-.68-.24-.44.25-.62.37c-.17.12-.35.29-.43.52Zm.34.35s-.05.1-.03.14c0 .07.21.05.23.12-.05-.1.11-.15.1-.27h-.3ZM291.01 122.62c-.13.09-.05.42-.13.58-.1.21.08.37.14.59s.08.35.25.49.29.26.52.26c.24 0 .63.22.81.08s.07-.58.13-.81.38-.55.27-.77c-.09-.18-.52-.15-.7-.25s-.36-.07-.56-.07-.58-.26-.73-.11Zm1.48 1.49s-.19-.12-.21-.1c-.16.21-.52.08-.67 0 .2.01.76.23.88.1Zm.03-.88c-.09-.13-.47-.07-.62-.08.19-.03.53-.01.61.13l.02-.05ZM290.12 113.69c-.24.12-.21.46-.3.68s0 .35.07.6c.07.26-.07.6.14.77s.49.27.77.27c.25 0 .38-.27.58-.42s.64-.16.7-.41c.05-.22-.36-.38-.44-.57s.02-.45-.14-.58-.29-.4-.49-.44c-.25-.11-.63-.03-.89.1Zm.8 1.52c.12-.05-.02-.26 0-.37 0 0 .43-.04.44-.05 0 .06-.31.17-.37.22-.06.06-.03.2-.08.19Zm.43-.92s.04-.08.05-.09c.03.03.09.45.12.49-.04-.03-.13-.37-.17-.4Zm-.49-.26c-.06 0-.11.26-.17.28-.03-.01-.32-.27-.36-.27.04 0 .33.12.37.12.05 0 .09-.02.13-.02 0 0 .01-.11.02-.11Z" style="fill:#f61f49"/><path d="M279.27 112.24c.04.24-.09.51-.04.76s.11.48.17.72-.13.54-.07.78.07.5.15.74.13.48.21.72.62.31.7.54-.28.64-.18.87.66.26.76.48-.24.65-.13.88.56.27.68.49-.05.59.07.81.55.25.68.46.16.48.3.69.4.32.54.53-.06.65.08.85c.15.21.54.24.71.45s.41.33.58.53.17.54.34.74.43.31.61.49c.16.16.52-.13.34-.32-.17-.18-.66-.06-.82-.24s-.16-.52-.31-.7-.44-.28-.59-.47-.34-.36-.49-.56-.27-.41-.41-.61-.17-.48-.3-.69-.18-.47-.31-.67-.13-.49-.25-.7-.36-.36-.48-.57-.2-.44-.31-.66-.39-.36-.49-.58-.21-.45-.3-.67.21-.61.12-.83-.49-.34-.57-.57-.01-.51-.08-.74c-.07-.25-.47-.4-.53-.65s.11-.56.05-.81-.18-.49-.23-.74.09-.54.05-.79c-.04-.22-.28-.16-.24.08Z" style="fill:#ffe4cc"/><path d="M132.88 283.73c-.52-.04-.06-.13-.34-.75-.12-.26-.36-.52-.49-.91-.1-.29 0-.67-.09-1.04-.08-.31-.53-.56-.59-.93-.06-.32-.05-.68-.1-1.04-.04-.31.25-.67.25-1.04 0-.33-.36-.69-.34-1.04s-.01-.7.02-1.05.23-.69.27-1.02c.05-.38.36-.69.4-.99.09-.62.41-.87 0-1.17s-.45.23-1.09.38c-.29.07-.61.13-1.02.14-.31.01-.68.25-1.06.21-.32-.04-.67-.18-1.04-.27-.33-.08-.58-.36-.86-.53s-.61-.29-.85-.52-.27-.64-.46-.91c-.21-.28-.65-.39-.81-.67-.18-.32-.23-.68-.34-.95-.24-.54.11-.77-.33-.99-.42-.21-.41.09-.95.29-.25.09-.53.26-.87.35-.28.08-.56.26-.89.32-.3.05-.6.3-.92.33-.31.02-.64-.14-.97-.15s-.62-.11-.94-.16c-.31-.05-.62-.08-.9-.16-.3-.09-.5-.41-.76-.52-.29-.13-.61-.14-.86-.28-.28-.16-.58-.26-.81-.43-.28-.2-.41-.51-.6-.69-.41-.37-.57-.97-.8-.58-.25.42.1.45.38.98.13.25.24.55.4.88.13.27.67.38.81.69.13.29.03.69.15 1s.35.56.47.87.21.63.3.93.28.62.35.92c.08.33.07.68.1.98.04.32.14.63.14.91 0 .32-.2.62-.23.9-.03.33-.2.59-.26.86-.08.34-.13.63-.22.86-.21.52-.55.43-.32.81s.32.06.9.11c.26.02.52.21.86.28.27.05.54.13.86.22.27.08.69-.21.99-.09.27.11.6.16.89.3.26.13.34.64.62.8.28.16.59.22.81.41.25.2.5.37.69.59.21.24.55.4.69.64.17.28.29.59.39.86.12.32-.21.73-.16.99.1.54-.13.86.31.91.5.05.21-.4.69-.79.22-.18.39-.58.74-.75.27-.14.62-.29.97-.39.3-.09.68-.04 1.04-.09.31-.04.66.25 1.02.25.32 0 .65-.13 1-.09.32.04.62.23.97.3.39.08.69.2.98.27.42.11.88-.2 1.12-.1.84.35 1.21.6.7.56Z" style="fill:#00744d"/><path d="M129.18 270.64c.43.1.8-.19.93-.61 0-.02.08 0 .08-.02.08-.19.06-.4.02-.61-.09-.47-.47-1.06-.97-1.05-.26 0-.41.31-.52.47-.06.04-.04.16-.09.22-.31.31-.24.54-.1.87.14.36.25.71.65.73Zm.3-1.51.04-.03c.04.03.04.11.07.15-.01 0-.01-.02-.02-.02-.03-.03-.06-.07-.09-.09Zm-.4-.07c-.07.03-.12.1-.17.17 0-.04.02-.07.03-.1.05-.02.09-.06.14-.07Zm-.51.48c.02.11.08.22.12.32 0 .03-.02.05-.02.08-.05-.09-.13-.17-.13-.29 0-.04.03-.08.03-.11ZM133.7 279.65c.11.04.21.14.31.14.17.06.42 0 .59-.1.17-.09.44-.21.52-.39.15-.22.13-.6.13-.87s-.26-.46-.44-.68c-.19-.23-.39-.5-.68-.51-.07 0-.13.15-.2.15-.39.04-.64.19-.78.48s-.26.68-.16 1.01.37.64.71.76Zm.43-1.91-.02.07c.11.03.17-.01.24.05-.06-.03.04-.3-.02-.31-.03-.03-.12.07-.15.05l-.05.14ZM126.09 286.58c.27.24.77.07 1.06-.05s.36-.4.44-.73c.07-.31.05-.49-.16-.72s-.4-.37-.73-.31c-.17.03-.46-.18-.57-.09-.26.15-.13.65-.12.95s-.12.77.09.95Zm1.35-.64c.04.15-.11.11-.33.21-.02 0-.14-.17-.16-.17.15-.08.46.14.5-.04Zm-.76-.08c-.12-.1-.34-.08-.26-.25-.03.14.16.18.26.29v-.05ZM118.04 282.7c0 .28.3.47.49.7s.33.21.64.21c.47 0 .94-.09 1.05-.55.06-.25 0-.52-.11-.75s-.4-.25-.61-.37c-.42-.23-.99-.44-1.31-.06-.17.2-.19.58-.14.83Zm1.19.27c-.06.04-.16.25-.21.23 0 0 .07-.4.08-.4.1 0 .25.24.31.14 0 .05-.11-.02-.19.03Zm-.65.22s-.13.04-.15 0c0 0 .38-.19.38-.2.01.04-.25.16-.23.2Zm-.03-.52s-.22-.14-.2-.18c.01-.04.14-.27.16-.3 0 .03-.02.3-.02.33-.03.05-.03.11-.04.17 0 0 .11 0 .1-.01Z" style="fill:#f61f49"/><path d="M119.49 271.36c.29.12.51.41.8.54s.57.27.85.42.43.51.7.67.5.37.77.54.51.35.77.53.78 0 1.03.2.21.74.45.94.79.05 1.02.26.14.76.37.98.7.2.91.43.19.67.4.91c.21.25.67.29.87.55s.31.58.49.85.49.46.67.73c.11.18-.22.43-.34.23-.17-.26-.56-.37-.74-.63s-.44-.44-.63-.68-.21-.62-.41-.86-.48-.4-.69-.63-.21-.66-.43-.88-.72-.14-.95-.35-.32-.57-.55-.77-.57-.28-.81-.47-.52-.33-.77-.51-.49-.37-.75-.54-.45-.44-.72-.59c-.27-.16-.51-.4-.79-.55s-.51-.41-.8-.55-.64-.15-.93-.27c-.19-.08.05-.59.25-.5Z" style="fill:#ffe4cc"/><circle cx="7.67" cy="160.43" r="2.74" style="fill:#f7ffff"/><path d="M.15 156.6s4.36-12.21 8.88-8.58 9.41 32.06 25.04 39.36c0 0-3.05 6.02-11 5.33 0 0 13 31.37 37.61 32.8 0 0-1 9.95-10.97 10.84 0 0 18.95 25.13 53.21 25.48 0 0-.99 19.66-25.44 19.49 0 0-71.34-30.78-77.32-124.72Z" style="fill:#007048"/><circle cx="33.03" cy="187.04" r="3.92" style="fill:#ffff50"/><circle cx="15.15" cy="198.25" r="3.92" style="fill:#ffff50"/><circle cx="13.1" cy="164.79" r="3.92" style="fill:#ffff50"/><circle cx="46.48" cy="227.59" r="3.92" style="fill:#ffff50"/><circle cx="47.61" cy="248.23" r="3.92" style="fill:#ffff50"/><circle cx="78.2" cy="265.18" r="3.92" style="fill:#ffff50"/><circle cx="8.25" cy="178.94" r="2.27" style="fill:#fff"/><circle cx="27.87" cy="215.57" r="3.34" style="fill:#fff"/><circle cx="91.49" cy="267" r="3.34" style="fill:#fff"/><circle cx="60.93" cy="261.84" r="3.34" style="fill:#fff"/><path style="fill:#f7d400" d="m96.98 266.53 5.6 6.03 8.14-1.2-4 7.19 3.66 7.37-8.08-1.59-5.88 5.76-.99-8.17-7.28-3.82 7.46-3.46 1.37-8.11zM14.67 134.2l.23 6.57 5.55 3.53-6.18 2.25-1.65 6.36-4.05-5.17-6.56.4 3.68-5.45-2.41-6.12 6.32 1.81 5.07-4.18z"/></svg>