<?xml version="1.0" encoding="UTF-8"?>
<svg id="_層_1" xmlns="http://www.w3.org/2000/svg" viewBox="0 0 300 300">
    <path d="M252.77,41.77c.35-1.68-.52-1.22-2.1-2.77-.68-.67-1.46-1.55-2.44-2.44-.77-.7-1.43-1.71-2.38-2.52-.82-.69-2.06-1.02-3.01-1.78-.85-.68-2.28-.7-3.24-1.42-.88-.66-1.12-2.27-2.08-2.96-.9-.64-1.93-1.19-2.91-1.85-.92-.62-2.32-.58-3.31-1.22s-1.2-2.36-2.2-2.97-2.33-.53-3.34-1.11-2.19-.72-3.22-1.27-2.09-.89-3.12-1.42-1.61-1.87-2.66-2.37-2.01-1.09-3.07-1.57-2.36-.29-3.43-.74-2.37-.18-3.45-.61-1.81-1.6-2.9-2-2.39-.06-3.48-.44-2.19-.58-3.29-.93-2.11-.8-3.22-1.13-1.85-1.81-2.96-2.11-2.47,.45-3.59,.17-2.14-.78-3.27-1.03-1.96-1.78-3.09-2-2.6,1.48-3.74,1.28-2.08-1.3-3.22-1.48-2.25-.31-3.4-.47-2.36,.59-3.51,.46-2.22-.52-3.37-.63-2.18-1.29-3.33-1.37-2.32,.56-3.47,.5-2.23-1.43-3.39-1.47-2.32,1.17-3.48,1.15-2.25-.42-3.38-.4-2.28-.54-3.41-.49-2.15,1.69-3.28,1.78-2.33-.92-3.46-.8-2.19,.63-3.32,.77-2.26,.1-3.38,.27-2.04,1.37-3.16,1.57-2.5-1.11-3.61-.88-2.23,.43-3.33,.68-2.31,.09-3.41,.36-2.02,1.24-3.11,1.54-2.32,.13-3.4,.45-1.92,1.46-3,1.8-2.18,.58-3.26,.94-1.8,1.69-2.86,2.06-2.07,.86-3.12,1.26-2.61-.5-3.66-.08-1.96,1.19-2.99,1.63-2.04,.97-3.07,1.43-2.08,.88-3.1,1.35-2.49,.07-3.49,.57-1.88,1.32-2.88,1.84-1.32,2.34-2.3,2.87-2.11,.83-3.09,1.39-1.67,1.59-2.63,2.17-1.98,1.06-2.93,1.66-2.14,.83-3.08,1.45-1.58,1.67-2.49,2.32-1.79,1.35-2.69,2.01-2.93-.11-3.81,.58-1.23,2.11-2.08,2.82-2.43,.67-3.27,1.42-.88,2.41-1.69,3.18-2.06,1.14-2.84,1.94-2,1.27-2.75,2.1-.93,2.43-1.64,3.29c.79,1.57,2.07,.52,3.28,1.79s.35,2.08,1.55,3.35,1.01,1.45,2.22,2.72,1.36,1.13,2.57,2.4,1.75,.75,2.96,2.02,.4,2.04,1.61,3.31,1.19,1.29,2.4,2.57,1.12,1.72,2.69,2.51,.83-1.59,2.49-3.08c.72-.65,2.51-.34,3.53-1.2,.8-.68,.9-2.36,1.88-3.14,.85-.68,1.62-1.58,2.59-2.32,.88-.67,1.55-1.73,2.52-2.44,.9-.65,1.91-1.26,2.89-1.94,.92-.64,2.21-.82,3.2-1.47,.94-.62,2.24-.72,3.25-1.35s2.26-.65,3.27-1.25,1.16-2.55,2.19-3.12,2.69,.14,3.72-.41,1.24-2.59,2.29-3.11,2.89,.7,3.95,.2,1.62-1.95,2.68-2.42,2.16-.79,3.24-1.24,1.8-1.71,2.88-2.13,2.31-.43,3.4-.82,2.16-.81,3.27-1.18,2.49,.25,3.6-.09,2.06-1.14,3.18-1.44,2.44,.3,3.57,.03,2.03-1.39,3.17-1.63,2.07-1.47,3.21-1.68,2.6,1.62,3.75,1.44,2.14-1.22,3.3-1.36,2.3-.02,3.46-.12,2.26-.67,3.42-.74,2.32,.4,3.48,.36,2.28-1.38,3.46-1.36,2.29,.49,3.47,.57,2.27,.4,3.44,.52,2.32-.07,3.48,.1,2.34-.02,3.49,.18,1.91,2.18,3.06,2.41,2.43-.45,3.57-.18,2.19,.68,3.32,.97,2.22,.56,3.34,.87,2.18,.72,3.29,1.06,2.49-.24,3.6,.13,2.19,.76,3.28,1.15,1.88,1.57,2.97,1.98,2,1.18,3.08,1.61,2.25,.55,3.32,.99,2.21,.68,3.27,1.14,2.06,1.02,3.12,1.5,2.28,.56,3.33,1.06,2,1.17,3.03,1.69,1.57,1.96,2.6,2.5,2.75-.25,3.77,.3,1.66,1.77,2.66,2.35,1.65,1.74,2.64,2.33,2.39,.5,3.37,1.11,1.4,2.08,2.37,2.71,2.28,.71,3.24,1.36,1.47,1.91,2.42,2.58,2.18,.89,3.11,1.57,2.22,1.22,3.14,1.91c1.26-1.17,.29-1.87,1.09-3.39s1.56-1.12,2.36-2.64,.79-1.53,1.59-3.04,.1-1.89,.91-3.41,.4-1.74,1.2-3.26,2.11-.83,2.92-2.35-.24-2.13,.71-3.57,1.65-1.11,2-2.8Z"
          style="fill:#c9002a;"/>
    <g>
        <path d="M57.09,45.99c.28,.39,.49,.82,.77,1.21,.88,1.24,1.23,1.62,2.6,.64,.91-.65,1.3-1.32,.57-2.34-.41-.57-.93-1.04-1.34-1.61-.46-.65-.64-1.22,.09-1.74,.37-.26,1.33-.88,1.79-.79,1.46,.24,3.84,3.72,4.72,4.95,.68,.96,2.35,3.43,2.49,4.55,.02,.22,0,.44-.07,.66-.2,.61-.84,1.09-1.33,1.44-.82,.58-1.67-.51-2.1-1.12-.4-.56-.72-1.17-1.11-1.73-.68-.96-1.41-.51-2.19,.04-1.04,.74-1.1,1.44-.36,2.47,.38,.53,.85,1,1.25,1.56,.51,.71,.89,1.35,0,1.98-.37,.26-.91,.62-1.35,.73-1.35,.33-3.82-3.16-4.5-4.12-.78-1.1-2.95-4.13-3.09-5.35-.02-.22-.02-.45,.06-.67,.2-.61,.75-1,1.26-1.37,.79-.56,1.35-.03,1.83,.63Z"
              style="fill:#fff;"/>
        <path d="M78.39,38.23c1.9,3.14,1.07,7.41-2.13,9.35-3.36,2.04-7.47,1.08-9.52-2.3-1.92-3.17-1.16-7.34,2.08-9.3,3.38-2.05,7.5-1.19,9.58,2.24Zm-3.19,2.4c-1.01-1.67-2.54-3.42-4.63-2.15-2.05,1.24-1.25,3.44-.24,5.1,.99,1.64,2.6,2.46,4.38,1.39,1.56-.95,1.33-2.98,.5-4.35Z"
              style="fill:#fff;"/>
        <path d="M78.74,36.87c-.55-1.06-2.14-4.24-1.34-5.34,.52-.69,2.27-1.66,3.08-2.08,2.58-1.33,6.01-1.28,7.5,1.61,2.43,4.71-3.84,6.81-4,7.3-.06,.25,.3,1,.42,1.24,.22,.42,.49,.82,.7,1.24,.38,.73,.39,1.21-.4,1.62-.44,.23-.92,.45-1.41,.49-1.28,.13-3.1-3.28-3.61-4.26l-.94-1.82Zm3.35-1.75c.45,.88,.78,.81,1.59,.4,1.18-.61,1.59-1.89,.98-3.07-.57-1.1-1.99-1.03-2.95-.53l-.42,.22c-.47,.24-.4,.63-.22,1.03l1.01,1.96Z"
              style="fill:#fff;"/>
        <path d="M95.75,33.94c.96-.42,1.91-.9,2.86-1.32,.85-.37,1.1-.19,1.46,.63,.63,1.44-.89,2.42-2.02,2.92-1.24,.54-2.63,1.28-3.99,1.31-1.52,.04-2.32-.85-2.98-2.11-.43-.83-.82-1.67-1.19-2.53-.31-.7-.62-1.37-.93-2.06-1.92-4.38,.04-5.29,3.79-6.93,.78-.34,1.82-.59,2.63-.24,.48,.2,.78,.69,.98,1.15,.33,.75-.81,1.23-1.33,1.46-.57,.25-1.19,.42-1.76,.67-.99,.43-1.47,.62-.96,1.79,.37,.85,1.44,.45,2.07,.17,.52-.23,1.02-.51,1.54-.74,.44-.19,.99-.35,1.43-.11,.27,.15,.5,.65,.62,.93,.1,.23,.19,.52,.15,.76-.12,.63-1.9,1.29-2.46,1.54-.43,.19-1.31,.51-1.52,.94-.08,.16-.06,.34-.03,.51,.05,.27,.17,.53,.28,.77,.27,.63,.74,.78,1.36,.5Z"
              style="fill:#fff;"/>
        <path d="M112.79,28.82c-.13-.44-.22-.87-.35-1.29-.98-3.26-5.57-5.79-6.2-7.88-.23-.76,1.5-1.36,2.02-1.52,.35-.1,.79-.2,1.12-.02,.73,.38,2.81,3.56,3.27,3.42,.67-.2,.43-3.64,.73-4.37,.24-.61,.78-.79,1.36-.96,.62-.19,1.93-.58,2.19,.29,.52,1.73-1.39,6.61-.96,9.22,.07,.36,.16,.67,.26,1.01,.63,2.09,.85,2.64-1.46,3.34-1.17,.35-1.68-.17-2-1.25Z"
              style="fill:#fff;"/>
        <path d="M132.79,18.86c.75,3.59-1.46,7.35-5.12,8.11-3.85,.8-7.41-1.46-8.21-5.33-.76-3.63,1.35-7.31,5.05-8.08,3.87-.81,7.47,1.38,8.29,5.3Zm-3.81,1.2c-.4-1.92-1.25-4.07-3.65-3.57-2.34,.49-2.32,2.83-1.93,4.73,.39,1.88,1.64,3.19,3.66,2.77,1.79-.37,2.24-2.37,1.92-3.93Z"
              style="fill:#fff;"/>
        <path d="M136.31,12c.26,.12,.39,.38,.48,.65,.3,1,.44,2.05,.56,3.09,.16,1.42,.19,2.83,.35,4.24,.14,1.21,.47,2.28,1.92,2.12,1.4-.16,1.77-.93,1.62-2.25-.23-2.06-.52-4.09-.75-6.15-.11-.98-.43-2.26,.95-2.42,.66-.07,1.32-.15,1.9,.22,.87,.55,1.26,3.72,1.37,4.7,.11,.98,.2,1.97,.31,2.95,.08,.74,.04,1.49-.21,2.2-.72,2.11-2.65,3.42-4.82,3.66-3.08,.35-5.78-1.41-6.18-4.58-.08-.7-.17-1.38-.25-2.07-.13-1.13-.49-4.69,.04-5.59,.35-.59,1.27-.79,1.89-.86,.26-.03,.59-.03,.83,.08Z"
              style="fill:#fff;"/>
        <path d="M161.1,24.33c-3.7-.18-6.82-3.33-6.63-7.09,.2-3.99,3.29-6.84,7.3-6.64,1.35,.07,3.2-.05,3.99,1.28,.26,.45,.29,1.14,.26,1.65-.02,.44-.18,.52-.6,.5-1.02-.05-1.84-.45-2.91-.51-2.71-.13-3.96,1.12-4.09,3.79-.12,2.37,.9,4.02,3.41,4.15,1.1,.05,1.04-.56,1.08-1.43,.04-.85-.03-1.31-1-1.36-.13,0-.27,0-.42,0-.82-.04-1.04-.57-1-1.29,.05-1.06,.48-1.56,1.58-1.5,.42,.02,.81,.08,1.21,.1,.63,.03,1.25,.06,1.86,.15,.91,.12,1.35,.47,1.47,1.41,.08,.59,.05,1.22,.02,1.83-.22,4.4-1.15,5.17-5.54,4.96Z"
              style="fill:#fff;"/>
        <path d="M172.85,22.37c1.03,.15,2.1,.25,3.13,.4,.92,.13,1.03,.42,.91,1.3-.23,1.56-2.04,1.58-3.26,1.41-1.33-.19-2.91-.31-4.08-1-1.31-.77-1.52-1.95-1.41-3.37,.08-.93,.19-1.85,.33-2.77,.11-.75,.2-1.49,.31-2.24,.69-4.74,2.84-4.46,6.88-3.88,.85,.12,1.85,.46,2.36,1.19,.3,.43,.3,1,.22,1.49-.12,.81-1.34,.61-1.9,.53-.62-.09-1.23-.27-1.85-.36-1.07-.16-1.58-.25-1.76,1.01-.13,.92,.99,1.14,1.66,1.24,.56,.08,1.14,.11,1.7,.19,.47,.07,1.02,.23,1.27,.66,.15,.27,.07,.82,.03,1.12-.04,.24-.12,.54-.28,.73-.43,.47-2.3,.09-2.9,0-.47-.07-1.38-.26-1.78,0-.15,.09-.23,.25-.29,.42-.09,.25-.14,.54-.17,.8-.1,.68,.21,1.05,.89,1.15Z"
              style="fill:#fff;"/>
        <path d="M189.68,18.41c-.28-.07-.53-.17-.8-.23-1.33-.32-1.8,.64-2.06,1.75-.18,.76-.32,1.51-.5,2.26-.22,.92-1.2,4.75-1.93,5.18-.41,.23-.92,.09-1.35-.01-.37-.09-.84-.18-1.11-.44-.79-.78-.04-3.84,.2-4.84,.23-.94,.49-1.86,.71-2.8,.11-.44,.2-.91,.23-1.37,.11-2.07-3.23-.87-2.81-2.63,.09-.39,.38-1.24,.72-1.45,.84-.5,3.52,.08,4.48,.31,1.13,.27,5.39,1.06,5.56,2.55,.01,.18-.12,.97-.17,1.17-.15,.63-.65,.67-1.18,.54Z"
              style="fill:#fff;"/>
        <path d="M199.67,32.51c-.46-.19-.92-.41-1.27-.76-1.03-1.03,1.01-5.61,1.49-6.77,.51-1.21,1.07-2.42,1.76-3.53,.29-.45,.84-1.21,1.36-1.39,1.05-.34,3.42,.63,4.44,1.05,2.37,.99,4.33,3.48,3.23,6.11-.19,.46-.46,.86-.88,1.16-.62,.46-1.36,.75-2.12,.88-.08,0-.42,.07-.46,.16-.05,.12,.25,.78,.31,.93,.27,.77,.06,3.75-.26,4.52-.26,.61-2.1-.05-2.54-.24-2.26-.94,1.04-4.57-1.88-5.79-.44-.18-.93,.99-1.06,1.31-.18,.42-.31,.88-.49,1.32-.34,.81-.66,1.43-1.64,1.02Zm4.14-7.1c-.14,.33-.32,.86,.12,1.04,1.28,.54,2.55,.9,3.21-.68,.39-.93-.3-1.9-1.14-2.25l-.51-.21c-.54-.23-.85,.12-1.05,.59l-.63,1.51Z"
              style="fill:#fff;"/>
        <path d="M214.54,33.45c-.43,.87-1.7,3.27-2.42,3.82-.55,.42-1.18,.45-1.79,.14-.41-.2-.84-.44-1.1-.82-.57-.86,1.07-4.22,1.51-5.1,.37-.73,.69-1.46,1.05-2.19,.49-.99,2.12-4.14,3.31-4.2,.35-.02,.66,.08,.98,.24,.44,.22,.77,.37,1.04,.8,.53,.84-.71,3.53-1.12,4.37l-1.48,2.96Z"
              style="fill:#fff;"/>
        <path d="M223.17,40.91c.38,.22,.53,.44,.29,.85-.26,.44-.82,1.33-1.33,1.46-.86,.23-2.92-.76-3.68-1.19-3.37-1.96-4.09-5.96-2.19-9.23,1.83-3.15,5.67-4.64,8.95-2.73,.28,.16,.56,.33,.83,.5,.59,.39,1.88,1.45,2.03,2.15,.13,.6-.35,1.4-.65,1.91-.16,.28-.33,.45-.65,.26-.89-.52-1.49-1.37-2.38-1.89-1.87-1.09-3.66,.02-4.64,1.71-1.04,1.79-1.17,4.02,.83,5.18,.8,.47,1.78,.53,2.6,1.01Z"
              style="fill:#fff;"/>
        <path d="M233.3,37.37c-.27,.39-.6,.74-.88,1.13-.87,1.25-1.11,1.7,.28,2.67,.92,.64,1.68,.77,2.4-.26,.4-.58,.67-1.23,1.07-1.8,.46-.66,.94-1.02,1.67-.51,.38,.26,1.28,.96,1.35,1.42,.26,1.45-2.21,4.88-3.06,6.11-.67,.97-2.43,3.38-3.44,3.88-.2,.09-.41,.16-.64,.16-.64,.02-1.3-.42-1.8-.77-.83-.57-.08-1.75,.34-2.36,.39-.56,.86-1.07,1.25-1.63,.67-.97,0-1.5-.78-2.04-1.05-.73-1.72-.55-2.45,.5-.37,.53-.65,1.14-1.04,1.7-.5,.72-.97,1.29-1.86,.68-.38-.26-.89-.64-1.14-1.02-.77-1.16,1.68-4.66,2.36-5.63,.77-1.11,2.89-4.17,3.99-4.72,.2-.09,.42-.17,.65-.17,.64-.02,1.2,.37,1.72,.73,.8,.55,.49,1.26,.02,1.94Z"
              style="fill:#fff;"/>
    </g>
    <path d="M111.42,39.72c0,.89,.63,1.95,.22,2.67s-1.32,1.34-2.06,1.78-1.67,.12-2.57,.12-1.84,.28-2.56-.14-1.01-1.38-1.44-2.13-.59-1.42-.59-2.31,.01-1.68,.43-2.4,.71-1.86,1.45-2.29,1.81-.05,2.71-.05,1.94-.29,2.66,.13,1.2,1.38,1.63,2.13,.12,1.58,.12,2.48Z"
          style="fill:#fff;"/>
    <path d="M47.86,56.06c0,.89,.63,1.95,.22,2.67s-1.32,1.34-2.06,1.78-1.67,.12-2.57,.12-1.84,.28-2.56-.14-1.01-1.38-1.44-2.13-.59-1.42-.59-2.31,.01-1.68,.43-2.4,.71-1.86,1.45-2.29,1.81-.05,2.71-.05,1.94-.29,2.66,.13,1.2,1.38,1.63,2.13,.12,1.58,.12,2.48Z"
          style="fill:#fff;"/>
    <path d="M16.47,148.47c0,1.33,.94,2.9,.32,3.98s-1.96,2-3.06,2.64-2.49,.19-3.82,.19-2.74,.42-3.81-.2-1.5-2.06-2.14-3.17-.88-2.1-.88-3.43,.02-2.5,.64-3.57,1.05-2.76,2.16-3.4,2.7-.07,4.03-.07,2.88-.43,3.96,.19,1.79,2.06,2.43,3.17,.18,2.36,.18,3.69Z"
          style="fill:#fff;"/>
    <path d="M26.87,159.79c0,.93,.66,2.02,.22,2.77s-1.36,1.39-2.14,1.84-1.74,.13-2.66,.13-1.91,.29-2.66-.14-1.04-1.44-1.49-2.21-.62-1.47-.62-2.39,.02-1.74,.45-2.49,.73-1.93,1.51-2.37,1.88-.05,2.81-.05,2.01-.3,2.76,.13,1.25,1.44,1.69,2.21,.13,1.64,.13,2.57Z"
          style="fill:#fff;"/>
    <path d="M261.1,58.4c0,.76,.54,1.67,.18,2.28s-1.12,1.15-1.76,1.52-1.43,.11-2.19,.11-1.57,.24-2.19-.12-.86-1.18-1.23-1.82-.51-1.21-.51-1.97,.01-1.43,.37-2.05,.6-1.59,1.24-1.95,1.55-.04,2.31-.04,1.65-.25,2.27,.11,1.02,1.18,1.39,1.82,.1,1.35,.1,2.11Z"
          style="fill:#fff;"/>
    <path d="M253.65,45.36c0,.89,.15,1.78-.27,2.5s-1.22,1.17-1.96,1.6-1.47,.15-2.37,.15-1.59,.18-2.32-.24-1.49-.82-1.92-1.56-.54-1.55-.54-2.45,.27-1.64,.69-2.36,.94-1.37,1.68-1.8,1.51-.73,2.4-.73,1.86,0,2.59,.42,.94,1.45,1.37,2.19,.63,1.39,.63,2.29Z"
          style="fill:#fff;"/>
    <path d="M196.87,35.44c0,1.31-.87,2.56-1.49,3.62s-1.95,1.34-3.04,1.97-1.91,1.2-3.22,1.2-2.68,.29-3.73-.33-2.49-1.42-3.12-2.51-.44-2.65-.44-3.96,.65-2.42,1.26-3.48,1.31-2.17,2.4-2.81,2.32-.48,3.63-.48,2.39,.18,3.45,.8,2.2,1.26,2.83,2.35,1.48,2.31,1.48,3.62Z"
          style="fill:#fff;"/>
    <path d="M39.61,70.96c-1.45,.07-1.44,.27-2.89,.33s-1.45,.08-2.9,.15-1.46-.13-2.91-.07c-1.19,.05-2.14-.77-2.2-1.96-.02-.52,.02-.52,0-1.04-.05-1.19,.76-2.25,1.95-2.31,1.45-.07,1.46,.04,2.91-.03s1.45-.09,2.9-.16,1.46,.02,2.91-.05c1.19-.05,2.11,.76,2.16,1.95,.02,.52,.12,.51,.14,1.03,.05,1.19-.87,2.09-2.07,2.14Z"
          style="fill:#c9002a;"/>
    <path d="M53.6,84.48c-1.36-1.46-1.26-1.55-2.62-3s-1.3-1.52-2.66-2.98-1.37-1.45-2.73-2.91c-.94-1-.97-2.53,.04-3.46,.73-.68,.65-.77,1.38-1.45,1-.94,2.67-.78,3.61,.22,1.36,1.46,1.3,1.51,2.66,2.97s1.42,1.41,2.78,2.87,1.3,1.52,2.66,2.98c.94,1,.93,2.49-.07,3.43-.73,.68-.69,.73-1.42,1.41-1,.94-2.69,.93-3.62-.07Z"
          style="fill:#c9002a;"/>
    <path d="M22.39,133.47s-.06,0-.09,0c-.55-.05-.96-.54-.91-1.09,3.82-41.82,25.5-67.79,25.72-68.04,.36-.42,.99-.47,1.41-.12,.42,.36,.47,.99,.12,1.41-.21,.25-21.49,25.77-25.25,66.93-.05,.52-.48,.91-1,.91Z"
          style="fill:#866100;"/>
    <path d="M30.68,66.13c-.6,1.2,.08,1.33,.14,2.67s-.6,1.53,.11,2.67c.4,.64,1.13,.61,1.47-.06,.6-1.2-.02-1.34-.08-2.68s.35-1.44-.13-2.69c-.3-.77-1.17-.59-1.51,.09Z"
          style="fill:#f9cb00;"/>
    <path d="M56.95,77.73c-1.68,.39-1.25,1.18-2.52,2.35s-2.07,.65-2.61,2.29c-.3,.92,.4,1.64,1.34,1.42,1.68-.39,1.25-1.17,2.52-2.34s1.73-.79,2.56-2.3c.52-.94-.35-1.63-1.29-1.41Z"
          style="fill:#f9cb00;"/>
    <path d="M33.42,81.27c-1.45,.07-1.44,.27-2.89,.33s-1.45,.08-2.9,.15-1.46-.13-2.91-.07c-1.19,.05-2.14-.77-2.2-1.96-.02-.52,.02-.52,0-1.04-.05-1.19,.76-2.25,1.95-2.31,1.45-.07,1.46,.04,2.91-.03s1.45-.09,2.9-.16,1.46,.02,2.91-.05c1.19-.05,2.11,.76,2.16,1.95,.02,.52,.12,.51,.14,1.03,.05,1.19-.87,2.09-2.07,2.14Z"
          style="fill:#c9002a;"/>
    <path d="M47.41,94.79c-1.36-1.46-1.26-1.55-2.62-3s-1.3-1.52-2.66-2.98-1.37-1.45-2.73-2.91c-.94-1-.97-2.53,.04-3.46,.73-.68,.65-.77,1.38-1.45,1-.94,2.67-.78,3.61,.22,1.36,1.46,1.3,1.51,2.66,2.97s1.42,1.41,2.78,2.87,1.3,1.52,2.66,2.98c.94,1,.93,2.49-.07,3.43-.73,.68-.69,.73-1.42,1.41-1,.94-2.69,.93-3.62-.07Z"
          style="fill:#c9002a;"/>
    <path d="M24.48,76.44c-.6,1.2,.08,1.33,.14,2.67s-.6,1.53,.11,2.67c.4,.64,1.13,.61,1.47-.06,.6-1.2-.02-1.34-.08-2.68s.35-1.44-.13-2.69c-.3-.77-1.17-.59-1.51,.09Z"
          style="fill:#f9cb00;"/>
    <path d="M50.75,88.04c-1.68,.39-1.25,1.18-2.52,2.35s-2.07,.65-2.61,2.29c-.3,.92,.4,1.64,1.34,1.42,1.68-.39,1.25-1.17,2.52-2.34s1.73-.79,2.56-2.3c.52-.94-.35-1.63-1.29-1.41Z"
          style="fill:#f9cb00;"/>
    <path d="M28,92.23c-1.45,.07-1.44,.27-2.89,.33s-1.45,.08-2.9,.15-1.46-.13-2.91-.07c-1.19,.05-2.14-.77-2.2-1.96-.02-.52,.02-.52,0-1.04-.05-1.19,.76-2.25,1.95-2.31,1.45-.07,1.46,.04,2.91-.03s1.45-.09,2.9-.16,1.46,.02,2.91-.05c1.19-.05,2.11,.76,2.16,1.95,.02,.52,.12,.51,.14,1.03,.05,1.19-.87,2.09-2.07,2.14Z"
          style="fill:#c9002a;"/>
    <path d="M41.99,105.75c-1.36-1.46-1.26-1.55-2.62-3s-1.3-1.52-2.66-2.98-1.37-1.45-2.73-2.91c-.94-1-.97-2.53,.04-3.46,.73-.68,.65-.77,1.38-1.45,1-.94,2.67-.78,3.61,.22,1.36,1.46,1.3,1.51,2.66,2.97s1.42,1.41,2.78,2.87,1.3,1.52,2.66,2.98c.94,1,.93,2.49-.07,3.43-.73,.68-.69,.73-1.42,1.41-1,.94-2.69,.93-3.62-.07Z"
          style="fill:#c9002a;"/>
    <path d="M19.07,87.39c-.6,1.2,.08,1.33,.14,2.67s-.6,1.53,.11,2.67c.4,.64,1.13,.61,1.47-.06,.6-1.2-.02-1.34-.08-2.68s.35-1.44-.13-2.69c-.3-.77-1.17-.59-1.51,.09Z"
          style="fill:#f9cb00;"/>
    <path d="M45.34,98.99c-1.68,.39-1.25,1.18-2.52,2.35s-2.07,.65-2.61,2.29c-.3,.92,.4,1.64,1.34,1.42,1.68-.39,1.25-1.17,2.52-2.34s1.73-.79,2.56-2.3c.52-.94-.35-1.63-1.29-1.41Z"
          style="fill:#f9cb00;"/>
    <path d="M23.6,104.23c-1.45,.07-1.44,.27-2.89,.33s-1.45,.08-2.9,.15-1.46-.13-2.91-.07c-1.19,.05-2.14-.77-2.2-1.96-.02-.52,.02-.52,0-1.04-.05-1.19,.76-2.25,1.95-2.31,1.45-.07,1.46,.04,2.91-.03s1.45-.09,2.9-.16,1.46,.02,2.91-.05c1.19-.05,2.11,.76,2.16,1.95,.02,.52,.12,.51,.14,1.03,.05,1.19-.87,2.09-2.07,2.14Z"
          style="fill:#c9002a;"/>
    <path d="M37.59,117.75c-1.36-1.46-1.26-1.55-2.62-3s-1.3-1.52-2.66-2.98-1.37-1.45-2.73-2.91c-.94-1-.97-2.53,.04-3.46,.73-.68,.65-.77,1.38-1.45,1-.94,2.67-.78,3.61,.22,1.36,1.46,1.3,1.51,2.66,2.97s1.42,1.41,2.78,2.87,1.3,1.52,2.66,2.98c.94,1,.93,2.49-.07,3.43-.73,.68-.69,.73-1.42,1.41-1,.94-2.69,.93-3.62-.07Z"
          style="fill:#c9002a;"/>
    <path d="M14.67,99.4c-.6,1.2,.08,1.33,.14,2.67s-.6,1.53,.11,2.67c.4,.64,1.13,.61,1.47-.06,.6-1.2-.02-1.34-.08-2.68s.35-1.44-.13-2.69c-.3-.77-1.17-.59-1.51,.09Z"
          style="fill:#f9cb00;"/>
    <path d="M40.94,111c-1.68,.39-1.25,1.18-2.52,2.35s-2.07,.65-2.61,2.29c-.3,.92,.4,1.64,1.34,1.42,1.68-.39,1.25-1.17,2.52-2.34s1.73-.79,2.56-2.3c.52-.94-.35-1.63-1.29-1.41Z"
          style="fill:#f9cb00;"/>
    <path d="M20.63,118.26c-1.45,.07-1.44,.27-2.89,.33s-1.45,.08-2.9,.15-1.46-.13-2.91-.07c-1.19,.05-2.14-.77-2.2-1.96-.02-.52,.02-.52,0-1.04-.05-1.19,.76-2.25,1.95-2.31,1.45-.07,1.46,.04,2.91-.03s1.45-.09,2.9-.16,1.46,.02,2.91-.05c1.19-.05,2.11,.76,2.16,1.95,.02,.52,.12,.51,.14,1.03,.05,1.19-.87,2.09-2.07,2.14Z"
          style="fill:#c9002a;"/>
    <path d="M34.62,131.78c-1.36-1.46-1.26-1.55-2.62-3s-1.3-1.52-2.66-2.98-1.37-1.45-2.73-2.91c-.94-1-.97-2.53,.04-3.46,.73-.68,.65-.77,1.38-1.45,1-.94,2.67-.78,3.61,.22,1.36,1.46,1.3,1.51,2.66,2.97s1.42,1.41,2.78,2.87,1.3,1.52,2.66,2.98c.94,1,.93,2.49-.07,3.43-.73,.68-.69,.73-1.42,1.41-1,.94-2.69,.93-3.62-.07Z"
          style="fill:#c9002a;"/>
    <path d="M11.69,113.43c-.6,1.2,.08,1.33,.14,2.67s-.6,1.53,.11,2.67c.4,.64,1.13,.61,1.47-.06,.6-1.2-.02-1.34-.08-2.68s.35-1.44-.13-2.69c-.3-.77-1.17-.59-1.51,.09Z"
          style="fill:#f9cb00;"/>
    <path d="M37.96,125.03c-1.68,.39-1.25,1.18-2.52,2.35s-2.07,.65-2.61,2.29c-.3,.92,.4,1.64,1.34,1.42,1.68-.39,1.25-1.17,2.52-2.34s1.73-.79,2.56-2.3c.52-.94-.35-1.63-1.29-1.41Z"
          style="fill:#f9cb00;"/>
    <path d="M17.98,133.58c-1.45,.07-1.44,.27-2.89,.33s-1.45,.08-2.9,.15-1.46-.13-2.91-.07c-1.19,.05-2.14-.77-2.2-1.96-.02-.52,.02-.52,0-1.04-.05-1.19,.76-2.25,1.95-2.31,1.45-.07,1.46,.04,2.91-.03s1.45-.09,2.9-.16,1.46,.02,2.91-.05c1.19-.05,2.11,.76,2.16,1.95,.02,.52,.12,.51,.14,1.03,.05,1.19-.87,2.09-2.07,2.14Z"
          style="fill:#c9002a;"/>
    <path d="M31.97,147.1c-1.36-1.46-1.26-1.55-2.62-3s-1.3-1.52-2.66-2.98-1.37-1.45-2.73-2.91c-.94-1-.97-2.53,.04-3.46,.73-.68,.65-.77,1.38-1.45,1-.94,2.67-.78,3.61,.22,1.36,1.46,1.3,1.51,2.66,2.97s1.42,1.41,2.78,2.87,1.3,1.52,2.66,2.98c.94,1,.93,2.49-.07,3.43-.73,.68-.69,.73-1.42,1.41-1,.94-2.69,.93-3.62-.07Z"
          style="fill:#c9002a;"/>
    <path d="M9.05,128.75c-.6,1.2,.08,1.33,.14,2.67s-.6,1.53,.11,2.67c.4,.64,1.13,.61,1.47-.06,.6-1.2-.02-1.34-.08-2.68s.35-1.44-.13-2.69c-.3-.77-1.17-.59-1.51,.09Z"
          style="fill:#f9cb00;"/>
    <path d="M35.32,140.35c-1.68,.39-1.25,1.18-2.52,2.35s-2.07,.65-2.61,2.29c-.3,.92,.4,1.64,1.34,1.42,1.68-.39,1.25-1.17,2.52-2.34s1.73-.79,2.56-2.3c.52-.94-.35-1.63-1.29-1.41Z"
          style="fill:#f9cb00;"/>
    <path d="M27.95,146.8c0,.75-.5,1.46-.85,2.06s-1.11,.76-1.74,1.12-1.09,.69-1.84,.69-1.53,.16-2.13-.19-1.42-.81-1.78-1.43-.25-1.51-.25-2.25,.37-1.38,.72-1.98,.75-1.24,1.37-1.6,1.32-.27,2.07-.27,1.36,.1,1.97,.45,1.25,.72,1.61,1.34,.84,1.32,.84,2.07Z"
          style="fill:#fff;"/>
    <path d="M281.65,148.47c0,1.33,1.64,2.25,2.26,3.32s1.17,2.06,2.28,2.7,2.15,1.76,3.48,1.76,2.42-1.12,3.49-1.74,2.56-1.07,3.2-2.18,1.07-2.53,1.07-3.86-.68-2.65-1.31-3.72-2.07-1.31-3.18-1.95-1.94-1.87-3.27-1.87-2.27,1.13-3.34,1.75-2.27,1.07-2.91,2.18-1.77,2.28-1.77,3.61Z"
          style="fill:#fff;"/>
    <path d="M271.69,159.79c0,.93,1.14,1.57,1.58,2.32s.82,1.44,1.59,1.88,1.5,1.23,2.43,1.23,1.68-.78,2.43-1.21,1.78-.75,2.23-1.52,.74-1.77,.74-2.69-.48-1.85-.91-2.6-1.44-.91-2.21-1.36-1.36-1.31-2.28-1.31-1.58,.79-2.33,1.22-1.58,.75-2.03,1.52-1.23,1.59-1.23,2.52Z"
          style="fill:#fff;"/>
    <path d="M259.96,71.22c1.45,.07,1.46-.13,2.91-.07s1.45,.05,2.91,.12,1.44,.27,2.9,.33c1.19,.05,2.29-.99,2.34-2.18,.02-.52,.07-.51,.1-1.03,.05-1.19-.99-2.17-2.19-2.23-1.45-.07-1.45-.17-2.9-.24s-1.45-.04-2.91-.11-1.45-.15-2.9-.22c-1.19-.05-2.32,.99-2.38,2.19-.02,.52,.07,.52,.05,1.04-.05,1.19,.88,2.34,2.07,2.4Z"
          style="fill:#c9002a;"/>
    <path d="M245.82,84.34c1.36-1.46,1.46-1.37,2.82-2.82s1.43-1.4,2.79-2.86,1.35-1.47,2.72-2.93c.94-1,.8-2.65-.21-3.58-.73-.68-.81-.6-1.54-1.28-1-.94-2.5-.98-3.44,.02-1.36,1.46-1.42,1.4-2.78,2.86s-1.31,1.51-2.67,2.97-1.43,1.4-2.79,2.86c-.94,1-.83,2.68,.17,3.62,.73,.68,.77,.64,1.5,1.32,1,.94,2.49,.83,3.43-.17Z"
          style="fill:#c9002a;"/>
    <path d="M277.18,133.47s.06,0,.09,0c.55-.05,.96-.54,.91-1.09-3.82-41.82-25.5-67.79-25.72-68.04-.36-.42-.99-.47-1.41-.12-.42,.36-.47,.99-.12,1.41,.21,.25,21.49,25.77,25.25,66.93,.05,.52,.48,.91,1,.91Z"
          style="fill:#866100;"/>
    <path d="M268.94,66.11c.6,1.2-.04,1.36-.11,2.7s.57,1.56-.14,2.7c-.4,.64-1.2,.6-1.54-.08-.6-1.2,.1-1.35,.16-2.69s-.39-1.43,.11-2.68c.31-.79,1.18-.62,1.52,.05Z"
          style="fill:#f9cb00;"/>
    <path d="M266.15,81.53c1.45,.07,1.46-.13,2.91-.07s1.45,.05,2.91,.12,1.44,.27,2.9,.33c1.19,.05,2.29-.99,2.34-2.18,.02-.52,.07-.51,.1-1.03,.05-1.19-.99-2.17-2.19-2.23-1.45-.07-1.45-.17-2.9-.24s-1.45-.04-2.91-.11-1.45-.15-2.9-.22c-1.19-.05-2.32,.99-2.38,2.19-.02,.52,.07,.52,.05,1.04-.05,1.19,.88,2.34,2.07,2.4Z"
          style="fill:#c9002a;"/>
    <path d="M252.01,94.64c1.36-1.46,1.46-1.37,2.82-2.82s1.43-1.4,2.79-2.86,1.35-1.47,2.72-2.93c.94-1,.8-2.65-.21-3.58-.73-.68-.81-.6-1.54-1.28-1-.94-2.5-.98-3.44,.02-1.36,1.46-1.42,1.4-2.78,2.86s-1.31,1.51-2.67,2.97-1.43,1.4-2.79,2.86c-.94,1-.83,2.68,.17,3.62,.73,.68,.77,.64,1.5,1.32,1,.94,2.49,.83,3.43-.17Z"
          style="fill:#c9002a;"/>
    <path d="M275.13,76.42c.6,1.2-.04,1.36-.11,2.7s.57,1.56-.14,2.7c-.4,.64-1.2,.6-1.54-.08-.6-1.2,.1-1.35,.16-2.69s-.39-1.43,.11-2.68c.31-.79,1.18-.62,1.52,.05Z"
          style="fill:#f9cb00;"/>
    <path d="M248.83,88.02c1.68,.39,1.3,1.15,2.57,2.31s1.94,.73,2.48,2.37c.3,.92-.33,1.65-1.27,1.43-1.68-.39-1.3-1.15-2.57-2.31s-1.71-.84-2.54-2.35c-.52-.95,.38-1.67,1.33-1.45Z"
          style="fill:#f9cb00;"/>
    <path d="M271.57,92.49c1.45,.07,1.46-.13,2.91-.07s1.45,.05,2.91,.12,1.44,.27,2.9,.33c1.19,.05,2.29-.99,2.34-2.18,.02-.52,.07-.51,.1-1.03,.05-1.19-.99-2.17-2.19-2.23-1.45-.07-1.45-.17-2.9-.24s-1.45-.04-2.91-.11-1.45-.15-2.9-.22c-1.19-.05-2.32,.99-2.38,2.19-.02,.52,.07,.52,.05,1.04-.05,1.19,.88,2.34,2.07,2.4Z"
          style="fill:#c9002a;"/>
    <path d="M257.43,105.6c1.36-1.46,1.46-1.37,2.82-2.82s1.43-1.4,2.79-2.86,1.35-1.47,2.72-2.93c.94-1,.8-2.65-.21-3.58-.73-.68-.81-.6-1.54-1.28-1-.94-2.5-.98-3.44,.02-1.36,1.46-1.42,1.4-2.78,2.86s-1.31,1.51-2.67,2.97-1.43,1.4-2.79,2.86c-.94,1-.83,2.68,.17,3.62,.73,.68,.77,.64,1.5,1.32,1,.94,2.49,.83,3.43-.17Z"
          style="fill:#c9002a;"/>
    <path d="M280.55,87.37c.6,1.2-.04,1.36-.11,2.7s.57,1.56-.14,2.7c-.4,.64-1.2,.6-1.54-.08-.6-1.2,.1-1.35,.16-2.69s-.39-1.43,.11-2.68c.31-.79,1.18-.62,1.52,.05Z"
          style="fill:#f9cb00;"/>
    <path d="M254.24,98.98c1.68,.39,1.3,1.15,2.57,2.31s1.94,.73,2.48,2.37c.3,.92-.33,1.65-1.27,1.43-1.68-.39-1.3-1.15-2.57-2.31s-1.71-.84-2.54-2.35c-.52-.95,.38-1.67,1.33-1.45Z"
          style="fill:#f9cb00;"/>
    <path d="M275.96,104.49c1.45,.07,1.46-.13,2.91-.07s1.45,.05,2.91,.12,1.44,.27,2.9,.33c1.19,.05,2.29-.99,2.34-2.18,.02-.52,.07-.51,.1-1.03,.05-1.19-.99-2.17-2.19-2.23-1.45-.07-1.45-.17-2.9-.24s-1.45-.04-2.91-.11-1.45-.15-2.9-.22c-1.19-.05-2.32,.99-2.38,2.19-.02,.52,.07,.52,.05,1.04-.05,1.19,.88,2.34,2.07,2.4Z"
          style="fill:#c9002a;"/>
    <path d="M261.83,117.6c1.36-1.46,1.46-1.37,2.82-2.82s1.43-1.4,2.79-2.86,1.35-1.47,2.72-2.93c.94-1,.8-2.65-.21-3.58-.73-.68-.81-.6-1.54-1.28-1-.94-2.5-.98-3.44,.02-1.36,1.46-1.42,1.4-2.78,2.86s-1.31,1.51-2.67,2.97-1.43,1.4-2.79,2.86c-.94,1-.83,2.68,.17,3.62,.73,.68,.77,.64,1.5,1.32,1,.94,2.49,.83,3.43-.17Z"
          style="fill:#c9002a;"/>
    <path d="M284.95,99.38c.6,1.2-.04,1.36-.11,2.7s.57,1.56-.14,2.7c-.4,.64-1.2,.6-1.54-.08-.6-1.2,.1-1.35,.16-2.69s-.39-1.43,.11-2.68c.31-.79,1.18-.62,1.52,.05Z"
          style="fill:#f9cb00;"/>
    <path d="M258.64,110.98c1.68,.39,1.3,1.15,2.57,2.31s1.94,.73,2.48,2.37c.3,.92-.33,1.65-1.27,1.43-1.68-.39-1.3-1.15-2.57-2.31s-1.71-.84-2.54-2.35c-.52-.95,.38-1.67,1.33-1.45Z"
          style="fill:#f9cb00;"/>
    <path d="M278.94,118.52c1.45,.07,1.46-.13,2.91-.07s1.45,.05,2.91,.12,1.44,.27,2.9,.33c1.19,.05,2.29-.99,2.34-2.18,.02-.52,.07-.51,.1-1.03,.05-1.19-.99-2.17-2.19-2.23-1.45-.07-1.45-.17-2.9-.24s-1.45-.04-2.91-.11-1.45-.15-2.9-.22c-1.19-.05-2.32,.99-2.38,2.19-.02,.52,.07,.52,.05,1.04-.05,1.19,.88,2.34,2.07,2.4Z"
          style="fill:#c9002a;"/>
    <path d="M264.8,131.63c1.36-1.46,1.46-1.37,2.82-2.82s1.43-1.4,2.79-2.86,1.35-1.47,2.72-2.93c.94-1,.8-2.65-.21-3.58-.73-.68-.81-.6-1.54-1.28-1-.94-2.5-.98-3.44,.02-1.36,1.46-1.42,1.4-2.78,2.86s-1.31,1.51-2.67,2.97-1.43,1.4-2.79,2.86c-.94,1-.83,2.68,.17,3.62,.73,.68,.77,.64,1.5,1.32,1,.94,2.49,.83,3.43-.17Z"
          style="fill:#c9002a;"/>
    <path d="M287.92,113.41c.6,1.2-.04,1.36-.11,2.7s.57,1.56-.14,2.7c-.4,.64-1.2,.6-1.54-.08-.6-1.2,.1-1.35,.16-2.69s-.39-1.43,.11-2.68c.31-.79,1.18-.62,1.52,.05Z"
          style="fill:#f9cb00;"/>
    <path d="M261.62,125.01c1.68,.39,1.3,1.15,2.57,2.31s1.94,.73,2.48,2.37c.3,.92-.33,1.65-1.27,1.43-1.68-.39-1.3-1.15-2.57-2.31s-1.71-.84-2.54-2.35c-.52-.95,.38-1.67,1.33-1.45Z"
          style="fill:#f9cb00;"/>
    <path d="M281.58,133.84c1.45,.07,1.46-.13,2.91-.07s1.45,.05,2.91,.12,1.44,.27,2.9,.33c1.19,.05,2.29-.99,2.34-2.18,.02-.52,.07-.51,.1-1.03,.05-1.19-.99-2.17-2.19-2.23-1.45-.07-1.45-.17-2.9-.24s-1.45-.04-2.91-.11-1.45-.15-2.9-.22c-1.19-.05-2.32,.99-2.38,2.19-.02,.52,.07,.52,.05,1.04-.05,1.19,.88,2.34,2.07,2.4Z"
          style="fill:#c9002a;"/>
    <path d="M267.44,146.95c1.36-1.46,1.46-1.37,2.82-2.82s1.43-1.4,2.79-2.86,1.35-1.47,2.72-2.93c.94-1,.8-2.65-.21-3.58-.73-.68-.81-.6-1.54-1.28-1-.94-2.5-.98-3.44,.02-1.36,1.46-1.42,1.4-2.78,2.86s-1.31,1.51-2.67,2.97-1.43,1.4-2.79,2.86c-.94,1-.83,2.68,.17,3.62,.73,.68,.77,.64,1.5,1.32,1,.94,2.49,.83,3.43-.17Z"
          style="fill:#c9002a;"/>
    <path d="M290.57,128.72c.6,1.2-.04,1.36-.11,2.7s.57,1.56-.14,2.7c-.4,.64-1.2,.6-1.54-.08-.6-1.2,.1-1.35,.16-2.69s-.39-1.43,.11-2.68c.31-.79,1.18-.62,1.52,.05Z"
          style="fill:#f9cb00;"/>
    <path d="M264.26,140.33c1.68,.39,1.3,1.15,2.57,2.31s1.94,.73,2.48,2.37c.3,.92-.33,1.65-1.27,1.43-1.68-.39-1.3-1.15-2.57-2.31s-1.71-.84-2.54-2.35c-.52-.95,.38-1.67,1.33-1.45Z"
          style="fill:#f9cb00;"/>
    <path d="M271.54,146.8c0,.75,.92,1.27,1.27,1.87s.66,1.16,1.28,1.52,1.21,.99,1.95,.99,1.36-.63,1.96-.98,1.44-.6,1.8-1.23,.6-1.42,.6-2.17-.38-1.49-.73-2.09-1.16-.73-1.78-1.09-1.09-1.05-1.84-1.05-1.28,.63-1.88,.98-1.28,.6-1.64,1.23-.99,1.28-.99,2.03Z"
          style="fill:#fff;"/>
    <path d="M53.65,233.85s-10.46-1.47-7.51,8.43c2.95,9.9,8.55,14.53,15.58,14.94,7.03,.41,16.36,4.33,23.24-7.96,6.88-12.29-4.23-14.66-8.41-12.97-4.18,1.68-16.59-3.75-22.9-2.43Z"
          style="fill:#f3c503; stroke:#eda100; stroke-linecap:round; stroke-miterlimit:10; stroke-width:2.66px;"/>
    <path d="M55.71,238.76s-2.34-10.6,9.87-11.87c0,0,16.17-1.75,14.72,13.73,0,0-9.36,8.42-24.59-1.86Z"
          style="fill:#f2ac14; stroke:#eda100; stroke-linecap:round; stroke-miterlimit:10; stroke-width:2.23px;"/>
    <g>
        <path d="M31.09,199.98c.5-.23,.92-.6,1.34-.92s.83-.7,1.17-1.11,.78-.8,1.03-1.28,.26-1.07,.39-1.59,.15-1.05,.17-1.59,.09-1.08-.02-1.61-.26-1.04-.49-1.55-.56-.94-.88-1.36-.68-.84-1.09-1.19-.83-.72-1.31-.97-1.06-.24-1.58-.37-1.03-.37-1.57-.39-1.06,.17-1.59,.28-1.11,.05-1.62,.28-.86,.7-1.29,1.02-.96,.57-1.31,.98-.49,.98-.74,1.46-.58,.94-.71,1.46-.21,1.08-.23,1.62,.18,1.06,.29,1.6,.17,1.06,.4,1.57,.46,1.01,.78,1.43,.78,.77,1.19,1.11,.82,.74,1.3,.98,1.02,.41,1.54,.54,1.07,.2,1.62,.21,1.08-.04,1.62-.15,1.06-.24,1.56-.47Zm-5.59-6.09c.23-.61,.13-.65,.36-1.27s.24-.61,.47-1.23c.17-.45,.64-.54,1.09-.37,.61,.23,.68,.05,1.3,.28s.63,.18,1.25,.41c.45,.17,.62,.76,.45,1.22-.23,.61-.24,.61-.47,1.23s-.17,.64-.4,1.25c-.17,.45-.7,.67-1.15,.5-.61-.23-.58-.31-1.2-.54s-.69-.04-1.3-.27c-.45-.17-.56-.76-.39-1.21Z"
              style="fill:#f3c503;"/>
        <path d="M31.09,199.98c.5-.23,.92-.6,1.34-.92s.83-.7,1.17-1.11,.78-.8,1.03-1.28,.26-1.07,.39-1.59,.15-1.05,.17-1.59,.09-1.08-.02-1.61-.26-1.04-.49-1.55-.56-.94-.88-1.36-.68-.84-1.09-1.19-.83-.72-1.31-.97-1.06-.24-1.58-.37-1.03-.37-1.57-.39-1.06,.17-1.59,.28-1.11,.05-1.62,.28-.86,.7-1.29,1.02-.96,.57-1.31,.98-.49,.98-.74,1.46-.58,.94-.71,1.46-.21,1.08-.23,1.62,.18,1.06,.29,1.6,.17,1.06,.4,1.57,.46,1.01,.78,1.43,.78,.77,1.19,1.11,.82,.74,1.3,.98,1.02,.41,1.54,.54,1.07,.2,1.62,.21,1.08-.04,1.62-.15,1.06-.24,1.56-.47Zm-5.59-6.09c.23-.61,.13-.65,.36-1.27s.24-.61,.47-1.23c.17-.45,.64-.54,1.09-.37,.61,.23,.68,.05,1.3,.28s.63,.18,1.25,.41c.45,.17,.62,.76,.45,1.22-.23,.61-.24,.61-.47,1.23s-.17,.64-.4,1.25c-.17,.45-.7,.67-1.15,.5-.61-.23-.58-.31-1.2-.54s-.69-.04-1.3-.27c-.45-.17-.56-.76-.39-1.21Z"
              style="fill:none; stroke:#eda100; stroke-linecap:round; stroke-miterlimit:10; stroke-width:1.44px;"/>
    </g>
    <g>
        <path d="M35.03,214.16c.58-.26,1.06-.7,1.55-1.07s.96-.81,1.36-1.28,.91-.92,1.19-1.48,.3-1.24,.46-1.84,.18-1.21,.19-1.84,.11-1.25-.02-1.87-.3-1.21-.57-1.79-.65-1.08-1.02-1.57-.79-.98-1.27-1.38-.96-.84-1.52-1.12-1.23-.28-1.83-.43-1.19-.43-1.82-.45-1.23,.2-1.85,.32-1.29,.06-1.87,.33-1,.81-1.49,1.18-1.12,.66-1.51,1.14-.57,1.13-.85,1.69-.67,1.09-.82,1.69-.25,1.25-.26,1.88,.21,1.23,.34,1.85,.2,1.23,.47,1.82,.54,1.17,.91,1.66,.91,.89,1.38,1.29,.96,.85,1.51,1.14,1.18,.48,1.79,.63,1.24,.23,1.87,.24,1.26-.05,1.88-.18,1.23-.28,1.81-.54Zm-6.48-7.06c.27-.71,.15-.76,.42-1.47s.28-.71,.55-1.42c.2-.52,.74-.63,1.26-.43,.71,.27,.79,.06,1.5,.33s.73,.21,1.45,.48c.52,.2,.72,.89,.53,1.41-.27,.71-.28,.71-.55,1.42s-.2,.74-.47,1.45c-.2,.52-.81,.78-1.34,.58-.71-.27-.68-.36-1.39-.63s-.8-.04-1.51-.31c-.52-.2-.65-.88-.45-1.4Z"
              style="fill:#f2ac14;"/>
        <path d="M35.03,214.16c.58-.26,1.06-.7,1.55-1.07s.96-.81,1.36-1.28,.91-.92,1.19-1.48,.3-1.24,.46-1.84,.18-1.21,.19-1.84,.11-1.25-.02-1.87-.3-1.21-.57-1.79-.65-1.08-1.02-1.57-.79-.98-1.27-1.38-.96-.84-1.52-1.12-1.23-.28-1.83-.43-1.19-.43-1.82-.45-1.23,.2-1.85,.32-1.29,.06-1.87,.33-1,.81-1.49,1.18-1.12,.66-1.51,1.14-.57,1.13-.85,1.69-.67,1.09-.82,1.69-.25,1.25-.26,1.88,.21,1.23,.34,1.85,.2,1.23,.47,1.82,.54,1.17,.91,1.66,.91,.89,1.38,1.29,.96,.85,1.51,1.14,1.18,.48,1.79,.63,1.24,.23,1.87,.24,1.26-.05,1.88-.18,1.23-.28,1.81-.54Zm-6.48-7.06c.27-.71,.15-.76,.42-1.47s.28-.71,.55-1.42c.2-.52,.74-.63,1.26-.43,.71,.27,.79,.06,1.5,.33s.73,.21,1.45,.48c.52,.2,.72,.89,.53,1.41-.27,.71-.28,.71-.55,1.42s-.2,.74-.47,1.45c-.2,.52-.81,.78-1.34,.58-.71-.27-.68-.36-1.39-.63s-.8-.04-1.51-.31c-.52-.2-.65-.88-.45-1.4Z"
              style="fill:none; stroke:#eda100; stroke-linecap:round; stroke-miterlimit:10; stroke-width:1.67px;"/>
    </g>
    <g>
        <path d="M43.13,230.22c.7-.32,1.27-.83,1.85-1.28s1.15-.96,1.62-1.53,1.08-1.1,1.42-1.76,.36-1.47,.54-2.2,.21-1.45,.23-2.2,.13-1.49-.03-2.23-.36-1.44-.68-2.14-.77-1.29-1.22-1.88-.94-1.17-1.51-1.64-1.15-1-1.81-1.34-1.46-.33-2.19-.52-1.42-.52-2.17-.53-1.46,.24-2.2,.39-1.54,.07-2.23,.39-1.19,.96-1.78,1.41-1.33,.79-1.81,1.36-.68,1.35-1.02,2.02-.8,1.3-.98,2.02-.3,1.49-.31,2.24,.26,1.47,.41,2.21,.24,1.47,.56,2.17,.64,1.4,1.08,1.98,1.08,1.06,1.65,1.54,1.14,1.02,1.8,1.36,1.41,.57,2.13,.75,1.48,.27,2.24,.29,1.5-.06,2.24-.21,1.47-.33,2.16-.65Zm-7.74-8.43c.32-.85,.18-.9,.5-1.75s.33-.85,.65-1.7c.23-.62,.88-.75,1.51-.52,.85,.32,.94,.07,1.79,.39s.88,.25,1.73,.57c.62,.23,.86,1.06,.63,1.68-.32,.85-.33,.84-.65,1.69s-.24,.88-.56,1.73c-.23,.62-.97,.93-1.6,.69-.85-.32-.81-.43-1.66-.75s-.95-.05-1.8-.37c-.62-.23-.77-1.05-.54-1.67Z"
              style="fill:#f3c503;"/>
        <path d="M43.13,230.22c.7-.32,1.27-.83,1.85-1.28s1.15-.96,1.62-1.53,1.08-1.1,1.42-1.76,.36-1.47,.54-2.2,.21-1.45,.23-2.2,.13-1.49-.03-2.23-.36-1.44-.68-2.14-.77-1.29-1.22-1.88-.94-1.17-1.51-1.64-1.15-1-1.81-1.34-1.46-.33-2.19-.52-1.42-.52-2.17-.53-1.46,.24-2.2,.39-1.54,.07-2.23,.39-1.19,.96-1.78,1.41-1.33,.79-1.81,1.36-.68,1.35-1.02,2.02-.8,1.3-.98,2.02-.3,1.49-.31,2.24,.26,1.47,.41,2.21,.24,1.47,.56,2.17,.64,1.4,1.08,1.98,1.08,1.06,1.65,1.54,1.14,1.02,1.8,1.36,1.41,.57,2.13,.75,1.48,.27,2.24,.29,1.5-.06,2.24-.21,1.47-.33,2.16-.65Zm-7.74-8.43c.32-.85,.18-.9,.5-1.75s.33-.85,.65-1.7c.23-.62,.88-.75,1.51-.52,.85,.32,.94,.07,1.79,.39s.88,.25,1.73,.57c.62,.23,.86,1.06,.63,1.68-.32,.85-.33,.84-.65,1.69s-.24,.88-.56,1.73c-.23,.62-.97,.93-1.6,.69-.85-.32-.81-.43-1.66-.75s-.95-.05-1.8-.37c-.62-.23-.77-1.05-.54-1.67Z"
              style="fill:none; stroke:#eda100; stroke-linecap:round; stroke-miterlimit:10; stroke-width:1.99px;"/>
    </g>
    <path d="M249.62,233.85s10.46-1.47,7.51,8.43c-2.95,9.9-8.55,14.53-15.58,14.94-7.03,.41-16.36,4.33-23.24-7.96-6.88-12.29,4.23-14.66,8.41-12.97,4.18,1.68,16.59-3.75,22.9-2.43Z"
          style="fill:#f3c503; stroke:#eda100; stroke-linecap:round; stroke-miterlimit:10; stroke-width:2.66px;"/>
    <path d="M247.56,238.76s2.34-10.6-9.87-11.87c0,0-16.17-1.75-14.72,13.73,0,0,9.36,8.42,24.59-1.86Z"
          style="fill:#f2ac14; stroke:#eda100; stroke-linecap:round; stroke-miterlimit:10; stroke-width:2.23px;"/>
    <g>
        <path d="M281.85,196.34c.23-.5,.29-1.06,.4-1.58s.16-1.07,.15-1.61,.06-1.12-.07-1.64-.51-.97-.75-1.45-.58-.89-.92-1.31-.64-.87-1.08-1.2-.89-.61-1.39-.84-1.04-.33-1.56-.44-1.07-.19-1.6-.17-1.1,0-1.62,.14-.95,.52-1.44,.76-1.02,.4-1.44,.74-.68,.82-1.01,1.26-.8,.77-1.03,1.28-.19,1.09-.3,1.61-.35,1.06-.34,1.6,.28,1.06,.41,1.58,.18,1.09,.43,1.57,.55,.95,.9,1.37,.84,.68,1.28,1.01,.83,.68,1.33,.91,1.01,.45,1.53,.56,1.1,.06,1.63,.05,1.11,.01,1.63-.12,1.04-.36,1.52-.61,.94-.56,1.35-.91,.79-.75,1.12-1.18,.64-.88,.87-1.38Zm-4.54-1.44c-.61,.23-.58,.33-1.19,.56s-.62,.22-1.23,.45c-.45,.17-.83-.12-1-.57-.23-.61-.41-.55-.64-1.16s-.28-.6-.51-1.21c-.17-.45,.16-.97,.62-1.14,.61-.23,.62-.22,1.23-.45s.59-.29,1.21-.52c.45-.17,.97,.09,1.14,.54,.23,.61,.15,.65,.38,1.26s.43,.54,.66,1.16c.17,.45-.2,.92-.66,1.09Z"
              style="fill:#f3c503;"/>
        <path d="M281.85,196.34c.23-.5,.29-1.06,.4-1.58s.16-1.07,.15-1.61,.06-1.12-.07-1.64-.51-.97-.75-1.45-.58-.89-.92-1.31-.64-.87-1.08-1.2-.89-.61-1.39-.84-1.04-.33-1.56-.44-1.07-.19-1.6-.17-1.1,0-1.62,.14-.95,.52-1.44,.76-1.02,.4-1.44,.74-.68,.82-1.01,1.26-.8,.77-1.03,1.28-.19,1.09-.3,1.61-.35,1.06-.34,1.6,.28,1.06,.41,1.58,.18,1.09,.43,1.57,.55,.95,.9,1.37,.84,.68,1.28,1.01,.83,.68,1.33,.91,1.01,.45,1.53,.56,1.1,.06,1.63,.05,1.11,.01,1.63-.12,1.04-.36,1.52-.61,.94-.56,1.35-.91,.79-.75,1.12-1.18,.64-.88,.87-1.38Zm-4.54-1.44c-.61,.23-.58,.33-1.19,.56s-.62,.22-1.23,.45c-.45,.17-.83-.12-1-.57-.23-.61-.41-.55-.64-1.16s-.28-.6-.51-1.21c-.17-.45,.16-.97,.62-1.14,.61-.23,.62-.22,1.23-.45s.59-.29,1.21-.52c.45-.17,.97,.09,1.14,.54,.23,.61,.15,.65,.38,1.26s.43,.54,.66,1.16c.17,.45-.2,.92-.66,1.09Z"
              style="fill:none; stroke:#eda100; stroke-linecap:round; stroke-miterlimit:10; stroke-width:1.44px;"/>
    </g>
    <g>
        <path d="M279.45,209.94c.26-.58,.34-1.23,.46-1.83s.19-1.24,.18-1.86,.07-1.29-.08-1.9-.59-1.13-.87-1.69-.67-1.03-1.07-1.51-.74-1.01-1.25-1.39-1.03-.71-1.61-.97-1.2-.39-1.81-.51-1.24-.21-1.86-.2-1.28,0-1.88,.16-1.11,.6-1.66,.88-1.18,.46-1.66,.86-.79,.96-1.18,1.46-.93,.9-1.19,1.48-.22,1.27-.34,1.87-.4,1.23-.39,1.85,.32,1.23,.47,1.83,.21,1.26,.5,1.82,.63,1.1,1.04,1.59,.97,.79,1.48,1.17,.96,.79,1.55,1.06,1.18,.53,1.78,.65,1.27,.07,1.89,.06,1.28,.01,1.89-.14,1.2-.42,1.76-.7,1.09-.65,1.57-1.05,.91-.87,1.3-1.37,.74-1.02,1-1.6Zm-5.26-1.67c-.71,.27-.67,.39-1.38,.65s-.72,.26-1.43,.53c-.52,.2-.96-.14-1.16-.67-.27-.71-.48-.63-.75-1.35s-.32-.69-.59-1.4c-.2-.52,.19-1.13,.71-1.32,.71-.27,.72-.26,1.43-.52s.69-.34,1.4-.6c.52-.2,1.12,.1,1.32,.62,.27,.71,.17,.75,.44,1.46s.49,.63,.76,1.34c.2,.52-.24,1.07-.76,1.26Z"
              style="fill:#f2ac14;"/>
        <path d="M279.45,209.94c.26-.58,.34-1.23,.46-1.83s.19-1.24,.18-1.86,.07-1.29-.08-1.9-.59-1.13-.87-1.69-.67-1.03-1.07-1.51-.74-1.01-1.25-1.39-1.03-.71-1.61-.97-1.2-.39-1.81-.51-1.24-.21-1.86-.2-1.28,0-1.88,.16-1.11,.6-1.66,.88-1.18,.46-1.66,.86-.79,.96-1.18,1.46-.93,.9-1.19,1.48-.22,1.27-.34,1.87-.4,1.23-.39,1.85,.32,1.23,.47,1.83,.21,1.26,.5,1.82,.63,1.1,1.04,1.59,.97,.79,1.48,1.17,.96,.79,1.55,1.06,1.18,.53,1.78,.65,1.27,.07,1.89,.06,1.28,.01,1.89-.14,1.2-.42,1.76-.7,1.09-.65,1.57-1.05,.91-.87,1.3-1.37,.74-1.02,1-1.6Zm-5.26-1.67c-.71,.27-.67,.39-1.38,.65s-.72,.26-1.43,.53c-.52,.2-.96-.14-1.16-.67-.27-.71-.48-.63-.75-1.35s-.32-.69-.59-1.4c-.2-.52,.19-1.13,.71-1.32,.71-.27,.72-.26,1.43-.52s.69-.34,1.4-.6c.52-.2,1.12,.1,1.32,.62,.27,.71,.17,.75,.44,1.46s.49,.63,.76,1.34c.2,.52-.24,1.07-.76,1.26Z"
              style="fill:none; stroke:#eda100; stroke-linecap:round; stroke-miterlimit:10; stroke-width:1.67px;"/>
    </g>
    <g>
        <path d="M273.52,225.19c.32-.7,.4-1.46,.55-2.18s.23-1.48,.21-2.22,.09-1.54-.09-2.26-.7-1.35-1.04-2.01-.8-1.23-1.28-1.81-.89-1.2-1.49-1.66-1.22-.85-1.92-1.16-1.44-.46-2.15-.61-1.48-.26-2.22-.24-1.52,0-2.24,.19-1.32,.71-1.99,1.05-1.41,.55-1.99,1.03-.94,1.14-1.4,1.74-1.11,1.07-1.42,1.76-.26,1.51-.41,2.23-.48,1.47-.46,2.21,.38,1.47,.56,2.19,.25,1.5,.59,2.17,.76,1.31,1.24,1.89,1.16,.94,1.76,1.39,1.15,.95,1.85,1.26,1.4,.63,2.12,.78,1.51,.09,2.25,.07,1.53,.01,2.25-.17,1.43-.5,2.1-.84,1.3-.77,1.87-1.26,1.09-1.03,1.55-1.64,.88-1.22,1.2-1.91Zm-6.27-1.99c-.85,.32-.8,.46-1.65,.78s-.85,.31-1.7,.63c-.62,.23-1.15-.17-1.38-.79-.32-.85-.57-.76-.89-1.61s-.39-.82-.71-1.67c-.23-.62,.23-1.35,.85-1.58,.85-.32,.86-.3,1.71-.62s.82-.4,1.67-.72c.62-.23,1.34,.12,1.57,.74,.32,.85,.21,.89,.53,1.74s.59,.75,.91,1.6c.23,.62-.28,1.27-.91,1.51Z"
              style="fill:#f3c503;"/>
        <path d="M273.52,225.19c.32-.7,.4-1.46,.55-2.18s.23-1.48,.21-2.22,.09-1.54-.09-2.26-.7-1.35-1.04-2.01-.8-1.23-1.28-1.81-.89-1.2-1.49-1.66-1.22-.85-1.92-1.16-1.44-.46-2.15-.61-1.48-.26-2.22-.24-1.52,0-2.24,.19-1.32,.71-1.99,1.05-1.41,.55-1.99,1.03-.94,1.14-1.4,1.74-1.11,1.07-1.42,1.76-.26,1.51-.41,2.23-.48,1.47-.46,2.21,.38,1.47,.56,2.19,.25,1.5,.59,2.17,.76,1.31,1.24,1.89,1.16,.94,1.76,1.39,1.15,.95,1.85,1.26,1.4,.63,2.12,.78,1.51,.09,2.25,.07,1.53,.01,2.25-.17,1.43-.5,2.1-.84,1.3-.77,1.87-1.26,1.09-1.03,1.55-1.64,.88-1.22,1.2-1.91Zm-6.27-1.99c-.85,.32-.8,.46-1.65,.78s-.85,.31-1.7,.63c-.62,.23-1.15-.17-1.38-.79-.32-.85-.57-.76-.89-1.61s-.39-.82-.71-1.67c-.23-.62,.23-1.35,.85-1.58,.85-.32,.86-.3,1.71-.62s.82-.4,1.67-.72c.62-.23,1.34,.12,1.57,.74,.32,.85,.21,.89,.53,1.74s.59,.75,.91,1.6c.23,.62-.28,1.27-.91,1.51Z"
              style="fill:none; stroke:#eda100; stroke-linecap:round; stroke-miterlimit:10; stroke-width:1.99px;"/>
    </g>
    <g>
        <path d="M188.05,226.11c-.35-1.99,.24-1.79-1-3.89-.6-1.01-1.74-1.93-2.62-3.14-.75-1.02-1.33-2.34-2.29-3.38-.89-.96-2.38-1.36-3.45-2.23s-1.81-2.06-3-2.73-2.45-1.11-3.76-1.53-2.56-.91-3.94-1.03c-1.29-.11-2.71-.28-4.12-.1-1.27,.16-2.64,.54-4,.99s-2.59,.98-3.73,1.58c-1.21,.63-1.89,2.02-2.92,2.81s-2.29,1.4-3.18,2.37-1.63,2.1-2.36,3.19-1.1,2.4-1.68,3.59-1.7,2.17-2.14,3.41-.74,2.6-1.05,3.86c-.32,1.33-.52,2.66-.71,3.93-.21,1.38-.36,2.72-.43,3.97-.09,1.46,.3,2.8,.35,3.98,.08,1.74,.28,3.03,.54,3.85,.31,1.01,.72,2.16,1.69,3.24,.77,.86,1.63,1.83,2.67,2.66,.95,.76,2.03,1.45,3.11,2.13s2.14,1.39,3.23,1.96c1.18,.61,2.31,1.25,3.41,1.67,1.34,.52,2.65,.52,3.68,.67,1.98-.39,1.65-.12,3.84-1.33,1.01-.56,2.03-1.55,3.32-2.36,1.06-.67,1.92-1.8,3.09-2.64,1.05-.75,2.61-.94,3.69-1.82,1.02-.83,1.96-1.84,2.97-2.78s1.96-1.87,2.88-2.88,1.94-1.93,2.75-3.02,1.45-2.32,2.14-3.49,1.42-2.36,1.95-3.6,.69-2.65,1.03-3.97-.08-2.57,.05-3.94Z"
              style="fill:#edb185;"/>
        <path d="M192,224.42c1.81-.66,1.2,.25,3.36,1.31,.99,.48,2.07,1.19,3.36,1.89,1.04,.56,2.22,1.09,3.4,1.79,1.05,.62,2.54,.7,3.66,1.43,1.04,.68,2.02,1.57,3.09,2.34s2.01,1.59,3.04,2.41,1.88,1.76,2.84,2.63,1.53,2.1,2.43,3.03,1.54,2.02,2.38,3,1.7,1.87,2.45,2.92,1.84,1.84,2.49,2.96,1.74,2.03,2.26,3.21,.97,2.45,1.35,3.68,.68,2.54,.9,3.82,.16,2.57,.21,3.87c.27,1.83,.58,1.51,.6,3.7,0,1.08-1.18,2.23-1.42,3.57-.2,1.14-.22,2.33-.71,3.53-.44,1.08-.43,2.51-1.19,3.56-.68,.94-1.57,1.91-2.55,2.77-.87,.76-2.32,.81-3.47,1.46-1.2,.68-2.33,1.36-3.63,1.76s-2.65,.22-4.02,.35-2.65,.58-4.02,.43-2.88,.28-4.19-.12c-1.12-.34-2.33-.94-3.7-1.38-1.17-.38-2.54-.46-3.85-.9-1.19-.4-2.21-1.5-3.49-1.95-1.2-.42-2.66-.27-3.92-.74s-2.36-1.13-3.6-1.61-2.39-1.08-3.61-1.58-2.38-1.12-3.58-1.65-2.08-1.76-3.27-2.31-2.51-.84-3.67-1.43-2.38-1.15-3.5-1.78-2.46-1.06-3.54-1.74c-1.15-.72-2.16-1.58-3.18-2.32-1.11-.81-1.84-1.95-2.76-2.78-1.04-.94-1.95-1.32-2.69-2.29,.6-1.92,1.1-.56,3.21-1.97,.95-.64,1.8-1.8,3.04-2.69,1-.72,2.14-1.45,3.28-2.33,1.01-.78,1.79-1.94,2.88-2.83,1-.82,2.28-1.38,3.32-2.3,.98-.86,2.12-1.62,3.12-2.56s1.82-1.95,2.78-2.93,1.67-2.09,2.58-3.1,1.62-2.12,2.48-3.16,2.44-1.51,3.24-2.59,.71-2.77,1.44-3.9,1.24-2.35,1.89-3.52,1.94-1.74,2.49-2.96Z"
              style="fill:#940000;"/>
        <path d="M180.36,230.2c1.52-1.54-.94-2.14-.64-4.24,.2-1.36,1.11-2.66,2.63-3.37,.99-.46,2.16-.94,4.04-.71,1.69-1.25,.77-1.71,2.07-3.44,.81-1.07,1.78-2.53,3.24-2.84,1.13-.24,2.51,.5,4.09,1.29,1.78,.99,1.79,.76,3.27,2.41,.85,.95,1.95,2.09,2.39,3.42,.41,1.22,.34,2.78-.12,4.21-.35,1.1-1.5,2.13-2.62,3.3-.35,1.96,.3,1.77,.29,3.96,0,1.22-.05,2.41-.64,3.7-.51,1.11-.93,2.33-2.15,3.18-.94,.65-2.11,1.21-3.62,1.56-.96,1.68,.51,1.95-.19,3.9-.39,1.1-1.38,2.09-2.59,2.92-.9,.62-2.37,.75-3.92,.91-1.37,1.21,.23,2.23-1.03,3.86-.67,.87-1.95,1.41-3.13,2.05-.97,.52-2.11,.68-3.49,.76-1.07,.06-2.24,.22-3.6-.12-.71,1.76,.69,1.88-.13,3.69-.42,.93-1.26,1.72-2.79,2.34-.94,.38-1.97,.9-3.52,1-1.32,1.77-.2,2.4-1.97,3.92-.91,.78-2.39,1.33-4.28,1.29-1.19-.02-2.41-.88-4.1-1.49-1.98-.96-1.67-1-3.34-2.63-1.05-1.02-2.36-1.92-2.85-3.23s-.37-2.7,.72-4.07c.7-.88,1.78-1.8,3.48-2.6,1.03-1.47,.35-1.56,1.14-3.34,.45-1,.78-2.2,1.83-2.97,.85-.62,1.95-1.08,3.35-1.2,1.02-.08,1.88-.03,3.25,.29,.52-2.12-.81-2.7,.32-4.35,.61-.89,1.9-1.47,4.07-1.28,1.4-1.55,.15-1.84,.61-3.89,.29-1.3,.62-2.51,1.97-3.24,.96-.52,2.01-.89,3.81-.64-.4-2.27-2.1-2.98-.3-4.11,.72-.45,2.02-.68,4.45-.24Z"
              style="fill:#fff;"/>
        <path d="M109.27,226.07c.35-1.99,.6-1.37,1.85-3.47,.6-1.01,1.18-2.25,2.07-3.45,.75-1.02,1.18-2.47,2.14-3.5,.89-.96,2.41-1.34,3.48-2.21s2.05-1.66,3.24-2.33,2.3-1.31,3.61-1.73,2.52-.92,3.91-1.04c1.29-.11,2.6,.32,4.01,.5,1.27,.16,2.65,.05,4.02,.5s2.67,.73,3.81,1.33c1.21,.63,2.12,1.73,3.14,2.53s1.94,1.81,2.83,2.78,1.8,1.95,2.53,3.05,1.87,2.03,2.44,3.22,.71,2.63,1.15,3.87,.69,2.59,1,3.85c.32,1.33,.98,2.57,1.17,3.84,.21,1.38-.35,2.78-.28,4.03,.09,1.46,.86,2.8,.81,3.98-.08,1.74-.58,3.11-.83,3.94-.31,1.01-1.18,1.97-2.15,3.04-.77,.86-1.38,2.1-2.43,2.93-.95,.76-2.27,1.12-3.35,1.8s-2.09,1.45-3.19,2.01c-1.18,.61-2.18,1.56-3.28,1.98-1.34,.52-2.78,.51-3.81,.66-1.98-.39-1.17-1.12-3.36-2.33-1.01-.56-2.52-.67-3.81-1.48-1.06-.67-2.3-1.28-3.47-2.11-1.05-.75-2.01-1.76-3.09-2.64-1.02-.83-1.91-1.87-2.91-2.81s-2.27-1.55-3.19-2.56-1.19-2.51-2-3.6-2.11-1.83-2.79-3-1.13-2.48-1.66-3.73-.37-2.68-.71-4-.75-2.45-.88-3.82Z"
              style="fill:#fbd9b9;"/>
        <path d="M139.17,212.99c-2.21,.14-2.16-.14-4.4,.48-1.42,.39-2.77,1.22-3.77,2.19s-1.7,2.18-1.27,3.96c.14,1.63-.06,1.91,1.48,2.77,.68,.39,1.72,.66,3.22,.38,1.65-.31,2.64-1.15,3.57-1.92,1.02-.85,1.92-1.77,3.09-2.68,.92-.71,1.99-1.38,3.58-1.85,.59-1.62-.87-1.39-2.32-2.42-.89-.64-1.95-1.07-3.19-.91Z"
              style="fill:#edb185;"/>
        <path d="M151.03,226.07c-1.89,.67-1.66,.89-3.29,2.33-.96,.85-1.76,2.01-2.38,3.19s-1.06,2.45-.67,3.84c.61,2.2,1.68,2.95,2.73,3.05,1.41,.13,2.94-.97,3.68-2.01,.43-.61,.94-2.07,1.34-3.67,.32-1.29,.55-2.69,.54-3.88-.01-1.71-.54-3.05-1.95-2.85Z"
              style="fill:#edb185;"/>
        <path d="M105.45,224.65c-1.81-.66-1.34-.44-3.51,.61-.99,.48-1.97,1.43-3.26,2.12-1.04,.56-2.36,.88-3.54,1.58-1.05,.62-1.74,1.96-2.86,2.69-1.04,.68-2.21,1.23-3.28,2.01s-1.97,1.6-2.99,2.41-2.53,.98-3.5,1.84-1.95,1.72-2.86,2.65-1.05,2.54-1.88,3.52-2.07,1.64-2.82,2.69-.79,2.53-1.44,3.64-1.06,2.27-1.58,3.44-2.12,1.93-2.51,3.16-.46,2.57-.68,3.85,.02,2.59-.04,3.89c-.27,1.83-.69,1.46-.71,3.65,0,1.08,.36,2.32,.6,3.66,.2,1.14,1.13,2.07,1.62,3.28,.44,1.08,.25,2.52,1.01,3.57,.68,.94,1.84,1.5,2.83,2.36,.87,.76,1.77,1.49,2.92,2.14,1.2,.68,2.46,1.04,3.76,1.44s2.58,.47,3.95,.6,2.75,1.43,4.12,1.28,2.83-.45,4.15-.85c1.12-.34,2.31-1.01,3.68-1.45,1.17-.38,2.47-.65,3.79-1.09,1.19-.4,2.45-.82,3.73-1.27,1.2-.42,2.02-2.04,3.28-2.51s2.95,.44,4.19-.05,2.18-1.61,3.4-2.11,2.28-1.33,3.49-1.86,2.75-.32,3.93-.87,2.49-.97,3.65-1.55,1.97-1.96,3.1-2.59,2.21-1.46,3.3-2.14c1.15-.72,2.48-1.09,3.5-1.84,1.11-.81,2.4-1.37,3.32-2.2,1.04-.94,1.92-2.34,2.67-3.3-.6-1.92-1.7-.49-3.8-1.9-.95-.64-2.07-1.41-3.31-2.3-1-.72-1.88-1.81-3.02-2.69-1.01-.78-2.42-1.17-3.51-2.07-1-.82-1.58-2.22-2.62-3.14-.98-.86-2.19-1.53-3.19-2.47s-2.24-1.53-3.2-2.5-1.98-1.83-2.89-2.84-1.46-2.3-2.32-3.35-1.22-2.45-2.01-3.53-2.28-1.7-3.01-2.83-.66-2.74-1.3-3.92-1.78-1.65-2.33-2.87Z"
              style="fill:#c9002a;"/>
        <path d="M116.88,230.48c-1.52-1.54,1.4-2.45,1.1-4.55-.2-1.36-1.34-2.5-2.86-3.21-.99-.46-2.55-.46-4.44-.22-1.69-1.25-.63-2.09-1.94-3.82-.81-1.07-1.58-2.21-3.04-2.52-1.13-.24-2.37-.03-3.95,.76-1.78,.99-1.7,.82-3.18,2.47-.85,.95-1.98,2.02-2.42,3.35-.41,1.22,.15,2.57,.61,4.01,.35,1.1,.62,2.36,1.73,3.54,.35,1.96-.93,1.72-.93,3.91,0,1.22,.71,2.54,1.3,3.83,.51,1.11,1.16,2.29,2.38,3.14,.94,.65,2,1.22,3.51,1.57,.96,1.68,.09,1.71,.78,3.65,.39,1.1,.78,2.51,1.98,3.34,.9,.62,2.44,.61,3.99,.77,1.37,1.21,.6,1.55,1.85,3.17,.67,.87,.99,2.43,2.17,3.07,.97,.52,2.37,.16,3.75,.24,1.07,.06,1.99,.36,3.34,.02,.71,1.76-.75,1.92,.06,3.74,.42,.93,1.6,1.54,3.13,2.16,.94,.38,2.41,.6,3.96,.7,1.32,1.77-.31,2.8,1.46,4.32,.91,.78,2.43,.65,4.32,.61,1.19-.02,2.47-.15,4.17-.76,1.98-.96,1.85-.86,3.52-2.49,1.05-1.02,2.61-1.98,3.09-3.3s-.12-2.88-1.21-4.25c-.7-.88-2.1-1.57-3.81-2.37-1.03-1.47,.16-1.88-.62-3.65-.45-1-1.13-1.91-2.17-2.67-.85-.62-1.78-1.54-3.18-1.65-1.02-.08-2.73,.42-4.09,.75-.52-2.12,1.4-2.75,.28-4.4-.61-.89-1.79-1.52-3.95-1.33-1.4-1.55,.46-2.05,0-4.1-.29-1.3-1.27-2.12-2.62-2.85-.96-.52-2.09-1.21-3.88-.96,.4-2.27,2.31-2.93,.52-4.05-.72-.45-2.3-.41-4.73,.03Z"
              style="fill:#fff;"/>
    </g>
</svg>
