<svg xmlns="http://www.w3.org/2000/svg" viewBox="0 0 300 300"><path style="fill:none" d="M0-1.21h300v300H0z"/><path d="M234.38 241.18s13.94-11.26 24.25-38.94c0 0 5.73-17.92 6.08-27.14.35-9.23.85-31.89 12.39-29.33 0 0 8.83.75 9.96 7.98 0 0 6.48-.39 7.75 5.81 0 0 2.93.49 4.61 4.41 0 0-1.68 54.61-47.1 95.74l-17.94-18.51Z" style="fill:#fff"/><path d="M238.79 241.65s24.04-23.55 30.13-67.09c0 0-1.73-26.05 7.38-26.25 0 0 7.76-.32 8.01 8.6 0 0 7.85-2.12 7.7 7.02 0 0 4.33-1.77 6.45 7.84 0 0-3.1 47.87-46.15 87.93 0 0-1.18-8.52-13.53-18.05Z" style="fill:#8abb2e"/><path d="m284.32 156.91-4.64 18.95-6.01 25.48s-12.24 39.86-27.1 47.65l-2.68-2.88s7.91-8.43 12.51-17.39c4.6-8.95 11.11-24.74 13.7-35.18s4.06-17.17 4.58-22.55c.51-5.38 2.65-17.37 9.27-16.81 0 0 .92.47.37 2.73Z" style="fill:#e80a20"/><path d="M292.02 163.92s2.48-1.29 4.05 1.82c0 0-2.2 2.24-4.43 10.59-2.23 8.35-12.28 49.4-30.15 68.33 0 0-7.72 8.69-11.3 9.6l-1.15-1.9 8.58-11.55 17.65-35.34 5.43-20.12s9.43-21.25 11.32-21.42Z" style="fill:#e80a20"/><path d="M284.32 156.91s-4.86 1.73-6.01 15.22c-1.15 13.5-12.64 57.27-32.93 75.37 0 0 2.73 3.33 3.67 4.86 0 0 20.1-12.81 32.95-56.06 0 0 7.1-29.37 10.02-32.38 0 0 1.44-8.81-7.7-7.02Z" style="fill:#008537"/><path d="M215.02 255.87s-14.61 10.38-44.05 12.8c0 0-18.8.67-27.78-1.5s-30.93-7.81-31.59 3.99c0 0-1.66 8.7 4.99 11.75 0 0-2.13 6.14 3.49 9.03 0 0-.33 2.95 3 5.63 0 0 53.03 13.16 104.91-19.43l-12.97-22.28ZM67.1 43.57c-1.81-2.5-4.59-3.87-7.8-3.87-4.86 0-10.54 3.24-12.17 6.94-.61 1.38-.77 3.48 2.58 8.61.05.08.31.47.72 1.06-1.42-.84-3.04-1.28-4.8-1.28-5.59 0-11.33 4.46-12.54 8.29-.56 1.77.14 3.79 2.32 6.77 1.21 1.66 3.42 4.19 5.93 6.49-3.78-1.87-8.12-3.2-11.41-3.2-3.89 0-5.81 1.71-6.74 3.14-2.91 4.51.07 11.47 2.11 15.21.45.83 1.86 3.3 3.73 5.59l-.99-.57c-4.45-2.6-6.88-3.96-9.2-3.96-1.96 0-3.56 1-4.52 2.82-1.46 2.78.38 5.17 2.48 7.04-1.14-.5-2.31-.86-3.42-.86-1.58 0-2.93.73-3.7 1.99-.85 1.38-1.09 2.89-.7 4.37.67 2.54 3.06 4.74 8.25 7.61.62.34 1.22.68 1.81 1.01 3.91 2.2 6.99 3.93 9.64 3.93 2.02 0 3.67-1.02 4.53-2.79 1.73-3.59-2-6.33-4.5-8.05 1.72.72 3.7 1.46 5.45 1.46 2.27 0 3.42-1.21 3.9-1.94.77-1.17 1.02-2.48.71-3.79-.34-1.46-1.3-2.67-2.71-3.83.92-.08 1.78-.44 2.44-1.08 3.23-3.1 1.59-7.03.8-8.92-.11-.26-.25-.6-.34-.86.38-.81.97-1.71 1.44-2.25.02 0 .03.01.05.02 1.04.46 2.46 1.08 4.04 1.08 2 0 3.71-.99 4.79-2.79.76-1.26.73-2.81-.09-4.26-.26-.47-.64-.94-1.08-1.42.96.4 1.88.64 2.72.64 1.11 0 2.12-.35 2.92-1.01 1.75-1.44 2.17-3.05 2.22-4.15.13-2.93-2.14-5.17-3.8-6.81 1.41-1.54 3.72-4.56 2.58-8.26 2.58 2.78 5.76 5.4 8.55 5.4a4.5 4.5 0 0 0 2.45-.71c1.89-1.24 2.49-2.79 2.66-3.88.45-2.9-1.56-5.37-3.03-7.18 2.05-1.81 5.93-5.94 1.72-11.75Z" style="fill:#fff"/><path d="M84.13 39.48c-.14-.87-.04-1.24.19-2.07.13-.45.28-1.01.4-1.68.81-2.89 1.37-6.76-.41-9.12-.89-1.19-2.24-1.84-3.78-1.84-.32 0-.65.03-.98.08-3.81.64-4.54 5-5.02 7.89 0 .04-.01.08-.02.12l-.06-.03c-1.83-.87-3.9-1.85-5.95-1.85s-3.22.92-3.9 1.7a5.93 5.93 0 0 0-1.25 5.53c.38 1.36 1.62 3.82 5.62 5.09 1.53.48 2.74.79 3.62 1.01.28.07.57.14.82.21 1.63 4.37 4.05 9.2 8.32 9.2.85 0 1.69-.21 2.48-.62 5.45-2.84 1.67-10.19.24-12.96-.14-.27-.26-.5-.34-.67ZM121.47 17.15c-1.48-5.29-2.65-9.47-6.4-9.47-.3 0-.6.03-.9.1a5.013 5.013 0 0 0-3.27 2.38c-.81 1.37-1.02 3.02-.86 4.93-2.39-2.55-4.67-4.18-7.12-4.18-.58 0-1.15.1-1.69.29-5.2 1.83-4.21 6.34-2.58 13.82l.22 1c1.71 7.85 2.65 12.17 6.72 12.17.36 0 .72-.05 1.07-.14 3.69-.95 4.44-3.71 4.3-6.53 1.83 1.94 3.97 3.47 6.54 3.47.44 0 .89-.05 1.32-.15 1.44-.32 2.62-1.2 3.41-2.53 2.12-3.58.79-9.75-.18-13.11-.2-.7-.4-1.39-.59-2.07Z" style="fill:#fff"/><path d="M139.82 19.87c.08-.11.15-.21.23-.33.65-1.05.84-2.31.53-3.56-.13-.51-.54-1.71-1.72-2.57 1.22-.99 2.06-2.39 1.78-4.42-.23-1.73-1.61-4.63-8.28-4.63-2.45 0-6.02.44-8.03 1.66-1.89 1.15-2.21 3.53-2.28 5.47-.12 3.23 1.34 17.53 4.39 19.7.61.43 1.62.93 4.12.93.85 0 8.36-.11 11.3-3.9 1.03-1.32 1.37-2.93.96-4.53-.46-1.8-1.53-3.12-3.01-3.81ZM166.45 3.34h-.23c-4.24.17-5.43 5.22-6.21 9.79-.82-.62-1.76-1.07-2.89-1.07-.21 0-.42.02-.62.05-.87.14-1.6.52-2.22 1.01-1.22-4.51-3.06-9.7-7.58-9.7-.22 0-.44.01-.66.04-.17.02-.33.06-.49.11-1.4.43-2.5 1.35-3.19 2.68-1.35 2.59-1.06 6.62.91 12.7l.58 1.79c2.07 6.47 3.22 10.03 7.33 10.03h.14c2.91-.08 4.36-2.76 5.53-4.93l.08-.15.02.05c1.04 2.1 2.45 4.98 5.46 4.98h.19c6.26-.28 7.93-9.24 8.56-12.62 1.3-6.98 1.07-10.73-.78-12.96-.97-1.17-2.36-1.81-3.92-1.81ZM260.59 51.6c-1.52-4.2-6.43-9.77-9.56-9.94h-.24c-2.34 0-5.19 1.83-10.18 6.52l-.36.34c-.36.33-.79.73-1.26 1.19.91-2.48 1.41-4.87 1.59-5.77 1.5-7.84 0-13.27-4.1-14.91-.85-.34-1.78-.51-2.77-.51-5.06 0-11.9 4.95-16.02 9.7-.12-.32-.27-.63-.46-.92 1.29-.45 2.29-1.43 2.78-2.79.44-1.19.38-2.22.05-3.1 1.76-.21 3.17-1.16 3.92-2.67.41-.83.91-2.52-.33-4.63-1.96-3.33-8.26-6.79-11.53-6.95h-.17c-1.08 0-2 .44-2.82 1.1 0-1.01-.34-2.51-1.97-3.79-.83-.66-1.86-1.01-2.97-1.01-2.22 0-4.36 1.37-6.24 2.58-.03.02-.07.04-.1.07 0-.02-.01-.04-.02-.06-.89-2.95-2.24-7.41-6.49-7.41a5.959 5.959 0 0 0-4.94 2.78c-.75 1.19-1.75 3.77 0 7.58.67 1.46 1.25 2.56 1.68 3.36.13.25.28.52.4.75-1.74 3.36-3.47 7.5-2.26 10.67.55 1.44 1.67 2.54 3.14 3.09.6.22 1.22.34 1.84.34 4.6 0 6.77-5.76 7.94-8.85.11-.28.19-.52.27-.7.55-.69.9-.86 1.66-1.24.42-.21.94-.46 1.51-.83.74-.37 1.52-.8 2.27-1.29-2.54 4.69-6.03 12.27-5.05 14.92 1.05 2.79 8.05 6.48 12.29 6.48.7 0 1.35-.09 1.94-.26a4.118 4.118 0 0 0 1.7 3.28c1.09.76 2.28 1.15 3.56 1.15 2.23 0 4.04-1.21 5.36-2.09.23-.15.54-.36.78-.5.86.22 1.87.63 2.48.98v.05c-.37 1.63-1.47 6.58 3.38 8.33.42.15.86.23 1.3.23.38 0 .74-.06 1.08-.16-.85 2.04-.94 4.12.63 5.88.93 1.04 2.19 1.61 3.56 1.61 1.58 0 3.06-.75 4.36-1.71-.94 3.4-1.33 7.75 2.03 10.09.17.12.35.22.53.3.65.28 1.32.42 1.98.42 4.72 0 5.78-5.93 6.49-9.86 0-.05.02-.1.03-.16 2-.15 3.84-1.02 5.6-2.66 2.4-2.24 3.01-5.44 1.71-9.02Z" style="fill:#fff"/><path style="fill:#8abb2e" d="m22.69 103.99-.92-.85-.74-1.23-1.19-.69-.9-1.04-1.04-.84-.67-1.12-.55-1.38 1.12-1 1.42-.03 1.43.02 1 1.14h1.52l1.1.83 1.11.83 1.21.63 1.07 1.12 1.36.61 1.56.27.98 1.24 1.31.7 1.23.82 1.36.77.86 1.43-.71 1.52-1.18.82-1.39-.25-1.21-.67-1.39-.17-1.34-.31-.95-1.27-1.26.45-1.59.62-.5 1.59-.09 1.55.73.81 1.21.57 1.04.85.65 1.38 1.32.49.7 1.16.08 1.2-.92 1.16-1.56.14-1.42-.52-1.18-1-1.62-.05-1.29-.75-.97-1.3-1.37-.58-1.3-.74-1.46-.27-.9-1.22-1.5-.27-.87-1.19-1.35-.62-.69-1.3-.65-1.41.54-1.5 1.67-.35 1.37.7 1.53.32 1.41.64 1.24.96 1.57.63.78-1.48 1.1-1.12.09-1.45z"/><path d="m46.56 85.31-.68 1.37-1.51-.28-1.52.34-1.38-.51-1.18-.92-1.44.31-.71 1.26-.82 1.08-.93 1.05-.74 1.2.57 1.49.63 1.3.08 1.53.46 1.36-.37 1.35-.67 1.19-1.17.05-1.48-.25-.99-1.05-.84-1.16-1.15-.89-.36-1.5-1.33-.81-.59-1.31-.56-1.31-.7-1.23-.22-1.45-.65-1.25-.95-1.18.14-1.51-.35-1.36-.13-1.4-.16-1.48.53-1.44 1.37-.82 1.32-.75 1.5-.09 1.45.34 1.49-.1 1.49.11 1.2 1.13 1.64-.25 1.09 1.22 1.45.33 1.46.37 1.27.75 1.38.59 1.16.95.67 1.47 1.28.81-.05 1.33Zm-16.05-3.28.25 1.47-.19 1.56 1.27.95.87.65 1.29-.08 1.14-.84.38-1.38.19-1.25-.79-1.24-1.41-.67-1.52.43-1.46.39Z" style="fill:#008537"/><path d="m50.13 60.35 1.22.84.58 1.33-.2 1.41.37 1.54-1.01 1.13-.62 1.37-1.22.83-.85 1.11.66 1.39 1.39.77.64 1.49 1.43.81.73 1.46-.53 1.53-1.03 1.01-1.2.62-1.38-.43-1.15-.86-1.1-.89-1.4-.49-1.17-.83-.78-1.27-1.15-.86-.87-1.14-1.06-.96-.88-1.12-1.29-.79-.76-1.23-.65-1.29-.94-1.15.3-1.41.12-1.56 1.08-1.04 1.17-.88 1.14-.91 1.43-.4 1.25-.69 1.26-.88 1.51.27 1.43-.05 1.41.31 1.46.42.63 1.47Zm-3.2 2.39-1.52-.19-1.35.16-1.45.37-.32 1.47-.04 1.07 1.09.7.77 1.03 1.12.58 1.17-.86.28-1.46.85-1.31-.6-1.55Z" style="fill:#e80a20"/><path d="m64.51 45.45 1.23.95.51 1.43-.45 1.48-.5 1.28-.67 1.24-.75 1.3-1.18.83-.7.93v1.52l1.31.91.9 1.23.47 1.48 1.17 1.23-.63 1.53-.87 1.4-1.62-.11-1.28-.63-1.08-.92-1.39-.55-.64-1.4-1.45-.57-1-1.03-.59-1.37-.75-1.22-1.17-.9-.81-1.18-.57-1.33-.59-1.3-1.06-1.05-.63-1.32.34-1.38.64-1.26 1.16-.86 1.08-.94 1.28-.65 1.13-1.05 1.45-.32 1.47-.09 1.47-.35 1.35.78 1.58-.06 1.15 1 .69 1.32Zm-3.68 2.21-1.42-.2-1.24.07-1.45.08-1.09 1 .29 1.32 1.03.81.78.97.95.46 1.4-.24.44-1.47.47-1.32-.16-1.47Z" style="fill:#8abb2e"/><path style="fill:#008537" d="m80.11 28.17 1.33-.07.96 1.1.33 1.49-.3 1.49.06 1.54-.94 1.31-.04 1.34-.08 1.33-.21 1.25-.22 1.36 1.15 1.06.65 1.25.1 1.49.45 1.32.55 1.29.59 1.39-.45 1.48-1.02 1.2-1.53-.47-1.43-.11-1-1.07-.47-1.42-1.38-.9-.27-1.48-.93-1.2-.18-1.48-.92-.82-1.2-.54-1.39.15-1.08-.96-1.45.27-1.29-.46-.88-1.11-.71-1.04-.85-1.02.1-1.35.85-1 1.19-.42 1.44-.36 1.45.35 1.17 1.02 1.4.46 1.27.78 1.56.06.8-1.27-.24-1.49.38-1.37.45-1.35.08-1.48 1.18-.96.97-.58z"/><path style="fill:#e80a20" d="m115.17 25.8.15-1.75-.76-1.29-.57-1.33.54-1.66-1.23-1.17-.18-1.46.2-1.5-.34-1.42.31-1.41.74-1.06.92-.63.9.24 1.1.87.21 1.38.53 1.24.84 1.17-.45 1.53.63 1.23.58 1.24.52 1.35.1 1.45.59 1.36-.46 1.51.35 1.4.21 1.46-.4 1.43-1 1.06-.93 1.27-1.66-.01-1.18-1.12-1.13-.92-1.19-.89-1.33-.83-.82-1.27-1.01-1.12-.24-1.68-1.36-.81-1.13-.7-.81 1.13.96 1.24-.18 1.37.69 1.22-.1 1.42.12 1.37-.08 1.37.35 1.43-1.26.76-.9 1.21-1.6-.45-.33-1.47-.28-1.32-.81-1.18-.31-1.33-.03-1.39-.12-1.37-.8-1.23-.4-1.31.19-1.5-.48-1.35-.05-1.43-.36-1.36-.05-1.41-.51-1.47.82-1.32 1.35-.57 1.56-.33 1.07 1.24 1.61.32.97 1.18.9 1.19 1.03 1.08.6 1.43 1.03 1.07 1.37.82.47 1.52 1.06 1.06 1.26 1.2z"/><path style="fill:#8abb2e" d="m137.38 9.42-.28 1.05-.6 1.31-1.25.63-1.29.48-1.5-.38-1.35.54-.61 1.62 1.19 1.06 1.26-.15 1.3-.35 1.35.21 1.24.34.5 1 .01 1.19-.91 1.14-1.32.64-1.57-.52-.96 1.08-.07 1.33.92 1.42 1.5-.41 1.52-.1 1.4.26 1.11.53.74 1.14.32 1.4-1.11.95-1.12.83-1.18.93-1.56-.35-1.32.52-1.38.36-1.41.22-1.42-.23-1.55-.09-.23-1.56-.65-1.24-.59-1.28-.2-1.38.07-1.43-.81-1.26-.24-1.37.29-1.45-.11-1.38-.3-1.37-.5-1.36.09-1.4-.09-1.42.91-1.27.22-1.36 1.34-.5 1.45.06 1.29-.94 1.45.24 1.43-.41 1.41.43 1.38.35 1.2.7.59 1z"/><path style="fill:#008537" d="m153.01 18.76.7-1.16.89-1.03 1.14-.88 1.19-.84 1.63.51 1.03 1.18.9 1.25 1.17 1.25.16-1.64.53-1.28.39-1.33-.12-1.42.85-1.25-.33-1.49 1.14-1.12.43-1.26.7-1.06.92-1.19 1.57.37 1.05 1.25-.43 1.6.14 1.35-.17 1.38.4 1.43-.09 1.41-.06 1.42-.56 1.34-.35 1.33-.57 1.28-.11 1.39-.03 1.45-.35 1.38-1.5.77-.12 1.64-1.25.8-1.45-.06-1.28-.45-.64-1.33-.41-1.44-.72-1.31-.99-1.2-1.41-.33-1.34.43-.78 1.31-.32 1.54-1.48.9-.63 1.35-1.21.89-1.51-.37-.74-1.33-.93-1.18.09-1.58-.72-1.27-.7-1.29-.33-1.42-.06-1.5-1.02-1.14-.4-1.35.22-1.5-.19-1.37-.35-1.36-.5-1.4.34-1.44.53-1.44 1.54-.11 1.38-.19 1.06 1.08.36 1.47 1.35 1.02.12 1.54.85 1.3.03 1.53.27 1.46.2 1.48.88 1.23z"/><path style="fill:#e80a20" d="m205.25 16.88.86 1.15-.13 1.54-1.26.92-1.11.96-1.3.72-1.37.58-.85 1.22-1.47.05-.96.97-.85 1.03-.12 1.46-.57 1.29-.8 1.19-.52 1.32-.67 1.28-1.04 1.02-1.32.6-1.27-.43-1.63-.3-.26-1.59.22-1.47.02-1.51 1.01-1.2.02-1.57 1.3-.98.64-1.32-.08-1.52-1.16-.89-.65-1.13-.66-1.14.13-1.51-.47-1.17-.09-1.24-.36-1.29.53-1.23.98-.99 1.39-.03 1.27.56.64 1.25.79 1.21.85 1.27.59 1.35-.37 1.68 1.36.65 1.1-.18 1.42-.35 1.08-.93 1.31-.56 1.36-.37 1.22-.39 1.25.02z"/><path style="fill:#8abb2e" d="m221.23 27.38-.97.77-1.29.6-1.33-.44-1.4-.07-1.18-.7-1.28-.83-1.12 1.2-.17 1.59 1.53.15.88 1.22 1.38.27 1.16.88-.32 1.44-.87 1.01-1.43.33-1.28-.71-1.33-.45-1.38-.48-1.15 1.43.84 1.4.98 1.17 1.45.41 1.26.8 1.14 1.22-.28 1.67-1.12 1.05-1.36.57-1.47.07-1.39-.41-1.3-.6-1.14-.9-1.62.07-1.1-.95-1.07-.94-1.25-.93.67-1.45-.17-1.49 1.15-1.07.46-1.29.54-1.27-.03-1.52.53-1.29.54-1.3 1.31-.89.63-1.23.8-1.13.33-1.42.75-1.18.83-1.16 1.38-.41 1.35.35 1.21.72 1.36.39 1.43.35 1.3.64.57 1.57 1.58.41.72 1.33-.26 1.43z"/><path d="m245.92 70.19-.48-1.39-.41-1.24-.13-1.39-.43-1.53.71-1.36.43-1.4.35-1.43.41-1.35-.5-1.55-1.53-1-1.34.72-.58 1.37-1.28.61-.99.92-1.05.91-1.35-.25-.95-.45-.65-1.04-.02-1.44.71-1.23 1.05-.97.96-.99.75-1.18 1.03-.92.62-1.35 1.17-.77.83-1.29 1.31-.77 1.5-.52.98-1.14 1.31-.69.91-1.43 1.59.41 1.38.11 1.3.71.65 1.38 1 1.01 1.1.96.43 1.43.71 1.22.4 1.36.12 1.38.68 1.47-1.16 1.12-.68 1.19-.98.86-.93 1.12-1.39.31-1.37-.27-1.04.31-.23 1.34-.39 1.44-.47 1.44-.77 1.35.4 1.71-.94 1.28-1.23.94h-1.51Zm5.62-15.29 1.22-.98-.02-1.62-.8-1.3-1.43-.52-1.02-.5-1.09.67-.73 1.04-.5 1.08.49 1.28 1.1 1.09 1.47.77 1.32-.99Z" style="fill:#e80a20"/><path d="m232.23 53.98-1-1.06-.62-1.18-.2-1.44.73-1.32.2-1.49-.93-1.19-1.28-.52-1.19-.63-1.19-.73-1.32-.45-1.44.6-1.28.71-1.01 1.16-1.46.39-1.54.42-1.35-.86.03-1.34.2-1.34.84-1.11.26-1.55 1.46-.63.6-1.36.83-1.18 1.35-.63 1.02-.98.95-1.08 1.36-.54 1.15-.82 1.27-.62 1.31-.5 1.1-1.11 1.53.28 1.36-.26 1.36.25 1.52.5.81 1.36.23 1.51.36 1.44.19 1.48-.15 1.48-.29 1.45-.58 1.39.5 1.59-.58 1.39-.54 1.38-.15 1.5-1.04 1.18-.07 1.59-1.35.92-.82 1.11-1.15.85Zm.08-16.4-1.39-.24-1.27.77-.96 1.1-1.02 1.24.88 1.26 1.28.61 1.34.2h1.21l1.06-.98.35-1.51-.44-1.48-1.03-.97Z" style="fill:#008537"/><path d="M253.53 258.54s-2.22-22.24-15.38-20.93-29.96 14.31-22.56 25.43c0 0 4.74 11.8 12.39 15.12 0 0 13.46-6.64 25.55-19.62Z" style="fill:#fff"/><path d="M250.24 261.89s-1.88-20.66-11.06-21.42-22.61 10.64-21.5 16.41 5.01 15.89 14.7 18.81c0 0 12.25-8.17 17.87-13.79Z" style="fill:#8abb2e"/><path d="M223.7 246.94s3.34 16.68 14.45 24.94c0 0 5.63-3.78 6.98-5.52 0 0-13.84-17.3-14.78-23.82-2.5.55-4.74 1.95-6.33 3.97l-.33.42Z" style="fill:#008537"/><path d="M234.42 241s5.87 11.8 13.02 23.69l-2.3 1.68s-12.9-14.86-14.78-23.82c0 0 2.6-1.22 4.06-1.56ZM223.7 246.94s-2.67 1.3-3.6 3.7c0 0 3.54 14.3 15.15 23.06 0 0 2.18-1.03 2.9-1.83 0 0-12.67-15-14.45-24.94Z" style="fill:#e80a20"/><path d="M214.27 260.25s-29.18 16.77-72.74 10.85c0 0-24.61-8.71-27.27 0 0 0-2.41 7.38 6.11 10.04 0 0-4.16 6.98 4.67 9.31 0 0-2.88 3.69 5.81 8.33 0 0 46.92 9.97 97.14-20.63 0 0-7.88-3.44-13.71-17.91Z" style="fill:#8abb2e"/><path d="m120.37 281.15 19.49.67 26.16 1.11s41.68-1 53.21-13.19l-2.05-3.36s-10.26 5.33-20.12 7.34-26.82 4-37.58 3.67-17.62-.74-22.95-1.7-17.44-2.15-18.69 4.37c0 0 .21 1.01 2.53 1.09Z" style="fill:#e80a20"/><path d="M125.04 290.46s-1.91 2.04.65 4.39c0 0 2.75-1.51 11.4-1.4s50.88 1.55 73.93-10.53c0 0 10.46-5.08 12.3-8.28l-1.52-1.62-13.44 5.13-38.8 7.42-20.84-.22s-23.01 3.32-23.69 5.1Z" style="fill:#e80a20"/><path d="M120.37 281.15s2.98-4.21 16.28-1.66 58.55 3.33 81.47-11.31c0 0 2.47 3.53 3.69 4.85 0 0-17.77 15.88-62.88 16.54 0 0-30.2-1.11-33.89.89 0 0-8.87-1-4.67-9.31Z" style="fill:#008537"/><path d="M91.63 267.46c-.37.32-.04.6-.19 1.06s.31.62.15 1.09-.87.23-1.02.7.47.68.32 1.14-.64.3-.8.77.15.57 0 1.03-.5.35-.65.82-.43.38-.59.84.48.68.32 1.15-.08.35-.58.38.01-.06-.2-.51-.33-.39-.54-.84.14-.62-.08-1.06-.67-.23-.88-.67-.44-.34-.65-.79-.03-.54-.25-.98.19-.65-.02-1.09-.69-.22-.91-.66.23-.66.01-1.11-.67-.23-.89-.68.03-.57-.19-1.02-.07-.73-.53-.92-.59-.03-1.03.14-.44.17-.88.35-.48.08-.92.26-.24.69-.68.87-.62-.28-1.07-.11-.43.2-.87.38-.36.39-.8.56-.26.63-.71.81-.42.23-.87.41-.5.14-.78-.25.4.12.71-.25.29-.38.6-.76-.13-.73.18-1.1.61-.13.91-.5-.17-.77.13-1.14.27-.41.57-.78.52-.2.82-.57.56-.16.87-.54.2-.46.51-.84.62-.12.93-.49.18-.48.49-.85.75-.42.81-.9-.99-.35-1.2-.81-.32-.4-.52-.86.38-.72.17-1.17-.67-.24-.88-.7-.26-.43-.46-.88-.26-.43-.47-.88-.13-.49-.34-.94.12-.6-.09-1.06-.7-.58-.38-.95c.31-.35.46.17.88.39s.51.03.93.25.5.06.92.28 0 1 .43 1.21.39.28.8.5.41.23.83.45.82-.56 1.24-.34.26.51.68.73.18.66.6.88.56-.05.98.17.45.16.87.37.44.18.86.4.29.03.75-.07.03-.2.33-.58.93.1 1.22-.28.4-.3.69-.69 0-.61.31-.99.14-.51.43-.89.46-.25.76-.64.07-.56.36-.94.6-.15.9-.54-.03-.64.27-1.02.38-.32.68-.71.29-1.07.75-.9.18.69.15 1.18.05.49.03.97-.15.48-.18.96.13.5.1.98-.51.46-.54.95.53.52.51 1-.7.45-.73.93.27.5.24.99-.56.46-.58.95.44.51.41 1-.26.53-.01.95.52-.08.95.12.29.49.73.69.42.22.85.42.43.21.86.41.46.14.89.34.5.05.93.25.17.75.6.96.41.25.84.45.74-.46 1.17-.25.37.34.8.54.58-.11 1.01.1 1.19.44 1.1.91-.92-.02-1.41.06-.41.51-.9.59-.48.12-.96.2-.6-.58-1.08-.49-.41.55-.89.63-.55-.28-1.03-.19-.5-.01-.99.07-.5 0-.99.07-.39.66-.88.74-.57-.42-1.05-.34-.49.05-.98.13-.51-.05-1 .03-.43.72-.92.68c-.57-.04-.7-.41-1.08-.09Z" style="fill:#ffffd1"/><path d="M41.62 224.64c-.34.29-.03.54-.17.95s.28.56.14.97-.78.21-.92.63.42.61.28 1.02-.58.27-.72.69.14.51 0 .93-.45.32-.59.74-.39.34-.53.76.43.61.29 1.03-.08.31-.52.34.01-.05-.18-.45-.29-.35-.49-.76.12-.55-.07-.96-.6-.2-.79-.61-.39-.31-.59-.71-.03-.48-.23-.88.17-.58-.02-.98-.62-.19-.82-.59.2-.6 0-1-.6-.2-.8-.61.03-.51-.17-.92-.06-.65-.48-.83-.53-.03-.93.13-.4.15-.79.31-.43.07-.83.23-.21.62-.61.78-.56-.25-.96-.1-.39.18-.78.34-.32.35-.72.5-.24.57-.64.72-.38.21-.78.37-.45.12-.7-.22.36.11.63-.22.26-.34.54-.68-.11-.65.16-.99.55-.11.82-.45-.15-.69.12-1.02.24-.37.51-.7.46-.18.74-.51.5-.15.78-.48.18-.41.46-.75.56-.1.84-.44.17-.43.44-.77.67-.38.73-.81-.89-.32-1.07-.72-.28-.36-.47-.77.34-.64.15-1.05-.6-.22-.79-.62-.23-.38-.42-.79-.24-.38-.42-.79-.12-.44-.3-.85.11-.54-.08-.95-.63-.52-.34-.86c.28-.32.42.16.79.35s.46.03.83.23.45.05.82.25 0 .89.38 1.09.35.25.72.44.37.2.75.4.74-.5 1.11-.3.24.46.61.66.16.6.54.79.5-.05.88.15.41.14.78.34.39.17.77.36.26.03.67-.06.03-.18.29-.52.83.09 1.1-.25.36-.27.62-.62 0-.54.27-.89.12-.45.39-.8.42-.23.68-.57.06-.5.32-.85.54-.14.8-.48-.02-.57.24-.92.34-.29.61-.64.26-.96.67-.81.16.62.14 1.06.05.44.03.87-.14.43-.16.87.12.44.09.88-.46.41-.49.85.48.46.46.9-.63.4-.65.84.24.45.22.89-.5.41-.52.85.4.46.37.9-.23.47 0 .85.47-.07.85.11.26.44.65.62.38.2.76.38.38.19.77.37.41.13.8.31.45.04.84.22.15.68.54.86.36.22.75.4.66-.41 1.05-.23.33.3.72.48.52-.1.91.09 1.06.39.99.82-.83-.02-1.26.05-.37.46-.8.53-.43.11-.86.18-.54-.52-.97-.44-.37.49-.8.56-.49-.25-.93-.17-.45 0-.89.06-.45 0-.89.07-.35.59-.78.66-.51-.38-.95-.3-.44.04-.88.12-.46-.05-.9.03-.38.64-.83.61c-.51-.04-.63-.37-.97-.08Z" style="fill:#d8ffd1"/><path d="M63.21 255.06c-.35-.16-.37-.36-.76-.32s-.32.64-.71.68-.43-.44-.82-.4-.39.02-.77.05-.33.59-.72.63-.48-.04-.71-.36c-.2-.28.35 0 .58-.27s.12-.36.34-.63-.07-.52.16-.79.44-.09.67-.36.26-.24.49-.51.09-.38.32-.66.07-.41.3-.68.73 0 .71-.36c-.03-.37-.06-.5-.33-.76s-.42-.11-.69-.37-.25-.28-.52-.54-.15-.39-.42-.65-.67.15-.94-.11-.56-.39-.35-.71.37.09.75.2.45-.17.83-.07.32.29.7.4.45-.17.83-.06.29.44.67.54.43-.08.81.03.39.76.77.66c.34-.09.11-.56.34-.83s.06-.42.3-.68.46-.07.69-.33.09-.39.33-.65.24-.26.48-.53.17-.28.5-.13.23.1.21.46-.19.35-.21.71-.2.35-.22.71.36.38.34.74-.09.36-.11.72.21.38.19.74-.5.33-.52.7-.23.52-.01.81.54-.33.89-.25.3.31.65.39.27.43.62.51.33.18.68.26.41-.16.76-.08.45-.31.8-.22.87.11.9.47-.72-.14-1.06-.01-.29.26-.62.39-.41-.05-.74.08-.15.61-.49.74-.36.08-.7.21-.47-.21-.81-.08-.21.32-.41.62c-.21.32-.51.26-.52.65s.01.38 0 .77.52.39.52.78-.14.38-.14.77-.04.39-.04.77.19.39.19.78 0 .42-.35.57c-.33.14-.37.06-.57-.24s-.17-.32-.37-.63.32-.64.12-.94-.72.04-.92-.26-.29-.24-.49-.54.25-.6.05-.91-.16-.33-.36-.63-.4-.17-.57-.49-.14-.35-.47-.5ZM32.65 202.27c-.35-.15-.37-.29-.76-.25s-.34.54-.72.58-.43-.36-.81-.32-.39.02-.78.06-.75.73-1 .42c-.21-.26.53-.38.75-.63s.33-.16.54-.42.13-.33.34-.59-.03-.46.19-.72.39-.11.61-.37.25-.24.46-.49.34-.23.31-.56c-.04-.37-.37-.09-.64-.35s-.08-.45-.35-.71-.09-.45-.36-.71-.4-.13-.67-.4-.7-.07-.5-.39.19.29.56.39.49-.36.86-.26.31.32.68.42.37.09.74.19.43-.13.8-.03.29.46.66.36c.34-.09.02-.4.26-.66s.45-.07.68-.34.12-.37.35-.63.53 0 .76-.27 0-.86.34-.74.22.43.19.77-.27.33-.29.67.14.35.11.69-.03.34-.05.69-.43.32-.45.66.34.37.31.71-.39.42-.18.7.32.23.66.32.41-.23.75-.15.33.14.67.22.39-.11.73-.03.25.47.59.55.58-.29.6.06-.12.39-.44.52-.4-.05-.72.07-.43-.15-.76-.02-.36.05-.69.18-.25.33-.58.45-.21.17-.41.46c-.21.31-.01.22-.02.6s-.49.36-.5.74.11.38.1.75-.17.37-.17.75.43.38.42.76.24.66-.1.83c-.31.15-.04-.48-.23-.76s-.51-.06-.7-.34.19-.53 0-.81-.2-.27-.39-.55-.56-.04-.75-.32-.1-.34-.29-.63-.2-.28-.36-.59-.06-.38-.37-.51ZM262.25 76.75c-.43-.19-.46-.36-.92-.31s-.41.66-.88.71-.52-.44-.99-.39-.47.02-.95.07-.92.89-1.22.51c-.25-.32.65-.46.91-.77s.4-.2.66-.51.15-.4.42-.72-.03-.57.23-.88.48-.13.75-.45.3-.29.56-.6.41-.28.38-.69c-.04-.45-.45-.11-.78-.43s-.1-.55-.43-.87-.11-.54-.44-.86-.48-.16-.81-.48-.85-.09-.62-.48.23.36.68.48.6-.44 1.05-.32.38.39.82.51.45.11.9.23.53-.16.98-.03.35.56.8.44c.41-.11.03-.48.31-.8s.55-.09.83-.41.14-.45.43-.77.64 0 .93-.33 0-1.05.41-.9.26.52.24.94-.33.4-.36.82.16.43.14.85-.03.42-.06.84-.52.39-.55.81.41.45.38.87-.47.52-.22.86.39.29.81.38.5-.28.92-.18.4.17.82.27.47-.13.89-.03.3.57.72.67.71-.35.74.08-.14.48-.54.63-.48-.07-.88.09-.53-.18-.93-.03-.44.07-.84.22-.31.4-.71.55-.26.21-.5.56c-.25.38-.01.27-.02.73s-.6.45-.6.9.13.46.13.92-.2.45-.21.91.52.47.51.93.29.81-.13 1.01c-.37.18-.05-.59-.28-.93s-.63-.08-.86-.42.23-.65 0-.99-.25-.33-.48-.68-.68-.05-.91-.39-.12-.42-.35-.77-.25-.35-.44-.72-.07-.46-.45-.63ZM286.64 124.53c-.33-.15-.36-.21-.72-.18s-.33.42-.69.45-.39-.26-.76-.23-.43.43-.62.12-.05-.36.18-.63.46-.07.69-.35.31-.2.54-.47.16-.33.39-.6.26-.25.24-.6-.09-.28-.34-.52-.23-.27-.49-.51-.33-.17-.59-.42-.79-.29-.64-.61.49.19.82.28.28.28.61.37.37-.04.7.05.33.11.66.2.41.38.75.29.05-.55.27-.8.35-.14.57-.39.22-.26.44-.51.24-.82.53-.66c.32.18-.05.52-.08.88s.15.37.13.74-.24.35-.26.71.1.37.07.74-.53.53-.31.82c.25.31.52-.06.91.03s.42-.05.81.05.34.28.73.37.87-.21.9.19-.45.27-.83.41-.48-.14-.85 0-.28.4-.65.54-.55-.12-.79.19c-.21.27-.12.35-.13.69s.24.34.23.68-.05.34-.05.68.14.34.14.68.08.5-.25.6-.1-.25-.29-.53-.44-.12-.63-.4-.07-.37-.26-.65 0-.41-.2-.69-.17-.28-.32-.58-.28-.28-.59-.42Z" style="fill:#fff"/><path d="M275.91 135.85c-.48-.22-.51-.31-1.03-.25s-.47.6-.99.65-.57-.38-1.09-.33-.62.62-.89.17-.07-.51.25-.9.67-.11 1-.5.45-.29.78-.68.23-.47.56-.87.37-.36.35-.87-.13-.4-.49-.75-.34-.38-.7-.74-.48-.24-.84-.6-1.14-.42-.92-.88.71.27 1.18.4.41.4.88.53.53-.06 1.01.07.47.16.96.29.59.55 1.07.41.07-.79.38-1.15.5-.2.82-.56.31-.37.63-.73.35-1.18.77-.95c.46.25-.08.75-.11 1.27s.22.54.19 1.06-.34.5-.38 1.03.14.54.1 1.06-.77.77-.44 1.18c.35.45.75-.08 1.31.05s.6-.07 1.16.06.49.4 1.05.53 1.26-.3 1.29.27-.65.38-1.19.59-.69-.21-1.23 0-.4.57-.93.77-.79-.17-1.14.28c-.3.38-.17.5-.18.99s.34.49.33.98-.07.49-.08.98.21.49.2.98.11.72-.36.86-.14-.35-.41-.76-.63-.17-.91-.57-.1-.53-.37-.94 0-.59-.28-1-.24-.4-.46-.84-.4-.4-.85-.61Z" style="fill:#e4ffff"/><path d="M58.43 240.29c-.25.22-.03.23-.11.54s-.56.19-.65.51.29.42.2.75.08.37 0 .69-.07.82-.4.85-.25-.54-.41-.84-.21-.27-.37-.56-.05-.36-.22-.65.02-.4-.14-.69-.55-.08-.71-.38.2-.67-.13-.75c-.39-.09-.49-.02-.86.15s-.23.47-.59.64-.42.05-.79.22-.32.6-.6.3.05-.27.28-.58.46-.15.69-.47-.07-.54.16-.86.16-.37.39-.69.96-.05 1-.44-.65-.27-.83-.61.16-.51-.01-.85-.16-.35-.33-.68-.85-.34-.63-.65c.2-.28.52-.02.83.12s.12.57.43.71.52-.31.84-.17.29.2.6.35.26.27.57.41.36.77.69.67.05-.65.25-.94.04-.41.24-.71.35-.2.55-.5.16-.33.37-.63.13-.44.48-.34.39.19.39.55-.39.36-.39.73v1.46c0 .37.12.24.32.54.22.31.1.3.46.44s.35.17.71.31.46-.1.81.04.18.6.54.74.8-.3.77.08-.39-.11-.77-.02-.3.43-.68.52-.4 0-.78.08-.37.14-.75.22-.46-.29-.85-.21c-.35.08-.28.33-.58.59ZM19.92 205.53c-.29.3-.07.34-.18.75s-.47.31-.58.71.42.84.01.94c-.37.09-.38-.3-.56-.64s-.2-.33-.38-.66-.04-.42-.23-.75.01-.5-.36-.61c-.39-.12-.35.08-.72.25s-.44.03-.81.2-.46.88-.77.62c-.28-.24.36-.4.58-.7s.35-.2.57-.5.02-.45.24-.75.5-.2.53-.57-.13-.39-.31-.73-.34-.26-.51-.6-.46-.34-.19-.61.31-.07.67.09.39.1.74.26.17.57.53.73.4.05.78-.03c.33-.07.34-.06.53-.34s.21-.27.4-.56-.01-.42.18-.7.19-.8.52-.7-.22.53-.22.87.38.34.38.69-.05.34-.05.69-.31.37-.11.65c.21.3.2.4.54.53s.45-.14.79 0 .4 0 .74.13.68.1.68.46-.39.19-.73.26-.4-.17-.74-.09-.26.46-.6.54-.4-.19-.75-.14c-.32.05-.34.04-.58.3ZM24.81 133.75c-.48.51-.12.58-.31 1.26s-.79.52-.97 1.2.7 1.41.02 1.58c-.62.15-.64-.51-.95-1.07s-.33-.55-.64-1.11-.07-.7-.38-1.26.02-.84-.6-1.02c-.65-.19-.59.13-1.2.42s-.73.05-1.35.33-.78 1.48-1.3 1.04c-.47-.4.6-.67.97-1.17s.59-.34.95-.85.03-.75.4-1.26.85-.33.89-.96-.22-.66-.51-1.23-.56-.43-.86-1-.78-.57-.32-1.03.53-.12 1.13.15.65.16 1.25.44.29.95.89 1.23.66.09 1.31-.05c.56-.12.57-.1.89-.57s.34-.46.67-.93-.02-.71.31-1.18.32-1.34.87-1.17-.37.88-.37 1.46.64.57.64 1.15-.08.58-.08 1.16-.53.63-.19 1.1c.35.5.33.67.9.89s.76-.24 1.32-.01.67 0 1.24.22 1.15.17 1.14.78-.66.31-1.24.44-.67-.28-1.25-.15-.43.77-1.01.9-.68-.32-1.27-.23c-.54.08-.56.07-.97.51ZM103.25 278.49c-.29.3-.07.34-.18.75s-.47.31-.58.71.42.84.01.94c-.37.09-.38-.3-.56-.64s-.2-.33-.38-.66-.04-.42-.23-.75.01-.5-.36-.61c-.39-.12-.35.08-.72.25s-.44.03-.81.2-.46.88-.77.62c-.28-.24.36-.4.58-.7s.35-.2.57-.5.02-.45.24-.75.5-.2.53-.57-.13-.39-.31-.73-.34-.26-.51-.6-.46-.34-.19-.61.31-.07.67.09.39.1.74.26.17.57.53.73.4.05.78-.03c.33-.07.34-.06.53-.34s.21-.27.4-.56-.01-.42.18-.7.19-.8.52-.7-.22.53-.22.87.38.34.38.69-.05.34-.05.69-.31.37-.11.65c.21.3.2.4.54.53s.45-.14.79 0 .4 0 .74.13.68.1.68.46-.39.19-.73.26-.4-.17-.74-.09-.26.46-.6.54-.4-.19-.75-.14c-.32.05-.34.04-.58.3Z" style="fill:#fff900"/><path d="M287.77 109.48s-3.37-1.46-3.29-6.94c.12-8.71-5.25-16.56-15.01-13.38s-9.48 13.17-6.21 18.01c1.35 2 3.65 7.56 1.39 8.11 0 0 5.5 2.27 14.49-1.07 0 0 6.17-1.87 8.64-4.74Z" style="fill:#ff0"/><path d="M267.52 114.87s-2.05-.16-3.34-.78-3.05.44-2.73 1.81 3.07 3.19 6.76 3.06 12.35-.25 21.76-7.43c0 0 1.56-1.22.62-2.31 0 0-1.33-2.35-3.83-.46-2.5 1.89-8.51 6.71-19.24 6.1Z" style="fill:#ff0"/><path d="M286.76 108.77s-6.92 7.92-21.31 5.76c0 0 .36-1.47-.28-3.2 0 0 7.12 2.73 19.98-4.88 0 0 .6 1.62 1.61 2.33Z" style="fill:#ffbe00"/><circle cx="269.44" cy="88.99" r="2.99" style="fill:#ffbe00"/><path d="M33.04 164.79s-3.37-1.46-3.29-6.94c.12-8.71-5.25-16.56-15.01-13.38s-9.48 13.17-6.21 18.01c1.35 2 3.65 7.56 1.39 8.11 0 0 5.5 2.27 14.49-1.07 0 0 6.17-1.87 8.64-4.74Z" style="fill:#ff0"/><path d="M12.79 170.19s-2.05-.16-3.34-.78-3.05.44-2.73 1.81 3.07 3.19 6.76 3.06 12.35-.25 21.76-7.43c0 0 1.56-1.22.62-2.31 0 0-1.33-2.35-3.83-.46-2.5 1.89-8.51 6.71-19.24 6.1Z" style="fill:#ff0"/><path d="M32.03 164.09s-6.92 7.92-21.31 5.76c0 0 .36-1.47-.28-3.2 0 0 7.12 2.73 19.98-4.88 0 0 .6 1.62 1.61 2.33Z" style="fill:#ffbe00"/><circle cx="14.71" cy="144.3" r="2.99" style="fill:#ffbe00"/></svg>