<?xml version="1.0" encoding="UTF-8"?>
<svg id="_層_1" xmlns="http://www.w3.org/2000/svg" viewBox="0 0 300 300">
    <path d="M58.47,224.12s3.14-14.59,15.67-18.86c0,0,12-.17,3.12,15.07,0,0,6.88,5.74,0,12.65,0,0,7.03,9.11-9.24,11.67,0,0-11.82-10.36-9.55-20.53Z"
          style="fill:#e35f00;"/>
    <path d="M40.42,253.53s-24-24.31-34.26-60.21c0,0-4.28-18.8,11.8-25.84,.86-.38,1.77-.62,2.69-.75,4.91-.72,19.53-.99,26.13,19.37,9.02,27.84,37.3,53.37,37.3,53.37,0,0-1.97,4.52-9.93,7.41,0,0-11.92-1.38-21.48-5.01,0,0,.68,13.31-12.25,11.66Z"
          style="fill:#f3bd09;"/>
    <path d="M28.93,190.83h6.81c.91,0,1.39-1.09,.77-1.76l-4.2-4.57-3.39,6.33Z" style="fill:#7f0825;"/>
    <path d="M28.93,190.83s-5.32,2.96-5.65,8.5,6.21,5.1,6.87,1.11c0,0,2.99,1.55,3.66-2s-3.1-7.62-3.1-7.62h-1.77Z"
          style="fill:#ab3000;"/>
    <path d="M21.8,179.28s-1.44-2.77-4.99-.78-2.55,11.53,3.33,9.31,1.66-8.54,1.66-8.54Z" style="fill:#fff;"/>
    <path d="M20.69,180.83s-.89-2.11-2.77-.55-1.7,6.62,1.39,6.32,1.39-5.76,1.39-5.76Z" style="fill:#42210b;"/>
    <path d="M30.22,174.85s.79-3.02,4.69-1.87c3.9,1.15,5.05,10.67-1.17,9.82s-3.52-7.95-3.52-7.95Z" style="fill:#fff;"/>
    <path d="M31.65,176.11s.4-2.25,2.58-1.16,3.13,6.07,.06,6.47-2.64-5.31-2.64-5.31Z" style="fill:#42210b;"/>
    <path d="M28.22,181.02l6.55-4.22c.68-.44,1.5,.32,1.12,1.03l-6.96,12.99s-3.54-2.66-1.99-8.1c.2-.7,.66-1.31,1.28-1.71Z"
          style="fill:#c00720;"/>
    <path d="M28.93,167.08s3.87-4.77,3.93-9.76-7.84-7.87-9.6,0c0,0-6.75-2-6.08,7.09,0,0-3.66-2.65-5.76,2.67,0,0-1.72,3.84-1.14,6.13,0,0,4.25-4.35,13.56-3.39,1.74,.18,3.45-.57,4.5-1.96l.59-.78Z"
          style="fill:#c00720;"/>
    <path d="M241.65,222.84s-3.14-14.59-15.67-18.86c0,0-12-.17-3.12,15.07,0,0-6.88,5.74,0,12.65,0,0-7.03,9.11,9.24,11.67,0,0,11.82-10.36,9.55-20.53Z"
          style="fill:#e35f00;"/>
    <path d="M258.45,253.53s24-24.31,34.26-60.21c0,0,4.28-18.8-11.8-25.84-.86-.38-1.77-.62-2.69-.75-4.91-.72-19.53-.99-26.13,19.37-9.02,27.84-35.91,51.4-35.91,51.4,0,0,4.2,2.63,12.15,5.52,0,0,8.3,2.49,17.86-1.15,0,0-.68,13.31,12.25,11.66Z"
          style="fill:#f3bd09;"/>
    <path d="M269.94,190.83h-6.81c-.91,0-1.39-1.09-.77-1.76l4.2-4.57,3.39,6.33Z" style="fill:#7f0825;"/>
    <path d="M269.94,190.83s5.32,2.96,5.65,8.5c.33,5.54-6.21,5.1-6.87,1.11,0,0-2.99,1.55-3.66-2s3.1-7.62,3.1-7.62h1.77Z"
          style="fill:#ab3000;"/>
    <path d="M277.07,179.28s1.44-2.77,4.99-.78c3.55,2,2.55,11.53-3.33,9.31s-1.66-8.54-1.66-8.54Z" style="fill:#fff;"/>
    <path d="M278.18,180.83s.89-2.11,2.77-.55,1.7,6.62-1.39,6.32-1.39-5.76-1.39-5.76Z" style="fill:#42210b;"/>
    <path d="M268.64,174.85s-.79-3.02-4.69-1.87c-3.9,1.15-5.05,10.67,1.17,9.82,6.22-.85,3.52-7.95,3.52-7.95Z"
          style="fill:#fff;"/>
    <path d="M267.22,176.11s-.4-2.25-2.58-1.16c-2.18,1.09-3.13,6.07-.06,6.47s2.64-5.31,2.64-5.31Z"
          style="fill:#42210b;"/>
    <path d="M270.65,181.02l-6.55-4.22c-.68-.44-1.5,.32-1.12,1.03l6.96,12.99s3.54-2.66,1.99-8.1c-.2-.7-.66-1.31-1.28-1.71Z"
          style="fill:#c00720;"/>
    <path d="M269.94,167.08s-3.87-4.77-3.93-9.76,7.84-7.87,9.6,0c0,0,6.75-2,6.08,7.09,0,0,3.66-2.65,5.76,2.67,0,0,1.72,3.84,1.14,6.13,0,0-4.25-4.35-13.56-3.39-1.74,.18-3.45-.57-4.5-1.96l-.59-.78Z"
          style="fill:#c00720;"/>
    <path d="M70.45,257.46s7.94-14.24-4.72-27.9c0,0-12.49,8.02-7.26,26.63l11.98,1.28Z" style="fill:#217538;"/>
    <path d="M68.03,263.84s-1.34-24.88-30.14-33.63c0,0-6.68,32.55,25.82,44.59l4.32-10.95Z" style="fill:#2f9b3b;"/>
    <path d="M236.34,257.46s-7.94-14.24,4.72-27.9c0,0,12.49,8.02,7.26,26.63l-11.98,1.28Z" style="fill:#217538;"/>
    <path d="M238.77,263.84s1.34-24.88,30.14-33.63c0,0,6.68,32.55-25.82,44.59l-4.32-10.95Z" style="fill:#2f9b3b;"/>
    <g>
        <path d="M97.54,237.31s-15.51-8.81-30.99,8.17-9.14,37.28,22.65,46.58c0,0,27.48,11.62,34.66-16.04s-16.27-39.66-26.33-38.71Z"
              style="fill:#eda100;"/>
        <path d="M79.69,243.02s-5.37-.57-5.55,3.87,8.75-2.14,5.55-3.87Z" style="fill:#e35f00;"/>
        <path d="M69.81,248.5s-3.94-.42-4.07,2.84,6.43-1.57,4.07-2.84Z" style="fill:#e35f00;"/>
        <path d="M113.44,248.96s3.89,.77,3.04,3.92-5.67-3.41-3.04-3.92Z" style="fill:#e35f00;"/>
        <path d="M122.09,263.68s3.18,2.36,1.07,4.84-3.66-5.51-1.07-4.84Z" style="fill:#e35f00;"/>
        <path d="M120.13,253.55s3.37,2.09,1.48,4.74-4.11-5.18-1.48-4.74Z" style="fill:#e35f00;"/>
        <path d="M115.78,258.71s3.37,2.09,1.48,4.74c-1.89,2.65-4.11-5.18-1.48-4.74Z" style="fill:#e35f00;"/>
        <path d="M71.37,242.57s-3.26,.84-2.4,3.47c.87,2.63,4.65-3.16,2.4-3.47Z" style="fill:#e35f00;"/>
        <path d="M96.6,240.26s1.31-8.6-12.18-7.93c0,0-3.32,3.09-.34,7.14s9.53,4.18,12.24,2.61l.28-1.82Z"
              style="fill:#2f9b3b;"/>
        <path d="M96.98,240.52s3.21-8.09,14.51-.7c0,0,1.31,4.34-3.31,6.33s-10.33-1.2-11.89-3.93l.68-1.71Z"
              style="fill:#2f9b3b;"/>
        <path d="M95.55,242c-.68-1.95-1.38-5.91,1.4-10.63,.94-1.59,2.94-2.29,4.59-1.48,.03,.02,.06,.03,.09,.05,1.92,1,2.36,3.57,1.05,5.29-1.21,1.58-3.22,4.15-5.66,7.04-.43,.51-1.26,.37-1.48-.26Z"
              style="fill:#217538;"/>
        <path d="M119.92,281.74s1.25-3.65-2.91-2.67c-4.16,.98-5.13,4.05-8.82,3.86s-2.21-4.18-8.57-3.16c-6.35,1.02-26,2.26-34.45-7.34,0,0-2.61-1.51-1.48,2.37,1.13,3.86,16.52,19.09,42.26,17.34,.19-.01,.38-.04,.56-.07,1.83-.36,11.81-2.69,13.4-10.32Z"
              style="fill:#ec8a00;"/>
    </g>
    <g>
        <path d="M210.49,237.31s15.51-8.81,30.99,8.17,9.14,37.28-22.65,46.58c0,0-27.48,11.62-34.66-16.04-7.18-27.66,16.27-39.66,26.33-38.71Z"
              style="fill:#eda100;"/>
        <path d="M228.33,243.02s5.37-.57,5.55,3.87-8.75-2.14-5.55-3.87Z" style="fill:#e35f00;"/>
        <path d="M238.22,248.5s3.94-.42,4.07,2.84-6.43-1.57-4.07-2.84Z" style="fill:#e35f00;"/>
        <path d="M194.58,248.96s-3.89,.77-3.04,3.92,5.67-3.41,3.04-3.92Z" style="fill:#e35f00;"/>
        <path d="M185.94,263.68s-3.18,2.36-1.07,4.84,3.66-5.51,1.07-4.84Z" style="fill:#e35f00;"/>
        <path d="M187.9,253.55s-3.37,2.09-1.48,4.74,4.11-5.18,1.48-4.74Z" style="fill:#e35f00;"/>
        <path d="M192.25,258.71s-3.37,2.09-1.48,4.74,4.11-5.18,1.48-4.74Z" style="fill:#e35f00;"/>
        <path d="M236.66,242.57s3.26,.84,2.4,3.47-4.65-3.16-2.4-3.47Z" style="fill:#e35f00;"/>
        <path d="M211.43,240.26s-1.31-8.6,12.18-7.93c0,0,3.32,3.09,.34,7.14-2.98,4.05-9.53,4.18-12.24,2.61l-.28-1.82Z"
              style="fill:#2f9b3b;"/>
        <path d="M211.05,240.52s-3.21-8.09-14.51-.7c0,0-1.31,4.34,3.31,6.33s10.33-1.2,11.89-3.93l-.68-1.71Z"
              style="fill:#2f9b3b;"/>
        <path d="M212.48,242c.68-1.95,1.38-5.91-1.4-10.63-.94-1.59-2.94-2.29-4.59-1.48-.03,.02-.06,.03-.09,.05-1.92,1-2.36,3.57-1.05,5.29,1.21,1.58,3.22,4.15,5.66,7.04,.43,.51,1.26,.37,1.48-.26Z"
              style="fill:#217538;"/>
        <path d="M188.1,281.74s-1.25-3.65,2.91-2.67,5.13,4.05,8.82,3.86,2.21-4.18,8.57-3.16c6.35,1.02,26,2.26,34.45-7.34,0,0,2.61-1.51,1.48,2.37s-16.52,19.09-42.26,17.34c-.19-.01-.38-.04-.56-.07-1.83-.36-11.81-2.69-13.4-10.32Z"
              style="fill:#ec8a00;"/>
    </g>
    <g>
        <path d="M151.46,234.64s-22.81-6.82-37.87,19.9c-15.05,26.71-.75,51.22,43.39,53.81,0,0,39.22,6.9,40.29-31.23s-33.02-46.72-45.82-42.48Z"
              style="fill:#ec8700;"/>
        <path d="M129.95,247.41s-7.15,.86-6.06,6.69c1.09,5.82,10.75-5.4,6.06-6.69Z" style="fill:#efc100;"/>
        <path d="M118.73,257.49s-5.25,.63-4.45,4.91c.8,4.27,7.89-3.96,4.45-4.91Z" style="fill:#efc100;"/>
        <path d="M175.63,245.04s5.29-.16,5.13,4.19-8.39-2.74-5.13-4.19Z" style="fill:#efc100;"/>
        <path d="M191.28,261.6s4.84,2.12,2.84,5.98c-2,3.86-6.41-6.07-2.84-5.98Z" style="fill:#efc100;"/>
        <path d="M185.69,249.01s5,1.71,3.34,5.72c-1.67,4.02-6.9-5.51-3.34-5.72Z" style="fill:#efc100;"/>
        <path d="M181.58,257.02s5,1.71,3.34,5.72c-1.67,4.02-6.9-5.51-3.34-5.72Z" style="fill:#efc100;"/>
        <path d="M118.99,249.31s-3.99,2.07-2.08,5.24,5.1-5.51,2.08-5.24Z" style="fill:#efc100;"/>
        <path d="M151.11,238.77s-.87-11.58-18.21-6.67c0,0-3.4,5.01,1.69,9.38,5.08,4.37,13.64,2.58,16.71-.27l-.18-2.45Z"
              style="fill:#2f9b3b;"/>
        <path d="M151.68,238.98s1.76-11.48,18.67-5.25c0,0,3,5.26-2.41,9.23s-13.8,1.53-16.64-1.55l.37-2.42Z"
              style="fill:#2f9b3b;"/>
        <path d="M150.27,241.34c-1.47-2.34-3.57-7.27-1.35-14.24,.74-2.35,3.14-3.86,5.53-3.3,.04,.01,.09,.02,.13,.03,2.8,.72,4.14,3.94,2.95,6.57-1.1,2.42-2.95,6.37-5.26,10.85-.41,.79-1.52,.86-2,.1Z"
              style="fill:#217538;"/>
        <path d="M193.86,285.74s.54-5.12-4.59-2.61c-5.12,2.52-5.46,6.81-10.31,7.66-4.86,.86-4.13-4.77-12.09-1.55-7.96,3.22-33.14,10.71-47.01,.75,0,0-3.85-1.18-1.21,3.52s27.19,19.9,60.15,9.91c.24-.07,.48-.16,.71-.26,2.28-1.02,14.56-7.02,14.35-17.43Z"
              style="fill:#efc100;"/>
    </g>
    <path d="M112.91,43.02c0,1.12-1.41,2.15-1.55,3.24s.85,2.44,.57,3.5-1.1,2.04-1.52,3.05-1.82,1.53-2.37,2.49-.13,2.55-.8,3.43-1.82,1.38-2.6,2.16-1.33,1.86-2.21,2.54-2.04,.97-3,1.52-1.77,1.46-2.8,1.88-2.41-.3-3.48-.01-2.02,.72-3.13,.87-2.13,.8-3.25,.8-2.35,.76-3.43,.62-1.98-1.64-3.04-1.92-2.33-.03-3.35-.45-1.64-1.65-2.6-2.2-2.67-.04-3.54-.71-1.07-2.21-1.85-2.99-1.18-1.84-1.86-2.72-2.19-1.19-2.75-2.15-1.31-1.91-1.73-2.94,.37-2.48,.09-3.55-.08-2.14-.22-3.25-.2-2.08-.2-3.2-.5-2.19-.36-3.27-.09-2.28,.19-3.33,.62-2.16,1.04-3.17,1.89-1.49,2.44-2.44,.68-2.11,1.36-2.98,1.37-1.67,2.16-2.45,1.69-1.34,2.57-2.01,1.96-.86,2.92-1.41,1.78-1.1,2.8-1.53,1.75-1.51,2.82-1.79,2.2,.02,3.31-.12,2.11-1.15,3.23-1.15,2.25,.26,3.33,.4,1.99,1.22,3.04,1.5,2.39-.23,3.4,.19,1.85,1.25,2.8,1.8,2.55,.26,3.43,.93,.78,2.51,1.56,3.29,1.65,1.43,2.32,2.31,1.92,1.39,2.47,2.35-.02,2.45,.41,3.48,2.23,1.58,2.52,2.65,.24,2.29,.38,3.39,.46,2.26,.46,3.38Z"
          style="fill:#f3bd09;"/>
    <path d="M79.43,63.2c-1.05-.38-2.2-.5-3.16-1.03s-1.67-1.47-2.54-2.14-1.7-1.36-2.47-2.15-1.55-1.55-2.19-2.46-1.58-1.65-2.07-2.64-.4-2.22-.74-3.28-1.07-2.01-1.24-3.12-.07-2.22-.07-3.35"
          style="fill:none; stroke:#eda100; stroke-linecap:round; stroke-miterlimit:10; stroke-width:1.96px;"/>
    <path d="M107.41,49.51c-.37,1.17-.55,2.43-1.1,3.5s-1.41,2.01-2.14,2.99-1.6,1.82-2.48,2.66-1.68,1.8-2.69,2.48"
          style="fill:none; stroke:#f3bd09; stroke-linecap:round; stroke-miterlimit:10; stroke-width:1.96px;"/>
    <path d="M151.45,27.18c0,1.12-.74,2.1-.88,3.18s-.21,2.1-.49,3.16,.06,2.3-.36,3.31-1.06,1.92-1.61,2.87-.98,1.98-1.65,2.85-1.82,1.28-2.6,2.06-1.78,1.16-2.65,1.83-1.36,1.77-2.32,2.32-1.63,1.67-2.66,2.09-2.29,.07-3.37,.36-2.06,.69-3.17,.83-2.16,.31-3.28,.31-2.27,.39-3.35,.25-2.37,.14-3.43-.15-1.64-2.11-2.65-2.53-2.52,.13-3.47-.42-2.11-.97-2.98-1.64-1.55-1.71-2.33-2.49-.91-2.15-1.58-3.02-1.01-1.9-1.56-2.86-1.89-1.5-2.32-2.52,.24-2.37-.05-3.45-1.7-1.89-1.84-2.99,.89-2.25,.89-3.37-.91-2.27-.76-3.35,.34-2.24,.62-3.3,1.6-1.78,2.02-2.79,.08-2.41,.63-3.36,1.98-1.31,2.65-2.18,1.27-1.72,2.05-2.5,1.36-1.72,2.23-2.39,1.23-2.2,2.18-2.75,2.55,.15,3.58-.27,1.67-1.95,2.75-2.24,2.29-.06,3.4-.21,2.22,.81,3.34,.81,2.28-1.17,3.37-1.03,2.12,.89,3.17,1.17,2.29,.22,3.3,.64,1.86,1.29,2.81,1.84,2.15,.81,3.02,1.49,.95,2.24,1.73,3.02,1.64,1.4,2.32,2.27,1.77,1.45,2.32,2.41,1.83,1.64,2.25,2.66-.43,2.52-.15,3.59,1.14,2.02,1.28,3.12-.39,2.23-.39,3.35Z"
          style="fill:#ec8700;"/>
    <path d="M197.46,27.18c0,1.12-.33,2.25-.47,3.33s-1.04,2.04-1.32,3.1-.46,2.13-.88,3.14-.02,2.49-.57,3.44-1.92,1.42-2.6,2.29-1.81,1.27-2.59,2.05-1.49,1.5-2.37,2.18-1.32,1.92-2.28,2.48-1.66,1.76-2.68,2.19-2.4-.06-3.48,.23-2.21-.06-3.32,.09-2.11,.7-3.23,.7-2.13-.65-3.22-.79-2.22,.1-3.28-.19-2.25-.25-3.27-.67-1.44-1.95-2.4-2.51-2.71,.13-3.58-.54-1.85-1.36-2.63-2.14-.34-2.62-1.01-3.5-1.54-1.52-2.09-2.47-.67-2.03-1.09-3.05-1.93-1.63-2.22-2.71,.3-2.29,.16-3.4-.42-2.12-.42-3.24,.74-2.1,.88-3.18,.21-2.1,.49-3.16-.06-2.3,.36-3.31,1.06-1.92,1.61-2.87,.98-1.98,1.65-2.85,1.82-1.28,2.6-2.06,1.78-1.16,2.65-1.83,1.36-1.77,2.32-2.32,1.63-1.67,2.66-2.09,2.29-.07,3.37-.36,2.06-.69,3.17-.83,2.16-.31,3.28-.31,2.27-.39,3.35-.25,2.37-.14,3.43,.15,1.64,2.11,2.65,2.53,2.52-.13,3.47,.42,2.11,.97,2.98,1.64,1.55,1.71,2.33,2.49,.91,2.15,1.58,3.02,1.01,1.9,1.56,2.86,1.89,1.5,2.32,2.52-.24,2.37,.05,3.45,1.7,1.89,1.84,2.99,.22,2.25,.22,3.37Z"
          style="fill:#f3bd09;"/>
    <path d="M240.07,44.67c0,1.12-.1,2.26-.25,3.34s-.42,2.22-.7,3.27-.44,2.24-.86,3.25-2.09,1.41-2.64,2.36,0,2.64-.66,3.52-1.57,1.65-2.35,2.43-2.35,.63-3.23,1.31-1.1,2.28-2.06,2.84-2.39,.12-3.42,.54-2.07,.46-3.14,.75-1.98,.88-3.08,1.03-2.13,1.57-3.24,1.57-2.16-1.44-3.24-1.59-2.44,.82-3.5,.54-1.89-1.45-2.91-1.87-2.13-.7-3.08-1.25-2.15-.85-3.02-1.52-.88-2.34-1.66-3.12-2.26-.93-2.93-1.8-1.63-1.64-2.18-2.6-.72-2.18-1.14-3.2-.89-2.07-1.18-3.14-.77-2.16-.92-3.27-.02-2.27-.02-3.39,.33-2.25,.47-3.33,1.04-2.04,1.32-3.1,.46-2.13,.88-3.14,.02-2.49,.57-3.44,1.92-1.42,2.6-2.29,1.81-1.27,2.59-2.05,1.49-1.5,2.37-2.18,1.32-1.92,2.28-2.48,1.66-1.76,2.68-2.19,2.4,.06,3.48-.23,2.21,.06,3.32-.09,2.11-.7,3.23-.7,2.13,.65,3.22,.79,2.22-.1,3.28,.19,2.25,.25,3.27,.67,1.44,1.95,2.4,2.51,2.71-.13,3.58,.54,1.85,1.36,2.63,2.14,.34,2.62,1.01,3.5,1.54,1.52,2.09,2.47,.67,2.03,1.09,3.05,1.93,1.63,2.22,2.71-.3,2.29-.16,3.4,1.01,2.12,1.01,3.24Z"
          style="fill:#ec8700;"/>
    <path d="M108.54,19.57c0,1.39-.76,2.35-1.41,3.47s-1.12,2.34-2.27,3.01-2.35,.78-3.74,.78-2.32-.66-3.43-1.31-2.97-.71-3.64-1.87-.2-2.7-.2-4.08-.07-2.74,.58-3.86,1.96-1.67,3.11-2.33,2.19-1.66,3.58-1.66,2.48,.97,3.6,1.62,1.65,1.67,2.31,2.82,1.52,2.03,1.52,3.41Z"
          style="fill:#fff;"/>
    <path d="M147.95,51.9c-1.04-.13-1.91-.58-2.51-1.35s-1.22-1.76-1.09-2.81,1.11-1.68,1.87-2.28,1.61-1.31,2.66-1.18,1.65,1.05,2.25,1.82,1.24,1.56,1.11,2.61-.56,2.15-1.33,2.75-1.93,.56-2.97,.43Z"
          style="fill:#fff;"/>
    <path d="M237.13,71.98c-1.04-.13-1.91-.58-2.51-1.35s-1.22-1.76-1.09-2.81,1.11-1.68,1.87-2.28,1.61-1.31,2.66-1.18,1.65,1.05,2.25,1.82,1.24,1.56,1.11,2.61-.56,2.15-1.33,2.75-1.93,.56-2.97,.43Z"
          style="fill:#fff;"/>
    <path d="M65.9,71.74c-1.04-.13-1.79-.46-2.39-1.23s-.76-1.58-.64-2.62,.32-1.99,1.09-2.59,1.8-1.14,2.85-1.01,1.6,1.15,2.2,1.92,.95,1.5,.82,2.54-.53,1.81-1.29,2.41-1.6,.7-2.64,.58Z"
          style="fill:#fff;"/>
    <path d="M48.75,60.62c-1.9-.23-3.4-.52-4.49-1.92s-2.44-3.1-2.2-4.99,2.13-2.99,3.53-4.08,2.83-1.97,4.72-1.73,3.41,1.17,4.5,2.56,1.05,3.02,.82,4.91-.28,3.88-1.67,4.97-3.31,.5-5.21,.27Z"
          style="fill:#fff;"/>
    <path d="M251.05,64.1c-1.96-.24-3.72-1.64-4.85-3.08s-1.05-3.36-.81-5.33,.55-3.95,2-5.07,3.6-2.2,5.56-1.96,3.11,2.33,4.24,3.78,1.7,2.92,1.46,4.88-.81,3.69-2.25,4.82-3.37,2.2-5.34,1.96Z"
          style="fill:#fff;"/>
    <path d="M149.03,3.86c1.42,.27,2.78,1.18,3.53,2.29s.65,2.63,.38,4.04-1.02,2.46-2.12,3.21-2.48,1.69-3.89,1.41-2.89-1.28-3.64-2.39-.78-2.78-.51-4.19,1-2.85,2.1-3.6,2.74-1.05,4.15-.78Z"
          style="fill:#fff;"/>
    <path d="M110.26,14.54c.68-.88,1.23-1.83,2.02-2.59s1.51-1.65,2.41-2.29,1.72-1.52,2.71-2.01,2.36-.06,3.41-.39,2.01-.88,3.11-1.05,2.17-.61,3.28-.61,2.17,.47,3.28,.64,2.13,.42,3.2,.75"
          style="fill:none; stroke:#f3bd09; stroke-linecap:round; stroke-miterlimit:10; stroke-width:1.96px;"/>
    <path d="M114.74,45.47c-1.01-.7-2.01-1.44-2.87-2.29s-1.39-2.02-2.1-3.01-1.32-2.01-1.86-3.1-1.02-2.18-1.37-3.35"
          style="fill:none; stroke:#f3bd09; stroke-linecap:round; stroke-miterlimit:10; stroke-width:1.96px;"/>
    <path d="M175.1,7.02c1.1,.17,2.12,.53,3.16,.86s2.04,.75,3.02,1.24,1.94,.98,2.85,1.61,1.93,1.11,2.73,1.87,1.64,1.51,2.32,2.39,.93,2.02,1.46,2.99,1.51,1.74,1.89,2.79,.4,2.19,.62,3.3"
          style="fill:none; stroke:#eda100; stroke-linecap:round; stroke-miterlimit:10; stroke-width:1.96px;"/>
    <path d="M150.26,25.99c.13-1.22,.33-2.42,.66-3.58s.89-2.26,1.41-3.35,1.05-2.19,1.75-3.18,1.48-1.92,2.34-2.79"
          style="fill:none; stroke:#f3bd09; stroke-linecap:round; stroke-miterlimit:10; stroke-width:1.96px;"/>
    <path d="M234.3,35.67c.48,1.01,.19,2.31,.51,3.36s.63,2.09,.78,3.18,.13,2.17,.12,3.27,.45,2.26,.27,3.35-1.06,2-1.41,3.05-.49,2.15-1,3.14-1.01,1.96-1.66,2.86-1.55,1.53-2.34,2.33"
          style="fill:none; stroke:#f3bd09; stroke-linecap:round; stroke-miterlimit:10; stroke-width:1.96px;"/>
    <path d="M75.55,31.96c0,.29,0,.5-.08,.76s-.17,.48-.33,.7-.27,.46-.49,.63-.35,.61-.61,.69-.62-.5-.9-.5-.52,.19-.77,.1-.79,.24-1.02,.08-.37-.55-.53-.77,0-.64-.09-.9-.25-.5-.25-.78,.29-.49,.38-.74,0-.58,.16-.8,.44-.3,.67-.47,.37-.45,.64-.53,.54-.45,.83-.45,.5,.59,.76,.68,.55,.06,.77,.23,.16,.53,.32,.76,.48,.29,.56,.56,.01,.5,.01,.78Z"
          style="fill:none; stroke:#f08120; stroke-linecap:round; stroke-miterlimit:10; stroke-width:1.96px;"/>
    <path d="M210.08,63.43c0,.29,0,.5-.08,.76s-.17,.48-.33,.7-.27,.46-.49,.63-.35,.61-.61,.69-.62-.5-.9-.5-.52,.19-.77,.1-.79,.24-1.02,.08-.37-.55-.53-.77,0-.64-.09-.9-.25-.5-.25-.78,.29-.49,.38-.74,0-.58,.16-.8,.44-.3,.67-.47,.37-.45,.64-.53,.54-.45,.83-.45,.5,.59,.76,.68,.55,.06,.77,.23,.16,.53,.32,.76,.48,.29,.56,.56,.01,.5,.01,.78Z"
          style="fill:none; stroke:#f3bd09; stroke-linecap:round; stroke-miterlimit:10; stroke-width:1.96px;"/>
    <path d="M168.85,45.36c0,.29-.3,.54-.38,.8s-.35,.39-.51,.61-.13,.61-.36,.77-.63-.14-.89-.05-.4,.87-.69,.87-.68-.02-.94-.1-.16-.91-.38-1.07-.35-.26-.51-.49-.79-.19-.88-.45,.36-.6,.36-.88-.09-.51,0-.77,.15-.5,.31-.72,.13-.68,.36-.84,.73,.29,1,.2,.41-.67,.69-.67,.6,.07,.86,.15,.44,.38,.66,.55,.21,.49,.37,.72,.72,.23,.81,.5,.13,.59,.13,.88Z"
          style="fill:none; stroke:#f08120; stroke-linecap:round; stroke-miterlimit:10; stroke-width:1.96px;"/>
    <path d="M75.56,47c-.78-.09-1.54,.9-1.91,.21-.64-1.18,.41-1.53,.41-2.87,0-.33-.34-.66-.67-.66s-.66,.33-.66,.66c0,1.27,1.04,1.65,.39,2.74-.36,.61-1.04-.23-1.75-.31-.33-.04-.61,.16-.65,.49s.22,.31,.55,.35c.78,.09,.94-.09,1.3,.6,.65,1.24,.18,1.28,.18,2.68,0,.33,.31,.83,.64,.83s.42-.5,.42-.83c0-1.33-.54-1.54,.11-2.69,.35-.62,.78-.01,1.49,.07,.02,0,.03,.45,.05,.45,.3,0,.9-.5,.94-.81,.04-.33-.52-.87-.85-.91Z"
          style="fill:#f3bd09;"/>
    <path d="M138.55,12.84c-.78-.09-1.44,.45-1.81-.24-.64-1.18,.64-1.5,.64-2.84,0-.33-.62-.37-.95-.37s-.81,.04-.81,.37c0,1.27,.66,1.33,.01,2.43-.36,.61-.52,.18-1.23,.1-.33-.04-.32,.1-.36,.42s-.12,.84,.21,.88c.78,.09,1.51-.92,1.87-.22,.65,1.24-.04,1.55-.04,2.94,0,.33,.02,.51,.35,.51s.97-.18,.97-.51c0-1.33-1.1-1.54-.44-2.7,.35-.62,.82-.19,1.53-.11,.02,0,.01,.2,.03,.2,.3,0,.39-.13,.42-.44,.04-.33-.05-.39-.38-.43Z"
          style="fill:#f3bd09;"/>
    <path d="M225.97,27.91c-.78-.09-.86,.13-1.23-.56-.64-1.18-.4-1.18-.4-2.52,0-.33-.16-.29-.49-.29s-.27-.04-.27,.29c0,1.27,.39,1.49-.26,2.59-.36,.61-.79,.01-1.49-.07-.33-.04-.62,.07-.66,.4s.18,.88,.51,.92c.78,.09,1.44-.88,1.8-.19,.65,1.24-.28,1.51-.28,2.91,0,.33,.33,.91,.66,.91s.53-.58,.53-.91c0-1.33-.52-1.46,.14-2.62,.35-.62,.62,.21,1.33,.29,.02,0,.06-.27,.09-.27,.3,0,.77-.1,.81-.4,.04-.33-.44-.43-.77-.47Z"
          style="fill:#f3bd09;"/>
    <path d="M81.44,29.3c1.49-.58,2.8-.61,3.47,1.1,.25,.64,.54,1.47,1.04,1.99,.69,.77,2.65,0,3.46-.32s1.58-.68,2.39-1c1.99-.78,4.23-1.5,5.23,1.05,.59,1.52-1.35,2.41-2.47,2.85-.87,.34-1.79,.54-2.66,.88-.98,.38-3.22,1.26-2.67,2.67,.98,2.5,6.62,4.91,9.12,5.35,.56,.1,1.15,.13,1.72,.26,.44,.12,1.24,.36,1.42,.8,.37,.95-.93,3.73-1.89,4.1-3.62,1.42-10.32-4.46-11.59-3.97-1.15,.45-3.11,9.99-6.13,11.17-.95,.37-4.11-.91-4.48-1.87-.1-.25-.04-.5,.08-.71,.57-1.1,1.26-2.15,1.96-3.16,1.77-2.57,2.46-4.36,2.76-7.49,.05-.6,.11-1.27-.12-1.86-.53-1.35-3.69-.08-4.61,.29s-1.75,.82-2.62,1.16c-1.18,.46-2.33,.75-2.89-.68-.84-2.13,.55-3.22,2.4-3.95,1.04-.41,2.12-.7,3.13-1.1,1.37-.54,3.1-1.25,2.67-3.09-.13-.5-.35-.97-.53-1.44-.67-1.71,.33-2.46,1.82-3.04Z"
          style="fill:#5c1f00;"/>
    <path d="M133.11,21.6c.77-.15,1.53-.33,2.27-.47,.83-.16,3.01-.62,3.7-.08,.44,.35,.48,.71,.57,1.21,.13,.65,.15,1.08-.37,1.58-.8,.8-5.68,1.72-7.01,1.98-3.87,.75-7.75,1.48-11.63,2.24-.65,.13-1.33,.29-2,.42-1.09,.21-2.32,.36-3.4,.02-.59-.19-.88-.59-1-1.19-.39-2.01,2.25-2.62,3.7-2.9,1.09-.21,2.23-.34,3.33-.56,.56-.11,2.45-.51,2.29-1.34-.2-1-1.1-.92-1.9-.77-2.28,.44-4.57,.98-6.84,1.43-1.51,.29-2.18,.49-2.52-1.29-.44-2.28,2.01-3.09,3.78-3.44,1.12-.22,2.23-.37,3.35-.59,.77-.15,2.42-.47,2.87-1.2,.1-.14,.18-.34,.15-.52s-.1-.35-.13-.53c-.22-1.15,1.34-1.33,2.1-1.48,.65-.13,2.37-.62,2.99-.09,.22,.2,.25,.32,.3,.59,.07,.36,.17,.58,.46,.8,1.32,.97,8.68-1.75,10.39-.37,.69,.54,.87,1.3,1.03,2.13,.2,1.03-1.11,1.38-1.88,1.53-2.25,.44-4.52,.73-6.77,1.16-.83,.16-1.92,.37-1.7,1.5,.2,1.04,3.17,.36,3.88,.23Zm6.86,15.97c-.66,.87-1.8,1.18-2.8,1.37-.27,.05-1.33,.29-1.52,.21-.31-.16-.21-.6-.67-.76-.27-.1-3.75,.58-4.29,.68-1.54,.3-3.07,.63-4.61,.93-.38,.07-.8,.16-1.14,.31-.99,.44-.25,.75-.95,1.11-.31,.15-1.32,.32-1.64,.38-.65,.13-1.72,.3-2.35,.06-1.49-.57-2.71-5.86-3-7.37-.17-.89-.14-1.84,.42-2.57,1.59-2.09,4.96-2.41,7.3-2.87,.44-.09,.85-.2,1.29-.31,1.08-.27,2.15-.48,3.24-.69,1.92-.37,8.27-1.67,9.67-.13,.66,.73,.78,1.63,.96,2.55,.29,1.48,.97,5.92,.09,7.1Zm-7.42-2.97c1.01-.2,2.26-.68,2.01-1.96-.2-1.03-1.77-.88-2.57-.73l-7.3,1.42c-1.21,.24-2.05,.65-1.78,2.04,.21,1.06,3.08,.54,3.82,.39,.53-.1,1.06-.24,1.59-.34l4.23-.82Z"
          style="fill:#5c1f00;"/>
    <path d="M173.54,13.59c1.57,.3,2.69,.98,2.35,2.79-.13,.68-.33,1.53-.18,2.23,.17,1.02,2.24,1.41,3.1,1.58s1.7,.27,2.56,.43c2.1,.4,4.38,1,3.86,3.69-.31,1.6-2.43,1.31-3.61,1.08-.92-.18-1.81-.5-2.72-.68-1.03-.2-3.4-.66-3.69,.82-.51,2.63,2.97,7.69,4.84,9.4,.42,.39,.9,.73,1.31,1.14,.3,.33,.86,.96,.77,1.44-.19,1.01-2.78,2.65-3.79,2.46-3.82-.74-6.34-9.29-7.67-9.55-1.21-.23-7.96,6.78-11.16,6.16-1.01-.19-2.99-2.97-2.79-3.97,.05-.27,.24-.44,.45-.56,1.07-.62,2.21-1.14,3.35-1.62,2.87-1.22,4.41-2.37,6.34-4.85,.37-.48,.78-1.02,.9-1.64,.27-1.42-3.07-2.04-4.05-2.22s-1.92-.25-2.83-.42c-1.24-.24-2.37-.61-2.08-2.12,.43-2.25,2.19-2.43,4.14-2.05,1.09,.21,2.17,.54,3.23,.74,1.45,.28,3.29,.6,3.91-1.18,.16-.49,.22-1,.32-1.5,.35-1.8,1.59-1.9,3.16-1.6Z"
          style="fill:#5c1f00;"/>
    <path d="M213.45,41.5c-.39-.15-.78-.23-.96,.25-.34,.9,1.2,4.93,.75,6.11-.32,.84-2.32,1.63-3.14,1.32-1.16-.44-.36-2.55-1.06-2.82-.27,.12-.51,.74-.6,1-.5,1.32-.93,2.71-1.43,4.03-.8,2.11-1.12,2.54-3.35,1.7-2.68-1.01-1.36-3.9-.64-5.81,.16-.42,.33-.87,.44-1.35-.73-.28-2.01,2.43-3.06,2.03-.96-.36-1.54-3.16-1.21-4.03,.76-2,4.56-3.2,5.35-5.29-1.15-1.72-3.17-.56-2.25-2.98,.47-1.24,1.15-2.43,2.67-1.86,.34,.13,.66,.31,.99,.44,1.44,.54,1.97-.09,2.45-1.36,.21-.56-.31-.79-.76-.97-.59-.22-1.25-.28-1.84-.5-.96-.36-.36-1.52-.11-2.17s.67-1,1.33-1.14c1.02-.23,9.19,1.41,10.43,1.88s1.52,2.12,1.11,3.19c-.9,2.37-4.19-1.62-5.6,2.13-.52,1.38,1.03,1.71,1.96,2.06,1.89,.71,2.02,1.38,1.33,3.21-.33,.87-.91,1.65-1.95,1.23l-.85-.32Zm9.29-8.12c.56,.21,1.11,.65,1.23,1.27,.43,1.93-2.77,9.87-3.32,11.34-.27,.7-.52,1.45-.78,2.15-.37,.99-.99,2.11-1.95,2.61-.68,.35-1.32,.18-2-.08-.31-.12-.64-.27-.88-.49-.9-.86,.72-5.49,1.14-6.59l.79-2.09c.33-.87,.66-1.75,1.02-2.61,.59-1.48,1.08-3.04,1.79-4.48,.14-.3,.33-.62,.58-.84,.57-.56,1.09-.68,1.83-.4l.56,.21Zm-7.47,24c-1.97-.75-1.67-1.63-1.03-3.32,.43-1.13,1.1-1.45,2.25-1.02,.48,.18,.95,.39,1.43,.57,.17,.06,.83,.28,.97,.24,.52-.03,2.24-4.31,2.51-5.01,.82-2.17,1.62-4.38,2.36-6.58,.65-1.98,1.34-3.97,2.08-5.91,.55-1.47,1.1-2.32,2.79-1.68,.56,.21,.99,.44,1.35,.93,1.32,1.88-1.17,8.9-1.97,11.01-.92,2.42-3.9,10.83-6.26,11.96-1.34,.65-3.49-.06-4.81-.56l-1.66-.63Z"
          style="fill:#5c1f00;"/>
</svg>
