<?xml version="1.0" encoding="UTF-8"?><svg id="accessories" xmlns="http://www.w3.org/2000/svg" viewBox="0 0 300 300"><defs><style>.cls-1{fill:none;}.cls-1,.cls-2{stroke-width:0px;}.cls-2{fill:#d1848a;}</style></defs><g id="component_6"><g id="component_6-2"><path class="cls-2" d="m235.04,184.62c-1.25.42.06,1.07-.03,2.77-.04.74.12,1.64,0,2.64-.1.79.04,1.72-.14,2.66-.15.8-.41,1.67-.64,2.57-.2.81-.82,1.55-1.1,2.43-.25.8-.33,1.71-.64,2.57-.29.8-1.1,1.42-1.46,2.26-.33.78-.85,1.49-1.24,2.31-.37.77-.72,1.55-1.14,2.35-.4.76-.73,1.56-1.18,2.34s-.16,1.94-.64,2.7-1.38,1.79-1.89,2.53c-.35-.79-1.16-1.88-1.53-2.59-.4-.77-.43-1.69-.85-2.37-.45-.75-1.13-1.28-1.59-1.93-.51-.72-1.08-1.3-1.57-1.91-.58-.7-.58-1.8-1.11-2.34-.67-.69-1.32-1.25-1.85-1.71-1.2-1.04-2.27-1.27-2.27-1.27.37.82,1.26,1.45,1.64,2.35.35.84.37,1.85.73,2.74s.25,1.89.59,2.78,1.22,1.52,1.55,2.41.29,1.88.62,2.77.93,1.65,1.25,2.53.82,1.81,1.14,2.69c-.55.68-.93,1.67-1.52,2.36s-1.58.96-2.19,1.62-1.17,1.32-1.8,1.96-.94,1.55-1.59,2.18-1.67.79-2.34,1.4-1.4,1.07-2.07,1.66-1.16,1.34-1.86,1.92-1.02,1.55-1.72,2.11-1.69.7-2.41,1.24-1.42,1.04-2.15,1.57-1.27,1.25-2.01,1.76-1.41,1.07-2.16,1.57-1.71.61-2.47,1.09-1.59.77-2.36,1.24-1.56.82-2.34,1.28-.88.98-1.66,1.42c.76,1.12.53.02,2.21-.36.75-.17,1.64-.32,2.64-.59.8-.21,1.77-.15,2.7-.43.82-.25,1.44-1.26,2.34-1.57.82-.28,1.97.24,2.84-.09.82-.31,1.35-1.44,2.21-1.79s1.71-.53,2.55-.91,1.98-.03,2.8-.45,1.38-1.25,2.18-1.7,1.56-.9,2.34-1.38,1.54-.94,2.3-1.45,1.6-.87,2.33-1.42.99-1.66,1.69-2.24,1.95-.5,2.62-1.12.98-1.01,1.61-1.66c.27.8.85.98,1.1,1.74.27.8.72,1.52.97,2.26.27.82-.1,1.8.14,2.54.27.84,1.07,1.44,1.3,2.15.29.89.61,1.65.82,2.31.47,1.48-.88,2.77.34,2.67.06-.88.2-1.94.23-2.78s-.08-1.75-.07-2.59-.02-1.75-.05-2.59.22-1.76.15-2.6-.37-1.72-.47-2.56-.78-1.64-.92-2.47c-.14-.87.24-1.79.06-2.61.55-.71.97-1.51,1.48-2.27s1.01-1.49,1.46-2.29.6-1.71,1-2.53,1.23-1.42,1.58-2.26.03-1.89.32-2.77.46-1.7.7-2.59,1.39-1.53,1.57-2.43.11-1.82.23-2.74.19-1.8.26-2.72-.22-1.81-.21-2.73.42-1.8.38-2.73-.98-1.73-1.06-2.65.64-1.87.52-2.79.05-1.84-.11-2.75-.9-1.82-1.1-2.72Z"/></g></g><rect class="cls-1" y="1" width="300" height="300"/></svg>