<svg id="accessories" xmlns="http://www.w3.org/2000/svg" viewBox="0 0 300 300">
    <path style="stroke-width:0;fill:none" stroke-width="0" fill="none" d="M1.21 1.21h297.58v297.58H1.21z"/>
    <path stroke-width="0" fill="#231815" d="M222.43 63.34c2.34-6.6 5.51-3.21 10.29-8.77 2.86-3.32 5.85-6.87 6.06-11.94 4.58-4.35 4.32.14 11.63 1.67 3.63.76 7.8 1.42 12.09 3.19 3.68 1.52 7.74 3.15 11.38 5.71-4.08 3.74-6.06-.51-10.88 1.81-3.08 1.48-5.92 3.68-6.18 8.23-4.54 2.52-5.32-1.5-10.19.35-2.81 1.06-5.5 3.08-6.87 7.21-4.59 1.66-4.38-.71-9.27.07-2.88.46-5.39.45-7.49 3.74-5-3.52-2.63-5.46-.56-11.27ZM89.14 62.84c-2.34-6.6-6.43-3.13-11.21-8.69-2.86-3.32-5.85-6.97-6.06-12.03-4.58-4.35-5.11-.8-12.42.74-3.63.76-7.84 2.04-12.12 3.82-3.68 1.52-6.61 3.11-10.24 5.66 4.08 3.74 4.93 1.06 9.75 3.38 3.08 1.48 6 3.43 6.26 7.98 4.54 2.52 5.04-.54 9.91 1.3 2.81 1.06 5.48 3.18 6.86 7.32 4.59 1.66 4.95-2.37 9.84-1.59 2.88.46 5.83 1.24 7.93 4.53 5.51-3.39 3.57-6.6 1.51-12.4Z"/>
    <path   stroke-width="0" fill="#C42351" d="M235.01 79.04c-15.98 3.19-18.7 4.88-32.08-4.42-12.97-9.01 3.78-14.82 7.64-30.27 3.18-12.72 6.77-25.66 5.72-30.96-1.48-7.45 6.28 9.43 12.47 30.09 3.56 11.88 7.24 24.68 6.25 35.56Z"/>
    <path   stroke-width="0" fill="#8c2f47" d="m216.61 46.44 12.08-2.95.85 3.36-12.93-.41zM220.05 59.94l-15.72-2.96-2.84 3.84 18.56-.88z"/>
    <path   stroke-width="0" fill="#C42351" d="M78.75 79.29c15.98 3.19 19.17 5.24 32.55-4.06 12.97-9.01-5.61-15.08-9.48-30.53-3.18-12.72-4.82-25.9-3.77-31.2 1.48-7.45-9.08 8.65-15.27 29.31-3.56 11.88-5.04 25.6-4.04 36.48Z"/>
    <path   stroke-width="0" fill="#8c2f47" d="M94.58 46.24 82.6 43.98l-1.07 3.26 13.05-1zM93.56 61.6l15.7-3.85 2.65 3.63-18.35.22z"/>
    <path stroke-width="0" fill="#473733" d="M56.18 60.96s8.2-9.09 10.53-13.58-3.38 7.81-10.53 13.58ZM70.92 69.15s3.84-6.02 6.17-10.51c0 0-.82 4.13-6.17 10.51ZM254.93 61.94s-8.2-9.09-10.53-13.58 3.38 7.81 10.53 13.58ZM240.19 70.13s-3.84-6.02-6.17-10.51c0 0 .82 4.13 6.17 10.51Z"/>

</svg>
