<svg id="accessories" xmlns="http://www.w3.org/2000/svg" viewBox="0 0 300 300">
    <path stroke-width="0" fill="none" d="M0 0h300v300H0z"/>
    <path fill="#046057" stroke-width="0" d="M241.88 64.5c.38-.26.55.44 1.06.73.23.13.56.15.87.31.25.13.57.14.88.27.27.12.5.34.8.45.28.1.51.37.82.46.29.09.48.59.79.66.29.07.77-.72 1.09-.67s.54.38.85.41.59.23.9.24.61-.34.92-.34.64.61.95.58.53-.71.84-.76.76.7 1.07.63.33-.23.64-.33c.42.26-.04.21.22.77.12.25.9.24 1.08.57.14.27.34.51.53.81.16.27.4.48.59.76.18.26-.31 1.03-.1 1.29.2.25.45.5.67.75s.36.6.6.83.84.06 1.1.27.55.34.83.53.62.21.91.37.42.6.72.73.58.32.9.43.57.46.9.54.63-.16.96-.11c.31.36.41.23.46.83.02.27.25.55.29.92.03.29-.91.74-.85 1.08.04.3.99.47 1.05.8.05.3-.03.63.03.95.06.3-.32.71-.25 1.03s.37.56.45.87-.05.67.04.98-.1.71 0 1.01.26.59.38.9.4.54.53.83.7.39.83.68-.04.72.1 1.01.4.51.55.79.72.3.89.57-.38 1.01-.2 1.28.61.36.81.61.57.36.78.6.53.36.76.58.29.6.53.82.74.71 1 .91c-.33.35-.56-.63-1.15-.78-.26-.07-.65.12-1 .04-.29-.07-.66.14-1 .07-.3-.06-.58-.24-.91-.3-.3-.05-.55-.51-.88-.56-.31-.05-.71.56-1.04.52s-.62-.05-.95-.08-.59-.63-.91-.65-.64-.1-.97-.11-.65.17-.97.18-.62.48-.94.49-.64-.12-.96-.09-.61.2-.92.25-.78-.73-1.1-.67-.51.67-.82.75-.63.13-.93.23-.45-.2-.75-.07c-.42-.21-.69.23-.96-.29-.12-.24.09-.7-.1-1-.15-.25-.69-.24-.88-.51-.17-.24-.05-.71-.27-.96-.2-.23-.33-.53-.56-.76-.22-.22-.32-.59-.56-.79s-.8.03-1.07-.16-.14-.94-.42-1.1-.88.36-1.17.22-.56-.19-.86-.29-.43-.68-.74-.76-.58-.34-.9-.39-.67.37-1 .34c-.3-.02-.61-.06-.93-.06s-.64-.28-.96-.25c-.31.02-.31.03-.63.07-.28-.39-.33-.15-.15-.75.08-.26.04-.59.13-.95.07-.28.64-.49.71-.83.06-.3-.08-.65-.03-.99.05-.3.31-.6.35-.93.04-.31-.06-.65-.04-.98.02-.31.14-.63.15-.96.01-.31-.57-.65-.56-.98s.16-.63.15-.96.19-.64.17-.97-.39-.61-.42-.94.62-.7.58-1.03-.8-.54-.84-.86.11-.66.05-.98.05-.66-.01-.98-.2-.61-.28-.93.28-.74.2-1.05-.32-.59-.41-.9-.74-.44-.84-.75.35-.8.23-1.1-.34-.56-.46-.87-.3-.57-.43-.88-.48-.91-.61-1.21Z"/>
    <path fill="#00564c" stroke-width="0" d="M254.29 83.17c-.3.36 0-.25-.28-.63s-.02-.56-.3-.94-.88.05-1.16-.33-.22-.41-.5-.79-.08-.52-.36-.9.17-.7-.1-1.08-.32-.35-.59-.73-.35-.32-.63-.7-.77-.02-1.05-.4.02-.6-.25-.98-.28-.38-.55-.76-.4-.29-.68-.67-.35-.33-.63-.71-.06-.54-.33-.92-.18-.45-.45-.84-.11-.5-.39-.88-.74-.05-1.02-.43.05-.62-.23-1-.36-.32-.64-.71-.48-.24-.76-.62-.73-.33-.29-.51-.05.24.3.6.54.17.88.53.58.14.92.5.29.41.63.77.11.58.46.94.24.46.59.82.5.21.84.57.27.43.61.79.71 0 1.06.37.17.53.52.89.62.1.96.47.22.54.49.96-.3.72-.1 1.18.45.35.65.81.03.54.23 1 .91.15 1.11.61-.54.79-.34 1.25.69.25.89.71.31.33.61.74c.26.36.17.62-.15 1.01Z"/>
    <path fill="#046057" stroke-width="0" d="M244.04 63.84c-.01-.48.02-.04-.52-.3-.24-.12-.6-.14-.92-.32-.25-.14-.6-.2-.89-.38-.26-.16-.47-.44-.74-.63-.25-.17-.41-.51-.67-.71-.24-.19-.21-.72-.46-.93-.24-.2-1.06.23-1.3 0s-.26-.65-.48-.89-.3-.58-.51-.83-.69-.28-.88-.54.15-.87-.02-1.15-.9-.21-1.05-.49.44-.93.3-1.22-.29-.54-.41-.84-.38-.8-.47-1.11c-.42-.21-.44.77-1.02.87-.26.05-.59.16-.94.21-.29.04-.61.16-.95.18-.3.02-.66-.8-.99-.79-.3 0-.6.04-.93.03-.31 0-.59-.17-.92-.19s-.67.47-.99.43-.64-.02-.95-.09-.67.02-.98-.06-.51-.5-.81-.6-.55-.29-.85-.42-.43-.51-.71-.66-.66-.09-.92-.27-.78-.01-1.03-.21-.64-.28-.87-.5-.05-1.29-.27-1.53c-.47-.05-.14 1.04-.67 1.34-.23.13-.59.17-.92.34-.26.14-.75-.13-1.06.03-.27.13-.46.47-.76.62-.28.13-.66.05-.96.19-.28.12-.69-.04-.99.09-.29.12-.55.28-.86.4s-.52.39-.83.5-.45.67-.75.77-.71-.15-1.02-.06-.58.28-.9.36-.52.62-.83.68-.79-.72-1.11-.67-.57.39-.89.43-.61.3-.93.33-.63.21-.95.23-.65-.2-.97-.19-.65.35-.97.34-.6-.68-.92-.71-.66.21-.98.17-.69.18-1 .11-.61-.26-.92-.34-.8-.41-1.11-.51c-.14.45.77-.03 1.22.36.2.17.46.38.73.62.21.19.06.83.3 1.07.22.2.39.47.62.71.21.21.57.31.79.54.21.22.77.14.99.38s.31.57.52.82.52.39.72.64-.27 1.02-.07 1.27.81.17 1 .43.33.54.51.81-.04.77.13 1.04 1.05.1 1.21.38-.04.76.1 1.04.69.38.83.67-.09.74.03 1.04.13.63.23.93 0 .66.08.96.51.28.57.59c.43.23.26.57.86.49.27-.04.53-.8.9-.82.3-.02.65-.08.99-.07.31 0 .62.53.95.56.31.03.59.27.92.32.31.05.71-.33 1.04-.25s.62.19.94.3.5.49.81.62.48.42.78.58.82-.15 1.1.04.61.28.88.48.16.8.4 1.03.59.3.81.55.24.62.45.88c.19.25.48.42.67.7s.26.58.43.87.53.09.67.39c.49.02.02-.06.41-.54.17-.21.54-.33.8-.61.2-.22.16-.71.41-.96.21-.22.92.03 1.17-.21.22-.21-.03-.97.22-1.2.23-.21.62-.27.88-.49.24-.2.6-.28.87-.48.25-.2.47-.45.74-.65s.78 0 1.05-.2.44-.48.72-.66.24-.84.52-1.01.85.17 1.14 0 .5-.43.79-.58.54-.36.84-.51.41-.64.71-.78.57-.35.87-.48.77.14 1.08.02.53-.44.84-.56.66-.11.97-.21.72.11 1.03.01.52-.51.84-.6.57-.4.89-.49.83.66 1.15.58.45-.99.78-1.05.33.28.66.22Z"/>
    <path fill="#00564c" stroke-width="0" d="M224.58 62.99c-.09.47.74.13 1.22.14s.47.32.95.33.49-.74.97-.73.48.07.95.08.47.24.95.25.46.56.94.57.48-.04.95-.03.48-.09.96-.08.49-.61.97-.6.47.38.95.39.48 0 .96.01.48-.15.96-.14.48-.09.96-.08.47.28.95.29.48.13.95.14.48.21.95.22.49-.56.97-.55 1.06.72 1.17.25-.66-.22-1.12-.3-.51.17-.97.1-.38-.59-.85-.67-.47-.04-.94-.11-.51.19-.98.12-.52.24-.99.17-.45-.15-.92-.22-.42-.39-.88-.47-.45-.21-.91-.29-.5.14-.97.06-.48-.27-.95-.26c-.5 0-.43.6-.92.69s-.54-.14-1.03-.05-.42.46-.91.55-.55-.2-1.04-.11-.6-.46-1.09-.37-.41.49-.91.45c-.69-.06-1.18-.24-1.27.26Z"/>
    <path d="M240.47 51.11c-.14.47-.42.44-.09.96.15.23.97.1 1.17.41.16.25-.18.86 0 1.15.16.26.53.42.71.7.16.27.61.38.78.67s-.33.95-.17 1.23.71.34.87.62.62.41.78.69-.2.85-.05 1.14.64.41.78.7-.03.75.1 1.04c.14.31.61.46.73.75.13.32.5.55.6.84.11.34-.29.8-.22 1.1.08.36.17.96.16 1.24.46.13.33-.58.84-.9.23-.14.58-.2.89-.39.25-.15.72.01 1.01-.16.26-.15.14-.99.43-1.15.27-.15.67-.09.96-.25.27-.15.51-.38.8-.54s.7-.02.99-.17.33-.76.62-.9.92.44 1.21.31.26-.99.55-1.12.91.52 1.21.4.53-.39.83-.5.65-.05.95-.15.54-.4.85-.48c.32-.08.66.05.96 0 .33-.06.57-.48.88-.51.33-.03.64.14.95.15.34.01 1.02.14 1.31.21.3-.39-.73-.63-.75-1.25-.01-.28.73-.61.74-.98.01-.3-.35-.64-.31-.99.04-.31.49-.55.56-.88.06-.31-.41-.75-.31-1.08.09-.31.6-.47.72-.78.12-.3.36-.51.51-.81.14-.29-.33-.91-.16-1.2.16-.27.26-.64.46-.91s.37-.58.59-.83.97.02 1.21-.22.18-.76.43-.98c.24-.21.34-.65.61-.85s.6-.32.89-.5c.27-.17.43-.15.73-.31.16-.45.04-.17-.14-.76-.08-.26.41-.72.32-1.07-.07-.28-.26-.55-.32-.89-.06-.29-.78-.49-.83-.82-.05-.3.16-.66.12-.99-.04-.3-.04-.63-.07-.96-.03-.31.36-.65.35-.98-.02-.31.05-.62.05-.95s-.38-.62-.37-.95-.09-.64-.07-.96.02-.64.05-.96.06-.63.1-.96.02-.64.07-.96.16-.62.23-.94-.17-.7-.1-1.01.09-.65.17-.96.66-.48.75-.8-.25-.75-.14-1.06.83-.39.94-.69.09-.64.22-.94.36-.53.49-.83.2-.61.34-.9.12-.71.27-1c-.46-.15.04.59-.39 1.04-.19.2-.98-.12-1.24.14-.21.21-.17.71-.42.95-.22.21-.34.56-.59.79-.23.21-.32.6-.57.82-.23.21-.86 0-1.11.21-.24.21-.19.76-.44.98s-.69.17-.95.38-.24.73-.5.93-1.04-.3-1.3-.1.03 1.13-.23 1.33-1.06-.39-1.33-.2 0 1.16-.27 1.34-1.01-.38-1.29-.21-.27.8-.55.96-.64.19-.92.35-.34.76-.63.91-.84-.22-1.13-.09-.54.4-.83.52-.76-.16-1.06-.05-.46.62-.77.72-.51.6-.82.69-.69.01-1.01.08-.65.16-.97.21-.65.23-.98.26-.69-.37-1.01-.36-.63-.49-.95-.51-.89.17-1.21.13c-.32.34.32.55.33 1.13 0 .27.08.58.08.94 0 .29.06.61.04.94-.02.29-.15.6-.18.93-.03.3-.49.55-.54.87-.04.3.32.67.26.99s-.2.59-.28.9-.46.51-.55.81-.21.56-.33.86-.14.6-.27.88-.38.48-.54.75.18.84 0 1.1-.75.2-.96.44.11.98-.12 1.19-1.09-.33-1.34-.15-.18.8-.46.96-.47.48-.76.61-.57.33-.87.43-.42-.08-.74 0Z" fill="#007168" stroke-width="0"/>
    <path d="M258.72 40.86c.42.23-.56.35-.78.77s.49.8.27 1.22-.76.15-.98.57-.24.42-.46.84.25.67.02 1.1-.11.49-.33.91-.92.07-1.14.49-.24.42-.46.85.48.79.26 1.22-.53.27-.75.7-.61.22-.84.65.2.64-.02 1.07-.42.32-.65.75.16.63-.06 1.05-.64.21-.86.63.02.55-.2.98-.12.48-.34.91-.61.22-.84.65-.06.51-.28.94-.46.31-.68.74.12.6-.1 1.03-.31.38-.53.81-.09.5-.31.92-.26.41-.48.84.05.57-.18 1-1.02.02-1.25.45.59.87.15.66-.2-.12 0-.56.6-.27.79-.72-.02-.54.17-.98-.14-.58.05-1.03.9-.14 1.09-.59-.63-.8-.44-1.25.68-.24.87-.69.6-.27.79-.72.13-.47.32-.92-.3-.66-.11-1.11.04-.51.23-.96.48-.32.67-.77.21-.44.4-.89.53-.31.72-.76-.42-.71-.22-1.16.17-.48.41-.91.57-.22.83-.62.46-.27.73-.66-.02-.59.25-.98-.08-.63.19-1.03.54-.22.8-.62.03-.56.29-.95.19-.45.45-.85.92.03 1.18-.37-.27-.75 0-1.16.88-.1 1.04-.55c.2-.56-.12-1.2.3-.97Z" fill="#00625a" stroke-width="0"/>
    <path fill="#f17165" stroke-width="0" d="M260.45 69.34c-.15.28-.18.61-.36.87s-.59.32-.79.55-.17.68-.39.9-.67.16-.91.35-.57.21-.83.37-.25.82-.53.95-.5.49-.79.59-.74-.25-1.04-.18-.59.18-.9.22-.62-.23-.93-.22-.6.16-.91.14-.67.35-.98.29-.5-.57-.8-.66-.79.36-1.08.24-.22-.97-.5-1.12-.85.22-1.11.05-.7-.17-.94-.37.09-1.01-.12-1.24-1.05.07-1.24-.18-.32-.59-.48-.86.08-.77-.05-1.05-.09-.62-.19-.91-.25-.55-.32-.85-.37-.56-.42-.86-.19-.62-.19-.93-.08-.65-.06-.96-.06-.67 0-.98.37-.58.46-.88.72-.39.84-.68-.31-.82-.17-1.1.21-.64.39-.89 1-.01 1.2-.25-.03-.87.19-1.08.65-.21.89-.39.56-.26.82-.42.31-.73.59-.86.51-.5.8-.6.74.2 1.04.13.66.24.97.2.57-.54.88-.55.62.15.93.18.61.08.92.14.48.53.78.62.76-.34 1.05-.22.4.58.68.72.82-.14 1.07.03.62.27.86.47-.1 1.01.12 1.23.31.49.5.74.33.46.49.73.91.19 1.04.47.26.59.36.88-.37.75-.3 1.05.06.57.11.88.78.55.79.86-.26.63-.28.94.06.64 0 .95.14.7.05 1-.77.4-.89.69-.18.58-.33.85ZM284.11 81.4c-.17.31-.25.66-.48.91s-.67.23-.96.4-.45.61-.78.71-.7-.17-1.04-.16-.58-.18-.92-.26-.82.35-1.13.18-.79-.22-1.03-.45-.13-.84-.31-1.13-.37-.58-.46-.91.15-.67.14-1.02-.14-.64-.06-.98-.18-.81-.01-1.12.74-.33.97-.58.16-.94.45-1.12.93.4 1.26.3.55-.76.89-.77.8-.24 1.14-.16.38.96.69 1.13 1.09-.28 1.33-.05.47.66.65.95-.07.84.03 1.17-.02.66 0 1.01.05.64-.03.98-.16.63-.32.94ZM246.76 28.36c-.14.26-.2.57-.4.76s-.59.11-.85.23-.42.52-.71.55-.54-.29-.83-.34-.4-.27-.66-.41-.81.16-1-.04-.61-.39-.74-.65.22-.72.19-1.01-.09-.56-.03-.85.41-.41.55-.67.15-.53.36-.72.23-.71.49-.84.68.22.97.18.62-.62.91-.56.29.89.55 1.03.84-.18 1.04.02.66.39.78.65-.56.8-.52 1.08.85.62.79.91-.74.41-.88.67Z"/>
    <path d="M249.97 57.65c-.15.28-.19.62-.37.87s-.6.3-.81.53-.21.68-.45.87-.68.11-.94.27-.58.14-.87.27-.36.78-.66.87-.59.4-.9.45-.69-.39-1-.38-.62.05-.93.02-.55-.37-.85-.45-.62 0-.91-.12-.75.13-1.03-.02-.31-.71-.56-.89-.88.06-1.11-.15.14-.99-.05-1.23-.88-.13-1.04-.4-.58-.46-.7-.74.52-.87.43-1.17-.96-.43-1.01-.74 0-.69 0-1 .46-.63.49-.94.25-.57.32-.88.09-.6.21-.89.01-.67.16-.95.23-.63.41-.88.34-.58.56-.8.39-.57.63-.77.67-.2.94-.37.8.2 1.08.07.35-.82.65-.9.61-.3.92-.35.69.72 1 .72.63-.6.94-.57.57.36.88.43.54.27.84.39.77-.19 1.05-.04.72.13.97.31.26.73.49.94.15.69.35.93.76.22.92.48.18.63.3.91.22.59.31.89-.26.67-.21.98.63.55.64.86-.36.6-.4.92.44.71.37 1.02-.04.69-.15.99-.75.36-.91.64Z" fill="#d65650" stroke-width="0"/>
    <path fill="#6b2c22" stroke-width="0" d="M260.19 65.41c-.16.3-.34.71-.56.95s-.64.43-.92.6-.76.03-1.08.12-.63.67-.97.68-.78-.09-1.11-.17-.32-1.01-.63-1.17-1.03.28-1.27.06-.31-.7-.48-.98.22-.78.13-1.1-1.08-.51-1.09-.84.61-.66.69-.99-.15-.79.02-1.09.66-.39.88-.63.67-.13.96-.31.42-.51.74-.6.61.1.95.09.63-.29.96-.21.47.43.77.6.74.03.98.26.31.57.49.85.34.53.43.85.04.62.05.95 0 .6-.08.93.32.84.16 1.14ZM248.61 52.22c-.15.28-.34.68-.56.89s-.64.36-.92.5-.72-.08-1.02-.04-.7.55-1.01.49-.71-.26-.99-.41 0-1.03-.21-1.25-1.03-.03-1.17-.31-.01-.72-.05-1.03.53-.55.58-.86-.72-.91-.57-1.19.84-.22 1.06-.43.3-.71.58-.85.71.09 1.02.05.53.33.84.38.58-.11.86.04.3.48.51.7.6.24.73.52-.07.58-.03.89.4.56.34.86.17.75.02 1.03Z"/>
    <path fill="#f17165" stroke-width="0" d="M237.06 56.95c.31-.07.59-.26.9-.29s.62.25.93.27.65-.29.96-.23.53.44.82.54.49.35.77.48.82-.24 1.09-.07.69.18.93.38.16.77.37 1 .45.43.63.69.08.66.22.94.4.47.51.77.59.48.66.79-.33.69-.3 1 .63.63.61.94-.84.54-.89.85.48.75.38 1.05.04.73-.1 1.02-1 .18-1.17.44.31 1.01.11 1.25-.52.45-.75.66-.78.07-1.03.25-.59.19-.87.33-.51.32-.81.43-.52.43-.83.5-.62.24-.93.27-.66.12-.97.11-.69.08-1 .03-.6-.38-.89-.47-.37-.73-.66-.87-.85.27-1.11.1-.63-.27-.87-.47.09-1-.12-1.23-.86-.08-1.05-.34-.11-.67-.25-.95-.15-.59-.26-.89-.65-.46-.72-.77-.37-.63-.4-.94.38-.68.39-.99.42-.57.47-.88-.34-.72-.24-1.01.36-.55.49-.83.3-.55.46-.81.68-.24.88-.49 0-.83.23-1.05.69-.12.95-.3.24-.8.52-.95.55-.42.84-.53.77.33 1.08.26Z"/>
    <path fill="#6b2c22" stroke-width="0" d="M233.85 61.54c.31-.07.73-.19 1.03-.16s.7.25.98.37.41.59.65.79.88.17 1.04.44.27.71.34 1.02-.78.68-.81.98.66.8.53 1.08-.53.48-.74.72-.76-.04-1.03.12-.21 1.14-.52 1.21-.72-.49-1.02-.52-.73.25-1.02.12-.39-.6-.63-.8-.1-.61-.26-.88-.47-.37-.54-.68.16-.54.19-.84-.21-.61-.09-.89.49-.33.69-.56.16-.66.43-.82.46-.62.77-.69Z"/>
</svg>
