<svg xmlns="http://www.w3.org/2000/svg" id="glasses" viewBox="0 0 300 300">
    <defs>
    <style>.cls-1{fill:#f8b62d}.cls-2{fill:#00564c}.cls-3{fill:#046057}.cls-5{fill:#6b2c22}.cls-7{fill:#ea5514}.cls-8{fill:#f39800}.cls-9{fill:#f17165}.cls-10{fill:#b9000d}</style></defs>
    <path d="M56.77 101.4c-3.07.62-1.94 1.43-4.93 3.84-1.41 1.13-3.06 2.46-4.91 3.88-1.56 1.19-2.85 3-4.63 4.28-1.65 1.19-3.9 1.64-5.67 2.83s-3.45 2.34-5.23 3.42-3.32 2.73-5.12 3.68c-1.94 1.01-4.21 1.09-6.05 1.82-2.11.84-4.11 1.44-5.96 1.77-2.96.98-2.59 1.89-3.15 5.32-.26 1.55 0 3.28 1.29 5.76 1.01 1.94 2.24 3.35 3.89 4.43s3.52 1.93 5.56 2.24 4.16.83 6.17.47 4.1-1.27 5.82-2.22c1.31-.72 3-2.55 5.43-4.37 1.65-1.24 3.9-2.17 5.84-3.81 1.67-1.42 2.98-3.46 4.74-5.12 1.64-1.56 3.12-3.34 4.72-5.06s3.63-2.97 5.07-4.78 2.63-3.87 3.85-5.78c1.29-2.01 2.23-4.12 3.14-6.16.98-2.21 1.88-4.09 2.27-6.27-2.85-1.09-2.96-.3-6.01-.49s-3.12-.29-6.11.31Z" class="cls-10"/>
    <path d="M62.94 116.48c-.49-3.46-2.07-2.09-5.97-3.63-1.83-.72-4.01-1.85-6.74-1.94-2.05-.07-4.4.47-6.98 1.07-2.8 1.25-2.26 1.28-5.2 3.26-1.54 1.04-3.29 2.21-5.11 3.36s-3.37 2.51-5.06 3.47c-2.11 1.22-3.91 1.92-5.34 2.44 2.71 1.4 2.58.12 5.92 1.05 1.78.5 3.68 1.49 5.55 2.56 1.71.98 3.4 2.21 4.7 3.84 1.19 1.49 1.93 3.68 2.41 5.84 2.87.92 1.89-1.77 4.67-4.25 1.29-1.15 2.64-2.68 4.29-4.24 1.36-1.28 3.17-2.33 4.67-3.84 1.37-1.36 2.4-3.18 3.82-4.69 1.35-1.44 3.01-2.77 4.35-4.31Z" class="cls-3"/>
    <path d="M249.45 101.58c3.07.62 1.64 1.68 4.62 4.09 1.41 1.13 3.11 2.42 4.97 3.83 1.56 1.19 3.12 2.64 4.9 3.92 1.65 1.19 3.64 2.03 5.41 3.21s3.66 2.05 5.44 3.12 3.44 2.52 5.25 3.46c1.94 1.01 4.14 1.24 5.97 1.97 2.11.84 3.95 1.94 5.8 2.27 2.96.98 3.04 1.31 3.6 4.74.26 1.55.57 3.77-.72 6.25-1.01 1.94-2.64 3.6-4.28 4.68s-4 1-6.05 1.31-4.11 1.03-6.12.67-3.85-1.69-5.57-2.63c-1.31-.72-3.8-1.36-6.23-3.17-1.65-1.24-3.4-2.85-5.34-4.48-1.67-1.42-3.08-3.36-4.83-5.02-1.64-1.56-3.8-2.72-5.4-4.44s-2.25-4.19-3.69-5.99-3.06-3.51-4.29-5.42c-1.29-2.01-2.33-4.05-3.23-6.09-.98-2.21-2.03-4.36-2.41-6.54 2.85-1.09 3.09.38 6.14.25s3.06-.57 6.05.03Z" class="cls-10"/>
    <path d="M243.49 116.51c.49-3.46 1.9-2.09 5.8-3.64 1.83-.72 4.01-1.79 6.74-1.88 2.05-.07 4.31.59 6.88 1.19 2.8 1.25 2.29 1.17 5.23 3.15 1.54 1.04 3.18 2.38 5 3.54s3.52 2.27 5.21 3.24c2.11 1.22 4.15 2.3 5.58 2.82-2.71 1.4-2.75-.13-6.09.8-1.78.5-3.86 1.09-5.73 2.16-1.71.98-3.5 2.25-4.8 3.89-1.19 1.49-1.79 3.58-2.28 5.75-2.87.92-1.8-1.5-4.59-3.98-1.29-1.15-2.87-2.44-4.52-3.99-1.36-1.28-2.5-3.01-4.01-4.52-1.37-1.36-2.85-2.73-4.27-4.24-1.35-1.44-2.83-2.76-4.17-4.3Z" class="cls-3"/>
    <path d="M145.39 50.43c-.84-3.11-.73-2.37-3.7-5.05-1.36-1.23-3.84-1.6-5.8-3.04-1.6-1.18-2.59-3.54-4.57-4.73-1.75-1.05-3.4-2.7-5.44-3.66-1.87-.88-4.25-.94-6.35-1.67-1.96-.69-4.07-1.24-6.23-1.75-2.03-.48-4.13-1.14-6.33-1.42-2.07-.26-4.28.74-6.5.7-2.08-.04-4.17-.05-6.38.13-2.07.18-4.11.63-6.3 1.03-2.05.37-4.3.01-6.44.6-2 .56-3.95 1.51-6.03 2.28-1.95.72-4.22.87-6.25 1.79-1.9.86-3.34 2.78-5.3 3.83s-4.1 1.63-5.87 2.7c-1.92 1.16-4.22 1.6-5.92 2.77-1.85 1.28-2.63 3.83-4.23 5.12-1.76 1.42-3.04 3.09-4.51 4.51-1.63 1.58-4.03 2.22-5.32 3.79-1.45 1.76-1.65 4.17-2.71 5.91-1.18 1.95-2.8 3.42-3.54 5.32-.82 2.11-.87 4.22-1.19 6.24-.35 2.22-1 4.24-.81 6.3.2 2.2 1 4.15 1.72 6.12s1.94 3.68 3.14 5.43 1.66 4.27 3.26 5.67 3.39 3.04 5.29 3.99 4.21 1.85 6.3 2.26c2.13.41 4.64-1.43 6.96-1.27 2.18.15 4.38 2.27 6.69 2.21s4.42-1.24 6.69-1.49 4.45-.45 6.69-.86 4.51-.44 6.7-1.01 4-2.31 6.14-3.02 4.81-.02 6.88-.88 4.16-1.92 6.15-2.93 3.45-3.15 5.33-4.32 4.21-1.9 5.96-3.25 3.35-3.12 4.92-4.66c1.51-1.49 2.61-3.29 4.04-4.62 1.56-1.46 2.71-3.27 4.16-4.55 1.63-1.44 4.3-1.46 5.76-2.68 1.71-1.43 2.3-3.95 3.75-5.08 1.87-1.45 4.33-1.57 5.72-2.56 3.23-2.31 3.21-1.03 3.89-4.01.58-2.57-.37-2.35-.58-4.98s.84-2.66.15-5.21Zm-43.92 32.91c-1.24.65-3.73.58-6.43 1.44-1.84.59-3.6 2.46-5.89 3.04-1.99.51-4.44-.37-6.65.08-2.08.42-4.29.13-6.46.45s-4.17 1.41-6.31 1.58-4.36.33-6.46.3c-2.27-.03-4.37-.47-6.39-.79-2.31-.37-4.77.13-6.57-.71-2.1-.99-3.99-2.61-5.11-4.38-1.17-1.85-2.15-4.05-2.41-6.12s.75-4.21 1.32-6.35c.51-1.92 1.07-4 2.22-5.94 1.02-1.71 2.84-2.96 4.34-4.63 1.34-1.49 2.12-3.74 3.84-5.16 1.56-1.29 3.62-2.12 5.47-3.33 1.71-1.11 3.94-1.4 5.89-2.41 1.81-.94 3.06-3.26 5.08-4.11 1.89-.79 3.8-1.93 5.87-2.62 1.95-.65 4.39.02 6.5-.52 2.26-.58 4.27-2.24 6.41-2.54 2.31-.33 4.69.28 6.85.24 2.34-.05 4.66-.45 6.81-.22 2.33.24 4.5 1.22 6.59 1.72 2.3.54 4.59.88 6.58 1.63 2.25.85 4.51 1.54 6.34 2.5 2.25 1.18 3.48 3.55 5.06 4.65 3.4 2.37 3.75.78 4.64 4.03-1.3 0-2.85.24-4.94 2.19-1.3 1.22-1.22 4.23-2.78 5.9-1.31 1.41-4.23 1.52-5.7 3.09-1.36 1.46-2.03 3.66-3.51 5.14s-3.01 2.79-4.54 4.15-3.41 2.32-5.03 3.51-2.87 3.27-4.64 4.18Z" class="cls-10"/>
    <path d="M97.56 29.86c2.72.23 2.04.3 4.49 2.7 1.05 1.03 2.5 2.18 3.48 4.16.69 1.41 1.15 3.14 1.66 5.17-2.79 1.98-2.72-.51-6.77-.69-2.02-.09-4.38-.3-6.86-.17-2.2.11-4.46.79-6.76 1.19s-4.39.67-6.5 1.46c-2.49-2.25-.98-2.91-3.61-5.38-1.39-1.31-3.25-2.59-5.94-2.85-.67-3.39 2.44-1.55 6.4-2.93 1.88-.66 4.24-.94 6.75-1.48 2.1-.46 4.36-.83 6.79-1.04 2.2-.19 4.48-.28 6.87-.14ZM56.52 55.12c-.34-3.42-1.97-2.37-5.77-3.18-1.9-.4-4.23-.45-6.83.37-3.03 1.73-2.3 1.88-4.98 4.93-1.38 1.58-2.67 3.63-4.06 5.68-1.29 1.91-2.69 3.85-3.59 5.99s-1.42 4.31-1.5 6.56c3.69.38 3.3-1.91 7.03-2.05 2.3-.09 4.72.51 6.65 2.64 3.19-.54-.71-2.23.85-6.19.64-1.63 1.83-3.45 3.36-5.57 1.11-1.53 2.39-3.27 4.13-5.01 1.38-1.38 2.84-2.69 4.7-4.18ZM45.73 83.89c-3.02-.77-2.58 1.17-4.68 4.03-1.02 1.39-2.31 3.05-2.57 5.56-.18 1.75.09 3.81.62 6.22 1.44 3.26 1.49 2.05 5.89 3.82 1.78.72 3.98 1.59 6.82 2.03 2.05.32 4.43.04 7.12.06 2.15.02 4.54.56 7.14.31 2.19-.2 4.6-.79 7.13-1.22.75-2.71-1.8-2.03-2.26-5.09-.24-1.58-.12-3.35.83-5.38a15.8 15.8 0 0 1 3.38-4.71c-2.09-2.33-2.75.53-6.39.82-1.87.15-4.01.4-6.25.34-2.06-.05-4.2-.19-6.25-.56S52.17 88.9 50.4 88c-1.93-.98-3.58-2.32-4.66-4.11ZM91.84 85.93c-2.04 2.91-.83 3.96.7 7.23.84 1.81 2.61 3.44 5.52 4.29 3.34.25 2.65-.32 6.43-1.87 1.78-.73 3.65-2.02 5.82-3.3 1.77-1.05 3.7-2.18 5.56-3.68 1.64-1.32 3.37-2.75 4.97-4.48 1.44-1.56 2.98-3.51 4.3-5.44-1.9-2.39-2.89-1.29-5.53-2.82s-2.17-2.91-5.18-3.43c-3.23-.56-2.06 1.88-5.22 4.27-1.52 1.15-3.2 2.6-5.27 3.86-1.75 1.07-3.76 1.97-5.83 2.94-1.92.9-4.11 1.77-6.25 2.44Z" class="cls-3"/>
    <path d="M146.17 60.83c.67 2.98 1.79 1.21 5.03 3.53 1.39.99 3.34 1.79 5.21 3.24 1.45 1.13 3.02 2.46 4.73 3.89 1.46 1.22 2.51 3.12 4.14 4.56 1.45 1.28 3.71 1.83 5.27 3.29 1.43 1.33 2.75 2.92 4.27 4.41 1.57 1.55 2.3 4.21 4.11 5.61s4.59 1.26 6.52 2.47 3.61 2.64 5.64 3.66 3.96 2.11 6.05 2.97 4.48.76 6.62 1.47 4.14 1.72 6.31 2.28 4.2 1.92 6.39 2.32 4.41 1.5 6.62 1.74 4.63-.06 6.83 0 4.66.47 6.84.32c2.32-.16 4.37-2.12 6.5-2.53 2.09-.4 4.2-.67 6.14-1.64s3.66-2.17 5.3-3.6 2.69-3.22 3.92-5.01c1.2-1.75 2.68-3.34 3.43-5.39s1.95-4.01 2.14-6.22c.18-2.06-1.48-4.15-1.83-6.37-.32-2.02.78-4.55-.04-6.66-.74-1.9-2.28-3.64-3.47-5.59-1.06-1.74-3.43-2.61-4.87-4.37-1.29-1.57-1.23-4.54-2.86-6.12-1.47-1.42-3.17-2.86-4.93-4.28-1.6-1.29-3.45-2.5-5.3-3.78-1.7-1.17-4.07-1.48-5.99-2.64-1.77-1.07-3.4-2.57-5.37-3.62s-3.95-1.88-5.84-2.74c-2.02-.91-3.84-2.21-5.79-2.92-2.08-.76-4.52-.17-6.53-.72-2.14-.59-4.19-.94-6.24-1.32-2.18-.4-4.25-.42-6.33-.59-2.21-.19-4.26-1.37-6.34-1.33-2.21.04-4.36.17-6.43.42-2.2.27-4.17 1.28-6.2 1.76-2.16.51-4.55 0-6.51.68-2.1.74-3.79 2.33-5.66 3.21-2.04.96-4.24 1.42-5.99 2.47-1.97 1.18-3.06 3.41-4.65 4.59-1.95 1.44-3.86 2.45-5.22 3.68-2.96 2.68-4.28 1.09-5.12 4.2-.69 2.55-.23 2.64-.69 5.24s-.39 2.82.19 5.4Zm13.35-5.89c.89-3.25 1.85-1.74 5.25-4.11 1.58-1.1 3.24-2.76 5.49-3.94 1.84-.96 3.95-1.86 6.2-2.71 1.99-.75 4.35-.69 6.65-1.24 2.09-.49 4.13-1.98 6.46-2.22 2.14-.23 4.46-.11 6.8-.06 2.16.05 4.23 1.75 6.54 2.08 2.14.3 4.64-.91 6.9-.33 2.1.54 4.03 1.56 5.99 2.21 2.07.69 3.99 1.59 5.88 2.38 2.02.84 4.36.91 6.18 1.85 1.95 1.01 3.63 2.46 5.34 3.57 1.85 1.2 3.04 3.17 4.59 4.46 1.71 1.42 2.64 3.35 3.98 4.84 1.5 1.67 3.03 2.95 4.05 4.66 1.15 1.94 1.48 3.82 1.99 5.75.57 2.14 2.38 4.03 2.12 6.06s-1.43 4.05-2.6 5.9c-1.12 1.77-2.84 3.18-4.94 4.17-1.8.84-3.87 1.86-6.18 2.23-2.02.33-4.28-.08-6.55-.05-2.1.03-4.22-.81-6.42-.98s-4.49 1.18-6.63.87-4.02-2.39-6.1-2.81c-2.21-.44-4.45-.33-6.44-.83-2.29-.58-4.82.18-6.66-.41-2.69-.86-4.03-3.58-5.27-4.23-1.76-.91-3.41-1.91-5.11-3.16s-3.24-2.35-4.78-3.74-3.71-2.04-5.15-3.49-2.53-3.33-3.89-4.79c-1.47-1.57-2.96-3.01-4.27-4.42-1.56-1.67-2.65-3.55-3.95-4.77-2.09-1.96-4.15-2.74-5.45-2.74Z" class="cls-10"/>
    <path d="M195.35 29.4c-2.72.23-2.13.63-4.58 3.02-1.05 1.03-2.47 2.26-3.45 4.24-.69 1.41-1.03 3.17-1.54 5.2 2.79 1.98 2.7-.67 6.75-.85 2.02-.09 4.37.24 6.85.36 2.2.11 4.47.48 6.77.89s4.32.53 6.43 1.32c2.49-2.25.82-3.08 3.45-5.55 1.39-1.31 3.16-2.4 5.86-2.66.67-3.39-2.17-1.3-6.14-2.68-1.88-.66-4.09-1.51-6.6-2.06-2.1-.46-4.44-.62-6.86-.83-2.2-.19-4.54-.55-6.93-.41ZM236.1 55.09c.34-3.42 2.35-2.09 6.15-2.9 1.9-.4 4.08-.54 6.68.28 3.03 1.73 2.41 1.71 5.09 4.75 1.38 1.58 2.88 3.49 4.27 5.54 1.29 1.91 2.37 4.05 3.26 6.18s1.51 4.32 1.6 6.58c-3.69.38-3.32-1.52-7.05-1.66-2.3-.09-4.78.54-6.71 2.66-3.19-.54.37-2.53-1.19-6.5-.64-1.63-1.3-3.7-2.83-5.82-1.11-1.53-2.43-3.26-4.17-5-1.38-1.38-3.24-2.64-5.1-4.13ZM247.22 83.94c3.02-.77 2.95.83 5.05 3.69 1.02 1.39 1.58 3.36 1.84 5.88.18 1.75.24 3.77-.29 6.18-1.44 3.26-1.5 2-5.9 3.77-1.78.72-4.01 1.33-6.84 1.77-2.05.32-4.38.78-7.06.8-2.15.02-4.54.12-7.14-.12-2.19-.2-4.63-.77-7.16-1.2-.75-2.71 2.17-1.98 2.63-5.04.24-1.58.11-3.56-.84-5.59-.66-1.43-1.98-2.9-3.6-4.44 2.09-2.33 2.6.81 6.25 1.09 1.87.15 4.04-.18 6.28-.23 2.06-.05 4.19-.1 6.23-.47s4.34-.64 6.12-1.55c1.93-.98 3.36-2.74 4.43-4.53ZM200.66 86.24c2.04 2.91 1.31 3.66-.21 6.93-.84 1.81-2.63 3.59-5.54 4.44-3.34.25-2.64-.53-6.43-2.08-1.78-.73-3.78-1.79-5.95-3.07-1.77-1.05-3.78-2.13-5.64-3.63-1.64-1.32-3.09-3.07-4.68-4.8-1.44-1.56-2.93-3.3-4.25-5.24 1.9-2.39 2.59-1.66 5.23-3.19s2.42-2.09 5.43-2.61c3.23-.56 1.9 1.4 5.06 3.8 1.52 1.15 3.13 2.74 5.2 4 1.75 1.07 3.86 1.81 5.94 2.78 1.92.9 3.7 2.01 5.84 2.68Z" class="cls-3"/>
    <path d="M146.54 40.69c-2.78-2.11-2.53-1.85-6.42-2.97-1.96-.56-4.39-.52-6.99-.4-2.12.09-4.32.63-6.72 1.56-1.96.77-4.35 1.3-6.42 2.84-1.69 1.26-2.95 3.35-4.67 5.25-1.43 1.58-3.05 3.24-4.48 5.33-1.22 1.79-2.01 3.71-3.21 5.91.36 3.21.95 2.3 3.8 4.96 1.38 1.28 3.05 2.76 4.92 4.23 1.6 1.26 3.65 2.17 5.54 3.38 1.78 1.14 3.75 2.02 5.72 2.97s3.72 2.37 5.79 2.97 4.22.34 6.37.46c3.19-1.47 2.35-1.72 4.83-4.98 1.27-1.68 2.85-3.57 4.1-5.75 1.14-1.99 1.75-4.38 2.5-6.6s1.43-4.56 1.44-6.86-.36-4.73-1.49-6.89c-.98-1.87-2.5-3.79-4.6-5.41Z" class="cls-8"/>
    <path d="M110.37 64.84c-2.92 2.85-1.47 3.79 1.14 7.66 1.17 1.74 3.12 3.47 6.42 4.81 2.06.84 3.89 1.51 5.57 1.66 2.26.21 4.13-.49 5.68-1 3.24-1.05 5.83-.02 4.75-2.71-1.23-3.05-2.52-.61-6.16-1.75-1.9-.59-4.07-1.32-6.23-2.15s-4.09-1.85-5.95-2.83c-2.21-1.17-4.01-2.32-5.22-3.69Z" class="cls-7"/>
    <path d="M110.83 57.15c-1.56-2.49-2.88-4.14-5.06-2.81-1.36.83-1.76 2.56-1.17 4.51.36 1.18 1.22 2.37 2.81 3.83 1.13 1.04 2.15 3.09 4.04 4.9 1.35 1.3 3.18 2.43 5.05 3.81 1.57 1.16 3.18 2.59 5.18 3.63 1.75.91 3.78 1.56 5.91 2.28 1.87.63 3.94.98 6.14 1.39 1.95.36 4.01 1.14 6.24 1.26 2.81.05 4.16-.43 3.83-3.82-.21-2.15-1.85-2.4-4.25-2.59-1.38-.1-3.04-.42-5.1-.97-1.8-.48-4.19-1.14-6.85-2.27-2.06-.87-4.28-1.86-6.47-3.22-1.98-1.23-4.17-2.39-6-4.11-1.72-1.61-2.95-3.73-4.31-5.83Z" class="cls-1"/>
    <path d="M148.86 37.18c2.72-2.07 2.29-1.93 6.11-2.81 1.95-.45 4.2-.49 6.74-.09 2.02.32 4.17.86 6.41 2.13 1.77 1 3.52 2.39 5.35 4.2 1.47 1.44 2.79 3.24 4.25 5.31 1.21 1.7 2.56 3.43 3.76 5.61-.41 3.23-1.46 2.17-4.34 4.76a63.574 63.574 0 0 1-5.06 4.13c-1.68 1.23-3.55 2.45-5.51 3.52s-3.9 2.01-5.97 2.69-4.16.62-6.33.75c-3.21-1.5-2.55-1.7-4.92-4.98-1.26-1.75-2.06-4.13-3.15-6.36s-2.3-4.25-2.66-6.55.27-4.62 1.17-6.86c.79-1.97 1.98-3.77 4.15-5.44Z" class="cls-8"/>
    <path d="M179.05 56.95c2.77 2.03 1.26 3.38-.94 6.62-.99 1.46-2.8 2.68-5.57 3.81s-5.09 1.37-7.05 1.17c-4.28-.43-7.51.71-6.49-2.8s3.1-.91 7-2.2c2.21-.74 4.74-1.4 6.96-2.44 2.54-1.19 4.77-2.68 6.08-4.16Z" class="cls-7"/>
    <path d="M178.52 50.57c1.32-2.09 2.42-3.39 4.25-2.27s2.42 3.93-1.12 7.18c-1.1 1.01-2.79 2.39-4.77 4.2-1.39 1.27-2.84 2.84-4.82 4.12-1.64 1.06-3.52 2.04-5.64 2.91-1.82.74-3.87 1.2-6.11 1.68-1.93.41-3.99.78-6.26.91-2.36.05-3.27.13-2.99-2.73s3.04-1.15 7.8-2.41c1.52-.4 3.4-1.48 5.63-2.43 1.73-.73 3.62-1.55 5.46-2.7 1.67-1.04 3.41-2.14 4.95-3.58 1.44-1.36 2.48-3.12 3.63-4.88Z" class="cls-1"/>
    <path d="M143.9 39.78c.28-.2-.01-.05.37.17.17.1.4.17.63.29.19.09.34.34.57.43.2.08.55-.19.78-.11.21.07.37.32.6.39.22.06.51-.2.74-.15s.36.55.59.58.47-.03.71-.01.46-.14.7-.14.45.03.69.01.47.07.7.04.43-.19.66-.25.37.13.6.06c.31.19.38.02.57.44.09.19-.12.57 0 .82.11.2.11.5.25.72.12.2.55.22.7.43.14.19.22.44.38.64.15.18.24.45.41.63s.55.13.73.3.36.31.56.46.25.5.46.63.36.41.59.51.58-.09.81 0 .52-.11.77-.06.53.27.78.3c.24.28.15.34.19.8.02.21-.49.51-.46.79.03.22.26.44.3.7.04.23.12.46.17.71.04.23.34.42.39.66.05.23-.21.54-.15.79s.51.36.58.6.08.47.16.71.22.42.31.66-.15.58-.06.8-.05.56.05.79.48.32.59.54.05.54.17.75.58.22.71.42.24.42.39.61.44.26.6.44.16.49.33.67.08.63.27.79.43 0 .63.16c-.21.28-.07-.17-.5-.28-.19-.05-.53.32-.79.26-.21-.05-.34-.6-.58-.65-.22-.04-.56.51-.8.47-.22-.04-.38-.55-.62-.58-.23-.03-.45-.24-.69-.27s-.49.08-.73.07-.49.29-.73.28-.47-.2-.7-.2-.48-.3-.72-.29-.49.04-.72.06-.48.08-.72.11-.4.52-.63.56-.54-.24-.77-.18-.45.2-.67.28-.27 0-.49.09c-.31-.15-.13-.02-.33-.4-.09-.18-.05-.49-.19-.71-.11-.18-.73-.04-.88-.24-.13-.18-.13-.46-.29-.64-.15-.17-.06-.58-.24-.75-.16-.16-.32-.37-.51-.52-.18-.14-.57-.02-.77-.14s-.37-.27-.58-.38-.33-.42-.55-.5-.48-.06-.71-.12-.44-.19-.68-.23c-.22-.04-.51.36-.75.34-.22-.02-.44-.44-.67-.44-.23 0-.46.2-.7.22-.23.02-.33-.05-.57-.02-.2-.3-.25-.22-.12-.67.06-.2.06-.44.12-.71.05-.22.66-.34.71-.6.04-.22-.18-.51-.14-.77.03-.23 0-.48.02-.73.02-.23.19-.47.2-.72.01-.24-.22-.49-.21-.74 0-.24.45-.48.44-.73s-.24-.48-.25-.73-.05-.48-.07-.73-.17-.47-.2-.72-.15-.47-.19-.71l-.12-.72c-.04-.24.16-.53.11-.77s-.16-.46-.22-.7.02-.51-.05-.75-.17-.46-.24-.7-.07-.5-.15-.73-.29-.41-.38-.65-.54-.31-.64-.54.28-.31.17-.54Z" class="cls-3"/>
    <path d="M152.21 52.16c-.32.16-.32.07-.53-.22s0-.44-.21-.73-.02-.43-.23-.72-.3-.23-.51-.52-.46-.12-.67-.41-.09-.38-.3-.67-.15-.34-.36-.63-.38-.17-.59-.46 0-.45-.21-.74-.04-.41-.25-.71-.49-.09-.7-.38-.2-.3-.41-.59-.17-.32-.38-.61-.46-.12-.67-.41.05-.48-.16-.77-.14-.34-.35-.64-.32-.22-.53-.51-.15-.34-.36-.64-.68-.26-.51-.58c.16-.3.41.14.65.39s.02.46.26.71.23.25.47.5.56-.06.8.19-.02.49.22.74.37.13.6.37.37.12.61.37 0 .48.23.73.18.31.42.56.17.32.41.57.2.29.44.54.21.22.4.51.57.07.71.39.1.34.25.66.18.3.32.62.06.36.2.68-.22.48-.08.8.72.07.86.39-.4.64-.18.91c.2.23.65.16.33.31Z" class="cls-2"/>
    <path d="M145.43 38.83c-.03-.35-.45.14-.85-.05-.18-.09-.35-.31-.58-.44-.19-.11-.49-.09-.7-.22-.19-.12-.21-.52-.42-.66-.18-.13-.21-.48-.4-.63-.18-.14-.41-.22-.59-.38-.17-.15-.47-.18-.64-.35s-.17-.47-.33-.65-.59-.12-.74-.31-.24-.42-.37-.62-.28-.39-.4-.6-.26-.4-.36-.62-.12-.47-.2-.69-.18-.3-.25-.53c-.31-.15-.17-.07-.6 0-.2.04-.43.07-.69.1-.21.03-.45.06-.69.08-.22.02-.46.02-.7.02-.23 0-.46.04-.7.03-.23 0-.48.16-.72.13s-.45-.2-.69-.24-.45-.16-.68-.22-.47-.08-.69-.15-.46-.13-.67-.22-.46-.14-.67-.25-.41-.25-.61-.38-.15-.59-.33-.73-.37-.25-.55-.41-.48-.25-.64-.43c-.36-.03-.18.33-.58.55-.18.1-.42.18-.66.31-.2.1-.56-.09-.8.02-.2.1-.42.18-.66.29-.21.1-.36.34-.59.44-.22.09-.49.05-.72.14s-.34.45-.57.53-.4.33-.63.4-.55-.14-.78-.07-.39.4-.63.46-.52-.08-.76-.03-.48.07-.72.11-.46.21-.7.25-.47.23-.71.25-.51-.39-.76-.38-.48.15-.72.15-.51.34-.75.33-.45-.48-.69-.51-.5.07-.74.03-.44-.25-.68-.31-.5-.02-.74-.09c-.08.36.43-.08.78.23.16.13.02.66.22.84.16.15.57.08.76.26.17.16.39.29.57.47.16.17.1.57.27.76.16.17.28.4.44.59s.58.14.74.33.24.44.39.63.1.54.24.74.17.47.31.68.51.25.64.46.15.48.27.69.29.4.39.62.02.52.11.75.19.44.27.67.48.36.55.59-.04.63 0 .87c.31.18.34-.09.79-.15.2-.03.42-.34.69-.35.22-.01.46.37.72.38.23 0 .5-.43.75-.41.23.02.43.37.67.42.23.04.44.16.68.22s.47.05.7.14.44.17.66.27.32.38.53.51.64-.11.84.03.43.25.61.42.3.4.47.58.38.32.53.52c.15.18.24.43.38.63s.09.51.21.72c.12.2.26.42.37.65.35.02.05-.31.34-.66.12-.15.24-.38.42-.58.14-.16.24-.4.42-.59.15-.16.59-.05.77-.22.16-.15.43-.2.62-.36.17-.15 0-.72.18-.87.18-.14.55-.06.74-.21.18-.14.52-.07.71-.21s.12-.63.32-.77.61.08.81-.05.25-.47.46-.6.52-.03.73-.15.25-.51.47-.62.47-.1.69-.2.31-.45.53-.55.5-.05.72-.14.4-.27.63-.35.45-.17.67-.24.49 0 .72-.08.54.18.77.11.35-.48.59-.54.51.11.74.06.5.08.73.03.5-.4.73-.44Z" class="cls-3"/>
    <path d="M132.09 38.27c.02.35.01-.05.36-.05s.35-.24.7-.24.35.19.7.2.34.49.69.5.35-.28.7-.27.36-.38.71-.37.35 0 .7 0 .35.05.7.06.34.62.69.63.35-.07.7-.06.36-.48.71-.47.35-.08.7-.08.35.06.7.06.35.08.7.09.35.34.7.35.36-.09.71-.08.99.35.98 0-.64.06-1 0-.31-.33-.67-.38-.34-.17-.69-.23-.41.26-.76.21-.39.16-.75.1-.28-.51-.64-.57-.35-.12-.7-.17-.38.1-.74.04-.34-.19-.69-.25-.39.17-.75.17-.3.25-.64.31-.36-.04-.7.02-.38-.16-.72-.09-.28.38-.63.45-.42-.34-.76-.27-.3.19-.64.15c-.25-.03-.38-.1-.37.25Z" class="cls-2"/>
    <path d="M142.6 30.02c-.12.34-.18.24.07.62.11.17.43.26.57.49.12.19 0 .55.13.77.12.2.23.41.36.62.12.2.69.14.81.36s.23.43.35.64.33.38.45.59.22.44.34.65-.16.64-.06.85.21.44.32.66c.11.23.52.31.61.53.1.24.06.52.14.74.09.25-.03.54.02.75.06.27.19.55.19.76.34.1.19-.28.56-.52.17-.11.37-.23.6-.37.18-.11.41-.19.63-.32.19-.11.37-.27.59-.39.2-.11.47-.11.68-.22.2-.11.46-.12.67-.23s.32-.39.53-.49.44-.16.65-.27.33-.41.55-.5.45-.16.67-.25.62.28.83.2.29-.6.51-.68.52.08.75.02c.23-.06.46-.12.68-.16.24-.05.44-.33.66-.35.24-.03.5.08.72.09.25 0 .56.13.77.19.22-.29.13-.34.11-.79 0-.21-.58-.46-.56-.74.01-.22.23-.47.27-.73.03-.23.49-.39.54-.63.05-.23.11-.44.19-.68.07-.22-.1-.53 0-.76.09-.22.23-.42.35-.64.11-.21.13-.48.27-.69.13-.2.1-.55.25-.74.15-.18.51-.21.68-.39.17-.17.54-.11.73-.28.18-.16.2-.5.4-.65s.41-.26.62-.39c.2-.13.64-.19.86-.31.12-.34-.09-.4-.22-.85-.06-.2-.61-.3-.68-.57-.05-.22-.03-.48-.08-.74-.04-.22.18-.51.15-.76-.03-.23-.39-.43-.41-.68-.02-.23.41-.51.4-.76-.02-.23-.51-.45-.52-.7v-.74c0-.24-.09-.49-.08-.74s.25-.47.27-.72.12-.47.15-.72.21-.46.25-.7-.08-.51-.03-.75-.12-.53-.06-.77.62-.34.68-.58.17-.44.24-.68-.31-.61-.22-.84.37-.38.46-.61.45-.33.55-.56-.08-.56.03-.79.31-.69.42-.91c-.33-.14-.49.24-.81.57-.14.15-.21.41-.41.61-.16.16-.05.62-.24.8-.16.16-.32.35-.51.53-.17.16-.32.36-.51.53-.17.16-.48.18-.67.34-.18.15-.58.05-.77.21s-.33.35-.52.51-.22.51-.41.66-.3.41-.5.55-.5.14-.7.28-.29.44-.49.58-.66-.13-.86 0-.33.38-.54.51-.54.02-.76.13-.39.28-.61.39-.28.53-.5.63-.64-.26-.86-.16-.28.63-.51.71-.43.29-.66.36-.59-.31-.83-.26-.48.02-.72.06-.42.46-.66.48-.5-.03-.74-.03h-.73c-.24 0-.72-.32-.96-.35-.24.27.25.49.26.94 0 .21-.1.45-.11.72 0 .22-.13.45-.15.7-.02.23-.12.45-.15.7-.03.23.07.48.03.72s-.2.43-.25.67.26.56.19.79-.29.41-.37.64.09.57-.01.79-.48.3-.6.51-.43.28-.57.47.1.71-.06.89-.33.4-.52.55-.71-.15-.92-.02-.15.72-.37.82-.62-.24-.86-.16c-.22.08-.19.38-.44.44Z" style="fill:#007168"/>
    <path d="M155.15 23.14c.34.12-.01.18-.18.5s-.42.19-.58.51.28.55.11.87-.16.32-.33.64-.64.07-.8.39.25.53.08.85-.15.32-.32.64-.21.3-.37.61-.37.21-.54.53-.29.25-.46.57.07.44-.1.76-.47.16-.64.48-.11.35-.27.67-.03.39-.19.71-.02.4-.18.72-.51.14-.67.47-.1.35-.27.67-.18.32-.35.64.07.44-.1.76-.15.33-.31.65-.1.35-.27.67-.58.11-.75.43.08.45-.09.77-.06.38-.23.7-.09.76-.45.67-.15-.53 0-.86.49-.18.63-.51.05-.37.19-.7-.11-.44.03-.77.59-.14.74-.47.19-.31.33-.64-.01-.4.13-.73-.06-.42.08-.75 0-.39.14-.72.68-.1.82-.43-.38-.55-.24-.88.4-.22.54-.55.33-.25.47-.58.21-.3.36-.64.13-.31.31-.63-.01-.41.19-.72-.14-.53.06-.84.54-.08.74-.38.04-.41.24-.71.36-.2.56-.5.16-.33.36-.63.03-.42.24-.72.62-.03.82-.33-.2-.51-.08-.86c.11-.31.23-.47.57-.35Z" style="fill:#00625a"/>
    <path d="M156.51 42.69c-.12.22-.05.57-.19.77s-.44.32-.6.5-.57.11-.76.27-.2.54-.4.68-.45.21-.67.32-.5.08-.73.16-.39.41-.63.46-.49.2-.73.23-.52.04-.77.04-.49-.23-.74-.27-.5-.01-.75-.07-.53 0-.77-.1-.29-.54-.51-.66-.58 0-.78-.15-.52-.19-.7-.35-.12-.59-.29-.78-.55-.22-.69-.42.06-.61-.06-.83-.46-.34-.54-.57.1-.55.05-.79.04-.48 0-.73-.4-.46-.4-.71.05-.5.09-.75-.12-.55-.06-.79.7-.29.79-.52-.1-.57.02-.79.39-.33.53-.53.28-.39.44-.57.3-.38.48-.54.43-.22.64-.35.31-.42.53-.53.41-.31.64-.4.45-.29.69-.34.54.16.79.13.49-.44.74-.43.45.63.7.67.47.03.71.09.46.09.7.18.58-.08.8.04.39.34.59.48.61.06.8.23.17.56.33.75.33.38.46.59.25.43.37.65-.13.58-.05.81.61.32.67.57-.2.54-.17.78.14.48.13.73-.31.45-.35.7.2.52.13.76 0 .52-.09.75-.28.42-.4.64Z" class="cls-9"/>
    <path d="M148.96 34.44c-.11.21.28.75.15.93s-.53.21-.69.37-.35.33-.53.47-.46.15-.67.26-.45.09-.68.17-.36.4-.59.45-.48-.12-.72-.1-.44-.11-.67-.12-.54.5-.77.45-.41-.33-.64-.41-.32-.4-.53-.52-.38-.24-.56-.38-.73.11-.89-.06-.12-.55-.26-.74-.38-.33-.49-.54-.17-.46-.25-.68.04-.5-.01-.73-.19-.44-.21-.67.09-.46.1-.7-.38-.54-.33-.78.16-.49.24-.71.23-.45.35-.66.23-.46.37-.65.3-.42.47-.59.59-.07.78-.22.24-.53.45-.64.48-.15.7-.23.45-.25.68-.3.54.46.78.44.44-.14.67-.13.46-.04.69.01.47.04.69.12.31.4.52.52.71-.23.9-.09.41.31.58.48.22.48.36.66.05.53.16.74.34.36.42.58.17.44.22.68-.13.49-.11.72.21.46.19.69.26.53.21.77-.72.28-.81.5-.15.4-.27.61Z" style="fill:#d65650"/>
    <path d="M156.02 39.8c-.11.21-.19.44-.35.6s-.36.3-.55.42-.48-.01-.7.06-.38.55-.61.56-.44-.34-.67-.39-.52.06-.73-.05-.2-.5-.37-.66-.57-.12-.69-.32.15-.56.08-.78-.44-.38-.45-.61-.21-.54-.15-.77.52-.32.64-.53.03-.57.19-.74.38-.36.57-.48.44-.32.66-.38.52-.14.76-.14.4.62.63.67.36.12.57.23.7-.19.86-.03-.07.65.05.84.21.34.28.56.54.37.54.61-.05.5-.11.73-.33.38-.44.59ZM147.89 30.6c-.13.25.03.77-.18.93s-.61.16-.87.23-.57.16-.84.13-.44-.38-.68-.51-.38-.3-.54-.5-.46-.33-.54-.59-.32-.56-.29-.83.24-.56.37-.8.54-.24.75-.4.3-.54.56-.62.55 0 .82.03.58-.02.83.11.37.43.54.64.2.47.27.73.42.51.39.78-.44.42-.57.67Z" class="cls-5"/>
    <path d="M140.17 33.84c.23-.05.51.13.74.11s.49-.36.72-.35.47.25.7.3.56-.13.78-.04.44.28.65.39.19.59.38.73.71-.09.88.08-.1.73.04.92.64.14.76.35.35.4.44.62-.45.63-.4.86.52.39.53.63-.39.47-.4.7.37.52.33.75-.24.44-.32.66-.15.46-.26.67-.36.33-.5.52-.29.36-.46.53-.12.59-.31.74-.55.05-.76.17-.35.4-.57.49-.44.3-.67.35-.55-.37-.79-.35-.46.11-.7.1-.53.24-.76.19-.47-.21-.69-.29-.43-.26-.63-.37-.35-.34-.54-.48-.6-.06-.77-.22.12-.74-.02-.93-.7-.1-.82-.31-.12-.49-.21-.71.14-.53.09-.76-.5-.41-.52-.64.34-.48.36-.72-.24-.51-.2-.74.18-.46.26-.68.46-.3.57-.51.1-.47.24-.66.3-.35.47-.52.19-.51.37-.66.42-.26.63-.37.57.13.79.04.32-.53.56-.59Z" class="cls-9"/>
    <path d="M137.97 37.14c.27-.06.6.37.85.41s.45.17.68.32.77.01.92.23.3.58.36.85-.05.64-.09.9-.62.31-.76.53-.17.42-.39.58-.36.33-.63.39-.56.43-.82.39-.63-.16-.85-.3-.19-.63-.34-.85-.47-.37-.53-.64-.14-.6-.09-.86.54-.36.68-.59.12-.56.34-.72.4-.57.67-.63Z" class="cls-5"/>
</svg>
