<svg id="accessories" xmlns="http://www.w3.org/2000/svg" viewBox="0 0 300 300">
    <path stroke-width="0" fill="none" d="M0 0h300v300H0z"/>
    <path fill="#ffd371" stroke-width="0"
          d="m46.33 26.43 5.72 45.88c.12.96 1.16 1.51 2.01 1.07l28.18-14.44c.86-.44 1.02-1.6.31-2.26l-33.9-31.44c-.95-.88-2.49-.1-2.33 1.19l5.72 45.88c.12.96 1.16 1.51 2.01 1.07l28.18-14.44c.86-.44 1.02-1.6.31-2.26l-33.9-31.44c-.95-.88-2.49-.1-2.33 1.19Z"/>
    <path stroke-width="0"
          fill="#f7f7f7"
          d="M84.91 64.54c-.42.22-.58-.07-1 .16s-.1.82-.52 1.04-.8-.47-1.22-.25-.03.96-.45 1.18-.62-.14-1.04.09-.37.32-.79.55-.44.19-.86.41-.63-.17-1.05.06-.46.15-.88.37-.26.53-.68.76-.37.32-.79.55-.41.24-.84.46-.25.55-.67.78-.66-.21-1.08.01-.56-.03-.98.19-.29.47-.72.69-.42.23-.84.45-.13.78-.55 1-.78-.44-1.2-.22-.3.45-.72.67-.43.2-.85.43-.51.06-.93.29-.4.26-.83.49-.34.37-.77.6-.47.14-.89.37-.23.58-.66.81-.6-.1-1.02.12-.58-.07-1 .16-.37.32-.79.54-.4.28-.82.5-.23.6-.65.83-.61-.11-1.03.12-.4.27-.83.5c-.29.16-.33.92-.63 1.03s-.87-.64-1.18-.57-.57.45-.89.47-.61-.43-.93-.46-.58-.05-.9-.12-.65.07-.95-.04-.72.03-1-.13-.53-.39-.79-.59-.34-.57-.57-.8-.4-.47-.59-.73-.29-.54-.44-.83l-.54.29c-.16-.29.41-.89.3-1.19s-.28-.54-.35-.85-.73-.56-.75-.88.59-.64.62-.96-.02-.62.05-.94.28-.55.39-.85-.42-.91-.26-1.2.35-.61.55-.87.78-.2 1.02-.43.67-.15.94-.34.26-.74.55-.9c.42-.22.34-.37.76-.59s.28-.5.7-.72.67.25 1.1.02.25-.56.67-.78.73.35 1.15.12.48-.12.9-.35.02-.97.45-1.19.58.08 1-.15.35-.35.77-.58.35-.36.77-.59.68.26 1.1.04.51-.06.93-.29.43-.21.85-.43.39-.28.81-.51.07-.88.5-1.1.54 0 .96-.23.41-.25.83-.47.59.09 1.01-.13.38-.31.8-.54.4-.27.82-.49.21-.62.63-.85.65.21 1.07-.02.51-.07.93-.29.22-.61.64-.83.68.26 1.1.03.07-.88.5-1.11.76.4 1.18.17.34-.38.76-.6.21-.62.64-.84.5-.08.93-.3.53-.03.96-.25.25-.56.68-.78.55 0 .98-.22c.29-.16.68-.03.98-.14s.56-.29.88-.36.62-.11.94-.13.64-.19.96-.16.61.25.92.32.53.35.83.47.82-.25 1.1-.1.56.37.82.56.35.58.58.82.27.58.46.85.5.42.65.71l.27-.15c.16.29.22.64.33.94s.58.56.65.88-.7.77-.68 1.09.79.67.77.99-.76.56-.83.87.24.75.13 1.05-.46.51-.62.8 0 .81-.2 1.07-1.01-.03-1.25.2-.06.9-.33 1.1-.65.21-.94.36Z"/>
    <path stroke="#efefef"
          stroke-miterlimit="10"
          stroke-width="3px"
          fill="none"
          d="M84.91 64.54c-.42.22-.58-.07-1 .16s-.1.82-.52 1.04-.8-.47-1.22-.25-.03.96-.45 1.18-.62-.14-1.04.09-.37.32-.79.55-.44.19-.86.41-.63-.17-1.05.06-.46.15-.88.37-.26.53-.68.76-.37.32-.79.55-.41.24-.84.46-.25.55-.67.78-.66-.21-1.08.01-.56-.03-.98.19-.29.47-.72.69-.42.23-.84.45-.13.78-.55 1-.78-.44-1.2-.22-.3.45-.72.67-.43.2-.85.43-.51.06-.93.29-.4.26-.83.49-.34.37-.77.6-.47.14-.89.37-.23.58-.66.81-.6-.1-1.02.12-.58-.07-1 .16-.37.32-.79.54-.4.28-.82.5-.23.6-.65.83-.61-.11-1.03.12-.4.27-.83.5c-.29.16-.33.92-.63 1.03s-.87-.64-1.18-.57-.57.45-.89.47-.61-.43-.93-.46-.58-.05-.9-.12-.65.07-.95-.04-.72.03-1-.13-.53-.39-.79-.59-.34-.57-.57-.8-.4-.47-.59-.73-.29-.54-.44-.83l-.54.29c-.16-.29.41-.89.3-1.19s-.28-.54-.35-.85-.73-.56-.75-.88.59-.64.62-.96-.02-.62.05-.94.28-.55.39-.85-.42-.91-.26-1.2.35-.61.55-.87.78-.2 1.02-.43.67-.15.94-.34.26-.74.55-.9c.42-.22.34-.37.76-.59s.28-.5.7-.72.67.25 1.1.02.25-.56.67-.78.73.35 1.15.12.48-.12.9-.35.02-.97.45-1.19.58.08 1-.15.35-.35.77-.58.35-.36.77-.59.68.26 1.1.04.51-.06.93-.29.43-.21.85-.43.39-.28.81-.51.07-.88.5-1.1.54 0 .96-.23.41-.25.83-.47.59.09 1.01-.13.38-.31.8-.54.4-.27.82-.49.21-.62.63-.85.65.21 1.07-.02.51-.07.93-.29.22-.61.64-.83.68.26 1.1.03.07-.88.5-1.11.76.4 1.18.17.34-.38.76-.6.21-.62.64-.84.5-.08.93-.3.53-.03.96-.25.25-.56.68-.78.55 0 .98-.22c.29-.16.68-.03.98-.14s.56-.29.88-.36.62-.11.94-.13.64-.19.96-.16.61.25.92.32.53.35.83.47.82-.25 1.1-.1.56.37.82.56.35.58.58.82.27.58.46.85.5.42.65.71l.27-.15c.16.29.22.64.33.94s.58.56.65.88-.7.77-.68 1.09.79.67.77.99-.76.56-.83.87.24.75.13 1.05-.46.51-.62.8 0 .81-.2 1.07-1.01-.03-1.25.2-.06.9-.33 1.1-.65.21-.94.36Z"/>
    <path stroke-width="0"
          fill="#f7f7f7"
          d="M52.31 20.84c.21.23-.17 1 0 1.29.16.28 1.02.23 1.15.55s-.05.74.04 1.07-.45.73-.41 1.06.14.59.13.92.5.68.44 1.01-.61.5-.72.81.06.71-.12.99-.19.71-.43.94-.52.46-.82.64-.67.15-.94.31-.39.64-.67.8-.69.11-.98.24-.82-.28-1.11-.17c-.31.12-.33 1.13-.63 1.2-.32.08-.78-.7-1.1-.68s-.65.63-.97.59-.52-.54-.83-.66c-.28-.11-.68-.03-.96-.22-.25-.17-.12-.79-.37-1.02s-.39-.43-.59-.68-.57-.34-.73-.61-.07-.63-.18-.93-.97-.36-1.05-.67.4-.73.37-1.05-.31-.63-.29-.95-.01-.66.05-.98.06-.68.16-.98.92-.28 1.07-.57-.52-1.07-.33-1.34.69-.31.91-.55.85.05 1.09-.13c.26-.19.41-.38.69-.52s.35-.75.64-.85.67.16.98.11.59-.29.91-.29.62.09.93.13.65-.1.96-.03.68-.06.98.04.39.78.68.9.63.09.91.22.84-.1 1.11.05Z"/>
    <path stroke="#efefef"
          stroke-miterlimit="10"
          stroke-width="3px"
          fill="none"
          d="M52.31 20.84c.21.23-.17 1 0 1.29.16.28 1.02.23 1.15.55s-.05.74.04 1.07-.45.73-.41 1.06.14.59.13.92.5.68.44 1.01-.61.5-.72.81.06.71-.12.99-.19.71-.43.94-.52.46-.82.64-.67.15-.94.31-.39.64-.67.8-.69.11-.98.24-.82-.28-1.11-.17c-.31.12-.33 1.13-.63 1.2-.32.08-.78-.7-1.1-.68s-.65.63-.97.59-.52-.54-.83-.66c-.28-.11-.68-.03-.96-.22-.25-.17-.12-.79-.37-1.02s-.39-.43-.59-.68-.57-.34-.73-.61-.07-.63-.18-.93-.97-.36-1.05-.67.4-.73.37-1.05-.31-.63-.29-.95-.01-.66.05-.98.06-.68.16-.98.92-.28 1.07-.57-.52-1.07-.33-1.34.69-.31.91-.55.85.05 1.09-.13c.26-.19.41-.38.69-.52s.35-.75.64-.85.67.16.98.11.59-.29.91-.29.62.09.93.13.65-.1.96-.03.68-.06.98.04.39.78.68.9.63.09.91.22.84-.1 1.11.05Z"/>
</svg>
