<?xml version="1.0" encoding="UTF-8"?>
<svg id="_層_1" xmlns="http://www.w3.org/2000/svg" viewBox="0 0 300 300">
    <path d="M76.15,49.76c-1.03-1.4-.75-1.77-.32-3.86,.2-.98,1.39-1.95,1.77-3.19,.32-1.03,.6-2.19,1.08-3.33,.43-1.02,1.39-1.86,1.97-2.91,.54-.98,0-2.76,.7-3.73,.65-.92,3.3-.26,4.11-1.13,.76-.83,1.05-2.03,1.96-2.79,.86-.72,.94-2.61,1.95-3.25,.95-.6,2.08-1.18,3.16-1.68,1.02-.47,2.78,.92,3.93,.56,1.06-.34,2.04-.76,3.22-1,1-.2,2.07-.66,3.33-.88,1.05-.18,2.2-.24,3.42-.42,1.08-.16,2.22-.24,3.42-.4,1.1-.15,2.06-1.64,3.25-1.78,1.11-.14,2.26-.25,3.44-.38,1.12-.13,2.44,1.45,3.62,1.33s2.15-1.35,3.32-1.46,2.35,.72,3.52,.63,2.13-2.11,3.29-2.2,2.3-.1,3.46-.18,2.39,1.42,3.55,1.35,2.25-.8,3.41-.85,2.31,.39,3.47,.34,2.31,.65,3.47,.62,2.28-.43,3.44-.45,2.28-1.09,3.44-1.1,2.31-.9,3.46-.9,2.32-.05,3.47-.04,2.26,2.26,3.41,2.29,2.39-2.44,3.54-2.4,2.27,1.21,3.42,1.27,2.29,.39,3.44,.47,2.24,.94,3.38,1.04,2.36-.43,3.5-.32,2.51-1.46,3.65-1.32,2.03,2.37,3.16,2.53,2.52-1.07,3.65-.88,2.12,1.38,3.23,1.61,2.46-.36,3.57-.1,2.2,.88,3.29,1.17,2.04,1.32,3.13,1.66,2.65-.5,3.71-.11,1.84,1.76,2.87,2.21,1.79,1.6,2.79,2.13c1.05,.55,2.44,.4,3.39,1.01,1,.64,2.42,.73,3.3,1.44,.92,.74,1.32,2.11,2.09,2.93s2.19,.97,2.83,1.91c1.28,1.12-.45,1.84,.65,3.86,.44,.8,2.47,1.19,2.84,2.52,.27,.95-1.66,2.48-1.48,3.75,.14,1.02,1.21,1.98,1.27,3.22,.05,1.05,0,2.15-.03,3.38-.03,1.07,.67,2.24,.57,3.45-.08,1.02-1.55,1.11-2.74,1.85-.81,.5-.99,3.01-2.25,3.4-.98,.3-2.22,.63-3.44,.86-1.04,.19-2.36-.55-3.56-.4-1.07,.13-2.35-1.39-3.53-1.29-1.08,.09-2.19-.08-3.37-.02-1.09,.06-2.15,1.5-3.32,1.54-1.1,.03-2.22,1.55-3.38,1.57s-2.26-1.01-3.41-1.01-2.25,.35-3.41,.33-2.25-.22-3.4-.25-2.25-.21-3.4-.25-2.18-1.8-3.33-1.85-2.23-.26-3.38-.32-2.26,.13-3.4,.07-2.28,.35-3.42,.28-2.36,1.44-3.49,1.37-2.3,.39-3.43,.31-2.17-1.33-3.31-1.41-2.14-1.62-3.28-1.71-2.41,1.67-3.54,1.57-2.29,.12-3.42,.02-2.06-2.41-3.19-2.51-2.43,1.7-3.56,1.59-2.06-2.39-3.18-2.5-2.55,2.78-3.68,2.67-2-2.86-3.12-2.97-2.35,.64-3.47,.52-2.32,.27-3.44,.15-2.21-.72-3.33-.84-2.43,1.23-3.55,1.11-2.17-1.1-3.29-1.23-2.29-.08-3.4-.21-2.31,.09-3.43-.04-2.23-.57-3.35-.7-2.18-1.06-3.28-1.19-2.37,.55-3.48,.42-2.02-2.35-3.12-2.48-2.52,1.61-3.61,1.47c-1.16-.15-2.12-1.59-3.21-1.73-1.16-.15-2.56,1.78-3.64,1.64-1.17-.15-2.05-2.16-3.13-2.3-1.19-.16-2.25-.76-3.31-.9-1.22-.17-2.63,1.74-3.65,1.6-1.3-.18-2.25-1.6-3.19-1.74-2.17-.3-2.66,1.29-3.67-.07Z"
          style="fill:#75000f;"/>
    <path d="M63.96,67s-19.82,1.56-24.99-14.4c0,0-11.37,1.33-11.37,11.08,0,9.75,11.97,23.16,21.28,26.43,9.31,3.27,15.08-23.11,15.08-23.11Z"
          style="fill:#75000f;"/>
    <g>
        <path d="M7.05,53.28c0,1.1-.17,2.24,.01,3.29s.77,2.08,1.14,3.09,.61,2.14,1.15,3.08,1.47,1.65,2.16,2.47,1.44,1.61,2.27,2.31,1.75,1.26,2.69,1.8,1.75,1.41,2.77,1.78,2.12,.63,3.2,.82,2.19,.1,3.29,.1,2.2-.15,3.25-.34,2.16-.44,3.16-.8,2.01-.87,2.94-1.41,1.98-1.02,2.8-1.71,1.63-1.5,2.33-2.33,1.33-1.77,1.87-2.71,.94-1.99,1.31-3.01,.3-2.15,.49-3.23,.29-2.1,.29-3.2c0-1.1,.26-2.22,.08-3.27s-.43-2.18-.8-3.18-.83-2.06-1.37-2.99-1.24-1.83-1.93-2.66-1.47-1.65-2.3-2.34-1.76-1.32-2.7-1.87-2.09-.63-3.12-1-1.95-1.09-3.02-1.28-2.18-.2-3.28-.2-2.12,.64-3.17,.83-2.26-.07-3.26,.29-1.9,1.08-2.83,1.62-2.01,.94-2.83,1.63-1.57,1.54-2.26,2.37-1.17,1.83-1.71,2.77-.82,1.97-1.19,3-.49,2.04-.68,3.12-.73,2.06-.73,3.16Zm12.24-1.87c.76-1.1,.98-.95,1.74-2.05s.51-1.28,1.27-2.38c.53-.77,1.33-.97,2.18-1.12s1.73-.33,2.49,.2c1.1,.76,1.09,.78,2.19,1.54s1.14,.7,2.25,1.46c.77,.53,.84,1.45,1,2.3s.08,1.51-.45,2.27c-.76,1.1-.61,1.21-1.37,2.31s-.71,1.13-1.47,2.24c-.53,.77-1.27,1.17-2.12,1.32s-1.68,.04-2.45-.48c-1.1-.76-.98-.93-2.09-1.69s-1.11-.76-2.21-1.51c-.77-.53-1.14-1.12-1.3-1.97s-.2-1.66,.33-2.43Z"
              style="fill:#f8c100;"/>
        <path d="M7.05,53.28c0,1.1-.17,2.24,.01,3.29s.77,2.08,1.14,3.09,.61,2.14,1.15,3.08,1.47,1.65,2.16,2.47,1.44,1.61,2.27,2.31,1.75,1.26,2.69,1.8,1.75,1.41,2.77,1.78,2.12,.63,3.2,.82,2.19,.1,3.29,.1,2.2-.15,3.25-.34,2.16-.44,3.16-.8,2.01-.87,2.94-1.41,1.98-1.02,2.8-1.71,1.63-1.5,2.33-2.33,1.33-1.77,1.87-2.71,.94-1.99,1.31-3.01,.3-2.15,.49-3.23,.29-2.1,.29-3.2c0-1.1,.26-2.22,.08-3.27s-.43-2.18-.8-3.18-.83-2.06-1.37-2.99-1.24-1.83-1.93-2.66-1.47-1.65-2.3-2.34-1.76-1.32-2.7-1.87-2.09-.63-3.12-1-1.95-1.09-3.02-1.28-2.18-.2-3.28-.2-2.12,.64-3.17,.83-2.26-.07-3.26,.29-1.9,1.08-2.83,1.62-2.01,.94-2.83,1.63-1.57,1.54-2.26,2.37-1.17,1.83-1.71,2.77-.82,1.97-1.19,3-.49,2.04-.68,3.12-.73,2.06-.73,3.16Zm12.24-1.87c.76-1.1,.98-.95,1.74-2.05s.51-1.28,1.27-2.38c.53-.77,1.33-.97,2.18-1.12s1.73-.33,2.49,.2c1.1,.76,1.09,.78,2.19,1.54s1.14,.7,2.25,1.46c.77,.53,.84,1.45,1,2.3s.08,1.51-.45,2.27c-.76,1.1-.61,1.21-1.37,2.31s-.71,1.13-1.47,2.24c-.53,.77-1.27,1.17-2.12,1.32s-1.68,.04-2.45-.48c-1.1-.76-.98-.93-2.09-1.69s-1.11-.76-2.21-1.51c-.77-.53-1.14-1.12-1.3-1.97s-.2-1.66,.33-2.43Z"
              style="fill:none; stroke:#eda100; stroke-miterlimit:10; stroke-width:3.52px;"/>
    </g>
    <path d="M236.87,67s19.82,1.56,24.99-14.4c0,0,11.37,1.33,11.37,11.08s-11.97,23.16-21.28,26.43c-9.31,3.27-15.08-23.11-15.08-23.11Z"
          style="fill:#75000f;"/>
    <path d="M44.12,101.6c-.37-1.67,.33-1.44,.34-3.61,0-.97,1.1-2.06,1.2-3.37,.08-1.04-.72-2.27-.55-3.49,.15-1.07-.6-2.4-.36-3.58,.22-1.07,2.54-1.71,2.85-2.86,.28-1.07,1.23-1.9,1.6-3.02,.35-1.05-1.98-3.12-1.55-4.21,.41-1.03,4.02-.68,4.52-1.74s-1.4-3.19-.83-4.22,2.81-.94,3.43-1.93-.66-3.15,.02-4.1,2.53-.93,3.26-1.84-.36-3.32,.42-4.19,1.71-1.62,2.54-2.44,3.86,.81,4.74,.04,1.37-1.78,2.27-2.51,.08-3.64,1.03-4.32,2.28-.79,3.25-1.43,1.95-1.23,2.95-1.83,2.41-.38,3.43-.94,1.24-2.6,2.29-3.11,2.51-.08,3.58-.56,2.62,.36,3.69-.08,1.89-1.37,2.98-1.77,1.63-2.26,2.73-2.63,2.26-.51,3.37-.85,2.71,1.2,3.84,.9,2.42,.43,3.55,.15,1.99-1.31,3.12-1.56,1.87-2.12,3.01-2.35,2.31-.03,3.46-.23,2.12-1.22,3.26-1.39,2.26-.41,3.41-.56,2.67,3.08,3.82,2.95,2.16-.86,3.32-.97,2.26,.12,3.42,.02,2.01-3.63,3.17-3.71,2.48,3.43,3.64,3.37,2.15-2.76,3.3-2.8,2.31,.96,3.47,.93,2.31,.8,3.47,.79c1.72-.06,1.21-.68,3.42-.73,.97-.02,2.13,1.55,3.45,1.54,1.05,0,2.19-1.78,3.43-1.77,1.08,0,2.2,1.53,3.41,1.56,1.1,.02,2.29-1.97,3.49-1.92,1.11,.04,2.25,.26,3.44,.31,1.12,.05,2.29-.29,3.47-.22s2.08,2.7,3.25,2.79,2.26-.03,3.42,.08,2.35-.85,3.51-.73,2.3-.07,3.45,.07,2.23,.53,3.38,.68,2.29,.12,3.43,.3,2.04,1.57,3.18,1.77,2.23,.37,3.36,.59,2.24,.32,3.37,.56,2.32,.03,3.44,.3,2.76-1.48,3.87-1.18,2.22,.72,3.31,1.06,1.56,2.67,2.64,3.03,2.03,1.04,3.1,1.44,2.03,.96,3.09,1.41,2.18,.62,3.21,1.11,1.94,1.13,2.94,1.67,2.01,.97,2.99,1.56,3.25-.77,4.18-.12,.26,3.44,1.14,4.16,2.01,1.04,2.84,1.82,3.98-.56,4.73,.3-1.05,3.82-.38,4.75,2.58,1.03,3.15,2.03-.47,2.73-.02,3.79,1.19,1.87,1.52,2.98,1.63,1.85,1.84,3c.82,1.45,1.77,.15,3.08,1.72,.61,.74,2.07,1.23,2.78,2.26,.59,.85-.16,2.78,.42,3.8,.52,.93,2.05,1.52,2.52,2.57,.44,.99-.33,2.58,0,3.67s.77,2.12,.97,3.24-.38,2.27-.33,3.4,1.96,2.36,1.84,3.49c-.11,1.07-3.71,1.55-4,2.66-.26,1.04,.34,2.21-.1,3.28-.4,.99,.97,2.91,.4,3.92-.52,.93-1.22,1.96-1.9,2.89-.62,.87-3.43,.04-4.19,.91-.7,.8-1.23,1.68-2.06,2.48"
          style="fill:#f33600;"/>
    <g style="opacity:.44;">
        <path d="M130.46,32.55c-1.69,.38-1.17,.39-3.24,1.12-.92,.33-2.12,.44-3.35,.92-.99,.39-2.23,.43-3.38,.92-1,.43-1.89,1.31-2.99,1.82-1.01,.47-1.89,1.28-2.97,1.82-1,.5-1.97,1.13-3.01,1.7s-2.23,.69-3.25,1.29-2,1.13-2.99,1.76-1.92,1.27-2.88,1.93-1.77,1.48-2.7,2.18-2.32,.79-3.22,1.53-1.77,1.52-2.64,2.3-1.3,2.01-2.12,2.83-1.5,1.75-2.28,2.61-1.57,1.68-2.3,2.58-1.42,1.81-2.09,2.76-1.37,1.85-1.98,2.84-1.67,1.73-2.21,2.76-.24,2.44-.69,3.51-1.26,1.98-1.63,3.08-.5,2.25-.78,3.39-.82,2.18-1.01,3.34-.15,2.32-.24,3.5c.57,1.41,.98,1.31,2.39,1.95,.88,.4,2.14,.78,3.17,.4,.76-.29,1.4-1.25,2.09-2.36,.41-.66,.53-1.82,.83-3.31,.2-.98,.07-2.18,.32-3.44,.21-1.04,.39-2.2,.68-3.4,.26-1.05,1.14-2.02,1.5-3.17,.33-1.05,.8-2.09,1.24-3.2,.41-1.03,.68-2.16,1.2-3.23,.49-1,1.34-1.83,1.94-2.85,.57-.96,.53-2.36,1.21-3.33,.64-.91,1.63-1.63,2.39-2.54,.71-.86,1.61-1.6,2.43-2.45,.77-.8,1.88-1.29,2.75-2.08,.83-.75,1.21-2.06,2.14-2.79,.88-.69,2.09-.98,3.06-1.66,.92-.64,1.55-1.78,2.55-2.39,.95-.58,2.44-.3,3.47-.86,.98-.54,1.88-1.24,2.94-1.76s1.88-1.32,2.96-1.79,2-1.11,3.1-1.54,2.23-.53,3.34-.92,2.2-.58,3.32-.93,2.22-.47,3.35-.79,1.78-1.21,2.92-1.49c.97-1.22,1.2-2.09-.12-2.97-.57-.38-1.71,.13-3.23,.4Z"
              style="fill:#75000f;"/>
    </g>
    <g style="opacity:.44;">
        <path d="M145.7,36.28c-1.4,1.03-.93,.86-2.64,2.27-.76,.62-1.58,1.44-2.56,2.35-.78,.72-1.57,1.56-2.45,2.46-.77,.79-1.92,1.3-2.73,2.22-.74,.84-1.16,1.99-1.91,2.94-.7,.88-1.4,1.79-2.1,2.77-.66,.92-1.99,1.43-2.64,2.43s-.36,2.47-.95,3.51-1.37,1.86-1.91,2.92-1.15,2-1.63,3.08-.84,2.14-1.26,3.25-.67,2.2-1.04,3.32-1.33,2.02-1.64,3.16-.12,2.35-.36,3.51-.25,2.3-.43,3.47-.52,2.26-.64,3.43-.38,2.29-.45,3.47-.06,2.42-.07,3.6c1,1.23,1.57,.9,3.15,1.04,1.09,.1,2.56-.13,3.29-.85,.3-.3,.77-1.68,1-3.49,.13-.95-.38-2.17-.21-3.44,.13-1.03,.68-2.09,.86-3.29,.16-1.06-.05-2.24,.17-3.4,.2-1.07,.35-2.2,.6-3.34,.24-1.07,.87-2.08,1.17-3.2s.59-2.15,.93-3.24,.22-2.3,.62-3.37,.71-2.15,1.17-3.2,1.45-1.81,1.97-2.82,1.41-1.76,1.99-2.74,1.1-1.92,1.75-2.85,.96-2.06,1.68-2.95,1.58-1.58,2.36-2.41,1.44-1.71,2.29-2.48,1.72-1.43,2.62-2.13,1.7-1.43,2.67-2.06c.79-1.65,.48-2.21,.14-3.63-.28-1.13-1.07-1.71-2.85-.31Z"
              style="fill:#75000f;"/>
    </g>
    <g style="opacity:.44;">
        <path d="M175.95,32.13c1.69,.38,1.01,1,3.08,1.73,.92,.33,2.11,.46,3.34,.94,.99,.39,2.31,.23,3.46,.72,1,.43,1.72,1.68,2.82,2.19,1.01,.47,2.38,.29,3.45,.83,1,.5,1.94,1.23,2.98,1.8s1.77,1.51,2.79,2.11,2.37,.51,3.37,1.14,1.61,1.74,2.58,2.4,2.07,1.06,3.01,1.76,1.53,1.78,2.43,2.52,2.07,1.12,2.93,1.9,1.64,1.63,2.46,2.45,1.37,1.87,2.15,2.73,1.93,1.38,2.66,2.29,1.54,1.75,2.21,2.7,.68,2.31,1.28,3.31,1.52,1.78,2.05,2.81,.81,2.15,1.27,3.23,1.36,1.95,1.73,3.06-.07,2.41,.21,3.54,1.54,2.04,1.72,3.2,.2,2.54,.29,3.71c-.57,1.41-1.47,.93-2.88,1.57-.88,.4-1.75,.21-2.78-.18-.76-.29-1.6-.52-2.29-1.62-.41-.66-1.03-1.68-1.32-3.17-.2-.98-.25-2.14-.5-3.41-.21-1.04-.46-2.16-.75-3.35-.26-1.05-.87-2.06-1.24-3.21-.33-1.05,.12-2.43-.32-3.54-.41-1.03-1.74-1.69-2.26-2.76-.49-1-.09-2.52-.69-3.54-.57-.96-1.41-1.82-2.09-2.79-.64-.91-1.62-1.61-2.38-2.53-.71-.86-1.24-1.93-2.06-2.78-.77-.8-1.93-1.26-2.81-2.05-.83-.75-1.33-1.94-2.25-2.67-.88-.69-2.35-.62-3.32-1.3-.92-.64-1.83-1.28-2.83-1.9-.95-.58-1.81-1.35-2.84-1.92-.98-.54-1.94-1.15-3-1.67s-2.01-1.05-3.09-1.52-2.22-.53-3.32-.95-1.82-1.61-2.93-2-2.28-.37-3.4-.72-2.32-.15-3.45-.46-1.98-1.14-3.12-1.43c-.97-1.22-.66-1.81,.66-2.69,.57-.38,1.49-.75,3.01-.48Z"
              style="fill:#75000f;"/>
    </g>
    <g style="opacity:.44;">
        <path d="M160.49,36.45c1.4,1.03,.87,.92,2.58,2.32,.76,.62,2.26,.69,3.24,1.59,.78,.72,1.62,1.56,2.5,2.46,.77,.79,1.24,1.94,2.06,2.86,.74,.84,1.95,1.35,2.71,2.3,.7,.88,1.36,1.87,2.06,2.85,.66,.92,.91,2.17,1.55,3.18s1.06,2.04,1.65,3.07,1.49,1.81,2.02,2.87,.49,2.31,.97,3.4,1.68,1.81,2.1,2.91-.07,2.47,.29,3.59,.78,2.15,1.08,3.3,1.35,2.05,1.59,3.21,.07,2.35,.25,3.52-.06,2.33,.06,3.51,.82,2.25,.88,3.44-.47,2.11-.46,3.29c-1,1.23-1.25,.39-2.83,.53-1.09,.1-2.21,.43-2.94-.3-.3-.3-.37-1.49-.61-3.3-.13-.95,.14-2.13-.03-3.41-.13-1.03-1.13-2.03-1.31-3.23-.16-1.06-.18-2.19-.4-3.36-.2-1.07,.07-2.28-.19-3.42-.24-1.07-.69-2.13-.99-3.25s-.54-2.18-.89-3.27-.91-2.06-1.31-3.13-1.32-1.87-1.78-2.92-.25-2.36-.77-3.37-1.44-1.77-2.02-2.75-1.07-1.97-1.72-2.9-1.01-2.05-1.73-2.94-1.37-1.82-2.15-2.65-1.97-1.21-2.81-1.97-1.84-1.25-2.75-1.95-1.36-1.76-2.32-2.38c-.79-1.65-.66-2.15-.31-3.57,.28-1.13,.96-1.53,2.75-.14Z"
              style="fill:#75000f;"/>
    </g>
    <path d="M51.99,73.42c.99,.22,2.36-.71,3.6-.45,1.04,.22,1.64,2.98,2.85,3.23,1.06,.21,2.33-.27,3.52-.04,1.08,.21,2.44-.83,3.62-.61,1.09,.2,2.4-.64,3.57-.43,1.09,.2,2.24,.26,3.4,.46,1.1,.19,2.23,.3,3.39,.49s1.63,4.03,2.79,4.22,2.5-1.24,3.65-1.06,2.18,.8,3.33,.98,2.6-2.06,3.75-1.9,1.75,3.89,2.9,4.05,2.65-2.58,3.8-2.43,2.28,.09,3.43,.23,2.23,.5,3.38,.64,2.34-.39,3.49-.25,2.22,.59,3.37,.72,2.22,.67,3.37,.79,2.25,.36,3.41,.47,2.09,2.16,3.24,2.27,2.29,.08,3.44,.18,2.29,.11,3.44,.21,2.27,.31,3.43,.4,2.32-.36,3.48-.28,2.18,1.82,3.33,1.9,2.37-1.13,3.52-1.06,2.25,.86,3.4,.92,2.37-1.51,3.52-1.46,2.21,1.89,3.36,1.94,2.37-1.9,3.52-1.86,2.3-.39,3.45-.36,2.21,3.24,3.37,3.26,2.35-3.03,3.5-3.01,2.27,1.04,3.42,1.05,2.29,1.42,3.44,1.42,2.28-3.25,3.43-3.25,2.3,1.39,3.45,1.37,2.31,.96,3.46,.94,2.24-2.22,3.39-2.25,2.32,1.05,3.47,1.01,2.23-1.65,3.38-1.7,2.29,.24,3.44,.19,2.4,2.08,3.55,2.02,2.21-1.44,3.36-1.51,2.32,.4,3.47,.32,2.26-.52,3.41-.61,2.51,2.35,3.65,2.25,2.03-3.08,3.17-3.19,2.41,1.02,3.55,.9,2.45,1.24,3.6,1.11,2.02-2.56,3.16-2.69,2.23-.62,3.37-.77,2.47,1.13,3.61,.97,2.05-1.86,3.19-2.03,2.34,.16,3.48-.02,2.45,.7,3.58,.51,2.1-1.33,3.23-1.53,2.07-1.39,3.2-1.6,2.67,1.69,3.8,1.47c1.03-.21,1.52,.48,2.48,.68s3.06-2.05,3.88-1.47-1.15,3.55-.63,4.43,3.25,.64,3.37,1.68-1.84,2.25-1.85,3.47c-.01,1.09,2.23,2.36,2.07,3.54-.15,1.08-1.86,1.92-2.17,3.07-.28,1.06,1.66,2.99,1.22,4.09-.41,1.02-1.12,2.16-1.7,3.21-.53,.96-3.97,.17-4.65,1.15-.63,.9-.87,1.97-1.65,2.88-.71,.84,.61,3.65-.24,4.48-1.17,1.16-3.76,1.64-5.4,1.81-.9,.09-2.05,.19-3.42,.32-1.02,.1-2.24-.7-3.5-.58-1.06,.09-2.05,1.95-3.27,2.05-1.08,.09-2.31-.85-3.51-.76-1.09,.09-2.34-1.23-3.53-1.14-1.1,.08-2.2,.75-3.38,.83-1.11,.08-2.14,1.76-3.32,1.84-1.11,.07-2.27-.07-3.44,0s-2.37-1.83-3.54-1.77-2.31-.94-3.48-.88-2.22,.94-3.38,.99-2.19,1.83-3.35,1.88-2.29-.32-3.45-.27-2.24,.95-3.4,.99-2.27,.15-3.43,.18-2.37-3.41-3.53-3.38-2.25,.69-3.41,.71-2.28-.29-3.43-.26-2.22,3.59-3.37,3.61-2.32-3.63-3.48-3.62-2.25,2.74-3.41,2.75-2.28-1.05-3.44-1.05-2.28-.86-3.43-.87-2.28,.63-3.43,.62-2.26-1.64-3.41-1.65-2.3,1.79-3.45,1.77-2.25-1.58-3.4-1.6-2.32,2.03-3.47,2-2.28-.23-3.42-.26-2.29,.35-3.44,.32-2.19-2.7-3.34-2.74-2.28,.12-3.43,.08-2.32,1-3.47,.95-2.29,.22-3.43,.16-2.26-.37-3.41-.43-2.29,.08-3.43,.02-2.2-1.39-3.34-1.46-2.27-.12-3.42-.19-2.28-.02-3.42-.1-2.31,.33-3.45,.24-2.45,1.98-3.6,1.88-2.27-.29-3.42-.39-2.08-2.33-3.22-2.44-2.24-.54-3.38-.65-2.25-.39-3.39-.51-2.3,.07-3.44-.06-2.24-.42-3.38-.55-2.28-.13-3.42-.27-2.57,2.15-3.71,2-1.92-2.97-3.05-3.12-2.33,.21-3.46,.05-2.74,2.94-3.87,2.77-1.77-3.63-2.9-3.8-2.51,1.24-3.64,1.06-1.98-2.08-3.11-2.27-2.32,.05-3.45-.14-2.45,.72-3.58,.52-2.46,.7-3.59,.48-3.32-.26-4.22-.95-.75-3.14-1.25-4.2c-.42-.91-1.95-1.64-2.38-2.83-.36-1,.54-2.57,.25-3.75-.26-1.06-.66-2.19-.82-3.37-.15-1.1,.48-2.31,.46-3.48-.02-1.11-1.96-2.44-1.84-3.6s3.81-1.61,4.09-2.75c.26-1.08-.36-2.29,.07-3.38s-.52-3.31,.32-4.04,2.42-1.53,3.54-1.81,2.61,.58,3.77,.83Z"
          style="fill:#f8c100;"/>
    <path d="M167.33,87.23c0,1.18,.02,2.31-.23,3.41s-.82,2.12-1.31,3.15-.75,2.24-1.47,3.13-1.81,1.43-2.71,2.15-1.71,1.54-2.75,2.05-2.12,.9-3.25,1.15-2.26,.51-3.43,.51-2.34-.23-3.44-.48-2.18-.77-3.21-1.26-2.05-1.06-2.95-1.77-1.75-1.51-2.47-2.41-1.48-1.82-1.98-2.86-.59-2.23-.85-3.36-.74-2.22-.74-3.4,.52-2.29,.77-3.39,.48-2.27,.97-3.3,1.06-2.07,1.78-2.97,1.72-1.52,2.62-2.24,1.83-1.34,2.87-1.84,2-1.26,3.13-1.52,2.31-.14,3.48-.14,2.33,.14,3.43,.39,2.17,.77,3.19,1.27,2.08,1,2.98,1.71,1.69,1.56,2.4,2.46,1.41,1.83,1.92,2.87,.71,2.17,.97,3.3,.27,2.22,.27,3.4Z"
          style="fill:#f8f000;"/>
    <path d="M161.29,87.23c0,.71,.01,1.39-.14,2.05s-.49,1.28-.79,1.89-.45,1.34-.88,1.88-1.09,.86-1.63,1.29-1.03,.93-1.65,1.23-1.27,.54-1.96,.69-1.36,.31-2.06,.31-1.41-.14-2.07-.29-1.31-.46-1.93-.76-1.23-.63-1.77-1.06-1.05-.91-1.49-1.45-.89-1.09-1.19-1.72-.35-1.34-.51-2.02-.44-1.34-.44-2.04,.31-1.38,.46-2.04,.29-1.37,.58-1.98,.64-1.25,1.07-1.78,1.03-.92,1.57-1.35,1.1-.81,1.72-1.11,1.2-.76,1.88-.91,1.39-.08,2.09-.08,1.4,.08,2.06,.23,1.3,.46,1.92,.76,1.25,.6,1.79,1.03,1.01,.94,1.44,1.48,.85,1.1,1.15,1.72,.43,1.3,.58,1.99,.16,1.34,.16,2.04Z"
          style="fill:#2f9b3b;"/>
    <g>
        <path d="M275.1,34.6c-1.1,0-2.24-.17-3.29,.01s-2.08,.77-3.09,1.14-2.14,.61-3.08,1.15-1.65,1.47-2.47,2.16-1.61,1.44-2.31,2.27-1.26,1.75-1.8,2.69-1.41,1.75-1.78,2.77-.63,2.12-.82,3.2-.1,2.19-.1,3.29,.15,2.2,.34,3.25,.44,2.16,.8,3.16,.87,2.01,1.41,2.94,1.02,1.98,1.71,2.8,1.5,1.63,2.33,2.33,1.77,1.33,2.71,1.87,1.99,.94,3.01,1.31,2.15,.3,3.23,.49,2.1,.29,3.2,.29,2.22,.26,3.27,.08,2.18-.43,3.18-.8,2.06-.83,2.99-1.37,1.83-1.24,2.66-1.93,1.65-1.47,2.34-2.3,1.32-1.76,1.87-2.7,.63-2.09,1-3.12,1.09-1.95,1.28-3.02,.2-2.18,.2-3.28-.64-2.12-.83-3.17,.07-2.26-.29-3.26-1.08-1.9-1.62-2.83-.94-2.01-1.63-2.83-1.54-1.57-2.37-2.26-1.83-1.17-2.77-1.71-1.97-.82-3-1.19-2.04-.49-3.12-.68-2.06-.73-3.16-.73Zm5.59,21.39c-1.1,.76-1.26,.53-2.36,1.29s-.93,1.01-2.03,1.77c-.77,.53-1.59,.43-2.44,.27s-1.73-.31-2.26-1.07c-.76-1.1-.73-1.12-1.49-2.22s-.82-1.06-1.58-2.17c-.53-.77-.27-1.65-.11-2.5s.46-1.44,1.23-1.96c1.1-.76,1-.91,2.1-1.67s1.07-.8,2.18-1.56c.77-.53,1.6-.64,2.45-.48s1.59,.56,2.11,1.33c.76,1.1,.59,1.22,1.35,2.33s.76,1.1,1.52,2.2c.53,.77,.67,1.45,.51,2.3s-.41,1.62-1.17,2.15Z"
              style="fill:#f8c100;"/>
        <path d="M275.1,34.6c-1.1,0-2.24-.17-3.29,.01s-2.08,.77-3.09,1.14-2.14,.61-3.08,1.15-1.65,1.47-2.47,2.16-1.61,1.44-2.31,2.27-1.26,1.75-1.8,2.69-1.41,1.75-1.78,2.77-.63,2.12-.82,3.2-.1,2.19-.1,3.29,.15,2.2,.34,3.25,.44,2.16,.8,3.16,.87,2.01,1.41,2.94,1.02,1.98,1.71,2.8,1.5,1.63,2.33,2.33,1.77,1.33,2.71,1.87,1.99,.94,3.01,1.31,2.15,.3,3.23,.49,2.1,.29,3.2,.29,2.22,.26,3.27,.08,2.18-.43,3.18-.8,2.06-.83,2.99-1.37,1.83-1.24,2.66-1.93,1.65-1.47,2.34-2.3,1.32-1.76,1.87-2.7,.63-2.09,1-3.12,1.09-1.95,1.28-3.02,.2-2.18,.2-3.28-.64-2.12-.83-3.17,.07-2.26-.29-3.26-1.08-1.9-1.62-2.83-.94-2.01-1.63-2.83-1.54-1.57-2.37-2.26-1.83-1.17-2.77-1.71-1.97-.82-3-1.19-2.04-.49-3.12-.68-2.06-.73-3.16-.73Zm5.59,21.39c-1.1,.76-1.26,.53-2.36,1.29s-.93,1.01-2.03,1.77c-.77,.53-1.59,.43-2.44,.27s-1.73-.31-2.26-1.07c-.76-1.1-.73-1.12-1.49-2.22s-.82-1.06-1.58-2.17c-.53-.77-.27-1.65-.11-2.5s.46-1.44,1.23-1.96c1.1-.76,1-.91,2.1-1.67s1.07-.8,2.18-1.56c.77-.53,1.6-.64,2.45-.48s1.59,.56,2.11,1.33c.76,1.1,.59,1.22,1.35,2.33s.76,1.1,1.52,2.2c.53,.77,.67,1.45,.51,2.3s-.41,1.62-1.17,2.15Z"
              style="fill:none; stroke:#eda100; stroke-miterlimit:10; stroke-width:3.52px;"/>
    </g>
</svg>
