<svg id="accessories" xmlns="http://www.w3.org/2000/svg" viewBox="0 0 300 300">
    <path stroke-width="0" fill="none" d="M1.21 1.21h297.58v297.58H1.21z"/>
    <path stroke-width="0" fill="#4c6e36" d="m265.07 25.41-1.96-1.88-3.66 1.46-2.73-3.45-8.34 6.33 1.23 1.56 6.85-5.96 2.37 2.9 3.99-1.76 2.08 1.2.08-.19 1.71-.26-1.62.05z"/>
    <path stroke-width="0" fill="#4c6e36"  d="m247.82 10.99-.09 4.64-2.94 4.82-3.07 4.59 5.06 1.86 5.3 1.54.19-5.67.19-5.71.12-1.34-3.01-5.83-.44-.46-3.74-.84-.19 2.32 2.62.08z"/>
    <path d="m245.4 8.59-.27 2.38.27-2.38Z" stroke-width="0" fill="#6c8142"/>
    <path stroke-width="0" fill="#e96c33" d="m216.54 84.47 10.56 2.57 10.06 3.78 3.95-6.21 4.78-5.32 3.14-6.39 2.5-6.65 2.37-6.67 2.71-6.61.86-7.09 1.42-6.95 1.09-7.17-5.89-4.89-6.74-3.28-7.37-1.39-7.02 1.43-3.65 5.92-3.01 6.4-3.35 6.29-1.8 6.89-2.17 6.75-1.05 7.01-.62 7.03-1.17 7.04.4 7.51z"/>
    <path stroke-width="0" fill="#e96c33"  d="m237.55 90.85 6.43 1.77h6.17l6.03.48 3.91-5.66 4.07-5.66 2.76-6.43 1.01-6.94 2-6.68.96-6.89.06-6.96.4-6.93h-.42l-3.73-5.37-7.31-2.46.06 7.27L258 47.1l-1.75 6.69-2.07 6.6-1.65 6.77-2.74 6.39-3.28 6.14-3.69 5.92-5.27 5.24zM198.61 73.9l-.34-6.58 1.23-6.75 1.56-6.65 2.72-6.28 2.08-6.55 3.47-5.91 3.46-5.9 4.03-5.69-7.19 1.33-5.2 4.85-4.75 5.33-3.38 6.34-2.52 6.74-1.28 6.88-.23 6.98 2.19 6.64 4.15 5.22z"/>
    <path stroke-width="0" fill="#e96c33"  d="m257.65 93 6.78-1.84 5.34-4.51 3.81-5.76 3.12-6.24 1.88-6.94.58-7.15-.26-7.09-2.02-6.71-4.39-5.23-.78 6.7.24 6.87-.78 6.82-1.94 6.59-1.6 6.65-2.6 6.34-3.38 5.93-4 5.57zM199.82 75.16l4.78 3.86 5.69 2.36 5.26 1.9.15-6.52.09-6.93.43-6.96 2.34-6.61 1.65-6.71 1.83-6.71 3.16-6.2 2.8-6.34 3.12-6.2-6.77-3.09-6.18 3.14-.81-.58-4.07 5.67-3.23 6.19-3.42 6.07-2.09 6.67-2.12 6.58-1.84 6.65-.73 6.85-.04 6.91z"/>
    <path stroke-width="0" fill="#e1602d" d="m199.15 74.06.34 1.1-.06-6.93.87-6.89 1.3-6.84 2.14-6.65 2.79-6.4 4-5.76 3.23-6.15 4.16-5.59-1.6-.67-3.73 5.88-2.94 6.2-3.97 5.64-2.48 6.41-2.07 6.52-1.97 6.57-.61 6.83.6 6.73zM216.02 83.67l1.13.35-1.26-7.06.66-7.1 1.36-6.97.94-7.04 2.16-6.76 2.62-6.59 2.37-6.69 3.46-6.19 2.73-6.47-.63 1.34-.52-.43-3.39 6.07-3.29 6.14-2.64 6.45-1.6 6.8-1.74 6.7-1.29 6.79-1.54 6.79v6.96l.47 6.91zM256.53 93.39l1.49-.03 3.6-5.95 3-6.09 2.57-6.3 2.12-6.49 1.23-6.72.59-6.8 1.47-6.74.09-6.92-1.61-.42.59 6.99-1.06 6.89-1.18 6.84-1.14 6.84-2.31 6.54-2.44 6.46-2.77 6.4-4.24 5.5zM236.88 90.29l1.47.74 4.47-5.42 3.57-5.99 2.92-6.3 2.84-6.31 2.82-6.37 1.36-6.83 1.35-6.79 1.25-6.79 1.31-6.8.04-.16-1-1.46-1.13 7.02-1.16 6.96-.52 7.15-2.08 6.8-3.09 6.42-2.81 6.47-3.47 6.14-3.41 6.21-4.73 5.31z"/>
    <g class="cls-8">
        <path stroke-width="0" fill="#fff" d="m222.67 23.88-2.02 6.92-5.73 3.68 2.06-6.85 5.69-3.75z"/>
    </g>
    <g class="cls-8">
        <path stroke-width="0" fill="#fff" d="m214.14 35.51-.61 3.91-3.32 2.06.57-3.96 3.36-2.01z"/>
    </g>
    <path stroke-width="0" fill="#3e2210" d="M237.25 55.23c.5.16 2.67 1.52 3.24-.25.56-1.77-.92-4.68-1.59-4.9s-3.57 1.3-4.14 3.07c-.56 1.77 2 1.92 2.49 2.08ZM227.09 44.8c2.4.77 7.14 7.08 8.53 2.72 1.39-4.36-1.1-11.91-5.18-13.21-4.09-1.31-10.49 3.41-11.88 7.76-1.39 4.36 6.13 1.96 8.53 2.72ZM251.58 52.62c2.4.77 7.14 7.08 8.53 2.72s-1.1-11.91-5.18-13.21c-4.09-1.31-10.49 3.41-11.88 7.76-1.39 4.36 6.13 1.96 8.53 2.72ZM230.39 76.74c25.83 8.24 29.76-11.59 29.76-11.59L236.5 57.6l-23.65-7.55s-8.29 18.44 17.54 26.69Z"/>
    <path stroke-width="0" fill="#4c6e36"  d="m251.35 60.77-1.44 6.2-5.29-1.69 2-5.04 4.73.53zM219.82 74.39l1.44-6.2 5.29 1.69-2 5.04-4.73-.53z"/>

</svg>
