<?xml version="1.0" encoding="UTF-8"?><svg id="accessories" xmlns="http://www.w3.org/2000/svg" viewBox="0 0 300 300"><defs><style>.cls-1{fill:none;}.cls-1,.cls-2,.cls-3,.cls-4,.cls-5{stroke-width:0px;}.cls-2{fill:#d3d3d4;}.cls-3{fill:#b3b4b5;}.cls-4{fill:#e8e8e8;}.cls-5{fill:#e4e4e5;}</style></defs><g id="component_8"><path class="cls-4" d="m140.16.03c-1.19,1.05-.03,1.56-.03,3.14s-.04,1.59-.04,3.17.05,1.59.05,3.17-.05,1.59-.05,3.17.13,1.59.13,3.18-1.15,2.01-.11,3.21c.9,1.04,1.41.04,2.78.04s1.37-.04,2.74-.04,1.37-.08,2.75-.08,1.81,1.07,2.71.02c1.03-1.21,0-1.55-.02-3.13s.02-1.59,0-3.17,0-1.59-.03-3.17-.07-1.59-.09-3.17-.07-1.59-.09-3.18,1.2-2.12,0-3.17c-1.34-1.18-1.77-.03-3.56-.03s-1.83.38-3.58.03c-1.85-.37-2.21-1.17-3.55.01Z"/><path class="cls-2" d="m156.4,26.37c-1.47,0-1.47-.02-2.94-.02s-1.47.17-2.94.17-1.47-.11-2.94-.11-1.47.13-2.94.13-1.47-.07-2.95-.07-1.47-.07-2.95-.07c-1.02,0-1.94-.37-2.61-1.04s-1.08-1.59-1.08-2.61c0,0,0,0,0,0,0-1.02.35-1.99,1.02-2.66s1.65-1.01,2.66-1.01c1.47,0,1.47-.01,2.94-.01s1.47-.05,2.94-.05,1.47,0,2.94,0,1.47.01,2.94.01,1.47.12,2.95.12,1.47-.06,2.95-.06c1.02,0,2.01.32,2.68.99s1.1,1.66,1.1,2.68c0,0,0,0,0,0,0,1.02-.56,1.87-1.23,2.54s-1.53,1.08-2.54,1.08Z"/><path class="cls-5" d="m156.4,33.89c-1.47,0-1.47.05-2.94.05s-1.47-.06-2.94-.06-1.47-.1-2.94-.1-1.47.03-2.94.03-1.47.04-2.95.04-1.47-.08-2.95-.08c-1.02,0-1.89-.4-2.56-1.07s-1.06-1.54-1.06-2.56c0,0-.17,0-.17,0,0-1.02.57-1.88,1.24-2.55s1.54-1.06,2.55-1.06c1.47,0,1.47-.12,2.94-.12s1.47.07,2.94.07,1.47-.05,2.94-.05,1.47-.03,2.94-.03,1.47.02,2.95.02,1.47.06,2.95.06c1.02,0,1.92.4,2.59,1.07s1.2,1.58,1.2,2.59c0,0-.16,0-.16,0,0,1.02-.39,1.9-1.06,2.57s-1.55,1.17-2.57,1.17Z"/><path class="cls-2" d="m156.4,41.15c-1.47,0-1.47.14-2.94.14s-1.47-.14-2.94-.14-1.47.11-2.94.11-1.47-.08-2.94-.08-1.47-.03-2.95-.03-1.47.12-2.95.12c-1.02,0-1.89-.51-2.56-1.18s-1.19-1.54-1.19-2.56c0,0,.03,0,.03,0,0-1.02.37-2.01,1.04-2.68s1.66-1.06,2.68-1.06c1.47,0,1.47.13,2.94.13s1.47-.18,2.94-.18,1.47.11,2.94.11,1.47.02,2.94.02,1.47.01,2.95.01,1.47-.12,2.95-.12c1.02,0,1.91.52,2.58,1.19s1.07,1.56,1.07,2.58c0,0,.1,0,.1,0,0,1.02-.5,1.91-1.17,2.58s-1.56,1.03-2.58,1.03Z"/><path class="cls-5" d="m156.4,48.72c-1.47,0-1.47-.18-2.94-.18s-1.47.18-2.94.18-1.47-.1-2.94-.1-1.47.1-2.94.1-1.47-.12-2.95-.12-1.47.11-2.95.11c-1.02,0-1.95-.48-2.62-1.15s-1.14-1.61-1.14-2.62c0,0,.14,0,.14,0,0-1.02.39-1.88,1.06-2.55s1.54-1.17,2.55-1.17c1.47,0,1.47.07,2.94.07s1.47-.14,2.94-.14,1.47.09,2.94.09,1.47.05,2.94.05,1.47.02,2.95.02,1.47-.09,2.95-.09c1.02,0,1.98.4,2.65,1.07s1.01,1.63,1.01,2.65c0,0,0,0,0,0,0,1.02-.39,1.93-1.06,2.6s-1.58,1.18-2.6,1.18Z"/><path class="cls-3" d="m145.61,19.09c-1.42-.51.11-1.31.7-2.97.3-.84.71-1.79,1.29-2.72.5-.81,1.17-1.57,1.93-2.3.69-.66,1.5-1.23,2.45-1.72.83-.43,1.76-.76,2.83-.98.91-.19,1.91-.36,3-.36,1.4,1.13,1.2,1.35,2.36,2.73s1.64,1.11,2.22,2.81c.48,1.4-1.32.03-2.77.79-.78.41-1.6,1.03-2.22,1.93-.49.71-.85,1.59-1.03,2.72-1.72.51-1.78.03-3.57.03s-1.81-.25-3.6-.04-1.91.7-3.6.09Z"/><path class="cls-2" d="m249.65,132.56c-.15-1.56.04-1.09-.24-3.08-.12-.87-.3-1.87-.51-3.05-.17-.93-.19-1.97-.43-3.07-.21-.96,1-2.32.73-3.39-.25-.96-1.61-1.68-1.91-2.73-.28-.96.22-2.21-.12-3.24-.31-.96-1.88-1.52-2.25-2.53-.34-.96.71-2.47.32-3.46s-1.93-1.44-2.36-2.41.12-2.32-.33-3.28-1.41-1.62-1.89-2.56-.66-2-1.18-2.92-1.44-1.56-1.99-2.47-.35-2.24-.92-3.12-1.47-1.53-2.08-2.39-1.44-1.52-2.08-2.37-1.03-1.83-1.69-2.65-2.28-.78-2.97-1.57-1.19-1.68-1.91-2.45-.81-2.09-1.55-2.83-1.58-1.36-2.35-2.07-1.97-.9-2.76-1.58-1.04-1.99-1.86-2.65-2.12-.64-2.96-1.27-1.52-1.41-2.38-2.01-1.3-1.79-2.18-2.36-2.2-.4-3.1-.94-2.01-.63-2.93-1.13-1.43-1.7-2.37-2.18-1.71-1.23-2.66-1.68-2.24-.07-3.2-.48-1.35-2.16-2.33-2.55-2-.63-2.99-.99-2.44.69-3.44.36-1.85-.98-2.86-1.28-1.91-.85-2.92-1.13-1.99-.58-3.01-.84-2.04-.36-3.07-.59-1.94-.83-2.98-1.03-2.22.67-3.26.49-1.82-1.74-2.87-1.89-2.13.2-3.17.07-1.99-.96-3.04-1.07-2.15.59-3.2.5c-1.47-.03-1.47-.67-2.94-.67s-1.47,1.53-2.94,1.53-1.47-.13-2.94-.13-1.47-.67-2.94-.67-1.47-.57-2.95-.57-1.48.29-2.95.33c-1.57.04-1.15.05-3.14.37-.87.14-1.85.66-3.04.89-.94.18-2.03.1-3.14.35-.96.21-1.95.6-3.03.87-.97.24-1.81,1.15-2.86,1.45-.97.27-1.98.5-3.02.82-.97.3-1.96.59-2.99.93s-2.37-.52-3.38-.15-1.74,1.31-2.73,1.69-2.19.14-3.18.56-1.82,1.07-2.79,1.5-1.76,1.18-2.71,1.64-1.69,1.27-2.63,1.76-2.07.54-3,1.06-1.85.98-2.76,1.52-1.73,1.18-2.63,1.74-1.67,1.26-2.55,1.85-1.24,1.85-2.1,2.46-2.44.22-3.27.86-.95,2.15-1.76,2.83-2.14.7-2.93,1.4-1.31,1.67-2.07,2.39-1.01,1.93-1.75,2.68-1.79,1.16-2.5,1.94-2.25.81-2.93,1.62-.31,2.46-.96,3.29-1.87,1.19-2.49,2.05-1.18,1.73-1.77,2.6-1.07,1.8-1.63,2.7-1.46,1.56-1.99,2.48-1.11,1.79-1.61,2.72,0,2.34-.45,3.29-1.22,1.72-1.65,2.69-1.09,1.8-1.48,2.79-1.36,1.73-1.72,2.73-.53,2.05-.85,3.06.03,2.2-.26,3.21-1.35,1.81-1.61,2.83-.34,2.08-.57,3.12-.13,2.11-.32,3.16-.05,2.11-.21,3.16-.9,1.99-1.04,3.04c-.14,1.04-.5,2.05-.62,3.09s.72,2.19.61,3.23-.74,2.02-.84,3.06.6,2.16.51,3.19-.37,2.06-.45,3.1-1.46,1.99-1.53,3.03.23,2.12.18,3.16.73,2.13.68,3.17.37,2.1.34,3.14-.4,2.08-.41,3.12.35,2.09.35,3.13-.8,2.09-.79,3.13-.27,2.1-.24,3.14.83,2.07.87,3.11-1.16,2.15-1.1,3.19.18,2.1.25,3.14,1.49,1.98,1.58,3.02-.94,2.19-.83,3.23,1.19,1.97,1.32,3-.76,2.22-.62,3.25,0,2.14.16,3.16,1.45,1.88,1.64,2.9.91,1.94,1.13,2.96-.14,2.17.1,3.18.63,2,.89,3,1.02,1.88,1.3,2.88-.81,2.43-.49,3.42,1.4,1.75,1.74,2.73.39,2.09.76,3.06.62,2.01,1.02,2.98.98,1.86,1.41,2.81,1.55,1.58,2.01,2.51-.27,2.49.22,3.41,1.49,1.58,2.01,2.49,1.61,1.47,2.16,2.35.93,1.87,1.52,2.73,1.16,1.73,1.78,2.57,1.77,1.25,2.42,2.07.6,2.2,1.28,2.99,1.04,1.89,1.76,2.65,1.8,1.17,2.55,1.91,1.2,1.79,1.97,2.49,1.39,1.62,2.2,2.29,2.3.48,3.13,1.12,1.89.9,2.75,1.51.96,2.29,1.84,2.86,1.75,1.17,2.66,1.7,1.86.99,2.78,1.5,2.25.2,3.19.66,1.51,1.69,2.47,2.13,2.01.63,2.99,1.03,1.87.97,2.86,1.34,2.19.06,3.19.39,2.12.14,3.13.44,1.6,1.98,2.62,2.25,2.14.09,3.16.33,2.24-.51,3.27-.3,1.97.71,3.01.9,1.88,1.47,2.92,1.62,2.12-.03,3.17.11,2.21-1.09,3.26-.98,2.01.72,3.06.8,2.08-.01,3.13.05,2.08-.29,3.14-.25,2.05.59,3.11.61,2.08,1.28,3.13,1.28,2.08-.62,3.13-.64c1.56.04,1.12.07,3.12.06.88,0,1.91-.45,3.11-.49.95-.04,2.05.81,3.17.73.97-.07,1.99-.53,3.09-.64.99-.1,1.9-1.24,2.97-1.38.99-.13,2.08.19,3.14.03,1-.16,2.07-.02,3.12-.22s1.86-1.13,2.9-1.35,2.19.36,3.21.11,2-.52,3.02-.8,2.18.07,3.19-.24,1.53-1.99,2.53-2.32,2.04-.4,3.02-.77,1.78-1.07,2.76-1.47,2.28.09,3.24-.33,1.47-1.73,2.41-2.19,2.05-.51,2.97-1,2.24-.24,3.15-.76,1.75-1.15,2.64-1.7,1.55-1.44,2.42-2.02,1.23-1.84,2.08-2.46,2.39-.25,3.22-.89,1.2-1.82,2-2.49,1.21-1.74,1.98-2.44,1.79-1.08,2.55-1.81,1.17-1.73,1.89-2.49,1.28-1.59,1.98-2.37,1.29-1.58,1.96-2.38,1.46-1.44,2.1-2.27,1.98-1.09,2.59-1.95,1.51-1.49,2.09-2.36-.09-2.51.46-3.4,2.47-.94,2.99-1.85.17-2.28.66-3.2.35-2.12.81-3.06,1.89-1.38,2.32-2.34-.01-2.25.39-3.22.92-1.84,1.3-2.82,1-1.82,1.35-2.81,1.14-1.8,1.46-2.8.41-2.04.7-3.05-.39-2.24-.12-3.26,1.88-1.65,2.12-2.67.38-2.04.6-3.07.62-1.99.82-3.03.22-2.07.4-3.11-.77-2.21-.62-3.25,1.62-1.87,1.75-2.91.19-2.07.3-3.12-.06-2.09.04-3.14.66-2.03.74-3.08-1.41-2.16-1.35-3.21.81-2.03.84-3.07.7-2.05.72-3.1.25-2.08.26-3.12-.36-2.08-.37-3.13-1.07-2.05-1.09-3.1.69-2.09.65-3.14.04-2.08,0-3.12.47-2.11.41-3.15-1.11-2-1.18-3.05.27-2.1.18-3.15-.7-2.02-.8-3.06.37-2.12.26-3.16-.07-2.08-.2-3.13-1.71-1.91-1.85-2.95Zm-20.3,92.21c-.4.98-.91,1.87-1.35,2.81s-.95,1.93-1.45,2.84-1.23,1.76-1.79,2.64-2.39.9-3,1.74-.36,2.35-1.02,3.16-1.98,1.04-2.69,1.81-.51,2.43-1.25,3.16-2.55.33-3.33,1.02-.78,2.32-1.6,2.97-2.29.45-3.13,1.06-1.38,1.66-2.25,2.24-1.93.84-2.83,1.38-1.56,1.48-2.47,1.98-2.24.22-3.17.69-1.7,1.27-2.64,1.71-1.79,1.13-2.75,1.54-2.05.53-3.01.91-1.53,1.94-2.51,2.29-2.08.49-3.06.81-2.27-.18-3.26.12-1.98.72-2.98.98-1.88,1.18-2.88,1.43-2.25-.33-3.25-.11-1.91,1.24-2.91,1.44c-1.06.21-2.14.16-3.14.34-1.07.19-2.23-.39-3.22-.23-1.09.17-2.01,1.14-2.99,1.27-1.12.15-2.12.74-3.07.84-1.19.13-2.33-.58-3.21-.51-1.99.16-1.56-.14-3.13-.14-1.06-.04-2.14.79-3.17.74s-2.01-1.58-3.04-1.65-2.1-.02-3.13-.12-2.24,1.26-3.27,1.15-2.06-.6-3.08-.74-2.05-.56-3.07-.72-2.07-.38-3.09-.56-2.1-.26-3.11-.47-1.98-.83-2.98-1.06-2.31.55-3.31.29-1.67-1.91-2.66-2.19-2.16-.11-3.14-.43-1.77-1.33-2.74-1.67-2.25.04-3.21-.33-1.7-1.39-2.65-1.8-2.56.55-3.49.11-1.87-1.05-2.78-1.52-1.56-1.58-2.46-2.09-1.53-1.54-2.4-2.08-1.95-.85-2.8-1.42-1.69-1.25-2.52-1.86-1.89-1-2.69-1.65-1.43-1.58-2.19-2.26-1.66-1.32-2.39-2.03-1.98-1.04-2.68-1.79c-.73-.79-1.4-1.63-2.05-2.41-.69-.82-1.35-1.68-1.96-2.49-.65-.86-.24-2.44-.81-3.28-.61-.9-1.69-1.43-2.21-2.29-.56-.94-.48-2.16-.95-3.04-.52-.98-1.21-1.77-1.62-2.67-.47-1.03-1.18-1.85-1.52-2.74-.43-1.12-1.15-1.99-1.4-2.84-.58-1.91-.02-1.61-.3-3.14-.21-1.03-.37-2.06-.57-3.08s-.5-2.03-.69-3.05-.51-2.04-.68-3.06-1.14-1.95-1.3-2.97.95-2.26.81-3.28-1.37-1.94-1.5-2.96.59-2.18.48-3.21-.58-2.05-.68-3.08-.88-2.03-.96-3.07.32-2.13.25-3.17.99-2.16.94-3.19-1.44-2.03-1.48-3.07.67-2.12.65-3.15-.09-2.09-.1-3.13-.12-2.1-.12-3.13.45-2.09.47-3.12.13-2.09.17-3.12-1.01-2.14-.96-3.17.47-2.08.54-3.11.42-2.08.5-3.1.8-2.04.89-3.06.02-2.11.13-3.13-.45-2.17-.33-3.19,1.06-1.99,1.2-3,.13-2.1.28-3.11.01-2.13.18-3.13c.18-1.06.03-2.14.22-3.14.2-1.06.97-1.97,1.17-2.96.21-1.06.66-2.02.87-3,.23-1.07-.48-2.3-.25-3.26.26-1.08,1.01-1.97,1.25-2.91.29-1.1-.22-2.32.04-3.23.33-1.16.81-2.12,1.07-2.95.6-1.94,1.7-1.07,2.22-2.53.34-1,.34-2.09.72-3.06s.02-2.27.45-3.22.5-2.13.97-3.05,1.3-1.72,1.82-2.62.78-2.03,1.35-2.9,1.84-1.3,2.46-2.14,1.49-1.49,2.14-2.3.75-2.12,1.45-2.89,2.32-.69,3.05-1.44,1.42-1.5,2.18-2.21.66-2.41,1.45-3.08,2.33-.47,3.15-1.11,1.08-2.05,1.92-2.66,2.3-.35,3.17-.93,1.91-.86,2.79-1.41,1.21-2.04,2.12-2.55,1.59-1.5,2.51-1.98,2.15-.44,3.08-.9,1.84-1.04,2.78-1.47,1.74-1.32,2.69-1.72,2.49.55,3.46.18,1.69-1.49,2.66-1.83,2.1-.39,3.07-.71,2.05-.5,3.03-.8,1.98-.77,2.96-1.04c1.04-.29,1.87-1.28,2.85-1.53,1.06-.26,2.39.81,3.36.6,1.08-.24,1.98-1,2.94-1.19,1.11-.22,2.03-1.04,2.97-1.21,1.18-.2,2.26-.15,3.14-.27,1.98-.28,1.56-.27,3.12-.35,1.05,0,2.12-.66,3.15-.64s2.07.97,3.1,1.01,2.06.56,3.09.63,2.12-.34,3.15-.25,2.03.65,3.06.77,2.02.54,3.05.69,2.23-.76,3.25-.58,2.15-.03,3.16.17,1.76,1.74,2.77,1.98,2,.54,3,.81,2.02.49,3,.79,2.26-.21,3.24.12,1.67,1.51,2.64,1.88,2.02.54,2.97.94,1.82,1.02,2.76,1.45,2.18.28,3.1.75,2.11.51,3.01,1.01,1.08,2.29,1.96,2.83,1.99.72,2.85,1.29,2.3.35,3.14.95,1.51,1.5,2.32,2.13.92,2.17,1.71,2.83,1.78,1.09,2.55,1.79,2.46.44,3.2,1.17,1.12,1.86,1.83,2.61,1.55,1.42,2.24,2.21,1.68,1.34,2.34,2.14.9,1.97,1.53,2.8.23,2.4.82,3.25,1.68,1.35,2.25,2.22,1.12,1.75,1.66,2.64,1.42,1.58,1.93,2.49.2,2.25.68,3.17,1.27,1.67,1.72,2.61,1.82,1.46,2.24,2.41.4,2.11.79,3.07.48,2.05.84,3.02,1.43,1.71,1.76,2.69-.12,2.24.18,3.23.61,1.98.9,2.98-.09,2.17.16,3.17,1.89,1.69,2.12,2.7.16,2.11.36,3.13.75,1.99.92,3.02-.62,2.21-.47,3.24,1.24,1.94,1.37,2.97-.22,2.13-.12,3.16-.66,2.14-.59,3.17.24,2.07.29,3.1.49,2.07.52,3.1.88,2.08.89,3.11-1.21,2.09-1.23,3.12.64,2.1.6,3.13.46,2.12.4,3.15-.55,2.07-.63,3.09.23,2.13.13,3.16-.07,2.12-.19,3.14-.2,2.11-.35,3.12-.54,2.05-.71,3.07-1.27,1.91-1.46,2.92-.78,1.98-1,2.98.96,2.38.72,3.37-2.08,1.65-2.34,2.63.38,2.28.1,3.25c-.3,1.03.03,2.22-.27,3.19-.32,1.02-1.7,1.68-2.02,2.63-.35,1.02.17,2.31-.17,3.25-.38,1.02-.9,1.95-1.27,2.87-.41,1.03-1.09,1.88-1.47,2.78-.45,1.04-1.33,1.78-1.72,2.64-.51,1.09-.77,2.11-1.16,2.89-.91,1.79.13,1.8-.57,3.19Z"/><path class="cls-3" d="m156.42,48.7c-1.44.61-.51,1.01-1.75,2.53-.56.68-1.3,1.41-2.17,2.23-.69.65-1.47,1.34-2.37,2.02-.78.58-1.66,1.14-2.61,1.71-.84.51-1.72,1.06-2.71,1.54-.89.43-1.83.85-2.85,1.24-.63,1.22.82-.09,2.72-.15.75-.02,1.66-.04,2.75-.07.81-.02,1.73,0,2.75-.01.84-.02,1.76-.08,2.75-.1,1.39-.7.87-.9,1.92-2.44.51-.75,1.02-1.68,1.54-2.7.45-.88.95-1.8,1.29-2.83.32-.96.57-1.99.71-3.04-.54-.83-1.05-.31-1.96.07Z"/><path class="cls-3" d="m121.05,54.56c1.28.87.28,1.23.08,3.09-.1.88-.33,1.9-.72,3.01-.31.89-.75,1.83-1.34,2.79-.65,1.16-.87,1.72-2,1.57-.64-.08.07-.87.71-2.49.28-.72.58-1.62.73-2.71.12-.83.09-1.77.01-2.82.02-2.05.15-3.04,2.54-2.43Z"/><path class="cls-3" d="m134.88,50.61c1.28.87.3,1.18.1,3.04-.1.88-.32,1.9-.71,3.01-.31.89-.72,1.85-1.31,2.81-.65,1.16-.9,1.63-2.03,1.49-.64-.08,0-.82.64-2.45.28-.72.56-1.61.71-2.7.12-.83.17-1.75.09-2.81,0-2.03.11-2.99,2.5-2.39Z"/><path class="cls-3" d="m106.83,60.22c1.29.86.3,1.18.12,3.05-.08.88-.24,1.92-.61,3.03-.3.89-.77,1.82-1.35,2.79-.64,1.17-.84,1.67-1.97,1.54-.64-.07.04-.81.66-2.44.28-.73.52-1.63.66-2.72.11-.83.11-1.76.02-2.81-.02-2.03.08-3,2.47-2.43Z"/><path class="cls-3" d="m93.32,67.69c1.39.68.48,1.14.54,3.01.03.88-.06,1.93-.28,3.08-.18.92-.44,1.93-.89,2.97-.48,1.24-.68,1.78-1.82,1.8-.64,0-.04-.85.37-2.55.18-.76.31-1.69.31-2.79,0-.83-.14-1.76-.36-2.79-.28-2.01-.3-2.99,2.15-2.73Z"/><path class="cls-3" d="m80.85,77.47c1.44.58.53,1.1.73,2.97.1.88.1,1.92-.04,3.08-.11.93-.31,1.95-.68,3.02-.39,1.28-.48,1.83-1.62,1.93-.64.06-.18-.83.09-2.56.12-.77.22-1.7.14-2.79-.07-.83-.18-1.76-.49-2.77-.43-1.99-.59-2.95,1.87-2.88Z"/><path class="cls-3" d="m68.95,90.81c1.53.28.75,1.03,1.32,2.81.27.84.48,1.86.57,3.03.08.94.12,1.98-.03,3.1-.12,1.33-.16,1.89-1.26,2.22-.61.18-.3-.79-.38-2.54-.03-.78-.17-1.71-.47-2.76-.23-.8-.55-1.68-1.05-2.61-.82-1.89-1.14-2.84,1.29-3.26Z"/><path class="cls-3" d="m60.7,105.38c1.55-.02.91.83,1.81,2.47.43.77.88,1.71,1.2,2.84.26.91.41,1.93.48,3.06.14,1.33.27,1.89-.74,2.43-.57.3-.46-.73-.88-2.43-.18-.76-.5-1.64-1.01-2.61-.38-.74-.85-1.54-1.52-2.36-1.17-1.67-1.65-2.52.65-3.4Z"/><path class="cls-3" d="m55.18,122.21c1.53-.25,1.04.73,2.18,2.21.54.7,1.11,1.58,1.6,2.65.39.86.69,1.85.93,2.96.33,1.29.55,1.83-.36,2.51-.52.38-.6-.64-1.26-2.26-.29-.72-.71-1.56-1.35-2.45-.49-.68-1.07-1.4-1.86-2.1-1.41-1.51-2.02-2.29.12-3.51Z"/><path class="cls-3" d="m52.59,139.21c1.43-.6,1.18.47,2.63,1.65.69.56,1.46,1.26,2.18,2.19.58.74,1.09,1.64,1.58,2.66.62,1.18.92,1.61.18,2.49-.41.49-.63-.48-1.65-1.91-.45-.63-1.09-1.33-1.92-2.05-.63-.54-1.41-1.06-2.34-1.56-1.72-1.14-2.48-1.79-.68-3.47Z"/><path class="cls-3" d="m50.79,155.24c1.38-.7,1.18.34,2.71,1.41.72.51,1.52,1.19,2.3,2.07.63.7,1.27,1.51,1.83,2.5.7,1.13.99,1.58.32,2.5-.38.52-.68-.44-1.79-1.79-.5-.6-1.18-1.24-2.07-1.9-.67-.5-1.44-1.01-2.4-1.45-1.78-.99-2.59-1.54-.91-3.34Z"/><path class="cls-3" d="m50.76,171.53c1.38-.7,1.2.38,2.74,1.46.72.51,1.55,1.15,2.34,2.03.63.7,1.2,1.57,1.76,2.55.7,1.13,1.07,1.59.4,2.51-.38.52-.73-.47-1.84-1.82-.5-.6-1.18-1.25-2.06-1.91-.67-.5-1.45-1.01-2.4-1.45-1.79-1.02-2.61-1.59-.93-3.38Z"/><path class="cls-3" d="m51.68,188.2c1.31-.82,1.22.27,2.84,1.21.77.44,1.64,1.01,2.5,1.82.69.64,1.35,1.44,2,2.37.8,1.07,1.17,1.47.58,2.45-.33.55-.76-.35-1.99-1.59-.55-.55-1.25-1.17-2.19-1.75-.71-.44-1.53-.88-2.52-1.23-1.87-.85-2.73-1.33-1.22-3.27Z"/><path class="cls-3" d="m54.38,206.1c1.31-.82,1.23.26,2.85,1.2.77.44,1.61,1.06,2.47,1.86.69.64,1.4,1.39,2.05,2.32.8,1.07,1.14,1.48.55,2.46-.33.55-.73-.37-1.96-1.61-.55-.55-1.25-1.19-2.18-1.77-.71-.44-1.56-.83-2.55-1.18-1.87-.85-2.74-1.34-1.22-3.28Z"/><path class="cls-3" d="m59.64,224.99c1.1-1.09,1.22-.02,3.01.53.85.26,1.82.63,2.84,1.22.81.47,1.67,1.06,2.5,1.82,1.02.86,1.49,1.19,1.13,2.28-.2.61-.82-.23-2.3-1.16-.66-.42-1.49-.86-2.53-1.22-.79-.27-1.7-.48-2.75-.6-2-.39-2.94-.64-1.9-2.88Z"/><path class="cls-3" d="m67.2,240.08c.73-1.37,1.14-.46,3.02-.46.88,0,1.92.15,3.06.42.92.21,1.9.54,2.92,1.02,1.23.52,1.79.67,1.77,1.81-.01.64-.85.01-2.54-.45-.75-.2-1.68-.39-2.78-.42-.83-.03-1.77.09-2.8.28-2.02.22-2.99.23-2.65-2.21Z"/><path class="cls-3" d="m78.49,253.69c.2-1.54.93-.82,2.69-1.48.83-.31,1.83-.62,3-.78.93-.13,1.97-.12,3.1-.04,1.33.05,1.87.03,2.26,1.1.22.6-.74.38-2.48.54-.77.08-1.72.16-2.75.52-.79.27-1.64.67-2.54,1.22-1.82.92-2.71,1.31-3.26-1.09Z"/><path class="cls-3" d="m93.59,264.41c-.37-1.51.66-1.07,2.05-2.32.66-.59,1.48-1.22,2.51-1.78.82-.45,1.76-.9,2.84-1.23,1.26-.43,1.78-.64,2.52.22.42.48-.6.57-2.17,1.35-.7.35-1.47.89-2.31,1.6-.64.54-1.34,1.15-1.98,1.99-1.39,1.52-2.1,2.21-3.48.17Z"/><path class="cls-3" d="m109.91,270.82c-.37-1.51.6-1.06,1.99-2.32.66-.59,1.49-1.2,2.52-1.77.82-.45,1.77-.87,2.85-1.2,1.26-.43,1.75-.67,2.49.2.42.48-.58.57-2.14,1.35-.7.35-1.51.83-2.35,1.54-.64.54-1.3,1.2-1.94,2.04-1.36,1.51-2.05,2.19-3.43.15Z"/><path class="cls-3" d="m130.66,275.18c-.57-1.44.49-1.17,1.71-2.6.57-.67,1.3-1.44,2.24-2.13.76-.56,1.67-1.05,2.7-1.51,1.19-.59,1.65-.88,2.5-.12.48.42-.49.65-1.93,1.64-.64.44-1.36,1.04-2.1,1.86-.56.62-1.16,1.33-1.69,2.24-1.18,1.69-1.8,2.47-3.43.63Z"/><path class="cls-3" d="m154.27,276.38c-.96-1.22.09-1.25.85-2.96.36-.81.88-1.71,1.59-2.66.56-.75,1.25-1.53,2.1-2.27.97-.91,1.34-1.31,2.37-.83.58.27-.31.75-1.41,2.11-.49.61-.97,1.42-1.44,2.41-.36.75-.73,1.61-.97,2.63-.63,1.95-1,2.86-3.1,1.57Z"/><path class="cls-3" d="m174.19,274.86c-1.19-.99-.14-1.24.24-3.07.18-.87.46-1.87.96-2.94.39-.86.91-1.75,1.59-2.66.76-1.1,1.03-1.55,2.14-1.3.62.14-.13.79-.92,2.36-.35.69-.69,1.57-.94,2.64-.19.81-.31,1.74-.33,2.79-.21,2.04-.42,3.01-2.74,2.18Z"/><path class="cls-3" d="m193.67,269.29c-1.41-.65-.45-1.16-.56-3.03-.05-.88-.05-1.93.15-3.09.16-.93.45-1.92.87-2.98.45-1.26.59-1.76,1.73-1.81.64-.02.12.8-.25,2.51-.16.76-.3,1.69-.27,2.78.02.83.1,1.77.35,2.79.32,2.02.42,3-2.03,2.81Z"/><path class="cls-3" d="m212.18,258.68c-1.41-.65-.49-1.13-.6-3-.05-.88-.05-1.93.15-3.09.16-.93.47-1.92.89-2.97.45-1.26.59-1.81,1.73-1.85.64-.02.09.85-.27,2.56-.16.76-.25,1.69-.22,2.79.02.83.1,1.76.35,2.79.33,2.01.41,2.98-2.04,2.78Z"/><path class="cls-3" d="m226.4,245.25c-1.51-.35-.67-1.06-1.15-2.87-.23-.85-.4-1.88-.43-3.05-.03-.94.02-1.97.22-3.09.19-1.32.2-1.89,1.31-2.17.62-.15.26.81.25,2.56,0,.78.06,1.72.31,2.78.19.81.53,1.68.98,2.64.72,1.92.95,2.89-1.49,3.19Z"/><path class="cls-3" d="m234.79,230.54c-1.54-.19-.84-.95-1.51-2.7-.32-.82-.56-1.84-.73-3-.13-.93-.21-1.97-.13-3.1.04-1.33.04-1.86,1.11-2.25.6-.22.34.73.52,2.47.08.77.26,1.69.63,2.73.28.79.68,1.63,1.24,2.52.93,1.83,1.27,2.76-1.13,3.33Z"/><path class="cls-3" d="m242.58,214.97c-1.55.12-.96-.78-1.98-2.36-.48-.74-1-1.65-1.39-2.76-.32-.89-.53-1.9-.67-3.03-.22-1.32-.39-1.87.58-2.46.55-.34.52.69,1.05,2.36.23.74.54,1.64,1.11,2.58.43.71,1,1.46,1.72,2.23,1.27,1.6,1.82,2.41-.41,3.45Z"/><path class="cls-3" d="m247.67,197.36c-1.55.12-.97-.8-1.98-2.37-.48-.74-1.01-1.65-1.4-2.76-.32-.89-.56-1.9-.71-3.02-.22-1.32-.35-1.87.63-2.47.55-.34.53.69,1.05,2.35.23.74.57,1.62,1.13,2.56.43.71.99,1.46,1.71,2.23,1.28,1.61,1.8,2.45-.43,3.48Z"/><path class="cls-3" d="m250.92,176.06c-1.47.49-1.12-.52-2.48-1.81-.64-.61-1.35-1.38-2-2.36-.52-.78-1.02-1.69-1.43-2.74-.53-1.22-.8-1.73,0-2.55.45-.46.65.56,1.56,2.05.41.67.94,1.45,1.71,2.23.59.59,1.33,1.16,2.21,1.73,1.62,1.24,2.34,1.91.42,3.45Z"/><path class="cls-3" d="m249.93,151.07c-1.47.49-1.11-.5-2.47-1.79-.64-.61-1.34-1.38-1.99-2.36-.52-.78-1.02-1.69-1.43-2.74-.53-1.22-.78-1.71.02-2.52.45-.46.61.54,1.52,2.04.41.67.99,1.4,1.77,2.18.59.59,1.27,1.23,2.16,1.8,1.62,1.23,2.35,1.86.43,3.4Z"/><path class="cls-3" d="m246.68,128.51c-1.32.8-1.25-.25-2.86-1.21-.76-.45-1.6-1.08-2.45-1.9-.68-.65-1.34-1.45-1.98-2.39-.79-1.08-1.14-1.48-.54-2.45.34-.54.74.36,1.95,1.62.54.56,1.23,1.2,2.16,1.79.7.45,1.54.86,2.53,1.22,1.87.88,2.72,1.39,1.18,3.31Z"/><path class="cls-3" d="m241.27,107.63c-.91,1.25-1.21.23-3.07-.03-.88-.12-1.89-.35-2.99-.77-.88-.34-1.83-.76-2.78-1.38-1.14-.69-1.62-.97-1.44-2.1.1-.63.84.05,2.45.74.71.31,1.6.59,2.68.78.82.14,1.75.25,2.8.2,2.04.07,3.02.19,2.34,2.56Z"/><path class="cls-3" d="m230.1,88.25c-.76,1.35-1.18.35-3.05.3-.88-.02-1.93-.1-3.06-.4-.91-.24-1.88-.62-2.89-1.13-1.21-.56-1.75-.73-1.7-1.87.03-.64.85-.04,2.52.47.74.22,1.66.41,2.76.48.83.05,1.77.07,2.81-.1,2.04-.16,3.02-.17,2.61,2.25Z"/><path class="cls-3" d="m215.49,73.8c-.56,1.45-1.09.55-2.95.77-.88.11-1.92.19-3.09.07-.94-.1-1.95-.34-3.02-.7-1.28-.37-1.8-.49-1.92-1.62-.07-.64.8-.18,2.53.07.77.11,1.7.22,2.8.12.83-.08,1.75-.26,2.75-.58,1.98-.46,2.94-.59,2.89,1.87Z"/><path class="cls-3" d="m200.22,64.68c-.33,1.51-1.03.72-2.83,1.23-.85.24-1.88.39-3.05.44-.94.04-1.97.03-3.09-.16-1.32-.17-1.87-.2-2.15-1.3-.16-.62.78-.26,2.53-.27.78,0,1.71-.1,2.78-.36.81-.2,1.7-.48,2.65-.95,1.91-.75,2.84-1.06,3.18,1.38Z"/><path class="cls-3" d="m179.51,55.63c.16,1.54-.8.97-2.36,2.02-.73.49-1.63,1.03-2.72,1.45-.88.34-1.87.64-2.99.81-1.31.25-1.88.39-2.5-.56-.35-.54.7-.52,2.35-1.08.74-.25,1.61-.62,2.54-1.2.7-.44,1.44-1.02,2.19-1.76,1.59-1.31,2.41-1.88,3.49.34Z"/></g><rect class="cls-1" y="1" width="300" height="300"/></svg>