<?xml version="1.0" encoding="UTF-8"?>
<svg id="_層_1" xmlns="http://www.w3.org/2000/svg" viewBox="0 0 300 300">
    <g>
        <path d="M293.71,154.13C274.59,24.81,146.27,37.41,146.27,37.41c0,0-115.73-19.31-138.95,124.5-23.22,143.81,122.87,133.53,156.02,130.45,33.15-3.08,149.48-8.89,130.37-138.22ZM43.73,201.77h0Zm.02-.16v-.1l.04-.21-.04,.3Zm201.25-33.09c-1.79,73.73-83.82,73.37-83.82,73.37-110.59,3.91-102.11-68.79-102.11-68.79,6.34-91.07,85.53-85.77,85.53-85.77,102.84-8.06,100.4,81.18,100.4,81.18Zm11.58-7.29h0c0,.07,0,.13,0,.19v-.19Z"
              style="fill:#f58029;"/>
        <path d="M48.57,166.46l.09-.65c-.03,.22-.06,.43-.09,.65h0Z" style="fill:#f58029;"/>
    </g>
    <path d="M65.62,77.17s-3.33-2.69-8.81,1.77,1.27,10.62,4.4,8.22c3.13-2.4,9.1-5.93,4.4-9.99Z" style="fill:#d16800;"/>
    <path d="M100.78,74.59s-2.87-2.32-7.59,1.52,1.1,9.16,3.8,7.09,7.85-5.12,3.8-8.61Z" style="fill:#d16800;"/>
    <path d="M85.02,58.15s-2.87-2.32-7.59,1.52,1.1,9.16,3.8,7.09,7.85-5.12,3.8-8.61Z" style="fill:#d16800;"/>
    <path d="M115,59.47s-2.09-3.04-7.71-.7c-5.62,2.34-1.56,9.09,1.62,7.88s8.98-2.67,6.09-7.18Z" style="fill:#d16800;"/>
    <path d="M45.61,114.32s-4.19-.85-7.01,5.62c-2.82,6.48,6.02,8.84,7.69,5.27s5.35-9.46-.69-10.9Z"
          style="fill:#d16800;"/>
    <path d="M67.73,96.5s-4.19-.85-7.01,5.62c-2.82,6.48,6.02,8.84,7.69,5.27s5.35-9.46-.69-10.9Z" style="fill:#d16800;"/>
    <path d="M40.17,93.42s-4.19-.85-7.01,5.62c-2.82,6.48,6.02,8.84,7.69,5.27,1.68-3.57,5.35-9.46-.69-10.9Z"
          style="fill:#d16800;"/>
    <path d="M53.73,253.24s-1.78,3.89,3.88,8.1c5.67,4.22,9.98-3.85,6.89-6.29s-7.99-7.36-10.77-1.81Z"
          style="fill:#d16800;"/>
    <path d="M42.59,219.8s-1.54,3.35,3.35,6.99c4.88,3.64,8.61-3.32,5.94-5.42s-6.89-6.35-9.28-1.56Z"
          style="fill:#d16800;"/>
    <path d="M30.53,239.12s-1.54,3.35,3.35,6.99,8.61-3.32,5.94-5.42-6.89-6.35-9.28-1.56Z" style="fill:#d16800;"/>
    <path d="M24.43,209.73s-2.43,2.77,1.22,7.65c3.65,4.88,9.19-.73,7.24-3.51-1.96-2.78-4.8-8.05-8.45-4.14Z"
          style="fill:#d16800;"/>
    <path d="M94.66,263.49s.2,4.27,7.17,5.41c6.97,1.14,7.09-8.01,3.22-8.75s-10.48-2.86-10.39,3.35Z"
          style="fill:#d16800;"/>
    <path d="M71.95,246.43s.2,4.27,7.17,5.41c6.97,1.14,7.09-8.01,3.22-8.75s-10.48-2.86-10.39,3.35Z"
          style="fill:#d16800;"/>
    <path d="M75.75,273.91s.2,4.27,7.17,5.41c6.97,1.14,7.09-8.01,3.22-8.75s-10.48-2.86-10.39,3.35Z"
          style="fill:#d16800;"/>
    <path d="M247.14,253.24s1.78,3.89-3.88,8.1c-5.67,4.22-9.98-3.85-6.89-6.29,3.1-2.45,7.99-7.36,10.77-1.81Z"
          style="fill:#d16800;"/>
    <path d="M258.29,219.8s1.54,3.35-3.35,6.99c-4.88,3.64-8.61-3.32-5.94-5.42s6.89-6.35,9.28-1.56Z"
          style="fill:#d16800;"/>
    <path d="M270.35,239.12s1.54,3.35-3.35,6.99c-4.88,3.64-8.61-3.32-5.94-5.42s6.89-6.35,9.28-1.56Z"
          style="fill:#d16800;"/>
    <path d="M276.44,209.73s2.43,2.77-1.22,7.65c-3.65,4.88-9.19-.73-7.24-3.51s4.8-8.05,8.45-4.14Z"
          style="fill:#d16800;"/>
    <path d="M206.21,263.49s-.2,4.27-7.17,5.41-7.09-8.01-3.22-8.75,10.48-2.86,10.39,3.35Z" style="fill:#d16800;"/>
    <path d="M228.92,246.43s-.2,4.27-7.17,5.41-7.09-8.01-3.22-8.75c3.87-.75,10.48-2.86,10.39,3.35Z"
          style="fill:#d16800;"/>
    <path d="M225.12,273.91s-.2,4.27-7.17,5.41c-6.97,1.14-7.09-8.01-3.22-8.75s10.48-2.86,10.39,3.35Z"
          style="fill:#d16800;"/>
    <path d="M240.69,77.17s3.33-2.69,8.81,1.77-1.27,10.62-4.4,8.22-9.1-5.93-4.4-9.99Z" style="fill:#d16800;"/>
    <path d="M205.54,74.59s2.87-2.32,7.59,1.52c4.73,3.84-1.1,9.16-3.8,7.09s-7.85-5.12-3.8-8.61Z" style="fill:#d16800;"/>
    <path d="M221.3,58.15s2.87-2.32,7.59,1.52c4.73,3.84-1.1,9.16-3.8,7.09s-7.85-5.12-3.8-8.61Z" style="fill:#d16800;"/>
    <path d="M191.31,59.47s2.09-3.04,7.71-.7,1.56,9.09-1.62,7.88-8.98-2.67-6.09-7.18Z" style="fill:#d16800;"/>
    <path d="M260.71,114.32s4.19-.85,7.01,5.62c2.82,6.48-6.02,8.84-7.69,5.27-1.68-3.57-5.35-9.46,.69-10.9Z"
          style="fill:#d16800;"/>
    <path d="M238.58,96.5s4.19-.85,7.01,5.62c2.82,6.48-6.02,8.84-7.69,5.27s-5.35-9.46,.69-10.9Z" style="fill:#d16800;"/>
    <path d="M266.15,93.42s4.19-.85,7.01,5.62c2.82,6.48-6.02,8.84-7.69,5.27s-5.35-9.46,.69-10.9Z"
          style="fill:#d16800;"/>
    <path d="M174.03,44.11h.02c.08-.03,.16-.06,.23-.09,21.07-9.2,21.05-25.92,20.38-31.57-.13-1.13-1.07-1.99-2.21-2.03-29.19-1.1-35.95,25.26-35.95,25.26h0c-1.13-5.72-6.86-25.95-31.77-28.55-1.14-.12-2.18,.6-2.48,1.7-1.46,5.5-3.84,22.05,15.72,34.13,.07,.04,.14,.08,.22,.12,.04,.02,.09,.04,.15,.07,1.71,.82,1.75,3.25,.05,4.09-7.86,3.91-17.33,11.99-19.05,28.49-.12,1.13,.6,2.18,1.7,2.48,5.5,1.46,22.05,3.84,34.13-15.72,.04-.07,.09-.15,.12-.22,.11-.23,.38-.79,.71-1.58,.15,.54,.28,.93,.34,1.12,.03,.08,.06,.17,.09,.25,9.2,21.07,25.92,21.05,31.57,20.38,1.13-.13,1.99-1.07,2.03-2.2,.68-17.9-8.97-27.37-16.53-32.01-1.67-1.02-1.35-3.52,.51-4.12Z"
          style="fill:#2f9b3b;"/>
    <circle cx="157.58" cy="45.71" r="12.5" style="fill:#217538;"/>
</svg>
