<?xml version="1.0" encoding="UTF-8"?>
<svg id="_層_1" xmlns="http://www.w3.org/2000/svg" viewBox="0 0 300 300">
    <path d="M78.36,36.26s-10.9-21.86-31.06-13.41c-20.16,8.46-16.6,38.98,3.39,45.48l27.67-32.07Z"
          style="fill:#e35f00;"/>
    <path d="M70.4,43.69c.87-2.04-.75-1.75-2.18-3.86-.75-1.1-1.73-2.27-2.85-3.37-1.03-1.01-2.26-1.81-3.6-2.49s-2.6-1.29-4.15-1.37c-1.35-.06-2.79,.2-4.33,.77s-2.74,1.46-3.65,2.53c-.97,1.15-1.8,2.47-2.1,3.97-.29,1.42-.34,3.02-.11,4.55s.91,2.87,1.51,4.26,1.44,2.63,2.37,3.78,2,2.28,3.24,3.05,2.81,1.51,4.32,1.63c1.78-1.3,1.28-1.87,2.73-3.53s1.42-1.69,2.87-3.36,1.39-1.73,3.01-3.24,2.04-1.31,2.91-3.34Z"
          style="fill:#f8c100;"/>
    <path d="M81.79,37.35c1.48-1.24,.51-1.66,.89-3.64,.24-1.24,.61-2.49,.11-3.67-.44-1.05-1.39-1.92-2.92-2.42-.72-2.27,.56-2.4-.12-4.7-.41-1.38-1.03-2.83-2.76-3.58-1.14-.5-2.89-.27-4.9-.1-1.78-.86-.72-1.87-2.56-3.19-.94-.67-2.14-.99-3.61-1.29-1.14-.24-2.45-1.14-3.93-.91-1.16,.18-2.35,1.07-3.73,1.66-2.05-.18-1.45-1.16-3.72-1.88-1.18-.37-2.62-.56-4.08-.74-1.32-.15-2.75-.23-4.14,0s-2.62,.76-3.85,1.48c-1.1,.65-2.11,1.59-3.03,2.78-2.34,.65-2.23,.25-4.63,1.02-1.45,.47-3.38,.58-4.3,2.1-.69,1.14-.29,3.04-.16,5.07-.92,2.32-1.9,1.49-3.05,4.04-.62,1.37-.92,2.96-.97,4.77-.04,1.52,.1,3.06,.87,4.75,.61,1.34,1.32,2.8,2.64,4.17,.23,1.98-.77,1.53-1.4,3.68-.34,1.16-.6,2.44-.52,3.86,.07,1.24,.35,2.47,1.03,3.73,.57,1.04,1.46,2.12,2.62,3.07,.33,2.31-1.24,2.24-.83,4.69,.23,1.38,1.21,2.71,2.48,3.94,.94,.91,1.9,2.13,3.72,2.64,1.6,1.19,1.33,.9,3.01,2.49,.86,.81,1.53,2.23,2.81,2.92,1.1,.59,2.47,1.1,3.86,1.36,1.21,.23,2.36-.3,3.8-.48,1.76-2.09,1.15-2.42,2.5-4.79s2.7-1.73,3.72-4.26c.82-2.03-.6-2.33-2.61-3.66-.9-.59-2.4-.96-4.39-.79-1.37-1.53,1.04-2.61,.14-4.54-.51-1.1-1.74-2.1-3.27-2.69-1.03-.4-2.34-.5-4.04-.37-1.05-1.73,.17-1.8-.11-3.91-.16-1.23-.15-2.69-1.25-3.72-.82-.77-1.81-1.3-3.44-1.64-.14-1.89,1.85-.47,2.8-2.48,.45-.94,.77-2.43,.74-3.96-.02-1.08-.98-2.6-1.42-4.01,2.23-1.62,3.2,.26,5.02-2.37,.82-1.18,1.23-2.68,1.37-5.03,2.75-.4,2.02,2.13,5.16,1.62,1.4-.23,2.97-1.76,4.74-3.42,2.48,.09,1.31,2.26,3.51,3.83,1.27,.9,2.95,1.33,4.6,1.71,1.54,.36,3.08,.68,4.74-.03,1.99,.98,.61,1.84,1.75,4.01,.66,1.25,1.73,2.43,2.64,3.57,1.04,1.3,2.11,2.47,3.36,2.8,2.96-.86,2.71-1.53,5.07-3.5Z"
          style="fill:#fff;"/>
    <path d="M229.47,39.95s10.9-21.86,31.06-13.41,16.6,38.98-3.39,45.48l-27.67-32.07Z" style="fill:#e35f00;"/>
    <path d="M237.47,47.36c-.87-2.04,.73-1.74,2.15-3.84,.75-1.1,1.65-2.35,2.77-3.45,1.03-1.01,2.17-2.07,3.5-2.75s2.78-.88,4.32-.95c1.35-.06,2.8,.09,4.34,.67s2.79,1.44,3.69,2.52c.97,1.15,1.37,2.6,1.67,4.1,.29,1.42,.27,2.88,.05,4.41s-.36,2.98-.96,4.37-1.32,2.77-2.25,3.92-2.17,2.19-3.41,2.95-2.63,1.1-4.14,1.21c-1.78-1.3-1.62-1.45-3.08-3.12s-1.49-1.63-2.94-3.29-1.19-1.91-2.81-3.42-2.04-1.29-2.91-3.32Z"
          style="fill:#f8c100;"/>
    <path d="M225.91,41.2c-1.48-1.24-1.24-1.65-1.62-3.63-.24-1.24,.05-2.74,.55-3.92,.44-1.05,1.22-1.95,2.74-2.46,.72-2.27-.64-2.41,.04-4.71,.41-1.38,1.52-2.6,3.26-3.35,1.14-.5,2.44-1.21,4.45-1.04,1.78-.86,.98-1.24,2.82-2.55,.94-.67,2.12-1.56,3.59-1.87,1.14-.24,2.47,.55,3.95,.78,1.16,.18,2.48,.01,3.86,.6,2.05-.18,1.61-.53,3.88-1.25,1.18-.37,2.48-.86,3.95-1.03,1.32-.15,2.68-.11,4.07,.11s2.63,.52,3.86,1.24c1.1,.65,2.16,1.48,3.08,2.67,2.34,.65,2.57-.8,4.97-.02,1.45,.47,2.4,2.05,3.32,3.57,.69,1.14,1.87,2.28,1.74,4.31,.92,2.32,1.26,1.73,2.4,4.28,.62,1.37,1.29,3.08,1.34,4.89,.04,1.52-.37,3.26-1.14,4.95-.61,1.34-1.73,2.61-3.05,3.99-.23,1.98,1.2,1.41,1.82,3.56,.34,1.16,.54,2.58,.46,4-.07,1.24-.41,2.6-1.1,3.87-.57,1.04-1.33,2.02-2.49,2.98-.33,2.31,.2,2.08-.21,4.53-.23,1.38-.42,2.99-1.7,4.22-.94,.91-2.6,1.24-4.41,1.76-1.6,1.19-.39,2.04-2.07,3.63-.86,.81-2.33,1.08-3.61,1.77-1.1,.59-2.22,1.05-3.62,1.31-1.21,.23-2.71,.87-4.15,.69-1.76-2.09-1.55-2.32-2.91-4.69s-.67-2.69-1.69-5.23c-.82-2.03-.97-2.55,1.04-3.88,.9-.59,2.07-.98,4.06-.81,1.37-1.53,.5-1.56,1.4-3.49,.51-1.1,1.07-2.19,2.6-2.78,1.03-.4,2.38-.68,4.08-.55,1.05-1.73-1.1-1.99-.82-4.1,.16-1.23,1.13-2.37,2.23-3.41,.82-.77,2.14-1.47,3.77-1.81,.14-1.89-1.25-1.04-2.21-3.05-.45-.94-.77-1.87-.74-3.4,.02-1.08-.56-2.03-.13-3.45-2.23-1.62-2.2-.72-4.02-3.35-.82-1.18-1.69-3.02-1.83-5.37-2.75-.4-1.98,1.95-5.12,1.44-1.4-.23-3.09-.17-4.87-1.82-2.48,.09-1.54,1.29-3.75,2.86-1.27,.9-2.62,2.13-4.28,2.52-1.54,.36-3.29-.02-4.95-.74-1.99,.98-.78,1.9-1.92,4.06-.66,1.25-1.22,2.76-2.14,3.9-1.04,1.3-2.33,2.19-3.58,2.52-3.01-.73-2.86-1.29-5.22-3.26Z"
          style="fill:#fff;"/>
    <path d="M42.04,88.82S31.93,16.57,143.74,15.41c0,0,93.84-5.01,101.91,39.22,0,0,21.9,20.32,.53,41.13-21.37,20.81-199.71,12.72-204.13-6.94Z"
          style="fill:#eda100;"/>
    <path d="M133.58,70.9s2.21-19.1-16.95-20.63c-19.16-1.53-16.21,25.98,0,26.74s16.95-6.11,16.95-6.11Z"
          style="fill:#fff;"/>
    <path d="M133.58,70.9s3.36-13.75-6.79-17.19c0,0-10.16-6.13-15.31,5.73,0,0-2.78,14.25,11.32,17.63,0,0,8.21,1.47,10.79-6.17Z"
          style="fill:#42210b;"/>
    <path d="M134.31,51.98c-1.83-2.38-1.98-1.57-4.54-3.98-1.31-1.23-2.61-2.86-4.36-4.12-1.59-1.14-3.35-2.19-5.18-3.05s-3.74-1.74-5.71-2.01-4.09-.15-6.08,.45c-2.22,.68-3.84,2.03-5.29,3.07-1.96,1.4-3.63,2.77-4.25,4.37-.83,2.16-.39,4.57,1.09,5.97,1.19,1.13,3.31,1.72,5.91,1.59,1.79-.09,3.75-.35,5.75-.1,1.86,.24,3.72,.89,5.61,1.29s3.87,.54,5.67,.97c2.03,.49,3.9,1.04,5.56,1.38,2.59,.52,4.53,.79,5.57,.33,3.52-1.53,2.45-3.33,.25-6.19Z"
          style="fill:#fade24;"/>
    <path d="M163.49,70.9s-2.21-19.1,16.95-20.63,16.21,25.98,0,26.74c-16.21,.76-16.95-6.11-16.95-6.11Z"
          style="fill:#fff;"/>
    <path d="M173.07,70.9s-3.36-13.75,6.79-17.19c0,0,10.16-6.13,15.31,5.73,0,0,2.78,14.25-11.32,17.63,0,0-8.21,1.47-10.79-6.17Z"
          style="fill:#42210b;"/>
    <path d="M163.97,52.21c1.83-2.38,1.67-1.81,4.23-4.22,1.31-1.23,2.7-2.74,4.45-4,1.59-1.14,3.14-2.58,4.98-3.43s3.86-1.46,5.83-1.73,3.96,.25,5.95,.85c2.22,.68,4.28,1.19,5.73,2.22,1.96,1.4,2.82,3.4,3.43,5,.83,2.16,.45,3.92-1.02,5.32-1.19,1.13-2.85,1.81-5.45,1.68-1.79-.09-3.76,.07-5.76,.33-1.86,.24-3.68,1.05-5.57,1.45s-3.89,.45-5.68,.88c-2.03,.49-3.87,1.23-5.53,1.57-2.59,.52-4.7,.71-5.74,.26-3.52-1.53-2.04-3.34,.16-6.19Z"
          style="fill:#fade24;"/>
    <path d="M156.22,79.35s3.89-10.19-3.11-9.9c-7,.29-15.84-.87-12.16,6.65,0,0,3.35,7.51,7.2,7.23s8.44,.07,8.07-3.97Z"
          style="fill:#42210b;"/>
    <path d="M57.82,42.14c2.64-.4,2.15,.78,5.25,1.42,1.55,.32,3.35,.61,5.21,1.1,1.67,.44,3.4,.96,5.11,1.53s3.49,1.07,5.03,1.79c1.77,.83,3.41,1.7,4.61,2.71,1.59,1.34,2.67,2.95,2.59,4.63-.1,1.95-1.2,3.36-2.56,4.35-1.28,.93-3.05,1.11-4.82,1.44s-3.43,.71-5.03,.71c-2.86-.01-2.63,.46-5.14,0s-2.56-.7-5.15-1.22-2.59-.53-5.18-1.05-2.6-.5-5.19-1.02-2.91,.21-5.16-1.18c-1.98-1.22,.66-1.76,1.86-4.23,.6-1.24,1.54-2.49,2.47-3.9,.82-1.24,1.75-2.43,2.85-3.58s1.94-2.64,3.26-3.48Z"
          style="fill:#42210b;"/>
    <path d="M44.56,66.96c2.68-.41,2.11,.06,5.31,.52,1.58,.23,3.39,.58,5.33,.94,1.72,.32,3.56,.48,5.34,.91s3.59,.85,5.24,1.4c1.86,.62,3.39,1.68,4.8,2.47,1.95,1.08,3.71,1.96,4.14,3.37,.59,1.95,.47,3.69,.16,5.09-.4,1.82-1.41,3.26-2.68,4.24-1.41,1.09-3.22,1.34-4.74,1.52-.92,.11-2.79,.37-5.11-.03-1.53-.27-3.25-.74-5.03-1.13-1.67-.36-3.35-.87-5-1.26-1.8-.42-3.59-.55-5.08-.92-2.94-.73-3.27,.46-4.83-1.59-1.67-2.19-.51-2.41-.52-5.43,0-1.78,.38-3.72,.64-5.48,.33-2.27,.87-3.91,2.03-4.63Z"
          style="fill:#42210b;"/>
    <path d="M238.73,39.31c-2.69-.11-2.17-.06-5.23,.97-1.49,.5-3.18,1.26-5.03,1.95-1.61,.6-3.14,1.68-4.84,2.39s-3.3,1.44-4.89,2.21c-1.68,.82-3.32,1.59-4.76,2.48-1.71,1.06-3.47,1.81-4.56,2.92-1.55,1.58-2.3,3.41-1.9,4.99,.47,1.88,1.94,2.75,3.43,3.56s2.98,1.56,4.78,1.68,3.59,.13,5.19-.06c2.87-.35,2.57-.39,5.09-.94,2.72-.6,2.65-.9,5.38-1.43s2.75-.45,5.48-.98,2.8-.19,5.54-.72,2.93-.06,5.3-1.53c2.24-1.38,.11-2.08-.56-5.02-.36-1.55-.77-3.36-1.49-5.07-.67-1.6-1.45-3.33-2.54-4.69s-2.75-1.96-4.38-2.7Z"
          style="fill:#42210b;"/>
    <path d="M253.15,62.74c-2.44-.38-1.9,.18-4.79,.68-1.43,.25-3.16,.2-4.91,.59-1.55,.34-3.19,.75-4.79,1.21s-3.07,1.34-4.56,1.92c-1.66,.65-3.36,.99-4.6,1.79-1.64,1.06-3.02,2.3-3.42,3.64-.59,1.95-.63,3.75-.32,5.15,.4,1.82,1.51,3.37,2.78,4.35,1.41,1.09,3.33,1.25,4.85,1.42,.92,.11,2.81,.39,5.13-.02,1.53-.27,3.28-.62,5.06-1,1.67-.36,3.28-1.21,4.92-1.6,1.8-.42,3.57-.64,5.06-1.01,2.94-.73,3.66,.92,4.9-1.33,1.4-2.53-.14-2.56-.79-5.67-.38-1.81-.98-3.78-1.58-5.56-.78-2.27-1.79-3.87-2.94-4.59Z"
          style="fill:#42210b;"/>
    <path d="M162.43,22.31c1.71-2.03,1.98-2.67-1.22-4.19-1.08-.51-2.69-1.04-5.16-1.08-1.59-.03-3.38-.1-5.24-.16-1.73-.06-3.52,.34-5.24,.33-1.86-.01-3.63-.08-5.22,.05-2.2,.17-3.95,.41-5.02,1.04-1.42,.84-1.36,1.82,.76,3.95,1.79,1.73,1.11,1.16,4.43,1.7,1.32,.22,2.96,.5,4.97,.4,1.64,.96,1.71,2.49,.14,3.73-.62,.49-1.92,.45-3.82,.44-2.32,0-4.1,.34-5.33,.68-2.33,.65-2.86,2.1-1.04,4.07,1.2,1.3,3.21,1.6,4.96,1.55,2.3-.06,4.73-1.05,5.3-.34,.73,.91,1.17,2.65-1.35,3.65-.96,.39-2.35,.86-4.45,.98-1.92,.11-3.33,.4-4.17,.99-1.51,1.06-1.27,2.55,.1,3.51,.89,.62,2.2,.88,4.05,.73,1.15-.09,2.76,.35,4.61,.38,1.41,.02,2.97,.02,4.59,.08,1.51,.05,3.07-.04,4.61,0s3.14,.33,4.61,.32c1.69,0,3.26-.33,4.6-.44,2.3-.19,3.99-.55,4.37-1.25,.67-1.24-.52-2.23-2.41-3.08-1.16-.52-2.58-1.09-4.18-1.4-1.42-.28-2.92-.68-4.39-.76-3.24-.18-3.19-1.32-1.94-2.62,.99-1.03,2.65-2.13,4.52-2.13s3.73-1.05,5.09-2.21c1.84-1.57,2.5-3.16-.4-3.57-1.32-.19-2.77-.32-4.18-.4-1.55-.09-3.01-.49-4.16-.73-1.81-.37-2.9-1.02-2.01-2.7,1.02-1.92,2.74-1.66,4.5-1.26,1.65,.38,3.24,.77,4.7-.26Z"
          style="fill:#42210b;"/>
    <path d="M280.9,91.36c-1-8.65-9.64-7.61-9.64-7.61-4.66-12.6-17.76-4.78-17.76-4.78-11.11-10.72-24.24,0-24.24,0-11.16-7.87-14.87,4.36-14.87,4.36-9.98-15.01-22.61,.42-22.61,.42-8.09-2.18-7.99,6.61-7.99,6.61-8.55-6.65-14.92,.44-14.92,.44-8.99-8.68-17.02-6.03-20.45-4.19-3.42-1.84-11.46-4.48-20.45,4.19,0,0-6.38-7.09-14.92-.44,0,0,.1-8.78-7.99-6.61,0,0-12.64-15.42-22.61-.42,0,0-3.7-12.23-14.87-4.36,0,0-13.13-10.72-24.24,0,0,0-13.11-7.82-17.76,4.78,0,0-8.65-1.04-9.64,7.61-1,8.65,5.85,12.97,13.73,11.64,0,0-2.69,13.63,18.89,9.98,0,0,15.59,11.22,32.89,.62,0,0,20.77,13.12,38.76,.71,0,0,6.46,10.2,18.88,3.1,0,0,4.57,5.03,9.33,3.42,4.76,1.61,9.33-3.42,9.33-3.42,12.41,7.09,18.88-3.1,18.88-3.1,17.99,12.41,38.76-.71,38.76-.71,17.29,10.6,32.89-.62,32.89-.62,21.58,3.66,18.89-9.98,18.89-9.98,7.88,1.33,14.73-2.99,13.73-11.64Z"
          style="fill:#fff;"/>
</svg>
