<?xml version="1.0" encoding="UTF-8"?><svg id="accessories" xmlns="http://www.w3.org/2000/svg" viewBox="0 0 300 300"><defs><style>.cls-1{fill:none;}.cls-1,.cls-2,.cls-3{stroke-width:0px;}.cls-2{fill:#fcc900;}.cls-3{fill:#f5a500;}</style></defs><g id="component_10"><path class="cls-2" d="m234.51,48.59c.2-1.3.34-.95.55-2.58.1-.75.42-1.6.51-2.59.07-.81.55-1.69.58-2.63.03-.84-.58-1.74-.6-2.66-.02-.86.11-1.74.04-2.65s-.53-1.69-.65-2.58-.1-1.75-.29-2.61-.34-1.72-.61-2.56-.21-1.81-.56-2.62-1.24-1.35-1.68-2.12-.36-1.87-.9-2.58-1.76-.78-2.39-1.41-1.08-1.33-1.8-1.87-1.13-1.45-1.93-1.89c-.75-.41-1.78-.3-2.63-.63-.79-.31-1.53-.84-2.41-1.08s-1.66-.73-2.45-.89c-.91-.18-1.86.43-2.65.36-.94-.09-1.73-.13-2.51-.09-.95.05-1.92-.58-2.67-.35-.9.27-1.29,1.37-1.93,1.85-.71.52-1.43.88-1.89,1.6s-1.38,1.27-1.65,2.11c-.25.79-.37,1.72-.51,2.59s.31,1.77.24,2.63-.63,1.69-.69,2.54.22,1.76.15,2.59c-.09.9.06,1.81-.12,2.59-.21.92-.52,1.8-.95,2.45-.46.72-1.3,1.23-2.06,1.82-.68.53-1.26,1.34-2.08,1.82-.77.45-1.69.69-2.49,1.14s-1.92.39-2.67.88c-.78.52-.89,1.83-1.52,2.44-.67.65-1.92.84-2.3,1.65s.03,1.81.03,2.79c0,.81-.29,1.75.02,2.72.25.77.85,1.5,1.33,2.4.39.73.37,1.82.93,2.64.47.7,1.02,1.47,1.62,2.23.57.72,1.38,1.23,1.98,1.84.64.65,1.16,1.45,1.83,1.99.71.57,1.91.41,2.65.86.77.47,1.28,1.37,2.07,1.72s1.76.41,2.59.67,1.72.39,2.58.54,1.75.15,2.62.21,1.78.85,2.65.82,1.71-1.11,2.57-1.22,1.81.11,2.65-.06c.9-.18,1.93.24,2.74.02.91-.25,1.76-.61,2.54-.87.94-.33,1.58-1.18,2.28-1.48,1.51-.64,1.26-.37,2.51-.81,1.16-.42.89-.4,2.16-1.18.59-.37,1.3-.81,1.95-1.48.51-.53.85-1.29,1.32-2.06.39-.64.52-1.43.83-2.27.26-.71,1.1-1.31,1.28-2.18.16-.75-.28-1.66-.21-2.54Z"/><path class="cls-2" d="m243.9,56.82c1.23-.48,1.02-.13,2.56-.69.71-.26,1.41-1,2.37-1.29.78-.24,1.65-.52,2.56-.75.82-.21,1.8.06,2.7-.12.84-.17,1.76.05,2.66-.07s1.7-.4,2.59-.46,1.74.18,2.63.18,1.76-.43,2.64-.35,1.79-.02,2.66.15,1.73.42,2.58.69,1.65.65,2.46,1.02,1.71.59,2.46,1.07,1.16,1.39,1.84,1.98,1.64.84,2.24,1.52c.56.64.5,1.8,1.01,2.56.47.71,1.4,1.17,1.82,1.98s.29,1.82.61,2.56c.37.85.82,1.57,1.06,2.33.29.89.31,1.73.44,2.5.15.94.47,1.73.41,2.5-.07.93.18,1.94-.15,2.67-.36.8-1,1.57-1.61,2.17s-1.54.84-2.31,1.28c-.72.42-1.58.59-2.39.91s-1.66.36-2.48.61-1.54.88-2.35,1.11-1.55.89-2.34,1.14c-.87.28-1.66.49-2.38.83-.85.4-1.97.3-2.52.86-.6.61-1.02,1.54-1.44,2.41-.37.78-.5,1.72-.8,2.62-.28.85-.58,1.71-.85,2.59s-.41,1.8-.73,2.63c-.34.87-.83,1.66-1.29,2.4-.49.79-1.03,1.53-1.74,2.08s-1.51.9-2.47,1.11c-.79.17-1.7.35-2.72.25-.81-.08-1.61-.64-2.58-.92-.8-.22-1.79-.1-2.71-.47-.78-.31-1.75-.41-2.63-.84-.82-.4-1.53-1.02-2.26-1.48-.77-.48-1.13-1.51-1.79-2.04-.71-.57-1.48-.99-2.08-1.61-.63-.65-.91-1.52-1.43-2.21s-1.45-1.15-1.88-1.91-.73-1.63-1.06-2.43-.86-1.59-1.11-2.43.14-1.85-.02-2.71-.56-1.7-.64-2.56-.45-1.77-.46-2.63c-.02-.92.65-1.79.69-2.63.05-.94-.08-1.82.02-2.64.12-.99-.3-1.96-.16-2.71.3-1.61.79-1.2.96-2.51.16-1.22.38-.84.87-2.24.23-.66.19-1.52.71-2.3.41-.61,1.01-1.14,1.67-1.76.55-.51,1-1.25,1.75-1.73.64-.41,1.59-.3,2.4-.67.7-.31,1.17-1.31,2.01-1.57Z"/><path class="cls-3" d="m247.6,55.75c.11-1.27.06-1.07-.35-2.54-.2-.71-.32-1.64-.82-2.46-.4-.66-1.34-1-2-1.65-.56-.54-1.14-1.09-1.93-1.58-.67-.41-1.27-1.07-2.13-1.42-.73-.29-1.61-.33-2.5-.56-.77-.19-1.54-.71-2.44-.84s-1.79.31-2.59.33c-.91.03-1.82-.26-2.6-.04-.86.24-1.63.7-2.34,1.13-.75.45-1.48.95-2.07,1.56s-.9,1.47-1.35,2.2-.76,1.51-1.08,2.3-.75,1.56-.94,2.38c-.21.86-.6,1.69-.69,2.5-.1.92.13,1.82.15,2.6.03,1.05.29,1.88.49,2.48.25.76.52,1.58.98,2.38.41.72.84,1.48,1.41,2.18.53.65,1.18,1.24,1.84,1.83s1.29,1.14,2.04,1.61,1.4,1.07,2.23,1.4,1.71.35,2.58.53c1.84.53,2.51.87,3.51-.97.26-.48.24-1.49.4-2.63.11-.78.14-1.69.37-2.59.21-.82.41-1.71.85-2.49.41-.73,1-1.43,1.69-2.03.61-.53,1.48-.73,2.37-1.08.73-.29,1.52-.64,2.48-.76,1.11-.33.85-.53,1.57-1.65.35-.55.81-1.2.9-2.12Z"/><path class="cls-3" d="m227.22,43.08c.26-1.31-.01-1.09-.21-2.67-.09-.78-.14-1.69-.32-2.65-.15-.84-.65-1.65-.88-2.54s-.33-1.77-.64-2.59c-.33-.86-.64-1.73-1.09-2.45-.5-.81-1.25-1.34-1.92-1.84-.72-.53-1.48-1.08-2.42-1.08-1.2,0-2.05.52-2.73.99-.83.58-1.2,1.39-1.38,2.38-.17.9-.23,1.87.01,2.87s.66,1.85,1.15,2.66c.55.91,1.26,1.6,2,2.06,1.22,1.12,1.03,1.32,2.19,2.5s1.28,1.07,2.39,2.3c.85.94.9,1.44,1.95,1.62.64.11,1.38-.32,1.89-1.58Z"/><path class="cls-3" d="m219.71,46.27c-.82-.87-.74-.73-1.88-1.47-.62-.4-1.35-.81-2.09-1.16s-1.53-.67-2.26-.79c-.87-.13-1.59.13-2.19.64-.83.72-1.42,1.5-1.41,2.33,0,.91.62,1.74,1.41,2.35.66.51,1.47.94,2.53.94,1.15.88,1.2,1.61-.79,2.09-.71.17-1.66.52-2.51,1.01s-1.45,1.13-1.76,1.94c-.28.72-.3,1.52.31,2.53.44.73,1.17.95,2.08.88.7-.05,1.45-.4,2.27-.74.72-.3,1.59-.43,2.29-.83.74-.43,1.37-1.01,1.98-1.42,1.16-.79.99-.68,1.87-1.51.78-.73,1.11-.85,1.01-1.84-.05-.54-.54-1.08-1.48-1.51.99-.66,1.69-.07,1.67-1.37,0-.5-.34-1.16-1.05-2.1Z"/><path class="cls-3" d="m247.11,62.89c.95-.93.82-.72,2.25-1.42.7-.34,1.57-.65,2.46-1.03.79-.33,1.67-.55,2.53-.84s1.67-.7,2.53-.88c.9-.19,1.82-.32,2.67-.33.95-.02,1.79.37,2.57.67.83.31,1.71.62,2.22,1.41.65,1,.93,2,.91,2.82-.03,1.01-.72,1.77-1.45,2.47-.66.63-1.48,1.14-2.44,1.48s-1.88.76-2.83.79c-1.06.04-2.03-.42-2.83-.79-1.61-.41-1.69-.02-3.31-.36s-1.58-.57-3.21-.82c-1.25-.2-1.6-.1-2.32-.88-.44-.48-.52-1.17.26-2.28Z"/><path class="cls-3" d="m248.51,70.67c1.17.21,1.01.34,2.24.89.67.3,1.38.76,2.08,1.19s1.34.96,1.83,1.51c.59.65.94,1.35.84,2.13-.15,1.09-.66,1.88-1.36,2.33-.77.49-1.71.48-2.65.15-.79-.27-1.54-.87-2.12-1.76-1.36-.48-2.2.12-1.51,2.06.24.69.57,1.63.62,2.61s-.12,1.85-.62,2.55c-.45.62-1.14.95-2.32.99-.85.03-1.44-.33-1.88-1.14-.34-.62-.5-1.43-.66-2.3-.14-.77-.46-1.57-.51-2.38-.05-.86.03-1.7.04-2.43.02-1.4-.12-1.24.09-2.43.19-1.05.39-1.23,1.27-1.69.48-.25,1.06-.26,1.94.3.01-1.19-.8-1.46.3-2.15.43-.27,1.19-.52,2.36-.44Z"/></g><rect class="cls-1" y="1" width="300" height="300"/></svg>