<svg xmlns="http://www.w3.org/2000/svg" viewBox="0 0 300 300">
    <path fill="#c96444" d="M94.12 54.51l-1.33.09-.49 1.68-.59-1.71-.99-2.79 1.11-2.96 1.24-2.89 1.61-2.72 1.2-2.88 1.13-2.93 1.56-2.71 2.06-2.41 1.96-2.47 1.87-2.51 1.29-3.08 3.09-1.38 2.4-2 2.18-3.3 3.1-2.17 2.68-1.95 3.07-1.24 2.57-2.15 3.73-.41 3.12-1.69 2.54-1.33 3.39-.39 3.23-.77 3.14-1.29 3.61.02 3.39-1.38 3.62.78 3.45-1.5 3.05 1.14 2.99-.88 2.99.77 3.27.51 3.34-.01 3.32.08 3.27.56 4.04.49 3.7 1.91 3.69 1.2 3.89.36 3.12.95 3.31.33 2.97 1.4 3.29.55 2.9 1.56 3.19.91 2.71 1.92 2.56 2.08 3 1.83 2.66 2.29 3.07 1.89 2.59 2.31 2.27 2.64 1.08 3.54 3.03 2.2 1.6 3.14 1.22 3.3 1.02 3.36 1.52 3.18.11 4.81 1.31 3.9.42 4.03-.25 2.88.74 2.8-1 3.88.81 3.78-.44 3.38.1 3.38-.79 2.65.67 2.69-.3 3.36.13 3.42-1.95-1.98-1.27-3.1-2.35-1.54-3.15-1.53-3.42-.89-2.69-2.53-3.35-1.01-3.18-1.16-3.24-.99-2.89-1.93-3.18-1.15-3.35-.72-3.27-.91-3.13-1.3-3.01-1.61-3.3-.84-3.09-1.41-3.46-.43-3.24-1.07-3.19-1.26-2.74-.73-2.83-.45-2.66-.99-2.74-1.53-3.04-.47-4.6-.54-2.95-.65-2.32-1.68-2.61-.39-3.09.55-2.89-.55-2.77-1.34-3.02.21-3.75-1.24-3.84-.54-.39-.33-3.09.67-2.96-.38-2.89-1.08-3.11.49-3.04-.38-2.59.55-2.56-.25-4.64-1-3.58.78-3.55-.19-3.56.39-2.81-.13-2.93-.11-2.76.89-.09-.25z"/>
    <path d="M212.16 24.99c-.2 1.22-.47 2.43-.79 3.62-.7 2.56-1.46 5.1-2.21 7.64a292.4 292.4 0 01-2.01 6.56c-.8 2.49-1.63 4.97-2.49 7.44-1.59 4.56-3.22 9.12-4.82 13.68-.12.34-.23.7-.26 1.05-.06.72.29 1.29.86 1.49.69.24 1.31.1 1.76-.48.2-.25.34-.56.45-.86 1.03-2.8 2.08-5.59 3.04-8.41 1.65-4.85 3.29-9.71 4.85-14.59 1.11-3.46 2.08-6.96 3.11-10.44.89-3 1.59-6.05 2.09-9.15.15-1.59.27-3.19.44-4.78.07-.68.16-1.36.23-2.03-.89-.47-1.79-.92-2.7-1.34-.06.43-.1.86-.16 1.3-.43 3.1-.89 6.2-1.39 9.3zM146.73 17.02c-2.02 2.85-3.77 5.89-5.39 8.99-3.17 6.07-5.99 12.3-8.16 18.8-.37 1.1-.68 2.22-1.05 3.42.01.21 0 .5.06.78.12.62.43 1.06 1.1 1.2.67.14 1.15-.13 1.51-.64.19-.26.29-.58.39-.89.73-2.21 1.35-4.46 2.2-6.62 2.15-5.45 4.54-10.8 7.36-15.95a78.6 78.6 0 019.07-13.22c2.94-3.46 5.86-6.93 8.77-10.42-1.28 0-2.56.03-3.83.1a202.36 202.36 0 01-4.07 4.72c-2.8 3.12-5.53 6.29-7.96 9.71zM231.79 53.59c-.66 2.8-1.59 5.52-2.7 8.17-1.21 2.88-2.52 5.73-3.81 8.58-.52 1.16-1.12 2.29-1.66 3.44-.39.84-.15 1.66.58 2.09.62.37 1.51.14 2.02-.54.15-.2.26-.44.37-.67 2.14-4.34 4.3-8.68 5.92-13.24 1.02-2.87 1.91-5.8 2.69-8.74.65-2.42 1.08-4.9 1.56-7.36.49-2.54.98-5.08 1.35-7.63 0-.05.01-.09.02-.14-.73-1.44-1.52-2.86-2.4-4.22-.7 4.51-1.49 9-2.47 13.45-.5 2.27-.95 4.55-1.48 6.82zM118.15 24.1c-3.14 5.09-5.97 10.33-8.08 15.94-.91 2.42-1.59 4.9-2.1 7.44-.05.36-.13.72-.16 1.08-.03.47-.08.96 0 1.41.11.56.28 1.13.56 1.62.32.56 1.39.79 1.96.53.62-.28.92-.96.69-1.75-.21-.72-.25-1.43-.09-2.16.25-1.14.44-2.29.77-3.4a63.95 63.95 0 014.02-10.13c3.2-6.44 7.03-12.49 11.39-18.21.95-1.24 1.91-2.48 2.91-3.69 1.99-2.41 4.17-4.63 6.48-6.73-.74.22-1.47.46-2.2.75-.88.35-1.78.65-2.68.93-.54.17-1.07.35-1.59.54-.51.54-1.01 1.09-1.5 1.65-3.86 4.43-7.3 9.17-10.39 14.16zM176.71 22.82c-1.35 3.76-2.61 7.55-3.88 11.34-.79 2.38-1.55 4.77-2.26 7.17-.45 1.53-.8 3.09-1.17 4.65-.45 1.91-.86 3.83-1.29 5.74-.13.57-.25 1.13-.41 1.69-.19.69-.2 1.37.02 2.04.25.75.93 1.16 1.63.83.78-.36 1.55-.19 2.37-.3.04.22.07.4.11.56.23.85.72 1.28 1.56 1.2.37-.04.73-.27 1.06-.47.67-.42 1.29-.43 1.9.06.22.18.38.44.61.62.74.61 1.63.49 2.16-.32.19-.3.35-.65.42-.99.41-2.07.79-4.14 1.17-6.22.07-.36.1-.72.19-1.08.52-2.15 1.05-4.3 1.58-6.45.57-2.29 1.08-4.6 1.76-6.86 1.17-3.89 2.41-7.77 3.69-11.63 1.24-3.7 2.91-7.21 4.75-10.65 1.01-1.89 1.89-3.84 2.81-5.78-2.45-.64-4.92-1.22-7.39-1.8-1.13-.27-2.26-.55-3.39-.82-.06.11-.13.21-.19.32-3.33 5.38-5.72 11.2-7.84 17.13z" fill="#ed9174"/>
    <path fill="#ffe4cb" d="M245.22 91.24l-3.95-8.8-2.74-9.37-5.45-8.05-4.8-8.42-6.1-7.54-5.63-7.92-7.09-6.65-8.1-7.33-9.28-5.72-9.54-5.23-9.74-5.11-10.68-2.6-10.66-1.56-10.75-.81-10.43-3.06-10.74-.88-10.73-.84-10.77-.21L87.26.2l-10.8.9-10.47 2.8L56.64 9l-2.33 9.56 2.26 10.01 4.97 8.98 5.04 8.92 6.44 8 5.58 8.57 7.04 3.84 8.41-2.75 10.26-2.6 10.52-1.12 10.57.3 10.53-.33 10.6-.08 10.51 1.33 10.08 3.44 10.23 2.43 10.49 1.76 9.96 3.57 9.4 4.91 9.97 3.52 9.05 5.5 9.21 5.09 8.97 5.51 1.12-1.4-.3-4.72z"/>
    <path d="M139.86 18.34c4.18.55 7.61.95 11.03 1.47 3.23.49 6.47 1.04 9.67 1.71 4.2.88 8.38 1.85 12.54 2.89 2.5.63 4.96 1.44 7.41 2.24 3.49 1.13 7.03 2.18 10.43 3.54 3.75 1.49 7.4 3.25 11.05 4.98 2.89 1.37 5.73 2.86 8.58 4.34 3.69 1.91 7.26 4.03 10.61 6.5 1.76 1.3 3.57 2.52 5.3 3.85.86.66 1.63 1.45 2.39 2.23.49.51.57 1.17.21 1.82-.38.67-1.19.93-1.88.58-.29-.15-.58-.33-.8-.56-1.44-1.52-3.19-2.65-4.88-3.85-2.11-1.5-4.23-2.98-6.4-4.38-3.28-2.12-6.77-3.85-10.26-5.59-3.06-1.53-6.09-3.15-9.21-4.55-3.08-1.39-6.22-2.7-9.42-3.77-4.89-1.64-9.84-3.13-14.82-4.51-3.6-1-7.28-1.72-10.94-2.52-1.99-.43-4.01-.73-6.01-1.11-7.38-1.41-14.86-2.08-22.33-2.78-3-.28-6.03-.4-9.04-.55-3.12-.15-6.25-.29-9.38-.35-3.42-.07-6.83-.08-10.25-.08-3.27 0-6.54.02-9.81.11-6.7.19-13.37.62-19.97 1.86-4.72.89-9.48 1.61-14.09 3-1.57.47-3.16.85-4.75 1.26-.31.08-.65.12-.97.11-.55 0-1.03-.2-1.18-.78-.14-.55-.11-1.11.38-1.5.28-.22.61-.4.95-.5 3.08-.9 6.13-1.88 9.24-2.62 3.43-.82 6.91-1.45 10.38-2.12 3.97-.76 7.98-1.23 12.02-1.49 2.65-.16 5.3-.25 7.95-.35 1.96-.08 3.92-.14 5.89-.17 1.56-.03 3.13 0 4.69 0 2.07.01 4.14.02 6.22.06 1.89.03 3.78.07 5.67.14 3.2.12 6.4.26 9.59.39.07 0 .15 0 .22.01 2.98.23 5.95.47 8.93.69 1.92.14 3.85.26 5.02.34z" fill="#ed9174"/>

</svg>