<svg xmlns="http://www.w3.org/2000/svg" id="glasses" viewBox="0 0 300 300"><defs>
    <style>.cls-2{fill:#00913a}.cls-3{fill:#fff}.cls-4{fill:#f39800}.cls-5{fill:#c30d23}</style></defs>
    <path d="M147.26 17.9c-2.16 0-4.38 1.18-6.52 1.28s-4.17 2.35-6.31 2.56-4.33-.07-6.45.23-3.84 2.79-5.95 3.2-5.25-3.87-7.34-3.37-3.22 4.75-5.28 5.35-3.71 2.26-5.74 2.97-4.64-.32-6.64.48-3.73 2.13-5.68 3.03-5.54-1.46-7.45-.47-3.26 3.21-5.12 4.29-2.88 3.59-4.69 4.75-5.28-.02-7.03 1.23-3.15 3.16-4.84 4.49-3.69 2.45-5.32 3.86-2.83 3.43-4.39 4.91-1.37 4.75-2.85 6.31-4.91 1.39-6.32 3.02.14 5.7-1.19 7.39-3.17 2.91-4.42 4.66-5.56 1.46-6.73 3.27 1.46 5.95.38 7.82-3.93 2.71-4.92 4.62-2.11 3.78-3 5.74.43 4.82-.37 6.82-2.97 3.42-3.67 5.46-4.04 3.27-4.65 5.34 2.1 5.05 1.6 7.14-.25 4.28-.65 6.4-3.03 3.82-3.34 5.96 2.68 4.59 2.48 6.75-1.34 4.11-1.44 6.27-3.48 4.22-3.48 6.38 2.25 4.29 2.35 6.43 2.08 4.11 2.28 6.24-3.44 4.73-3.14 6.85.12 4.44.52 6.55 3.86 3.61 4.36 5.69 1.19 4.1 1.8 6.15 2.75 3.55 3.45 5.58c.71 2.04.76 4.2 1.56 6.19s.98 4.18 1.88 6.14-.72 5.15.27 7.06 2.84 3.42 3.91 5.28 1.68 4.08 2.84 5.89 2.98 3.24 4.23 4.99 4.79 1.75 6.12 3.44-.55 6.04.86 7.66 3.72 2.53 5.2 4.09 2.5 3.68 4.05 5.17 3.16 3.05 4.78 4.46 4.26 1.67 5.96 3.01 3.3 2.8 5.06 4.05 4.05 1.71 5.86 2.87 4.65.52 6.51 1.6 2.06 5.13 3.97 6.12 5.05-.6 7.01.3 3.12 3.55 5.12 4.36 3.61 2.75 5.65 3.46 5.22-2.27 7.29-1.66 3.28 4.24 5.38 4.74 4.23.99 6.35 1.4 4.42-.3 6.56 0 4.08 2.42 6.23 2.63 4.44-1.26 6.6-1.15 4.3 2.08 6.46 2.08 4.42.22 6.56.12 4.08-3.81 6.21-4.01 4.08-1.49 6.2-1.79 4.46.95 6.57.55 4.05-1.45 6.13-1.95 4.2-.76 6.26-1.36 5.07 1.62 7.1.92 2.96-4.47 4.95-5.27 4.36-.68 6.32-1.57 4.04-1.55 5.95-2.54 4.46-.91 6.32-1.99 3.76-2.24 5.57-3.4 2.36-4.22 4.11-5.47 2.69-3.49 4.37-4.82 4.05-1.75 5.68-3.16 3.01-3.03 4.56-4.51 2.29-3.69 3.78-5.25 3.19-2.8 4.6-4.42 5.45-1.08 6.78-2.77 0-5.39 1.25-7.14 3.67-2.67 4.84-4.48.54-4.66 1.62-6.52 6.08-1.59 7.07-3.51-.87-5.26.02-7.22 4.53-2.78 5.33-4.78 1.45-4.17 2.16-6.2-2.85-5.42-2.24-7.49.71-4.14 1.21-6.24 2.46-3.77 2.86-5.89 4.17-3.69 4.48-5.83.69-4.36.9-6.51-1.45-4.48-1.35-6.64 1.12-4.32 1.12-6.49-4.01-4.21-4.11-6.35.69-4.29.49-6.42-1.5-4.08-1.81-6.2 3.53-4.95 3.13-7.05-1.03-4.27-1.54-6.36-2.06-3.97-2.67-6.03-2.15-3.85-2.85-5.88-3.57-3.2-4.37-5.19-1.75-3.8-2.64-5.75-.72-4.33-1.71-6.24-1.03-4.3-2.1-6.16-1.92-3.86-3.08-5.67-3.62-2.7-4.87-4.45-2.13-3.71-3.46-5.4-3.73-2.39-5.14-4.01-1.19-4.64-2.68-6.2-4.62-1.37-6.18-2.85.39-6.82-1.24-8.23-3.88-2.22-5.57-3.55-5.42.05-7.17-1.2-3.04-3.08-4.85-4.25-2.12-4.84-3.99-5.92-4.3-1.26-6.22-2.25-3.63-2.53-5.59-3.43-4.91.48-6.92-.32-3.46-3.05-5.5-3.75-3.85-2.31-5.92-2.92-5.11 2.45-7.21 1.94-3.61-3.51-5.73-3.91-4.14-1.66-6.28-1.97-4.63 2.53-6.78 2.33-4.07-3.49-6.23-3.59-4.37-.88-6.54-.88Zm0 236.9c-2.17 0-4.21 1.05-6.34.89s-4.5 1.7-6.62 1.38-4.19-1.24-6.27-1.72-4.84 1.04-6.88.41-2.49-5.92-4.48-6.7-5.46 1.85-7.39.92-4.47-1.05-6.33-2.13-2.78-3.87-4.55-5.08-3.88-2.09-5.56-3.43-.86-5.5-2.44-6.96-3.92-1.96-5.38-3.53-4.06-2.13-5.4-3.81-.21-5.08-1.42-6.86-2.85-3.08-3.92-4.95-1.64-3.81-2.57-5.75-2.36-3.49-3.15-5.5-3.79-3.18-4.42-5.25 1.38-4.76.9-6.87-4.6-3.5-4.92-5.64.17-4.45.01-6.61 3.49-4.36 3.49-6.53-4.32-4.45-4.16-6.58 2.48-4.12 2.8-6.24.9-4.19 1.37-6.28c.48-2.11-1.22-4.84-.59-6.89s2.82-3.67 3.6-5.66 4.19-2.79 5.12-4.72-1.07-5.38 0-7.23 1.67-4.15 2.88-5.92 4.37-2.16 5.71-3.84.33-5.49 1.79-7.07 3.8-2.5 5.38-3.96 5.37-.34 7.05-1.69 2.07-4.36 3.84-5.57 2.7-3.97 4.57-5.05 5.61 1.37 7.56.43 4-1.22 6-2.01 2.97-4.36 5.03-5 4.15-1.35 6.26-1.83 4.04-2.46 6.18-2.78 4.5.13 6.66-.03 4.42.45 6.59.45 4.2 2.92 6.33 3.08 4.31-.5 6.42-.19 4.06 1.34 6.14 1.81 4.29.34 6.34.97 5.08-1.31 7.08-.52 2.29 5.52 4.22 6.45 4.26.92 6.11 2 3.18 2.84 4.95 4.05 3.35 2.48 5.03 3.82 4.21 1.57 5.79 3.04 2.93 3.11 4.39 4.68 3.55 2.61 4.89 4.29 4.31 2.29 5.52 4.06-.54 5.48.54 7.34 4.56 2.47 5.5 4.41 0 4.75.78 6.75.28 4.38.91 6.44 4.86 3.17 5.34 5.28-2.26 4.84-1.94 6.98.53 4.18.69 6.34c.16 2.13 1.31 4.21 1.31 6.37s-1.95 4.19-2.11 6.32 1.21 4.41.9 6.52-2.59 3.82-3.07 5.9-1.26 3.95-1.89 6 2.03 5.23 1.25 7.23-.74 4.52-1.68 6.45-3.43 3.18-4.5 5.04-1.75 4.07-2.96 5.84-2.78 3.4-4.12 5.07-5.02 1.3-6.48 2.87-.69 5.34-2.27 6.8-3.92 2.1-5.6 3.45-3.59 2.36-5.37 3.57-4.22 1.23-6.09 2.31-3.66 2.03-5.6 2.96-2.98 3.82-4.99 4.6-3.71 2.69-5.77 3.33-4.52.07-6.63.55-4.21 1.15-6.35 1.47-4.25 1.6-6.41 1.76-4.43-4.34-6.6-4.34Z" style="fill:#f8b62d"/>
    <path d="M21.85 92.72s2.35-.28 6.58-.64c1.85-.16 4.07-.32 6.6-.56 2-.19 3.96-2.94 6.34-3.18 2.06-.21 4.27-.23 6.59-.48 2.09-.22 4.33-.07 6.61-.33 2.11-.24 4.52 1.33 6.78 1.06 2.12-.26 4.29-.76 6.54-1.04s4.03-2.79 6.27-3.08 4.62 1.57 6.84 1.26 3.76-4.58 5.98-4.9 4.46.32 6.67-.02 4.68 1.59 6.87 1.24 4.28-1.02 6.47-1.38 4.49.2 6.68-.18 3.85-3.43 6.03-3.83 4.45-.06 6.63-.47 4.18-1.5 6.35-1.93 4.21-1.33 6.37-1.78 4.95 2.11 7.11 1.64 4-2.35 6.15-2.84 4.07-1.94 6.21-2.45 4.24-1.2 6.37-1.73 4.06-1.84 6.19-2.41 4.37-.67 6.49-1.26 4.17-1.4 6.28-2.02 4.92 1 7.01.35 3.62-3.17 5.7-3.86 4.01-1.87 6.07-2.6 4.68-.04 6.72-.81 4.76-.06 6.78-.88 4.03-1.96 6.02-2.84 2.85-4.43 4.81-5.37 4.23-1.79 6.15-2.79c3.76-1.27 5.3-.68 8.57 1.99 1.57 1.28 1.39 4.36 1.93 7.89.19 1.21-1.36 1.16-4.36 2.94-1.56.93-2.44 3.87-4.75 4.91-1.8.82-3.46 2.64-5.68 3.52-1.9.75-4.96-1.13-7.14-.35-1.96.71-3.81 1.96-5.98 2.69-1.99.67-4.24.77-6.4 1.46-2.02.64-4.33.49-6.48 1.15-2.04.62-3.98 1.69-6.12 2.32s-3.84 2.27-5.98 2.87-4.26.83-6.4 1.41-4.51-.12-6.65.44-3.78 2.7-5.92 3.25-4.32.63-6.46 1.15-3.96 2.11-6.1 2.61-4.77-1.31-6.91-.82-4.11 1.53-6.25 2-4.14 1.45-6.28 1.9-3.99 2.23-6.13 2.67-4.45 0-6.6.43-4.11 1.73-6.26 2.13-4.45-.02-6.6.37-4.59-.88-6.74-.51-3.79 3.78-5.94 4.13-4.2 1.52-6.36 1.86-4.52-.53-6.68-.22-4.69-1.94-6.85-1.65-3.79 4.84-5.95 5.11-4.76-2.79-6.91-2.55-4.18 2.25-6.33 2.46-4.43-.16-6.58.02-4.33 1.25-6.48 1.4-4.37 1.31-6.51 1.41-4.56-4.03-6.7-3.98-4.31 2.81-6.44 2.81c-2.79.27-2.7-.31-5.64-.17-1.96.1-3.96.03-5.49-.38-2.05-.55-1.5-1.31.13-3.74.23-2.52-4.29-3.95-2.92-6.01.69-1.04 3.65 1.34 6.07 1.15ZM11.94 181.67c2.77-1.55 2.21-.44 6.09-.77 1.82-.15 3.95-.42 6.3-.68 1.97-.22 4.08-.56 6.28-.87 2.03-.28 4.13-.64 6.26-1.01s4.1-1.04 6.16-1.49 4.22-.67 6.21-1.23c2.12-.59 4.35-.69 6.23-1.4 2.13-.8 4.19-2.39 5.87-3.36 2.1 2.84.06 3.52.33 7.26.17 2.42.56 5.34.94 7.32-1.74 2.54-2.58.78-6.22 1.84-1.7.49-3.74.99-5.96 1.58-1.86.49-3.89.94-6 1.44-1.93.46-3.95.94-6.01 1.37s-4.1.36-6.14.71-4.06.74-6.08.99-4.12.68-6.12.79c-2.14.12-4.25.08-6.2-.01-3.01-1.88-2.87-2.67-3.76-6.1-.55-2.12.14-4.17 1.83-6.38ZM222.19 129.17c-1.02 2.65 1.96 2.35 3.27 5.23.75 1.63.91 3.75 1.64 5.48.88 2.07 1.92 4.24 2.29 5.53 3.21.72 2.54-1.09 6.41-2.24 1.83-.54 3.8-1.71 6.14-2.45 1.97-.62 4.19-.93 6.38-1.67 2.02-.69 4.35-.75 6.46-1.52s4.12-1.58 6.16-2.41 3.94-2.12 5.9-3.02c2.09-.95 4.22-1.67 6.05-2.67 2.1-1.15 4.06-2.3 5.65-3.48 2.12-1.57 3.39-3.51 4.2-5.08 1.34-2.57 1.93-2.84 1.88-5.51-.03-1.82-1.03-3.91-3.51-4.54-1.35-.35-3.25.34-5.78.8-1.92.35-4.12.11-6.19.8-1.87.63-3.83 1.38-5.82 2.2-1.84.76-3.45 2.27-5.39 3.13s-3.65 1.84-5.58 2.7-4.09.87-6.02 1.68-3.5 2.33-5.46 3.05-4.17.5-6.16 1.1-3.83 1.54-5.86 1.99-4.6.63-6.67.89ZM90.11 236.01c-3.2-.53-2.05.86-5.82 2.43-1.69.71-3.57 1.93-5.9 2.74-1.87.65-4.13.71-6.37 1.34-1.96.55-4.13.75-6.34 1.24-2.02.45-4.07 1.15-6.29 1.5-2.07.33-4.23.31-6.44.54-2.09.21-4.26.6-6.48.69-2.56.59-3.25 1.27-4.14 3.47-.5 1.24.33 2.63 2.09 4.55 1.12 1.22 2.91 2.35 5.88 2.93 1.94.37 4.21.25 6.83.26 2.1 0 4.39.28 6.87 0 2.14-.23 4.35-.86 6.75-1.33 2.15-.41 4.41-.74 6.74-1.35 2.13-.57 4.51-.65 6.79-1.4 2.11-.69 4.33-1.39 6.55-2.25 2.08-.81 4.04-2.13 6.2-3.09 2.04-.91 3.66-1.78 5.77-2.84-1.38-3.82-2.7-2.01-6.34-4.62-2.11-1.51-4.45-2.98-6.36-4.81ZM230.82 190.67c2.42-2.04 2.68-.33 6.44-1.36 1.76-.48 3.75-1.3 6.02-1.96 1.9-.55 3.94-1.15 6.07-1.81 1.96-.6 4.23-.48 6.28-1.15s4.01-1.36 6.01-2.06 3.81-2 5.75-2.75c2.04-.79 4.35-.81 6.2-1.63 2.07-.92 3.49-2.87 5.2-3.8 2.15-1.17 4.1-2.12 5.42-3.27 2.85-1.28 3.2-.72 3.61 4.04.13 1.46.17 3.41-.46 6.15-.39 1.72-1.35 3.64-3.22 5.34-1.38 1.25-3.13 2.53-5.13 3.74-1.68 1.02-3.89 1.36-5.9 2.34-1.81.88-3.41 2.47-5.42 3.31-1.89.79-3.92 1.42-5.94 2.17s-4.14.87-6.15 1.54-3.97 1.41-5.97 2.02-3.84 2.01-5.83 2.56-4.41.04-6.39.53c-2.15.54-4.16 1.18-6.09 1.61-2.25.5-4.52 1.61-6.37 1.95-1.79-2.38.8-2.24 2.07-5.91.54-1.57 1.91-3.2 2.69-5.37.61-1.69.35-4.2 1.11-6.23ZM222.14 273.21c1.42-3.62.94-4.55-1.59-6.75-1.36-1.19-3.67-2.41-7.4-.7-1.56.72-3.12 2.7-5.5 3.91-1.79.91-4.18 1.14-6.32 2.24-1.87.96-3.93 1.81-6 2.86-1.92.97-3.33 3.14-5.37 4.13s-4.17 1.51-6.21 2.45-4.02 1.9-6.05 2.77-4.33 1.23-6.36 2.02-4.3 1.26-6.35 1.93c-2.2.72-4.27 1.46-6.32 1.96-2.31.56-4.5 1.22-6.53 1.42-2.45 1.61-3.07 2.93 1.44 3.72 1.26.22 2.97.1 5.68-.19 1.96-.21 4.25-.08 6.77-.42 2.07-.29 4.46.26 6.86-.18 2.1-.39 4.22-1.41 6.54-1.96 2.11-.5 4.45-.55 6.72-1.2 2.1-.61 3.99-2.16 6.2-2.93 2.07-.72 4.48-.75 6.64-1.63 2.04-.83 3.71-2.67 5.81-3.65 2-.93 4.31-1.36 6.36-2.45s3.58-2.75 5.57-3.94 3.48-2.12 5.41-3.4Z" class="cls-4"/>
    <path d="M47.87 127.19c0 2.27-.68 4.32-1.74 6.16s-2.58 3.48-4.47 4.57-3.92 1.69-6.2 1.69-4.38-.6-6.22-1.66-3.3-2.75-4.4-4.64-1.82-3.86-1.82-6.13.78-4.28 1.84-6.12 2.37-3.76 4.26-4.85 4.06-1.5 6.33-1.5 4.45.52 6.29 1.58 3.32 2.82 4.41 4.71 1.71 3.9 1.71 6.18ZM273.64 162.47c0 2.27-.77 4.45-1.83 6.28s-2.77 3.4-4.66 4.5-3.95 1.64-6.23 1.64-4.51-.38-6.34-1.44-3.56-2.74-4.66-4.64-1.71-4.08-1.71-6.35 1.06-4.28 2.13-6.11 2.35-3.79 4.24-4.88 4.08-1.45 6.35-1.45 4.38.62 6.21 1.69 3.45 2.66 4.54 4.55 1.96 3.94 1.96 6.21ZM126.68 269.25c0 2.47-1 4.69-2.63 6.31s-3.83 2.78-6.31 2.78-4.78-1.06-6.4-2.69-2.7-3.93-2.7-6.4 1.16-4.7 2.78-6.32 3.85-2.53 6.32-2.53 4.72.89 6.35 2.51 2.59 3.87 2.59 6.35ZM194.14 45.31c0 2.64-1.03 5.01-2.27 7.14s-2.83 4.3-5.03 5.57-4.7 1.76-7.34 1.76-5.02-.86-7.15-2.09-4.38-2.79-5.66-4.99-1.74-4.75-1.74-7.39.74-5.13 1.98-7.26 3.01-4.23 5.21-5.5 4.73-1.59 7.37-1.59 5.04.69 7.17 1.92 4.23 2.91 5.5 5.11 1.96 4.68 1.96 7.32Z" class="cls-3"/>
    <path d="M91.95 39.27c3.34 0 1.49 2.82 2.97 5.82s.4 3.82 3.1 5.79 3.1 1.03 6.41 1.51 5.42-2.49 6.45.69-2.15 2.29-4.55 4.62-3.93 1.41-4.97 4.59.66 3.35 1.22 6.65 4.04 4.82 1.34 6.78-3.13-1.72-6.09-3.27-2.55-3.33-5.89-3.33-3 1.65-5.96 3.21-3.3 5.33-6.01 3.37.75-3.47 1.32-6.76 2.04-3.4 1.01-6.57-2.4-2.27-4.8-4.6-5.57-1.51-4.54-4.69 3.17-.35 6.47-.83 4.09 1.1 6.79-.86 1.93-3.03 2.65-6.3c.78-3.56-.28-5.8 3.06-5.8Z" class="cls-5"/>
    <path d="M238.09 84.03c2.68 0 1.19 2.4 2.37 4.8s.06 3.42 2.23 4.99 2.76.37 5.41.76 4.47-1.95 5.3.6-2.02 1.73-3.94 3.6-2.73 1.37-3.55 3.91.13 2.62.59 5.25 3.15 3.56.99 5.13-2.41-.89-4.78-2.13-1.93-2.98-4.61-2.98-2.4 1.42-4.77 2.67-2.54 4.13-4.7 2.55.36-2.65.81-5.29 1.88-2.73 1.06-5.28-2.08-1.74-3.99-3.61-4.59-1.31-3.77-3.85 2.68-.41 5.33-.79 3.21.93 5.37-.64 1.88-2.25 2.45-4.86c.63-2.92-.46-4.83 2.22-4.83ZM59.35 219.12c3.5 0 .25 4.17 3.08 6.23s6.01-2.39 7.1.94-4.15 1.58-5.24 4.91 4.06 4.82 1.22 6.88-2.66-3.05-6.16-3.05-3.38 5.17-6.21 3.11 2.44-3.64 1.36-6.97-6.34-1.53-5.25-4.86 4.51 1.48 6.86-1.12c2.6-2.87-.26-6.07 3.25-6.07Z" class="cls-2"/>
    <path d="M222.76 233.89c3.5 0 .16 4.45 2.99 6.51s5.79-2.42 6.87.91-3.95 1.45-5.03 4.78 4.22 4.94 1.39 7-2.73-3.16-6.23-3.16-3.39 5.21-6.22 3.15 2.41-3.64 1.32-6.97-6.2-1.51-5.12-4.84 4.49 1.52 6.81-1.11c2.61-2.95-.3-6.27 3.21-6.27Z" class="cls-5"/></svg>
