<svg id="accessories" xmlns="http://www.w3.org/2000/svg" viewBox="0 0 300 300">
    <defs>
        <style>
            .cls-1{fill:none}
            .cls-1,.cls-2,.cls-3{stroke-width:0}
            .cls-2{fill:#0e5580}
            .cls-3{fill:#1e79af}
        </style>
    </defs>
    <path fill="#1e79af" d="M217.4 31.36a83.33 83.33 0 002.76-3.03c2.97-3.4 7.1-5.64 10.6-8.44 1.32-1.06 2.89-1.82 4.21-2.88 1.69-1.35 3.26-1.66 5.18-.75.8.38 1.64.71 2.34 1.24 1.15.88.65 1.77.13 3.13-.37.97-.95 1.63-1.51 2.5-2 3.1-4.05 5.61-7.11 7.66-2.59 1.73-4.86 3.92-7.44 5.65-.26.18-.99.42-1.34.68.25.21.42 1.46.64 1.6 3.06 1.9 6.55 3.07 9.46 5.17 2.91 2.1 5.4 4.74 8.23 6.96 3.89 3.06 8.58 5.14 12.19 8.49 2.32 2.15 4.04 4.98 5.98 7.41s3.97 4.95 5.57 7.65c1.99 3.36 3.27 7.13 4.95 10.65s3.7 6.92 5.03 10.6c.9 2.48 1.45 5.1 2.36 7.58s1.28 5.16 2.19 7.64c.91 2.51 2.91 4.7 3.59 7.28s.78 5.31 1.38 7.91c.37 1.61.12 3.35.38 4.98.42 2.61 1.32 5.26 1.15 7.88-.05.84-.22 1.75-.34 2.59-.27 1.82-2.59 2.94-3.46 4.55-.75 1.38.07 3.6-.66 5-.98 1.88-2.74 3.62-4.53 4.72-1.97 1.21-4.67.72-6.91 1.32-2.03.54-3.73.81-5.75.29-2.11-.54-4.62.34-6.71-.26-2.88-.83-3.88-3.96-5.14-6.67-.98-2.12-3.59-3.53-4.49-5.7-.88-2.12-.8-4.65-1.7-6.76-.72-1.68-1.61-3.25-2.76-4.68-.78-.97-1.76-1.79-2.55-2.75-1.39-1.68-2.22-3.85-3.72-5.43-1.97-2.08-4.21-3.91-6.18-5.99-2.54-2.69-5.38-5.07-8.27-7.33-2.62-2.05-6.29-2.45-9.15-4.12-3.17-1.86-5.34-5.68-8.71-7.15-3.2-1.4-6.93-1.6-10.1-3.07s-5.98-3.81-9.27-5c-2.28-.82-4.58-1.53-6.83-2.43-2.32-.92-4.78-1.51-7.12-2.39-3.89-1.46-8.05-2.21-11.94-3.66-2.12-.79-4.03-2.12-6.15-2.89-2.96-1.07-5.94-2.09-8.88-3.23-2.99-1.16-6.2-.88-9.36-1.4-2.99-.49-5.55-3.24-8.51-3.87s-6.16-.14-9.1-.83c-2.9-.69-6.04-.19-8.97-.78-2.41-.48-4.4-3.26-6.82-3.68-2.3-.4-4.81.35-7.14.15-2.05-.18-4.11-.32-6.17-.39-3.51-.13-7.02-.49-10.53-.5-2.94-.01-5.91-.02-8.85.1-2.06.08-4.34-.12-6.34.37-.92.22-2.19 1.5-2.61.63-.51-1.04-.26-2.39-.94-3.28-.73-.95-.78-2.23-1.28-3.32-1.19-2.57-3.63-4.76-4.05-7.57-.38-2.47 1.01-5.1.9-7.59-.16-3.5-1.12-7.03-.18-10.38.9-3.22 1.87-6.57 3.42-9.45s4.15-5.25 6.17-7.88c2.17-2.84 4.99-5.19 8.1-6.89 2.93-1.61 5.91-3.39 9.03-4.45s6.72-.63 9.99-1.26c3.56-.69 7.07-1.8 10.66-2.23 2.76-.33 5.61.74 8.39.67 5.05-.14 10.07-.82 15.12-.82 3.27 0 6.53 0 9.8.14 3.72.17 7.24 1.47 10.9 2.05s7.76-.86 11.35.14c2.54.71 5.03 1.65 7.57 2.37s4.66 2.77 7.14 3.71c2.68 1.02 5.74 1.07 8.4 2.12s4.62 3.55 7.14 4.92c2.71 1.48 6.43 1.1 9.15 2.57 2.71 1.47 4.48 4.56 7.09 6.23 1.43.91 3.26 1.23 4.76 2.01 2 1.04 4.11.84 6.18 1.9z"/>
    <path fill="#0e5580" d="M103.43 51.89c2.97.2 7.13.4 11.27.77 6.97.63 13.83 1.96 20.54 3.96 5.62 1.67 11.06 3.85 16.35 6.37 4.12 1.96 8.15 4.11 12.27 6.06 6.93 3.29 13.92 6.44 21.17 8.99 4.72 1.66 9.45 3.31 14.14 5.06 5.68 2.12 11.14 4.72 16.44 7.69 5.78 3.24 11.48 6.61 16.96 10.34 4.85 3.29 9.17 7.16 12.56 11.98 1.18 1.68 2.23 3.46 3.24 5.25.86 1.51 1.6 3.08 2.35 4.64 1.32 2.73 1.86 5.66 2.23 8.64.05.39-.03.81-.14 1.19-.22.79-.83 1.19-1.63 1.17-.79-.02-1.38-.48-1.55-1.28-.19-.95-.31-1.91-.47-2.87-.39-2.33-1.05-4.56-2.2-6.64-.43-.78-.81-1.58-1.2-2.38-2.94-5.95-7.13-10.85-12.41-14.82-4.82-3.62-9.92-6.8-15.16-9.77-5.2-2.95-10.37-5.96-15.94-8.18-3.56-1.42-7.16-2.75-10.76-4.07-4.13-1.52-8.32-2.87-12.41-4.48-8.61-3.39-16.95-7.36-25.19-11.58-7.13-3.65-14.52-6.73-22.28-8.74-6.49-1.67-13.08-2.96-19.8-3.32-3.27-.17-6.54-.45-9.8-.42-7.12.08-14.2.58-21.2 1.98-3.28.66-6.59 1.2-9.88 1.82-.75.14-1.49.37-2.21.62-1.3.45-2.56.97-3.63 1.89-.75.64-1.63.57-2.17-.04-.55-.63-.56-1.51.1-2.2.47-.49 1.02-.92 1.6-1.27 2.2-1.35 4.64-2.1 7.14-2.57 5.55-1.05 11.12-2.03 16.7-2.93 1.99-.32 4.02-.37 6.04-.49 2.58-.15 5.17-.23 8.94-.4z"/>

</svg>