<?xml version="1.0" encoding="UTF-8"?><svg id="accessories" xmlns="http://www.w3.org/2000/svg" viewBox="0 0 300 300"><defs><style>.cls-1{fill:none;}.cls-1,.cls-2,.cls-3,.cls-4{stroke-width:0px;}.cls-2{fill:#595757;}.cls-3{fill:#3e3a39;}.cls-4{fill:#fff;}</style></defs><g id="component_11"><path class="cls-3" d="m84.64,43.32c.3-1.34,1.32-.56,2.73-1.58.63-.46,1.47-.88,2.29-1.54.66-.53,1.6-.86,2.34-1.52.65-.58,1.39-1.16,2.09-1.84.63-.62.7-1.84,1.36-2.54.61-.65,1.19-1.34,1.81-2.06.58-.69,1.9-.81,2.47-1.56s.86-1.65,1.4-2.43.37-1.93.86-2.73,1.78-1.09,2.22-1.91.19-1.96.59-2.81.48-1.76.83-2.63.82-1.62,1.11-2.51.74-1.67,1.07-2.43c.37-.83,1.41-1.26,1.84-1.97.48-.78.83-1.53,1.38-2.16.59-.69.93-1.57,1.58-2.1.69-.56,1.47-1,2.23-1.4s1.46-1.21,2.28-1.46,1.82-.11,2.69-.23,1.76.22,2.64.22,1.68.38,2.55.47,1.69.18,2.54.35,1.94-.64,2.78-.42,1.46,1.25,2.28,1.53c.87.29,1.95-.15,2.78.11.87.28,1.39,1.62,2.23,1.87s1.91-.12,2.76.11,1.68.68,2.55.87,1.78.23,2.66.39,1.69.83,2.58.95,1.81-.06,2.72.01,1.79-.3,2.7-.28,1.75-.23,2.67-.25,1.77.29,2.68.22c.87-.06,1.74-.27,2.66-.36.86-.09,1.71-.48,2.62-.61.86-.12,1.89.67,2.79.52.86-.15,1.6-1.05,2.51-1.22.85-.17,1.74-.28,2.64-.47.85-.19,1.67-.58,2.57-.8s1.67-.56,2.56-.79c.88-.22,1.79-.28,2.6-.43.9-.16,1.87.62,2.68.55.91-.08,1.74-.68,2.56-.65.92.03,1.71.51,2.51.67.9.17,1.69.34,2.45.64.84.33,1.36.99,2.05,1.46.73.5,1.66.63,2.24,1.24s1.38,1.14,1.84,1.87.24,1.81.58,2.6.91,1.48,1.15,2.3c.24.85.86,1.61,1.02,2.43s.56,1.62.82,2.5c.25.83.08,1.81.41,2.66s1.06,1.45,1.44,2.28.17,1.89.58,2.68.67,1.68,1.11,2.45c.44.78,1.24,1.36,1.7,2.11.47.77,1.08,1.44,1.56,2.18.5.77,1.23,1.34,1.72,2.06.52.77.22,2.07.71,2.77.55.78,1.31,1.35,1.8,2.01.6.81,1.05,1.6,1.52,2.2,1.02,1.32,1.84.39,1.43,1.66-.41,1.28-.3.84-2.02,1.11-.74.12-1.7-.23-2.73-.08-.8.12-1.62.71-2.59.85-.83.12-1.77-.11-2.71.02-.84.12-1.66.73-2.59.86-.85.12-1.9-.95-2.82-.83-.86.11-1.74.26-2.65.37-.86.11-1.69.68-2.6.79-.87.11-1.81-.26-2.72-.15s-1.63,1.33-2.53,1.44-1.87-.77-2.78-.67c-.88.1-1.78.06-2.68.16s-1.7.83-2.6.92c-.88.09-1.84-.55-2.74-.46s-1.77.21-2.66.29c-.88.08-1.74.47-2.64.55s-1.74.58-2.64.65-1.77.28-2.66.35-1.77.34-2.66.41-1.78.24-2.67.3-1.79.01-2.69.07-1.82-.41-2.71-.36-1.79.07-2.68.12-1.81-.34-2.7-.3-1.75.9-2.65.93-1.8-.23-2.7-.21-1.78.31-2.68.33-1.79.08-2.69.1-1.8.03-2.69.03-1.8-.56-2.69-.56-1.79.09-2.69.08c-.9-.01-1.79-.4-2.68-.42s-1.79.08-2.68.04-1.8.15-2.69.11-1.82.42-2.71.36c-.9-.06-1.77-.48-2.66-.55s-1.81.08-2.7,0-1.81-.03-2.69-.13-1.73-.76-2.6-.87-1.74-.54-2.61-.67-1.74-.43-2.61-.59-1.82-.03-2.68-.22-1.86,0-2.7-.21c-.89-.23-1.57-1.08-2.4-1.33-.88-.27-1.9,0-2.72-.3-.86-.32-1.41-1.3-2.2-1.66-.84-.38-1.71-.54-2.47-.96-.81-.45-2.01-.22-2.72-.73-.75-.54-1.75-1.6-2.37-2.2Z"/><path class="cls-4" d="m98.01,31.91c1.23-.48.95.46,2.65.59.74.06,1.61.27,2.63.35.8.06,1.74-.72,2.7-.66.83.05,1.7.24,2.63.29.84.05,1.68.95,2.6,1,.85.04,1.74,0,2.65.03.86.04,1.77-.58,2.67-.55.86.03,1.72.84,2.62.87s1.76-.16,2.66-.14,1.76-.32,2.66-.3,1.75.21,2.64.22,1.75.3,2.65.3c.87,0,1.76-.55,2.65-.55s1.76.48,2.65.47,1.76-.39,2.65-.4,1.76.09,2.65.07,1.77.36,2.66.33,1.74-.93,2.62-.96,1.77.08,2.65.04,1.76-.04,2.65-.09,1.74-.39,2.63-.44,1.78.16,2.66.09,1.76-.11,2.64-.18,1.82.47,2.7.39c.88-.08,1.77-.11,2.65-.21.94-.1,1.75-1.18,2.64-1.27.94-.1,1.9.29,2.79.2.94-.09,1.87-.03,2.76-.11.94-.09,1.81-.63,2.7-.71.95-.09,1.94.76,2.83.68.95-.08,1.86-.14,2.74-.22.95-.08,1.85-.39,2.72-.46.96-.08,1.83-.77,2.7-.83.97-.07,1.93.52,2.8.46.98-.06,1.87-.49,2.72-.54,1-.06,1.94.47,2.78.43,1.03-.05,1.91-.96,2.71-.98,1.11-.03,2.02-.28,2.76-.29,2.03,0,1.62-.27,2.58.72s.56,1.15,1.29,2.23,1.04.87,1.77,1.95.27,1.39,1,2.47.92.95,1.65,2.03.73,1.08,1.46,2.16,1.45.59,2.18,1.68.7,1.11,1.43,2.19,1.35,1.03,1.64,2.3-1.48.49-3.12.71c-.73.1-1.6.25-2.58.37-.79.1-1.62.57-2.55.68-.82.1-1.78-.64-2.69-.54-.83.09-1.72-.02-2.61.07-.84.08-1.67.54-2.56.62s-1.68.57-2.56.64-1.79-.84-2.67-.78-1.68.81-2.56.86-1.76-.48-2.63-.45-1.74-.06-2.61-.03-1.73.78-2.6.78c-.88,0-1.75-.27-2.61-.27-.88,0-1.77.41-2.62.38s-1.78.19-2.64.13c-.89-.06-1.76-.3-2.61-.39-.89-.09-1.74-.45-2.57-.58s-1.68-.12-2.58-.21c-.83-.08-1.67-.46-2.56-.52-.84-.05-1.69-.59-2.58-.61s-1.73.37-2.61.37c-.85,0-1.72.39-2.59.41s-1.74-.53-2.61-.5c-.86.03-1.7.73-2.57.77s-1.78-.78-2.64-.73-1.67,1.05-2.54,1.11-1.78-.52-2.64-.45-1.68.85-2.53.92-1.74.13-2.59.21-1.78-.21-2.62-.12-1.81-.41-2.65-.32c-.89.1-1.73.46-2.56.56-.91.11-1.74.46-2.56.56-.93.11-1.85-.26-2.64-.16-.98.13-1.83.42-2.55.52-1.63.23-1.2.39-2.49.29-1.3-.09-1.31.17-2.59-.03s-1.29-.16-2.57-.36-1.3-.11-2.58-.31-1.21-.66-2.5-.86-1.35.21-2.63,0-1.21-.66-2.5-.86c-1.29-.2-1.35.23-2.64.03s-1.3-.13-2.58-.33c-1.28-.2-1.26-.36-2.54-.56s-1.28-.22-2.57-.42c-1.29-.2-1.31-.08-2.59-.28s-1.28-.24-2.57-.44c-1.29-.2-1.19-.8-2.48-1s-1.36.28-2.65.08-1.68.77-2.83.15,1.4-.49,2.69-1.4c.61-.43.99-1.39,1.76-1.96.65-.48.99-1.45,1.71-2,.66-.51,1.97-.24,2.65-.79s1.41-1.02,2.07-1.58,1.16-1.34,1.78-1.92c.65-.61.55-1.92,1.11-2.52.63-.68,1.63-.99,2.1-1.62Z"/><path class="cls-2" d="m60.38,26.17c-.44.45-.96,1.12-1.12,2.32-.12.91.34,1.93.31,2.87-.04,1.19-.9,2.24-.9,2.84,0,.83-.58,1.93-.37,2.91.18.84,1.89,1.34,2.21,2.26.29.83.65,1.61,1.05,2.48.37.81.71,1.62,1.17,2.44s.97,1.48,1.49,2.26.71,1.7,1.28,2.43.36,2.11.98,2.8,2,.63,2.68,1.26,1.64.85,2.36,1.41,1.41,1.07,2.18,1.56,1.5.93,2.32,1.34,1.08,2.22,1.95,2.52,2-.31,2.85-.06,1.84.02,2.7.23,1.5,1.51,2.37,1.68,1.79.28,2.67.42,1.9-.68,2.78-.57c.89.1,1.78-.08,2.67-.01s1.7,1.63,2.59,1.67c.89.04,1.82-.58,2.71-.57s1.77-.88,2.66-.9,1.78.25,2.67.2,1.76-.24,2.65-.31,1.74-.34,2.63-.43,1.89.88,2.78.77,1.77-.28,2.65-.41,1.79-.08,2.68-.22,1.76-.27,2.65-.42,1.82.08,2.71-.07,1.64-.96,2.52-1.12,1.79-.13,2.67-.28,1.78-.15,2.66-.31,1.64-.93,2.53-1.08,1.63-1.04,2.51-1.19,1.96.93,2.84.79,1.57-1.48,2.46-1.62c.88-.13,1.84.28,2.73.16.88-.12,1.78-.16,2.66-.27s1.71-.72,2.6-.82,1.89.96,2.78.87,1.76-.24,2.65-.32,1.79.31,2.69.25,1.72-1.19,2.61-1.22c.89-.04,1.79.55,2.69.53.89-.02,1.77-.87,2.67-.87s1.8-.44,2.7-.41c.89.02,1.77.78,2.66.83s1.71,1.12,2.61,1.19,1.89-1.44,2.81-1.34c.86.1,1.63,1.26,2.54,1.38s1.67.76,2.58.89,1.77.1,2.67.23,1.89-.67,2.79-.55,1.63,1.23,2.53,1.35,1.92-1.1,2.82-1,1.76.23,2.66.31c.88.08,1.73.68,2.63.74.89.06,1.8-.43,2.7-.4s1.76.7,2.66.7,1.77-.61,2.67-.64,1.77-.07,2.66-.13,1.82.41,2.71.31,1.79-.12,2.68-.26,1.78-.25,2.66-.42,1.63-.87,2.5-1.09,1.71-.45,2.57-.72c.85-.26,1.59-.79,2.44-1.1s2.2.69,3.03.34.89-2.32,1.7-2.72,2.42.78,3.21.34,1.07-1.72,1.84-2.2,1.06-1.57,1.8-2.09,1.34-1.1,2.06-1.66,1.89-.45,2.58-1.04c.77-.97.65-.93.9-2.27.14-.74-.58-1.43-.77-2.29-.17-.73-.21-1.28-.81-1.97-.47-.54-.69-1.43-1.53-1.87-.64-.34-1.2-1.36-2.09-1.61-.71-.2-1.74.48-2.64.35s-1.84-.91-2.76-.85-1.7,1.09-2.61,1.29-2.02-.47-2.91-.17c-.85.28-1.3,1.71-2.16,2.06s-1.75.48-2.59.86-1.45,1.15-2.28,1.55-1.87.3-2.7.7c-.82.39-2.05-.1-2.88.28s-1.38,1.35-2.22,1.7-1.88.11-2.74.4-1.6.85-2.48,1.08-1.72.51-2.61.64-1.76.44-2.67.46-1.75-.39-2.66-.51-1.61-.6-2.5-.86-1.73-.52-2.61-.75-1.83-.09-2.72-.29-1.86.13-2.74-.04-1.79-.12-2.68-.27-1.61-1.34-2.5-1.46-1.84.2-2.74.09-1.8-.02-2.7-.11-1.75-.62-2.65-.68-1.87,1.34-2.77,1.29-1.77-.02-2.67-.04-1.77-.71-2.67-.72-1.78.61-2.68.61-1.8-.76-2.7-.74c-.89.02-1.82-.56-2.71-.52-.89.04-1.71,1.53-2.61,1.59-.89.05-1.89-1.43-2.79-1.36s-1.78.36-2.67.44-1.72.84-2.61.93-1.72.68-2.61.79-1.89-.64-2.78-.52-1.63,1.21-2.52,1.34-1.8.04-2.69.19-1.93-.62-2.81-.46-1.75.4-2.64.58-1.62,1.04-2.49,1.23-1.75.48-2.62.63-1.88-.35-2.75-.23c-.9.12-1.74.66-2.62.74s-1.8.16-2.68.21-1.81,0-2.69.02-1.81.12-2.69.1-1.78-.52-2.66-.59-1.7-.9-2.58-.99-1.95,1.12-2.82.99-1.58-1.45-2.44-1.61-2.03.92-2.88.73-1.52-1.37-2.37-1.6-1.61-.87-2.44-1.12c-.88-.26-2.1.66-2.93.39-.87-.29-1.36-1.59-2.17-1.89-.87-.32-1.71-.58-2.5-.9-.87-.35-2.1.31-2.88-.02-.87-.37-1.48-1.22-2.24-1.56-.9-.39-1.71-.76-2.44-1.07-.83-.35-1.21-1.35-1.95-1.87s-1.94-.41-2.6-1.05-1.49-1.12-2.08-1.8-1.14-1.45-1.69-2.15c-.57-.74-.67-1.82-1.21-2.5-.6-.76-.93-1.72-1.5-2.33-.7-.73-1.52-1.45-2.23-1.82-.84-.43-1.68.72-2.6,1.03-.69.24-1.28.35-2.06,1.15Z"/></g><rect class="cls-1" y="1" width="300" height="300"/></svg>