<svg xmlns="http://www.w3.org/2000/svg" viewBox="0 0 300 300">
    <path stroke-width="0" fill="none"
            d="M0 0h300v300H0z"/>
    <path d="M263.69 89.61c.11-.47-.02-.26-.39-.77-.16-.22-.65-.26-.87-.56-.17-.23.23-.92.02-1.2-.18-.24-1.03 0-1.24-.28-.18-.24.2-.92 0-1.19-.18-.25-.97-.06-1.17-.32-.19-.25.29-1 .09-1.27-.19-.25-.79-.19-.99-.46-.19-.25-.11-.71-.31-.97s-.19-.65-.39-.91-.76-.21-.96-.46-.38-.5-.58-.76-.18-.66-.38-.91-.61-.33-.81-.58-.4-.49-.6-.74-.15-.69-.35-.95-.85-.13-1.05-.38-.08-.75-.28-1-.44-.46-.64-.71-.79-.17-1-.42.3-1.07.09-1.32-.97-.02-1.17-.27-.15-.7-.36-.95-.76-.19-.97-.44-.2-.66-.41-.91-.1-.75-.3-1-.67-.27-.88-.51-.7-.24-.91-.48.13-.95-.08-1.19-.51-.4-.72-.65-.23-.65-.44-.89-.57-.35-.78-.59-.78-.16-.99-.4-.54-.37-.76-.61-.19-.68-.41-.92-.69-.24-.9-.48.1-.95-.11-1.19-.47-.44-.68-.68-.3-.59-.52-.83-.66-.26-.88-.5-.36-.54-.58-.77-.87-.06-1.09-.3.09-.96-.13-1.2-.41-.49-.63-.73-.58-.33-.81-.56-.91-.01-1.13-.24-.4-.5-.62-.74-.49-.42-.71-.65-.12-.77-.35-1-.25-.65-.48-.88-.64-.27-.87-.49-.5-.41-.73-.63-.37-.54-.6-.77l-.68-.68c-.23-.23-.16-.75-.39-.97s-1.09.2-1.32-.02-.35-.55-.58-.78-.53-.37-.76-.59-.18-.73-.42-.95-.39-.52-.62-.74-.49-.42-.72-.63-.5-.4-.74-.62-.6-.3-.83-.52-.63-.26-.87-.48-.44-.47-.68-.68-.26-.67-.5-.88-.6-.3-.84-.51-.19-.75-.43-.96-.38-.54-.62-.75-.5-.4-.75-.61-.54-.35-.79-.56-.95.12-1.19-.09-.55-.34-.79-.55-.46-.44-.71-.65-.27-.68-.52-.88-.64-.24-.88-.44-.55-.34-.8-.55-.12-.87-.37-1.07-.52-.38-.77-.58-.52-.38-.78-.58-.79-.03-1.04-.23-.32-.64-.57-.83-.27-.7-.53-.9-.8 0-1.06-.2-.32-.65-.58-.84-.66-.18-.92-.37-.61-.26-.87-.45-.67-.17-.93-.36-.26-.75-.52-.93-.55-.34-.81-.53-.72-.09-.99-.27-.26-.76-.52-.94-.46-.46-.73-.64-.65-.19-.92-.36-.78.02-1.05-.16-.32-.69-.59-.87-.53-.36-.8-.54-.66-.16-.93-.33-.58-.29-.85-.45-.36-.64-.63-.81-.47-.48-.74-.64-.51-.41-.78-.58-.95.35-1.22.19-.4-.6-.68-.76-.54-.36-.82-.51-.44-.54-.72-.7-.87.26-1.15.11-.23-.94-.52-1.09-.89.33-1.18.18-.5-.43-.79-.57-.28-.89-.57-1.03-.75.07-1.04-.06-.59-.26-.88-.4-.58-.29-.87-.42-.52-.41-.82-.54-.82.29-1.12.16-.31-.92-.61-1.04-.56-.35-.85-.47-.83.35-1.13.23-.66-.07-.96-.18-.41-.73-.71-.84-.76.22-1.06.12-.62-.15-.93-.26-.44-.71-.75-.81-.64-.12-.94-.22-.65-.09-.95-.18-.62-.17-.93-.26-.56-.41-.87-.49-.67.01-.98-.06-.73.3-1.04.22-.52-.58-.84-.65-.65-.04-.96-.1-.62-.16-.94-.22-.67.13-.99.07-.56-.53-.88-.58-.71.44-1.03.39-.64-.03-.96-.07-.54-.89-.86-.93-.66.1-.98.07-.64-.04-.96-.07-.66.22-.98.2-.63-.37-.95-.38-.66.71-.98.71-.63-.68-.95-.68-.65-.25-.97-.25-.63.45-.96.46-.66-.37-.98-.35-.6.66-.92.69-.7-.6-1.02-.57-.57.75-.89.78-.61.22-.93.26-.68-.25-1-.2-.61.21-.93.27-.66-.04-.97.02-.61.23-.92.3-.55.43-.87.5-.67-.08-.99 0-.73-.22-1.03-.13-.56.37-.87.47-.74-.19-1.04-.09-.6.26-.9.36-.47.64-.77.75c-.32 0-.66-.27-.98-.26s-.65-.12-.97-.1-.59.89-.91.91-.71-.91-1.03-.88-.64.11-.96.14-.64.08-.96.12-.52.94-.84.98-.64.03-.95.08-.62.14-.93.19-.69-.21-1-.15-.66-.04-.98.02-.65.04-.96.11-.62.17-.93.24-.53.52-.84.6-.59.25-.9.34-.81-.51-1.12-.42-.5.58-.8.67-.55.36-.86.46-.79-.36-1.1-.25-.34.96-.65 1.07-.71-.09-1.01.02-.55.34-.85.45-.63.14-.93.26-.6.22-.9.34-.7-.03-1 .1-.61.2-.91.33-.61.21-.9.34-.61.22-.9.35-.48.5-.77.63-.43.58-.72.72-.59.24-.88.38-.76-.09-1.05.06-.33.75-.61.9-.47.47-.75.62-.58.27-.86.42-.75-.03-1.03.12-.74-.01-1.02.15-.48.45-.76.62-.7.08-.97.24-.55.34-.82.5-.07 1.11-.34 1.27-.6.24-.87.41-.89-.21-1.16-.04-.54.35-.8.53-.62.23-.88.41-.27.75-.53.93-.33.65-.59.84-1.01-.33-1.27-.15-.15.9-.41 1.09-.39.55-.65.74-.58.29-.83.48-.66.18-.92.37-.44.48-.69.67-.32.64-.57.83-1.05-.31-1.3-.12-.46.46-.71.65-.52.38-.77.58-.05.97-.3 1.17-.81 0-1.06.21-.65.22-.9.42-.34.6-.59.8-.74.11-.99.32-.41.51-.65.72-.06.92-.3 1.13-.64.24-.88.46-.63.26-.87.47-.05.91-.29 1.12-.7.18-.93.4-.73.15-.97.37-.18.76-.41.98-.6.3-.83.52-.62.28-.85.5-.24.68-.47.9-.7.2-.93.42-.03.89-.26 1.12-.61.29-.84.51-.63.28-.86.5-.52.39-.74.62-.65.26-.88.49-.45.46-.68.69-.02.88-.24 1.11-.37.53-.59.76-.38.53-.6.76-.84.09-1.06.32-.27.62-.49.86-.14.74-.35.98-.52.39-.74.63-.64.29-.85.52-.5.41-.71.65-.17.7-.39.94-.29.6-.5.84-.39.51-.6.75-1.06-.06-1.27.18-.12.74-.33.98-.65.29-.86.54-.52.4-.73.65-.27.61-.47.86.09.9-.11 1.15-1.08-.04-1.28.21-.15.7-.35.95-.22.64-.42.89-.63.32-.83.57-.19.66-.39.92-.38.53-.57.78-.61.35-.8.61-.09.74-.28 1-.08.74-.27 1-.86.17-1.05.43-.26.6-.45.86-.07.74-.25 1-1 .09-1.18.36-.22.63-.39.9-.05.74-.22 1.01-.74.28-.92.55-.23.62-.4.89-.21.63-.38.9-.68.33-.85.6.42 1.01.26 1.28-.99.16-1.15.43-.47.48-.62.75-.03.73-.18 1-.46.48-.61.76.25.87.1 1.15-.17.63-.31.91-.45.49-.58.77-.25.59-.38.87-.6.43-.73.72-.53.48-.65.77c-.12.3.06.72-.05 1.01-.12.31-.06.66-.16.96-.11.31-.67.47-.75.76-.09.32-.17.64-.25.93-.08.31.33.74.26 1.04s-.02.65-.09.95-.16.62-.23.92-.28.59-.34.9-.74.5-.8.81.62.78.56 1.09.02.65-.03.96-.67.53-.73.84.16.68.11.98-.21.61-.26.92-.27.61-.31.92.34.69.3 1c-.04.32-.07.63-.1.94-.04.32-.44.6-.47.91-.03.33.05.65.02.96-.02.33-.5.62-.52.92-.02.33.71.68.7.99-.01.33-.35.63-.36.94 0 .33.05.65.05.95 0 .33-.22.66-.21.96.01.34.05.66.07.95.03.34.71.58.75.87.04.35-.56.75-.51 1.02.06.37-.03.73.03.98.16.62.63 1.19.63 1.19.48 0 .48-.28.96-.28s.48.18.96.18.48-.13.96-.13.48.33.96.33.48-.18.96-.18.48-.78.96-.78.48.41.96.41.48-.37.96-.37.48.68.96.68.48.15.96.15.48-.8.96-.8.48.52.96.52.48.02.96.02.48-.4.96-.4.48.19.96.19.48-.32.96-.32.48.1.96.1.48.71.96.71.48-.85.96-.85.48.61.96.61.48.15.96.15.48.12.96.12.48-.62.96-.62.48-.05.96-.05h.96c.48 0 .48-.13.96-.13s.48.79.96.79.48-.54.96-.54.48.36.96.36.48-.71.96-.71.48.78.96.78.48-.17.96-.17.48-.26.95-.26h.95c.47 0 .48.59.95.59s.48-.53.95-.53.48.18.95.18.48.23.95.23.48-.26.95-.26.48.34.95.34.48-.22.95-.22.48-.55.95-.55.48.25.95.25.48-.06.95-.06.48.49.95.49.48-.45.95-.45.48.17.95.17.48-.31.95-.31.48-.21.95-.21.48.67.95.67.48.08.95.08.48-.27.95-.27.48-.04.95-.04.48-.27.96-.27.48.21.96.21.48.25.96.25.48-.55.96-.55.48-.11.96-.11.48.78.96.78.48-.41.96-.41.48.05.96.05h.96c.48 0 .48.2.96.2s.48.08.96.08.48-.44.96-.44.48.22.96.22.48-.23.96-.23.48-.1.96-.1.48.38.96.38.48-.21.96-.21.48.37.96.37.48-.05.96-.05.48-.17.96-.17.48.32.96.32.48.05.96.05.48-.05.95-.05.48-.25.95-.25.48-.49.95-.49.48.82.95.82.48-.14.95-.14.48.02.95.02.48-.48.95-.48.48.5.95.5.48-.3.95-.3.48-.42.95-.42.48.08.95.08.48.16.95.16.48.03.95.03.48-.33.95-.33.48.49.95.49.48-.27.96-.27.48.03.96.03.48-.17.96-.17.48.69.96.69.48-.44.96-.44.48.46.96.46.48-.69.96-.69.48.35.96.35.48.37.96.37.48-.47.96-.47.48.51.96.51.48-.71.96-.71.48.35.96.35.48-.1.96-.1.48.13.96.13.48.3.96.3.48-.05.96-.05.48-.24.96-.24.48-.43.96-.43.48.42.96.42.48.08.96.08.48-.61.96-.61.48.23.96.23.48-.17.96-.17.48.19.96.19h.96c.48 0 .48.4.96.4s.48-.38.96-.38.48.09.96.09.48.28.96.28.48.28.96.28.48-.72.96-.72.48-.17.96-.17.48.54.96.54.48-.22.96-.22.48.33.96.33.48-.39.96-.39.48-.26.96-.26.48.75.96.75h1.92c.48 0 .48-.58.96-.58s.48.28.96.28.48.26.96.26.48-.66.96-.66.48.74.96.74.48-.4.96-.4.48.07.96.07.48-.04.96-.04.48-.3.96-.3.48.31.96.31.48.31.96.31.48-.49.96-.49.48.64.96.64.48-.5.96-.5.48.29.96.29.48-.46.96-.46.48.26.96.26.48-.54.96-.54.48.94.96.94.48-.54.96-.54.48.14.96.14.48-.5.96-.5.48-.03.96-.03.48.89.96.89.48.02.96.02.48-.44.96-.44.48.03.96.03.48-.27.96-.27.48-.17.96-.17.48.27.96.27.48-.03.96-.03.48-.17.96-.17.48.73.96.73.48.04.96.04.48-.65.96-.65.48.63.96.63.48-.82.96-.82.48.79.96.79.48-.6.96-.6.48.67.96.67.48-.78.96-.78.48-.04.96-.04.48.39.96.39.48.32.96.32.48.08.96.08.48-.47.96-.47.48-.28.96-.28.48.57.96.57.48.2.96.2.48-.59.96-.59.48-.25.96-.25.48.39.96.39.48-.14.96-.14.48.19.96.19.48.42.96.42.48-.68.96-.68.48.48.96.48.48-.51.96-.51.48.05.96.05.48-.07.96-.07.48.76.96.76.48-.11.96-.11.48.11.96.11.48-.29.96-.29.48-.24.96-.24.48-.24.96-.24.48.34.96.34.48.12.96.12.48.01.96.01.48-.15.96-.15.48.22.96.22.48-.67.96-.67.48-.1.96-.1.48.16.96.16.48-.05.96-.05.48.31.96.31.48.3.97.3.48-.36.96-.36.48.08.96.08.48-.08.97-.08.48-.32.97-.32.48.53.97.53.48-.12.96-.12.48-.42.97-.42.48.8.97.8.49-.17.97-.17.44-.1.86-.36.3-.26.52-.7.27-.41.49-.84-.21-.65 0-1.09.89-.09 1.11-.52.07-.51.29-.95-.05-.57.17-1.01.43-.33.65-.76.62-.23.84-.66-.58-.84-.36-1.28.16-.46.39-.9.23-.43.45-.86.33-.38.55-.81.54-.27.76-.71.39-.35.61-.78-.14-.62.08-1.05.72-.18.94-.61.05-.52.28-.96-.27-.69-.05-1.12.35-.37.57-.8.59-.25.82-.68.17-.46.39-.9.24-.43.46-.86.03-.53.25-.96.6-.24.82-.68.11-.49.33-.93-.05-.57.17-1.01.28-.39.38-.87Z" fill="#c2cc79" stroke-width="0"/>
    <path d="M43.31 104.86c-.18-.45-.96-.06-1.11-.65-.07-.26.43-.72.36-1.08-.06-.29-.74-.52-.79-.86-.04-.3.8-.71.78-1.05-.02-.31-.76-.61-.76-.94 0-.31.33-.64.35-.97.02-.31.01-.64.06-.97s0-.65.07-.98.77-.45.87-.77-.28-.75-.17-1.05-.19-.79-.05-1.09.3-.6.46-.89.62-.4.79-.67.82-.19 1.02-.45-.21-.98 0-1.23.61-.32.84-.56.77-.11 1.01-.33.5-.35.76-.56.37-.53.64-.72.31-.66.59-.84.73-.02 1.02-.19.27-.82.56-.98.82.19 1.11.04.44-.55.74-.69.53-.4.83-.53.6-.24.91-.35.81.38 1.12.27.33-1.05.64-1.15.79.5 1.11.41c.48-.08.34.02.94-.03.27-.02.53-.75.89-.79.29-.03.68.52 1.02.48.3-.04.61-.15.95-.2.31-.04.64.01.97-.04s.56-.54.88-.6.66.08.98.02.65-.01.97-.08.58-.34.89-.42.6-.25.91-.34.59-.24.9-.34.59-.24.88-.36.65-.1.94-.23c.3-.14.63-.19.9-.34.29-.17.67-.19.91-.38.2-.16.64-.18.91-.43.21-.19.1-.78.35-1.02.21-.2.39-.47.63-.7.22-.21.23-.66.47-.89.22-.21.52-.36.76-.59.22-.21.72-.14.96-.36.23-.21.66-.2.9-.42s.11-.83.36-1.04.37-.54.62-.75.54-.35.79-.55.94.18 1.2-.02.27-.68.53-.87.28-.69.54-.88.78 0 1.04-.17.72-.05.99-.22.27-.75.54-.92.5-.4.78-.56.43-.53.71-.69.83.2 1.11.05.42-.58.7-.72.46-.52.75-.65.93.54 1.22.41.3-.9.6-1.02.81.36 1.11.25.31-1 .62-1.11.85.58 1.16.48.41-.84.72-.92.8.55 1.11.47.57-.28.88-.35.6-.16.92-.22.55-.52.87-.57.62-.17.94-.21.65.1.97.06.61-.31.93-.33.66.5.98.48.63-.04.95-.05.64-.68.96-.67.63.35.95.36.65-.19.97-.17.65-.1.97-.07.57.65.89.69.62.07.94.12.6.24.91.29.67-.17.99-.11.69-.16 1-.09.43.91.75.98.81-.6 1.12-.51.5.54.81.63.73-.2 1.03-.1.58.3.88.41.41.72.71.84.7-.05 1 .06.57-.22.87-.1c.47-.04.51.59 1.04.3.23-.13.29-.69.61-.86.25-.14.78.19 1.09.04.26-.14.5-.36.8-.51.27-.14.32-.73.62-.88.27-.14.68-.02.98-.16.28-.13.56-.28.85-.42.28-.13.4-.62.7-.75s.79.22 1.09.09.35-.75.65-.88.76.17 1.06.04.32-.86.61-.99.81.3 1.11.18.65-.06.95-.18.3-.97.6-1.08.85.46 1.15.34.64-.09.93-.2.36-.87.66-.97.6-.21.9-.31.83.49 1.13.39.48-.57.78-.67.6-.21.9-.3.73.26 1.04.17.6-.2.9-.28.58-.29.88-.37.56-.38.87-.45.58-.34.89-.4.74.44 1.05.38.55-.46.87-.52.53-.67.85-.72.72.46 1.03.42.56-.63.88-.67.69.36 1 .33.66.31.98.29.62-.16.94-.18.63-.04.95-.05.63-.46.95-.46.64.06.96.07.64.02.96.05.57.67.89.7.61.09.93.14.74-.54 1.05-.48.47.79.78.87.84-.67 1.14-.58.66.11.96.21.56.35.86.46.58.31.86.42.61.21.9.33c.3.12.34.83.63.96.3.13.57.27.86.4.3.14.72-.02.99.12.29.14.38.67.65.81.29.15.59.24.86.39.29.16.81-.13 1.07.03.28.16.58.29.84.45.28.17.36.63.62.8.28.18.42.52.68.69.27.18.71.09.96.27.27.18.84-.09 1.09.09.27.19.05 1.07.3 1.25.27.18.75.03 1.01.19s.76-.07 1.04.08.21 1 .5 1.13.7-.02 1 .09.62.11.94.19c.3.07.6.15.93.2.3.04.59.33.92.36.3.02.63.17.96.18.3 0 .61-.66.94-.68.3-.01.6-.08.93-.11.3-.02.68.62 1.01.58.3-.03.54-.68.87-.72.3-.04.65.14.97.09.3-.05.62-.11.94-.17.3-.05.63-.02.96-.09s.66.03.97-.03.66.1.98.05.6-.32.91-.37.63-.15.94-.19.62-.23.94-.26.66.23.98.21.64.14.96.13.61-.72.93-.73.65 0 .96 0 .63.69.94.7.68-.84 1-.82.66 0 .97.03.53.98.85 1.03.63 0 .95.05.67-.12.98-.05.71-.2 1.01-.12.48.66.78.75.67 0 .97.1.47.52.77.64.78-.21 1.07-.07.73-.01 1.01.14.57.33.84.49.12 1.02.38 1.2.58.25.84.44.97-.22 1.22-.02-.05 1.05.19 1.27.83.02 1.06.25.03.85.25 1.09.74.17.96.41.71.24.92.49.2.66.39.92.53.41.71.68.36.53.53.81-.2.87-.04 1.15.66.34.82.62.56.43.71.71.06.69.2.98.12.68.26.98c.27.18.47.57.75.72s.62.23.92.37.64.16.94.28.56.34.87.45.78-.34 1.09-.25.65 0 .96.08.39 1.03.7 1.11.68-.11 1-.03.63.1.94.17.54.48.86.56.67-.09.99-.01.7-.18 1.01-.1.52.51.83.59.75-.3 1.06-.21.67.03.98.13.56.36.87.47.52.43.82.56.74-.08 1.04.05.45.55.74.7.72.04 1 .2.46.5.73.68.6.28.86.47.57.33.83.53.36.58.6.8.38.53.62.76.73.19.95.43.07.8.28 1.05.45.45.65.71.18.65.37.92.35.52.53.79.94.15 1.12.43.29.58.45.87-.24.86-.09 1.15.18.68.33.97c.22.24.73.29.93.54s.26.61.45.86.33.54.5.81.73.32.89.59-.23.84-.09 1.13 1.14.21 1.26.51-.05.73.06 1.04.1.66.19.97.21.63.28.94-.14.69-.09 1-.24.67-.21.99.89.58.91.9-.75.67-.75.99.65.66.64.98c-.01.33.15.68.12 1-.03.33-.02.68-.07.99-.05.34-.53.6-.59.9-.06.34-.21.64-.28.93-.08.36-.05.71-.12.97-.17.58-.71.97-.71.97.09.46.72.22.81.82.04.26-.66.67-.62 1.03.03.29.31.57.35.91.03.3.17.6.2.93.02.3.53.59.55.92.01.31-.52.64-.51.97s.51.62.5.95-.05.64-.06.96-.13.63-.15.95-.28.61-.3.93-.15.62-.19.93-.41.57-.46.88-.08.61-.14.92.48.75.4 1.06.07.69-.02.99-.88.38-.99.68.26.78.14 1.07-.13.65-.27.94-.3.58-.46.86-.43.5-.61.76-.81.18-1.01.43.09.91-.12 1.15-.51.42-.74.63-.8.01-1.06.2-.11.97-.38 1.14-.7.13-.98.28-.71 0-1.01.13-.57.28-.88.38-.58.29-.89.38-.6.26-.92.33-.69-.23-1.01-.18-.58.5-.9.53-.64.22-.96.24-.66-.46-.99-.46-.65.66-.97.65-.62-.62-.95-.64-.63-.14-.95-.17-.7.51-1.02.47-.61-.3-.93-.35-.52-.73-.84-.79-.62-.11-.93-.17-.69.17-1 .1-.53-.49-.84-.57-.79.46-1.1.36-.72.11-1.02.01-.32-1.07-.62-1.17-.77.25-1.07.14-.74.11-1.04 0-.55-.37-.85-.5-.28-.97-.57-1.1-.86.33-1.15.19-.49-.46-.78-.61-.49-.45-.77-.6-.47-.48-.74-.64-.8.09-1.07-.08-.44-.51-.71-.68-.45-.48-.7-.67c-.27-.19-.44-.48-.68-.67-.26-.2-.76-.04-1-.24-.31.06-.68-.23-.99-.16s-.64.05-.95.12-.53.53-.84.6-.53.51-.84.58-.72-.28-1.03-.21-.52.57-.83.65-.71-.24-1.02-.16-.69-.14-1-.06-.49.73-.8.8-.71-.27-1.03-.2-.67-.09-.98-.03-.51.7-.83.76-.67-.11-.99-.06-.69-.25-1-.2-.62.11-.94.15-.54.77-.86.8-.71-.66-1.03-.63-.6.35-.92.37-.61.47-.93.49-.65-.28-.97-.28-.64-.09-.96-.09-.63-.26-.95-.27-.62-.08-.94-.1-.65.19-.97.16-.66.14-.97.09-.54-.6-.86-.66-.66.11-.97.05-.67.12-.99.04-.48-.63-.79-.71-.77.38-1.08.29-.64-.12-.94-.23-.42-.69-.72-.81-.77.19-1.06.06-.38-.69-.67-.83-.88.33-1.16.18-.2-.97-.48-1.13-.72-.01-1-.17-.66-.14-.93-.31-.53-.36-.8-.53-.49-.42-.75-.6-.2-.82-.46-1-.67-.17-.92-.36-.38-.56-.64-.75-.98.24-1.23.05-.55-.33-.81-.52-.05-1.02-.31-1.2-.88.14-1.14-.04-.51-.37-.78-.54-.19-.91-.46-1.07-.99.44-1.27.29-.22-.98-.5-1.11-.84.34-1.13.23-.39-.81-.7-.9-.7.15-1.02.09-.67.32-.99.29-.57-.86-.89-.87-.66.03-.98.05-.57.62-.89.66c-.31.04-.74-.54-1.06-.47-.3.07-.62.21-.93.3-.3.09-.37.87-.68.98-.29.1-.63.05-.94.18-.29.12-.62.14-.91.27s-.68.06-.97.21-.28.8-.56.96-.89-.29-1.18-.14-.45.51-.74.66-.58.27-.86.41-.38.71-.67.84-.94-.53-1.24-.4-.4.69-.69.81-.71-.05-1 .07-.57.3-.87.41-.44.7-.74.8-.7-.08-1.01 0-.59.28-.89.36-.73-.26-1.04-.19-.6.21-.91.28-.56.44-.87.5-.57.51-.89.56-.75-.82-1.07-.78-.55.98-.86 1-.68-.5-1-.48-.63.13-.95.13-.63-.33-.95-.34-.67.65-.99.63-.57-.83-.89-.87-.73.76-1.05.71-.57-.5-.89-.56-.65 0-.96-.08-.61-.18-.92-.26-.49-.59-.8-.68-.57-.26-.87-.36-.71.13-1.01.01-.63-.13-.93-.25-.59-.23-.88-.37-.74.07-1.03-.08-.34-.73-.63-.88-.41-.56-.69-.72-.68-.08-.95-.25-.54-.33-.81-.51-.88.17-1.15-.02-.08-.98-.34-1.17-.66-.18-.91-.37-.48-.41-.73-.61-.37-.54-.62-.75-.51-.38-.75-.6-.59-.31-.83-.53c-.42-.23-.36-.19-.96-.24-.27-.02-.6.37-.97.37-.29 0-.63-.35-.98-.31-.3.03-.69-.25-1.03-.18-.3.06-.62.24-.94.33-.3.08-.61.25-.92.36-.29.11-.43.62-.74.76-.28.13-.75-.07-1.04.09-.27.15-.54.36-.82.54-.26.17-.14.91-.41 1.11-.25.19-1.05-.3-1.3-.09-.23.19-.26.65-.52.85-.25.18-.75-.02-1.02.16-.26.17-.5.34-.77.5s-.41.51-.69.67-.41.57-.69.71-.59.22-.88.35-.66.05-.95.17-.58.22-.88.33-.6.16-.9.26-.4.78-.7.88-.82-.54-1.13-.45-.57.27-.87.35-.45.76-.76.84-.75-.45-1.06-.39-.59.22-.9.28-.63-.01-.95.04-.51.83-.82.88-.63.1-.95.14-.68-.41-1-.37-.65-.29-.97-.26-.59.51-.91.53-.62.19-.94.2-.63.32-.95.33-.63-.53-.95-.54-.64.37-.96.36-.6-.67-.92-.69-.62-.15-.93-.18-.7.79-1.02.76-.6-.41-.92-.44-.65.07-.96.03-.65.07-.97.02-.54-.64-.85-.7-.58-.29-.9-.35-.61-.14-.92-.21-.63-.07-.94-.14-.64.58-.95.5c-.29.15-.56.04-.84.19s-.57.32-.85.47-.74-.02-1.03.12-.54.38-.82.52-.56.33-.84.47-.39.69-.68.82-.8-.17-1.08-.04-.67.1-.95.23-.43.66-.72.78c-.3.13-.81-.26-1.1-.14-.31.12-.34.93-.64 1.04-.31.11-.85-.44-1.15-.34-.31.11-.56.37-.86.46-.32.1-.51.61-.81.69-.32.08-.68 0-.99.07-.32.07-.68-.09-.99-.04-.33.05-.6.47-.91.5-.33.03-.67-.21-.99-.2-.33.01-.64-.27-.95-.28s-.64.07-.95.03-.62-.09-.93-.15-.66.03-.97-.06-.55-.35-.85-.46-.51-.41-.8-.54-.81.25-1.1.11c-.31-.15-.6-.34-.87-.52s-.41-.58-.65-.79-.32-.58-.54-.83-.54-.4-.72-.67-.62-.42-.77-.72-.22-.65-.33-.96-.6-.53-.69-.85.62-.86.56-1.17c-.07-.34-.9-.54-.94-.85-.05-.35.6-.77.57-1.08-.03-.37-.47-.69-.47-.97 0-.61.51-.59.24-1s-.54.26-1.08.02c-.25-.11-.17-.98-.49-1.15-.26-.15-.86.22-1.14.03-.25-.17-.51-.39-.77-.61-.24-.2-.06-.85-.29-1.09s-.96 0-1.16-.26-.24-.63-.41-.92.23-.79.11-1.09-1.04-.33-1.12-.66c-.07-.3.02-.69 0-1.02-.03-.31-.05-.66-.04-1 .01-.31-.07-.68-.01-1.01.05-.3.69-.51.77-.83.08-.3-.28-.75-.16-1.07.11-.29.91-.22 1.05-.53.23-.25-.26-1.04-.05-1.27.23-.25.99 0 1.21-.23.23-.25.32-.62.53-.85.23-.25.64-.32.85-.55.23-.26.07-.85.27-1.08.24-.26.51-.45.72-.67.24-.26.41-.55.61-.77.25-.27.33-.64.52-.85.27-.3 1.04-.03 1.21-.22.66-.72.91-.71.73-1.16Z" fill="#9aa050" stroke-width="0"/>
    <path d="M84.2 49.74c-.03.31-.83.58-.91.91-.07.31.59.86.47 1.17s-.53.51-.67.8-.82.26-1 .54-.27.55-.47.81 0 .84-.23 1.08-.79.1-1.04.31-.3.65-.57.83-.44.57-.74.71-.63.27-.94.36-.69-.05-1.02-.02-.68.4-1.01.37-.64-.31-.97-.4-.46-.74-.76-.83-.88.74-1.19.65-.36-1-.66-1.1-.82.38-1.11.27-.44-.63-.72-.76-.7-.04-.97-.19-.24-.79-.5-.97-.45-.36-.68-.57-.6-.24-.79-.49-.12-.59-.27-.88-.99-.28-1.08-.59c-.08-.29.37-.72.33-1.05-.04-.3-.33-.59-.33-.93s-.05-.67-.02-.99 0-.69.06-1 .88-.41.99-.72-.68-.99-.54-1.28.62-.44.79-.71.86-.16 1.06-.41.33-.51.56-.74.1-.84.35-1.05.7-.13.98-.3.44-.52.73-.67.62-.2.93-.3.57-.38.89-.46.63-.35.95-.38.69.56 1.01.56.63-.14.93-.1.62.09.92.17.47.49.76.61.79-.2 1.06-.05.67.17.92.37.2.75.43.97.67.24.87.48.36.53.55.79-.06.78.11 1.05.8.27.94.55.15.63.28.92.63.44.74.73-.15.74-.06 1.04.53.58.61.89Z" fill="#ff7d55" stroke-width="0"/>
    <path d="M149.12 26.44c-.03.31-.83.58-.91.91-.07.31.59.86.47 1.17s-.53.51-.67.8-.82.26-1 .54-.27.55-.47.81 0 .84-.23 1.08-.79.1-1.04.31-.3.65-.57.83-.44.57-.74.71-.63.27-.94.36-.69-.05-1.02-.02-.68.4-1.01.37-.64-.31-.97-.4-.46-.74-.76-.83-.88.74-1.19.65-.36-1-.66-1.1-.82.38-1.11.27-.44-.63-.72-.76-.7-.04-.97-.19-.24-.79-.5-.97-.45-.36-.68-.57-.6-.24-.79-.49-.12-.59-.27-.88-.99-.28-1.08-.59c-.08-.29.37-.72.33-1.05-.04-.3-.33-.59-.33-.93s-.05-.67-.02-.99 0-.69.06-1 .88-.41.99-.72-.68-.99-.54-1.28.62-.44.79-.71.86-.16 1.06-.41.33-.51.56-.74.1-.84.35-1.05.7-.13.98-.3.44-.52.73-.67.62-.2.93-.3.57-.38.89-.46.63-.35.95-.38.69.56 1.01.56.63-.14.93-.1.62.09.92.17.47.49.76.61.79-.2 1.06-.05.67.17.92.37.2.75.43.97.67.24.87.48.36.53.55.79-.06.78.11 1.05.8.27.94.55.15.63.28.92.63.44.74.73-.15.74-.06 1.04.53.58.61.89Z" fill="#1e6e8e" stroke-width="0"/>
    <path d="M235.97 49.74c-.03.31-.83.58-.91.91-.07.31.59.86.47 1.17s-.53.51-.67.8-.82.26-1 .54-.27.55-.47.81 0 .84-.23 1.08-.79.1-1.04.31-.3.65-.57.83-.44.57-.74.71-.63.27-.94.36-.69-.05-1.02-.02-.68.4-1.01.37-.64-.31-.97-.4-.46-.74-.76-.83-.88.74-1.19.65-.36-1-.66-1.1-.82.38-1.11.27-.44-.63-.72-.76-.7-.04-.97-.19-.24-.79-.5-.97-.45-.36-.68-.57-.6-.24-.79-.49-.12-.59-.27-.88-.99-.28-1.08-.59c-.08-.29.37-.72.33-1.05-.04-.3-.33-.59-.33-.93s-.05-.67-.02-.99 0-.69.06-1 .88-.41.99-.72-.68-.99-.54-1.28.62-.44.79-.71.86-.16 1.06-.41.33-.51.56-.74.1-.84.35-1.05.7-.13.98-.3.44-.52.73-.67.62-.2.93-.3.57-.38.89-.46.63-.35.95-.38.69.56 1.01.56.63-.14.93-.1.62.09.92.17.47.49.76.61.79-.2 1.06-.05.67.17.92.37.2.75.43.97.67.24.87.48.36.53.55.79-.06.78.11 1.05.8.27.94.55.15.63.28.92.63.44.74.73-.15.74-.06 1.04.53.58.61.89Z" fill="#1f8c8c" stroke-width="0" />
    <path d="M178.83 66.5c-.03.31-.83.58-.91.91-.07.31.59.86.47 1.17s-.53.51-.67.8-.82.26-1 .54-.27.55-.47.81 0 .84-.23 1.08-.79.1-1.04.31-.3.65-.57.83-.44.57-.74.71-.63.27-.94.36-.69-.05-1.02-.02-.68.4-1.01.37-.64-.31-.97-.4-.46-.74-.76-.83-.88.74-1.19.65-.36-1-.66-1.1-.82.38-1.11.27-.44-.63-.72-.76-.7-.04-.97-.19-.24-.79-.5-.97-.45-.36-.68-.57-.6-.24-.79-.49-.12-.59-.27-.88-.99-.28-1.08-.59c-.08-.29.37-.72.33-1.05-.04-.3-.33-.59-.33-.93s-.05-.67-.02-.99 0-.69.06-1 .88-.41.99-.72-.68-.99-.54-1.28.62-.44.79-.71.86-.16 1.06-.41.33-.51.56-.74.1-.84.35-1.05.7-.13.98-.3.44-.52.73-.67.62-.2.93-.3.57-.38.89-.46.63-.35.95-.38.69.56 1.01.56.63-.14.93-.1.62.09.92.17.47.49.76.61.79-.2 1.06-.05.67.17.92.37.2.75.43.97.67.24.87.48.36.53.55.79-.06.78.11 1.05.8.27.94.55.15.63.28.92.63.44.74.73-.15.74-.06 1.04.53.58.61.89Z" fill="#c64f34" stroke-width="0"/>
    <path d="M33.88 117.37c-.18-.45-.96-.06-1.12-.65-.07-.26.43-.72.36-1.08-.06-.29-.74-.51-.79-.86-.04-.3.8-.72.77-1.06-.02-.31-.77-.6-.77-.94 0-.31.32-.64.34-.97.02-.31 0-.64.04-.97s0-.66.06-.98.77-.47.85-.79-.3-.74-.19-1.05-.21-.79-.08-1.09.28-.61.44-.9.6-.42.77-.7.82-.21 1.01-.48-.24-.97-.03-1.23.6-.34.82-.58.77-.13 1-.36.49-.37.74-.59.36-.54.62-.74.29-.67.56-.86.73-.05 1.01-.22.24-.83.53-.99.82.16 1.11.01.42-.57.72-.71.52-.42.82-.55.6-.25.9-.38.83.36 1.13.24.3-1.06.61-1.17.84.48 1.15.38.59-.14.9-.24c.46-.08.26-.71.85-.76.26-.02.63.54.98.5.29-.03.59-.14.93-.18.29-.03.62.03.94-.01.3-.04.54-.53.86-.58.3-.04.64.1.95.05s.63.01.94-.05.57-.32.88-.38.59-.22.89-.29.59-.21.89-.29.59-.2.88-.29.64-.04.93-.14.63-.11.91-.22.67-.07.94-.2c.29-.14.72-.06.98-.21.28-.17.28-.76.51-.94.21-.16.4-.42.68-.68.21-.2.23-.65.48-.89.22-.21.51-.36.75-.6.22-.21.72-.16.96-.39.22-.21.66-.22.9-.45.23-.21.09-.83.34-1.06.23-.21.36-.56.61-.78s.53-.37.78-.59.95.14 1.21-.08.25-.7.51-.9.26-.71.52-.91.79-.03 1.05-.23.73-.09.99-.28.24-.77.51-.96.49-.43.76-.61.41-.56.69-.73.85.14 1.13-.02.39-.6.68-.76.44-.55.73-.7.97.48 1.26.33.26-.93.55-1.07.85.31 1.14.18.26-1.03.56-1.15.9.52 1.2.4.36-.87.67-.97.84.49 1.15.39.56-.33.87-.42.6-.2.92-.29.52-.56.84-.63.62-.22.93-.29.67.05.99-.01.6-.35.92-.4.71.44 1.03.4.63-.09.96-.12.59-.72.92-.74.67.3.99.29.65-.24.97-.24.66-.15.98-.14.63.61.95.63.64.03.97.05.62.2.95.23.67-.21.99-.17.68-.2 1-.15.51.88.83.93.78-.65 1.1-.58.55.51.87.58.72-.24 1.04-.16.6.27.92.35.47.7.78.79.7-.09 1.01 0 .76-.23 1.07-.13.33.98.64 1.09.77-.21 1.08-.09.6.77.91.9c.48-.04.43-.3.98-.6.24-.13.28-.73.6-.91.26-.14.68-.03.99-.19.27-.14.55-.3.85-.45.27-.14.39-.63.69-.78.28-.14.8.2 1.1.05.28-.14.34-.76.64-.9.28-.13.77.14 1.07 0s.3-.88.6-1.01.83.28 1.13.14.66-.09.96-.22.28-.98.58-1.11.87.43 1.17.3.64-.11.94-.23.34-.88.64-1 .6-.23.9-.35.85.46 1.15.35.46-.59.77-.7.59-.24.9-.34.75.22 1.06.12.6-.23.9-.33.57-.32.88-.41.55-.41.86-.5.57-.37.88-.45.77.4 1.08.32.54-.49.85-.57.5-.71.81-.78.75.41 1.07.35.53-.67.84-.73.72.31 1.04.26.69.26 1.01.21.61-.22.93-.26.63-.1.95-.13.59-.52.91-.55.65 0 .97-.03.65-.05.97-.06.66.6.98.59.63 0 .95.01.66-.64.98-.62.6.71.92.74.73-.79 1.04-.76.67 0 .99.04.63.24.94.31.63.22.94.3.65.13.95.23.42.79.72.9.6.23.89.34.71-.07 1 .04.44.63.72.75.61.19.9.32c.3.13.79-.2 1.07-.07.3.14.61.23.89.37.29.14.42.59.7.74.29.15.47.47.74.62.29.16.72.03.99.18.29.16.84-.15 1.1.01.28.17.1 1.07.36 1.23.28.18.75.02 1.01.19.27.18.79-.02 1.05.15.27.18.09 1.01.34 1.19.27.19.69.13.95.3.27.18.58.29.84.46s.53.36.8.52.44.54.72.69.54.41.83.53.81-.4 1.12-.3.59.11.91.17c.3.06.5.78.83.82.3.04.67-.54 1-.52.3.02.6.25.93.25.3 0 .62-.02.95-.03.3-.01.63.05.95.03.31-.03.64.09.97.06.3-.03.65.13.98.09.3-.04.59-.32.91-.37.31-.05.61-.17.94-.22.31-.05.59-.27.91-.34s.69.16 1.01.11.67.08.98.02.54-.79.85-.83.65-.09.97-.12.72.61 1.04.57.57-.92.89-.95.65-.09.97-.11.69.89 1.01.88.64-.1.96-.1.64-.23.96-.22.66-.32.98-.31.61.55.93.58.66-.14.98-.1.59.41.9.46.72-.38 1.03-.32.71-.18 1.02-.11.64.18.95.27.38.96.69 1.06.63.1.93.21.89-.47 1.18-.34.23 1.04.52 1.18.82-.19 1.1-.04.26.82.54.99.77-.03 1.04.16.76.06 1.02.25.36.6.61.8.62.28.86.5.48.45.71.68 0 .9.22 1.13.72.2.94.45.63.32.84.57.19.67.38.93.22.63.4.9.17.65.35.92.41.49.58.77.42.49.58.78.2.61.35.9.8.31.95.61.37.4.51.7c.27.18-.02 1.02.26 1.18s.71.08 1 .22.61.23.91.35.49.56.8.67.69-.02 1.01.08.71-.15 1.02-.06.53.51.84.59.74-.33 1.05-.26.66-.02.98.05.59.29.91.37.58.36.89.43.71-.21 1.03-.13.55.45.87.53.71-.13 1.02-.04.57.37.88.47.65.11.96.22.64.15.95.27.52.45.82.59.53.39.82.53.76-.04 1.04.12.32.74.6.91.57.3.84.48.37.57.63.77.48.4.74.61.95-.12 1.2.1.44.49.67.72 0 .9.21 1.14.3.57.51.82.67.26.87.52.25.61.44.87.33.54.51.81.73.29.91.57-.19.85-.02 1.14 1.14.1 1.3.39.02.7.16.99c.22.24.34.54.54.78s.44.48.63.73.15.68.32.94.05.7.21.98 1.05.16 1.19.45-.43.91-.31 1.2.85.35.96.64.39.57.49.87.23.63.3.94-.28.73-.23 1.04.02.65.06.96.2.63.22.94-.38.66-.37.97.67.64.67.95-.76.62-.78.93c-.02.33.2.65.17.96-.03.33.05.66 0 .96-.05.33.38.74.32 1.03-.06.34-.66.54-.73.83-.08.36.31.8.24 1.06-.17.58-.29.36-.33.83s-.04.28.05.88c.04.26-.15.61-.11.97.03.29-.02.61.02.95.03.3-.28.63-.25.96.02.3.06.6.08.93.02.31.65.59.66.92 0 .31.25.63.25.95s-.73.62-.74.94.49.64.48.96.1.64.08.96-.06.64-.09.95-.19.62-.24.93-.65.53-.71.84.53.75.46 1.06-.21.61-.29.92-.66.46-.76.77.49.84.38 1.14-.46.52-.59.8-.54.45-.69.73-.26.57-.42.84-.25.59-.44.84-.29.58-.49.82-.68.24-.9.47-.16.74-.4.95-.4.54-.65.73-.8-.04-1.07.13-.25.9-.53 1.05-.85-.24-1.15-.11-.62.15-.93.26-.44.76-.75.85-.69-.04-1.01.03-.75-.49-1.07-.44-.61.11-.93.15-.6.39-.92.41-.65-.31-.97-.3-.63.66-.96.66-.67.3-.99.29-.59-.95-.91-.98-.69.44-1.01.4-.7.29-1.02.24-.63-.24-.95-.29-.49-.88-.8-.95-.77.51-1.08.44-.58-.34-.9-.42-.58-.34-.89-.42-.56-.36-.87-.46-.76.27-1.07.16-.55-.4-.85-.51-.56-.36-.86-.48-.55-.36-.85-.48-.77.16-1.07.03-.44-.6-.73-.73-.55-.35-.83-.49-.76.06-1.04-.08-.76.03-1.04-.13-.36-.7-.63-.86-.79.04-1.06-.13-.34-.68-.61-.86-.37-.6-.63-.78c-.27-.19-.88.1-1.13-.1-.26-.2-.31-.77-.55-.97-.31.06-.74-.1-1.06-.03s-.5.71-.81.78-.68-.09-.99-.01-.71-.21-1.02-.13-.62.16-.93.23-.46.82-.78.89-.79-.57-1.1-.5-.56.43-.87.5-.53.56-.84.63-.69-.16-1.01-.09-.65.04-.96.11-.68-.12-.99-.06-.64.07-.95.12-.59.35-.9.4-.6.31-.92.36-.7-.42-1.02-.38-.6.31-.92.34-.61.32-.93.35-.67-.44-.99-.42-.61.62-.93.63-.64.11-.97.11-.64-.5-.96-.51-.65.45-.98.44-.61-.51-.93-.53-.7.63-1.02.59-.54-.84-.86-.88-.68.25-1 .19-.67.1-.99.03-.63-.15-.94-.23-.61-.23-.92-.32-.45-.71-.76-.81-.68.04-.98-.07-.51-.43-.81-.55-.89.48-1.19.35-.63-.21-.91-.35-.23-.99-.51-1.14-.86.25-1.14.1-.56-.33-.83-.49-.2-.9-.47-1.07-1.02.4-1.29.23-.11-.99-.37-1.17-.9.17-1.16-.01-.16-.89-.42-1.07-.72-.11-.97-.3-.78-.03-1.04-.22-.03-1.03-.29-1.22-.54-.36-.8-.54-.85.08-1.11-.1-.16-.91-.42-1.09-.57-.32-.84-.48-.92.28-1.19.12-.47-.46-.75-.6-.52-.39-.81-.51-.5-.47-.8-.58-.77.36-1.08.28-.46-.82-.78-.88-.67.14-.99.11-.63-.06-.96-.06-.59.48-.92.51-.73-.8-1.06-.75-.54.58-.86.65-.7-.14-1.01-.05-.59.27-.9.38c-.29.11-.4.7-.7.82-.29.12-.69-.02-.99.12s-.52.37-.82.52-.77-.09-1.06.07-.53.37-.82.52-.42.59-.71.73-.4.66-.69.8-.98-.54-1.27-.4-.21 1.1-.51 1.23-.81-.24-1.11-.12-.56.34-.86.46-.72-.08-1.02.03-.39.85-.69.96-.86-.55-1.17-.45-.38.98-.69 1.07-.74-.23-1.05-.15-.61.26-.92.33-.64.09-.96.15-.71-.32-1.03-.27-.64 0-.96.05-.59.42-.92.45-.63.16-.96.18-.64.05-.97.06-.65.38-.97.38-.64-.51-.96-.52-.62-.33-.94-.35-.66.21-.98.18-.64-.08-.96-.13-.75.51-1.07.45-.48-.87-.8-.94-.68.1-1 .01-.61-.2-.92-.29-.55-.37-.86-.47-.61-.17-.92-.29-.66-.08-.96-.21-.55-.34-.85-.48-.76.09-1.05-.06-.4-.62-.69-.78-.39-.6-.68-.76-.6-.23-.88-.41-.57-.29-.84-.47-.77 0-1.04-.2-.3-.68-.56-.88-.54-.35-.8-.55-.93.13-1.19-.07.06-1.08-.19-1.29-.71-.16-.96-.38-.27-.84-.51-1.06c-.44-.24-.55-.14-1.18-.19-.28-.02-.66.19-1.04.2-.3 0-.63.33-.99.37-.31.03-.65.02-1 .09-.31.06-.69-.08-1.03.02-.31.09-.65.17-.97.29-.3.11-.66.18-.97.33-.29.13-.32.83-.62.99-.28.16-.96-.33-1.25-.14-.27.18-.51.46-.79.67-.26.19-.15.89-.41 1.11-.23.2-.86-.09-1.13.1-.25.18-.44.43-.72.61-.26.17-.58.22-.86.39s-.17.96-.46 1.12-.56.32-.85.46-.78-.15-1.07-.02-.71-.06-1.01.07-.4.67-.7.79-.54.38-.84.49-.51.5-.81.6-.77-.32-1.08-.22-.51.54-.82.63-.78-.46-1.09-.38-.63.03-.95.1-.44.96-.76 1.02-.69-.22-1.01-.16-.6.25-.92.3-.61.25-.93.29-.7-.47-1.02-.43-.64-.12-.97-.09-.63.03-.95.05-.62.11-.94.12-.61.76-.93.77-.64-.24-.96-.24-.64.02-.96.02-.63-.38-.95-.39-.64.07-.96.05-.64 0-.96-.02-.68.4-1 .37-.59-.55-.9-.59-.6-.26-.92-.3-.69.34-1.01.29-.54-.64-.85-.7-.77.62-1.08.56-.48-.82-.8-.89-.66.03-.97-.04-.62.29-.94.21c-.29.15-.56.13-.84.27s-.68.1-.96.25-.41.63-.69.77-.7.06-.98.2-.7.04-.99.17-.54.38-.82.51-.58.28-.87.41-.52.42-.81.55-.66.1-.95.22-.67.06-.96.18c-.31.12-.4.76-.69.87-.31.12-.62.21-.92.31-.31.11-.69 0-.99.09-.31.1-.67 0-.97.09-.32.09-.57.34-.88.42-.32.08-.57.45-.87.51-.32.06-.66.04-.97.08-.33.05-.62.47-.93.49-.33.03-.69-.78-1-.77s-.67.78-.98.76-.58-.73-.9-.78-.71.32-1.02.26-.57-.37-.88-.46-.75.21-1.05.1-.29-.98-.59-1.1-.83.32-1.13.17-.58-.33-.84-.5-.16-.84-.39-1.04-.96.08-1.17-.16-.3-.61-.48-.87.14-.82-.01-1.1-1.08-.18-1.21-.46-.11-.67-.22-.97-.22-.63-.3-.93-.27-.62-.33-.93c-.06-.33.46-.74.42-1.04-.04-.34-.55-.62-.57-.91-.02-.36.75-.71.75-.98 0-.59-.54-.31-.81-.7s.13-.63-.39-.87c-.24-.11-.59-.07-.9-.24-.25-.14-.37-.51-.65-.69-.25-.16-.8.09-1.06-.11-.24-.19-.43-.45-.66-.67s-.49-.4-.7-.64-.56-.39-.73-.66.33-.89.19-1.18-.56-.4-.65-.71-.26-.56-.32-.88c-.05-.3-.56-.59-.57-.91-.01-.3.22-.65.25-.98.02-.3-.11-.67-.06-.99.05-.29 1.03-.39 1.11-.7.08-.29-.14-.66-.03-.97.1-.28-.13-.76 0-1.06.21-.24.87-.1 1.07-.32.22-.24.4-.49.6-.71.22-.24-.07-.92.13-1.14.22-.24.87-.06 1.07-.28.22-.24.58-.33.78-.55.22-.24.47-.43.66-.65.22-.24.31-.59.5-.8.23-.25.26-.65.45-.86.24-.26.21-.69.39-.89.26-.28.8-.19.96-.37.62-.68 1-.56.83-.98Z" fill="#f7f7f7" stroke-width="0" />
    <path d="M33.88 117.37c-.18-.45-.96-.06-1.12-.65-.07-.26.43-.72.36-1.08-.06-.29-.74-.51-.79-.86-.04-.3.8-.72.77-1.06-.02-.31-.77-.6-.77-.94 0-.31.32-.64.34-.97.02-.31 0-.64.04-.97s0-.66.06-.98.77-.47.85-.79-.3-.74-.19-1.05-.21-.79-.08-1.09.28-.61.44-.9.6-.42.77-.7.82-.21 1.01-.48-.24-.97-.03-1.23.6-.34.82-.58.77-.13 1-.36.49-.37.74-.59.36-.54.62-.74.29-.67.56-.86.73-.05 1.01-.22.24-.83.53-.99.82.16 1.11.01.42-.57.72-.71.52-.42.82-.55.6-.25.9-.38.83.36 1.13.24.3-1.06.61-1.17.84.48 1.15.38.59-.14.9-.24c.46-.08.26-.71.85-.76.26-.02.63.54.98.5.29-.03.59-.14.93-.18.29-.03.62.03.94-.01.3-.04.54-.53.86-.58.3-.04.64.1.95.05s.63.01.94-.05.57-.32.88-.38.59-.22.89-.29.59-.21.89-.29.59-.2.88-.29.64-.04.93-.14.63-.11.91-.22.67-.07.94-.2c.29-.14.72-.06.98-.21.28-.17.28-.76.51-.94.21-.16.4-.42.68-.68.21-.2.23-.65.48-.89.22-.21.51-.36.75-.6.22-.21.72-.16.96-.39.22-.21.66-.22.9-.45.23-.21.09-.83.34-1.06.23-.21.36-.56.61-.78s.53-.37.78-.59.95.14 1.21-.08.25-.7.51-.9.26-.71.52-.91.79-.03 1.05-.23.73-.09.99-.28.24-.77.51-.96.49-.43.76-.61.41-.56.69-.73.85.14 1.13-.02.39-.6.68-.76.44-.55.73-.7.97.48 1.26.33.26-.93.55-1.07.85.31 1.14.18.26-1.03.56-1.15.9.52 1.2.4.36-.87.67-.97.84.49 1.15.39.56-.33.87-.42.6-.2.92-.29.52-.56.84-.63.62-.22.93-.29.67.05.99-.01.6-.35.92-.4.71.44 1.03.4.63-.09.96-.12.59-.72.92-.74.67.3.99.29.65-.24.97-.24.66-.15.98-.14.63.61.95.63.64.03.97.05.62.2.95.23.67-.21.99-.17.68-.2 1-.15.51.88.83.93.78-.65 1.1-.58.55.51.87.58.72-.24 1.04-.16.6.27.92.35.47.7.78.79.7-.09 1.01 0 .76-.23 1.07-.13.33.98.64 1.09.77-.21 1.08-.09.6.77.91.9c.48-.04.43-.3.98-.6.24-.13.28-.73.6-.91.26-.14.68-.03.99-.19.27-.14.55-.3.85-.45.27-.14.39-.63.69-.78.28-.14.8.2 1.1.05.28-.14.34-.76.64-.9.28-.13.77.14 1.07 0s.3-.88.6-1.01.83.28 1.13.14.66-.09.96-.22.28-.98.58-1.11.87.43 1.17.3.64-.11.94-.23.34-.88.64-1 .6-.23.9-.35.85.46 1.15.35.46-.59.77-.7.59-.24.9-.34.75.22 1.06.12.6-.23.9-.33.57-.32.88-.41.55-.41.86-.5.57-.37.88-.45.77.4 1.08.32.54-.49.85-.57.5-.71.81-.78.75.41 1.07.35.53-.67.84-.73.72.31 1.04.26.69.26 1.01.21.61-.22.93-.26.63-.1.95-.13.59-.52.91-.55.65 0 .97-.03.65-.05.97-.06.66.6.98.59.63 0 .95.01.66-.64.98-.62.6.71.92.74.73-.79 1.04-.76.67 0 .99.04.63.24.94.31.63.22.94.3.65.13.95.23.42.79.72.9.6.23.89.34.71-.07 1 .04.44.63.72.75.61.19.9.32c.3.13.79-.2 1.07-.07.3.14.61.23.89.37.29.14.42.59.7.74.29.15.47.47.74.62.29.16.72.03.99.18.29.16.84-.15 1.1.01.28.17.1 1.07.36 1.23.28.18.75.02 1.01.19.27.18.79-.02 1.05.15.27.18.09 1.01.34 1.19.27.19.69.13.95.3.27.18.58.29.84.46s.53.36.8.52.44.54.72.69.54.41.83.53.81-.4 1.12-.3.59.11.91.17c.3.06.5.78.83.82.3.04.67-.54 1-.52.3.02.6.25.93.25.3 0 .62-.02.95-.03.3-.01.63.05.95.03.31-.03.64.09.97.06.3-.03.65.13.98.09.3-.04.59-.32.91-.37.31-.05.61-.17.94-.22.31-.05.59-.27.91-.34s.69.16 1.01.11.67.08.98.02.54-.79.85-.83.65-.09.97-.12.72.61 1.04.57.57-.92.89-.95.65-.09.97-.11.69.89 1.01.88.64-.1.96-.1.64-.23.96-.22.66-.32.98-.31.61.55.93.58.66-.14.98-.1.59.41.9.46.72-.38 1.03-.32.71-.18 1.02-.11.64.18.95.27.38.96.69 1.06.63.1.93.21.89-.47 1.18-.34.23 1.04.52 1.18.82-.19 1.1-.04.26.82.54.99.77-.03 1.04.16.76.06 1.02.25.36.6.61.8.62.28.86.5.48.45.71.68 0 .9.22 1.13.72.2.94.45.63.32.84.57.19.67.38.93.22.63.4.9.17.65.35.92.41.49.58.77.42.49.58.78.2.61.35.9.8.31.95.61.37.4.51.7c.27.18-.02 1.02.26 1.18s.71.08 1 .22.61.23.91.35.49.56.8.67.69-.02 1.01.08.71-.15 1.02-.06.53.51.84.59.74-.33 1.05-.26.66-.02.98.05.59.29.91.37.58.36.89.43.71-.21 1.03-.13.55.45.87.53.71-.13 1.02-.04.57.37.88.47.65.11.96.22.64.15.95.27.52.45.82.59.53.39.82.53.76-.04 1.04.12.32.74.6.91.57.3.84.48.37.57.63.77.48.4.74.61.95-.12 1.2.1.44.49.67.72 0 .9.21 1.14.3.57.51.82.67.26.87.52.25.61.44.87.33.54.51.81.73.29.91.57-.19.85-.02 1.14 1.14.1 1.3.39.02.7.16.99c.22.24.34.54.54.78s.44.48.63.73.15.68.32.94.05.7.21.98 1.05.16 1.19.45-.43.91-.31 1.2.85.35.96.64.39.57.49.87.23.63.3.94-.28.73-.23 1.04.02.65.06.96.2.63.22.94-.38.66-.37.97.67.64.67.95-.76.62-.78.93c-.02.33.2.65.17.96-.03.33.05.66 0 .96-.05.33.38.74.32 1.03-.06.34-.66.54-.73.83-.08.36.31.8.24 1.06-.17.58-.29.36-.33.83s-.04.28.05.88c.04.26-.15.61-.11.97.03.29-.02.61.02.95.03.3-.28.63-.25.96.02.3.06.6.08.93.02.31.65.59.66.92 0 .31.25.63.25.95s-.73.62-.74.94.49.64.48.96.1.64.08.96-.06.64-.09.95-.19.62-.24.93-.65.53-.71.84.53.75.46 1.06-.21.61-.29.92-.66.46-.76.77.49.84.38 1.14-.46.52-.59.8-.54.45-.69.73-.26.57-.42.84-.25.59-.44.84-.29.58-.49.82-.68.24-.9.47-.16.74-.4.95-.4.54-.65.73-.8-.04-1.07.13-.25.9-.53 1.05-.85-.24-1.15-.11-.62.15-.93.26-.44.76-.75.85-.69-.04-1.01.03-.75-.49-1.07-.44-.61.11-.93.15-.6.39-.92.41-.65-.31-.97-.3-.63.66-.96.66-.67.3-.99.29-.59-.95-.91-.98-.69.44-1.01.4-.7.29-1.02.24-.63-.24-.95-.29-.49-.88-.8-.95-.77.51-1.08.44-.58-.34-.9-.42-.58-.34-.89-.42-.56-.36-.87-.46-.76.27-1.07.16-.55-.4-.85-.51-.56-.36-.86-.48-.55-.36-.85-.48-.77.16-1.07.03-.44-.6-.73-.73-.55-.35-.83-.49-.76.06-1.04-.08-.76.03-1.04-.13-.36-.7-.63-.86-.79.04-1.06-.13-.34-.68-.61-.86-.37-.6-.63-.78c-.27-.19-.88.1-1.13-.1-.26-.2-.31-.77-.55-.97-.31.06-.74-.1-1.06-.03s-.5.71-.81.78-.68-.09-.99-.01-.71-.21-1.02-.13-.62.16-.93.23-.46.82-.78.89-.79-.57-1.1-.5-.56.43-.87.5-.53.56-.84.63-.69-.16-1.01-.09-.65.04-.96.11-.68-.12-.99-.06-.64.07-.95.12-.59.35-.9.4-.6.31-.92.36-.7-.42-1.02-.38-.6.31-.92.34-.61.32-.93.35-.67-.44-.99-.42-.61.62-.93.63-.64.11-.97.11-.64-.5-.96-.51-.65.45-.98.44-.61-.51-.93-.53-.7.63-1.02.59-.54-.84-.86-.88-.68.25-1 .19-.67.1-.99.03-.63-.15-.94-.23-.61-.23-.92-.32-.45-.71-.76-.81-.68.04-.98-.07-.51-.43-.81-.55-.89.48-1.19.35-.63-.21-.91-.35-.23-.99-.51-1.14-.86.25-1.14.1-.56-.33-.83-.49-.2-.9-.47-1.07-1.02.4-1.29.23-.11-.99-.37-1.17-.9.17-1.16-.01-.16-.89-.42-1.07-.72-.11-.97-.3-.78-.03-1.04-.22-.03-1.03-.29-1.22-.54-.36-.8-.54-.85.08-1.11-.1-.16-.91-.42-1.09-.57-.32-.84-.48-.92.28-1.19.12-.47-.46-.75-.6-.52-.39-.81-.51-.5-.47-.8-.58-.77.36-1.08.28-.46-.82-.78-.88-.67.14-.99.11-.63-.06-.96-.06-.59.48-.92.51-.73-.8-1.06-.75-.54.58-.86.65-.7-.14-1.01-.05-.59.27-.9.38c-.29.11-.4.7-.7.82-.29.12-.69-.02-.99.12s-.52.37-.82.52-.77-.09-1.06.07-.53.37-.82.52-.42.59-.71.73-.4.66-.69.8-.98-.54-1.27-.4-.21 1.1-.51 1.23-.81-.24-1.11-.12-.56.34-.86.46-.72-.08-1.02.03-.39.85-.69.96-.86-.55-1.17-.45-.38.98-.69 1.07-.74-.23-1.05-.15-.61.26-.92.33-.64.09-.96.15-.71-.32-1.03-.27-.64 0-.96.05-.59.42-.92.45-.63.16-.96.18-.64.05-.97.06-.65.38-.97.38-.64-.51-.96-.52-.62-.33-.94-.35-.66.21-.98.18-.64-.08-.96-.13-.75.51-1.07.45-.48-.87-.8-.94-.68.1-1 .01-.61-.2-.92-.29-.55-.37-.86-.47-.61-.17-.92-.29-.66-.08-.96-.21-.55-.34-.85-.48-.76.09-1.05-.06-.4-.62-.69-.78-.39-.6-.68-.76-.6-.23-.88-.41-.57-.29-.84-.47-.77 0-1.04-.2-.3-.68-.56-.88-.54-.35-.8-.55-.93.13-1.19-.07.06-1.08-.19-1.29-.71-.16-.96-.38-.27-.84-.51-1.06c-.44-.24-.55-.14-1.18-.19-.28-.02-.66.19-1.04.2-.3 0-.63.33-.99.37-.31.03-.65.02-1 .09-.31.06-.69-.08-1.03.02-.31.09-.65.17-.97.29-.3.11-.66.18-.97.33-.29.13-.32.83-.62.99-.28.16-.96-.33-1.25-.14-.27.18-.51.46-.79.67-.26.19-.15.89-.41 1.11-.23.2-.86-.09-1.13.1-.25.18-.44.43-.72.61-.26.17-.58.22-.86.39s-.17.96-.46 1.12-.56.32-.85.46-.78-.15-1.07-.02-.71-.06-1.01.07-.4.67-.7.79-.54.38-.84.49-.51.5-.81.6-.77-.32-1.08-.22-.51.54-.82.63-.78-.46-1.09-.38-.63.03-.95.1-.44.96-.76 1.02-.69-.22-1.01-.16-.6.25-.92.3-.61.25-.93.29-.7-.47-1.02-.43-.64-.12-.97-.09-.63.03-.95.05-.62.11-.94.12-.61.76-.93.77-.64-.24-.96-.24-.64.02-.96.02-.63-.38-.95-.39-.64.07-.96.05-.64 0-.96-.02-.68.4-1 .37-.59-.55-.9-.59-.6-.26-.92-.3-.69.34-1.01.29-.54-.64-.85-.7-.77.62-1.08.56-.48-.82-.8-.89-.66.03-.97-.04-.62.29-.94.21c-.29.15-.56.13-.84.27s-.68.1-.96.25-.41.63-.69.77-.7.06-.98.2-.7.04-.99.17-.54.38-.82.51-.58.28-.87.41-.52.42-.81.55-.66.1-.95.22-.67.06-.96.18c-.31.12-.4.76-.69.87-.31.12-.62.21-.92.31-.31.11-.69 0-.99.09-.31.1-.67 0-.97.09-.32.09-.57.34-.88.42-.32.08-.57.45-.87.51-.32.06-.66.04-.97.08-.33.05-.62.47-.93.49-.33.03-.69-.78-1-.77s-.67.78-.98.76-.58-.73-.9-.78-.71.32-1.02.26-.57-.37-.88-.46-.75.21-1.05.1-.29-.98-.59-1.1-.83.32-1.13.17-.58-.33-.84-.5-.16-.84-.39-1.04-.96.08-1.17-.16-.3-.61-.48-.87.14-.82-.01-1.1-1.08-.18-1.21-.46-.11-.67-.22-.97-.22-.63-.3-.93-.27-.62-.33-.93c-.06-.33.46-.74.42-1.04-.04-.34-.55-.62-.57-.91-.02-.36.75-.71.75-.98 0-.59-.54-.31-.81-.7s.13-.63-.39-.87c-.24-.11-.59-.07-.9-.24-.25-.14-.37-.51-.65-.69-.25-.16-.8.09-1.06-.11-.24-.19-.43-.45-.66-.67s-.49-.4-.7-.64-.56-.39-.73-.66.33-.89.19-1.18-.56-.4-.65-.71-.26-.56-.32-.88c-.05-.3-.56-.59-.57-.91-.01-.3.22-.65.25-.98.02-.3-.11-.67-.06-.99.05-.29 1.03-.39 1.11-.7.08-.29-.14-.66-.03-.97.1-.28-.13-.76 0-1.06.21-.24.87-.1 1.07-.32.22-.24.4-.49.6-.71.22-.24-.07-.92.13-1.14.22-.24.87-.06 1.07-.28.22-.24.58-.33.78-.55.22-.24.47-.43.66-.65.22-.24.31-.59.5-.8.23-.25.26-.65.45-.86.24-.26.21-.69.39-.89.26-.28.8-.19.96-.37.62-.68 1-.56.83-.98Z" fill="none" stroke="#efefef" stroke-miterlimit="10" stroke-width="3px"/>
    <path d="M280.53 96.65c-.28.37-.2.42-.48.79s.1.65-.18 1.02-.46.23-.74.59-.13.48-.41.84-1.02-.19-1.29.17-.02.56-.29.93.04.61-.24.98-.74.02-1.02.39-.25.39-.53.76.25.77-.02 1.14c-.2.27-.83.39-.82.73.02.46-.19.47-.17.92s-.03.46-.01.92.19.45.21.91.27.45.29.91.33.45.35.9-.44.48-.42.93.39.44.41.9-.16.47-.14.93.4.45.42.91-.71.49-.69.95c.01.34.66.88.49 1.13s-.89-.05-1.19.05-.68.8-1 .69c-.43-.15-.16-.94-.59-1.09s-.6.33-1.03.18-.32-.48-.76-.63-.35-.38-.79-.53-.59.3-1.02.15-.43-.16-.86-.3-.35-.4-.78-.55-.52.11-.96-.04-.44-.14-.88-.29-.33-.45-.77-.6c-.32-.11-.65.44-.96.56-.43.16-.57-.23-1-.07s-.41.21-.84.37-.26.63-.69.79-.75-.69-1.18-.53-.17.85-.6 1.01-.55-.15-.97 0-.27.59-.7.75-.53-.1-.96.06-.58-.23-1.01-.07-.32.47-.75.64c-.32.12-.77.48-1.06.39s-.2-.86-.39-1.11-.35-.36-.34-.7c0-.46.26-.45.27-.91s-.19-.46-.18-.92-.47-.47-.46-.93-.15-.46-.14-.92.32-.45.33-.91-.34-.46-.33-.92.72-.45.73-.91-.04-.46-.03-.92.19-.46.2-.92-.3-.47-.29-.93c0-.34-.05-.8-.26-1.06-.28-.36-.75 0-1.03-.35s.28-.81 0-1.17-.26-.38-.54-.74-.44-.24-.73-.6-.79.04-1.08-.32-.23-.4-.52-.76-.33-.32-.62-.69.07-.64-.22-1-.07-.53-.36-.9-.5-.2-.78-.56c-.21-.26-.37-.57-.38-.87s.2-.59.39-.85.4-.41.72-.51c.44-.13.56.27 1 .13s.18-1 .61-1.13.48.01.92-.12.41-.23.85-.36.56.25 1 .12.47-.02.91-.16.43-.16.87-.3.43-.18.87-.31.39-.31.83-.45.37-.36.82-.49c.32-.1.46-.14.64-.42.25-.38.52-.2.78-.58s.11-.48.36-.86.62-.14.87-.53.38-.3.64-.68.23-.4.48-.78.18-.43.43-.81-.33-.77-.08-1.16.18-.44.43-.82.29-.36.55-.75.55-.19.8-.58c.19-.28.42-.71.7-.81s.85-.19 1.15-.09.26.77.46 1.04c.26.38.29.36.55.73s.29.36.55.73.64.11.91.49.01.55.28.93-.06.6.21.98.65.1.92.48 0 .56.26.94.47.24.73.61.39.29.66.67.48.23.74.61c.19.28.11.75.44.84.44.12.45.09.89.21s.53-.21.98-.08.31.59.76.71.41.24.85.36.5-.08.94.05.56-.31 1-.19.33.52.78.64.44.14.88.27.51-.09.95.03.46.06.91.19c.32.09.44.6.62.84s.11.51.11.83.1.56-.1.83Z" fill="#ffd371" stroke-width="0"/>
</svg>
