<?xml version="1.0" encoding="UTF-8"?><svg id="accessories" xmlns="http://www.w3.org/2000/svg" viewBox="0 0 300 300"><path d="m212.81,107.66c.03-.9.42-1.53,1.05-1.97,1.32-.95,2.67-1.84,4-2.76,1.14-.79,2.27-1.61,3.43-2.37,1.21-.79,2.44-1.57,3.71-2.26,2.99-1.65,5.98-3.31,9.04-4.85,3.74-1.88,7.54-3.61,11.48-5.06,2.5-.92,5.05-1.54,7.65-2.04.88-.17,1.8-.39,2.64.19.14.1.33.15.43.27.67.77,1.41,1.49,1.78,2.48.37.98.04,2.22-.83,2.91-1.46,1.17-2.96,2.3-4.4,3.5-2.15,1.8-4.52,3.25-6.95,4.62-1.81,1.02-3.58,2.11-5.38,3.14-.96.55-1.95,1.07-2.92,1.59-2.99,1.6-5.98,3.2-8.97,4.79-.88.47-1.77.91-2.65,1.37-2.25,1.17-4.51,2.33-6.74,3.53-1.22.66-2.14.43-3.23-.74-1.55-1.65-2.19-3.75-3-5.77-.08-.21-.1-.44-.13-.57Z" style="fill:#ddd3ca; stroke-width:0px;"/><path d="m212.5,88.98c-1.24-.02-2.02-.79-2.32-2-.19-.77.19-1.46.67-2.03.58-.7,2.63-1.21,3.52-.47.91.76,1.54,2.44.35,3.58-.57.55-1.21.95-2.22.92Z" style="fill:#f9eee5; stroke-width:0px;"/><path d="m226.36,82.25c-.1.32-.18.59-.27.86-.5,1.46-2,2.19-3.48,1.72-1.49-.48-2.02-2.25-.97-3.41.41-.45.93-.83,1.46-1.14.95-.56,2.18-.2,2.73.76.22.39.36.83.53,1.21Z" style="fill:#f9eee5; stroke-width:0px;"/><path d="m215.48,95.32c-.02-1.36,1.18-2.76,2.52-2.9.24-.03.54.03.73.16.62.44,1.21.92,1.52,1.67.35.84.11,1.55-.41,2.21-.14.18-.31.34-.48.49-.68.59-1.42.94-2.33.56-1.06-.45-1.54-1.14-1.56-2.19Z" style="fill:#f9eee5; stroke-width:0px;"/><path d="m226.69,81.16c0-1.36,1.28-2.64,2.67-2.55,1.34.1,2.17.98,2.27,2.26.1,1.28-1.38,2.69-2.71,2.68-1.06,0-2.32-1.23-2.23-2.4Z" style="fill:#f9eee5; stroke-width:0px;"/><path d="m215.54,97.48c-.15.95-.43,1.82-1.34,2.33-.84.47-1.69.42-2.51-.08-.84-.52-1.22-1.7-.85-2.62.11-.26.22-.53.38-.76.48-.73,1.18-1.25,2.04-1.17.92.08,1.79.43,2.11,1.45.09.27.11.55.16.84Z" style="fill:#f9eee5; stroke-width:0px;"/><path d="m236.8,78.91c-.06,1.38-.66,2.06-1.48,2.6-.79.52-1.6.35-2.35-.07-1.28-.72-1.35-2.77-.12-3.63.37-.26.8-.43,1.22-.6,1.42-.55,2.81.72,2.72,1.7Z" style="fill:#f9eee5; stroke-width:0px;"/><path d="m218.69,82.09c.71-.11,1.55.55,1.93,1.55.28.73.01,1.8-.58,2.26-.33.26-.71.47-1.1.63-1.5.63-2.85-.39-3.09-1.73-.14-.76.21-1.51.82-1.94.58-.41,1.24-.81,2.02-.76Z" style="fill:#f9eee5; stroke-width:0px;"/><path d="m210.58,100.1c-.2.41-.34.82-.57,1.18-.93,1.47-3.06,1.47-4.01.02-.36-.55-.33-1.16-.17-1.74.25-.9.92-1.5,1.73-1.91.65-.32,1.67.1,2.23.84.15.2.31.42.42.64.14.28.23.58.37.96Z" style="fill:#f9eee5; stroke-width:0px;"/><path d="m227.04,87.86c1.05-.1,1.75.39,2.13,1.28.35.84.09,1.63-.47,2.3-.5.61-1.11,1.04-1.97,1.04-1.51-.01-2.31-1.33-1.97-2.64.1-.4.33-.8.57-1.14.42-.59.97-.97,1.71-.84Z" style="fill:#f9eee5; stroke-width:0px;"/><path d="m204.96,97.77c-1.14,0-2.14-.98-2.14-2.08,0-1.48,1.41-2.44,2.65-2.53,1.01-.07,2.22,1.11,2.11,2.05-.17,1.44-1.25,2.62-2.62,2.55Z" style="fill:#f9eee5; stroke-width:0px;"/><path d="m224.54,92.37c-.06,1.01-.52,2.36-1.9,2.63-.11.02-.22.06-.33.06-1.12-.01-2.28-1.26-2.22-2.38.06-1.04.77-1.96,1.78-2.27,1.42-.44,2.68.49,2.67,1.97Z" style="fill:#f9eee5; stroke-width:0px;"/><path d="m205.68,88.57c0-1.17.66-1.88,1.98-2.14,1.15-.23,2.13.35,2.52,1.45.2.56.11,1.05-.17,1.55-.73,1.32-2.39,1.76-3.53.93-.53-.38-.8-.99-.8-1.79Z" style="fill:#f9eee5; stroke-width:0px;"/><path d="m209.96,95.68c-1.18,0-2.24-.79-2.36-1.7-.22-1.59,1.35-3.06,2.91-2.72,1.29.29,2.37,1.76,1.21,3.41-.43.61-.98,1.14-1.76,1Z" style="fill:#f9eee5; stroke-width:0px;"/><path d="m231.15,89.53c-1.09-.01-2.1-.9-2.18-1.88-.09-1.05.74-2.31,1.75-2.39.25-.02.5-.12.75-.16,1.31-.17,2.37,1.09,1.98,2.35-.31,1-1.03,1.6-1.94,2.01-.13.06-.27.06-.34.08Z" style="fill:#f9eee5; stroke-width:0px;"/><path d="m201.24,91.17c-.16-1.26,1.21-2.5,2.2-2.47,1.03.03,2.13,1.01,2.09,2.27-.04,1.2-.97,2.18-2.14,2.19-1.31,0-2.15-.76-2.15-1.98Z" style="fill:#f9eee5; stroke-width:0px;"/><path d="m235.13,86.6c-.48,0-1.06-.3-1.55-.77-.44-.42-.43-.99-.34-1.53.28-1.69,2.23-2.54,3.64-1.59.5.34.76.86.77,1.46.02,1.25-.86,2.43-2.53,2.43Z" style="fill:#f9eee5; stroke-width:0px;"/><path d="m239.42,75.61c1.03-.01,1.83.67,1.86,1.59.03.86-1.01,1.96-1.88,1.95-.91-.01-1.91-.67-1.93-1.66-.01-1.08.75-1.79,1.95-1.88Z" style="fill:#f9eee5; stroke-width:0px;"/><path d="m244.25,75.25c.98-.01,1.74.64,1.77,1.51.03.82-.96,1.87-1.79,1.86-.87-.01-1.82-.64-1.83-1.58-.01-1.03.72-1.7,1.85-1.79Z" style="fill:#f9eee5; stroke-width:0px;"/><path d="m239.56,80.55c1.04-.01,1.84.67,1.88,1.6.03.87-1.02,1.98-1.9,1.97-.92-.01-1.93-.68-1.94-1.68-.01-1.09.76-1.8,1.96-1.9Z" style="fill:#f9eee5; stroke-width:0px;"/><path d="m242.66,78.39c.98-.01,1.74.63,1.76,1.51.03.81-.96,1.86-1.79,1.85-.86-.01-1.82-.64-1.83-1.58-.01-1.02.71-1.7,1.85-1.79Z" style="fill:#f9eee5; stroke-width:0px;"/><path d="m241.57,98.19c0,2.66-.96,4.65-2.85,6.17-.57.46-1.19.91-1.86,1.19-1.92.79-3.75.65-5.46-.67-1.17-.91-1.78-2.06-2.06-3.49-.22-1.1-.07-2.14.09-3.21.03-.22.11-.46.08-.67-.09-.69.21-1.23.61-1.72,1.15-1.42,2.54-2.53,4.3-3.1,2.31-.75,5.1.23,6.26,2.4.59,1.11.84,1.96.89,3.11Z" style="fill:#f9eee5; stroke-width:0px;"/><path d="m253.61,93.56c.07,2.78-1.39,4.77-3.62,5.65-3.5,1.38-6.97-.13-8.12-3.91-.55-1.82.01-3.49.87-5.07.28-.52.67-.99,1.04-1.45.76-.96,1.82-1.25,3-1.4,1.04-.13,2.03-.11,3.01.25,1.65.62,2.92,1.64,3.43,3.41.13.44.29.87.36,1.32.06.39.02.8.02,1.19Z" style="fill:#f9eee5; stroke-width:0px;"/><path d="m229.41,105.52c.07,2.64-1.28,4.45-3.43,5.76-.98.6-2.05,1-3.23.95-1.8-.09-3.24-.92-4.24-2.36-1.18-1.7-1.38-3.66-.91-5.65.3-1.25,1-2.25,2.16-2.94.89-.52,1.72-1.12,2.76-1.29,1.97-.33,3.82-.08,5.32,1.36.95.91,1.52,2.05,1.56,3.4,0,.26,0,.51,0,.77Z" style="fill:#f9eee5; stroke-width:0px;"/><path d="m220.59,106.54c0-1.33,1.33-2.88,2.65-3.07.14-.02.29-.02.43,0,1.08.1,2.25,1.14,2.43,2.21.06.32.05.69-.06,1-.45,1.36-1.48,2.25-2.86,2.35-1.34.1-2.5-.85-2.58-2.48Z" style="fill:#c16d29; stroke-width:0px;"/><path d="m235.49,96.85c1.52-.02,2.81,1.15,2.85,2.61.04,1.36-1.4,2.92-2.78,2.85-1.46-.07-2.66-1.12-2.69-2.68-.02-1.23.83-2.82,2.61-2.78Z" style="fill:#c16d29; stroke-width:0px;"/><path d="m247.94,90.95c1.39-.03,2.53,1.07,2.53,2.46,0,1.23-.87,2.55-2.42,2.61-1.28.05-2.7-1.1-2.68-2.37.03-1.42,1.07-2.6,2.57-2.7Z" style="fill:#c16d29; stroke-width:0px;"/><rect x="0" width="300" height="300" style="fill:none; stroke-width:0px;"/></svg>