<?xml version="1.0" encoding="UTF-8"?>
<svg width="43.2746363px" height="22.816817px" viewBox="0 0 43.2746363 22.816817" version="1.1" xmlns="http://www.w3.org/2000/svg" xmlns:xlink="http://www.w3.org/1999/xlink">
    <title>鼻子</title>
    <g id="Symbols" stroke="none" stroke-width="1" fill="none" fill-rule="evenodd">
        <g id="鼻子" fill="#9EBCC7" fill-rule="nonzero">
            <path d="M12.432,22.816817 L12.696,22.744817 C13.008,22.336817 13.152,21.856817 13.248,21.304817 C13.344,20.728817 13.44,20.248817 13.752,19.768817 L17.424,19.768817 L18.36,18.976817 L18.288,18.472817 C17.928,18.232817 17.4,18.088817 16.944,17.992817 C16.44,17.920817 14.184,18.016817 13.56,17.920817 L13.032,16.816817 L14.664,16.672817 L15.432,16.528817 C15.432,16.528817 15.912,15.856817 16.32,15.184817 C16.584,14.800817 16.848,14.392817 17.016,13.912817 C17.088,13.504817 17.376,13.120817 17.832,12.784817 C17.904,12.376817 17.832,12.064817 17.688,11.752817 L14.544,11.224817 L12.576,11.344817 C10.176,11.344817 9.456,11.344817 8.76,11.416817 C7.968,11.512817 7.248,11.656817 6.552,11.752817 C5.808,11.824817 5.328,11.968817 4.2,12.040817 L2.304,12.040817 C2.4,12.352817 2.616,12.856817 2.808,13.264817 C2.976,13.672817 3.144,13.984817 3.24,14.392817 C3.696,14.800817 3.768,16.288817 4.176,16.840817 C4.776,17.464817 5.952,17.368817 5.952,17.368817 L5.616,18.328817 C4.992,18.208817 4.056,18.232817 4.056,18.232817 C3.456,18.304817 1.584,18.472817 1.128,18.472817 C0.648,18.472817 0.24,18.304817 0,18.064817 L0.528,19.360817 C1.128,19.768817 1.704,20.008817 2.496,19.936817 C3.288,19.936817 4.032,20.008817 4.824,20.080817 C4.92,20.488817 5.04,20.968817 5.136,21.376817 C5.136,21.784817 5.208,22.168817 5.424,22.576817 L5.664,22.576817 L6.144,21.904817 C6.432,21.664817 7.032,20.416817 7.296,20.176817 C7.584,19.840817 8.088,19.696817 8.568,19.696817 L11.232,19.768817 C11.544,20.248817 11.616,20.824817 11.712,21.376817 C11.712,21.928817 11.976,22.408817 12.432,22.816817 Z M11.28,17.920817 L9.744,18.088817 C9.192,18.160817 8.616,18.088817 8.016,17.920817 L8.808,17.008817 L11.208,17.008817 L11.28,17.920817 Z M9.432,15.520817 L7.896,15.760817 C7.128,15.832817 6.48,15.760817 5.952,15.448817 C5.856,15.112817 5.952,14.872817 6.264,14.632817 L7.056,14.704817 L8.568,14.632817 L9.504,14.704817 L9.432,15.520817 Z M14.28,15.448817 L13.656,15.688817 C13.248,15.592817 11.952,15.520817 11.616,15.280817 L11.688,14.944817 L12.456,14.392817 C13.2,14.320817 13.872,14.392817 14.496,14.800817 L14.28,15.448817 Z M9.12,13.672817 L6.48,14.080817 C5.952,14.152817 5.544,13.984817 5.232,13.672817 L5.352,13.264817 L6.648,13.000817 L8.88,12.952817 L9.24,13.264817 L9.12,13.672817 Z M14.424,13.432817 C13.632,13.432817 13.08,13.264817 12.168,13.192817 L12.432,12.712817 L14.136,12.544817 L14.688,12.952817 L14.424,13.432817 Z M5.376,11.272817 C6.528,11.176817 7.056,11.176817 7.632,11.104817 C8.208,11.032817 8.736,11.032817 9.312,10.936817 L10.44,11.032817 C10.944,10.936817 11.472,10.864817 12.024,10.792817 C12.552,10.696817 13.08,10.624817 13.536,10.456817 L14.76,10.648817 L15.168,10.480817 C15.408,10.072817 15.576,9.592817 15.648,9.040817 C15.648,8.560817 15.72,8.080817 15.84,7.600817 C15.912,7.192817 15.912,5.512817 15.84,5.104817 C15.672,4.696817 15.456,4.312817 15.336,3.904817 L14.304,3.592817 L13.2,3.568817 L11.952,3.640817 L10.224,3.472817 L10.224,3.160817 L11.64,3.040817 L12.456,3.160817 L12.984,2.584817 L12.912,1.792817 C12.504,1.384817 12.072,1.072817 11.544,0.832817005 C10.92,0.592817005 10.368,0.352817005 9.936,0.0168170047 C9.672,-0.0551829953 9.48,0.112817005 9.408,0.352817005 C9.096,0.664817005 8.568,0.736817005 8.136,0.664817005 C7.536,0.904817005 6.936,1.312817 6.528,1.864817 C5.448,2.440817 4.776,2.824817 4.224,3.064817 C4.056,3.568817 3.888,4.048817 3.72,4.600817 C3.984,5.152817 4.152,5.800817 4.152,6.520817 C4.056,7.240817 4.152,7.888817 4.32,8.536817 C4.416,9.256817 4.584,9.904817 4.68,10.552817 C4.752,10.936817 4.968,11.176817 5.376,11.272817 Z M13.464,9.424817 L9.024,9.760817 C8.568,9.760817 8.208,9.760817 7.752,9.760817 C7.32,9.784817 6.816,9.760817 6.456,9.592817 L6.648,9.352817 C7.296,9.184817 7.92,9.016817 8.568,8.944817 C9.192,8.896817 9.912,8.896817 10.632,8.896817 C11.328,8.896817 12.024,8.848817 12.672,8.752817 L13.248,8.848817 L13.728,9.184817 L13.464,9.424817 Z M13.2,7.576817 L7.368,7.816817 L6.48,7.576817 L6.48,7.240817 L9.216,6.928817 L13.296,6.856817 L13.392,7.096817 L13.2,7.576817 Z M13.2,5.752817 L11.952,5.728817 L6.192,5.968817 L6.24,5.344817 L11.88,5.320817 C12.408,5.248817 12.816,5.320817 13.152,5.560817 L13.2,5.752817 Z" id="Shape"></path>
            <path d="M30.888,21.640817 L31.68,21.640817 C32.016,21.304817 32.4,21.040817 32.808,20.800817 C33.216,20.536817 33.528,20.344817 33.84,19.912817 C34.248,19.408817 34.584,18.880817 34.824,18.280817 C35.064,17.680817 35.208,17.104817 35.448,16.504817 C35.688,15.904817 35.784,15.352817 35.856,14.752817 L35.52,12.496817 L35.52,11.656817 C36.432,11.536817 37.056,11.392817 37.872,11.224817 C38.592,11.128817 39.384,10.960817 40.2,10.888817 C40.92,10.792817 41.712,10.792817 42.528,10.792817 L43.248,10.144817 C43.32,9.640817 43.248,9.256817 43.008,8.824817 L42.528,8.584817 C41.64,8.512817 40.824,8.512817 40.032,8.584817 C39.24,8.656817 38.424,8.752817 37.632,8.824817 C36.816,8.920817 36.024,9.016817 35.208,9.088817 C34.488,9.160817 33.936,9.088817 33.36,8.728817 L33.36,8.320817 C33.768,7.816817 34.08,7.312817 34.488,6.736817 C34.824,6.232817 35.208,5.728817 35.688,5.224817 C36.168,4.792817 36.576,4.288817 36.984,3.760817 C37.056,3.184817 36.912,2.800817 36.576,2.392817 L35.208,1.768817 C34.08,1.768817 32.976,1.768817 31.92,1.888817 C30.792,1.960817 29.76,2.128817 28.704,2.392817 C27.672,2.632817 26.904,2.824817 25.392,2.896817 L24.792,2.968817 L24.216,3.544817 L24.216,3.856817 C24.456,4.360817 24.792,4.672817 25.272,4.912817 C25.992,4.768817 26.784,4.600817 27.504,4.504817 C28.224,4.408817 29.04,4.336817 29.76,4.072817 C30.48,3.880817 31.272,3.736817 32.016,3.640817 L32.328,3.832817 C32.256,4.480817 31.968,5.128817 31.632,5.656817 C31.296,6.184817 31.032,6.616817 30.792,7.192817 C30.72,7.768817 30.792,8.320817 31.032,8.752817 L31.032,9.064817 L30.24,9.352817 C29.52,9.544817 28.704,9.616817 27.984,9.688817 C27.264,9.784817 26.472,9.856817 25.752,9.952817 C25.032,10.048817 24.288,10.288817 23.568,10.552817 L23.328,11.008817 L23.328,11.560817 L24.288,12.232817 L26.712,12.112817 L31.512,11.632817 C31.92,11.536817 32.328,11.632817 32.736,11.800817 C33.048,12.424817 33.216,13.024817 33.216,13.792817 C33.12,14.248817 33.12,14.560817 33.12,14.992817 C33.12,15.424817 32.976,15.880817 32.736,16.216817 C32.328,16.648817 31.824,17.176817 31.272,17.200817 C30.552,17.224817 30.072,17.200817 29.52,17.176817 L28.632,17.080817 L28.152,17.248817 L27.984,17.536817 C28.08,18.184817 28.32,18.784817 28.704,19.408817 C29.112,19.984817 29.52,20.560817 29.928,21.112817 L30.888,21.640817 Z" id="Path"></path>
        </g>
    </g>
</svg>