<svg width="66.965" height="64.865" xmlns="http://www.w3.org/2000/svg" xmlns:xlink="http://www.w3.org/1999/xlink">
    <defs>
        <path id="a" d="M0 0h65.493v63.503H0z"/>
        <path id="c" d="M0 .049h.649v.837H0z"/>
        <path id="e" d="M.046 0h.408v.936H.046z"/>
        <path id="g" d="M.042 0h.416v.936H.042z"/>
        <path id="i" d="M0 .135h.5v.666H0z"/>
    </defs>
    <g fill="none" fill-rule="evenodd">
        <g transform="translate(0 1.362)">
            <mask id="b" fill="#fff">
                <use xlink:href="#a"/>
            </mask>
            <path d="M58.584 6.122a29.614 29.614 0 0 1-.08-.222c-.026.038-.077.085-.072.114.012.08.046.154.071.23l.081-.122ZM7.326 57.125c-.025-.038-.056-.114-.075-.107-.053.017-.102.069-.153.107.025.039.056.114.075.108.054-.018.102-.07.153-.108Zm57.185-4.78-.081-.222c-.025.038-.075.085-.071.114.012.08.046.154.07.231l.082-.122Zm-48.523-.049c-.025-.038-.056-.114-.074-.108-.054.018-.103.07-.153.108.025.038.056.114.075.108.053-.018.102-.07.152-.108Zm48.295-1.43a15.14 15.14 0 0 1-.08-.122c-.026.076-.06.15-.072.23-.004.03.046.077.071.114l.081-.222ZM5.421 48.97l.081-.123c-.05-.038-.099-.09-.153-.107-.018-.007-.05.069-.075.107l.147.123Zm59.204-.345.147-.122c-.025-.039-.056-.114-.075-.109-.054.019-.103.07-.153.109l.081.122Zm-4.901-2.833-.081-.222c-.025.039-.076.085-.072.114.012.081.047.155.072.232l.08-.124Zm-46.048-1.724a58.825 58.825 0 0 1-.08-.222c-.026.038-.076.085-.072.113.012.081.046.154.071.231l.081-.122Zm-9.346-2.17-.081-.122c-.026.077-.06.15-.072.231-.004.03.046.075.072.113l.08-.221Zm.456-.345-.081-.122c-.026.077-.06.15-.072.232-.004.028.046.075.072.113l.08-.223Zm58.7-1.452-.082.123c.05.038.1.09.153.107.019.007.05-.069.075-.107l-.147-.123Zm.26-1.43c-.025.039-.075.086-.071.114.012.081.046.155.071.23.025-.037.076-.083.071-.112-.011-.08-.046-.155-.071-.232Zm-3.794.222a58.842 58.842 0 0 1-.081-.222c-.026.039-.076.086-.072.114.013.081.046.155.072.23l.081-.122Zm4.739-.962.08-.122c-.05-.039-.099-.09-.152-.108-.019-.006-.05.07-.075.108.05.04.1.083.147.122Zm-.717-3.4c-.025.04-.076.086-.071.114.012.082.046.155.071.232.025-.038.076-.085.071-.114-.012-.08-.045-.154-.071-.231ZM4.33 31.895l-.081-.122c-.026.076-.06.15-.072.23-.004.029.046.076.072.114l.08-.222Zm58.813-6.899a35.03 35.03 0 0 1-.08-.122c-.026.075-.06.15-.072.23-.004.029.046.076.071.114l.081-.222Zm-3.695-.763-.147.123c.025.039.056.114.075.108.054-.018.102-.07.153-.108l-.081-.123Zm-54.32-.1.146-.122c-.025-.038-.056-.114-.075-.108-.053.018-.102.07-.152.108l.08.123Zm1.595-1.034.147-.123c-.025-.038-.056-.114-.075-.108-.054.018-.102.07-.153.108l.081.123Zm-3.158-3.055c-.026.038-.076.085-.072.114.012.08.046.154.072.23.025-.037.075-.084.07-.112-.01-.082-.045-.156-.07-.232Zm45.673-4.362-.081-.122c-.026.076-.06.15-.072.23-.004.03.046.077.072.114l.08-.222Zm-.993-.122c-.026.038-.076.085-.071.113.012.081.045.155.071.231.025-.037.075-.084.071-.113-.012-.08-.046-.155-.071-.231Zm13.645-.64-.082.122c.051.039.1.09.154.108.018.006.049-.07.075-.108-.05-.04-.1-.083-.147-.122Zm1.628 1.648c-.147.313-.214.533.034.675.123-.201.115-.392-.034-.675Zm-52.472 43.91c.047.168-.228.447.077.57.122-.198.114-.389-.077-.57Zm53.156-4.56c-.164.23-.164.46 0 .692.164-.231.164-.462 0-.692Zm-45.495-6.726c.207.223.352.324.446-.05-.133-.187-.26-.176-.446.05ZM64.56 35.394c-.207-.224-.352-.324-.446.05.133.187.26.175.446-.05ZM2.425 35.22c-.164.23-.164.46 0 .691.164-.23.164-.46 0-.691Zm4.787-1.723c.164-.231.164-.461 0-.691-.164.23-.164.46 0 .691Zm-3.875-2.072c-.164.231-.164.462 0 .692.164-.23.164-.46 0-.692Zm.754-.986-.144.01c-.013.153-.033.306-.036.46-.001.038.055.118.072.11.054-.023.142-.076.144-.122.006-.152-.021-.305-.036-.458Zm54.64-10.37c.147-.313.214-.533-.034-.675-.123.202-.115.393.034.676Zm4.445-1.579c.152.248.304.248.457 0-.153-.247-.305-.247-.457 0ZM1.285 16.62c.148-.314.214-.533-.033-.676-.124.202-.116.393.033.676Zm12.407 31.709c.176 0 .215.013.249-.003.064-.03.125-.075.187-.114-.027-.078-.046-.168-.083-.232-.07-.12-.151-.223-.276-.404l-.077.753Zm-7.62-6.56c-.19.35-.19.696 0 1.046.19-.35.19-.696 0-1.046ZM53.728 1.398c-.175.245-.176.474-.014.705.098-.196.274-.299.31-.623l-.296-.082ZM64.442 49c-.175.246-.176.475-.014.705.098-.196.274-.298.31-.623a180.69 180.69 0 0 0-.296-.082Zm-1.725-14.298c.231.29.46.29.69 0-.23-.288-.459-.288-.69 0Zm-57.05 14.87c.563.15.563.141.704-.103-.203-.159-.405-.175-.703.103Zm57.3-22.56c.042.121.062.205.097.272.066.128.142.245.213.367.177-.259.177-.486-.003-.728l-.308.089ZM3.47 48.379l.45-.13-.08-.646c-.152.044-.254.074-.37.106v.67Zm12.538-2.415.45-.13-.08-.646-.37.107v.67Zm-2.3-21.607c.223.286.447.276.647.05l-.275-.613-.372.563ZM3.223 19.545c.153.201.306.24.469-.047l-.07-.516c-.158.05-.284.09-.4.125v.438Zm.435 30.368c.178.063.2.419.405.43.077-.658.073-.658-.076-.929-.103.155-.205.312-.33.499Zm1.616-41.08c.155.245.306.254.47-.03-.02-.138-.04-.291-.07-.516l-.4.127v.419Zm8.078 31.266c-.107 1.348-.106 1.348.077 1.638.077-.45.092-.871-.077-1.638Zm-8.35 1.483c.304.284.51.226.74.039l-.254-.385-.486.346Zm9.34-.57c-.169.086-.278.11-.36.194-.04.043-.031.196-.056.38l.415.45c.142-.192.04-.52.001-1.024ZM5.71 40.02c-.268.088-.463-.079-.666.2l.065.538c.226-.073.42.093.6-.153v-.585Zm-2.657-.426-.226-.312c-.121-.358.026-.655-.172-.96-.11.174-.23.342-.396.616.42-.051.183.511.406.772l.388-.116Zm-.172.779c-.184.328-.107.62-.107.886 0 .264-.077.556.096.867l.394-.107-.213-.338c-.127-.465.039-.873-.17-1.308Zm12.685-16.218-.076-.598c-.243-.048-.461-.203-.654.13l.06.468h.67Zm-8.709 34.32c.456.67.49.688.697.376v-.338l-.636-.493c-.022.166-.043.318-.06.455Zm52.749-28.11c-.104 1.696-.104 1.696.08 2.033.023-.043.067-.085.068-.127a99.95 99.95 0 0 0 0-1.702c-.001-.037-.053-.075-.148-.204Zm3.472-15.522c.011.002-.16.034-.13.444.104.284.22.548.458.62.197.02.227-.18.227-.575l-.555-.489Zm.116 14.467c.206-.636.464-.588.676-.81l-.092-.603c-.211.185-.414-.065-.584.223v1.19ZM59.508 6.417l.382-.506c-.364.082-.59-.207-.816.159v.223L59.41 7l.376-.213-.278-.37ZM7.098 31.254c.041.267-.08.57.084.819.402-.279.414-.937.613-1.395l-.133-.277-.564.853ZM61.474 11.41c-.194.24-.182.658-.105.793.218.389.179 1.074.6 1.216.27-.424-.103-.568-.174-.914v-.522l-.32-.573ZM13.936 46.443c.031-.477-.187-.674-.425-.896l-.289.187c.094.388-.054.789.104 1.158.205-.15.41-.3.61-.449Zm-9.88-26.36.296-.566-.217-.359c-.005-.855-.005-.855-.164-1.11-.022.044-.061.087-.061.13-.004.787-.004 1.574 0 2.361 0 .043.043.084.103.194l.39-.094-.346-.556ZM3.8 40.75l.216-.692c.2-.065.403.115.564-.166-.252-.187-.515-.344-.684-.71-.036-.08-.12-.16-.18-.156-.087.006-.173.086-.266.138l.239.428c.103.374-.157.82.111 1.158Zm46.274-25.452c-.414.106-.259.861-.568 1.144-.027.025-.096.44.147.435l.392-.593.315-.096.071-.502-.357-.388ZM4.363 25.632v1.367l.327.95c.127.026.275.115.331-.183l-.168-.255c.13-.311.27-.656.184-1.024-.078-.337-.235-.632-.352-.931l-.322.076Zm.409-1.442c.005-.513-.005-.558-.16-.92v-1.352c.28-.56.286-.658.073-.806l-.166.247-.379.992v.854l.326.961.306.024Zm.71 7.446c.049-.493-.202-.56-.195-.743.012-.342-.128-.494-.252-.693-.116-.19-.241-.204-.38-.08-.12.193-.05.426-.062.638-.011.223-.013.45 0 .672.014.21-.07.45.094.657h.477l.318-.451Zm.626 15.348.302-.569v-.681l-.406-.612-.137-.616c-.128.037-.23.068-.345.1v1.51l.217.328v1.535l.674-.494-.305-.5Zm52.965-30.908c0-.458.002-.917-.004-1.375 0-.039-.052-.076-.103-.144h-.271l-.157.667-.257-.334c-.34.352.064.605.06.914l-.18.272c.14.134.187.423.377.465l.216-.328c.12.188.24.376.356.561l-.105.427c-.217.187-.424-.063-.645.3l.416.472c.418-.01.418-.01.53-.18-.025-.476.02-.981-.013-1.385l-.22-.332ZM15.305 45.883v-1.511a91.276 91.276 0 0 0-.218-.358l.21-.366c-.512-.355-.512-.355-.813-1.207l-.294.113V44.4l.425.643c.048.264-.07.566.096.84h.594ZM4.365 35.578c.045.35-.504.53-.118 1.015l.28-.043.151-.658.344.086-.17.514c.16.17.29.152.407-.036l.016-.342c.253-.184.52-.341.671-.738l-.2-.303v-1.357l-.354-.567h-.243l-.227-.722-.331.144c0 .606.004 1.177-.007 1.747 0 .06-.086.117-.131.176l-.186-.281c-.072.091-.138.21-.223.273-.12.09-.3-.014-.365.272l.02.321.665.499Zm10.37 13.81c.405-.078.71.074.979-.089l.177-.8.375.808c.646 0 1.171.002 1.697-.004.025-.001.05-.077.108-.173l-.646-.18-.409-.618h-1.132c-.322-.402-.476-.94-.585-1.527-.015-.083-.103-.134-.136-.175h-.45l-.287.455.384 1.13-.184.278.45.332c-.08.13-.152.25-.164.5-.176.076-.353.05-.198.352.053-.094.106-.188.021-.29Zm47.048-40.48c.05.267.033.535.232.301-.062-.08-.124-.16-.207-.03v-.685l.244-.393-.075-.434h-.55c-.122.303-.066.58-.054.85.108.163.215.326.41.39ZM16.647 47.543c.05.267.033.534.232.3-.062-.08-.124-.16-.198-.204l-.036-.695-.465.077.112.618c.164 0 .272 0 .355-.096Zm45.871-19.125c-.05-.268-.033-.534-.233-.3.062.08.125.16.207.204.135.352.135.352.437.2-.085-.367-.29-.137-.41-.104Zm1.796 11.979c.235-.206.235-.206.131-.681-.201.164-.104.45-.066.64-.176.076-.353.051-.198.352.053-.094.106-.188.133-.311ZM18.066 50.495c-.05-.268-.033-.534-.233-.3.062.079.124.16.206.2.136.356.136.356.45.199-.109-.305-.297-.158-.423-.1Zm-11.398.345c-.05-.268-.033-.534-.233-.301.063.08.125.16.207.205.042.22-.11.532.134.66.1-.456.1-.456-.108-.564Zm-2.305 1.973c.063-.038.172-.06.18-.116.031-.206-.07-.24-.18-.229-.042-.222.11-.532-.134-.66-.1.456-.1.456.134.66v.345c-.064.038-.173.06-.181.117-.031.206.07.24.18.228.042.222-.11.532.134.66.1-.456.1-.456-.133-.66v-.345Zm59.655-25.865c.1.321-.001.674.148.979.188-.058.304-.542.606-.13 0 .43.002.938-.001 1.445 0 .11-.01.222-.03.327-.008.048-.05.082-.118.185l-.125-1.024c-.093-.025-.197-.05-.286-.073-.418.515.257.755.09 1.232l-.448.319c.148.306.355.138.545.189l.245-.316c.04.062.118.126.122.2.019.331-.042.678.19.93.053.057.021.294.027.422-.188.265-.386.055-.543.153-.151-.215-.255-.503-.529-.27l-.072.42.476.338v.379l-.454.324c.165.297.37.118.566.181l.226-.715.328.53-.204.357v1.018l.148.244c.025.095.07.193.071.294.009.401.004.802.004 1.216l-.51.366.436.188c.025.119.041.338.112.503.079.185.227.303.162.752l-.29.395h-.546l-.098-.998c-.175.352-.175.352-.172 1.544l.585.456.443-.626c.032.05.082.09.083.13.005.456.003.912.003 1.35l.245.41v.78l-.266.688c-.41.218-.513-.637-.83-.154-.013.257.172.303.254.549l.518.052c.098.232.32.322.33.775-.134.431-.508.688-.669 1.128v.689l.195.295.035 1.117.444.24-.23.39.259.425-.443 1.333.164.314v.678l-.201.35.214.358v.676l-.223.36c-.09.374.159.49.247.822l-.23.642v1.385c-.055.43-.333.523-.239.92l.206.356-.216.359v.566l-.326.949c-.07.009-.143.02-.24.031l-.221-.693c-.18.326-.179.838-.48.998l-.23-.28c-.329.434.051.587.122.898l-.427.19-.776 1.234c-.462.079-.64.724-.964 1.099h-.905l-.42.649h-.99l-.145-.594c-.217.104-.3.506-.486.59-.186.083-.346.156-.459.39h-1.602c-.053.08-.106.163-.15.233-.039.044-.067.108-.096.108-.378.008-.756.005-1.126.005-.183.439-.445.365-.706.305a99.07 99.07 0 0 0-.16-.244c-.033-.02-.065-.057-.098-.058a2.191 2.191 0 0 0-.342 0c-.109.009-.28-.021-.315.067-.206.51-.697.027-.866.603l-.36-.404-.36.42-1.253.001c-.037.001-.073.014-.109.02a76.35 76.35 0 0 1-.187.284h-.725l-.232-.277-.182.276h-3.018l-.195-.294h-2.28l-.236.332-.16-.242c-.066-.033-.133-.093-.2-.095-.416-.008-.832-.005-1.233-.005l-.202.306h-.964c-.056-.084-.11-.165-.18-.274h-1.41l-.194.294-.245-.316h-.675l-.236.33-.2-.302h-.897c-.136-.177-.219-.287-.338-.44l-.443.374h-2.48c-.093-.032-.157-.444-.416-.303-.065.088-.148.2-.236.316l-.24-.332h-.442l-.287-.397-.51.385h-.794l-.219.332h-1.132l-.769-.656h-.835l-.25-.344-.161.244c-.03.031-.059.09-.088.09-1.593.005-3.186.004-4.748.004l-.257.322-.177-.268-.429.35c-.12-.162-.203-.274-.293-.398h-.674l-.24.334h-.448l-.237-.326h-1.143l-.195.295h-.93l-.265-.318h-2.482l-.212-.32h-2.26l-.263-.358c-.395-.007-.803-.001-1.306-.005l.265-.505-.19-.342c.038-.199.25-.251.1-.795-.037-.145.085-.04.101.096.047.39.131.094.276.02-.142-.263.103-.626-.162-.873-.107.163-.214.324-.215.757-.002.264-.115.264-.226.264l-.278-.392-.113.978c-.035.039-.063.1-.092.1-.375.006-.75.005-1.036.005-.262-.204-.45-.35-.633-.49l.713-.698c-.525-.238-.525-.238-1.396.5-.299-.027-.386-.481-.56-.656l-.389-.126.222-.408c-.079-.358-.42-.437-.433-.883h.343c.194-.21.084-.522.119-.826l-.323-.53h-.908l-.372-.536v-.727l-.871-.597a3.102 3.102 0 0 0-.328-1.48c-.226-.431-.398-.912-.623-1.404v-1.538l-.663-1.937v-1.335l.923-.638-.954-1.027v-.72l-.424-.641v-2.16l.415-.221c-.052-.329-.232-.198-.35-.28-.168-.228-.048-.534-.089-.809-.15-.24-.305-.484-.441-.7-.077-.378.132-.522.25-.807l-.22-.599.16-.303c.017-.365.135-.792-.197-.992v-.745l.218-.351c-.075-.121-.15-.246-.23-.374v-.658l-.21-.362v-2.419c.065-.099.118-.18.212-.32V31.26c.093-.142.146-.223.24-.363V28.79l.432-.238c-.13-.56-.516-.57-.764-.857-.287-.333-.289-.9-.57-1.24v-1.743l.198-.362v-.675l-.21-.36v-1.061c.079-.042.173-.098.27-.14.116-.053.206-.13.18-.32.211-.273.204.498.434.192v-1.46l-.18-.273c-.097-.633.07-1.313-.105-1.988l-.36.544c.07.232.297.355.207.709l-.22.352.224.36v1.563c-.114-.026-.228-.026-.342-.026l-.332-.503v-1.73l.215-.36v-1.07l-.378-.191c-.025-.1-.07-.198-.071-.299-.007-.63-.004-1.26-.004-1.884l-.205-.31-.037-.681L0 14.176l.288-.681-.223-.53c.132-.386.368-.087.562-.128l.403.612c.266-.128.09-.463.151-.734l-.214-.441v-.784c.107-.024.223-.1.313-.056.093.046.161.208.24.32.189-.23.071-.54.11-.82l-.22-.37.22-.368V9.174l.325-.494c.403.462-.202.714-.079 1.194l.271.447.55-.346c.141-.362.036-.768.076-1.153.265-.389.564-.025.877-.227l.047 1.3c.15.268.354.088.538.148l.482-.694c.154.004.315.036.334-.422l-.212-.45.2-.337-.21-.359.385-.582.408.883.182-.741c.147.11.294.222.495.375l.168-.697c.118-.207.321-.027.503-.086l.246.347h.234l.244-.783.456.398.184-.278.24.288.225-.289c.131.058.166.377.338.27.037.22.02.487.22.253a2.084 2.084 0 0 0-.22-.252c.04-.05.066-.148.1-.272H9.9l.27-.345.23.305.47-.66.194.295h.678l.35-.336.445.37c.322.004.37-.54.622-.67.226-.147.308.21.444.31h.458l.19-.286c.104.099.214.2.37.346L15 5.57h1.075l.253-.346.463.663c.261.142.328-.262.566-.358l.353.314.194-.604.233-.029.249.342h.447c.079-.107.16-.218.28-.386l.115 1.006c.318.047.072-.47.32-.58l.461-.077.172-.638c.085.107.161.203.256.32h1.13l.238-.327h2.492l.247-.338.2.302.269-.303h1.365l.097-.355h.564l.241.334.205-.31h2.051l.225-.34.24.283.238-.298h.427c.087-.12.17-.233.257-.355h.447l.24.33.2-.3.724-.062.656-.991.446.63.736-.596.16.243.393-.337.356.383h.41c.085.12.167.232.248.345l.408-.616c.238.043.28.461.53.547l.202-.263h1.575l.288-.406.507.769 1.295-1.007c.05.069.13.178.264.365l.404-.87.19.774c.136.01.282.02.454.034l.53-.71c.452.08.476.658.65 1.017.188-.278.379-.557.54-.793l.07-.484c.257-.183.384.021.502.257h.472l.237-.33h.534l.38.8c.081-.335.13-.534.185-.768h.516l.19.287.23-.288c.15.095.233.448.5.287l.123-.555c.16-.227.36-.045.536-.119l.16-.243c.068-.032.135-.086.203-.09.262-.01.525-.003.77-.003l.193.29.794-.617h1.942c.088-.117.17-.228.3-.399l.533.38.084.31h.752l.16-.664.26.346c.322.037.66-.037.936.028.285.56-.357.796-.086 1.27.084.061.084.061.603-.761l.098-.531.323.055c.248.588-.424.867-.12 1.509l-.378.524-.198-.299c-.23.068-.29.458-.49.582-.106.08-.28-.035-.326.253.035.052.061.128.089.128.455.007.91.006 1.398.006l.132-.588c.134-.16.263-.15.4.052l-.213.374.942.715-.441.24c.085.65.572.529.78.93.18.064.267-.137.387-.267.107-.115.253-.146.39-.218l-.256-.424.098-.489.492.695.226-.289.335.458c.045.305-.075.61.115.877l.21-.65.476.407 1.014 1.534.098.461.262-.358.422.639c.165.436.242.613.3.804.058.191.097.396.155.642l.489-.701.252.349h.475l.085.456-.238.39.234.39c-.149.08-.305.104-.407.23-.122.151-.226.257-.392.266-.053.001-.101.248-.124.311.023.526.309.265.437.476.113.183.304.256.467.382v.69c-.046.192-.255.246-.218.575-.137-.118-.247-.243-.378-.393l-.091.43.42.856c.03-.503.043-.718.049-.893.062 0 .159.012.185.084.082.232.139.483.257.918v1.12l.288.596-.267.539c.043.058.098.135.144.2.028.118.07.218.07.318.007.742.004 1.484.004 2.176l-.239.489c.046.493.337.56.447 1.226v2.72l.223.43-.192.357v.98l-.224.386c.247.255.201.78.43 1.09.074.1.01.433.01.645l-.322.49a2.045 2.045 0 0 0-.43-.311c.034-.447.133-.906.027-1.312-.07-.038-.11-.085-.134-.069-.246.156-.489.324-.868.58l.762.172c.053.236.098.436.212.629Z" fill="#82AA60" mask="url(#b)"/>
        </g>
        <path d="m25.416 4.207-.081.123c.05.038.1.09.153.107.019.007.05-.069.075-.107l-.147-.123m-1.368 0-.081.123c.05.038.1.09.153.107.019.007.05-.069.075-.107l-.147-.123m4.023.296-.983-.001-.3-.31c-.15.284-.053.567-.07.697l-.243.648c-.312.04-.17-.406-.304-.636-.477-.261-.811.35-1.218.576l-.174-.264h-.715l-.368-.71h-.6l-.403.772-.475-.368-.175.265h-.715l-.367.71h-.757c-.104-.16-.21-.325-.327-.503l.204-.354-.211-.36.329-.497h1.582l.252-.354h.446l.24-.338h.902l.245.318.41-.623c.228-.174.346.069.48.285h.687l.239-.332c.226-.127.32.192.458.336h.454l.194-.294h.513l.398.602c.212-.05.114-.327.162-.5l.627-.488h.603l.24.332.409-.618c.222.085.314.413.49.615l.48-.684h.435l.263-.354h2.753l.091-.524c.25-.315.504-.25.74.147l.33-.301c.321.02.4.496.643.7.047-.206.093-.407.14-.606.302-.022.302-.022.607.302l.375-.333c.048.06.124.156.213.265l.466-.657.325.492c.014.208-.027.46.197.536.306.039.384-.452.606-.68h.68c.137.11.222.459.475.32l.207-.667c.257-.14.338.22.497.333.51.113.837-.562 1.306-.696l.24.31.424-.364.286.4h.42c.14-.154.256-.278.378-.41.123.137.21.234.32.359l.326-.304.574.432.242-.758h.235l.24.336h.453l.186-.283c.304-.169.64.032.923-.073l.33.422.422-.371h1.626l.045.478c-.041.063-.068.139-.095.14-.3.008-.601.004-.948.004-.113-.08-.193-.44-.43-.31l-.248.346h-1.36l-.208.313c-.434.088-.922-.023-1.403.054l-.2.303h-1.14c-.094.142-.148.222-.222.336l-.247-.3h-.675l-.238.317h-.436l-.245.347-.28-.392-.428.317-.203-.234h-.736l-.303.652h-.553l-.238-.336c-.566 0-1.135 0-1.691.048-.038-.22-.02-.487-.22-.253.062.08.124.161.22.253-.04.05-.055.217-.096.233-.14.056-.29.059-.444.082l-.266-.338-.238.314h-.472l-.132-.574c-.24-.226-.507-.07-.762-.105l-.206.311-.48.05-.262.344H32.73l-.454.688H30.68l-.208.314h-.686l-.256-.354-.135.612c-.243.202-.507.067-.754.088l-.247-.327c-.093.263-.335.332-.323.684M17.694 5.192h-.48l-.133.595c-.244.192-.505.07-.793.082-.023-.145-.054-.298-.07-.454-.01-.112-.032-.295.003-.333.217-.232.133-.741.38-.923.401-.091.442.794.868.682l.216-.678h.235c.077.107.158.22.24.331l.167-.252c.242-.169.5-.075.756-.06.178.228.06.536.1.82l.218.36-.202.212-.488-.424-.36.378h-.42l-.237-.336M14.848 5.882h-.804l-.528-.844c.211-.187.211-.19.577-.159.043.186.09.383.137.59.194-.028.26-.307.392-.46v-.337l.225-.213.389.377.366-.758.371.595-.285.468-.522.087c-.095.231-.32.317-.318.654M11.622 5.428l.081-.477c.053-.126.15-.116.153.036.008.531.307.735.484 1.071v.363c-.269.246-.556.156-.838.1l-.155-.645-.254.332c-.15-.136-.141-.335-.085-.558.157-.258.363-.008.614-.222M52.69.19v.347c-.218.353-.499.102-.747.172l-.388.407-.377-.4h-.42l-.236.333-.32-.483c.014-.04.026-.116.04-.116.633-.047 1.266-.088 1.907-.13.152-.247.31-.508.541-.13M12.84 6.825c.027-.872-.325-1.092-.483-1.48.16-.296.52.051.502-.668l.353 1.046c-.155.175-.169.519-.373 1.102M3.176 7.019l.254.384v.412c-.178.246-.37.082-.563.145l-.155-.532.464-.41M9.606 6.442v-.427c.087-.041.204-.163.277-.118.22.135.421.334.66.534-.333.204-.635.215-.937.01" fill="#82AA60"/>
        <g transform="translate(54.557 -.05)">
            <mask id="d" fill="#fff">
                <use xlink:href="#c"/>
            </mask>
            <path d="M.298.068h.275L.65.594C.41.834.21.8 0 .656.019.366.206.271.298.068" fill="#DD9BA1" mask="url(#d)"/>
        </g>
        <path d="m8.096 5.566.595.503c-.2.264-.392.104-.566.16-.17-.23-.149-.46-.03-.663M2.146 8.777c-.299.279-.5.262-.704.103.141-.244.141-.253.704-.103M14.846 5.87l.413.046c-.005.345-.19.431-.276.626-.247-.126-.09-.44-.137-.672M10.62 5.555l-.296-.082c.012-.35.24-.392.29-.652.182.26.18.488.005.734M58.634 2.95c-.186.226-.312.238-.446.05.095-.373.24-.273.446-.05M7.116 6.055c-.187.225-.313.238-.447.05.095-.374.24-.274.447-.05" fill="#82AA60"/>
        <g transform="translate(66.51 41.807)">
            <mask id="f" fill="#fff">
                <use xlink:href="#e"/>
            </mask>
            <path d="M.406.418.29.64C.252.603.179.556.185.527.203.447.252.372.29.296l.117.122" fill="#DD9BA1" mask="url(#f)"/>
        </g>
        <g transform="translate(66.508 45.601)">
            <mask id="h" fill="#fff">
                <use xlink:href="#g"/>
            </mask>
            <path d="M.458.468C.384.506.314.558.236.575.21.582.164.506.127.468.201.429.271.378.35.36.376.354.421.43.458.468" fill="#DD9BA1" mask="url(#h)"/>
        </g>
        <path d="m6.212 59.79-.233-.3c.2-.233.183.033.233.3" fill="#82AA60"/>
        <g transform="translate(53.771 -.135)">
            <mask id="j" fill="#fff">
                <use xlink:href="#i"/>
            </mask>
            <path d="M.298.448.085.326C.122.287.166.212.194.218c.077.018.148.07.221.108L.298.448" fill="#DD9BA1" mask="url(#j)"/>
        </g>
        <path d="m53.082 1.782.2-.353c.153.303-.023.277-.2.353M57.135 2.088c.025.077.06.15.072.23.004.03-.047.077-.072.115-.025-.077-.06-.15-.071-.232-.004-.028.046-.075.071-.113M57.275 3.909c-.108-.14-.17-.221-.233-.3.2-.234.183.032.233.3" fill="#82AA60"/>
        <path d="m57.223 3.716.233.3c-.2.235-.182-.032-.233-.3M59.22 4.453l-.147-.123c.025-.038.056-.114.075-.107.054.017.102.069.153.107l-.081.123M28.044 4.406c.11.14.171.221.233.3-.199.235-.182-.032-.233-.3M57.82 5.192c.024.077.059.151.07.232.005.029-.046.075-.07.114-.026-.077-.06-.15-.072-.232-.004-.028.046-.075.071-.114M7.521 6.005l-.08.222c-.026-.038-.077-.084-.072-.113.012-.08.046-.155.071-.231l.081.122M62.753 8.864l.081-.222c.025.038.076.085.072.114-.012.08-.047.154-.072.23l-.08-.122M4.51 9.382l.08.122c-.05.039-.099.09-.152.108-.02.006-.05-.07-.076-.108l.147-.122M.976 11.524l.081-.122c.025.076.06.15.072.23.004.03-.047.077-.072.115-.027-.076-.055-.15-.08-.223M4.362 36.928c.042-.222-.11-.533.134-.66.1.456.1.456-.134.66M5.502 36.066c-.05.038-.099.09-.153.107-.018.007-.05-.07-.075-.107.051-.039.1-.09.154-.108.018-.007.049.07.074.108" fill="#82AA60"/>
        <g fill="#FBFAF9" fill-rule="nonzero">
            <path d="m14.041 42.445.888-.072c.384-.168.936-.408 1.488-1.056.552-.648 1.08-1.2 1.32-1.608.144-.384.816-1.056 1.08-1.776.264-.72.528-1.584.528-1.584l.72-.072-.096.72c.096.552.24 1.008.336 1.632.072.528.216 1.056.576 1.536s.624.984 1.104 1.152c.552.408 1.2.648 1.92.72.72.096 1.464.168 2.184.168.72 0 1.344.072 2.088.168.48 0 .96 0 1.44-.096.48 0 .888-.144 1.272-.384-.072-.408-.072-.72-.072-1.128-.072-.408-.168-.72-.312-1.464.072-.408 0-.816-.168-1.704 0-.576-.072-1.2-.168-1.776-.072-.552-.312-1.032-.648-1.512h-.24l-.384 2.328c-.072.576-.6 1.8-.96 2.52-.168.408-.408.792-.816 1.032-.48 0-2.496-.144-2.976-.24-.48 0-.96-.144-1.368-.384l-.24-.48c0-.48.096-.984.336-1.368.168-.408.312-.888.408-1.368.072-.408.24-.816.48-1.2.624-.096 1.272-.096 1.992-.168.648 0 1.2-.168 1.68-.552 0-.888-.384-1.368-1.272-1.536a50.13 50.13 0 0 1-3.936.552c-1.368.24-2.64.504-3.936.744-1.272.24-2.568.552-4.08.792l-.816.168.096.24c.24.384.552.552.864.624.336.096.648.264.96.504a4.645 4.645 0 0 1-.48 1.512c-.24.576-.48 1.056-.72 1.536s-.552.96-.96 1.344c-.072.408 0 .744.168 1.056l.72.48Zm3.936-10.248c.648-.072 1.272-.072 1.992-.168.648 0 1.296 0 1.944-.072.624-.072 1.2-.24 1.752-.576 0-.744-.144-1.056-.48-1.296h-2.232c-.744.072-1.464.168-2.184.24-.72.072-1.44.24-2.16.408-.024.336.672 1.464 1.368 1.464Zm-3.456-.576.96-2.328c.96-.576 2.016-.888 3.144-1.056 1.104-.168 2.232-.312 3.288-.552 1.032-.24 2.16-.336 4.176-.336l.072.24a3.24 3.24 0 0 1-.168 1.536c-.144.48-.384.96-.72 1.368v.24l.336.24a17.68 17.68 0 0 1 1.2-.24c.384-.096.792-.24 1.032-.576.408-.384.648-.792.72-1.272.096-.48.336-.96.576-1.368l.312-.648c.072-.552 0-1.032-.168-1.44 0 0-.528-.528-1.344-.552l-4.344.24c-.36.048-.792.12-1.56.24-.192-.84-.744-1.488-1.128-2.016-.384-.48-.84-.888-1.344-1.32l-.576.048s.024 1.296.168 2.088c.144.792.48 1.608.48 1.608-1.944.36-3.696.72-4.464.864-.408 0-.816-.072-1.2-.24-.408-.072-.816-.24-1.224-.408l-.624.096c.072.648.144 1.272.24 1.92.072.648.144 1.296.384 1.848l.744.96c.144.312.264.864 1.032.816ZM36.073 42.805l.648-.24c.48-.816.888-1.68 1.128-2.568.24-.888.48-1.848.72-2.808.24-.888.384-1.848.552-2.808.504-.456.936-.624 2.376-.744l1.704-.144.312.48a45.22 45.22 0 0 1-.36 2.184s-.216 1.056-.648 1.608c0 0-1.56-1.152-2.04-1.32h-.48l-.072.168c-.264.72-.072 1.2.168 1.68.24.576.528.984.888 1.608.36.624.96 1.32.96 1.32a3.52 3.52 0 0 0 1.776-.48c.552-.816.96-1.704 1.368-2.568 0 0 .36-1.104.528-2.064.168-.984.48-1.848.888-2.736.072-.48-.096-.888-.336-1.2-.24-.336-.552-.576-.96-.648-.408-.072-.72-.168-1.128-.24h-3.528s-.552.168-1.128.24l.192-.432.24-1.224c.072-.336.456-.696.456-.696.84-.168 1.8-.168 2.448-.264.552-.072 1.2-.24 1.848-.312.552-.096 1.2-.24 1.824-.336l.744.168c.192 1.056.528 1.848.768 2.736.24.888.48 1.68.72 2.568.24.888.456 1.872.696 2.76.12.24-.072.696-.72 1.464-.576.696-.912 1.056-1.272 1.512l-.792 1.056v1.032a.82.82 0 0 0 .648.648l.72-.072 3.024-2.16c.36.504.696.912.696.912.24.24.552.48.792.624.24.24.576.408 1.608.528l.312-.096c.336-.384.648-.72.888-1.104.24-.408.48-.816.576-1.296.072-.408.072-.888.144-1.368v-.792a1.16 1.16 0 0 0-.312-1.056h-.24l-1.92 2.448-.552-.36-.528-1.248.504-.936c.312-.624.576-.984.984-1.824.24-.48.6-1.392.912-1.848l.096-.888a2.336 2.336 0 0 0-.96-1.512l-.408.072s-.6 1.464-.888 1.896c-.288.432-.84 1.464-1.152 1.872l-1.704-5.64.072-.336c.576-.24 1.128-.312 1.704-.312.552 0 1.2 0 1.752-.072.552-.096 1.2-.096 1.776-.168l.48-.648-.096-.384c-.384-.408-.96-.648-1.512-.744-.576-.072-1.128-.144-1.68-.312-.408.072-.888.168-1.368.24-.48.072-.96.072-1.44.168l-.744-.168c-.24-.24-.576-1.248-.504-1.632 0-.408-.072-.72-.312-.984a2.713 2.713 0 0 0-1.032-.48c-.408 0-.744-.072-1.128-.144a1.3 1.3 0 0 0-.96.384c0 .408.144.816.384 1.128.24.408.672 1.32.912 1.656l-.072.48-4.536.408c-.552 0-1.8.048-1.8.048-.48-.144-1.056-.216-1.536-.384l-.888.72.336 1.128c0 1.536-.096 3.048-.336 4.488-.24 1.536-.552 2.976-.888 4.416-.312 1.536-.624 2.976-1.032 4.344-.072.552 0 .96.24 1.368l.48.24ZM53.09 24.541c.432.072.768 0 1.08-.312l-.192-.696c-.456-.24-.768-.6-1.128-.936a6.117 6.117 0 0 0-1.32-.744c-.552-.192-.984-.336-1.392-.6l-.408.168c.048.432.048.936.048 1.368 0 .384.192.816.432 1.176l1.248.504 1.632.072Z"/>
        </g>
    </g>
</svg>
