<?xml version="1.0" encoding="UTF-8"?>
<svg width="126px" height="37px" viewBox="0 0 126 37" version="1.1" xmlns="http://www.w3.org/2000/svg" xmlns:xlink="http://www.w3.org/1999/xlink">
    <title>Group 19</title>
    <g id="視覺" stroke="none" stroke-width="1" fill="none" fill-rule="evenodd">
        <g id="Group-19">
            <rect id="Rectangle-Copy-25" fill="#82AA60" x="0" y="0" width="126" height="37" rx="18.5"></rect>
            <g id="重新製作-copy" transform="translate(19.864000, 7.423867)" fill="#F9FFF4" fill-rule="nonzero">
                <path d="M15,22.152 C15.432,22.152 15.864,22.152 16.296,22.152 C16.728,22.152 16.968,21.984 17.112,21.648 L17.064,21.24 C16.296,20.76 15.408,20.376 14.496,20.136 C13.464,20.136 12.192,20.112 11.184,20.088 C10.152,20.064 9.024,19.896 9.024,19.896 L8.88,18.888 L11.04,18.888 C11.448,18.816 13.008,18.648 13.008,18.648 C13.416,18.72 13.752,18.552 13.944,18.288 L13.92,17.928 C13.488,17.424 12.912,17.208 12.168,17.04 C10.848,17.04 10.464,16.848 9.12,16.848 L9.312,15.576 C10.08,15.432 12.096,15.576 12.696,15.48 C13.248,15.408 13.944,15.456 14.184,14.952 L14.64,13.296 C14.64,12.744 14.76,11.928 14.832,11.376 C14.832,10.848 14.664,10.296 14.424,9.792 C14.088,9.504 13.68,9.336 13.224,9.264 C12.6,9.264 12.024,9.264 11.4,9.168 C10.776,9.168 10.176,9.096 9.528,8.928 L9.672,8.28 C10.656,8.04 11.52,7.968 12.432,7.968 C13.248,7.968 14.088,7.896 14.856,7.752 C15.696,7.656 16.512,7.584 17.232,7.512 L17.736,6.936 L17.664,6.528 C17.28,6.144 16.752,5.832 16.152,5.76 C15.528,5.688 14.808,5.592 14.208,5.52 C13.872,5.592 9.336,5.496 9.336,5.496 L9.504,4.536 L10.2,4.224 L12.264,4.344 C12.864,4.416 13.2,4.344 13.536,3.936 L13.752,3.528 C13.752,3.048 13.68,2.592 13.512,2.16 C13.176,2.04 12.6,1.872 12.144,1.704 C11.64,1.56 11.184,1.32 10.728,0.936 C10.344,0.6 9.936,0.456 9.48,0.456 L8.712,0.6 C8.256,1.176 7.68,1.632 7.032,2.112 C6.384,2.568 5.64,2.952 5.04,3.264 C4.296,3.672 3.576,3.96 3,4.368 L3,4.632 L3.84,4.872 L7.992,4.872 L7.824,5.592 C6.912,5.76 6.192,5.832 5.376,5.928 C4.536,6 3.84,6.072 3.12,6.144 C2.328,6.216 1.512,6.288 0.792,6.216 L0.312,6.792 L0.768,7.824 L3.936,8.064 L6.216,8.04 C6.816,7.968 7.32,8.112 7.968,8.352 L7.824,9.096 C4.8,8.928 3.408,9.024 3.408,9.024 L2.448,9 C2.592,9.72 2.784,10.416 2.88,11.16 C2.952,11.856 3.048,12.624 3.12,13.32 C3.216,14.016 3.384,14.712 3.744,15.36 C4.272,15.528 4.92,15.768 7.272,15.936 C7.392,16.296 7.08,16.896 7.08,16.896 C6.096,16.896 4.296,17.208 3.672,16.992 L2.904,17.256 L2.904,17.52 C3.36,18.024 3.864,18.336 4.464,18.504 C5.976,18.552 7.152,18.864 7.152,18.864 C7.152,18.864 7.176,19.608 6.768,19.848 L4.32,19.776 C3.768,19.776 1.584,19.776 1.08,19.848 C0.6,19.944 0.216,20.232 0,20.64 L0.024,20.976 C1.224,21.672 2.664,21.984 4.248,22.056 C6.864,21.864 8.52,21.96 10.008,22.104 C11.52,22.272 13.44,21.912 15,22.152 Z M12.456,13.68 C11.784,13.68 10.152,13.608 9.528,13.56 L9.768,13.032 L12.504,13.224 L12.456,13.68 Z M7.488,13.416 L4.824,13.392 L4.824,13.032 L5.352,12.936 L7.488,12.96 L7.488,13.416 Z M12.96,11.76 L9.672,11.472 L9.648,10.872 L10.128,10.776 L12.768,10.944 L12.96,11.76 Z M7.512,11.184 C6.888,11.28 5.016,11.352 4.56,11.16 L4.608,10.728 L5.064,10.776 C7.008,10.632 7.32,10.704 7.872,10.848 L7.512,11.184 Z" id="Shape"></path>
                <path d="M40.008,22.056 L40.512,22.128 C40.896,21.72 40.92,21.24 40.992,20.76 C41.088,19.632 41.328,18.696 41.496,17.4 C41.64,16.272 41.784,15.456 41.832,14.568 C41.88,13.8 42.048,12.888 42.24,11.88 C42.576,11.808 42.936,11.328 43.32,11.328 L43.896,10.776 L43.656,10.128 C43.176,9.888 42.696,9.72 42.12,9.648 C40.8,9.48 39.48,9.72 38.928,9.816 C38.28,9.888 37.632,10.056 36.984,10.128 L36.336,10.056 L36.096,9.24 L36.264,8.76 C36.84,8.376 37.32,7.896 37.872,7.392 C38.352,7.008 38.832,6.528 39.408,6.12 C39.888,5.712 40.44,5.472 41.16,5.4 C41.736,5.16 42.12,4.824 42.456,4.344 L42.456,3.864 C42.288,3.552 42.048,3.312 41.808,3.072 C41.496,2.904 41.088,2.568 40.848,2.328 L40.128,2.592 C39.48,3.072 38.928,3.552 38.352,4.104 C37.8,4.68 37.224,5.16 36.672,5.64 C36.096,6.192 35.544,6.672 34.992,7.248 C34.272,7.968 33.936,8.76 34.008,9.816 C34.104,10.848 34.104,11.904 34.008,12.864 C33.936,13.896 33.624,14.784 33.216,15.672 L31.704,14.952 L31.152,14.544 C31.992,14.448 33.144,14.304 33.528,13.896 L33.384,13.032 C32.976,12.624 32.544,12.504 31.824,12.384 L31.008,12.312 L30.96,11.424 L32.904,10.464 L33.456,9.888 L33.384,9.408 C33.144,9.168 32.808,9 32.424,9 C32.016,9 31.608,9 31.2,8.928 L31.2,8.688 L32.376,7.368 C32.784,6.96 33.144,6.504 33.312,5.712 C34.104,5.76 34.584,5.52 34.752,4.92 L34.584,4.2 C34.176,3.96 33.792,3.792 33.312,3.864 C32.328,3.96 31.848,3.864 31.368,3.792 C31.296,3.24 31.128,2.736 31.056,2.184 C30.888,1.704 30.648,1.224 30.336,0.816 L29.688,0.504 C29.112,0.408 28.728,0.576 28.32,0.816 L29.112,3 L28.968,4.272 C28.32,4.44 27.672,4.584 27.12,4.68 C26.472,4.824 25.824,4.992 25.2,5.064 C24.72,5.16 24.312,5.064 23.904,4.824 L23.424,4.992 L23.664,5.88 C23.976,6.36 24.552,6.528 25.272,6.36 L27.84,9.096 L28.32,9.096 L28.872,8.448 C28.8,7.8 28.632,7.248 28.32,6.768 L28.392,6.36 L28.632,6.288 L29.856,6.36 L29.928,6.6 C30,7.008 29.928,7.32 29.856,7.632 C29.76,7.968 29.616,8.28 29.376,8.52 L29.52,8.928 L29.52,9.24 C28.8,9.336 28.152,9.48 27.528,9.576 C26.784,9.72 26.16,9.888 25.512,10.056 C24.864,10.296 24.216,10.464 23.592,10.608 C23.184,10.704 22.944,10.608 22.704,10.368 L22.296,10.536 L22.392,10.944 C22.536,11.424 22.872,11.808 23.352,12.048 C23.904,11.976 24.48,11.904 25.032,11.808 C25.584,11.808 26.064,11.736 26.64,11.664 L28.008,11.808 L27.816,12.6 C26.928,12.768 26.4,12.936 25.752,13.032 C25.032,13.104 24.384,13.272 23.736,13.416 C23.352,13.512 23.016,13.416 22.704,13.272 L22.056,13.416 L22.224,14.136 C22.536,14.472 22.872,14.784 23.184,15.024 C23.496,15.264 23.832,15.504 24.216,15.672 L25.752,15.36 L26.928,15.024 L24.864,18.48 C24.96,18.888 25.104,19.2 25.44,19.44 C25.992,19.512 26.544,19.272 26.952,18.888 C27.36,18.48 27.768,18.168 28.152,17.928 L28.56,18.168 C28.632,18.72 28.728,19.368 28.728,20.016 C28.632,20.736 28.8,21.288 29.04,21.84 L29.448,21.696 C29.856,21.288 30.096,20.808 30.336,20.328 C30.576,19.848 30.72,19.368 30.888,18.792 C31.056,18.312 31.2,17.832 31.44,17.352 C31.848,17.448 32.184,17.592 32.496,17.76 C32.808,18 33.144,18.072 33.528,18.168 L34.344,17.928 C34.896,17.52 35.232,16.944 35.472,16.392 C35.712,15.84 35.856,15.264 35.952,14.616 C36.024,14.064 36.192,13.416 36.336,12.864 C36.6,12.456 36.984,12.24 37.392,12.144 C37.8,12.048 38.496,12.048 38.904,11.976 L39.24,12.384 L38.928,15.864 C38.928,16.584 38.928,17.232 39,17.88 C39,18.6 39.072,19.248 39.168,19.872 C39.24,20.52 39.312,21.168 39.552,21.72 L40.008,22.056 Z" id="Path"></path>
                <path d="M63.264,22.752 C63.744,22.752 64.224,22.752 64.704,22.752 C65.184,22.752 65.736,22.68 66.216,22.44 L66.12,21.984 C65.496,21.672 64.848,21.432 64.296,21.096 C63.72,20.784 63.168,20.472 62.592,20.064 C62.04,19.752 61.488,19.416 60.984,19.08 L61.08,18.84 C61.392,18.504 61.896,18.336 62.52,18.264 C62.928,18.096 63.24,17.784 63.552,17.472 L63.48,16.752 C63.096,16.44 62.688,16.368 62.28,16.296 C61.896,16.2 61.632,16.128 61.008,15.888 C60.528,16.368 60.216,16.608 59.808,16.92 C59.4,17.328 58.92,17.664 58.608,17.904 L57.288,17.52 C57.288,17.52 57.696,16.656 58.152,16.44 C58.536,16.368 59.112,16.272 59.52,16.2 C60.456,16.08 61.68,15.456 61.728,14.712 L61.656,14.256 L58.896,13.992 L59.52,12.504 L59.424,11.544 L58.176,11.304 L57.528,11.832 C57.24,12.816 56.304,14.208 55.968,14.28 C55.968,14.28 54.12,14.52 51.384,14.856 L51.24,15.576 C51.48,16.128 52.032,16.416 52.584,16.416 C53.304,16.248 53.64,16.344 53.856,16.416 C53.712,16.848 53.4,17.4 52.896,17.808 C52.344,18.288 51.12,19.44 51.024,20.136 L51.312,21.576 C52.104,21.48 52.488,21.24 53.376,20.664 L53.712,20.76 C54.048,21.552 54.504,22.032 55.056,22.512 L56.016,22.2 C56.64,21.696 57.096,21.456 57.504,21.048 C57.936,20.616 58.32,19.752 58.32,19.752 C58.32,19.752 58.92,20.184 59.496,20.592 C60.048,21.24 60.624,21.624 61.248,21.96 C61.824,22.272 62.448,22.512 63.264,22.752 Z M56.232,20.064 L55.848,19.152 C55.944,18.84 56.088,18.432 56.352,18.192 L56.52,18.192 L57.24,18.912 L56.232,20.064 Z M48.816,12.888 L49.368,12.816 C49.68,12.336 49.824,11.856 50.064,11.376 C50.232,10.824 50.304,10.344 50.4,9.984 L51.552,9.84 L51.6,10.872 C51.696,11.76 52.32,12.144 52.704,12.696 L53.328,12.456 L53.928,9.816 L54.696,9.864 L55.104,9.864 L55.368,10.536 L54.384,10.872 L54.552,11.808 L55.584,12.528 L56.616,12.36 L57.24,11.4 C57.336,10.848 57.24,10.392 57.096,9.984 C56.856,9.576 56.808,8.88 56.808,8.328 C56.424,7.776 55.992,7.896 55.344,7.968 L54.648,7.872 L54.6,7.68 C55.056,7.512 56.184,7.224 56.736,6.768 C56.808,6.288 56.568,6.072 56.184,5.976 L54.024,6.024 L53.616,5.76 L53.688,4.464 C54.384,4.296 54.936,3.696 55.56,3.312 L55.488,2.76 L53.376,2.4 L53.208,2.064 L53.28,1.344 C53.376,0.936 53.136,0.624 52.896,0.408 L51.384,0.48 L50.976,0.72 L51.384,2.376 L51.072,2.736 L50.472,2.64 C50.472,1.992 50.64,1.512 50.712,0.936 L50.544,0.408 L49.44,0 L48.912,0 C48.912,0.696 48.816,1.176 48.744,1.752 C48.672,2.304 48.504,2.784 48.432,3.264 C48.336,3.84 48.264,4.32 48.192,4.872 C48.096,5.592 48.312,6.024 48.696,6.384 L49.272,6.36 C49.512,5.856 49.824,5.352 50.064,4.776 L50.472,4.464 L51.216,4.536 C51.48,4.872 51.624,5.184 51.624,5.76 L51.552,6.168 C51.072,6.336 50.64,6.336 50.088,6.48 C49.536,6.72 48.264,6.672 47.52,7.056 L47.52,7.512 L48.072,7.896 L51.624,8.04 L51.528,8.592 L50.256,8.592 L48.48,8.496 L47.856,8.808 C48.192,9.528 48.336,10.104 48.336,10.824 C48.264,11.544 48.432,12.24 48.816,12.888 Z M62.472,11.52 C63.048,11.64 63.768,11.616 64.224,11.4 L64.776,10.416 C64.944,9.48 64.944,8.496 64.944,7.536 C64.92,6.648 64.824,5.64 64.824,4.68 C64.728,3.792 64.608,2.88 64.44,1.896 C64.272,1.512 64.032,0.84 63.168,0.72 L62.088,0.624 C62.376,1.512 62.52,2.184 62.52,2.904 C62.544,3.624 62.592,4.344 62.592,5.064 C62.64,5.808 62.664,6.552 62.712,7.272 C62.736,7.92 62.616,8.424 62.256,8.952 L60.792,9.456 L60.744,9.84 L62.472,11.52 Z M58.944,7.632 C59.688,7.176 59.976,6.696 60.072,6.048 C60.168,5.496 60.264,4.944 60.36,4.368 C60.36,3.888 60.36,3.408 60.36,2.928 C60.36,2.52 60.264,2.064 59.976,1.584 L57.744,1.416 L58.008,2.76 L57.936,4.056 C57.936,4.704 58.008,5.256 58.104,5.808 C58.224,6.456 58.488,7.008 58.944,7.632 Z" id="Shape"></path>
                <path d="M75.36,21.912 L75.936,21.72 C76.176,20.952 76.248,20.136 76.344,19.248 C76.416,18.336 76.488,17.496 76.584,16.608 C76.656,15.768 76.728,14.856 76.728,13.968 L76.656,13.08 L76.824,10.608 C76.896,10.104 76.896,9.6 76.824,9.216 C76.728,8.808 76.584,8.304 76.416,7.896 C76.488,7.392 76.584,6.912 76.824,6.48 C77.064,6.048 77.304,5.712 77.688,5.304 C78.096,4.896 78.336,4.512 78.504,4.08 L78.024,2.808 C77.688,2.568 77.376,2.328 76.968,2.232 C76.584,2.16 76.104,2.088 75.696,1.992 L75.288,2.16 C74.88,3.36 74.328,4.512 73.68,5.592 C72.96,6.768 72.312,7.896 71.688,9 C71.04,10.104 70.632,11.352 70.464,12.648 L70.872,13.968 L71.352,14.52 C71.928,14.352 72.312,14.016 72.552,13.488 C72.792,12.936 73.128,12.552 73.608,12.144 L73.92,12.312 L73.848,17.616 C73.92,18.168 74.088,18.672 74.16,19.248 C74.256,19.824 74.4,20.304 74.568,20.88 C74.736,21.264 74.976,21.648 75.36,21.912 Z M84.36,21.792 L84.6,21.696 C85.008,21.312 85.248,20.928 85.32,20.448 C85.416,19.968 85.416,19.464 85.416,18.984 C85.416,17.76 85.488,17.256 85.56,16.752 C86.52,16.488 86.928,16.32 87.408,16.224 C87.816,16.152 88.296,16.08 88.776,16.08 C89.184,16.08 89.664,16.08 90.144,15.984 C90.456,15.912 90.696,15.672 90.936,15.36 L90.792,14.808 C90.312,14.4 89.808,14.064 89.256,13.896 C88.704,13.752 88.056,13.656 87.504,13.584 C86.856,13.512 86.28,13.344 85.728,12.96 L85.896,12.264 L87.648,12.144 C88.296,12.072 88.944,11.976 89.568,11.88 C90.144,11.808 90.696,11.64 91.272,11.4 L91.032,10.776 C90.552,10.464 90.072,10.224 89.496,10.128 C88.944,10.056 88.296,9.984 87.744,10.056 C87.168,10.128 86.52,10.056 85.968,9.984 L85.896,9.696 C85.896,9.288 86.28,7.896 86.376,7.56 C86.928,7.296 87.576,7.2 88.224,7.128 C88.848,7.056 89.496,7.056 90.144,6.96 L90.552,6.6 L90.456,5.928 C90.072,5.688 89.736,5.52 89.328,5.352 C88.944,5.184 88.536,5.088 88.128,5.016 C87.648,5.016 87.168,5.016 86.76,5.016 C86.28,5.088 84.36,5.184 83.952,5.256 C83.568,5.256 83.232,5.256 82.848,5.256 C82.44,5.352 82.032,5.256 81.792,4.992 L82.032,3.288 C82.104,2.856 82.032,2.448 81.864,2.136 C81.72,1.8 81.552,1.464 81.384,1.176 L80.832,0.936 C80.424,0.84 80.112,0.936 79.776,1.104 L79.872,1.464 L79.056,5.496 L78.336,9.216 L78.672,12 L79.392,13.056 L79.944,12.864 C80.184,12.336 80.424,11.736 80.52,11.112 C80.592,10.44 80.664,9.792 80.832,9.216 C81,8.64 81.24,8.064 81.48,7.44 L82.992,7.632 L83.088,7.896 C83.16,8.64 83.088,9.36 82.992,10.032 C82.92,10.752 82.848,11.424 82.848,12.168 C82.752,12.888 82.68,13.56 82.512,14.232 C82.512,14.784 82.512,15.456 82.512,16.008 C82.44,16.704 82.512,17.256 82.584,17.856 C82.68,19.128 82.752,19.704 82.992,20.256 L84.36,21.792 Z" id="Shape"></path>
            </g>
        </g>
    </g>
</svg>