<?xml version="1.0" encoding="UTF-8"?>
<svg width="114.058826px" height="26.544px" viewBox="0 0 114.058826 26.544" version="1.1" xmlns="http://www.w3.org/2000/svg" xmlns:xlink="http://www.w3.org/1999/xlink">
    <title>TableCard </title>
    <g id="視覺" stroke="none" stroke-width="1" fill="none" fill-rule="evenodd">
        <g id="TableCard-" fill="#FBFAF9" fill-rule="nonzero">
            <path d="M18.368,26.544 C18.928,26.544 19.488,26.544 20.048,26.544 C20.608,26.544 21.252,26.46 21.812,26.18 L21.7,25.648 C20.972,25.284 20.216,25.004 19.572,24.612 C18.9,24.248 18.256,23.884 17.584,23.408 C16.94,23.044 16.296,22.652 15.708,22.26 L15.82,21.98 C16.184,21.588 16.772,21.392 17.5,21.308 C17.976,21.112 18.34,20.748 18.704,20.384 L18.62,19.544 C18.172,19.18 17.696,19.096 17.22,19.012 C16.772,18.9 16.464,18.816 15.736,18.536 C15.176,19.096 14.812,19.376 14.336,19.74 C13.86,20.216 13.3,20.608 12.936,20.888 L11.396,20.44 C11.396,20.44 11.872,19.432 12.404,19.18 C12.852,19.096 13.524,18.984 14,18.9 C15.092,18.76 16.52,18.032 16.576,17.164 L16.492,16.632 L13.272,16.324 L14,14.588 L13.888,13.468 L12.432,13.188 L11.676,13.804 C11.34,14.952 10.248,16.576 9.856,16.66 C9.856,16.66 7.7,16.94 4.508,17.332 L4.34,18.172 C4.62,18.816 5.264,19.152 5.908,19.152 C6.748,18.956 7.14,19.068 7.392,19.152 C7.224,19.656 6.86,20.3 6.272,20.776 C5.628,21.336 4.2,22.68 4.088,23.492 L4.424,25.172 C5.348,25.06 5.796,24.78 6.832,24.108 L7.224,24.22 C7.616,25.144 8.148,25.704 8.792,26.264 L9.912,25.9 C10.64,25.312 11.172,25.032 11.648,24.556 C12.152,24.052 12.6,23.044 12.6,23.044 C12.6,23.044 13.3,23.548 13.972,24.024 C14.616,24.78 15.288,25.228 16.016,25.62 C16.688,25.984 17.416,26.264 18.368,26.544 Z M10.164,23.408 L9.716,22.344 C9.828,21.98 9.996,21.504 10.304,21.224 L10.5,21.224 L11.34,22.064 L10.164,23.408 Z M1.512,15.036 L2.156,14.952 C2.52,14.392 2.688,13.832 2.968,13.272 C3.164,12.628 3.248,12.068 3.36,11.648 L4.704,11.48 L4.76,12.684 C4.872,13.72 5.6,14.168 6.048,14.812 L6.776,14.532 L7.476,11.452 L8.372,11.508 L8.848,11.508 L9.156,12.292 L8.008,12.684 L8.204,13.776 L9.408,14.616 L10.612,14.42 L11.34,13.3 C11.452,12.656 11.34,12.124 11.172,11.648 C10.892,11.172 10.836,10.36 10.836,9.716 C10.388,9.072 9.884,9.212 9.128,9.296 L8.316,9.184 L8.26,8.96 C8.792,8.764 10.108,8.428 10.752,7.896 C10.836,7.336 10.556,7.084 10.108,6.972 L7.588,7.028 L7.112,6.72 L7.196,5.208 C8.008,5.012 8.652,4.312 9.38,3.864 L9.296,3.22 L6.832,2.8 L6.636,2.408 L6.72,1.568 C6.832,1.092 6.552,0.728 6.272,0.476 L4.508,0.56 L4.032,0.84 L4.508,2.772 L4.144,3.192 L3.444,3.08 C3.444,2.324 3.64,1.764 3.724,1.092 L3.528,0.476 L2.24,0 L1.624,0 C1.624,0.812 1.512,1.372 1.428,2.044 C1.344,2.688 1.148,3.248 1.064,3.808 C0.952,4.48 0.868,5.04 0.784,5.684 C0.672,6.524 0.924,7.028 1.372,7.448 L2.044,7.42 C2.324,6.832 2.688,6.244 2.968,5.572 L3.444,5.208 L4.312,5.292 C4.62,5.684 4.788,6.048 4.788,6.72 L4.704,7.196 C4.144,7.392 3.64,7.392 2.996,7.56 C2.352,7.84 0.868,7.784 0,8.232 L0,8.764 L0.644,9.212 L4.788,9.38 L4.676,10.024 L3.192,10.024 L1.12,9.912 L0.392,10.276 C0.784,11.116 0.952,11.788 0.952,12.628 C0.868,13.468 1.064,14.28 1.512,15.036 Z M17.444,13.44 C18.116,13.58 18.956,13.552 19.488,13.3 L20.132,12.152 C20.328,11.06 20.328,9.912 20.328,8.792 C20.3,7.756 20.188,6.58 20.188,5.46 C20.076,4.424 19.936,3.36 19.74,2.212 C19.544,1.764 19.264,0.98 18.256,0.84 L16.996,0.728 C17.332,1.764 17.5,2.548 17.5,3.388 C17.528,4.228 17.584,5.068 17.584,5.908 C17.64,6.776 17.668,7.644 17.724,8.484 C17.752,9.24 17.612,9.828 17.192,10.444 L15.484,11.032 L15.428,11.48 L17.444,13.44 Z M13.328,8.904 C14.196,8.372 14.532,7.812 14.644,7.056 C14.756,6.412 14.868,5.768 14.98,5.096 C14.98,4.536 14.98,3.976 14.98,3.416 C14.98,2.94 14.868,2.408 14.532,1.848 L11.928,1.652 L12.236,3.22 L12.152,4.732 C12.152,5.488 12.236,6.132 12.348,6.776 C12.488,7.532 12.796,8.176 13.328,8.904 Z" id="Shape"></path>
            <path d="M34.8133333,25.564 L35.4853333,25.34 C35.7653333,24.444 35.8493333,23.492 35.9613333,22.456 C36.0453333,21.392 36.1293333,20.412 36.2413333,19.376 C36.3253333,18.396 36.4093333,17.332 36.4093333,16.296 L36.3253333,15.26 L36.5213333,12.376 C36.6053333,11.788 36.6053333,11.2 36.5213333,10.752 C36.4093333,10.276 36.2413333,9.688 36.0453333,9.212 C36.1293333,8.624 36.2413333,8.064 36.5213333,7.56 C36.8013333,7.056 37.0813333,6.664 37.5293333,6.188 C38.0053333,5.712 38.2853333,5.264 38.4813333,4.76 L37.9213333,3.276 C37.5293333,2.996 37.1653333,2.716 36.6893333,2.604 C36.2413333,2.52 35.6813333,2.436 35.2053333,2.324 L34.7293333,2.52 C34.2533333,3.92 33.6093333,5.264 32.8533333,6.524 C32.0133333,7.896 31.2573333,9.212 30.5293333,10.5 C29.7733333,11.788 29.2973333,13.244 29.1013333,14.756 L29.5773333,16.296 L30.1373333,16.94 C30.8093333,16.744 31.2573333,16.352 31.5373333,15.736 C31.8173333,15.092 32.2093333,14.644 32.7693333,14.168 L33.1333333,14.364 L33.0493333,20.552 C33.1333333,21.196 33.3293333,21.784 33.4133333,22.456 C33.5253333,23.128 33.6933333,23.688 33.8893333,24.36 C34.0853333,24.808 34.3653333,25.256 34.8133333,25.564 Z M45.3133333,25.424 L45.5933333,25.312 C46.0693333,24.864 46.3493333,24.416 46.4333333,23.856 C46.5453333,23.296 46.5453333,22.708 46.5453333,22.148 C46.5453333,20.72 46.6293333,20.132 46.7133333,19.544 C47.8333333,19.236 48.3093333,19.04 48.8693333,18.928 C49.3453333,18.844 49.9053333,18.76 50.4653333,18.76 C50.9413333,18.76 51.5013333,18.76 52.0613333,18.648 C52.4253333,18.564 52.7053333,18.284 52.9853333,17.92 L52.8173333,17.276 C52.2573333,16.8 51.6693333,16.408 51.0253333,16.212 C50.3813333,16.044 49.6253333,15.932 48.9813333,15.848 C48.2253333,15.764 47.5533333,15.568 46.9093333,15.12 L47.1053333,14.308 L49.1493333,14.168 C49.9053333,14.084 50.6613333,13.972 51.3893333,13.86 C52.0613333,13.776 52.7053333,13.58 53.3773333,13.3 L53.0973333,12.572 C52.5373333,12.208 51.9773333,11.928 51.3053333,11.816 C50.6613333,11.732 49.9053333,11.648 49.2613333,11.732 C48.5893333,11.816 47.8333333,11.732 47.1893333,11.648 L47.1053333,11.312 C47.1053333,10.836 47.5533333,9.212 47.6653333,8.82 C48.3093333,8.512 49.0653333,8.4 49.8213333,8.316 C50.5493333,8.232 51.3053333,8.232 52.0613333,8.12 L52.5373333,7.7 L52.4253333,6.916 C51.9773333,6.636 51.5853333,6.44 51.1093333,6.244 C50.6613333,6.048 50.1853333,5.936 49.7093333,5.852 C49.1493333,5.852 48.5893333,5.852 48.1133333,5.852 C47.5533333,5.936 45.3133333,6.048 44.8373333,6.132 C44.3893333,6.132 43.9973333,6.132 43.5493333,6.132 C43.0733333,6.244 42.5973333,6.132 42.3173333,5.824 L42.5973333,3.836 C42.6813333,3.332 42.5973333,2.856 42.4013333,2.492 C42.2333333,2.1 42.0373333,1.708 41.8413333,1.372 L41.1973333,1.092 C40.7213333,0.98 40.3573333,1.092 39.9653333,1.288 L40.0773333,1.708 L39.1253333,6.412 L38.2853333,10.752 L38.6773333,14 L39.5173333,15.232 L40.1613333,15.008 C40.4413333,14.392 40.7213333,13.692 40.8333333,12.964 C40.9173333,12.18 41.0013333,11.424 41.1973333,10.752 C41.3933333,10.08 41.6733333,9.408 41.9533333,8.68 L43.7173333,8.904 L43.8293333,9.212 C43.9133333,10.08 43.8293333,10.92 43.7173333,11.704 C43.6333333,12.544 43.5493333,13.328 43.5493333,14.196 C43.4373333,15.036 43.3533333,15.82 43.1573333,16.604 C43.1573333,17.248 43.1573333,18.032 43.1573333,18.676 C43.0733333,19.488 43.1573333,20.132 43.2413333,20.832 C43.3533333,22.316 43.4373333,22.988 43.7173333,23.632 L45.3133333,25.424 Z" id="Shape"></path>
            <path d="M61.1706667,24.64 C61.8146667,24.64 62.4866667,24.556 63.0466667,24.276 C63.6066667,24.08 64.1666667,23.996 64.8106667,23.912 C66.4626667,23.912 72.6506667,23.52 73.4906667,23.52 C74.3306667,23.52 75.1706667,23.52 76.0106667,23.436 C77.8306667,23.38 82.8146667,23.128 82.8146667,23.128 C83.5426667,23.044 83.7666667,22.596 83.8506667,22.204 L83.6826667,21.56 C82.4506667,21.28 81.0786667,21 79.4266667,20.916 C77.7746667,20.832 74.9746667,20.524 73.6586667,20.44 L74.9746667,19.04 C75.6466667,18.368 76.0946667,17.724 76.4866667,16.968 C76.7666667,16.324 77.0466667,15.568 77.2426667,14.812 C77.4106667,14.056 77.6066667,13.328 77.8026667,12.488 L77.4106667,11.06 L75.4506667,10.136 L75.4506667,9.94 C76.0946667,9.856 76.8506667,9.772 77.5226667,9.576 C78.1666667,9.38 80.2946667,9.016 80.9666667,8.904 L81.2466667,8.456 L80.9666667,7.616 C80.6866667,7.336 80.2106667,7.14 79.7346667,7.14 L74.4426667,7.308 L73.4626667,7.336 L73.6306667,3.388 C73.7426667,2.912 73.6306667,2.548 73.4626667,2.268 C72.9866667,1.792 72.3146667,1.512 71.5866667,1.624 L71.1106667,1.708 C70.5506667,1.988 69.9906667,2.352 69.5146667,2.828 L69.5986667,3.668 L70.0746667,4.06 C70.3546667,4.424 70.7466667,5.544 70.9146667,6.384 L70.8306667,7.7 C69.8786667,7.98 67.1066667,8.26 66.1826667,8.54 C63.8866667,8.848 62.9626667,9.044 61.9266667,9.24 L62.4866667,10.64 C62.5706667,11.088 62.8506667,11.48 63.3266667,11.564 L66.0986667,11.172 L66.5466667,11.34 C66.8266667,12.208 67.0226667,13.216 67.0226667,14.252 C67.0226667,15.288 67.1066667,16.324 67.3026667,17.248 C67.3866667,18.284 67.5826667,19.208 67.8626667,20.16 L67.8626667,20.72 C67.1066667,20.804 66.4346667,20.972 64.9506667,21.056 C63.8866667,21.056 63.1306667,21.364 62.4866667,21.56 C61.7306667,21.756 61.0866667,22.036 60.4146667,22.316 C60.1346667,22.204 59.7706667,22.316 59.4906667,22.4 C59.5746667,23.044 59.9666667,23.716 60.5266667,24.276 L61.1706667,24.64 Z M70.4946667,20.524 L70.3826667,20.636 C70.1026667,20.72 69.8226667,20.636 69.6546667,20.356 L69.8226667,19.488 L70.2146667,12.572 C70.2986667,11.928 70.1026667,11.452 69.6546667,11.06 L69.7386667,10.78 L73.4906667,10.136 L73.8546667,10.22 C73.9386667,10.612 74.0506667,10.976 74.2186667,11.256 C74.2186667,11.928 74.2186667,12.572 74.1346667,13.132 C74.0506667,13.776 73.8546667,14.336 73.7706667,14.924 C73.5746667,15.568 73.3786667,16.128 73.2946667,16.772 C73.0146667,17.248 72.7346667,17.808 72.4546667,18.284 C72.0906667,18.76 71.6146667,19.208 71.1386667,19.6 L70.4946667,20.524 Z" id="Shape"></path>
            <path d="M107.576,26.152 C107.576,26.152 108.108,26.32 108.864,25.816 C109.284,25.2 109.564,24.64 109.76,23.996 C109.956,23.38 110.04,21.672 110.04,20.748 L111.804,20.188 C112.56,20.188 113.26,19.992 113.904,19.516 C114.296,19.152 113.82,18.368 113.82,18.368 L112.28,18.088 L110.068,18.004 C109.844,17.584 109.676,15.008 109.676,15.008 L109.76,14.28 C109.76,14.28 111.832,14.112 112.28,13.3 C112.392,12.124 112.756,7.616 112.756,7.056 C112.756,6.496 112.672,5.936 112.56,5.404 C112.56,5.404 112.28,4.62 111.328,4.312 C110.488,4.228 109.732,4.228 109.004,4.312 C108.136,4.424 107.408,4.592 106.736,4.704 C105.98,4.872 105.252,5.068 104.16,5.152 C104.328,4.872 106.736,2.436 107.184,2.072 L106.988,1.064 C106.568,0.952 106.176,0.784 105.812,0.588 C105.42,0.504 105.056,0.308 104.636,0.196 L103.824,0.504 C103.488,0.84 101.92,3.304 101.388,3.64 L101.108,4.256 C101.192,5.46 101.304,6.58 101.584,7.672 C101.864,8.736 102.032,9.856 102.228,10.976 C102.424,12.124 102.592,13.244 102.788,14.42 L103.152,14.7 L103.264,14.98 C103.348,15.568 103.348,16.128 103.264,16.604 C103.152,17.108 102.872,17.584 102.592,18.06 L102.592,18.592 C103.46,18.676 104.188,18.592 104.748,18.312 C105.168,17.892 105.448,17.416 105.644,16.94 C105.728,16.464 105.924,15.904 106.008,15.456 L106.624,14.952 L106.96,15.036 C107.184,15.26 107.38,16.996 107.296,18.284 C106.736,18.452 105.98,18.564 105.336,18.648 C104.58,18.732 103.852,18.928 103.18,19.012 C102.48,19.208 101.724,19.404 101.08,19.6 L100.828,20.104 C100.744,20.636 100.912,21.168 101.248,21.504 C101.976,21.504 102.536,21.504 103.096,21.392 C103.656,21.392 106.96,21.028 107.184,21.252 L107.492,25.256 L107.576,26.152 Z M98.616,24.528 C99.148,23.912 99.512,23.24 99.792,22.4 C99.988,21.504 100.464,18.564 100.52,17.696 C100.576,17.052 100.744,16.268 100.632,15.708 C100.548,15.148 100.548,14.588 100.464,13.916 C100.352,13.356 100.184,12.74 99.876,12.264 C99.428,11.536 98.756,11.564 98.756,11.564 L94.22,11.564 C94.22,11.564 94.332,10.164 94.556,9.94 L95.368,10.024 C96.012,9.94 98.532,9.744 99.26,9.548 C99.82,9.352 100.38,9.072 100.94,8.792 C101.22,8.26 100.856,7.504 100.856,7.504 L100.352,7.168 L98.784,7.252 C98.308,7.336 97.916,7.252 97.58,7.112 L97.86,5.012 C97.776,4.564 97.776,4.088 97.776,3.612 C97.692,3.164 97.58,2.716 97.244,2.296 L95.872,1.904 L94.78,2.24 C95.116,2.744 95.256,3.556 95.396,3.948 C95.536,4.34 95.396,7 95.312,7.252 L94.248,7.448 C94.024,6.944 93.94,6.44 93.94,5.768 C93.828,5.124 93.66,4.508 93.324,3.976 L91.756,3.612 L90.608,4.032 L90.608,4.424 L90.804,4.536 C91.084,5.124 91.084,8.12 91.084,8.12 L91.168,8.764 C91.084,9.716 91,10.64 90.888,11.48 C90.72,12.432 90.524,13.3 90.244,14.14 C89.964,14.98 89.768,15.932 89.488,16.828 C89.488,17.304 89.6,17.724 89.768,18.088 C89.964,18.564 90.244,18.928 90.58,19.264 L91.252,19.18 C91.672,18.564 92.064,18.004 92.428,17.444 C92.708,16.884 92.988,16.324 93.268,15.652 C93.464,15.008 93.884,14.42 93.884,14.42 L97.216,14.14 L97.72,15.708 C97.72,16.548 97.72,17.304 97.804,18.144 C97.916,18.984 97.916,19.712 98,20.58 C98,21.14 98,21.7 98,22.148 C98,22.708 97.916,23.296 97.804,23.744 L97.916,24.332 L98.616,24.528 Z M105.056,12.656 L104.972,11.396 L105.868,11.312 L106.008,12.488 L105.056,12.656 Z M109.62,11.76 C109.62,11.76 108.444,12.012 108.276,11.872 L108.22,10.92 L109.48,10.668 L109.844,10.668 C109.928,11.004 109.844,11.424 109.62,11.76 Z M105.868,9.296 L104.748,9.576 L104.58,9.52 L104.412,7.196 L105.924,6.972 C105.924,6.972 106.092,8.848 105.868,9.296 Z M109.9,9.1 C109.9,9.1 108.64,9.016 108.416,8.792 L108.836,7.168 L109.788,6.944 L109.9,9.1 Z" id="Shape"></path>
        </g>
    </g>
</svg>