<svg id="eye" xmlns="http://www.w3.org/2000/svg" viewBox="0 0 300 300">
    <path  fill="none"
           stroke="#003882"
           stroke-linecap="round"
           stroke-linejoin="round"
           stroke-width="5px" d="m114.65 146.52 1.13 1.22.84 1.49 1.51.81 1.4 1.01.8 1.48-.03 1.87 1.24 1.23.74 1.5-.14 1.73.09 1.63.38 1.59-.37 1.62.17 1.62-.51 1.55-.21 1.59.48 1.84-.78 1.49-1.06 1.32-.76 1.44-.9 1.39-.83 1.52-1.6.71-1.2 1.16-1.72.32-1.33.95-1.59.37-1.57.39-1.5.83-1.67-.29-1.6-.13-1.59-.2-1.54-.42-1.81.58-1.35-1.1-1.46-.69-1.75-.21-1.3-1.03-.77-1.67-1.54-.8-.65-1.58-1.1-1.24-1.4-1.22.54-1.95-1.2-1.44.25-1.72-.2-1.68.88-1.55.15-1.64.62-1.51-.07-1.92 1.16-1.3 1.65-.64.73-1.46 1.36-.77 1.23-1.03 1.73.28 1.26-1.54 1.64.26 1.52.66 1.52.1 1.44.53 1.82-.16 1.19 1.13.67 1.73 1.31 1 1.31 1.2.66 1.61-.15 1.76.49 1.74-1.14 1.5-.04 1.79-1.04 1.38-1.05 1.45-1.58.86-1.55.96-1.86-.85-1.78.97-1.47-1.18-1.48-.8M179.94 150.59l.48-1.97 1.51-.84 1.54-.72 1.47-.82 1.76-.08 1.36-1.2 1.84.62 1.52-.96 1.65-.35 1.71-.41 1.6 1.02 1.8-.6 1.43 1.27 1.75.01 1.26 1.32 1.49.65 1.88.09 1.23 1.2 1.02 1.36 1.64.78.58 1.7.94 1.38.98 1.39.74 1.54-.02 1.76.67 1.58-.53 1.72 1.06 1.66-.45 1.68-.78 1.57-.82 1.47.44 1.91-.69 1.55-.87 1.46-1 1.37-.92 1.44-1.57.82-1.2 1.03-1.5.58-.99 1.51-1.48.7-1.82-.55-1.37 1.24-1.64-.05-1.56-.71-1.72.89-1.44-.98-1.69-.06-1.61-.47-.67-1.98-1.77-.29-.69-1.57-1.63-.71-.68-1.49-.57-1.51-1.13-1.36.65-1.76-.19-1.56-.62-1.68.64-1.56 1.08-1.31.16-1.73 1.84-.63.44-1.71 1.05-1.5 1.85-.28 1.51-.93 1.8.51 1.74-.99 1.58 1.03 1.85.03.97 1.72 1.62.69.58 1.72.75 1.48.58 1.61.09 1.74-.81 1.55-.32 1.76-1.28 1.22"/>
</svg>
