<?xml version="1.0" encoding="UTF-8"?>
<svg id="eye" xmlns="http://www.w3.org/2000/svg" viewBox="0 0 300 300">
  <g id="eye_6">
    <path d="m108.63,156.25c-1.02.76-.7,1.19-1.73,1.95-1.02.76-.95.86-1.97,1.62-1.02.76-1.14.6-2.16,1.36s-.97.84-1.99,1.6-.89.95-1.91,1.71-1.39.27-2.42,1.03-1.1.66-2.12,1.43-.59,1.36-1.61,2.12-1.46.18-2.49.94c-.9.67-.93,1.97-.63,2.85s1.08,1.59,2.21,1.59c1.37,0,1.37-.22,2.73-.22s1.37.15,2.74.15,1.37.39,2.73.39,1.37-.52,2.74-.52,1.37.27,2.73.27c1.37,0,1.37.02,2.74.02s1.37-.2,2.74-.2c1.37,0,1.37.36,2.74.36,1.37,0,1.37-.14,2.73-.14s1.37.26,2.74.26,1.37-.31,2.74-.31,1.37-.01,2.74-.01,1.37-.42,2.74-.42,1.37.2,2.74.2c1.03,0,1.53-.54,1.87-1.34s.77-1.91.05-2.65c-.9-.94-1.41-.44-2.32-1.38-.91-.94-.52-1.31-1.43-2.24s-1-.84-1.91-1.78-.78-1.06-1.68-1.99-1.08-.77-1.98-1.71c-.91-.94-.65-1.19-1.56-2.13-.91-.94-.97-.88-1.87-1.82-.67-.69-1.66-.99-2.49-1.38s-1.71-1.06-2.64-1.14-2.01-.05-2.92.22-1.83.77-2.61,1.35Z" style="fill: #fff; stroke-width: 0px;"/>
    <path d="m102.66,160.98c-.87.9-.08,1.08-.3,2.54-.11.73-.43,1.55-.41,2.47.02.79.26,1.6.46,2.45.18.78.45,1.55.85,2.32.37.7.87,1.33,1.47,1.97.53.57,1.01,1.43,1.76,1.93,1.44.2,1.48-.02,2.93-.02s1.45-.06,2.9-.06,1.45-.18,2.9-.18,1.45.05,2.91.05,1.44.07,2.88-.17c1.24-.2.78-.44,1.59-1.78.37-.6.66-1.38.98-2.3.25-.71.65-1.48.79-2.39.12-.76.25-1.61.25-2.52,0-.78-.34-1.52-.44-2.41-.71-1.03-.83-.9-1.7-1.8-.87-.9-.61-1.16-1.48-2.06s-.88-.89-1.74-1.81c-.95-1.02-.9-.92-2.36-1.6-.74-.34-1.72-.37-2.77-.44-.83-.05-1.73,0-2.74.3-.8.23-1.58.65-2.48,1.18-1.04.72-1.13.59-2.14,1.35s-.86.99-1.93,1.66-1.31.4-2.19,1.31Z" style="fill: #003882; stroke-width: 0px;"/>
    <path d="m191.41,156.2c1.02.76.77,1.11,1.79,1.87s.84,1.01,1.86,1.77,1.38.28,2.4,1.04.84,1.01,1.86,1.77,1.3.39,2.33,1.15.83,1.02,1.85,1.79,1.12.64,2.14,1.4c1.03.76.63,1.29,1.66,2.05s1.48.16,2.5.92c.9.67,1.01,2.04.72,2.92s-1.19,1.4-2.32,1.4c-1.37,0-1.37.28-2.73.28-1.37,0-1.37-.21-2.74-.21-1.37,0-1.37.51-2.73.51s-1.37-.22-2.74-.22-1.37-.06-2.73-.06-1.37-.53-2.74-.53c-1.37,0-1.37.16-2.74.16s-1.37.25-2.74.25-1.37-.43-2.73-.43-1.37.65-2.74.65c-1.37,0-1.37.05-2.74.05s-1.37-.09-2.74-.09c-1.37,0-1.37.19-2.74.19s-1.37-.34-2.74-.34c-1.03,0-2.09-.54-2.43-1.35s.13-1.82.85-2.56c.9-.94,1.08-.77,1.98-1.7s.44-1.39,1.34-2.33c.91-.94.98-.87,1.89-1.8s.98-.86,1.89-1.8,1.06-.79,1.97-1.73.81-1.04,1.72-1.98.79-1.06,1.7-2c.67-.69,1.68-.87,2.51-1.26s1.68-.58,2.61-.65c.93-.08,1.8-.15,2.71.11s2.03.17,2.8.74Z" style="fill: #fff; stroke-width: 0px;"/>
    <path d="m197.23,161.08c.87.9.16.98.38,2.44.11.73.34,1.55.32,2.46-.02.79-.2,1.6-.4,2.45-.18.78-.42,1.56-.82,2.33-.37.7-.88,1.32-1.47,1.96-.53.57-1.01,1.37-1.76,1.87-1.44.2-1.47.06-2.92.06s-1.45,0-2.9,0c-1.45,0-1.45-.42-2.9-.42s-1.45.44-2.91.44c-1.45,0-1.47,0-2.91-.23-1.24-.2-.61-.68-1.43-2.02-.37-.6-1.05-1.21-1.36-2.13-.25-.71-.27-1.58-.41-2.5-.12-.76-.37-1.59-.38-2.5,0-.78,0-1.74.11-2.63.71-1.03,1.06-.77,1.93-1.67s.94-.84,1.81-1.74c.87-.9.71-1.05,1.57-1.97.95-1.02.9-.85,2.36-1.53.74-.34,1.63-.84,2.68-.9.83-.05,1.74.37,2.74.67.8.23,1.65.53,2.55,1.07,1.04.72.95.84,1.96,1.6s.98.83,2.03,1.53,1.24.46,2.12,1.37Z" style="fill: #003882; stroke-width: 0px;"/>
  </g>
</svg>