<?xml version="1.0" encoding="UTF-8"?>
<svg id="eye" xmlns="http://www.w3.org/2000/svg" viewBox="0 0 300 300">
  <g id="eye_7">
    <path d="m90.6,163.42c1.2-.51,1.19-.06,2.48-.13s1.29-.3,2.59-.36,1.29-.16,2.59-.23c1.3-.07,1.32.31,2.62.25,1.3-.07,1.29-.19,2.59-.26,1.3-.07,1.3-.13,2.6-.19s1.29-.28,2.59-.35c1.3-.07,1.31.09,2.6.02,1.3-.07,1.31.09,2.61.02s1.3-.08,2.6-.15,1.28-.57,2.58-.63,1.32.27,2.62.21,1.31.09,2.62.02c1.3-.07,1.35-.75,2.59-.35s.16,1.01-.12,2.5c-.14.72-.66,1.41-1.07,2.27-.33.7-.6,1.46-1.17,2.18-.49.61-.83,1.46-1.54,2.04-.61.5-1.56.58-2.36,1.03-.69.39-1.23,1.19-2.08,1.53-.74.29-1.66.19-2.53.43-.77.22-1.55.52-2.43.69-.79.15-1.61.37-2.49.48-1.34.2-1.06.09-2.7.19-.79.05-1.7.46-2.7.44-.85-.01-1.77-.31-2.7-.41-.88-.09-1.72-.51-2.62-.71s-1.79-.23-2.64-.55-1.69-.66-2.46-1.14-1.64-.9-2.26-1.56-1.24-1.4-1.66-2.24c-.38-.76-.59-1.71-.79-2.66-.18-.82.05-1.46.04-2.43Z" style="fill: #fff; stroke-width: 0px;"/>
    <path d="m91.17,161.62c-1.56.15-2.15.41-1.81,1.85.15.66.87,1.23,2.03,1.36,1.36.15,1.43.26,2.82.18,1.31-.07,1.3-.09,2.61-.16s1.27-.68,2.58-.75,1.31-.1,2.61-.17c1.31-.07,1.31,0,2.62-.07,1.31-.07,1.33.29,2.63.21,1.31-.07,1.31-.03,2.62-.11s1.28-.46,2.59-.54,1.32.17,2.63.09,1.33.26,2.63.19,1.27-.65,2.58-.73,1.32.17,2.63.09,1.3-.3,2.61-.37c1.31-.07,1.4.54,2.63.08.99-.36.65-1.03.27-2.16-.18-.55-.73-1.17-1.41-1.72-.39-.32-1.43-.25-2.64-.59-.74-.21-1.6-.42-2.58-.62-.81-.16-1.58-.95-2.52-1.1-.84-.13-1.82.44-2.75.33-.86-.11-1.72-.37-2.64-.46-.87-.08-1.74-.4-2.64-.46s-1.77-.28-2.67-.31c-.89-.04-1.79.05-2.69.04s-1.8-.31-2.69-.29-1.78.62-2.66.68-1.84-.29-2.72-.2c-1.51.25-2.24.66-1.91,2.1.16.68,1.47.72,2.85.78,1.58.07,1.62.62,3.22.5,1.27-.09.96-.47,2.51-.5.74-.02,1.6.11,2.55.1.8,0,1.65-.42,2.54-.42.83,0,1.68.28,2.54.3s1.72-.15,2.56-.11,1.73.21,2.54.28c.91.07,1.81-.12,2.58-.02.99.13,1.75.73,2.39.94.79.67.82,1.25-1.18,1.25-.34,0-1.31-.34-2.71-.3-.78.02-1.69.35-2.7.38-.84.02-1.77-.6-2.73-.57-.87.03-1.76.58-2.69.61s-1.79.13-2.71.16-1.82-.19-2.72-.16-1.82.33-2.71.36-1.86-.35-2.73-.32c-.95.04-1.86.18-2.71.22-1,.05-1.92.07-2.71.11-1.25.07-2.21-.01-2.72.05Z" style="fill: #003882; stroke-width: 0px;"/>
    <path d="m102.73,163.13c-1.26.82.19,1.53.98,2.95.44.8,1.13,1.54,2.08,2.09.75.44,1.67.78,2.84.78.89,0,1.74-.03,2.53-.16.88-.14,1.67-.46,2.41-.76.82-.34,1.57-.72,2.18-1.24.65-.56,1.27-1.17,1.64-1.93.35-.72.44-1.46.51-2.36-1.21-.37-1.23-.1-2.48-.03s-1.26.01-2.52.08-1.25.3-2.51.37-1.26.03-2.52.1-1.28.28-2.54.12c-1.34-.17-1.53-.72-2.59-.03Z" style="fill: #003882; stroke-width: 0px;"/>
    <path d="m209.66,162.8c-1.2-.51-1.43.06-2.72,0-1.3-.07-1.32.4-2.62.33-1.3-.07-1.28-.46-2.58-.53s-1.32.39-2.62.32-1.27-.64-2.57-.71c-1.3-.07-1.32.32-2.62.26s-1.3-.02-2.6-.09-1.28-.35-2.58-.41-1.3.03-2.6-.04-1.31.15-2.61.09-1.29-.32-2.59-.39-1.3-.1-2.6-.17c-1.3-.07-1.32.21-2.62.15s-1.41-.88-2.65-.47c-1.21.39.04,1.15.32,2.64.14.72.12,1.62.52,2.49.33.7.94,1.32,1.52,2.04.49.61,1.03,1.24,1.74,1.83.61.5,1.27,1.03,2.06,1.48.69.39,1.35,1,2.2,1.33.74.29,1.72.01,2.59.26.77.22,1.48.86,2.36,1.03.79.15,1.69-.07,2.57.04,1.34.2,1.04.26,2.67.37.79.05,1.7.04,2.7.02.85-.01,1.74-.17,2.68-.27.88-.09,1.75-.21,2.65-.41s1.7-.47,2.55-.79,1.58-.74,2.35-1.21,1.63-.77,2.25-1.43,1.1-1.38,1.52-2.21c.38-.76,1.01-1.52,1.21-2.46.18-.82.15-2.1.16-3.07Z" style="fill: #fff; stroke-width: 0px;"/>
    <path d="m208.82,161.7c1.56.15,2.38.39,2.05,1.83-.15.66-1.13.8-2.29.93-1.36.15-1.36.11-2.75.03-1.31-.07-1.3-.22-2.6-.29s-1.33.28-2.63.21-1.31-.07-2.61-.15-1.32.18-2.63.1c-1.31-.07-1.31.04-2.62-.03s-1.3-.22-2.61-.3-1.3-.13-2.6-.2-1.29-.31-2.6-.39c-1.31-.07-1.32.22-2.63.15s-1.31.01-2.62-.06-1.29-.45-2.59-.52-1.33.34-2.64.27c-1.31-.07-1.32-.16-2.55-.61-.99-.36-.74-.93-.37-2.05.18-.55,1.06-.81,1.74-1.36.39-.32,1.14-.62,2.36-.96.74-.21,1.57-.53,2.56-.73.81-.16,1.66-.5,2.6-.65.84-.13,1.77.1,2.7-.02.86-.11,1.74-.16,2.66-.25s1.73-.4,2.64-.46,1.77-.21,2.67-.25,1.78-.15,2.68-.17,1.79.06,2.68.07,1.77.42,2.66.47c.9.05,1.87-.59,2.75-.5,1.51.25,2.36.79,2.03,2.23-.16.68-1.58,1.17-2.97,1.23-1.58.07-1.59-.57-3.19-.69-1.27-.09-1.01.03-2.56,0-.74-.02-1.61.29-2.55.28-.8,0-1.65-.09-2.54-.09-.83,0-1.69-.21-2.55-.19s-1.72-.05-2.56-.02-1.72.42-2.53.48c-.91.07-1.76.16-2.53.26-.99.13-2.05.04-2.69.25-.79.67-.57,1.37,1.42,1.37.34,0,1.31.02,2.71.05.78.02,1.7-.06,2.71-.04.84.02,1.76-.04,2.71-.01.87.03,1.77.32,2.7.34s1.79.21,2.71.24,1.83-.53,2.73-.5,1.82.13,2.71.16,1.85-.14,2.72-.1c.95.04,1.85.42,2.7.46,1,.05,1.93-.18,2.73-.13,1.25.07,2.19.24,2.71.3Z" style="fill: #003882; stroke-width: 0px;"/>
    <path d="m197.15,163.14c1.26.82-.21,1.28-1,2.7-.44.8-1,1.6-1.95,2.16-.75.44-1.66.88-2.84.88-.89,0-1.76-.02-2.55-.15-.88-.14-1.66-.54-2.4-.84-.82-.34-1.62-.67-2.23-1.2-.65-.56-1.01-1.33-1.38-2.1-.35-.72-.7-1.55-.77-2.45,1.21-.37,1.27.27,2.53.34,1.26.07,1.26.06,2.52.13s1.26.05,2.52.12c1.26.07,1.26.09,2.52.16s1.28.26,2.54.15,1.41-.6,2.47.09Z" style="fill: #003882; stroke-width: 0px;"/>
  </g>
</svg>