<?xml version="1.0" encoding="UTF-8"?>
<svg id="eye" xmlns="http://www.w3.org/2000/svg" viewBox="0 0 300 300">
  <g id="eye_10">
    <path d="m101.68,158.05c1.31.53,1.07.32,2.64,1.02.75.33,1.55.88,2.48,1.36.79.41,1.71.73,2.55,1.25.79.48,1.44,1.22,2.21,1.79s1.53,1.11,2.21,1.75,1.33,1.35,1.89,2.08.93,1.54,1.32,2.39c.18,1.49-.05,1.29-1.07,2.59-.53.68-1.16,1.39-2.3,1.77-.62.21-1.44.59-2.41.98-.74.29-1.64.38-2.51.72-.77.31-1.56.7-2.39,1.02s-1.61.64-2.43.93-1.62.7-2.43.94c-.88.26-1.75.38-2.55.55-.95.2-1.81.22-2.56.22-1.81.02-2.15-.41-1.87-1.22.24-.7.8-1.71,1.83-2.32.86-.51,1.96-.68,2.93-.73.79-.04,1.75-.08,2.72-.29.87-.19,1.74-.57,2.6-.84.93-.29,1.8-.64,2.54-.98,1.21-.56,2.26-1.11,2.32-1.58.05-.43-1.18-.78-2.72-.95-.81-.09-1.79.07-2.8,0-.9-.07-1.82-.46-2.75-.56s-1.95.09-2.81-.08c-1.06-.21-1.89-.73-2.54-1.11-1.31-.76-1.56-1.48-1.1-2.16.41-.61,1.31-1.11,2.5-1.23.86-.08,1.83.07,2.84.42.72.25,1.55.25,2.31.47s1.5.58,2.23.74c.85.19,1.61.53,2.28.61,1.3.16,2.2-.07,2.2-.48,0-.39-.7-1.08-1.97-1.9-.66-.43-1.53-.75-2.5-1.22-.76-.37-1.63-.68-2.58-1.04-.82-.31-1.66-.69-2.61-.97-.85-.26-1.68-.77-2.63-1-1.2-.28-2.19-.36-2.81-.73-1.27-.77-1.19-1.67-.47-2.31.52-.47,1.37-.97,2.59-1.05.84-.06,1.8.14,2.85.37.86.2,1.83.35,2.77.8Z" style="fill: #003882; stroke-width: 0px;"/>
    <g>
      <path d="m170.05,162.43c.26-.79.2-.62.62-1.57.19-.43.32-1.02.61-1.58.24-.45,1.23-.53,1.54-1.03.28-.45.54-.91.88-1.38.32-.44.54-.94.92-1.37s.44-1.09.84-1.48.88-.68,1.32-1.04.66-1,1.13-1.31,1.13-.31,1.63-.57.93-.65,1.46-.86,1.18.06,1.73-.08,1.07-.11,1.63-.19,1.03-.86,1.6-.88c.54-.02,1.13.06,1.71.09.54.03,1,.9,1.57.99.53.08,1.04.19,1.6.33s1.14.14,1.68.29c.57.17,1.29-.22,1.82-.03.55.2,1.08.47,1.59.7.54.24,1.15.35,1.64.62s.8.96,1.27,1.26,1.2.33,1.64.68.42,1.28.83,1.66,1.26.38,1.63.81.86.83,1.19,1.29.46,1.1.74,1.6.64.99.87,1.51.69,1.01.87,1.55-.36,1.3-.24,1.86.07,1.13.15,1.7.98,1.08,1,1.65-.83,1.15-.85,1.73.3,1.16.23,1.73-.15,1.14-.26,1.7,0,1.19-.15,1.74-.49,1.07-.68,1.6-.82.85-1.08,1.33-.03,1.28-.36,1.73-.93.7-1.31,1.11-.79.77-1.22,1.13-.74.88-1.21,1.19-1.15.22-1.65.49-.91.64-1.43.86-1.12.12-1.65.3-.95.67-1.49.81-1.08.27-1.63.36-1.05.66-1.6.73-1.15-.12-1.71-.1-1.14.15-1.69.14-1.08-.78-1.63-.83-1.22.7-1.76.61-.99-.81-1.52-.94-1.12-.14-1.64-.32c-.54-.19-.96-.58-1.45-.82-.52-.25-1.16-.28-1.65-.57s-.75-.95-1.22-1.28-.97-.59-1.41-.96-1.13-.47-1.54-.88-.43-1.16-.79-1.61-.62-.93-.94-1.41-.77-.84-1.04-1.35-.31-1.08-.52-1.62-.59-.98-.74-1.54-.8-1.01-.89-1.59-.29-1.17-.32-1.75.55-1.16.59-1.75-.28-1.19-.19-1.77.86-.98,1.01-1.56-.3-1.27-.11-1.83Z" style="fill: #fff; stroke-width: 0px;"/>
      <path d="m181.56,158.16c.69-.46.45-.29,1.41-.65.44-.16.73-1.19,1.35-1.31.49-.09,1.13.33,1.73.31.51-.02,1.02.36,1.61.42.52.05,1.17-.54,1.74-.4.51.12.95.62,1.5.82.49.18,1.23-.1,1.75.15.48.23.81.83,1.31,1.13s1.1.5,1.53.87.3,1.31.68,1.74,1.41.37,1.72.85.36,1.15.61,1.67.16,1.17.34,1.71.64,1.02.75,1.58-.04,1.17,0,1.74.65,1.17.62,1.73-.36,1.17-.47,1.73-.33,1.14-.53,1.67-.98.78-1.27,1.27-.44,1-.83,1.43-.61.99-1.09,1.32-1.15.12-1.7.35c-.51.21-.82,1.08-1.41,1.19-.78.18-.58.21-1.62.29-.45.03-1.01-.05-1.63-.06-.48,0-1.05.19-1.64.13-.5-.05-1-.5-1.56-.59-.5-.08-1.1.12-1.65,0-.5-.11-.89-.73-1.44-.88-.83-.29-.47-.49-1.37-1.05-.43-.27-1.36.01-1.87-.39-.43-.35-.82-.85-1.25-1.3-.39-.41-.69-.96-1.03-1.46-.32-.47-.4-1.1-.65-1.65-.23-.52-.57-1.01-.71-1.6-.13-.55-.4-1.13-.42-1.74-.02-.56.53-1.1.62-1.72.08-.55.26-1.11.44-1.71.15-.93-.14-.77.16-1.85.14-.53.38-1.08.67-1.71.24-.53-.04-1.44.33-1.98.34-.49,1.18-.64,1.65-1.09.43-.41,1.05-.58,1.6-.93Z" style="fill: #003882; stroke-width: 0px;"/>
    </g>
  </g>
</svg>