<?xml version="1.0" encoding="UTF-8"?>
<svg id="eye" xmlns="http://www.w3.org/2000/svg" viewBox="0 0 300 300">
  <g id="eye_3">
    <g>
      <path d="m124.26,162.58c-.26-.79-.19-.58-.61-1.53-.19-.43-.56-.86-.86-1.41-.24-.45.19-1.35-.13-1.86-.28-.45-.64-.92-.98-1.39-.32-.44-.78-.82-1.15-1.25s-1.02-.56-1.43-.96-.73-.83-1.17-1.19-1.08-.36-1.55-.67-.75-.86-1.25-1.12-1.05-.31-1.58-.51-.9-.79-1.46-.93-1.08-.37-1.64-.45-1.15.61-1.73.59c-.54-.02-1.06-.08-1.64-.04-.54.03-1.19-.72-1.76-.63-.53.08-1.12.18-1.68.31s-1.12.42-1.65.58c-.57.17-.93.91-1.46,1.1-.55.2-1.09.36-1.61.58-.54.24-.97.63-1.46.89s-1.23.18-1.7.49-.72.97-1.16,1.32-1.37.19-1.78.58-.38,1.25-.75,1.68-.6.96-.93,1.42-.82.82-1.1,1.32-.43,1.05-.66,1.57-.17,1.13-.34,1.67-1.01.9-1.14,1.46-.37,1.13-.44,1.7.74,1.21.71,1.78-.87,1.14-.85,1.72.44,1.13.5,1.7.17,1.14.27,1.7.48,1.06.63,1.61.15,1.14.34,1.68,0,1.24.25,1.73,1.07.66,1.39,1.11.43,1.07.82,1.48.78.81,1.21,1.17,1.01.5,1.48.81.73.96,1.23,1.22,1.08.36,1.6.57.95.7,1.48.87,1.18-.02,1.72.12,1.09.24,1.64.33,1.16-.31,1.71-.25,1.07.33,1.63.36,1.1-.09,1.65-.1,1.16.7,1.71.65,1.01-.94,1.55-1.03,1.22.41,1.75.27,1.05-.45,1.57-.63c.54-.19,1.15-.22,1.64-.45.52-.25.91-.77,1.41-1.06s1.23-.26,1.7-.59.9-.77,1.34-1.14.61-1.06,1.02-1.46,1.17-.52,1.54-.96.81-.89,1.13-1.38.46-1.12.73-1.63.7-.99.92-1.53.19-1.19.34-1.75-.27-1.23-.18-1.81,0-1.11.02-1.7.59-1.13.55-1.72-.48-1.09-.58-1.67.45-1.27.3-1.84-.91-.93-1.1-1.49Z" style="fill: #fff; stroke-width: 0px;"/>
      <path d="m113.61,157.52c-.69-.46-.58-.46-1.54-.82-.44-.16-1.21.55-1.83.43-.49-.09-.95-.65-1.55-.67-.51-.02-1.11-.36-1.69-.3-.52.05-.95.83-1.51.96-.51.12-1.12-.07-1.67.13-.49.18-.77.88-1.29,1.13-.48.23-1.12.14-1.62.43s-.83.75-1.27,1.12-1.39.24-1.77.68-.02,1.42-.33,1.9-.81.82-1.06,1.34-.75.94-.94,1.48c-.18.55-.02,1.19-.13,1.75s-.43,1.1-.48,1.67c-.05.58.54,1.14.57,1.71s-.17,1.13-.06,1.69.19,1.11.38,1.65-.1,1.35.19,1.84.83.91,1.21,1.33,1.02.6,1.51.93.78,1.05,1.33,1.27c.51.21,1.3-.34,1.89-.23.78.18.51.09,1.55.17.45.03.95.16,1.57.15.48,0,.98-.26,1.56-.31.5-.05,1.06.28,1.63.19.5-.08.96-.48,1.51-.6.5-.11,1.15.25,1.69.1.83-.29.83-.04,1.73-.61.43-.27.5-1.23,1.01-1.64.43-.35.93-.63,1.36-1.08.39-.41.85-.77,1.2-1.27.32-.47.84-.87,1.09-1.42.23-.52.28-1.15.42-1.74.13-.55.01-1.14.03-1.76.02-.56.5-1.19.41-1.8-.08-.55-.16-1.14-.34-1.74-.15-.93-.23-.75-.53-1.83-.14-.53-.32-1.18-.6-1.81-.24-.53-1.13-.74-1.51-1.28-.34-.49-.3-1.31-.77-1.77-.43-.41-.8-1.03-1.35-1.38Z" style="fill: #003882; stroke-width: 0px;"/>
    </g>
    <g>
      <path d="m173.77,162.43c.26-.79.2-.62.62-1.57.19-.43.32-1.02.61-1.58.24-.45,1.23-.53,1.54-1.03.28-.45.54-.91.88-1.38.32-.44.54-.94.92-1.37s.44-1.09.84-1.48.88-.68,1.32-1.04.66-1,1.13-1.31,1.13-.31,1.63-.57.93-.65,1.46-.86,1.18.06,1.73-.08,1.07-.11,1.63-.19,1.03-.86,1.6-.88c.54-.02,1.13.06,1.71.09.54.03,1,.9,1.57.99.53.08,1.04.19,1.6.33s1.14.14,1.68.29c.57.17,1.29-.22,1.82-.03.55.2,1.08.47,1.59.7.54.24,1.15.35,1.64.62s.8.96,1.27,1.26,1.2.33,1.64.68.42,1.28.83,1.66,1.26.38,1.63.81.86.83,1.19,1.29.46,1.1.74,1.6.64.99.87,1.51.69,1.01.87,1.55-.36,1.3-.24,1.86.07,1.13.15,1.7.98,1.08,1,1.65-.83,1.15-.85,1.73.3,1.16.23,1.73-.15,1.14-.26,1.7,0,1.19-.15,1.74-.49,1.07-.68,1.6-.82.85-1.08,1.33-.03,1.28-.36,1.73-.93.7-1.31,1.11-.79.77-1.22,1.13-.74.88-1.21,1.19-1.15.22-1.65.49-.91.64-1.43.86-1.12.12-1.65.3-.95.67-1.49.81-1.08.27-1.63.36-1.05.66-1.6.73-1.15-.12-1.71-.1-1.14.15-1.69.14-1.08-.78-1.63-.83-1.22.7-1.76.61-.99-.81-1.52-.94-1.12-.14-1.64-.32c-.54-.19-.96-.58-1.45-.82-.52-.25-1.16-.28-1.65-.57s-.75-.95-1.22-1.28-.97-.59-1.41-.96-1.13-.47-1.54-.88-.43-1.16-.79-1.61-.62-.93-.94-1.41-.77-.84-1.04-1.35-.31-1.08-.52-1.62-.59-.98-.74-1.54-.8-1.01-.89-1.59-.29-1.17-.32-1.75.55-1.16.59-1.75-.28-1.19-.19-1.77.86-.98,1.01-1.56-.3-1.27-.11-1.83Z" style="fill: #fff; stroke-width: 0px;"/>
      <path d="m185.28,158.16c.69-.46.45-.29,1.41-.65.44-.16.73-1.19,1.35-1.31.49-.09,1.13.33,1.73.31.51-.02,1.02.36,1.61.42.52.05,1.17-.54,1.74-.4.51.12.95.62,1.5.82.49.18,1.23-.1,1.75.15.48.23.81.83,1.31,1.13s1.1.5,1.53.87.3,1.31.68,1.74,1.41.37,1.72.85.36,1.15.61,1.67.16,1.17.34,1.71.64,1.02.75,1.58-.04,1.17,0,1.74.65,1.17.62,1.73-.36,1.17-.47,1.73-.33,1.14-.53,1.67-.98.78-1.27,1.27-.44,1-.83,1.43-.61.99-1.09,1.32-1.15.12-1.7.35c-.51.21-.82,1.08-1.41,1.19-.78.18-.58.21-1.62.29-.45.03-1.01-.05-1.63-.06-.48,0-1.05.19-1.64.13-.5-.05-1-.5-1.56-.59-.5-.08-1.1.12-1.65,0-.5-.11-.89-.73-1.44-.88-.83-.29-.47-.49-1.37-1.05-.43-.27-1.36.01-1.87-.39-.43-.35-.82-.85-1.25-1.3-.39-.41-.69-.96-1.03-1.46-.32-.47-.4-1.1-.65-1.65-.23-.52-.57-1.01-.71-1.6-.13-.55-.4-1.13-.42-1.74-.02-.56.53-1.1.62-1.72.08-.55.26-1.11.44-1.71.15-.93-.14-.77.16-1.85.14-.53.38-1.08.67-1.71.24-.53-.04-1.44.33-1.98.34-.49,1.18-.64,1.65-1.09.43-.41,1.05-.58,1.6-.93Z" style="fill: #003882; stroke-width: 0px;"/>
    </g>
  </g>
</svg>