<?xml version="1.0" encoding="UTF-8"?>
<svg xmlns:xlink="http://www.w3.org/1999/xlink" id="eye" xmlns="http://www.w3.org/2000/svg" viewBox="0 0 300 300">
    <defs>
        <linearGradient id="linearGradient_cry_a" data-name="未命名漸層 12" x1="109.51" y1="154.58" x2="90.49" y2="249.88"
                        gradientUnits="userSpaceOnUse">
            <stop offset="0" stop-color="#bad7f7"/>
            <stop offset="1" stop-color="#bed9f7" stop-opacity="0"/>
        </linearGradient>
        <linearGradient id="linearGradient_cry_b" data-name="未命名漸層 15" x1="198.83" y1="161.88" x2="209.44" y2="242.96"
                        gradientUnits="userSpaceOnUse">
            <stop offset="0" stop-color="#bad7f7"/>
            <stop offset="1" stop-color="#bed9f7" stop-opacity="0"/>
        </linearGradient>
    </defs>
    <path d="m72.88,246c.57-2.99,1.64-4.8,2.75-6.65s2.24-3.7,2.81-6.7c.21-1.07.12-3.31-.14-5.5s-.36-4.25.13-5.26c.82-1.68,1.49-3.53,2.53-5.12s1.9-3.23,2.04-5.13c.16-2.2-.15-4.33.22-6.5.26-1.5.59-3.03,1.42-4.34,1.7-2.66,3.57-5.21,5.27-7.87,1.27-1.99.52-5.48.72-7.78.12-1.44-.11-2.89-.03-4.33.11-2.1,1.62-3.73,2.85-5.44,1.34-1.84,2.68-3.89,1.79-6-.49-1.17-1.6-2.08-1.96-3.29-.85-2.87,1.49-5.43,3.78-7.53,3.69-1.05,3.79-.51,7.61-.87s3.85-.1,7.67-.46,3.79-1.39,7.54-.56c-1.21,2.14-2.12,4.01-3.32,6.16-.95,1.69-1.88,3.66-.44,5.03.62.59,1.15,1.33,1.87,1.81,2.06,1.4,2.52,4.15,1.58,6.35s-2.4,4.13-2.5,6.49c-.14,3.21,1.56,6.04,2.23,9.19.48,2.27-.36,3.89-1.5,5.78s-2.17,3.76-2.5,5.93c-.25,1.66.51,3.72.81,5.74s.04,4.05-.92,5.55c-1.2,1.87-3.24,3.5-3.36,5.67-.06,1.09.46,7.14.71,8.21,1.07,4.6-2.38,4.01-2.95,8.69-.22,1.82.3,3.73.34,5.59s-.46,4.13-1.54,5.74c-3.52.51-3.57-.96-7.12-1.18s-3.55-.12-7.09-.33-3.59.48-7.14.26-3.55-1.45-7.1-1.22-3.9,1.54-7.04-.11Z"
          style="fill: url(#linearGradient_cry_a); stroke-width: 0px;"/>
    <path d="m183.8,156.3c1.91.99,2.31,4.02,2.46,4.54.13.44.15.81-.05,1.23-1.02,2.09-2.23,4.17-2.17,6.47.09,3.09,2.3,5.77,2.02,8.85-.13,1.4-.55,2.68-1.13,3.97-.85,1.89-.84,3.97-1.01,6.01s-.52,4.1,0,6.1c.6,2.27,4.56,6.43,4.68,8.76.05,1.02-.97,3.42-1.61,5.79s-1.63,4.71-1.66,5.74c-.05,1.96,1.74,4.02,3.47,5.88s3.41,3.48,3.94,5.3c.7,2.4,1.24,4.44,1.08,6.36-.19,2.28-.85,4.34-1.4,6.35s-1.06,4.06-.99,6.31c.06,1.87.26,4.29,1.42,6.59,3.67.87,3.87-.1,7.64-.22s3.75-.73,7.52-.85,3.79.51,7.56.39,3.74-.92,7.52-1.04,3.9,1.15,7.38-.3c-.66-2.61-2.06-3.68-3.4-5.3s-2.75-3.43-3.44-5.98c-.95-3.51,2.16-5.86.68-9.21-1.43-3.24-4.96-2.79-5.88-6.19-.45-1.65.53-3.1,1.56-4.81s1.82-3.57,1.55-5.22c-.32-1.99-6.95-4.79-7.39-6.76-.37-1.67.45-3.81,1.25-6.16s1.14-4.89.37-6.49c-.76-1.58-2.59-3.1-4.42-4.67s-3.39-3.33-4.17-4.9c-1.24-2.49-.2-4.09.59-5.83.84-1.86,1.29-3.82-.7-6.09-.78-.89-2.2-1.26-2.92-2.19-1.36-1.75-1-3.62-.35-5.69s.16-4.58,1.44-6.37c-3.41-1.05-3.57.43-7.13.43s-3.55-.39-7.1-.73-3.73-.72-7.24-.05Z"
          style="fill: url(#linearGradient_cry_b); stroke-width: 0px;"/>

    <path d="m84.93,160.81c7.53.66,15.42-1.9,22.96-2.28,7.14-.36,13.94-1.22,21.13-1.63,2.88-.17,2.9-4.67,0-4.5-7.17.41-14.03,1.27-21.13,1.63-4.04.2-7.99,1.18-11.95,1.37-3.53.17-7.48,1.22-11.01.91-2.88-.25-2.87,4.25,0,4.5h0Z"
          style="fill: #003882; stroke-width: 0px;"/>
    <path d="m174.99,157.75c2.55.84,4.81.37,7.42.42,3.25.06,6.57.06,9.83.08,7.84.05,15.83-.41,23.64.29,2.88.26,2.87-4.24,0-4.5-7.41-.67-14.84.09-22.26-.3-1.31-.07-2.49-.11-3.77-.05-2.25.1-4.38-.24-6.59-.25s-4.99.66-7.07-.03c-2.76-.91-3.94,3.44-1.2,4.34h0Z"
          style="fill: #003882; stroke-width: 0px;"/>
    <path d="m96.12,157.55c-2.05,1.9-4.77,4.25-4.97,7.28-.1,1.56.42,1.71.78,2.98.12.43.77.65.94,1.04,1.55,3.5.56,4.35-.97,6.55-2.38,3.4-2.48,5.69-2.47,9.76,0,2.66.24,5.43-.98,7.84-1.05,2.06-2.92,3.84-4.24,5.72-2.2,3.15-3.1,5.39-2.91,9.17.21,4.17-.39,6.01-2.54,9.26-.81,1.23-1.98,2.61-2.39,4.04-1.19,4.15,1.7,8.54.34,12.76s-4.52,7.3-5.63,11.66c-.46,1.8,2.33,2.57,2.78.77.98-3.88,3.48-6.67,5.05-10.24s.72-6.47.48-10.18c-.38-5.83,3.25-7.47,4.88-12.39.44-1.33.37-2.38.29-3.76-.19-3.66-.02-6.56,2.13-9.63,2.03-2.91,4.95-5.53,5.53-9.14.63-3.92-.97-8.57.81-12.29,1.44-3.02,4.59-5.19,3.68-8.94-.28-1.16-.98-1.64-1.45-2.62-1.66-3.46.44-5.33,2.87-7.59,1.37-1.27-.68-3.3-2.04-2.04h0Z"
          style="fill: #003882; stroke-width: 0px;"/>
    <path d="m118.67,155.51c-1.66,3.06-5.75,8.08-5.01,11.86.16.81.59,1.45,1.13,2.07.42.49,1.23.46,1.7.85,2.53,2.08,2.16,4.32.79,6.92-1.63,3.09-2.86,5.15-1.48,8.64,1.56,3.92,3.49,6.42,1.01,11.06-.88,1.64-2.21,3.02-2.82,4.81-1.62,4.8,1.89,9.35-1.22,13.9-2,2.92-2.24,4.8-1.84,8.22.45,3.86.93,6.14-1.33,9.6-2.72,4.16-.63,9.61-2.87,13.84-.87,1.64,1.62,3.1,2.49,1.46,2.37-4.47.26-10.05,3.21-14.25,1.68-2.4,2.33-3.37,2.01-6.42-.44-4.22-1.64-7.19.84-10.98,2.69-4.12,1.54-6.4,1.34-11.09-.22-5.21,4.45-7.91,4.96-12.83.19-1.83-.5-3.39-1.27-4.98-1.83-3.79-2.11-6.48-.14-10.14,1.41-2.62,2.09-5.96.12-8.54-1.12-1.46-1.78-1.26-2.46-3.2-.78-2.24-.28-2.48.76-4.43.86-1.63,1.7-3.28,2.58-4.9s-1.61-3.09-2.49-1.46h0Z"
          style="fill: #003882; stroke-width: 0px;"/>
    <path d="m183.03,158.15c3.7,2.6-.42,7.24-.02,11.13.2,1.93,1.37,3.65,1.58,5.53.33,2.89-1.06,4.96-1.69,7.55-.73,3.02-1.18,7.7-.61,10.77.72,3.92,4.23,6.7,4.1,10.85-.12,3.77-2.41,7.59-1.71,11.37s3.76,5.48,5.8,8.34c3.8,5.33.23,11.01-.73,16.6-.67,3.91.12,7.18,1.73,10.72.77,1.69,3.26.22,2.49-1.46-3.15-6.93.22-11.18,1.05-17.89.4-3.23-.09-6.95-2.07-9.59-1.19-1.58-2.89-2.7-3.98-4.38-2.14-3.32-1.09-5.67-.3-9.22.67-3.03,1.03-6.06-.19-8.97-.69-1.66-1.84-3.1-2.57-4.73-1.22-2.74-.69-5.29-.49-8.17.29-4.12,2.99-7.66,2.13-11.82-.67-3.26-2.25-5.74-1.33-9.2.42-1.58,1.85-3.05,1.96-4.69.15-2.11-2.18-4.16-3.69-5.22s-2.97,1.43-1.46,2.49h0Z"
          style="fill: #003882; stroke-width: 0px;"/>
    <path d="m204.26,156.12c-2.36,3.94-3.94,8.17-1.23,12.24.54.81,1.26,1.51,1.79,2.32,2.96,4.51,2.11,3.86,1.04,6.93-.6,1.73-.83,3.13-.28,4.89.61,1.95,1.98,3.67,3.38,5.14,1.05,1.1,3.15,2.25,3.98,3.49,2.22,3.31,1.38,6.51.07,9.79-1.15,2.88-1.69,4.79.79,6.9,1.32,1.13,3,1.84,4.44,2.79,3.19,2.11.4,4.03-.86,6.64s-1.69,5.62.78,7.75c2.73,2.35,6.38,2.88,5.3,7.67-.43,1.92-1.42,3.9-1.27,5.92.32,4.35,5.36,5.83,6.74,9.86.6,1.75,3.39,1,2.78-.77-1.53-4.45-6.85-6.66-6.25-11.6.42-3.5,2.39-6.56-.11-9.87-.98-1.3-2.32-1.54-3.57-2.45-3.64-2.63-1.16-5.72.42-8.82,1.24-2.43,1-4.15-1.09-5.86-1.3-1.06-2.87-1.77-4.28-2.68-3.19-2.07-.92-4.24-.02-7.13,1.42-4.53,1.06-7.56-2.5-10.73-1.1-.98-2.32-1.85-3.33-2.93-2.47-2.64-2.74-4.7-2.03-7.91.32-1.46,1.04-2.56.82-4.14-.21-1.46-.93-2.4-1.78-3.56-1.65-2.25-3.68-3.66-3.56-6.82.07-1.9,1.36-4.02,2.3-5.59s-1.54-3.05-2.49-1.46h0Z"
          style="fill: #003882; stroke-width: 0px;"/>
</svg>