<?xml version="1.0" encoding="UTF-8"?>
<svg id="eye" xmlns="http://www.w3.org/2000/svg" viewBox="0 0 300 300">
    <g id="eye_15">
        <path d="m118.88,173.02c.67-.31,1.19-.83,1.74-1.23.6-.43,1.37-.64,1.84-1.14.5-.54.62-1.34.96-1.94.36-.63.74-1.22.92-1.9s.4-1.39.39-2.1-.33-1.37-.53-2.07-.42-1.32-.79-1.95c-.35-.59-.68-1.22-1.19-1.76s-1-1.13-1.63-1.65c-.56-.47-1.36-.68-2.04-1.12-.61-.4-1.13-1.03-1.86-1.39-.66-.33-1.39-.59-2.14-.88-.69-.26-1.39-.61-2.17-.83-.71-.2-1.47-.42-2.25-.57-.73-.14-1.54.08-2.34-.02-.74-.09-1.47-.54-2.27-.59-.74-.04-1.53.35-2.33.34-.75,0-1.53-.4-2.32-.36-.75.03-1.53.09-2.32.16s-1.55.25-2.28.35c-.79.12-1.49.51-2.21.67-.78.17-1.57.16-2.27.37-.77.24-1.47.56-2.14.85-.74.32-1.48.56-2.11.93-.7.41-1.37.81-1.94,1.27-.62.51-1.04,1.19-1.51,1.75-.51.61-1.01,1.2-1.35,1.86-.36.7-.39,1.49-.55,2.22s-.28,1.48-.26,2.23-.06,1.54.14,2.28.54,1.43.9,2.11.78,1.3,1.27,1.91,1.11,1.01,1.71,1.51,1.05,1.13,1.73,1.52,1.42.53,2.16.8,1.43.45,2.2.59c.72.14,1.48.2,2.25.3s1.48.25,2.24.32,1.49.29,2.26.33,1.52-.16,2.28-.16,1.51.04,2.27.02,1.53.18,2.29.12,1.49-.43,2.24-.52,1.49-.28,2.24-.4,1.57.11,2.3-.05,1.46-.51,2.17-.71,1.52-.31,2.21-.56c.73-.26,1.41-.63,2.08-.94Z"
              style="fill: #fff; stroke-width: 0px;"/>
        <path d="m98.54,152.16c-1.01.38-.73.46-1.74,1.33-.47.4-.95.96-1.51,1.56-.45.49-.84,1.11-1.29,1.73-.4.55-.86,1.11-1.23,1.77-.34.61-.64,1.26-.92,1.96-.26.65-.58,1.3-.77,2.03-.18.67-.24,1.4-.34,2.14-.09.69-.08,1.41-.1,2.16-.01.7-.02,1.41.04,2.16.06.69.04,1.42.17,2.16.13.69.23,1.41.43,2.14.18.67.43,1.41.68,2.12.84.73.89.02,2.26.28.62.12,1.34.34,2.18.45.68.1,1.42.2,2.21.28.7.07,1.44.22,2.21.26.72.04,1.47.1,2.23.1s1.47-.15,2.23-.19,1.46-.19,2.21-.28,1.47-.16,2.2-.3c.73-.14,1.45-.27,2.18-.47s1.48-.27,2.18-.52,1.35-.62,2.03-.95c.37-.34.64-1.04.88-1.97.17-.62.29-1.33.38-2.15.07-.68.23-1.4.23-2.18,0-.7-.09-1.43-.15-2.19-.06-.71-.26-1.42-.38-2.16s-.21-1.43-.39-2.15-.39-1.4-.63-2.09-.53-1.35-.84-2.01-.57-1.34-.95-1.97-.74-1.29-1.2-1.86c-1.04-.62-.94-.22-2.39-.5-.69-.13-1.53-.13-2.41-.26-.76-.11-1.55-.29-2.39-.38-.79-.08-1.6-.12-2.42-.15s-1.63-.25-2.43-.21-1.67.17-2.44.3Z"
              style="fill: #003882; stroke-width: 0px;"/>
        <path d="m181.19,172.88c-.67-.31-1.29-.64-1.85-1.03-.6-.43-1.16-.86-1.63-1.36-.5-.54-.77-1.19-1.11-1.79-.36-.63-.79-1.2-.97-1.87s-.45-1.4-.44-2.11.49-1.35.69-2.04.14-1.46.52-2.09c.35-.59,1.02-.98,1.53-1.52s.98-1.12,1.61-1.64c.56-.47,1.12-1,1.81-1.44.61-.4,1.29-.77,2.01-1.13.66-.33,1.42-.5,2.17-.79.69-.26,1.39-.57,2.16-.79.71-.2,1.45-.43,2.23-.59.73-.14,1.48-.3,2.28-.4.74-.09,1.5-.2,2.3-.25.74-.04,1.52-.03,2.32-.03.75,0,1.52,0,2.32.04.75.03,1.51.15,2.31.22s1.56.09,2.29.2c.79.12,1.57.14,2.29.3.78.17,1.5.48,2.2.7.77.24,1.42.67,2.09.96.74.32,1.5.49,2.13.85.7.41,1.42.73,1.99,1.19.62.51,1.08,1.17,1.55,1.73.51.61.99,1.24,1.32,1.89.36.7.72,1.43.88,2.15s.18,1.57.16,2.32-.47,1.46-.68,2.2-.37,1.45-.73,2.13-.64,1.39-1.13,1.99-.92,1.25-1.52,1.75-1.25.9-1.93,1.29-1.45.49-2.18.76-1.39.67-2.16.82c-.72.14-1.51.07-2.28.18s-1.5.09-2.26.16-1.5.09-2.26.13-1.5.05-2.27.06-1.51-.05-2.27-.08-1.54.33-2.29.28-1.52-.19-2.27-.28-1.47-.51-2.21-.63-1.51-.21-2.24-.36-1.51-.23-2.23-.43-1.53-.26-2.23-.51c-.73-.26-1.34-.8-2-1.11Z"
              style="fill: #fff; stroke-width: 0px;"/>
        <path d="m201.39,152.35c1.01.38.85.21,1.86,1.08.47.4.92,1,1.48,1.6.45.49.82,1.12,1.28,1.75.4.55.99,1.04,1.36,1.7.34.61.43,1.36.71,2.06.26.65.6,1.29.79,2.01.18.67.23,1.4.33,2.14.09.69.23,1.4.24,2.15.01.7.13,1.43.07,2.18-.06.69-.37,1.38-.5,2.12-.13.69-.17,1.41-.36,2.14-.18.67-.5,1.27-.75,1.98-.84.73-.72.31-2.09.57-.62.12-1.35.33-2.19.45-.68.1-1.42.21-2.21.29-.7.07-1.45.1-2.23.14-.72.04-1.47-.11-2.23-.11s-1.47-.03-2.22-.07-1.47-.06-2.22-.15-1.47-.2-2.2-.33c-.73-.14-1.43-.37-2.15-.57s-1.48-.24-2.18-.5-1.3-.69-1.97-1.02c-.37-.34-.81-.9-1.06-1.83-.17-.62-.24-1.36-.32-2.17-.07-.68-.18-1.41-.19-2.18,0-.7.16-1.43.22-2.18.06-.71.14-1.43.26-2.17s.11-1.46.29-2.18.59-1.34.83-2.04.37-1.42.68-2.08.7-1.28,1.08-1.9.76-1.24,1.22-1.82c1.04-.62.93-.2,2.37-.48.69-.13,1.48-.39,2.37-.53.76-.11,1.57-.2,2.41-.28.79-.08,1.61-.05,2.43-.08s1.63-.07,2.43-.04,1.6.22,2.37.35Z"
              style="fill: #003882; stroke-width: 0px;"/>
        <path d="m120.89,171.97c-.32-1.33.14-1.08-2.35.18-.48.24-1.21.51-2.09,1.01-.59.33-1.3.63-2.11.99-.65.29-1.38.52-2.18.79-.68.23-1.38.6-2.19.8-.71.17-1.48.25-2.29.38-.73.12-1.48.33-2.3.4-.74.06-1.52-.03-2.33-.01-.74.01-1.52,0-2.33-.04-.75-.03-1.54.19-2.34.12-.75-.07-1.52-.23-2.31-.34-.75-.1-1.53-.17-2.32-.31-.74-.13-1.52-.25-2.3-.42-.74-.16-1.45-.54-2.23-.73-1.16-.47-1.01-.59-2.01-1.45-.63-.54-1.27-1.16-1.57-1.89-.82-1.33-1.4-2.04-2.29.05-.26.62-.16,1.21.22,1.77.34.51.85.96,1.34,1.34.81.63,2.1.23,1.76,1.12-.47,1.24-1.27.7-2.23,1.58-.76.69-1.56,1.42-1.36,2.15.24.88.81.88,1.41.7.53-.16,1.2-.37,1.72-.63.62-.31.85-1.16,1.42-1.63.45-.37,1.09-.44,2.06-.32.85.21.64.15-.36,1.37-.44.54-.95,1.26-1.25,1.9-.38.81-.36,1.57.63,1.82.78.2,1.48-.08,1.98-.54.63-.58,1.05-1.39,1.3-1.63s.4-1.05.81-1.57c.35-.45.88-.83,1.59-.58.79.28.14,1.22-.27,2.15s-.57,1.84.24,2.2,1.43.07,1.97-.37c.62-.51.95-1.25,1.01-1.79.11-1,1.01-1.86,2.01-1.75.25.03.99.38,2.09.43.61.03,1.33-.03,2.12-.03.66,0,1.37-.1,2.11-.14.67-.04,1.38-.07,2.1-.15s1.37-.27,2.08-.39,1.39-.2,2.08-.38,1.36-.38,2.02-.62,1.28-.59,1.9-.91c.82-.42,1.57-.71,2.15-1.06.87-.54,1.49-1.02,1.93-1.42,1.54-1.4,1.25-.93.97-2.09Z"
              style="fill: #003882; stroke-width: 0px;"/>
        <path d="m178.17,171.78c.32-1.33-.41-1.18,2.09.07.48.24,1.2.53,2.09,1.03.59.33,1.26.73,2.06,1.09.65.29,1.33.68,2.13.96.68.23,1.43.5,2.24.7.71.17,1.51.17,2.32.3.73.12,1.5.21,2.31.28.74.06,1.51.26,2.32.28.74.01,1.53-.08,2.34-.11.75-.03,1.52-.08,2.33-.15.75-.07,1.52-.21,2.31-.31.75-.1,1.51-.27,2.3-.41.74-.13,1.53-.16,2.32-.33.74-.16,1.54-.27,2.32-.47,1.16-.47.93-.79,1.93-1.65.63-.54,1.24-1.17,1.54-1.9.82-1.33,1.67-2.12,2.56-.03.26.62-.06,1.31-.44,1.88-.34.51-.76,1.08-1.25,1.46-.81.63-2.19.09-1.86.99.47,1.24,1.29.67,2.26,1.54.76.69,1.59,1.47,1.38,2.2-.24.88-.88.88-1.48.7-.53-.16-1.22-.33-1.74-.59-.62-.31-.81-1.23-1.39-1.7-.45-.37-1.1-.45-2.07-.32-.85.21-.61.15.39,1.37.44.54.85,1.31,1.15,1.95.38.81.43,1.51-.56,1.76-.78.2-1.49-.04-1.99-.5-.63-.58-.96-1.48-1.21-1.73s-.46-.98-.88-1.51c-.35-.45-.84-.63-1.55-.38-.79.28-.45,1.14-.04,2.07s.85,1.82.04,2.17-1.47-.02-2.01-.46c-.62-.51-1.11-1.24-1.17-1.77-.11-1-.84-1.76-1.84-1.65-.25.03-1.01.07-2.11.12-.61.03-1.32-.09-2.11-.1-.66,0-1.37.28-2.12.24-.67-.04-1.36-.33-2.08-.41s-1.41,0-2.12-.12-1.37-.32-2.06-.5-1.37-.37-2.03-.61-1.35-.48-1.97-.8c-.82-.42-1.51-.82-2.09-1.18-.87-.54-1.52-1-1.96-1.4-1.54-1.4-.92-.92-.63-2.08Z"
              style="fill: #003882; stroke-width: 0px;"/>
    </g>
</svg>