<?xml version="1.0" encoding="UTF-8"?><svg id="blush" xmlns="http://www.w3.org/2000/svg" viewBox="0 0 300 300"><defs><style>.cls-1{fill:#d1848a;}</style></defs><g id="blush_4"><path class="cls-1" d="m88.9,191.02c-1.19-.62-2.71-.26-3.33.93-.64,1.21-.56,1.25-1.19,2.47s-.59,1.24-1.23,2.45c-.64,1.21-.83,1.11-1.47,2.33s-.55,1.26-1.18,2.48-.54,1.27-1.18,2.48c-.64,1.22-.66,1.21-1.29,2.42-.62,1.19-.18,2.64,1.01,3.26,1.19.62,2.71.21,3.34-.98.64-1.21.45-1.31,1.09-2.52s.63-1.22,1.27-2.43.68-1.19,1.32-2.4.72-1.17,1.36-2.39.64-1.22,1.28-2.43.49-1.3,1.12-2.51c.62-1.19.28-2.53-.91-3.15Z"/><path class="cls-1" d="m99.65,191.03c-1.19-.62-2.52-.17-3.15,1.02-.64,1.21-.6,1.23-1.24,2.44-.64,1.21-.65,1.21-1.29,2.42s-.64,1.21-1.28,2.43-.88,1.08-1.52,2.3-.63,1.22-1.26,2.44c-.64,1.22-.59,1.24-1.23,2.46-.62,1.19-.14,2.78,1.05,3.41,1.19.62,2.87.17,3.49-1.02.64-1.21.44-1.32,1.07-2.53.64-1.21.78-1.14,1.42-2.35s.56-1.25,1.2-2.47.72-1.17,1.36-2.38.48-1.3,1.12-2.52.67-1.2,1.3-2.42c.62-1.19.14-2.59-1.05-3.22Z"/><path class="cls-1" d="m110.51,190.82c-1.19-.62-2.63.03-3.26,1.22-.64,1.21-.89,1.08-1.53,2.29s-.42,1.33-1.05,2.54-.75,1.15-1.39,2.37-.63,1.22-1.27,2.43-.69,1.19-1.33,2.4-.68,1.19-1.32,2.41c-.62,1.19-.03,2.77,1.16,3.39l.04-.07c1.19.62,2.58.17,3.2-1.02.64-1.21.68-1.19,1.32-2.4s.6-1.23,1.24-2.45c.64-1.21.64-1.21,1.28-2.42s.74-1.16,1.38-2.37.59-1.24,1.23-2.46.57-1.25,1.2-2.47c.62-1.19.3-2.77-.89-3.39Z"/><path class="cls-1" d="m196.36,190.87l-.07.14c-1.19-.62-2.52-.14-3.15,1.05-.64,1.21-.71,1.17-1.34,2.39s-.79,1.14-1.42,2.35c-.64,1.21-.59,1.24-1.22,2.45s-.49,1.29-1.12,2.51-.75,1.16-1.39,2.37c-.64,1.22-.77,1.15-1.41,2.36-.62,1.19.05,2.62,1.24,3.24,1.19.62,2.64.31,3.27-.88.64-1.21.59-1.24,1.22-2.45s.49-1.29,1.12-2.51c.64-1.21.95-1.05,1.59-2.26.64-1.21.55-1.26,1.18-2.48s.6-1.24,1.24-2.45c.64-1.22.62-1.22,1.26-2.44.62-1.19.19-2.77-1-3.39Z"/><path class="cls-1" d="m207.11,190.87c-1.19-.62-2.85-.14-3.47,1.05-.64,1.21-.38,1.35-1.01,2.56-.64,1.21-.8,1.13-1.43,2.34-.64,1.21-.73,1.16-1.37,2.38s-.48,1.3-1.11,2.51-.7,1.18-1.34,2.4-.49,1.29-1.13,2.51c-.62,1.19-.29,2.64.9,3.26,1.19.62,2.82.2,3.45-.99.64-1.21.41-1.33,1.04-2.55s.89-1.08,1.53-2.29.55-1.26,1.18-2.48.65-1.21,1.29-2.42.47-1.31,1.11-2.52.61-1.23,1.24-2.45c.62-1.19.32-2.7-.87-3.32Z"/><path class="cls-1" d="m217.74,191.1c-1.19-.62-2.67-.34-3.3.85-.64,1.21-.56,1.25-1.2,2.46s-.72,1.17-1.35,2.39c-.64,1.21-.42,1.33-1.06,2.54s-.85,1.1-1.49,2.32-.72,1.17-1.35,2.39-.62,1.23-1.26,2.44c-.62,1.19-.07,2.84,1.12,3.47,1.19.62,2.88.14,3.5-1.04.64-1.21.31-1.38.95-2.59.64-1.21.68-1.19,1.31-2.41.64-1.21.73-1.16,1.37-2.38s.8-1.13,1.43-2.35.66-1.21,1.29-2.42.33-1.38.97-2.6c.62-1.19.24-2.45-.94-3.07Z"/></g></svg>