<?xml version="1.0" encoding="UTF-8"?><svg id="blush" xmlns="http://www.w3.org/2000/svg" viewBox="0 0 300 300"><defs><style>.cls-1{fill:#d1848a;}</style></defs><g id="blush_2"><path class="cls-1" d="m99.09,202.45c0,1.61-.2,3.2-.95,4.5s-1.95,2.52-3.29,3.29-2.89,1.31-4.5,1.31-2.96-.97-4.26-1.72-2.37-1.76-3.14-3.1-1.24-2.66-1.24-4.27.16-3.16.92-4.46,1.96-2.42,3.3-3.2,2.81-1.45,4.42-1.45,3.14.67,4.44,1.42,2.58,1.84,3.36,3.18.95,2.89.95,4.5Z"/><path class="cls-1" d="m217.1,200.57c0,1.4.06,2.82-.59,3.95s-1.76,2.15-2.93,2.83-2.51.97-3.91.97-2.67-.52-3.8-1.17-2.19-1.56-2.87-2.73-1.15-2.44-1.15-3.85.67-2.61,1.32-3.75,1.59-2.04,2.76-2.72,2.33-1.11,3.73-1.11,2.64.38,3.77,1.04,2.45,1.38,3.13,2.55.53,2.58.53,3.98Z"/></g></svg>