<?xml version="1.0" encoding="UTF-8"?><svg id="blush" xmlns="http://www.w3.org/2000/svg" viewBox="0 0 300 300"><defs><style>.cls-1{fill:#d1848a;}</style></defs><g id="blush_1"><path class="cls-1" d="m101.62,202.45c0,.96.02,1.87-.19,2.77s-.5,1.8-.9,2.64-.69,1.81-1.27,2.53-1.53,1.12-2.26,1.7-1.44,1.17-2.28,1.58-1.71.71-2.63.92-1.81.34-2.77.34-1.93.11-2.83-.09-1.69-.87-2.52-1.27-1.72-.75-2.45-1.33c-.73-.58-1.48-1.19-2.06-1.92s-.94-1.62-1.35-2.47-.89-1.67-1.1-2.59-.41-1.85-.41-2.81.22-1.91.42-2.81.81-1.7,1.21-2.53c.41-.85.9-1.59,1.48-2.32s1.12-1.48,1.85-2.06,1.59-.91,2.44-1.32,1.56-1.17,2.48-1.38,1.88-.31,2.83-.31,1.93.15,2.83.35,1.86.53,2.69.93,1.47,1.2,2.19,1.79,1.6,1.04,2.19,1.77.82,1.69,1.23,2.53.82,1.66,1.03,2.58.15,1.82.15,2.77Z"/><path class="cls-1" d="m224.6,200.57c0,.96-.18,1.9-.38,2.8s-.66,1.76-1.06,2.59-.89,1.63-1.47,2.36-1.3,1.31-2.03,1.89-1.33,1.39-2.18,1.79-1.8.54-2.72.75-1.82.39-2.78.39-1.93,0-2.82-.21-1.67-.91-2.5-1.31-1.75-.69-2.48-1.27-1.2-1.41-1.78-2.14-1.16-1.42-1.57-2.27-.9-1.65-1.11-2.57-.01-1.84-.01-2.8-.29-1.93-.08-2.82c.21-.92.53-1.85.93-2.68s.96-1.65,1.54-2.38,1.41-1.25,2.14-1.83,1.58-.93,2.42-1.34,1.63-.88,2.55-1.09,1.82-.55,2.77-.55,1.93.13,2.82.34,1.74.75,2.57,1.16,1.56.98,2.29,1.56,1.32,1.26,1.91,1.99,1.44,1.29,1.85,2.14.58,1.79.79,2.72.39,1.84.39,2.79Z"/></g></svg>