<?xml version="1.0" encoding="UTF-8"?><svg id="blush" xmlns="http://www.w3.org/2000/svg" viewBox="0 0 300 300"><defs><style>.cls-1{fill:#d1848a;}</style></defs><g id="blush_5"><path class="cls-1" d="m131.45,183.93s0-.02,0-.02c-.82,0-1.58-.26-2.12-.79s-.83-1.3-.83-2.12c0,0,.02,0,.02,0,0-.82.3-1.55.83-2.09s1.28-.85,2.09-.85c0,0,0-.08,0-.08.82,0,1.54.41,2.07.95s.89,1.26.89,2.07c0,0,.04,0,.04,0,0,.82-.4,1.52-.94,2.05s-1.24.87-2.05.87Z"/><path class="cls-1" d="m117.41,186.1v.07c-1.2,0-2.14-1.01-2.14-2.21,0,0-.03,0-.03,0,0-1.2.98-2.21,2.17-2.21h0c1.2.01,2.16,1.01,2.16,2.21,0,0,.02,0,.02,0,0,1.2-.99,2.13-2.19,2.13Z"/><path class="cls-1" d="m104.02,187.56v.07c-.82,0-1.52-.39-2.05-.93s-.9-1.24-.9-2.05h-.05c0-.82.41-1.53.95-2.06s1.25-.92,2.06-.92h0c.82.01,1.53.38,2.06.92s.91,1.25.91,2.06h-.05c0,.82-.31,1.54-.85,2.08s-1.27.83-2.08.83Z"/><path class="cls-1" d="m82.17,187.6v-.02c-.82,0-1.58-.28-2.12-.82s-.81-1.3-.81-2.12h0c0-.82.25-1.59.79-2.12s1.31-.82,2.12-.82v-.02c.82,0,1.53.36,2.07.9s.94,1.25.94,2.07h-.06c0,.82-.36,1.52-.89,2.06s-1.24.89-2.06.89Z"/><path class="cls-1" d="m93.09,181.02v-.07c-.82,0-1.6-.24-2.14-.78s-.84-1.32-.84-2.14c0,0-.03,0-.03,0,0-.82.37-1.57.91-2.1s1.29-.9,2.1-.9h0c.82,0,1.55.38,2.09.92s.89,1.27.89,2.09c0,0-.04,0-.04,0,0,.82-.31,1.55-.85,2.09s-1.27.9-2.09.9Z"/><path class="cls-1" d="m96.06,193.69h0c-1.1,0-1.97-.87-1.97-1.97h0c0-1.1.88-1.98,1.97-1.98v-.04c1.1,0,2.01.92,2.01,2.01h-.03c0,1.1-.88,1.97-1.98,1.97Z"/><path class="cls-1" d="m122.56,193.7s0,.06,0,.06c-1.1,0-2-.94-2-2.03h-.02c0-1.1.93-1.99,2.02-1.99,0,0,0-.03,0-.03,1.1,0,1.98.93,1.98,2.02h.01c0,1.1-.9,1.98-2,1.98Z"/><path class="cls-1" d="m109.95,197.66s0,.02,0,.02c-.82,0-1.56-.36-2.1-.89s-.82-1.29-.82-2.1c0,0-.07,0-.07,0,0-.82.32-1.59.86-2.13s1.32-.87,2.13-.87c0,0,0,0,0,0,.82,0,1.52.4,2.05.94s.95,1.24.95,2.05c0,0,0,0,0,0,0,.82-.36,1.57-.9,2.11s-1.3.86-2.11.86Z"/><path class="cls-1" d="m166.8,183.98s0-.06,0-.06c.82,0,1.53-.32,2.06-.86s.9-1.25.9-2.06c0,0,0,0,0,0,0-.82-.33-1.57-.86-2.1s-1.29-.81-2.1-.81c0,0,0-.03,0-.03-.82,0-1.52.35-2.06.89s-.88,1.24-.88,2.06c0,0-.07,0-.07,0,0,.82.4,1.52.94,2.06s1.24.92,2.06.92Z"/><path class="cls-1" d="m180.84,186.16s0,0,0,0c1.2,0,2.16-1,2.16-2.2,0,0,.03,0,.03,0,0-1.2-1-2.16-2.19-2.16,0,0,0,.03,0,.03-1.2,0-2.17.94-2.17,2.14,0,0-.02,0-.02,0,0,1.2,1,2.2,2.19,2.2Z"/><path class="cls-1" d="m194.24,187.65s0,0,0,0c.82,0,1.55-.38,2.09-.91s.92-1.27.92-2.09h-.05c0-.82-.35-1.53-.89-2.07s-1.25-.87-2.07-.87c0,0,0-.07,0-.07-.82,0-1.59.34-2.12.88s-.81,1.31-.81,2.12h-.06c0,.82.4,1.52.94,2.06s1.25.93,2.06.93Z"/><path class="cls-1" d="m216.08,187.62s0,.03,0,.03c.82,0,1.57-.36,2.1-.9s.83-1.29.83-2.1h0c0-.82-.34-1.53-.87-2.06s-1.25-.93-2.06-.93c0,0,0,.03,0,.03-.82,0-1.59.3-2.13.84s-.85,1.31-.85,2.13h.01c0,.82.36,1.53.9,2.06s1.25.9,2.06.9Z"/><path class="cls-1" d="m205.16,181.03s0-.06,0-.06c.82,0,1.54-.32,2.07-.86s.87-1.26.87-2.07c0,0,0,0,0,0,0-.82-.31-1.56-.85-2.1s-1.28-.87-2.1-.87c0,0,0,.05,0,.05-.82,0-1.54.31-2.08.84s-.88,1.26-.88,2.08c0,0-.02,0-.02,0,0,.82.34,1.56.87,2.1s1.28.9,2.1.9Z"/><path class="cls-1" d="m202.19,193.69s0,0,0,0c1.1,0,1.96-.87,1.96-1.96h.04c0-1.1-.91-1.95-2-1.95,0,0,0-.02,0-.02-1.1,0-2.03.88-2.03,1.98h0c0,1.1.94,1.97,2.03,1.97Z"/><path class="cls-1" d="m175.7,193.69s0,0,0,0c1.1,0,1.99-.86,1.99-1.96h-.03c0-1.1-.86-2.02-1.96-2.02,0,0,0,.05,0,.05-1.1,0-1.97.88-1.97,1.97h0c0,1.1.88,1.97,1.97,1.97Z"/><path class="cls-1" d="m188.3,197.6s0,.03,0,.03c.82,0,1.52-.34,2.06-.88s.95-1.25.95-2.06c0,0,0,0,0,0,0-.82-.34-1.59-.87-2.13s-1.31-.83-2.13-.83c0,0,0-.03,0-.03-.82,0-1.56.35-2.09.89s-.88,1.28-.88,2.09c0,0-.01,0-.01,0,0,.82.39,1.52.92,2.06s1.24.85,2.06.85Z"/></g></svg>