<?xml version="1.0" encoding="UTF-8"?>
<svg id="blush" xmlns="http://www.w3.org/2000/svg" viewBox="0 0 300 300">
    <defs>
        <style>.cls-1{fill:#6f4147;}</style>
    </defs>
    <g id="blush_6">
        <g id="blush_6-2">
            <path class="cls-1"
                  d="m58.31,202.81c-1.63.75-.91,1.3-1.32,3.74-.16.96.72,2.31.55,3.72-.13,1.06,0,2.26-.11,3.59-.1,1.1-.86,2.23-.95,3.53-.07,1.12.37,2.34.31,3.61-.05,1.14-.6,2.31-.63,3.57-.02.86.45,2.06.55,3.57.07,1.06-.46,2.33-.27,3.65.16,1.1,1.39,2.09,1.67,3.34.24,1.11-.81,2.62-.46,3.83.32,1.11,1.59,1.97,2.02,3.14.4,1.09-.29,2.7.22,3.83.48,1.06,2.47,1.43,3.06,2.52.55,1.03,1.24,1.96,1.89,3.01s.65,2.38,1.37,3.38.92,2.31,1.71,3.25,1.84,1.57,2.68,2.47,2.44.89,3.33,1.73,1.35,2,2.29,2.79,1.66,1.71,2.64,2.45c.94.7,1.9,1.41,2.92,2.1s1.94,1.37,3,2,1.7,1.86,2.78,2.44,2.4.57,3.51,1.1,2.48.27,3.61.76,1.98,1.41,3.12,1.86,2.4.31,3.56.71,1.85,2.01,3.01,2.37,2.47.07,3.65.39,2.41.16,3.6.45,2.08,1.59,3.28,1.85,2.55-.6,3.76-.37,2.26.87,3.46,1.07,2.24,1.22,3.45,1.39,2.58-1.36,3.8-1.21,2.23,1.52,3.45,1.64,2.58-.82,3.79-.73c1.94.46,1.61,1.19,3.5,2.25,1.12.63,1.77,1.98,2.68,2.9,1.01,1.03,2.22,1.75,2.09,3.05-.15,1.46-.2,2.93-.84,3.54-1.3,1.24-2.9-1.25-4.19-.19-1.4,1.14,2,.75,4.17,1.15,1.01.19,2.14.49,3.5.55,1.11.05,2.33.69,3.61.57,1.13-.11,2.18-1.07,3.41-1.36,1.11-.26,2.24-.5,3.41-.95,1.07-.42,2.71.19,3.81-.42,1.01-.55,1.17-2.56,2.19-3.29.93-.67,2.11-1.03,3.05-1.87.86-.77,1.91-1.39,2.76-2.31.78-.85,1.67-1.54,2.44-2.53,1.64-.75,1.23.38,3.51.31,1.01-.03,2.16-1.27,3.53-1.36,1.09-.07,2.38.96,3.67.83,1.13-.11,2.31-.43,3.57-.59,1.14-.15,2.35-.22,3.58-.42,1.15-.18,2.45.15,3.66-.08,1.15-.22,1.95-2.25,3.15-2.52s2.33-.35,3.51-.66,2.44-.06,3.61-.41,2.22-.85,3.37-1.25,2.07-1.23,3.2-1.68,2.36-.49,3.47-.98,2.49-.34,3.57-.88,1.93-1.5,2.98-2.09,2.31-.83,3.33-1.47,1.97-1.4,2.95-2.1,1.84-1.56,2.78-2.32,1.91-1.47,2.8-2.28c.88-.8,1.02-2.36,1.86-3.23s2.31-1.11,3.09-2.03.76-2.42,1.48-3.39c.71-.95,2.68-1.05,3.34-2.06s.56-2.47,1.15-3.53,1.68-1.84,2.2-2.93.27-2.49.72-3.62.59-2.3.97-3.45,1.64-2,1.95-3.18.44-2.36.69-3.56.67-2.32.86-3.52-.1-2.43.03-3.64-.16-2.39-.08-3.61.17-2.36.19-3.58-.69-2.36-.72-3.58c-.03-1.18,1.66-2.45,1.59-3.66-.07-1.18-.48-2.37-.59-3.59s-.29-2.38-.44-3.59-1.24-2.23-1.43-3.44c-.18-1.17-.19-3.36-.41-4.56-1.88.5-1.1,2.01-2,4.23-.42,1.04.67,2.91.1,4.25-.47,1.12-2.2,1.8-2.75,3.05-.5,1.15-.45,2.6-1.01,3.81s-2.09,1.87-2.66,3.04-.15,2.84-.74,3.97c-.84,1.62-.21,1.55-1.62,3.37-.63.81-1.8,1.48-2.76,2.49-.76.81-2.25.99-3.24,1.87-.85.76-.99,2.5-2.03,3.27-.93.69-1.9,1.51-2.98,2.19-.98.62-2.01,1.38-3.13,1.97-1.03.55-2.29.84-3.45,1.35-1.07.48-2.39.5-3.57.93-1.11.41-2.18,1.07-3.38,1.42-1.13.34-2.26.93-3.48,1.22-1.15.27-2.63-.96-3.87-.75-1.17.2-2.14,1.87-3.38,2.02-1.18.14-2.41.42-3.65.51s-2.44-.29-3.69-.26-2.41-.47-3.65-.49-2.41.25-3.66.18-2.39-.29-3.63-.4-2.42-.07-3.65-.22-2.28-1.03-3.5-1.23-2.54.59-3.76.36-2.13-1.58-3.34-1.84-2.31-.63-3.52-.92-2.76,1.07-3.96.74-1.9-2.17-3.09-2.52-2.25-.83-3.43-1.21-2.46-.63-3.69-.79c-1.16-.15-2.48.9-3.72.9-1.17,0-2.38-.27-3.62-.16-1.17.1-2.4.07-3.63.25s-2.2,1.27-3.41,1.5-2.47-.17-3.67.09-2.45.06-3.64.33-2.37.46-3.55.74-2.25.95-3.44,1.22-2.27.92-3.46,1.17-2.4.35-3.59.57-2.39.43-3.58.61-2.52-.69-3.72-.56-2.28,1.79-3.49,1.86-2.46-.73-3.66-.75-2.4-.19-3.6-.3-2.57.75-3.75.53-2.08-1.76-3.25-2.09-2.38-.36-3.51-.83-2.26-.82-3.34-1.41-1.76-1.64-2.77-2.35-2.48-.7-3.41-1.52c-.88-.78-1.57-1.84-2.42-2.75-.8-.86-1.45-1.89-2.22-2.87-.73-.92-2.03-1.49-2.73-2.53-.65-.97-.28-2.59-.91-3.67-.82-1.72-1.8-.85-2.74-2.93-.46-1.02.35-2.83-.26-4.08-.53-1.1-1.96-1.83-2.57-2.97s-1.2-2.26-1.85-3.32c-.71-1.15-.68-2.78-1.4-3.7-.93-1.18-2.59-2.03-3.47-2.53Z"/>
        </g>
    </g>
</svg>