<?xml version="1.0" encoding="UTF-8"?><svg id="blush" xmlns="http://www.w3.org/2000/svg" viewBox="0 0 300 300"><defs><style>.cls-1{fill:#d1848a;}</style></defs><g id="blush_3"><path class="cls-1" d="m108.56,202.45c0,1.66-.49,3.38-.9,4.91s-1.36,3.04-2.16,4.43-1.41,3.14-2.55,4.28-2.69,2.07-4.09,2.88-3.14,1-4.73,1.42-3.14.2-4.8.2-3.38.61-4.91.2-2.84-1.71-4.22-2.51-3.32-1.08-4.46-2.22-1.68-2.9-2.49-4.31-.76-3.08-1.18-4.66-.64-2.97-.64-4.63-.42-3.27,0-4.8,1.19-3,1.99-4.39,2.02-2.42,3.17-3.56,1.98-2.66,3.39-3.47,2.82-1.88,4.4-2.31,3.31.67,4.97.67,3.25-.39,4.78.01,3.23.76,4.62,1.56,2.81,1.79,3.96,2.93,1.27,3.04,2.08,4.45,1.91,2.57,2.33,4.15,1.46,3.1,1.46,4.76Z"/><path class="cls-1" d="m224.99,202.45c0,1.66-.88,3.09-1.28,4.62s-.29,3.32-1.1,4.7-2.24,2.31-3.38,3.45-2.07,2.52-3.47,3.34-2.8,1.83-4.38,2.25-3.26.01-4.92.01-3.14-.52-4.68-.93-3.17-.65-4.56-1.45-2.68-1.79-3.83-2.93-2.78-2.03-3.6-3.44-1.34-3.1-1.77-4.68-.49-3.28-.49-4.94,1.09-3.14,1.5-4.67.54-3.23,1.34-4.61,1.81-2.7,2.95-3.85,2.27-2.43,3.67-3.25,2.94-1.61,4.52-2.04,3.27-.42,4.93-.42,3.19.81,4.72,1.22,3.5.17,4.88.97,2.17,2.57,3.31,3.71,2.04,2.41,2.85,3.81,1.26,2.84,1.68,4.43,1.09,3.01,1.09,4.68Z"/></g></svg>