<svg xmlns="http://www.w3.org/2000/svg" viewBox="0 0 300 300">
    <path d="M72.22 108.32c.02.48.16.34.11.96-.02.27-.07.58-.1.96-.02.29-.17.6-.19.95-.02.3-.02.62-.04.96-.02.3 0 .63-.02.96-.02.31.4.66.38.99-.02.31-.27.61-.29.95-.02.31.17.64.15.97-.02.31-.98.58-1 .91s.83.68.81 1.01-.58.6-.6.93-.35.62-.37.94.52.66.51.99-.1.63-.11.96-.37.62-.39.94-.05.64-.06.96.24.65.22.97.2.65.19.97-.44.62-.45.94.51.66.5.98-.7.62-.71.94.39.65.38.97.46.65.45.97-.95.61-.96.94.87.66.86.98-.17.64-.17.96-.56.63-.57.95.28.65.28.97.1.64.1.96.1.64.1.96-.62.63-.63.96.51.65.51.97-.5.64-.5.96.63.64.63.96-.14.64-.14.96.27.64.27.96-.62.64-.62.96v.96c0 .32-.02.64-.01.96s.53.64.54.96-.56.65-.56.97.17.64.18.96-.15.64-.15.97-.17.65-.17.97.24.64.25.96.04.64.05.96.73.62.74.94-.39.65-.38.98-.52.66-.51.98.75.62.76.94-.26.65-.25.98.28.63.29.95-.04.65-.03.97 0 .64 0 .97-.23.66-.22.98.23.63.25.95.11.64.13.96-.09.65-.07.97-.19.66-.17.98.32.62.35.94-.06.65-.04.97-.29.67-.26.99.28.62.31.95.05.64.08.96.27.62.3.94-.46.69-.43 1.01.4.61.43.93-.03.65 0 .97.21.63.24.95-.05.66-.01.98.4.6.44.92-.45.71-.41 1.03.58.58.62.89.33.6.38.92-.5.72-.45 1.04-.04.66.01.98.39.59.44.91.66.55.71.86-.5.74-.44 1.06.19.62.25.94.05.65.11.96-.05.67.01.98.83.49.89.8-.3.72-.24 1.04.22.61.3.92-.19.71-.12 1.02.1.64.17.96.14.63.22.94.35.58.43.89.44.55.53.86.56.51.65.82-.37.79-.27 1.09.49.52.59.83-.38.81-.27 1.12.21.62.32.92.4.55.52.85.53.49.65.78.42.52.54.82.3.57.44.86.2.61.34.9-.34.9-.19 1.18.36.56.51.83 1.11.11 1.27.38-.36.98-.19 1.24.32.58.5.84.51.45.7.7.7.28.9.52.35.54.57.77.41.5.63.72.7.18.94.39.32.6.57.8.62.22.88.4.58.24.85.4.49.38.78.51.3.91.6 1.03.83-.36 1.12-.24.33.97.63 1.08.67.07.97.18.67.07.97.17.55.42.85.52.74-.16 1.04-.06.56.4.86.49.76-.29 1.07-.2.62.17.93.26.62.19.92.27.58.35.88.42.56.44.87.51.64.11.95.18.76-.51 1.07-.45.6.28.91.34.58.46.89.51.6.39.91.43.72-.62 1.03-.59.63.15.94.17.63.3.94.31.65-.22.96-.22.65.61.97.61.64-.32.95-.34.66.08.97.05.59-.52.9-.56.76.62 1.07.56.51-.74.82-.81.68.07.99-.01.59-.27.89-.37.5-.49.8-.6.69.02.98-.1.58-.26.87-.4.56-.31.84-.45.77.08 1.05-.07.29-.78.57-.94.91.25 1.18.08.37-.61.64-.79.72-.08.99-.26.24-.78.5-.96.45-.46.71-.65.7-.11.96-.3.27-.71.53-.9.62-.23.88-.41.38-.57.64-.76.61-.24.87-.43.54-.34.81-.52.61-.23.88-.41.75 0 1.02-.17.55-.3.83-.46.51-.37.79-.52.48-.44.76-.59.26-.9.55-1.04.78.14 1.07 0 .48-.48.78-.61.79.26 1.09.14.64-.09.94-.2.49-.48.8-.58.55-.36.86-.46.62-.14.93-.23.54-.44.86-.52.78.56 1.1.48.48-.78.8-.85.73.45 1.04.4.57-.42.89-.47.67.2.99.15.58-.41.91-.44.62-.27.94-.3.62-.27.95-.29.66.26.98.24.65.04.96.02.65.07.97.06.64-.2.95-.21.66.5.98.49.64-.01.96-.02.63-.72.94-.72.66.58.97.58.64-.36.96-.36.65.11.96.12.65-.07.96-.06.66-.31.97-.3.64.16.96.18.65.06.96.08.64.11.96.14.69-.4 1-.37.58.69.89.72.62.23.93.27.75-.69 1.06-.64.51.93.82.98.75-.51 1.06-.45.53.64.84.71.7-.14 1-.07.63.16.93.25.51.54.81.64.69-.03.98.07.77-.23 1.07-.11.43.67.72.79.57.3.86.43.81-.2 1.09-.06.56.33.85.48.36.71.63.86.76-.04 1.04.11.52.38.8.54.45.49.73.65.77-.05 1.04.11.44.5.72.66.52.36.81.51.59.23.88.38.48.45.77.59.41.63.7.77.53.39.83.52.85-.38 1.15-.27.61.16.92.26.55.33.86.43.57.28.89.37.53.46.85.54.78-.53 1.1-.45.48.72.8.78.69-.27 1.01-.21.59.29.91.34.56.55.88.6.65-.01.97.03.62.21.94.24.63.09.96.12.67-.44 1-.42.66-.35.98-.33.63.07.95.09.62.26.95.27.63.18.95.18.64-.43.96-.43.63-.03.96-.03.63.03.95.03.64.16.97.16.66.7.99.7.65-.34.96-.39.54-.54.85-.62.73.24 1.04.13.43-.59.73-.73.85.23 1.13.07.57-.33.84-.52.52-.4.78-.61.46-.47.7-.69.28-.64.5-.87.26-.61.48-.86.43-.45.64-.7.5-.41.69-.67.2-.63.39-.9.9-.16 1.08-.44.43-.49.6-.77-.27-.9-.11-1.18.32-.54.47-.83.76-.32.91-.61-.23-.82-.09-1.12.6-.42.74-.71.35-.54.48-.84-.39-.86-.26-1.15.95-.3 1.07-.6.02-.68.13-.98.59-.46.7-.77-.31-.79-.2-1.09-.1-.7 0-1.01.91-.37 1.01-.68-.44-.81-.35-1.11.38-.55.48-.86.64-.48.72-.79-.37-.77-.29-1.08.57-.51.65-.82-.26-.73-.18-1.04.03-.65.11-.96.69-.49.76-.81-.22-.71-.15-1.02.33-.58.4-.89-.25-.7-.18-1.02.58-.53.64-.85-.21-.69-.15-1 .44-.57.49-.88.1-.63.15-.95.02-.64.07-.96.02-.64.07-.96 0-.64.06-.96.67-.55.71-.86-.54-.72-.49-1.04.53-.57.57-.89.04-.64.08-.96.32-.61.36-.93-.51-.7-.48-1.02.05-.64.08-.96.51-.59.54-.91-.5-.69-.47-1.01-.09-.65-.06-.97.18-.63.2-.95.57-.6.59-.92.13-.63.15-.95.24-.63.26-.95-.03-.65-.01-.97-.33-.66-.31-.98.1-.64.11-.96.16-.64.17-.96-.13-.65-.12-.97.29-.64.29-.96-.5-.65-.49-.97.53-.64.54-.96-.72-.64-.72-.96.7-.65.7-.97-.22-.64-.22-.96-.25-.64-.25-.96-.19-.64-.2-.96.66-.66.65-.98-.13-.64-.14-.96-.19-.64-.21-.96-.67-.61-.68-.93.41-.67.39-.99.46-.67.43-.99-.08-.64-.1-.96.02-.65 0-.97-.21-.63-.24-.95-.48-.6-.51-.92.27-.67.24-.99-.6-.58-.64-.9-.06-.64-.1-.96.25-.68.21-1-.6-.57-.64-.89.62-.74.57-1.06-.62-.56-.67-.88.46-.73.4-1.04 0-.66-.06-.97-.86-.5-.92-.82-.08-.64-.14-.95.64-.78.58-1.1-.28-.6-.35-.92-.39-.57-.47-.89.17-.7.09-1.01l-.24-.94c-.08-.31-.52-.53-.6-.84s-.36-.57-.44-.88.19-.72.1-1.03.17-.72.08-1.03-.88-.4-.98-.71.03-.68-.07-.98-.07-.65-.18-.96-.2-.61-.31-.91-.3-.58-.41-.87-.07-.66-.18-.96-.9-.33-1.02-.62.43-.88.31-1.17-.3-.57-.44-.86-.11-.66-.24-.95-.17-.64-.31-.93-1.01-.21-1.15-.49-.26-.58-.41-.86 0-.74-.16-1.01-.19-.64-.35-.91-.89-.19-1.07-.46.38-1.03.2-1.29-.59-.38-.78-.64-.45-.47-.64-.72-.85-.13-1.05-.38-.2-.66-.41-.9-.54-.37-.75-.6.17-.59-.05-.81c.14-.46-.04-.31.53-.48.26-.08.63.04.98-.04.29-.07.59-.2.93-.26.3-.05.62-.11.95-.15.31-.04.64.13.97.11.31-.02.62-.45.95-.45s.61.57.94.6.65-.25.98-.2.55.42.87.49.57.18.88.28.55.22.85.35.72-.07 1 .08.71.07.98.26.68.22.92.43.14.8.37 1.03.38.5.59.75.12.67.3.94c.17.26.53.39.69.68.15.27.11.63.25.93.13.28.8.34.93.64.12.29.23.6.34.92.1.3.13.63.22.95s.53.54.61.86-.54.77-.48 1.09.59.55.64.87.16.63.2.96.2.63.23.96-.05.66-.03.98-.03.65-.02.98-.12.65-.12.98-.45.64-.46.97.33.59.32.92c.35.32.27.42.87.47.27.02.64-.44 1-.39.29.04.52.51.86.58.29.06.54.31.86.4.29.08.87-.68 1.18-.57.29.1.33.89.64 1.02.29.12.52.31.82.46s.65.08.93.25.66.12.94.3.69.14.95.34.21.76.45.97.66.21.89.44.12.76.34 1 .66.26.86.51.7.27.89.54.36.55.54.82.04.72.21 1.01-.14.78 0 1.07.55.42.69.72.34.54.46.84.21.59.32.9.6.47.7.78-.11.69-.02 1.01.14.62.22.93.11.62.17.94.01.64.07.96.12.62.16.94.18.61.21.94-.01.64.02.96.26.62.28.94.1.64.11.96-.35.65-.35.97.32.63.32.96-.61.62-.62.95.67.65.66.98-.46.62-.47.94.2.65.18.97-.09.63-.12.96-.03.62-.06.94c.2.44.03.46.49.87.2.18.49.32.76.58.21.2.67.18.92.43.21.21.46.43.69.68.21.22-.03.86.19 1.11.2.23.49.4.7.65.2.24.79.17.99.43.19.25.43.47.63.74s.32.56.51.83.27.59.45.86.46.47.63.75.07.7.23.98.8.29.96.58-.04.75.1 1.04-.05.72.09 1.02.64.41.76.71.07.66.19.96.07.65.18.95.65.46.75.77.19.62.27.93.35.58.42.9.02.66.08.98.21.62.26.95-.14.68-.1 1-.04.65 0 .98.48.61.5.94-.02.66-.01.98-.83.65-.84.98.11.63.1.95.57.67.54.99-.18.63-.21.96-.05.64-.09.96.13.67.08.99-.23.62-.29.94.11.69.04 1.01-.18.63-.25.95-.23.61-.32.93-.9.4-1 .72.05.68-.05.99-.22.6-.33.91.04.7-.07 1.01-.21.61-.34.91-.42.52-.56.82c-.16.44.07.33.06.94 0 .26-.49.61-.46.98.03.28.68.51.75.85.05.29.3.52.39.85.08.29-.59.81-.48 1.13.1.28.35.54.47.85.11.28.86.29 1 .59.13.27-.57.97-.42 1.26.14.27.29.57.46.85.15.26.36.52.53.8.16.26.32.55.5.82.17.25.51.42.69.68s.78.2.98.46-.18.93.03 1.18.74.21.95.45l.62.71c.21.24.13.73.35.97s.92 0 1.14.23.16.72.36.96.22.62.4.88.36.51.52.78.28.55.42.83.38.51.5.8.63.45.73.75-.1.7-.02 1.01.56.54.62.86.18.65.21.96-.49.68-.48 1 .54.65.53.96-.13.65-.16.97-.52.58-.57.9.45.74.39 1.05-.38.58-.47.89-.34.57-.44.87-.6.45-.71.75-.21.58-.34.87.32.85.17 1.13-.59.41-.75.69-.37.52-.54.79-.09.71-.27.97-.55.39-.74.64-.45.45-.66.69-.2.68-.42.91-.76.14-.99.36-.37.53-.61.74-.22.74-.47.94-.63.23-.89.42-.63.2-.9.37-.74-.03-1.02.12-.18 1.05-.46 1.19-.64.17-.94.29-.65.1-.96.2-.62.19-.92.27-.57.43-.89.49-.75-.65-1.07-.61-.24.57-.56.59c-.22.44-.33.2-.08.77.11.25.09.61.23.95.11.28.81.35.94.68.11.29-.39.81-.28 1.14.1.29.1.63.21.95.1.3.22.59.32.91.09.3.97.38 1.06.7s0 .67.09.99-.37.76-.29 1.08-.01.66.06.98.12.62.18.94.58.55.63.87.25.62.29.94-.46.7-.43 1.03.02.63.04.96.25.63.26.95.06.64.06.97.44.67.42.99-.25.64-.29.96-.45.59-.51.9.14.68.07 1 .02.69-.08.99-.4.55-.52.85-.28.58-.43.87.1.81-.07 1.09-.69.34-.88.6-.56.37-.78.61.01.9-.21 1.13-.56.37-.79.6-.52.4-.76.62-.83.05-1.07.25-.28.67-.52.87-.29.7-.54.89-.82-.03-1.09.14-.65.15-.93.32-.28.81-.57.96-.52.45-.81.58-.88-.43-1.18-.31-.56.29-.87.38-.51.54-.82.62-.61.23-.93.29-.62.29-.94.33-.72-.73-1.04-.7-.61.3-.93.31-.63.06-.96.05-.63-.03-.96-.05-.62-.09-.95-.12-.65.09-.97.05-.69.24-1.01.19-.57-.46-.89-.52-.68.15-1 .08-.67.07-.99 0-.49-.7-.8-.78-.59-.27-.9-.35-.78.41-1.09.32-.46-.71-.77-.81-.77.31-1.08.21c-.28-.09-.75-.13-.79.39-.02.26.6.59.62.97.02.29 0 .6.04.95.03.29.4.57.43.9.03.3-.89.72-.85 1.04.03.3.05.62.09.94.03.31.87.54.9.87s-.55.68-.52 1 .1.62.12.94.3.61.32.93.09.63.1.95.34.63.34.95-.41.64-.42.95.42.66.41.98-.66.6-.69.91.27.67.24.98-.19.62-.24.93.3.72.23 1.03-.65.51-.73.82.32.77.22 1.07-1.08.29-1.19.58-.23.56-.37.84.52 1.01.36 1.28-1.12.03-1.31.29.29 1.03.08 1.27-.84.09-1.07.31-.16.8-.41 1-.51.43-.78.6-.93-.37-1.22-.23-.43.51-.73.63-.4.8-.71.89-.66.06-.98.13-.69-.23-1.02-.18-.57.6-.89.63-.69-.77-1.02-.76-.61.09-.94.09-.65.15-.96.15-.64-.22-.95-.23-.65.09-.96.07-.69.34-1 .3-.59-.47-.91-.52-.59-.36-.9-.41-.68.13-.98.06-.68.07-.98-.01-.74.21-1.04.11-.61-.29-.9-.4-.39-.81-.68-.93-.92.47-1.21.34c-.3-.14-.32-.84-.59-.99-.29-.16-.44-.52-.71-.68-.28-.17-.86.15-1.12-.03-.27-.19-.31-.68-.56-.87-.26-.2-.46-.45-.69-.65-.25-.22-.52-.39-.74-.61-.24-.24-.92-.05-1.12-.29-.22-.25-.06-.81-.25-1.06-.21-.27-.26-.62-.43-.87-.19-.29-.22-.63-.36-.89-.18-.32-.33-.58-.44-.83-.24-.55-.5-.77-.5-.77.03.47.2.35.21.95 0 .27-.25.59-.25.95 0 .29.17.62.15.96-.01.3-.48.58-.5.91-.02.3.66.68.63 1.01-.03.3-.53.57-.57.89s-.2.6-.25.92.42.72.36 1.03-.95.44-1.02.75.64.81.56 1.12-.56.5-.65.81-.09.64-.2.94-.62.43-.74.73.39.87.25 1.16-.41.52-.56.8-.7.32-.87.59-.02.75-.2 1.01-.9.09-1.1.34-.18.66-.4.89-.5.37-.74.58-.21.74-.47.93-.42.54-.7.71-.83-.19-1.12-.04-.44.55-.74.67-.55.37-.86.47-.63.15-.94.23-.66-.09-.98-.03-.63-.02-.95.01-.63-.2-.95-.19-.61-.03-.93-.04-.66.72-.98.69-.59-.44-.92-.48-.66.15-.98.1-.59-.28-.91-.34-.68.14-.99.06-.47-.69-.79-.77-.6-.14-.91-.24-.78.39-1.09.29-.32-1.01-.62-1.11-.63-.09-.93-.2-.7.07-1-.05-.49-.41-.79-.54c-.27-.18-.48-.41-.74-.57-.28-.17-.62-.21-.89-.36-.28-.17-.45-.51-.72-.66-.29-.16-.82.16-1.09.03-.29-.15-.58-.27-.85-.39-.3-.14-.55-.33-.83-.44-.31-.12-.52-.49-.8-.57-.32-.09-.72.3-1.02.25-.32-.06-.57-.66-.87-.68-.32-.01-.68.02-.98.05s-.61.3-.91.38-.76-.2-1.05-.07-.51.45-.79.6c-.27.14-.36.63-.63.8-.26.16-.7.05-.97.23-.25.17-.26.71-.52.89-.25.17-.34.58-.61.76-.25.17-.95-.29-1.22-.1-.25.17-.46.41-.73.59-.25.17-.46.42-.73.59-.25.17-.54.3-.81.47s-.66.12-.93.29-.43.48-.7.65-.45.46-.74.61-.43.6-.73.72-.82-.42-1.13-.32-.48.56-.79.64-.52.63-.83.69-.74-.52-1.06-.48-.61.18-.93.21-.61.34-.93.36-.65-.57-.97-.56-.62.16-.94.15-.62-.03-.94-.05-.67.38-.99.35-.57-.57-.88-.62-.65.11-.97.05-.57-.33-.89-.4-.82.66-1.13.58-.61-.24-.92-.33-.44-.74-.74-.84-.71.07-1-.05-.69-.03-.98-.16-.44-.59-.72-.74-.33-.72-.61-.87-.8.13-1.07-.04-.44-.48-.71-.66-.55-.32-.81-.51-.74-.11-.98-.31-.09-.86-.32-1.07-.94.03-1.16-.2 0-.86-.2-1.11-.66-.29-.85-.54-.12-.69-.29-.96-.5-.44-.65-.72-.63-.41-.77-.7.39-.86.27-1.16-.97-.33-1.07-.64.73-.86.65-1.18-.99-.43-1.04-.75.63-.73.59-1.06-.6-.58-.62-.9.03-.44.03-.76c-.42-.23-.05.3-.62.52-.25.1-.64 0-.98.12-.27.1-.58.2-.91.3-.29.09-.58.25-.9.35-.29.08-.67-.11-1-.03-.3.07-.54.44-.86.51-.3.07-.71-.35-1.03-.3s-.52.71-.85.76-.72-.7-1.05-.66-.59.41-.91.44-.63-.1-.96-.09-.63.44-.95.44-.64-.04-.96-.05-.67.28-.99.25-.56-.78-.88-.82-.68.23-.99.18-.69.15-1 .08-.56-.44-.86-.52-.7.09-1.01-.01-.56-.37-.86-.48-.61-.22-.9-.35-.56-.31-.85-.46-.69-.09-.97-.26-.46-.5-.73-.67-.43-.5-.69-.69-.7-.14-.95-.34-.11-.86-.36-1.07-.88.02-1.11-.2.07-.96-.16-1.19-.46-.42-.67-.66-.78-.17-.98-.42-.44-.47-.63-.73.1-.84-.09-1.11-.83-.2-1.01-.47.18-.85.02-1.13-.88-.22-1.04-.5-.48-.47-.63-.76.11-.77-.03-1.06-.54-.45-.67-.74.39-.86.27-1.16-.85-.33-.97-.64.14-.73.03-1.04-.81-.39-.92-.69.68-.89.59-1.2-.23-.58-.33-.89-.14-.61-.23-.92-.27-.58-.36-.89-.4-.55-.48-.86-.57-.52-.64-.84.3-1.06.23-1.38c-.46-.15-.35.66-.88.98-.24.14-.45.45-.79.62-.26.14-.63.16-.95.31-.28.13-.49.49-.8.62-.29.12-.59.28-.91.4-.29.11-.63.19-.95.29-.3.1-.67.04-.99.14-.3.09-.63.18-.95.26s-.73-.29-1.06-.22-.62.13-.95.19-.61.21-.94.26-.61.31-.94.34-.66-.15-.99-.13-.64.07-.97.08-.65.53-.98.52-.66-.24-.99-.25-.68.26-1.01.23-.6-.58-.93-.62-.62-.24-.94-.3-.74.46-1.07.39-.48-.88-.8-.95-.75.33-1.07.24-.5-.62-.82-.71-.61-.2-.92-.31-.75.21-1.05.08-.51-.42-.8-.56-.68-.08-.96-.24-.64-.19-.91-.37-.15-.9-.41-1.09-.53-.32-.78-.53-.98.14-1.21-.08-.11-.8-.33-1.04-.88-.09-1.08-.34-.15-.72-.33-.98-.14-.68-.31-.95-.32-.54-.48-.82-.85-.29-.99-.57-.23-.62-.36-.9.11-.75 0-1.04-.57-.47-.68-.77.3-.78.21-1.08-.77-.44-.86-.75.15-.71.08-1.01.16-.68.1-.99-.32-.59-.36-.9-.21-.62-.24-.94.38-.67.36-.98.03-.63.02-.94-.69-.64-.69-.95.77-.6.79-.92-.33-.66-.3-.97-.29-.68-.24-1 .78-.52.84-.83-.07-.65 0-.96.19-.61.27-.91-.48-.8-.39-1.1.18-.63.28-.93.48-.52.59-.82.48-.5.59-.79.26-.58.38-.87.16-.63.29-.91c.14-.3.65-.39.79-.67.15-.29.04-.7.19-.97.16-.29.22-.62.37-.88.17-.29.34-.55.5-.81.18-.29.59-.4.75-.64.2-.3.11-.75.26-.97.36-.49.28-.24.18-.7s.18-.45-.35-.76c-.23-.13-.73.08-1.04-.12-.24-.15-.6-.2-.89-.39-.25-.17-.36-.57-.63-.76-.25-.17-.69-.12-.95-.32-.25-.18.03-1.06-.23-1.26-.24-.19-.56-.28-.82-.49s-.97.16-1.21-.05-.05-.89-.29-1.11-.36-.52-.59-.75-.86-.03-1.09-.26-.46-.45-.67-.69.01-.85-.19-1.09-.42-.46-.62-.71-.74-.22-.93-.48-.61-.35-.79-.62.19-.89.02-1.16-.11-.66-.28-.93-1.09-.11-1.24-.39.44-.94.3-1.23-1.08-.19-1.21-.49.53-.91.41-1.21-.84-.36-.94-.66-.12-.64-.22-.94.28-.73.2-1.04-.17-.6-.24-.91-.14-.6-.2-.92-.34-.58-.38-.9-.07-.63-.1-.95-.13-.62-.15-.95-.28-.63-.28-.95-.03-.64-.02-.96.41-.62.43-.94-.44-.68-.41-1 .63-.56.67-.88.24-.59.3-.91.03-.63.1-.95.43-.54.51-.85-.35-.74-.26-1.05.16-.61.26-.92.42-.53.52-.83.08-.64.19-.94-.22-.78-.1-1.07.85-.33.98-.62.04-.67.17-.96.05-.68.19-.97.67-.37.82-.65.22-.6.37-.88.26-.58.42-.86.4-.5.57-.77.14-.66.31-.93.82-.22.99-.49-.1-.83.08-1.09.41-.48.6-.74.39-.51.58-.77.58-.52.78-.78c-.14-.45-.62.22-1.16-.05-.24-.12-.51-.31-.82-.49-.25-.14-.42-.49-.72-.67-.25-.15-.76.03-1.03-.15-.25-.17-.4-.54-.67-.73-.25-.18-.44-.47-.7-.66-.24-.19-.45-.45-.7-.65s-.35-.55-.59-.76-.79-.08-1.02-.3-.12-.77-.34-1-.62-.28-.83-.52-.28-.59-.48-.84-.14-.67-.33-.93-.98-.09-1.15-.36-.13-.67-.29-.95.09-.77-.05-1.05-.98-.23-1.11-.52.46-.88.34-1.18-.26-.56-.35-.86-.76-.43-.84-.74.09-.68.02-.99.13-.66.09-.98-.19-.61-.22-.92.04-.63.03-.95-.08-.62-.08-.94.24-.61.26-.93-.65-.69-.61-1.01.33-.6.38-.92-.19-.68-.13-1 .9-.45.98-.76-.38-.75-.3-1.06.37-.56.46-.86.33-.57.43-.86-.12-.72-.02-1.02.89-.35 1-.64-.25-.79-.13-1.08-.09-.75.04-1.03.63-.42.77-.7.59-.41.74-.68.28-.57.44-.83c.17-.28.34-.53.51-.79.18-.27.06-.73.24-.98.19-.26.16-.7.36-.94.21-.26.32-.6.53-.83.22-.24.53-.43.74-.64.23-.23 1.05.19 1.29 0 .25-.21.1-.88.35-1.06.26-.2.68-.14.94-.31.28-.18.24-.9.51-1.05.29-.16.71-.09.99-.21.31-.13.65-.15.94-.25.32-.11.67-.06.96-.13.33-.08.59-.56.88-.59.36-.05.73.24 1 .23.59-.01.33.39.53-.03s.39-.27-.04-.71c-.19-.19-1 .12-1.25-.15-.2-.22-.3-.57-.52-.83-.2-.23-.34-.53-.55-.8-.19-.24-.2-.64-.4-.91-.19-.25-.67-.3-.86-.57s.04-.8-.14-1.07-.44-.47-.6-.75.05-.76-.11-1.04-.53-.42-.68-.71-.76-.35-.89-.64-.38-.55-.5-.85-.07-.68-.17-.98.06-.7-.03-1.01-.33-.58-.4-.89.2-.69.14-1.01-.49-.58-.53-.9-.12-.65-.14-.97-.16-.66-.16-.98-.06-.67-.03-1 .44-.61.49-.93-.22-.71-.15-1.03 1.04-.38 1.14-.69-.52-.85-.4-1.15.87-.32 1.01-.61-.17-.79-.01-1.07.52-.43.69-.71-.12-.86.07-1.12.71-.27.92-.53.68-.25.89-.5-.06-.92.17-1.15.89 0 1.12-.23.53-.35.77-.56.06-.91.32-1.12.51-.39.76-.58.88.08 1.13-.11.18-.81.43-1 .63-.24.88-.42.66-.18.92-.36c.27-.19.39-.57.64-.75.27-.19.51-.4.77-.57.27-.18.38-.61.64-.78.28-.18.45-.51.72-.67.28-.17.7-.1.97-.25.29-.16.61-.25.88-.39.3-.15.76.06 1.03-.07.3-.14.67-.06.95-.17.31-.13.59-.22.87-.31.32-.11.36-1.11.65-1.18.34-.08.77.38 1.06.34.35-.04.66-.49.95-.48.36.01.77.02 1.04.1.34.1.48.68.71.84.3.21.94.14 1.09.37.3.45-.14.65-.12 1.13Z" fill="#ffe6ce" stroke-width="0"/>
</svg>
