<?xml version="1.0" encoding="UTF-8"?><svg id="mouth" xmlns="http://www.w3.org/2000/svg" viewBox="0 0 300 300"><defs><style>.cls-1{fill:#853421;}</style></defs><g id="mouth_1"><g id="mouth_1-2"><path class="cls-1" d="m139.13,207.92c1.15,0,1.15-.54,2.29-.54s1.14.76,2.29.76,1.14-.03,2.29-.03,1.15.14,2.29.14,1.15.09,2.29.09,1.15-.81,2.29-.81,1.15.47,2.3.47,1.15.16,2.3.16,2.37,1.1,1.88,2.2c-.25.57-.91,1.08-1.43,1.69-.42.49-.81,1.21-1.46,1.65-.54.36-1.28.62-2.01.91-.61.24-1.32.5-2.08.66-.65.14-1.45-.5-2.22-.43-.67.06-1.34,1.01-2.11,1.01-.85,0-1.66-.4-2.39-.51-.85-.12-1.58-.49-2.28-.72-.82-.27-1.68-.32-2.32-.69-.75-.43-1.2-1.19-1.73-1.69-.64-.6-1.53-.95-1.91-1.54s-.27-1.54,0-2.05,1.04-.72,1.71-.72Z"/></g></g></svg>