<?xml version="1.0" encoding="UTF-8"?><svg id="mouth" xmlns="http://www.w3.org/2000/svg" viewBox="0 0 300 300"><defs><style>.cls-1{fill:#fff;}.cls-2{fill:#853421;}</style></defs><g id="mouth_8"><path class="cls-2" d="m162.54,201.99c-1.15.62-.64.9-2.2,1.4-.71.23-1.54.56-2.5.81-.78.2-1.74-.05-2.65.14-.81.17-1.68.19-2.58.33-.83.12-1.68.17-2.58.25-.85.08-1.68.7-2.57.73s-1.73-.17-2.62-.2-1.76.18-2.64.08-1.65-.66-2.52-.83-1.6-.65-2.45-.89-1.69-.31-2.51-.63-1.98.15-2.77-.25c-.84-.43-1.64-.73-2.46-1.04-.88-.34-1.4-1.73-2.25-1.94-.91-.23-2.01.72-2.89.62-.94-.1-1.79-.69-2.67-.65-.94.05-1.69.82-2.55,1.02-.91.22-2.14-.59-2.95-.21s-1.5,1.21-2.2,1.78-1.2,1.39-1.74,2.12-1.31,1.36-1.67,2.22-.73,1.74-.89,2.66c-.15.86.05,1.85.07,2.79.02.87-.42,1.91-.24,2.84.17.85.72,1.73,1.03,2.63.29.85,1.24,1.41,1.58,2.18.36.82.32,1.81.74,2.54.45.77.6,1.77,1.11,2.45.53.71,2.06.55,2.65,1.16s.34,2.25,1.01,2.78,2.04.15,2.78.57,1.62.47,2.43.77,1.56.49,2.41.68,1.61.26,2.47.34,1.65.56,2.52.52,1.8.53,2.66.38,1.44-1.37,2.28-1.62,1.79.02,2.6-.32c.88-.37,1.62-1.11,2.46-1.38.91-.29,2.04.3,2.9.11.94-.21,1.81-.35,2.68-.46.96-.11,1.84-.09,2.72-.1.97,0,1.94-.86,2.81-.77.97.11,1.88.52,2.72.72.97.24,1.63,1.17,2.41,1.48.98.39,2.15.1,2.81.5.51.31,1.35.32,2.48.61.76.2,1.41,1.59,2.38,1.72.83.11,1.82-.96,2.76-.93.86.03,1.77,1.15,2.69,1.08.87-.06,1.77-.44,2.66-.6s1.73-.49,2.6-.75,1.35-1.34,2.18-1.71,1.78-.28,2.56-.76,1.61-.77,2.32-1.35,1.12-1.37,1.74-2.04c.59-.63.77-1.57,1.3-2.32.5-.7,1.3-1.19,1.75-2,.42-.75,1.33-1.3,1.69-2.15s.71-1.78.93-2.61c.25-.93.33-1.89.41-2.74.09-.95-.52-1.84-.64-2.7-.12-.93.5-2.05.18-2.88s-1.43-1.35-1.95-2.08-.74-1.79-1.42-2.4-2.01-.26-2.8-.74-1.31-1.22-2.16-1.57-1.6-.84-2.48-1.07c-.87-.23-1.82.1-2.73-.02s-1.74-.59-2.64-.6-1.81.01-2.7.12-1.91-.2-2.78.03c-.89.23-1.42,1.44-2.24,1.8s-2.11-.18-2.86.33Z"/><path class="cls-1" d="m132.58,206.03c-.76-.42-1.48-.2-2.02.29s-.68,1.12-.32,1.91c.32.69.65,1.43,1.21,2.14.48.61,1.04,1.19,1.74,1.76.6.49,1.14,1.2,1.93,1.62.68.37,1.48.7,2.32,1,.74.26,1.52.65,2.39.84.77.17,1.66-.05,2.54.06.78.1,1.61.19,2.49.23.79.04,1.63-.08,2.5-.09s1.74-.09,2.57-.16c.89-.07,1.78.09,2.59-.04.89-.14,1.69-.52,2.49-.72.87-.22,1.84-.03,2.61-.31.85-.31,1.49-1.04,2.22-1.41.81-.4,1.65-.66,2.33-1.11.76-.5,1.63-.82,2.25-1.35.69-.6,1.04-1.5,1.57-2.11.61-.71,1.36-1.25,1.78-1.9.79-1.22-.64-2.59-1.95-1.97-.76.36-1.64.72-2.58,1.11-.81.34-1.73.57-2.66.9-.84.3-1.77.48-2.69.75-.87.26-1.82.3-2.74.52s-1.77.51-2.7.66-1.81.52-2.74.61-1.87-.11-2.8-.11c-.88,0-1.71.24-2.49.2-.88-.04-1.71-.21-2.47-.3-.88-.1-1.67-.39-2.42-.54-.87-.17-1.59-.59-2.33-.82-.84-.26-1.83.03-2.54-.29-.79-.35-1.4-.99-2.1-1.37Z"/></g></svg>