<?xml version="1.0" encoding="UTF-8"?><svg id="mouth" xmlns="http://www.w3.org/2000/svg" viewBox="0 0 300 300"><defs><style>.cls-1{fill:#fff;}.cls-2{fill:#853421;}</style></defs><g id="mouth_2"><path class="cls-2" d="m107.82,204.34c.48-1.26.17-1.09,1.15-2.37.48-.62.59-1.83,1.31-2.52.61-.58,2.15-.09,2.95-.61.72-.47,1.34-.99,2.21-1.35.79-.32,1.45-1.16,2.38-1.33.84-.16,1.76-.63,2.71-.62.85,0,1.61,1.38,2.55,1.53.84.14,1.91-.67,2.82-.39.85.26,1.48,1.51,2.38,1.71s1.85.09,2.76.24,1.84-.01,2.75.09,1.83-.22,2.74-.16,1.8-.06,2.71-.04,1.8.45,2.71.45,1.81-.42,2.71-.45,1.84.35,2.73.3,1.87.46,2.76.39,1.7-1.5,2.58-1.6,1.83,0,2.71-.12c.93-.12,1.91.34,2.77.22.94-.14,1.88-.07,2.73-.21.96-.17,1.82-.51,2.64-.68,1-.2,1.7-1.18,2.46-1.36s1.9.85,2.77.66c.81-.17,1.45-1.31,2.31-1.46s1.8.62,2.66.52,1.6-1.09,2.46-1.14,1.72.45,2.58.47,1.79-.68,2.63-.57,1.43,1.59,2.25,1.8,1.79-.16,2.57.17,1.63.55,2.36,1.01,1.73.62,2.37,1.21c.61.56.44,1.89.97,2.59s.68,1.46,1.05,2.32c.33.78,1.69,1.27,1.89,2.18.18.84.29,1.8.35,2.72.06.86.25,1.82.2,2.74-.05.87-.26,1.81-.42,2.71s-1.19,1.54-1.45,2.41-.94,1.48-1.29,2.32.21,2.04-.23,2.83-1.69,1.01-2.21,1.75-.59,1.73-1.18,2.42-1.15,1.32-1.8,1.96-.78,1.82-1.48,2.4-2.08.18-2.83.7-1.16,1.45-1.95,1.9-1.46,1.04-2.29,1.43-1.94-.07-2.79.27-1.66.49-2.53.77-1.67.43-2.55.65-1.47,1.41-2.37,1.59-1.71.61-2.61.75-1.93-1.22-2.84-1.12-1.64,1.33-2.55,1.39-1.8-.24-2.67-.2-1.76.76-2.63.79-1.79-.11-2.67-.1-1.78-.28-2.66-.3-1.79.13-2.66.1-1.8.09-2.67.04-1.78-.2-2.66-.28-1.81.05-2.68-.06-1.8-.19-2.66-.32-1.67-.91-2.53-1.07-1.56-1.18-2.41-1.38-1.78-.15-2.62-.38-2.05.6-2.88.32-1.42-1.37-2.23-1.68-2.06.22-2.84-.15-1.33-1.4-2.09-1.82-1.48-1.02-2.2-1.5-1.54-.93-2.21-1.48-1.61-.93-2.22-1.55-.59-1.85-1.12-2.55-.66-1.6-1.1-2.37-.68-1.51-1.02-2.33-1.73-1.25-1.95-2.11.48-1.86.37-2.75-.2-1.68-.2-2.58-.72-1.77-.63-2.67c.09-.85-.14-1.82.03-2.72.16-.84,1.29-1.47,1.53-2.35Z"/><path class="cls-1" d="m124.95,201.05c.73,1.07-.39,1.27.05,2.77.21.72,1.03,1.28,1.49,2.14.37.7.78,1.34,1.38,2.06.51.62.43,1.94,1.15,2.52.63.51,1.42,1.02,2.23,1.47.71.39,1.86-.02,2.72.3.76.28,1.5.69,2.39.91.79.19,1.56.77,2.46.9.84.12,1.73.26,2.63.34.86.07,1.76-.35,2.66-.32s1.74.07,2.63.06,1.77.53,2.66.48,1.72-.64,2.6-.73,1.76-.08,2.63-.2,1.82.14,2.68-.01,1.62-.9,2.47-1.1,1.72-.4,2.55-.64,1.69-.5,2.51-.78,1.72-.47,2.51-.81,1.65-.69,2.4-1.1c.8-.43,1.45-1.04,2.15-1.53.74-.52,1.35-1.13,1.97-1.72.65-.63,1.7-.92,2.18-1.63s.66-1.72.95-2.54-.11-1.66-.06-2.56c-.11-1.14.24-1.1-1.06-1.57-.54-.2-1.21,0-2.19.15-.63.09-1.28.27-2.13.58-.7.26-1.79-.08-2.82.24-.79.25-1.57.86-2.53,1.12-.83.22-1.75.34-2.7.56-.86.2-1.71.62-2.64.81-.87.18-1.73.62-2.66.78s-1.92-.53-2.85-.39-1.78.33-2.71.43-1.77.59-2.7.66-1.85-.46-2.77-.43-1.81.16-2.74.15-1.84.49-2.76.44-1.78-.73-2.69-.82-1.86.19-2.77.05-1.66-.26-2.41-.37c-.88-.13-1.69-.17-2.42-.27-.92-.12-1.72-.22-2.42-.3-1.01-.12-1.84.3-2.45.26-2.97-.19-2.23-1.33-1.54-.33Z"/></g></svg>