<?xml version="1.0" encoding="UTF-8"?><svg id="mouth" xmlns="http://www.w3.org/2000/svg" viewBox="0 0 300 300"><defs><style>.cls-1{fill:#853421;}</style></defs><g id="mouth_10"><g id="mouth_10-2"><path class="cls-1" d="m132.64,211c.73-2,1.29-1.11,3.04-2.66,1.03-.91,2.13-1.83,3.28-2.57,1.49-.96,2.58-2,3.61-1.68,1.91.6,2.75,2.32,4.4,2.6,1.08.19,2.77-.08,5-1.47,2.46-1.52,3.65-1.63,4.91-1.37,1.64.33,3.21.52,5.28,1.63,1.23.66,1.87,2.14,2.75,2.86,1.74,1.42,2.58.59,2.78,2.5.24,2.22-.29,1.89-1.96,3.99-.8,1.01-2.16,1.83-3.46,2.89-1.06.86-2.4,1.47-3.84,2.18-1.24.62-2.61.95-4.16,1.36-1.35.35-2.67,1.27-4.26,1.38-1.77.13-3.39.19-4.83.06-1.8-.16-3.54-.14-4.87-.6-1.72-.6-2.75-2.16-3.83-3.07-1.39-1.17-2.01-2.56-2.63-3.81-1.21-2.46-2.03-1.97-1.21-4.22Z"/></g></g></svg>