<?xml version="1.0" encoding="UTF-8"?><svg id="mouth" xmlns="http://www.w3.org/2000/svg" viewBox="0 0 300 300"><defs><style>.cls-1{fill:#853421;}</style></defs><g id="mouth_9"><g id="mouth_9-2"><path class="cls-1" d="m134.39,224.11c-.58,0-1.16.02-1.79-.03-1.06-.09-1.98-.29-2.87-.57-1-.31-2.23-.15-3-.69-.82-.57-1.41-1.55-1.98-2.37-.46-.67-.18-1.65-.43-2.35-.27-.77-.74-1.4-.82-2.13-.09-.85-.51-1.65-.46-2.34.09-1.21.35-2.14.41-2.35.38-1.33,2.07-2.21,3.4-1.84,1.32.38,1.94,1.91,1.58,3.24-.12.46.3,1.42.37,2.46.06.81-.05,1.58.42,2.26.4.57.83,1.12,1.62,1.43.62.24,1.35.41,2.2.48,1,.09,1.95.4,2.78.3.98-.12,1.96-.38,2.73-.74.86-.39,1.24-1.45,1.89-2.08s1.78-.92,2.25-1.73c.44-.76.03-1.96.35-2.85.3-.83,1.25-1.49,1.47-2.4s.38-1.79.54-2.7-.22-1.88-.09-2.79c.03-.22.52-.15.55-.38.19-1.3,1.12-2.69,2.43-2.58,1.31.09,2.04,1.58,2.04,2.9,0,.03.56,1.14.77,2.79.11.83-.15,1.85.09,2.86.2.89.95,1.65,1.29,2.56s-.04,2.14.45,2.94,1.47,1.34,2.16,1.98c.56.52,1.31.63,1.98.94s1.22.83,1.98.94c.69.1,1.43.02,2.22-.04,1.14-.09,2.18-.08,3-.38,1.08-.39,2.09-.92,2.63-1.67.47-.66.08-1.63.17-2.32.16-1.21.01-2.12.01-2.13-.33-1.33.78-2.58,2.11-2.92,1.33-.34,2.22.37,2.57,1.7.06.23.53,1.26.5,2.8-.02.87.51,2,.19,3.04-.27.88-1.39,1.44-2,2.31-.5.71-.8,1.55-1.49,2.1s-1.31,1.18-2.13,1.55c-.76.34-1.63.59-2.53.79-.81.18-1.74-.23-2.65-.16-.93.08-1.82.56-2.68.48-.92-.09-1.69-.73-2.53-.99s-1.73-.4-2.51-.85-1.27-1.18-1.95-1.81c-.56-.52-1.16-.92-1.62-1.52s-.76-1.26-1.13-1.92-1.03-1.11-1.33-1.8c-.38.85-.71,1.73-1.21,2.52s-.99,1.64-1.63,2.34-1.31,1.44-2.09,1.98-1.7.88-2.61,1.24c-.83.33-1.79.52-2.77.69-.87.15-1.83-.17-2.83-.17Z"/></g></g></svg>