<?xml version="1.0" encoding="UTF-8"?><svg id="mouth" xmlns="http://www.w3.org/2000/svg" viewBox="0 0 300 300"><defs><style>.cls-1{fill:#ab4742;}</style></defs><g id="mouth_5"><g id="mouth_6"><path class="cls-1" d="m166.06,219.18c-1.38,0-1.38.08-2.76.08s-1.38-.32-2.76-.32-1.38.74-2.76.74-1.38-.68-2.76-.68-1.38.08-2.76.08-1.38.06-2.76.06-1.38-.15-2.76-.15-1.38.18-2.76.18-1.38-.02-2.76-.02-1.38-.03-2.76-.03-1.38.54-2.76.54-1.38-.06-2.76-.06c-.73,0-1.3-.66-1.78-1.14s-1.25-1.05-1.25-1.78c0,0,.1,0,.1,0,0-.73.76-1.21,1.24-1.69s.96-.95,1.69-.95c1.38,0,1.38-.09,2.76-.09s1.38.09,2.76.09,1.38-.29,2.76-.29,1.38.5,2.76.5,1.38.11,2.76.11,1.38-.42,2.76-.42,1.38-.01,2.76-.01,1.38.07,2.76.07,1.38.28,2.76.28,1.38-.39,2.76-.39,1.38.35,2.76.35,1.38-.21,2.76-.21c.73,0,1.41.26,1.89.74s.55,1.16.55,1.89c0,0,.2,0,.2,0,0,.73-.28,1.39-.77,1.88s-1.14.64-1.88.64Z"/></g></g></svg>