<?xml version="1.0" encoding="UTF-8"?><svg id="mouth" xmlns="http://www.w3.org/2000/svg" viewBox="0 0 300 300"><defs><style>.cls-1{fill:#ab4742;}</style></defs><g id="mouth_4"><path class="cls-1" d="m166.19,199.75c-.86,0-.54.31-1.61.58-.47.12-1.16-.27-1.8-.13-.51.12-1.07.25-1.68.37-.53.1-1.03.55-1.63.65-.54.09-1.11.25-1.7.33-.55.08-1.14-.03-1.73.04-.56.07-1.16-.19-1.74-.14s-1.09.65-1.67.69-1.14.16-1.73.18-1.16-.48-1.74-.48-1.13-.21-1.72-.22-1.19.91-1.76.87-1.11-.61-1.69-.67-1.16.05-1.74-.03-1.13-.23-1.7-.33-1.04-.63-1.6-.76-1.2.11-1.76-.04-1.12,0-1.67-.18c-1,0-1.23-.35-2,.27-.48.38-.27,1.16-.22,1.95.03.51-.49,1.36-.03,2.09.37.58,1.12.84,1.56,1.22.51.45,1.03.84,1.56,1.07.64.28,1.26.55,1.81.63,1.09.16,1.37-.99,2.12-.42.69.53-.58.97-.58,2.02,0,.5.58,1.08.62,1.72.03.55.09,1.11.16,1.71.08.56-.24,1.21-.11,1.78s.52,1.07.72,1.61.45,1.07.74,1.56.38,1.21.79,1.61,1.06.57,1.6.81c.5.23,1.07.28,1.69.34s1.19.11,1.76.09c.61-.01,1.12-.47,1.68-.57s1.32.44,1.87.24.78-1.07,1.29-1.37,1.23-.22,1.68-.61.67-.95,1.06-1.41c.37-.44.85-.79,1.18-1.31.3-.48.58-1,.85-1.55.25-.51.23-1.15.45-1.72.21-.53,1.06-.86,1.24-1.44.17-.55-.38-1.31-.23-1.91.14-.56.61-1.07.73-1.67.71-.57.66-.56,1.69-.81.53-.13,1.16-.1,1.77-.31.58-.2,1.03-.57,1.55-.85.58-.31,1.2-.35,1.56-.77.37-.44,1.25-.5,1.61-.93.42-.51.81-1.15.98-1.61.21-.56-.43-.97-1.05-1.41-.35-.25-.7-.61-1.43-.8Z"/></g></svg>