<?xml version="1.0" encoding="UTF-8"?><svg id="mouth" xmlns="http://www.w3.org/2000/svg" viewBox="0 0 300 300"><defs><style>.cls-1{fill:#853421;}</style></defs><g id="mouth_7"><path class="cls-1" d="m142.8,211.51c.49-.03.97-.74,1.58-.84.51-.08,1.11.17,1.69.02.51-.13.95-.54,1.51-.73.5-.17,1.22.14,1.75-.1.49-.21,1.01-.46,1.52-.74.47-.25.99-.51,1.48-.81.46-.29.59-1.08,1.05-1.42.44-.32.95-.54,1.39-.91.41-.35,1.12-.4,1.53-.8.39-.38.43-1.12.82-1.54.37-.4.59-.93.95-1.37.35-.42,1.31-.37,1.65-.83s.07-1.31.39-1.79c.36-.54,1.15-.14,1.66.01s.84.25.83.91c0,.52.05,1.07,0,1.64-.04.53.43,1.15.35,1.71s-.5,1.04-.62,1.59-.41,1.03-.57,1.56-.18,1.11-.39,1.62-.21,1.15-.48,1.64-.8.83-1.14,1.27-.95.61-1.35,1.01-.78.72-1.23,1.05-.84.65-1.34.92c-.47.25-.82.82-1.35,1.02s-1.26-.15-1.78,0c-.57.16-1.01.72-1.54.81-.59.1-1.18-.18-1.71-.16-.6.02-1.2.68-1.73.62-.6-.07-1.15-.45-1.66-.6-.57-.17-1.06-.52-1.54-.76-.53-.27-1.21-.33-1.63-.66-.48-.37-.74-.98-1.09-1.36-.36-.4-.41-1.01-.23-1.44s.65-.5,1.2-.53Z"/></g></svg>