<?xml version="1.0" encoding="UTF-8"?>
<svg id="mouth" xmlns="http://www.w3.org/2000/svg" viewBox="0 0 300 300">
  <path d="m81.71,212.88c.46,1.9.21,4.02,1.03,5.78s2.11,3.28,3.25,4.88,2.34,3.06,3.73,4.48,3.18,2.16,4.73,3.4,2.36,3.3,4.03,4.37,3.63,1.46,5.38,2.38c1.69.89,3.27,2.12,5.09,2.9s3.62,1.39,5.48,2.05,3.87.58,5.76,1.13,3.61,1.43,5.52,1.88,3.81.7,5.73,1.05,3.74,1.25,5.67,1.51,3.88.38,5.83.54,3.91-.16,5.85-.08,3.88-.46,5.82-.48,3.94,1.17,5.87,1.05,3.78-1.54,5.7-1.75,3.96.26,5.87-.06,3.82-.85,5.69-1.28,3.93-.51,5.77-1.06,3.42-2.08,5.21-2.77,4.06-.49,5.78-1.34,2.93-2.81,4.56-3.81,3.57-1.67,5.08-2.85,2.89-2.62,4.23-4,2.66-2.83,3.8-4.4,2.7-2.94,3.59-4.68,1.77-3.55,2.38-5.42.6-3.87.92-5.84" style="fill: none; stroke: #853421; stroke-linecap: round; stroke-miterlimit: 10; stroke-width: 2.67px;"/>
</svg>