<?xml version="1.0" encoding="UTF-8"?><svg id="hair" xmlns="http://www.w3.org/2000/svg" viewBox="0 0 300 300"><defs><style>.cls-1{fill:#fff;}.cls-2{fill:#d66a5e;}</style></defs><g id="hair_8"><g id="hair_8-2"><path class="cls-2" d="m31.11,234.89c-1.04-1.17-1.81-2.5-2.66-3.88s-.92-2.98-1.58-4.48c-.62-1.42-2.49-2.4-2.98-3.97-.46-1.48-1.55-2.92-1.9-4.51-.34-1.52,1.07-3.42.83-5.03s-.55-3.08-.7-4.7-.36-3.12-.44-4.74-.46-3.15-.48-4.76c-.01-1.57.39-3.16.43-4.77s-1.37-3.24-1.28-4.84.69-3.16.82-4.76,1.19-3.09,1.35-4.68-.21-3.23-.02-4.81-.23-3.26,0-4.83c.22-1.58,1.25-3.05,1.5-4.62s-.07-3.26.21-4.82c.28-1.58.29-3.21.59-4.76.3-1.58,2.58-2.76,2.89-4.3.32-1.58,0-3.27.32-4.81.34-1.58-.59-3.42-.24-4.95s.7-3.15,1.06-4.67,1.94-2.85,2.32-4.36c.4-1.59,1.76-2.88,2.15-4.37.42-1.6-.5-3.5-.1-4.97.44-1.62.53-3.26.94-4.7.47-1.66.65-3.28,1.07-4.67.52-1.75,2.96-2.68,3.36-3.97.9-2.91-1.23-2.88-.53-5.15.44-1.58.6-3.23,1.08-4.75s3.19-2.35,3.73-3.84c.56-1.54-.9-3.83-.3-5.3s3.13-2.19,3.79-3.63c.68-1.49.24-3.48.97-4.9s1.38-2.96,2.18-4.35,1.92-2.65,2.78-3.99c.88-1.38,1.51-2.92,2.42-4.22s2.35-2.31,3.33-3.57,2.59-2.05,3.63-3.26,1.31-3.18,2.41-4.33,2.82-1.76,3.98-2.86,2.32-2.24,3.53-3.28c1.23-1.06,2.53-2,3.78-2.99s2.16-2.52,3.46-3.45,3.31-.86,4.66-1.72,1.69-3.47,3.07-4.27,3.7-.03,5.11-.76,2.38-2.5,3.82-3.18,3.46-.18,4.93-.79,2.63-2.17,4.12-2.72,2.85-1.78,4.36-2.27,3.23-.7,4.75-1.14,3.24-.6,4.77-.98c1.62-.4,3.17-.91,4.7-1.22,1.64-.34,3.21-.88,4.73-1.14,1.68-.28,3.34-.28,4.84-.48,1.73-.23,3.34-.62,4.81-.76,1.84-.17,3.58,1.4,4.94,1.33,3.07-.15,2.37-.05,4.79-.07,1.63-.09,3.25-.76,4.84-.81s3.23-1.72,4.82-1.73,3.24,1.98,4.83,2.01,3.28-.94,4.86-.86,3.23.49,4.81.62,3.37-.86,4.95-.68,2.92,2.7,4.49,2.94,3.62-1.88,5.18-1.58,3.21.78,4.75,1.14,2.63,2.86,4.16,3.28,3.21.49,4.72.99,3.67-.59,5.15-.02,2.41,2.72,3.86,3.36,3.19.83,4.61,1.54,2.41,2.31,3.79,3.11,2.65,1.77,3.99,2.64,2.83,1.51,4.12,2.46,3.16,1.19,4.39,2.21,2.28,2.31,3.45,3.4,2.84,1.75,3.95,2.91.99,3.46,2.03,4.68,2.28,2.25,3.26,3.52c.99,1.28,2.49,2.16,3.41,3.48s1.53,2.85,2.38,4.22,2.58,2.24,3.37,3.64.07,3.61.79,5.05,3.18,2.06,3.84,3.53.2,3.44.8,4.93c.6,1.5.54,3.23,1.09,4.74s1.22,2.97,1.72,4.5,2.76,2.54,3.21,4.08c.45,1.55.74,3.18,1.14,4.73s-.56,3.47-.2,5.04.15,3.26.47,4.83,1.9,2.93,2.18,4.5-.69,3.4-.44,4.98,1.48,3.05,1.7,4.63-.27,3.31-.08,4.89-.21,3.28-.05,4.86c.17,1.63,2.61,3.01,2.76,4.58s-.13,3.29,0,4.86c.14,1.65-.96,3.36-.83,4.92.13,1.66,1.35,3.18,1.47,4.74.13,1.67.62,3.25.75,4.78.14,1.69.39,3.27.54,4.78.16,1.57-.92,3.28-.78,4.88s.83,3.12.95,4.72c.12,1.58.36,3.17.46,4.76s-.73,3.23-.66,4.82c.08,1.6.72,3.16.78,4.75s1.07,3.17,1.12,4.75-.05,3.22-.02,4.79-1.57,3.23-1.56,4.8c0,1.62.52,3.22.5,4.77-.02,1.64-.63,3.22-.67,4.76-.04,1.65,1.47,3.31,1.4,4.83-.08,1.67-1.71,3.18-1.82,4.69-.12,1.71-.84,3.22-1,4.67-.2,1.81-.27,3.33-.52,4.66-.45,2.35-.43,3.55-1.05,4.08-1.32,1.13-2.24.82-3.54.76-2.28-.12-4.31,2.29-5.26.31.47-1.63,1.04-3.94,1.35-5.53.33-1.68,1.27-3.17,1.45-4.77.19-1.72,1.46-3.33,1.52-4.91.06-1.77.19-3.52.13-5.05-.07-1.87-2.47-3.38-2.63-4.79-.34-3.06,2.94-5.03.54-5.67-.23,1.66-1.6,3.75-1.89,5.32-.3,1.67,1.21,3.65.86,5.19-.38,1.68-1.92,3-2.32,4.5-.46,1.7-1.58,3.06-2.04,4.5-.56,1.78.02,3.7-.46,5.01-1.06,2.9-.26,2.77-2.18,4.29-1.61.22-3.1,1.04-4.28.72-2.35-.64-2.76-.72-3.29-2.76.63-1.61,1.91-2.8,2.4-4.31.53-1.66-.63-3.72-.25-5.24.42-1.71,2.58-2.97,2.84-4.5.3-1.78-.14-3.58-.02-5.07.16-1.9.33-3.62.31-5-.04-3.17.54-2.93-1.42-4.45-.13,1.37.76,2.65.39,4.3-.33,1.45-2.17,2.59-2.64,4.11s-.02,3.28-.57,4.71-.69,3.22-1.33,4.55c-.74,1.55-2,2.76-2.76,3.89-1.21,1.82-2.7,2.01-3.71,2.01-3.82,0-4.19.13-4.13-3.08.76-1.37.36-3.12.92-4.69s1.77-2.8,2.16-4.39,1.68-3.04,1.94-4.61c.27-1.67-1.51-3.57-1.35-5.09.19-1.79,1.55-3.32,1.62-4.73.15-2.94,1.79-3.47-.22-4.82-.51,1.54.06,3.35-.46,4.71-.59,1.53-3.29,2.07-3.88,3.38-.68,1.52-.75,3.13-1.41,4.38-.81,1.51-1.35,2.94-2.1,4.08-1,1.53-1.83,2.79-2.65,3.74-2.02,2.35-1.35,1.59-3.55,2.26-1.7.15-3.09,1.5-4.11,1-2.14-1.03-1.66-1.39-1.51-3.47,1.02-1.11.48-2.7,1.39-4.03.86-1.25,2.38-2.14,3.16-3.54s1.44-2.78,2.1-4.21c.65-1.41,1.66-2.71,2.24-4.16.58-1.46,1.44-2.85,1.95-4.31.52-1.5.16-3.29.6-4.75.47-1.55.43-3.19.81-4.64.43-1.6.68-3.15,1.02-4.56.41-1.71,1.09-3.17,1.36-4.48.59-2.84.23-2.32.59-4.63.24-1.58.5-3.11.67-4.65s1.08-3.08,1.19-4.62-.17-3.19-.12-4.74-.46-3.16-.48-4.71-.11-3.14-.2-4.69c-.09-1.59-.53-3.1-.69-4.64s-.59-3.07-.82-4.6c-.24-1.58-.41-3.1-.71-4.61s-.64-3.06-1.02-4.55c-.39-1.55.93-3.55.48-5.02s-1.06-3.04-1.58-4.48-1.44-2.88-2.03-4.3-1.19-2.98-1.86-4.36c-.7-1.46-.91-3.16-1.64-4.5-.78-1.43-2.84-2.08-3.63-3.37-.85-1.4-.83-3.3-1.68-4.54-.93-1.37-2.31-2.34-3.21-3.52-1.03-1.34-1.56-2.98-2.5-4.07-1.15-1.34-3.09-1.74-4.04-2.71-1.5-1.54-2.54-2.75-3.26-3.36-1.29-1.08-2.41-1.34-3.23-1.64-2.56-.93-3.4-1.19-3.44.67.44,1.53,1.43,3.02,1.82,4.48.41,1.54,1.08,2.98,1.43,4.44.37,1.55-.69,3.37-.38,4.84.33,1.57,1.26,2.95,1.52,4.42.28,1.58,1.24,3,1.46,4.47.23,1.6.29,3.16.45,4.64.17,1.62.25,3.18.35,4.65.11,1.64-.35,3.21-.32,4.66.03,1.67,1.34,3.24,1.29,4.68-.06,1.71-.15,3.32-.29,4.7-.19,1.81-.78,3.36-1.02,4.61-.58,3.02-.14,2.74-1.8,4.37-1.37.49-2.96.73-4.55.81s-3.32,1.11-4.73.98c-2.62-.24-3.67.46-4.99-1.44.64-1.46,2.44-3.19,2.88-4.83.42-1.57.81-3.27,1.08-4.9s.63-3.34.78-4.95c.16-1.71-.88-3.48-.82-5.03.07-1.83-.9-3.49-.92-4.92-.03-2.99.43-2.41.19-4.87-.19-1.66-.85-3.09-1.09-4.54-.27-1.67-.25-3.2-.57-4.62-.37-1.68-.5-3.19-.92-4.55-.53-1.69-1.13-3.02-1.71-4.27-.78-1.68-.2-3.87-1.02-4.9-1.24-1.56-3.49-1.17-4.62-1.65-2.58-1.1-3.77-3.28-5.02-1.29.31,1.65,1.85,3.7,2.09,5.32s-.17,3.4.01,5.03.2,3.34.32,4.97c.13,1.69.89,3.31.96,4.94s-1.24,3.39-1.22,5.01c.02,1.71.98,3.36.95,4.97-.03,1.72-.64,3.36-.72,4.95-.08,1.75.2,3.42.08,4.98-.14,1.79.87,3.57.71,5.08-.2,1.89-2.26,3.32-2.45,4.71-.44,3.13,1.15,2.8-.12,4.93-1.12.74-3.1,2.16-5.08,2.05-2.67-.16-2.97-.4-4.83-2.28.55-1.47.05-2.86.44-4.49.37-1.54,1.42-2.97,1.67-4.61s1.17-3.15,1.3-4.79-.32-3.29-.28-4.92c.03-1.62-1.51-3.23-1.56-4.84s1.89-3.37,1.77-4.96-.98-3.23-1.17-4.81c-.2-1.67-1.43-3.12-1.7-4.66-.29-1.7-.84-3.19-1.2-4.66-.42-1.76,1.02-3.89.55-5.23-.72-2.04-2.42-3.15-3.17-3.9-1.34-1.34-2.39-2.11-3.32-2.2-2.16-.2-2.59.21-2.97,2.18.36,1.6,1.17,2.96,1.47,4.49.32,1.62-.55,3.41-.29,4.94.28,1.63.63,3.18.86,4.71.24,1.64,1.96,3.04,2.14,4.57.19,1.66,0,3.32.13,4.84.14,1.67-1.75,3.4-1.67,4.92.09,1.69,2.07,3.23,2.09,4.73.02,1.72.25,3.36.2,4.84-.06,1.76-1.65,3.28-1.78,4.71-.17,1.87,1.23,3.68,1.01,4.99-.52,3.14-.25,3.05-1.96,4.74-1.86.84-3.75.88-5.11.75-2.84-.27-3.94.41-4.89-1.89.36-1.35.97-3.1,1.19-4.81.18-1.46-.73-3.07-.64-4.73.08-1.5.18-3.02.17-4.64,0-1.53.75-3.09.68-4.69s-.87-3.05-1-4.63c-.12-1.56.5-3.18.32-4.73-.18-1.58-.51-3.11-.74-4.64-.23-1.59,1.01-3.41.72-4.91-.3-1.61-2.65-2.72-3-4.17-.4-1.63.71-3.58.26-4.95-.56-1.7-1.44-3.15-2.06-4.33-1.03-1.93-2.52-2.88-3.68-2.88-1.09,0-1.77,1.43-2.25,3.76-.26,1.28-.82,2.82-.94,4.6-.1,1.43.59,3.03.57,4.69-.02,1.49.1,3.04.13,4.66.03,1.52-.93,3.12-.85,4.71s1.02,3.06,1.12,4.62c.1,1.56.8,3.07.92,4.62.12,1.58-1.71,3.29-1.58,4.81.14,1.61,1.66,3.04,1.8,4.53.16,1.65.85,3.15,1,4.59.18,1.75-1.03,3.46-.88,4.79.32,2.88,2.25,2.57,1.5,4.78-1.28,1.36-3.44,1.08-4.99.95-2.45-.21-2.26-.25-4.25-1.69-.7-.77-.48-2.01-.89-4.13-.27-1.38-.95-2.83-1.13-4.61-.15-1.49-.56-3.06-.67-4.75-.09-1.54-1.66-3.09-1.73-4.74-.06-1.58-.03-3.2-.07-4.83-.04-1.6,0-3.22-.04-4.82-.04-1.63,1-3.27.96-4.84-.04-1.66-1.39-3.23-1.44-4.78-.06-1.7.82-3.35.73-4.84-.1-1.8-.84-3.34-1-4.71-.29-2.4-.08-3.9-.67-4.42-3.55-3.1-4.92-2.56-6.53.58-.71,1.31-.45,3.23-.91,4.81-.42,1.44-.07,3.1-.31,4.71-.22,1.5-2.12,2.92-2.21,4.53s1.07,3.17,1.08,4.76.55,3.1.64,4.67c.09,1.57.26,3.12.41,4.66s.38,3.13.57,4.65c.2,1.61,1.03,3.07,1.24,4.56.23,1.65-1.31,3.47-1.1,4.91.27,1.75.7,3.28.88,4.61.35,2.53.81,4.07.55,4.49-.56.91-1.88.87-3.19,1.19-1.82.45-1.71,1.64-3.53,1.32-1.32-.59-1.75-2.3-2.63-3.99-.67-1.28-2.93-2.22-3.39-3.97-.38-1.47.37-3.36.12-5.07-.23-1.55-.04-3.21-.18-4.89-.13-1.59-.9-3.18-.96-4.84s.7-3.27.69-4.9c0-1.65-.14-3.28-.11-4.88s-1.3-3.37-1.23-4.94c.08-1.72,1.85-3.28,1.95-4.8.12-1.83.47-3.44.59-4.84.25-3.01,1.78-3.83-.35-5.03-.97,1.42-2.46,2.64-3.24,4.07-.82,1.51-1.36,3.16-1.99,4.66-.67,1.58-.3,3.49-.79,5.04-.51,1.63-2.05,2.96-2.38,4.56-.36,1.68.97,3.57.78,5.19-.21,1.71-2.05,3.22-2.12,4.84-.07,1.73-.62,3.46-.58,5.07.04,1.76,1.95,3.36,2.07,4.94.13,1.8-.17,3.5-.03,5.03.18,1.92.28,3.62.31,5.01.05,2.48-.21,4.64-1.44,5.03-5.57,1.77-5.58,1.48-6.38-1.86-.73-1.47-1.33-3-1.82-4.59-.49-1.56.3-3.42,0-5.06s-1.47-3.09-1.6-4.75.13-3.31.13-4.96c0-1.67.81-3.27.91-4.9s-1.87-3.52-1.69-5.12c.19-1.7.47-3.39.71-4.96.26-1.74,2.6-3.03,2.88-4.54.34-1.83-.17-3.63.11-5.03.54-2.63-.46-4.2-.55-4.68-.21-1.11-.38-.14-1.93,1.02s-2.66.13-4.03,1.6c-1.02,1.26-.75,3.57-1.68,4.81-.97,1.29-2.22,2.32-3.1,3.59-.93,1.33-.96,3.17-1.79,4.48s-2.01,2.47-2.78,3.81-1.71,2.67-2.42,4.05-.9,3.07-1.55,4.47-3.35,2.04-3.92,3.48-.56,3.24-1.05,4.71.04,3.34-.36,4.83-1.45,2.92-1.76,4.44.11,3.24-.11,4.77c-.22,1.59-1.36,3.05-1.48,4.6-.13,1.6.59,3.22.55,4.77s-.89,3.19-.85,4.74c.05,1.6-.3,3.23-.18,4.79s.6,3.17.79,4.72c.19,1.6,2.04,2.93,2.27,4.47s-.51,3.3-.25,4.83-.84,3.38-.58,4.91c.27,1.59,1.21,3.03,1.45,4.55.25,1.6,1.87,2.99,2.05,4.51.19,1.62-.26,3.27-.2,4.81.07,1.62.46,3.47.34,5.01-1.07,2.64-2.66,1.3-4.99,3.33-1.36,1.18-1.99,2.24-3.87,2.77-1.92-1.14-.25-1-.5-3.74-.12-1.28-.49-2.76-.68-4.42-.16-1.38.1-2.93-.13-4.49-.21-1.42-.4-2.92-.67-4.43s-1.45-2.74-1.77-4.2-.45-2.95-.83-4.38-.3-3.7-.77-5.08c-2.3-1.21-1.53,1.14-2.33,5.23-.25,1.3-.79,2.89-.79,5.08,0,1.35-.85,2.98-.68,4.65.14,1.44.74,2.95.97,4.52.22,1.48,1.45,2.83,1.74,4.35s-.21,3.18.12,4.65c.34,1.55,0,3.24.35,4.65.41,1.62,1.53,2.94,1.94,4.25.59,1.9.59,3.24,1.06,4.12-.29,2.17.21,2.05-1.37,3.96-.84,1.02-1.89,2.28-3.16,3.16-1.15.8-3.3,2.03-4.79,2.35-2.05-1.15-.8-2.31-1.8-5.13-.44-1.25.52-3.22,0-4.94-.41-1.37-1.69-2.63-2.11-4.27-.36-1.43.32-3.18-.02-4.79-.31-1.47-.72-2.94-.99-4.55-.25-1.49-1.81-2.83-2.01-4.44-.19-1.51.05-3.12-.09-4.72s.25-3.11.19-4.71-.46-4.19-.46-5.79c-2.4-.27-1.67,2.4-2.71,5.28-.46,1.27-.2,3.06-.59,4.87-.31,1.42-1.19,2.93-1.37,4.68-.15,1.49,1.36,3.14,1.36,4.86,0,1.52-1.17,3.13-1.02,4.82.13,1.52.86,3.03,1.15,4.7.26,1.52-.84,3.41-.44,5.04.37,1.5,2.89,2.46,3.39,4.05.47,1.48.73,3.02,1.33,4.58.56,1.45.76,3.23,1.43,4.75.16,1.92-.35,2.46-2.14,3.79-.84.62-2.66-.71-4.22-.49-1.15.16-2.13.25-3.38-1.63-.75-1.12-1.71-2.43-2.42-4.12-.56-1.35-1.8-2.66-2.3-4.3-.44-1.44.95-3.47.58-5.1-.34-1.5-2.7-2.66-2.97-4.29-.26-1.54.64-3.3.46-4.92s.63-3.2.54-4.82-1.91-3.12-1.9-4.74c0-1.59.43-2,.53-3.6-2.15-.7-.71.1-1.56,2.91-.36,1.2.14,2.81-.1,4.56-.19,1.34.19,2.77.15,4.44-.03,1.39.06,2.78.18,4.4.1,1.41-.5,2.92-.25,4.51.22,1.41-1.05,3.2-.7,4.76.32,1.4.76,2.91,1.19,4.43.4,1.39,2.26,2.41,2.77,3.9.47,1.49-.19.96-2.85,1.84Z"/></g><path class="cls-1" d="m175.33,44.35s-2.28-11.08-26.14-9.75-25.31,17.24-18.38,15.71,18-11.36,34.64-2.67c0,0-13.82-.85-14.11,5.91s6.36,5.25,8.13,4.46,11.29-7.23,12.3-4.46-4.05,12.97,3.57,12.53.41-9.75,3.57-10.2,9.8,2.38,15.35,6.73c5.55,4.35,7.77-12.14-8.2-14.98,0,0,1.5-1.53,8.07-.41s5.68-11.74-5.85-9.52c-11.53,2.22-12.95,6.65-12.95,6.65Z"/></g></svg>