<?xml version="1.0" encoding="UTF-8"?><svg id="hair" xmlns="http://www.w3.org/2000/svg" viewBox="0 0 300 300"><defs><style>.cls-1{fill:#a8534a;}.cls-2{fill:#d66a5e;}</style></defs><g id="hair_14"><path class="cls-2" d="m250.96,116.72c.29-.5.68-1.45.89-2s.73-.96.84-1.55.23-1.15.23-1.74c0-.68.21-1.42.08-2.06s-.19-1.44-.45-2.05-.99-1.05-1.37-1.6-1.17-.72-1.65-1.18-1.33-1.06-1.9-1.42c.44-.52,1.53-1.1,1.88-1.7s.34-1.35.58-2,1.14-1.14,1.26-1.83-.66-1.45-.66-2.15.78-1.48.66-2.15-1.38-1.06-1.61-1.7c-.24-.65.28-1.63-.06-2.22s-.65-1.31-1.09-1.83-1.58-.36-2.11-.81-.93-.96-1.52-1.3-1.13-.73-1.78-.97-1.28-.43-1.96-.55-1.33-.24-2.03-.24c-.53,0-1.05-.04-1.56.03s-.82.11-1.32.24c.28-.55.37-.99.56-1.58s.3-1.19.4-1.81.67-1.22.67-1.84c0-.7-.54-1.4-.66-2.06s-.89-1.15-1.12-1.79.45-1.73.11-2.32-.9-1.15-1.34-1.67-1.1-.91-1.63-1.35-1.17-.77-1.76-1.12-1.08-1.06-1.73-1.29-1.41-.33-2.1-.45-1.43.28-2.12.28c-.76,0-1.44.33-2.16.47s-1.57-.08-2.25.2-1.42,1.06-2.04,1.46c.1-.61.44-1.53.44-2.16,0-.7-.66-1.31-.78-1.97s-.22-1.29-.46-1.93-.46-1.24-.8-1.83-.48-1.3-.92-1.83-1-.92-1.52-1.36-1.25-.5-1.85-.85-.8-1.51-1.45-1.75-1.47.09-2.16-.03-1.34.29-2.04.29c-.74,0-1.41-.23-2.11-.1s-1.49.02-2.16.28-1.32.7-1.93,1.08c0-.69.52-1.52.4-2.18s-.49-1.38-.73-2.01-.95-1.1-1.29-1.68-.43-1.41-.87-1.93-1.08-.92-1.6-1.36-1.28-.56-1.87-.9-1.36-.15-2-.39-1.06-1.13-1.74-1.24-1.37-.19-2.06-.19c-.63,0-1.25.15-1.85.24s-1.23.24-1.81.42-1.24.29-1.79.57-1.02.74-1.52,1.09-1.06,1.23-1.5,1.67c-.22-.68.03-1.93-.31-2.55s-1.17-.96-1.61-1.51-.71-1.29-1.24-1.76-1.22-.76-1.83-1.12-1.07-1.16-1.73-1.41-1.44-.47-2.14-.6-1.49.74-2.21.74c-.64,0-1.23-.06-1.84.04s-1.29,0-1.88.19-.92.96-1.48,1.24-1.5-.06-2.01.31-.8.78-1.24,1.24c-.36-.52-.63-.95-1.07-1.4s-.95-.89-1.46-1.27-1.16-.57-1.72-.86-.97-1.04-1.58-1.25-1.3-.37-1.93-.47-1.33.73-1.98.73-1.41-.9-2.04-.79-1.21.78-1.82.99-1.02.86-1.59,1.17-1.08.63-1.59,1.03-1.64.17-2.08.65-.61,1.26-.96,1.81-.11,1.4-.38,2-.77,1.39-.93,2.03c-.35-.57-.52-1.68-.97-2.18s-1.35-.54-1.87-.96-1.11-.65-1.69-.98-.94-1.09-1.58-1.32-1.37.03-2.04-.09-1.27-.94-1.95-.94-1.43.29-2.1.41-1.4.31-2.04.54-1.26.65-1.85.99-1.01.97-1.53,1.41-1.01.9-1.46,1.43-.78,1.1-1.13,1.7-.29,1.31-.53,1.96-.86,1.14-.98,1.82-.44,1.35-.44,2.05c0,.1.21.3.22.4-.48-.33-1.08-.46-1.61-.72s-1.04-.43-1.61-.61-1.09-.28-1.67-.37-1.11-.21-1.71-.21c-.69,0-1.32.07-1.98.19s-1.47-.21-2.1.02-1.37.42-1.96.75-.92,1.12-1.44,1.55-1.16.77-1.6,1.29-1,1-1.35,1.59-.21,1.42-.45,2.06-.43,1.25-.56,1.93-.42,1.16-.43,1.85c-.52-.44-1.31-.2-1.91-.54s-.85-1.35-1.5-1.59-1.47.31-2.16.19-1.26-.83-1.96-.83-1.41.08-2.07.19-1.51-.08-2.15.15-.88,1.39-1.48,1.73-1.51.22-2.03.66-.93,1.05-1.37,1.58-.45,1.33-.79,1.92-1.22.93-1.46,1.58-.63,1.31-.75,2,0,1.43,0,2.13c0,.48.54,1.23.59,1.7-.49-.13-1.2-.63-1.71-.7s-1.03.23-1.55.23c-.7,0-1.4-.25-2.07-.14s-1.43.12-2.07.36-1.05,1.01-1.64,1.35-1.1.74-1.63,1.18-.88.97-1.32,1.5-.92.96-1.26,1.55-1.34.91-1.57,1.56.32,1.52.2,2.2-.73,1.3-.73,2c0,.57.68,1.08.76,1.63s.3,1.03.46,1.56.13,1.34.37,1.85c-.66.23-1.42.55-2.02.89s-1.27.57-1.8,1.01-.81,1.12-1.25,1.64-1.09.89-1.44,1.49-.58,1.25-.82,1.9-.03,1.37-.15,2.06c-.12.67,0,1.28,0,1.99s-.49,1.43-.36,2.12-.01,1.29.24,1.95c-.61.21-.58,1.13-1.12,1.44s-1.49.02-1.97.44c-.48.42-.77,1.04-1.16,1.54s-1.16.81-1.45,1.37-.03,1.38-.21,1.99-.85,1.16-.9,1.8.49,1.29.55,1.93c.06.59-.33,1.3-.17,1.86s.37,1.21.62,1.73.57.61.91,1.08c-.6.19-.46,1.05-.99,1.37s-1.5.06-1.95.49-1.16.8-1.5,1.33-.18,1.39-.4,1.98.15,1.27.07,1.9-.68,1.2-.62,1.84c.08.73.43,1.41.68,2.07.26.68.58,1.33,1,1.91s1.31.64,1.87,1.09.86,1.15,1.52,1.45,1.28.63,2,.75,1.38-.22,2.11-.3,1.52.23,2.18-.02,1.01-1.09,1.58-1.51,1.07-.81,1.52-1.37c.45-.56,1.17-.92,1.46-1.58s.17-1.41.29-2.13.23-1.35.15-2.09c-.06-.56.33-1.21.17-1.73s-.27-.6-.53-1.07c.71-.13,1.12-.23,1.77-.5s1.38-.65,1.96-1.05.94-1.18,1.42-1.69,1.28-.9,1.64-1.5-.3-1.69-.07-2.36,1.37-1.13,1.45-1.85-.94-1.4-1.01-2.12c-.03-.3.63-.35.57-.64.69-.11,1.2-.51,1.85-.73s.99-1.07,1.59-1.4,1.1-.68,1.63-1.12,1.13-.72,1.58-1.24,1.05-.91,1.4-1.51.77-1.17,1.01-1.82.22-1.36.34-2.05-.09-1.34-.09-2.05c0-.52.43-1.05.36-1.56s-.27-.73-.41-1.22c.54.48,1.07.7,1.69,1.08s1.12,1.1,1.8,1.36,1.46.43,2.18.56,1.5-.27,2.24-.27c.7,0,1.41.11,2.07,0s1.5.04,2.14-.19,1.07-1.05,1.66-1.4,1.45-.37,1.98-.81.28-1.63.73-2.16,1.22-.75,1.56-1.34.41-1.28.65-1.93.63-1.21.75-1.89-.16-1.33-.16-2.03c0-.79.69-1.24.54-1.98.5.37.63.5,1.18.79s1,.96,1.6,1.16,1.3.22,1.93.32,1.3-.27,1.93-.27c.71,0,1.44.1,2.11-.02s1.16-.97,1.81-1.21,1.32-.32,1.91-.68.98-.9,1.51-1.36,1.54-.42,1.98-.96.53-1.33.87-1.94.4-1.29.63-1.96.57-1.61.67-2.31c.44.47,1.39.89,1.9,1.28s.47,1.64,1.04,1.94,1.48-.12,2.09.09,1.21.25,1.85.35,1.21.37,1.87.37,1.24-.2,1.86-.3,1.12-.52,1.72-.72,1.22-.21,1.78-.51,1.37-.2,1.88-.58.41-1.41.85-1.86,1.6-.31,1.96-.84.15-1.39.42-1.97.73-.66.9-1.28c.27.58.22.95.58,1.48s1.17.72,1.61,1.18.69,1.15,1.19,1.54,1.22.47,1.79.77,1.02.88,1.63,1.08,1.32-.03,1.96.07,1.23.79,1.88.79c.71,0,1.45-.37,2.12-.49s1.48-.14,2.12-.38,1.39-.52,1.99-.87.91-1.19,1.44-1.65.56-1.32,1.01-1.87,1.32-1.11,1.66-1.72c.16.64.3,1.65.56,2.24s.6,1.17.95,1.71.82,1.01,1.26,1.49.71,1.17,1.23,1.57,1.04.89,1.61,1.2,1.26.5,1.88.71,1.35-.03,2,.08,1.26-.21,1.92-.21c.63,0,1.26.6,1.86.5s1.35.09,1.93-.1,1.19-.54,1.73-.82.65-1.29,1.15-1.65,1.39-.25,1.83-.68.61-1,.98-1.5c.1.7.53,1.22.75,1.87s.24,1.41.57,2.02,1.26.78,1.7,1.32.19,1.74.72,2.19,1.65.07,2.25.43.94,1.15,1.6,1.39,1.23.92,1.93,1.04,1.46.07,2.17.07c.63,0,1.29-.19,1.9-.29s1.26-.27,1.84-.46.86-1.11,1.41-1.39,1.15-.38,1.65-.75.94-.74,1.38-1.19c0,0,.67.22.67.23,0,.7-.76,1.45-.64,2.11s.62,1.3.85,1.94.25,1.44.59,2.04,1.19.87,1.63,1.39.4,1.6.93,2.04c.52.44,1.2.87,1.79,1.21s1.38.47,2.03.7,1.36.47,2.04.59,1.42-.43,2.12-.43c.65,0,1.31.35,1.93.25s1.22-.45,1.81-.65c-.01.2-.13.41-.13.62,0,.7.16,1.39.28,2.05s.48,1.28.72,1.92.84,1.06,1.18,1.65-.11,1.75.33,2.27.9,1.17,1.43,1.61,1.63.11,2.23.45,1.22.47,1.87.7,1.08,1.2,1.77,1.32,1.41-.27,2.11-.27c.59,0,1.21.37,1.78.29s1.03-.47,1.58-.64c-.11.6-.73,1.16-.73,1.79,0,.72.25,1.53.39,2.2s.62,1.37.91,2.01.95,1.1,1.37,1.67.44,1.6.98,2.06,1.7.06,2.33.4,1.18.6,1.87.8.98.94,1.7.99c-.21.5.04.79-.07,1.33s-.45,1.05-.45,1.6c0,.74-.25,1.59-.07,2.27s1.23,1.08,1.59,1.7c.36.62.96.93,1.46,1.44s.89.97,1.52,1.33,1.1.84,1.81,1.03,1.34.81,2.08.81,1.38-.69,2.06-.87,1.24-.55,1.86-.91,1.16-.7,1.67-1.2.92-1,1.28-1.62.68-1.19.87-1.89.84-1.34.84-2.07c0-.64.12-1.39-.02-1.99s-.74-1.16-1.02-1.71c-.28-.56-.44-1.29-.83-1.77s-1.22-.6-1.71-.98-1.05-.62-1.62-.89-1.62-.32-2.24-.45Z"/><path class="cls-1" d="m181.38,66.66c.12-.7.32-1.38.6-2.01s.65-1.25,1.06-1.81.9-1.08,1.44-1.53,1.1-.88,1.72-1.21,1.29-.56,1.98-.73,1.37-.33,2.08-.33c.56,0,1.12.06,1.65.14.68.11,1.16-.28,1.3-.8s-.06-1.12-.69-1.39-1.29-.45-1.99-.57-1.35-.19-2.06-.16c-.64.03-1.29.03-1.9.19s-1.18.49-1.74.77-1.15.56-1.64.95-.92.88-1.32,1.36-.75,1.01-1.05,1.57-.5,1.15-.67,1.76c-.18.65-.4,1.28-.44,1.92s.02,1.33.12,1.97c.13.88,1.4.89,1.55,0,0-.03,0-.07.01-.1Z"/><path class="cls-1" d="m137.18,57.74c.46.2.9.44,1.29.73s.76.64,1.08,1.02.6.79.82,1.23.43.89.56,1.38.18.98.19,1.47.01,1-.1,1.49c-.08.39-.22.76-.36,1.11-.19.45,0,.84.34,1.02s.78.14,1.06-.25.51-.82.71-1.28.35-.9.44-1.39c.08-.44.19-.89.18-1.33s-.16-.89-.27-1.32-.2-.88-.39-1.28-.46-.77-.73-1.12-.58-.68-.91-.97-.71-.52-1.11-.74c-.42-.23-.81-.49-1.24-.62s-.92-.19-1.37-.23c-.63-.05-.83.82-.25,1.06.02,0,.05.01.07.02Z"/><path class="cls-1" d="m200.95,69.77c.46.2.9.44,1.29.73s.76.64,1.08,1.02.6.79.82,1.23.43.89.56,1.38.18.98.19,1.47.01,1-.1,1.49c-.08.39-.22.76-.36,1.11-.19.45,0,.84.34,1.02s.78.14,1.06-.25.51-.82.71-1.28.35-.9.44-1.39c.08-.44.19-.89.18-1.33s-.16-.89-.27-1.32-.2-.88-.39-1.28-.46-.77-.73-1.12-.58-.68-.91-.97-.71-.52-1.11-.74c-.42-.23-.81-.49-1.24-.62s-.92-.19-1.37-.23c-.63-.05-.83.82-.25,1.06.02,0,.05.01.07.02Z"/><path class="cls-1" d="m155.01,53.6c.42-.29.85-.52,1.31-.7s.95-.29,1.44-.36.99-.08,1.48-.04.99.11,1.46.27.92.38,1.34.64.85.52,1.21.88c.28.28.52.59.74.9.28.4.71.45,1.04.26s.53-.58.35-1.03-.42-.87-.7-1.28-.57-.78-.94-1.12c-.33-.31-.65-.64-1.03-.87s-.84-.33-1.26-.48-.85-.31-1.29-.36-.89-.02-1.34.02-.88.12-1.31.25-.82.32-1.22.54c-.42.23-.85.42-1.19.71s-.65.67-.93,1.04c-.38.5.25,1.15.76.78.02-.01.04-.03.06-.05Z"/><path class="cls-1" d="m236.02,94.45c.42.27.81.58,1.15.94s.64.76.89,1.19.45.88.6,1.35.28.96.32,1.45,0,.99-.07,1.48-.15.98-.34,1.45c-.15.37-.34.71-.55,1.03-.26.41-.14.83.16,1.06s.74.27,1.09-.07.64-.72.91-1.14.5-.82.67-1.3c.16-.42.34-.85.4-1.28s-.01-.9-.04-1.34-.04-.9-.16-1.33-.33-.83-.53-1.23-.45-.76-.74-1.11-.61-.63-.97-.92c-.37-.3-.72-.62-1.12-.82s-.87-.34-1.32-.46c-.61-.16-.96.67-.43,1.01.02.01.04.02.06.03Z"/><path class="cls-1" d="m114.7,70.52c.21-.46.46-.89.76-1.27s.66-.74,1.04-1.05.8-.58,1.25-.8.9-.41,1.39-.53.98-.15,1.48-.15,1,.01,1.49.13c.39.09.76.23,1.1.39.45.2.84.02,1.03-.32s.16-.77-.23-1.07-.81-.53-1.26-.74-.89-.37-1.38-.47c-.44-.09-.89-.21-1.33-.21s-.89.14-1.32.24-.88.18-1.29.36-.78.44-1.14.71-.69.56-.99.89-.54.7-.77,1.09c-.24.41-.5.8-.65,1.23s-.21.91-.26,1.37c-.07.63.8.85,1.06.28,0-.02.02-.05.03-.07Z"/><path class="cls-1" d="m220.33,86.85c.21-.46.46-.89.76-1.27s.66-.74,1.04-1.05.8-.58,1.25-.8.9-.41,1.39-.53.98-.15,1.48-.15,1,.01,1.49.13c.39.09.76.23,1.1.39.45.2.84.02,1.03-.32s.16-.77-.23-1.07-.81-.53-1.26-.74-.89-.37-1.38-.47c-.44-.09-.89-.21-1.33-.21s-.89.14-1.32.24-.88.18-1.29.36-.78.44-1.14.71-.69.56-.99.89-.54.7-.77,1.09c-.24.41-.5.8-.65,1.23s-.21.91-.26,1.37c-.07.63.8.85,1.06.28,0-.02.02-.05.03-.07Z"/><path class="cls-1" d="m89.35,76.4c.47-.18.95-.31,1.43-.38s.99-.07,1.48-.02.98.15,1.45.31.94.34,1.36.6.81.58,1.16.93.7.7.97,1.13c.21.34.38.7.52,1.05.18.45.59.6.95.49s.65-.44.58-.92-.2-.94-.38-1.41-.38-.89-.66-1.31c-.25-.38-.49-.77-.8-1.08s-.73-.52-1.11-.76-.76-.49-1.17-.65-.87-.23-1.31-.29-.88-.08-1.33-.06-.87.12-1.31.24c-.46.13-.92.22-1.32.43s-.79.51-1.14.8c-.49.4-.02,1.17.56.94.02,0,.04-.02.07-.03Z"/><path class="cls-1" d="m73.09,94.87c.02-.5.09-.99.22-1.47s.33-.94.56-1.37.52-.84.85-1.21.68-.72,1.09-1.01.85-.52,1.31-.71.93-.36,1.42-.44c.39-.06.79-.07,1.17-.07.49.01.78-.31.83-.69s-.15-.78-.62-.9-.95-.19-1.45-.2-.96,0-1.46.09c-.44.08-.9.16-1.3.33s-.78.46-1.14.71-.74.51-1.05.83-.56.7-.79,1.08-.43.78-.58,1.2-.24.85-.3,1.3c-.06.47-.15.93-.11,1.38s.15.93.28,1.36c.18.6,1.07.48,1.08-.15,0-.02,0-.05,0-.07Z"/></g></svg>