<?xml version="1.0" encoding="UTF-8"?><svg id="hair" xmlns="http://www.w3.org/2000/svg" viewBox="0 0 300 300"><defs><style>.cls-1{fill:#a8534a;}.cls-2{fill:#d66a5e;}</style></defs><g id="hair_9"><rect class="cls-2" x="208.14" y="68.52" width="4.51" height="14.77" rx="2.07" ry="2.07" transform="translate(42.63 -72.02) rotate(21.57)"/><rect class="cls-2" x="147.38" y="51.24" width="4.51" height="17.59" rx="2.25" ry="2.25"/><rect class="cls-2" x="160.53" y="54.81" width="4.51" height="14.77" rx="2.07" ry="2.07" transform="translate(17.04 -33.33) rotate(12.33)"/><rect class="cls-2" x="185.85" y="59.27" width="4.51" height="14.77" rx="2.07" ry="2.07" transform="translate(46.17 -73.64) rotate(25.16)"/><rect class="cls-2" x="172.65" y="56.39" width="4.51" height="14.77" rx="2.07" ry="2.07" transform="translate(17.65 -35.88) rotate(12.33)"/><rect class="cls-2" x="196.67" y="62.71" width="4.51" height="14.77" rx="2.07" ry="2.07" transform="translate(39.69 -68.21) rotate(21.57)"/><rect class="cls-2" x="134.2" y="53.62" width="4.51" height="14.77" rx="2.07" ry="2.07" transform="translate(282.8 91.45) rotate(167.67)"/><rect class="cls-2" x="108.33" y="59.27" width="4.51" height="14.77" rx="2.07" ry="2.07" transform="translate(239.02 79.98) rotate(154.84)"/><rect class="cls-2" x="121.53" y="56.39" width="4.51" height="14.77" rx="2.07" ry="2.07" transform="translate(258.33 99.64) rotate(167.67)"/><rect class="cls-2" x="97.51" y="62.71" width="4.51" height="14.77" rx="2.07" ry="2.07" transform="translate(218.31 98.61) rotate(158.43)"/><rect class="cls-2" x="86.04" y="68.52" width="4.51" height="14.77" rx="2.07" ry="2.07" transform="translate(198.31 114.04) rotate(158.43)"/><path class="cls-2" d="m246.03,120.28c-.63-.77-.6-.39-1.45-1.38-.36-.42.06-1.69-.46-2.26-.41-.44-1.64-.18-2.16-.69-.44-.44-.19-1.66-.71-2.15-.46-.43-1.13-.7-1.66-1.17-.48-.42-1.07-.77-1.6-1.21-.49-.41-1.5-.22-2.05-.64-.51-.4-.73-1.19-1.28-1.6-.52-.39-.92-.97-1.48-1.36s-1.23-.53-1.79-.91-1.32-.37-1.89-.74-.9-1.03-1.48-1.38-.86-1.14-1.44-1.48-1.15-.67-1.74-1-1.21-.56-1.81-.87-1.43-.12-2.03-.42-.82-1.33-1.43-1.62-1.48.04-2.1-.24-1.01-1.01-1.63-1.27-1.6.4-2.23.15-1.08-.86-1.7-1.11-1.16-.67-1.8-.9-1.4,0-2.04-.23-1.13-.8-1.77-1.01-1.25-.44-1.9-.64-1.14-.83-1.79-1.02-1.52.5-2.17.32-1.11-.96-1.77-1.13-1.15-.91-1.8-1.07-1.42.22-2.08.07-1.24-.59-1.89-.73-1.33-.16-1.99-.29-1.27-.5-1.93-.62-1.49.79-2.15.68-1.34,0-2-.11-1.31-.19-1.97-.29-1.14-1.55-1.81-1.63-1.49,1.28-2.16,1.21-1.24-.91-1.91-.98-1.27-.69-1.94-.75-1.42,1-2.09.95c-.66-.05-1.28-.74-1.95-.78s-1.36.53-2.04.49-1.34.15-2.01.13-1.31-.82-1.98-.84-1.34-.33-2.01-.34-1.35.79-2.02.79-1.34-.41-2.01-.4-1.32.72-2,.73-1.37-1.1-2.04-1.07-1.34.26-2.01.29-1.36-.3-2.03-.26-1.35.01-2.02.06-1.23,1.44-1.9,1.49-1.4-.62-2.07-.55-1.39-.4-2.06-.33-1.22,1.17-1.88,1.25-1.39-.36-2.06-.27-1.21.98-1.88,1.07-1.41-.36-2.07-.26-1.28.47-1.94.58-1.52-.89-2.18-.77-1.08,1.51-1.74,1.64-1.39-.15-2.05-.01-1.41-.19-2.07-.04-1.21.75-1.86.9-1.39-.04-2.04.11-1.09,1.17-1.74,1.34c-.65.16-1.39-.04-2.04.13s-1.32.25-1.96.43-1.54-.51-2.19-.33-1.22.64-1.86.83-1.16.79-1.8.99-1.46-.32-2.11-.13-.95,1.44-1.59,1.62-1.25.43-1.9.6-1.31.19-1.96.35-1.2.64-1.85.8-1.41-.25-2.07-.1-1.18.74-1.84.88c-.64.14-1.45-.45-2.1-.31s-1.37-.13-2.02,0-1.07,1.36-1.72,1.49-1.33.08-1.99.2-1.33.06-1.99.18-1.36-.14-2.02-.02-1.26.45-1.92.56-1.26.49-1.91.6-1.42-.56-2.08-.47-1.31.12-1.97.21c-.65.09-1.27.45-1.93.54s-1.31.1-1.97.18-1.18,1.17-1.84,1.25-1.4-.66-2.06-.59-1.25.67-1.91.73-1.31.14-1.97.2-1.3.34-1.96.4-1.42-1.09-2.08-1.04c-.66.05-1.31.17-1.97.22s-1.3.29-1.96.34-1.28.67-1.94.71-1.33-.08-1.99-.04-1.29.63-1.96.66-1.35-.44-2.01-.41-1.31.32-1.97.34-1.34-.62-2-.61-1.32-.16-1.98-.15-1.31,1.12-1.97,1.12-1.33-.09-1.99-.09-1.32-1.21-1.98-1.21-1.32-.04-1.98-.05-1.32.19-1.99.17-1.35.85-2.01.83-1.32-.13-1.99-.15-1.34.18-2,.15-1.29-.73-1.95-.76-1.36.51-2.02.47-1.24-1.16-1.9-1.21-1.4.81-2.05.75-1.49.06-2.15,0c-.9-.37-.52-.79-1.4-1.64-.4-.39-.99-.76-1.48-1.31-.4-.45-1.14-.74-1.56-1.29-.37-.49.11-1.65-.26-2.22-.34-.53-.47-1.17-.79-1.76-.3-.56-1.73-.61-1.99-1.22s.7-1.64.5-2.27-.88-1.07-1.02-1.72-.26-1.26-.33-1.92-.49-1.28-.5-1.94.27-1.3.32-1.97.8-1.17.91-1.83c.11-.62-.63-1.44-.46-2.09.16-.61.76-1.06.98-1.69.83-.52.65.09,1.91.14.55.02,1.22-.3,1.97-.29.6.01,1.25.65,1.96.66.62,0,1.28-.24,1.97-.24.63,0,1.29.43,1.97.42.63-.01,1.28-.57,1.95-.59.64-.02,1.29-.07,1.96-.1s1.25-.79,1.92-.83,1.31.26,1.97.21,1.28-.28,1.94-.34,1.4.97,2.06.9,1.16-1.35,1.81-1.43,1.41.75,2.06.65,1.26-.42,1.91-.52,1.35.09,1.99-.03,1.21-.64,1.86-.77,1.42.34,2.06.19,1.26-.44,1.89-.6,1.12-.89,1.75-1.07,1.48.33,2.1.13,1.31-.29,1.92-.51,1.15-.74,1.75-.98,1.35-.24,1.95-.5,1.08-.86,1.66-1.15.78-1.32,1.35-1.64.99-.84,1.54-1.19,1.56-.03,2.08-.42.71-1.25,1.26-1.67c.52-.4,1.66-.02,2.2-.44.52-.4.46-1.56,1.01-1.99s1.65-.04,2.19-.46,1.01-.86,1.56-1.27.99-.88,1.54-1.29,1.12-.72,1.67-1.12,1.09-.75,1.65-1.15.51-1.57,1.07-1.96,1.48-.21,2.04-.6,1.14-.69,1.7-1.07,1.15-.67,1.72-1.04,1.26-.49,1.83-.85.77-1.27,1.35-1.63,1.14-.7,1.72-1.04.92-1.09,1.5-1.42,1.06-.85,1.66-1.18,1.31-.4,1.91-.72,1.23-.53,1.84-.84,1.39-.21,2-.51.96-1.09,1.57-1.38,1.15-.72,1.76-1,1.51.09,2.13-.19.92-1.25,1.55-1.52,1.58.31,2.21.06.91-1.35,1.54-1.6,1.68.65,2.31.42,1.25-.47,1.88-.69,1.19-.65,1.83-.86,1.17-.73,1.81-.94,1.47.25,2.12.05,1.3-.29,1.95-.48,1.16-.8,1.81-.98,1.24-.53,1.9-.7,1.26-.49,1.91-.65,1.33-.19,1.99-.34,1.45.39,2.11.26,1.05-1.58,1.71-1.71,1.4.2,2.07.08,1.26-.59,1.93-.7,1.5.91,2.17.8,1.3-.32,1.96-.42,1.24-.78,1.91-.87,1.35-.01,2.02-.09,1.37.26,2.04.19,1.34.04,2.02-.02,1.28-.75,1.95-.81,1.34-.11,2.01-.16,1.37.55,2.05.51,1.32-.42,1.99-.44,1.34-.05,2.01-.07,1.33-.24,2.01-.25,1.34-.19,2.01-.2,1.34.49,2.01.49,1.33.29,2.01.3,1.35-1.09,2.03-1.08,1.34.16,2.02.18,1.36-.34,2.04-.32,1.32.7,1.99.73,1.37-.44,2.05-.4,1.25,1.36,1.93,1.4,1.36-.22,2.03-.17,1.42-.83,2.09-.77,1.26.92,1.94.99,1.43-.79,2.11-.72,1.2,1.3,1.88,1.38c.99.13.82-.67,2.08-.42.55.11,1.22.17,1.97.33.59.13,1.11.84,1.81,1.01.61.15,1.29.13,1.98.3.61.16,1.37-.09,2.04.1.62.17,1.11.86,1.77,1.06.62.18,1.23.45,1.88.66s1.43-.14,2.07.08,1.01,1.09,1.65,1.32,1.45-.14,2.08.1,1.04.98,1.66,1.23,1.39.09,2.01.35,1.18.62,1.79.89,1.16.65,1.77.93.97,1.04,1.57,1.33,1.72-.47,2.31-.17.74,1.45,1.33,1.76,1.52,0,2.1.33,1.07.82,1.64,1.16,1.18.62,1.75.98,1.25.53,1.8.9,1.1.77,1.64,1.15,1.15.71,1.68,1.11,1.14.73,1.66,1.14.63,1.34,1.14,1.77,1.04.83,1.54,1.28.51,1.39.99,1.85.87.98,1.33,1.46,1.31.58,1.75,1.08,1.16.76,1.59,1.27.61,1.22,1.02,1.75.67,1.15,1.05,1.7,1.15.83,1.51,1.39c.54.83.18.74.84,1.83.29.48.16,1.33.54,1.99.3.53,1.59.57,1.94,1.2.3.55-.13,1.54.2,2.16.3.56.35,1.28.66,1.9.29.57,1.59.67,1.89,1.29.28.58.4,1.27.69,1.89s.47,1.24.75,1.86-.23,1.54.03,2.16,1.67.74,1.92,1.37-.51,1.62-.27,2.25.27,1.3.49,1.93.46,1.23.67,1.87,1.49.92,1.69,1.56.43,1.28.6,1.92.2,1.34.36,1.99-.35,1.45-.21,2.1.19,1.31.31,1.97.95,1.2,1.05,1.86-.27,1.39-.2,2.05-.51,1.37-.46,2.03,1.16,1.28,1.17,1.95-.45,1.34-.47,2.01.36,1.37.31,2.03-.56,1.29-.66,1.95-.77,1.22-.91,1.87c-.15.92.18.81-.09,1.85-.14.55.48,1.46.23,2.07s-.6,1.27-.95,1.77c-.38.54-1.57.1-2.11.35s-1.06,1.56-1.76,1.36c-.5-.14-1.09-.79-1.69-1.23-.44-.33-.91-.86-1.41-1.38Z"/><path class="cls-1" d="m227.91,70.14c-.16-.97-.51-.23-1.44-1.11-.4-.38-.49-1.25-1.06-1.76-.45-.4-1.17-.56-1.73-1.02-.47-.39-.85-.98-1.4-1.41-.49-.39-1.11-.67-1.66-1.08-.51-.38-1.15-.6-1.72-.99-.52-.37-.64-1.35-1.21-1.73-.53-.36-1.34-.33-1.91-.69-.54-.34-1.13-.63-1.71-.98s-.91-1.03-1.49-1.36-1.36-.24-1.95-.56-1.13-.65-1.73-.96-.99-.95-1.59-1.24-1.44-.01-2.05-.3-1.18-.54-1.79-.81-.96-1.09-1.57-1.35-1.19-.57-1.81-.81-1.44.09-2.06-.14-1.27-.32-1.9-.53-1.06-.95-1.7-1.16-1.2-.57-1.84-.76-1.44.24-2.08.06-1.18-.67-1.82-.83-1.39.16-2.04,0-1.24-.44-1.89-.58-1.29-.22-1.94-.35-1.27-.31-1.93-.43-1.28-.27-1.94-.37-1.29-.2-1.95-.29-1.27-.44-1.93-.53-1.29-.31-1.95-.38-1.33.05-1.99,0-1.33.21-2,.16-1.28-.56-1.94-.6-1.31-.34-1.97-.36-1.33.25-1.99.24-1.32-.34-1.98-.34-1.32.57-1.98.57-1.32-.3-1.99-.28-1.32.05-1.98.08-1.32.14-1.98.18-1.28.57-1.94.62-1.33-.07-1.99-.01-1.35-.26-2.01-.19c-.98.09-.67.3-1.93.45-.55.06-1.21.05-1.97.14-.59.08-1.3-.19-2.01-.09-.61.09-1.22.5-1.9.61-.62.1-1.21.54-1.89.66-.62.11-1.32-.05-1.98.07-.63.11-1.31.05-1.97.18-.63.12-1.19.64-1.85.77s-1.4-.32-2.05-.17-1.07,1.16-1.73,1.31-1.46-.5-2.11-.34-1.24.42-1.89.59-1.29.25-1.93.42-1.15.76-1.79.94-1.34.08-1.98.26-1.15.71-1.79.91-1.18.58-1.82.79-1.49-.34-2.12-.13-1.08.89-1.71,1.11-1.18.58-1.8.81-1.47-.21-2.09.03-1.22.49-1.84.73-.98,1.09-1.59,1.34-1.16.63-1.76.89-1.26.39-1.86.65-1.16.61-1.76.88-1.42.08-2.01.36-1.23.48-1.82.78-.91,1.11-1.5,1.41-1.06.8-1.64,1.12-1.41.16-1.98.49c-.9.5-.67.39-1.78,1.03-.51.3-1.25.41-1.92.8-.55.32-.82,1.21-1.45,1.58-.56.34-1.18.63-1.79,1s-1.31.46-1.9.83-1.07.87-1.65,1.24-1.32.51-1.88.88-.77,1.34-1.31,1.72c-.59.41-1.2.73-1.72,1.12-.6.45-1.27.68-1.75,1.09-.63.53-.91,1.16-1.25,1.58-.65.8-.94.87-.07,1.03.51.09,1.15.35,1.94.17.58-.12,1.2-.37,1.89-.61.59-.2,1.06-.8,1.71-1.07.59-.24,1.29-.27,1.91-.56.59-.27,1.22-.49,1.82-.78s1.15-.64,1.75-.95,1.12-.72,1.71-1.03,1.22-.54,1.8-.86,1.17-.65,1.74-.97,1.35-.35,1.91-.67c.6-.35,1.16-.71,1.71-1.03.61-.36,1.29-.53,1.81-.85.64-.39.98-1.13,1.46-1.43,1.06-.65.84-.53,1.7-1.03s.56-.48,1.73-1.04c.51-.24,1.1-.57,1.81-.9.55-.25,1.3-.22,1.97-.52.57-.25,1.09-.76,1.75-1.03.59-.25,1.43.03,2.08-.23.6-.24,1.03-.99,1.68-1.24.61-.24,1.32-.25,1.97-.49.61-.23,1.36-.13,2.01-.37s1.09-.9,1.74-1.12,1.37-.09,2.02-.31,1.04-1.09,1.7-1.3,1.29-.36,1.94-.55,1.32-.24,1.98-.43,1.33-.22,1.98-.4,1.35-.1,2.01-.28,1.25-.48,1.91-.65,1.22-.63,1.88-.79,1.37-.01,2.03-.16,1.24-.61,1.9-.75,1.34-.14,2-.28,1.35-.06,2.02-.18,1.36.04,2.03-.08,1.2-.99,1.87-1.09,1.43.53,2.1.44,1.28-.52,1.95-.61,1.33-.21,2-.29,1.36.13,2.03.06,1.34-.05,2.01-.1,1.33-.07,2.01-.12,1.32-.43,1.99-.46,1.34.05,2.02.03,1.34-.21,2.01-.22,1.34.24,2.02.24,1.34.18,2.01.19,1.34-.1,2.01-.08,1.36-.49,2.04-.46,1.35.04,2.02.08,1.29.79,1.96.84,1.4-.56,2.07-.49,1.3.47,1.97.55,1.39-.23,2.05-.14,1.23.88,1.89.98,1.35.01,2.02.13,1.34.11,2.01.24,1.27.47,1.93.61,1.29.36,1.95.51,1.34.16,1.99.33,1.21.66,1.86.84,1.34.19,1.98.38,1.4,0,2.05.21,1.18.69,1.82.92,1.18.68,1.81.91,1.53-.24,2.16,0,.93,1.27,1.56,1.53,1.49-.06,2.1.21,1.31.37,1.92.66,1.23.55,1.84.85,1.22.58,1.82.89,1.06.88,1.65,1.21.96.98,1.54,1.32c.78.58.95.02,1.86.78.43.36.72,1.04,1.29,1.49.48.38,1.15.57,1.7.97.51.38.74,1.18,1.29,1.55s1.1.73,1.65,1.06,1.13.71,1.7,1c.61.31,1.42.08,2,.29.67.25,1.22.54,1.8.6.72.08,1.47.38,2,.1s.53-.94.78-1.67Z"/><path class="cls-1" d="m209.53,74.24c-.32-.94-.82-.35-1.96-.96-.49-.26-1.07-.59-1.76-.93-.54-.26-1.28-.25-1.94-.55-.56-.26-1.15-.56-1.8-.84-.58-.25-1.25-.35-1.89-.62-.59-.24-1.09-.77-1.74-1.01-.6-.23-1.1-.79-1.75-1.02-.6-.22-1.29-.27-1.94-.48-.61-.21-1.18-.6-1.83-.8s-1.4.1-2.05-.09-1.17-.68-1.82-.86-1.28-.31-1.93-.48-1.34-.05-2-.21-1.21-.6-1.87-.75-1.26-.43-1.92-.57-1.33-.08-1.99-.21-1.34.03-2.01-.08-1.27-.41-1.93-.52-1.26-.49-1.93-.58-1.37.26-2.03.17-1.27-.54-1.93-.61-1.33.02-2-.04-1.32-.06-1.99-.11-1.32-.05-1.99-.09-1.31-.34-1.98-.37-1.33.13-2,.11-1.32-.12-1.99-.13-1.33.37-1.99.37-1.32.04-1.98.05-1.32-.2-1.99-.18-1.32.13-1.99.16-1.34-.35-2.01-.31-1.31.38-1.97.43-1.34-.13-2.01-.07-1.3.33-1.97.4-1.29.39-1.95.47-1.37-.25-2.03-.17-1.32.14-1.98.23-1.3.27-1.97.37-1.28.41-1.94.52c-.97.15-.76-.35-2.01-.12-.54.1-1.18.25-1.93.4-.58.12-1.23.22-1.93.37-.6.13-1.13.75-1.8.91-.6.14-1.31,0-1.97.18-.61.15-1.26.25-1.92.43-.61.16-1.23.4-1.88.59-.61.17-1.28.24-1.92.43s-1.09.85-1.73,1.05-1.21.46-1.84.67-1.39-.08-2.02.13-1.23.41-1.86.64-1.07.86-1.69,1.09-1.4-.03-2.02.21-1,1.02-1.61,1.27-1.41,0-2.02.26-1.17.59-1.77.86-1.23.44-1.83.72-.98.99-1.58,1.27-1.42.06-2.02.34-.93,1.06-1.52,1.36-1.2.53-1.78.83-1.13.63-1.71.94c-.81.54-1.42.74-.8,1.23.24.19.69.25,1.78.19.52-.03,1.17.11,1.95-.02.53-.08,1.28.08,2.06-.14.58-.16,1.1-.81,1.81-1.03.6-.19,1.27-.32,1.95-.54.61-.2,1.36-.08,2.03-.3.62-.2,1.14-.77,1.8-.99.62-.21,1.22-.54,1.88-.75.62-.21,1.43.08,2.08-.14s1.1-.95,1.76-1.16,1.29-.38,1.94-.58,1.25-.52,1.9-.71,1.39-.02,2.05-.21,1.29-.38,1.95-.56,1.27-.48,1.93-.65,1.3-.35,1.96-.51,1.26-.54,1.92-.7,1.44.27,2.11.12,1.2-.83,1.87-.97,1.4.14,2.07.02,1.31-.31,1.98-.42,1.3-.45,1.97-.55,1.33-.31,2-.39,1.4.28,2.07.21,1.34-.21,2.01-.26,1.33-.46,2-.5,1.38.51,2.05.48,1.35-.1,2.02-.1,1.36-.28,2.03-.26,1.34.3,2.02.34,1.35.04,2.02.1,1.34.12,1.97.18c.68.06,1.34.08,1.98.12.69.05,1.33.3,1.96.34.69.04,1.35.11,1.98.15.69.03,1.37-.52,2-.5.69.03,1.34.39,1.97.4.69.02,1.35-.14,1.98-.13.69.01,1.34.14,1.98.15.68,0,1.34-.05,1.98-.04s1.33-.07,1.98-.06,1.31.07,1.97.1,1.29.21,1.96.26c.63.05,1.26.33,1.94.4.63.07,1.3-.05,1.98.04.62.08,1.25.35,1.93.45.62.1,1.28.11,1.96.23.62.11,1.35-.17,2.02-.04.62.12,1.23.46,1.9.6.62.13,1.32,0,1.99.15.62.14,1.23.45,1.89.6.62.14,1.29.19,1.95.35.62.15,1.15.76,1.81.92.62.15,1.27.27,1.93.43.62.16,1.3.18,1.96.35.62.16,1.21.51,1.86.69s1.4-.16,2.05.01,1.25.47,1.9.65c.96.35.76.62,1.87.86.63.14,1.34-.03,2.03-.08s1.45.05,1.98-.37c.47-.37,1.03-1.1,1.22-1.9Z"/><path class="cls-1" d="m223.72,93.01c-.39-.9-.31-.68-1.43-1.31-.48-.27-1.21-.32-1.89-.68-.53-.28-1.18-.46-1.83-.78-.55-.27-1.07-.71-1.71-1-.57-.27-1.24-.38-1.87-.67-.58-.26-1.27-.32-1.9-.59-.59-.25-1.06-.82-1.69-1.07-.59-.24-1.27-.32-1.9-.57-.6-.23-1.13-.68-1.77-.92s-1.23-.44-1.87-.67-1.37-.02-2.01-.23-1.09-.86-1.73-1.06-1.28-.28-1.93-.48-1.18-.62-1.83-.81-1.29-.27-1.93-.45-1.36.03-2.01-.14-1.25-.41-1.9-.57-1.28-.3-1.93-.45c-.64-.15-1.23-.53-1.88-.67s-1.34-.03-1.99-.16-1.23-.57-1.88-.69-1.3-.22-1.95-.34-1.29-.24-1.95-.35-1.24-.6-1.9-.7-1.4.44-2.05.35-1.31-.13-1.97-.21-1.22-.88-1.88-.96-1.33-.01-1.99-.08-1.35.23-2.01.17-1.28-.53-1.94-.59-1.32-.02-1.98-.06-1.35.61-2.02.57-1.31.04-1.98,0-1.3-.51-1.96-.53-1.32.19-1.99.17-1.32.14-1.98.13-1.31-.28-1.98-.28-1.32.05-1.98.06-1.33-.5-2-.48-1.29.83-1.96.86-1.31.02-1.98.05c-.66.03-1.32-.06-1.98-.02s-1.36-.61-2.03-.56-1.29.44-1.95.49-1.3.25-1.96.31-1.29.37-1.95.44-1.35-.22-2.01-.14-1.28.39-1.94.47-1.32.06-1.98.15-1.28.37-1.94.47-1.39-.34-2.04-.23-1.24.61-1.89.72-1.29.28-1.95.4-1.34,0-1.99.13-1.28.36-1.93.49-1.31.19-1.96.33c-.96.27-.82-.23-2.04.16-.53.17-.95,1.07-1.69,1.29-.58.18-1.41-.28-2.11-.08-.6.18-1.25.32-1.93.51-.61.17-1.06,1.02-1.73,1.2-.62.17-1.28.27-1.95.45-.62.17-1.38-.08-2.04.09s-1.2.63-1.86.79-1.29.26-1.95.42-1.37-.08-2.03.07-1.29.29-1.95.43-1.27.4-1.93.54-1.24.55-1.9.68-1.23.65-1.89.77-1.41-.33-2.07-.21-1.34.02-2,.13c-.65.11-1.2.93-1.86,1.03s-1.32.23-1.98.32-1.39-.32-2.05-.24-1.34-.05-2.01.03-1.24.96-1.91,1.02-1.4-.65-2.06-.59c-.67.05-1.33.02-1.99.06s-1.3.68-1.96.71-1.35-.57-2.02-.56-1.33.26-1.99.26-1.35.49-2.01.47-1.32-.84-1.98-.87c-1.13-.02-1.47.33-2.25.98-.48.4-.47,1.13-.09,2.16.19.53.41,1.22,1.01,1.98.87.51.73-.31,2.02-.3.57,0,1.25.74,2.02.74.62,0,1.29-.69,2.02-.69.64,0,1.31.15,2.02.14.65,0,1.32-.21,2.02-.23.66-.01,1.34.59,2.04.57s1.31-.76,2-.78,1.36.44,2.04.41,1.36.22,2.04.18,1.33-.3,2.01-.34,1.35,0,2.03-.05,1.33-.35,2-.41,1.37.05,2.04-.02,1.38.1,2.05.02,1.25-.92,1.91-1.01,1.44.39,2.09.29,1.32-.39,1.97-.52c.68-.13,1.24-.7,1.88-.85.68-.16,1.38-.11,2-.29.58-.17,1.28-.16,1.97-.37.59-.19,1.36.03,2.03-.18.6-.19,1.01-1.12,1.67-1.32.61-.19,1.4.11,2.06-.09.61-.19,1.15-.7,1.81-.9.62-.18,1.36-.02,2.01-.21s1.27-.33,1.92-.51,1.2-.6,1.85-.78,1.36.01,2.01-.16,1.29-.26,1.94-.43,1.12-.98,1.77-1.14,1.29-.26,1.95-.41,1.28-.32,1.94-.46,1.29-.3,1.95-.44,1.35,0,2.01-.12,1.32-.11,1.98-.23,1.21-.77,1.87-.88,1.35.02,2.01-.08,1.38.34,2.05.25,1.25-.65,1.91-.73,1.29-.37,1.96-.44,1.4.63,2.06.56,1.31-.12,1.98-.18,1.29-.38,1.96-.43,1.28-.75,1.94-.79,1.34.17,2.01.14,1.33.04,2,.02,1.33-.03,2-.04,1.33-.24,1.99-.24,1.33.66,1.99.66,1.33-.31,2-.3,1.32.32,1.98.34,1.31.23,1.98.27,1.36-.65,2.03-.61,1.29.62,1.95.67,1.34-.09,2-.02,1.33,0,2,.06,1.29.36,1.96.45,1.33.03,1.99.13,1.28.43,1.94.53,1.39-.26,2.04-.15,1.36-.04,2.02.08,1.21.75,1.87.88c.65.13,1.32.16,1.98.3s1.39-.11,2.04.04,1.21.67,1.86.83,1.2.72,1.85.89c.96.22.84-.43,2.05-.17.54.12,1.2.21,1.93.38.59.13,1.21.38,1.89.55.61.15,1.21.44,1.88.6.61.15,1.26.26,1.92.43s1.23.44,1.87.62,1.12.83,1.76,1.01,1.29.22,1.92.41,1.21.52,1.83.72,1.5-.35,2.12-.14,1.17.67,1.78.89,1.38.15,1.97.39c.63.26.95,1.17,1.53,1.43.62.29,1.45.1,2,.39.62.33,1.26.63,1.76.97.84.63.53,1.01,1.52,1.5.63.31,1.41.69,2.07.7s1.42-.46,1.81-1.23c.24-.47.14-1.14.16-2.05Z"/></g></svg>