<?xml version="1.0" encoding="UTF-8"?><svg id="hair" xmlns="http://www.w3.org/2000/svg" viewBox="0 0 300 300"><defs><style>.cls-1{fill:#fff;}.cls-2{fill:#d66a5e;}</style></defs><g id="hair_16"><path class="cls-2" d="m169.35,37.94c-2.43-.42-2.03.93-5.02-.07-1.32-.44-2.7-1.43-4.54-1.88-1.45-.36-2.96-1.19-4.72-1.49-1.52-.26-3.16-.5-4.89-.68-1.55-.16-3.23.21-4.95.14-1.58-.07-3.21-.38-4.92-.36-1.59.03-3.24-.02-4.94.1-1.59.12-3.27-.01-4.95.2-1.59.2-3.02,1.62-4.69,1.92-1.58.28-3.25.15-4.9.53s-3.5-.51-5.12-.06-2.63,2.56-4.23,3.09-3.12.85-4.7,1.44-3.55-.09-5.1.57-2.43,2.55-3.95,3.27-3.24.78-4.74,1.55-2.27,2.63-3.74,3.45c-1.33.75-3.72,0-5.09.99-1.25.91-2.47,2.08-3.74,3.18-1.18,1.02-1.85,2.71-3.04,3.88-1.12,1.1-3.05,1.52-4.17,2.75-1.06,1.16-1.49,2.97-2.55,4.24s-1.6,2.81-2.6,4.12-2.16,2.38-3.11,3.72-2.57,2.14-3.47,3.51-1.67,2.77-2.53,4.16c-.84,1.36-.21,3.62-1.03,5.03s-2.56,2.24-3.34,3.67-1.44,2.88-2.18,4.33-.61,3.28-1.32,4.74c-.69,1.45-2.33,2.46-2.99,3.95-.66,1.47-.78,3.17-1.41,4.67-.62,1.49-2.23,2.59-2.81,4.1s.38,3.58-.16,5.11-1.6,2.84-2.11,4.38c-.5,1.53-2.06,2.74-2.53,4.29s-.22,3.31-.64,4.87.31,3.4-.07,4.97c-.37,1.57-1.43,2.97-1.75,4.55s-.32,3.21-.6,4.8-.34,3.19-.56,4.79-.53,3.17-.7,4.77-1.42,3.11-1.54,4.72c-.11,1.62-.45,3.23-.5,4.85-.05,1.62,1.49,3.25,1.5,4.86s-1.57,3.27-1.49,4.88-.07,3.28.08,4.89.27,3.27.49,4.87,1.59,3.04,1.9,4.62,1.02,3.07,1.41,4.64.42,3.22.89,4.76c.48,1.55.88,3.11,1.45,4.62.57,1.51,1.6,2.82,2.25,4.3s.86,3.16,1.6,4.6,2.39,2.33,3.23,3.71c.83,1.38.47,3.53,1.4,4.86.92,1.32,2.4,2.25,3.41,3.52s1.56,2.92,2.65,4.13,3.22,1.35,4.39,2.49c1.15,1.11,1.61,2.98,2.85,4.04s2.87,1.55,4.17,2.55c1.27.97,1.85,2.95,3.21,3.87s3.05,1.24,4.45,2.09c1.29.77,3.6-1.14,2.92-2.48s-3.02-2.16-3.75-3.95c-.6-1.47-1.26-3.15-1.82-4.89-.49-1.55.51-3.64.1-5.38-.37-1.61-1.72-3.11-1.97-4.87-.23-1.65-.07-3.43-.16-5.19-.08-1.54-.71-3.12-.83-4.81-.11-1.56-.31-3.17-.41-4.84-.1-1.57.96-3.26.88-4.92s-.03-3.19-.06-4.85.06-3.19.09-4.84c.03-1.59-1.53-3.29-1.43-4.93.1-1.59,1.92-3.08,2.1-4.71s.23-3.19.5-4.81-.6-3.4-.24-5.01,1.7-2.9,2.16-4.48c.45-1.53-.11-3.44.45-4.99.54-1.5,1.32-2.99,1.98-4.5s1.52-2.88,2.27-4.34,1.6-2.82,2.45-4.23,2.29-2.35,3.23-3.71c.9-1.31,1.04-3.24,2.06-4.54s2.01-2.55,3.1-3.8,2.11-2.48,3.27-3.66c1.11-1.13,3.51-.99,4.73-2.11,1.17-1.08,1.16-3.54,2.42-4.61s3.59-.67,4.9-1.68,1.49-3.39,2.84-4.35,3.32-.85,4.71-1.76c1.41-.93,2.08-2.89,3.41-3.77,1.41-.94,2.83-1.75,4.15-2.64,1.41-.95,3.57-.69,4.87-1.58,1.41-.97,2.07-2.89,3.36-3.79,1.41-.99,2.55-2.19,3.82-3.11,1.4-1.01,3.81-.49,5.06-1.41,1.4-1.04,2.09-2.85,3.31-3.79,1.4-1.08,3.09-1.59,4.27-2.54,1.4-1.14,2.4-2.51,3.51-3.48,1.42-1.23,2.94-2,3.95-2.99,1.47-1.44,1.8-3.3,2.58-4.28,2.77-3.46,2.51-6.49,1.73-4.16-.74,2.21.45,2.25,2,4.79.68,1.12,2.58,1.76,3.63,3.2.83,1.14,1.26,2.79,2.34,4.08.94,1.11,1.54,2.72,2.68,3.91,1.02,1.06,2.17,2.19,3.37,3.3,1.1,1.01,3.07,1.14,4.32,2.17,1.16.95,1.64,2.89,2.94,3.84,1.21.89,2.81,1.38,4.16,2.26,1.26.83,2.29,2.2,3.67,3,1.31.76,3.12.77,4.53,1.51s2.84,1.2,4.28,1.87c1.38.64,3.17.36,4.65.97s2.64,1.63,4.13,2.17c1.5.55,3.36.67,4.76,1.5s1.59,3.28,2.84,4.33c1.2,1,2.14,2.17,3.25,3.38s2.27,2.12,3.24,3.44,3.3,1.62,4.16,3.02.95,3.16,1.7,4.62c.72,1.39,1.75,2.71,2.42,4.21.64,1.44,1.2,2.98,1.78,4.5.57,1.47.66,3.16,1.18,4.71.51,1.5,1.73,2.82,2.19,4.37.45,1.52-.37,3.42.04,4.99s2.3,2.74,2.65,4.32-.15,3.32.16,4.9,1.34,3.02,1.61,4.62c.27,1.57-1.59,3.49-1.36,5.08s2.67,2.88,2.87,4.48-.07,3.25.09,4.85c.16,1.6-.39,3.26-.27,4.86s1.28,3.14,1.36,4.75.07,3.23.12,4.84-1.59,3.26-1.57,4.86,1.54,3.21,1.53,4.81c-.01,1.61.01,3.24-.04,4.83s-.65,3.21-.73,4.8c-.08,1.62-1.04,3.16-1.16,4.75s1.34,3.36,1.18,4.94c-.2,2.04.45,2.3,1.79.75.88-1.02,3.51-.88,4.76-2.31.95-1.09,1.42-2.82,2.61-4.18.98-1.12,1.79-2.56,2.95-3.89,1-1.14,2.37-2.1,3.51-3.41.98-1.11,1.83-2.53,2.74-4.02.79-1.29,2.26-2.39,2.99-3.95.65-1.39.51-3.24,1.12-4.82.55-1.45,1.65-2.8,2.16-4.39.47-1.49-.4-3.42.03-5.03.41-1.52,2.31-2.71,2.67-4.32.35-1.54.58-3.17.89-4.78.3-1.55.07-3.25.33-4.87.25-1.57.49-3.17.7-4.79.21-1.58,1.03-3.12,1.21-4.74s.38-3.21.51-4.83-.49-3.26-.39-4.89c.09-1.6.68-3.2.73-4.82s-1.19-3.24-1.17-4.87c.02-1.6.86-3.22.83-4.84s-.48-3.21-.54-4.83-.88-3.17-.97-4.79.36-3.24.23-4.86-.34-3.2-.51-4.81.37-3.29.15-4.89.22-3.31-.04-4.91c-.25-1.6-1.98-2.94-2.28-4.53s-.68-3.14-1.02-4.72-.18-3.27-.56-4.83c-.39-1.57-.88-3.11-1.31-4.66s-1.02-3.07-1.51-4.6-.59-3.22-1.13-4.73-.33-3.36-.93-4.85-2.58-2.43-3.24-3.9c-.67-1.48-.32-3.45-1.05-4.88s-2.45-2.37-3.24-3.77c-.8-1.41-.66-3.4-1.53-4.75s-2.89-1.97-3.82-3.27-1.95-2.54-2.97-3.79-1.15-3.29-2.24-4.47-2.11-2.53-3.29-3.64-3.69-.69-4.94-1.71-2.25-2.27-3.57-3.2-2.77-1.53-4.17-2.36-1.97-3.09-3.43-3.81-3.4-.3-4.91-.91-2.56-2.45-4.11-2.94-3.43.27-5.02-.11-3.04-1.14-4.65-1.41-3.23.04-4.86-.13-3.18-.06-4.82-.12-3.2-1.49-4.84-1.45-3.15,1.37-4.79,1.49-3.26-.5-4.9-.31-2.97-.06-4.59.21Z"/><path class="cls-1" d="m166.24,58.57s-2.28-11.08-26.14-9.75c-23.87,1.33-25.31,17.24-18.38,15.71,6.93-1.52,18-11.36,34.64-2.67,0,0-13.82-.85-14.11,5.91-.29,6.77,6.36,5.25,8.13,4.46s11.29-7.23,12.3-4.46c1,2.77-4.05,12.97,3.57,12.53s.41-9.75,3.57-10.2,9.8,2.38,15.35,6.73c5.55,4.35,7.77-12.14-8.2-14.98,0,0,1.5-1.53,8.07-.41s5.68-11.74-5.85-9.52c-11.53,2.22-12.95,6.65-12.95,6.65Z"/></g></svg>