<?xml version="1.0" encoding="UTF-8"?><svg id="hair" xmlns="http://www.w3.org/2000/svg" viewBox="0 0 300 300"><defs><style>.cls-1{fill:#fff;}.cls-2{fill:#a8534a;}.cls-3{fill:#d66a5e;}</style></defs><g id="hair_7"><path class="cls-3" d="m230,77.63c-.86-.52-.84-.38-1.31-1.6-.2-.52.68-1.6.38-2.32-.23-.56-.64-1.13-.94-1.8-.25-.57-.73-1.1-1.03-1.74-.27-.58-.66-1.14-.97-1.76-.28-.58-.14-1.4-.46-2.02-.29-.58-.72-1.12-1.04-1.73-.31-.57-1.09-.91-1.42-1.51-.32-.57-.9-1.01-1.24-1.6s-.23-1.4-.59-1.98-1.14-.85-1.5-1.43-.25-1.42-.62-1.99-1.29-.74-1.67-1.3-.69-1.13-1.08-1.69-.72-1.11-1.11-1.66-.51-1.27-.92-1.81-.9-.98-1.32-1.52-1.14-.79-1.57-1.31,0-1.73-.43-2.25-1.31-.64-1.75-1.15-1.27-.65-1.72-1.16-.65-1.21-1.11-1.7-.65-1.22-1.12-1.71-1.03-.86-1.51-1.33-.46-1.45-.95-1.92-1.1-.8-1.6-1.25-1.32-.54-1.83-.99-.7-1.23-1.22-1.67-1.14-.73-1.66-1.15-1.27-.56-1.8-.98-1.39-.38-1.92-.79-.56-1.48-1.1-1.88-1.08-.79-1.64-1.18-1.16-.67-1.72-1.04-1.11-.74-1.68-1.1-1.04-.86-1.62-1.22-1.23-.55-1.81-.89-1.44-.16-2.03-.48-.72-1.49-1.31-1.8-1.45-.11-2.05-.41-1.04-.91-1.65-1.2-1.29-.4-1.91-.67-.99-1.08-1.61-1.35-1.24-.53-1.87-.78-1.63.49-2.26.25-1.21-.58-1.84-.8-1.17-.71-1.81-.93-1.46.2-2.11,0-1.02-1.26-1.66-1.44-1.3-.32-1.96-.49-1.3-.34-1.95-.5-1.31-.29-1.97-.44-1.35-.07-2.01-.21-1.2-.85-1.86-.97-1.33-.23-1.99-.34-1.48.77-2.14.67-1.18-1.26-1.85-1.35-1.4.4-2.07.33-1.38.34-2.05.28-1.32-.13-1.99-.18-1.26-1.15-1.94-1.19-1.36.32-2.04.29-1.36.65-2.03.63-1.33-.07-2-.08-1.34-.79-2.01-.78-1.33.69-2,.7-1.33.2-2,.22-1.36-.56-2.04-.53-1.31.56-1.98.6-1.4-.78-2.07-.73-1.32.36-1.99.43-1.33.13-2,.2-1.32.28-1.99.36-1.29.47-1.96.56-1.33.16-2,.26-1.31.26-1.98.36-1.25.6-1.92.72-1.41-.29-2.07-.17-1.37-.04-2.04.09-1.23.66-1.9.8-1.26.48-1.92.63-1.3.32-1.96.47-1.29.32-1.95.48c-.97.26-.7.1-1.89.57-.53.21-1.13.48-1.83.79-.56.25-1.42,0-2.07.33-.56.28-1.24.46-1.86.8-.56.31-.9,1.09-1.49,1.45-.56.33-1.25.49-1.83.87-.55.36-1.22.58-1.78.98s-.75,1.22-1.29,1.64-1.05.8-1.57,1.25-1.25.6-1.75,1.06-.39,1.5-.87,1.98-1.58.33-2.03.83-.25,1.54-.69,2.06-1.42.56-1.83,1.11-.79,1.09-1.17,1.65-1.14.87-1.49,1.45.22,1.68-.11,2.28-1.26.84-1.56,1.45-.43,1.28-.7,1.9-.04,1.41-.29,2.05-1.15,1-1.36,1.65-.63,1.22-.82,1.87-.14,1.36-.3,2.02.41,1.45.29,2.12-.75,1.22-.85,1.89.2,1.37.12,2.04-.48,1.29-.53,1.97-.29,1.33-.31,2.01.57,1.34.57,2.02.05,1.32.08,2,.2,1.31.25,1.99-.06,1.33.01,2.01c.07.66-.72,1.43-.63,2.1s1.03,1.21,1.14,1.88-.38,1.24-.25,1.91c-.4.91-.07.85-1.09,1.62-.45.34-.9.84-1.5,1.31-.48.37-1.14.6-1.7,1.05-.48.4-1.05.75-1.58,1.21-.48.41-1.12.69-1.64,1.15-.48.43-.75,1.11-1.26,1.58-.47.44-1.2.64-1.69,1.11s-.89.98-1.37,1.46-.6,1.25-1.07,1.74-.75,1.09-1.21,1.59-1.34.57-1.78,1.08-1.18.74-1.61,1.26-.02,1.68-.43,2.21-1.51.51-1.91,1.05-.59,1.22-.97,1.76-1.21.79-1.58,1.35-.22,1.44-.57,2.01-1.23.82-1.56,1.4-.13,1.46-.44,2.05-1.14.92-1.43,1.52-.63,1.2-.9,1.81-.51,1.25-.76,1.87.57,1.63.35,2.26-1.27.98-1.46,1.62-.7,1.21-.86,1.86.28,1.44.15,2.1.33,1.4.24,2.06-.85,1.23-.92,1.89.09,1.34.06,2.01-.08,1.33-.08,2,.71,1.29.75,1.96-.4,1.35-.32,2.01,0,1.34.11,2c.11.65.62,1.22.77,1.88s-.23,1.42-.05,2.07.98,1.08,1.19,1.72.36,1.25.6,1.88.05,1.4.32,2.02.88,1.04,1.18,1.65.49,1.22.82,1.81.14,1.45.49,2.02.5,1.27.87,1.84.83,1.06,1.22,1.61.77,1.1,1.17,1.64,1.13.81,1.55,1.34.49,1.32.93,1.84,1.76.21,2.21.71.06,1.76.53,2.24,1.74.15,2.22.63.26,1.63.75,2.09,1.18.69,1.68,1.14,1.49.4,2,.84c.71.74.54.67,1.29,1.7.34.47.54,1.2.96,1.84.35.53.46,1.28.84,1.9.34.56.55,1.23.88,1.85.32.58.84,1.09,1.14,1.71s.86,1.12,1.12,1.75.01,1.46.23,2.11.22,1.34.39,2,.53,1.27.63,1.94-.32,1.36-.31,2.04.04,1.29-.07,1.96.26,1.43.02,2.07-.7,1.15-1.07,1.74c-.35.56-1.18,1.35-1.68,1.86.34.95,1.29-.03,2.52.09.58.06,1.27.62,2.03.58.62-.03,1.15-1.23,1.86-1.36.63-.12,1.37.27,2.04.04.61-.22,1.09-.7,1.71-1.04.57-.31,1.25-.43,1.81-.85.51-.39.75-1.08,1.25-1.58.46-.45,1.65-.29,2.09-.85.4-.51.5-1.3.88-1.9.34-.55,1.12-.92,1.44-1.55.29-.58.44-1.3.71-1.95.25-.6.04-1.41.26-2.08.21-.62.58-1.21.77-1.89.17-.63-.42-1.46-.27-2.14.14-.64.5-1.23.63-1.92.11-.64-.03-1.33.07-2.02.09-.65,1.01-1.21,1.08-1.9.07-.65-.28-1.36-.23-2.05s-.15-1.34-.12-2.03-.01-1.32,0-2.01-.06-1.32-.06-2.01,1.21-1.34,1.2-2.03-.87-1.32-.9-2.01-.17-1.33-.2-2.02.18-1.35.13-2.04-.24-1.34-.25-2.01-.32-1.36-.3-2.03.33-1.34.39-2.01.71-1.27.8-1.93-.72-1.48-.6-2.14,1.35-1.09,1.5-1.74-.36-1.47-.18-2.12,1.05-1.08,1.25-1.72.42-1.25.66-1.88-.05-1.45.21-2.07.89-1.06,1.18-1.67.26-1.36.57-1.96.97-.99,1.3-1.58.28-1.38.63-1.96,1.3-.75,1.67-1.31.46-1.29.84-1.84.95-.95,1.35-1.49.87-1,1.29-1.52.41-1.39.85-1.9.39-1.45.85-1.95,1.11-.82,1.57-1.3,1.28-.63,1.76-1.1.94-.95,1.43-1.41.92-.97,1.43-1.42,1.24-.6,1.76-1.03,1.11-.74,1.64-1.16.98-.91,1.51-1.31.8-1.17,1.35-1.56.87-1.11,1.43-1.49,1.52-.13,2.08-.49,1.33-.37,1.91-.71,1.09-.76,1.67-1.1.73-1.45,1.32-1.77,1.53.03,2.13-.27,1.11-.77,1.72-1.06,1.06-.91,1.67-1.18,1.36-.24,1.98-.5.96-1.22,1.58-1.46,1.66.58,2.29.35.9-1.48,1.53-1.7,1.48.18,2.12-.02,1.43.14,2.08-.05,1.24-.5,1.89-.67,1.25-.49,1.9-.64,1.29-.33,1.95-.47,1.15-1.09,1.81-1.22,1.37.01,2.04-.1,1.33-.21,1.99-.31,1.31-.37,1.98-.45,1.43.76,2.1.69,1.29-.49,1.96-.54,1.35.27,2.03.23,1.31-.67,1.98-.69,1.35.84,2.02.84,1.32-.05,2-.04,1.33-.23,2-.21,1.33.1,2,.14,1.38-.61,2.05-.56,1.29.56,1.96.63,1.35-.08,2.02,0,1.31.28,1.98.38,1.34.09,2,.2,1.36,0,2.02.13,1.4-.16,2.06-.02,1.06,1.42,1.71,1.57,1.25.45,1.91.62,1.55-.65,2.2-.47,1.34.2,1.99.39,1.01,1.27,1.65,1.47,1.43-.06,2.06.15,1.1.89,1.73,1.12,1.34.22,1.97.47,1.02,1.04,1.64,1.29,1.29.35,1.91.62,1.32.3,1.93.59,1.37.23,1.98.52.85,1.28,1.45,1.59,1.7-.39,2.3-.08,1.17.66,1.76.98.75,1.39,1.34,1.73,1.45.16,2.03.51.97.97,1.54,1.33.91,1.06,1.47,1.42,1.63-.04,2.19.33,1.3.49,1.85.87,1.02.89,1.57,1.28.91,1.03,1.45,1.43.71,1.28,1.25,1.69,1.47.28,2,.7,1.14.72,1.67,1.15.64.84,1.16,1.28c.91-.3.41-.71,1.38-1.21.48-.25,1.25-.37,2.01-.37.55,0,1.04.72,1.74.97.53.19.91.63,1.53,1,.49.3,1.22.28,1.77.72.46.37.73.98,1.24,1.46.43.41,1.27.46,1.73.96.41.44.91.86,1.35,1.38.39.47.88.91,1.29,1.44.38.48.12,1.48.51,2.02s.79,1.04,1.14,1.62.89,1.03,1.18,1.64,1.19.98,1.43,1.61.19,1.39.38,2.04c.19.65-.21,1.44-.07,2.1s-.05,1.35.05,2.02.3,1.29.37,1.96.28,1.31.31,1.99.8,1.34.8,2.01.13,1.38.11,2.05-1.22,1.28-1.28,1.95-.12,1.33-.2,2,.58,1.44.48,2.11c-.1.68-.35,1.33-.47,1.99s-.14,1.37-.27,2.02c-.14.68-1.06,1.17-1.22,1.81-.16.68-.26,1.34-.42,1.97-.18.69-.02,1.43-.2,2.04-.2.7-.46,1.32-.65,1.91-.23.73-.22,1.45-.41,1.99-.42,1.21-1.48,1.28-.95,2.14s1.08-.32,2.33-.35c.57-.01,1.21-.22,1.97-.29.61-.06,1.33.35,2.04.23.62-.1,1.31-.12,1.99-.27.63-.14,1.07-1.04,1.73-1.24.62-.19,1.33-.09,1.97-.34s1.21-.49,1.83-.78,1.35-.27,1.94-.61,1.15-.68,1.71-1.07,1.17-.67,1.7-1.1.63-1.28,1.12-1.76,1.09-.77,1.54-1.28.37-1.36.77-1.91,1.52-.55,1.88-1.13.35-1.33.67-1.94c.29-.55,1.26-.87,1.53-1.53.24-.59.39-1.29.62-1.96.21-.61-.73-1.6-.55-2.27.18-.63.95-1.11,1.11-1.78.15-.64-.08-1.37.05-2.04s.68-1.22.79-1.9.25-1.31.35-1.98-.59-1.41-.51-2.08.31-1.29.37-1.97.99-1.27,1.02-1.94-.96-1.38-.94-2.05.55-1.32.55-1.99.69-1.35.68-2.02-1.09-1.31-1.12-1.98.06-1.33.01-2.01.88-1.42.81-2.09-.78-1.27-.87-1.94-.09-1.34-.2-2.01.09-1.39-.04-2.04.06-1.41-.08-2.06-.45-1.3-.62-1.95-.98-1.13-1.17-1.77-.74-1.16-.96-1.79.01-1.43-.24-2.05.02-1.49-.26-2.1-1.51-.76-1.82-1.35.24-1.69-.11-2.26-.81-1.12-1.2-1.67-1.75-.36-2.17-.88-.19-1.6-.65-2.08-1.21-.69-1.7-1.14-.55-1.47-1.08-1.88-1.23-.66-1.8-1.02-1.59.1-2.19-.21-.99-.99-1.62-1.24-1.08-1-1.73-1.2-1.43.1-2.09-.05-1.23-.84-1.9-.93-1.39.18-2.07.14-1.34.06-2.03.06-1.35-.22-2.04-.18-1.34.13-2.02.21-1.29.46-1.97.57-1.26.22-1.93.36Z"/><path class="cls-2" d="m207.64,88.44c-.79-.6-.22-.84-.82-1.97-.26-.49-.23-1.26-.6-1.93-.29-.52-.48-1.19-.84-1.8-.31-.53-1.23-.76-1.59-1.35-.33-.54-.75-1.04-1.12-1.63-.34-.54-.2-1.41-.57-1.98-.35-.54-.71-1.1-1.08-1.66s-1.22-.75-1.61-1.3-.45-1.28-.84-1.83-.49-1.27-.89-1.81-1.05-.85-1.46-1.38-.68-1.13-1.1-1.66-1.22-.7-1.64-1.22-.48-1.31-.91-1.82-.66-1.17-1.1-1.67c-.43-.49-.97-.91-1.42-1.4s-1.11-.76-1.57-1.25-.79-1.07-1.25-1.55-.81-1.06-1.29-1.52-.9-.98-1.38-1.43-1.52-.29-2.02-.73-.91-.95-1.42-1.38-.66-1.26-1.18-1.68-1.43-.32-1.95-.72-.68-1.28-1.22-1.67-1.26-.51-1.8-.88-.92-1-1.48-1.36-1.32-.38-1.89-.72-1.01-.89-1.58-1.21-1.28-.41-1.87-.71-1.26-.4-1.86-.69-1.08-.78-1.69-1.05-1.09-.81-1.71-1.05-1.3-.29-1.93-.51-1.16-.7-1.79-.89-1.43.2-2.07.03-1.26-.35-1.9-.5-1.28-.23-1.93-.35-1.18-.95-1.83-1.04-1.35.17-2.01.1-1.3-.39-1.96-.43-1.34.58-2,.57-1.31-.6-1.98-.58-1.28.65-1.95.7-1.37-.6-2.03-.53-1.26.55-1.92.65-1.27.33-1.93.46-1.39-.23-2.04-.08-1.25.46-1.9.63-1.17.85-1.81,1.03-1.39.07-2.02.26-1.35.21-1.98.42-1.16.82-1.78,1.03-1.4.1-2.02.33-1.4.16-2.02.4-1.07.98-1.68,1.24-1.37.27-1.97.55-.99,1.08-1.59,1.37-1.36.31-1.95.62-1.38.33-1.95.66-.98,1.02-1.54,1.37-1.25.58-1.79.95-1.17.71-1.7,1.1-1.13.78-1.64,1.2-.59,1.4-1.08,1.84-1.08.81-1.55,1.28-.76,1.12-1.2,1.61-1.27.69-1.68,1.2-.58,1.25-.97,1.79c-.4.55-1.24.8-1.6,1.36s-.15,1.48-.48,2.06-1.05.96-1.35,1.56-.23,1.38-.5,1.99-.52,1.23-.77,1.85-.61,1.2-.84,1.83-.96,1.1-1.16,1.73-.15,1.37-.34,2.01-.31,1.31-.49,1.96.06,1.41-.11,2.06-.5,1.26-.67,1.91-.97,1.14-1.13,1.79.36,1.48.19,2.13-.34,1.3-.52,1.95-.57,1.24-.76,1.88-.42,1.28-.62,1.92-.52,1.24-.74,1.88-.61,1.2-.86,1.83-.35,1.31-.62,1.92c-.3.68-.68,1.32-.95,2.01s-.23,1.49-.47,2.19-.45,1.4-.65,2.11c-.17.6-.37,1.28-.61,1.98-.21.62-.51,1.26-.77,1.93-.25.62-1.01,1.04-1.31,1.68s-.67,1.17-1.01,1.77-.4,1.36-.79,1.92-.8,1.12-1.26,1.62-.73,1.29-1.27,1.7-1.28.64-1.9.93-.94.38-1.63.51c.04.95.31.32,1.45.53.54.1,1.15.46,1.86.54.59.07,1.25.11,1.92.14.61.02,1.28.05,1.93.02s1.27-.2,1.91-.3,1.27-.26,1.88-.43,1.15-.59,1.73-.86.9-.91,1.43-1.27c.46-.31.95-.65,1.51-1.2.43-.42,1.05-.73,1.54-1.27.42-.46,1.05-.79,1.52-1.32.42-.47.91-.92,1.38-1.44.42-.48.67-1.14,1.14-1.65.43-.47.59-1.24,1.06-1.74.44-.47,1.34-.53,1.82-1.02s.6-1.26,1.09-1.73,1.34-.5,1.84-.96.92-.93,1.43-1.38.63-1.3,1.15-1.73,1.05-.82,1.58-1.23,1.08-.77,1.63-1.17,1.09-.76,1.65-1.14,1.43-.24,2-.61.85-1.12,1.43-1.47,1.13-.7,1.72-1.03.99-.96,1.59-1.27,1.4-.18,2-.48,1.1-.77,1.72-1.05,1.29-.35,1.92-.61,1.27-.37,1.9-.61,1.28-.32,1.92-.54,1.16-.68,1.81-.88,1.27-.36,1.92-.54,1.22-.6,1.87-.76,1.33-.16,1.99-.31,1.36.07,2.03-.06,1.24-.58,1.9-.68,1.3-.27,1.97-.37,1.3-.36,1.97-.44,1.39.61,2.07.55,1.28-.58,1.95-.63,1.34.28,2.02.25,1.32-.28,1.99-.29c.98-.05.69-.32,1.95-.37.55-.02,1.21-.23,1.96-.24.6-.01,1.26.57,1.98.57.62,0,1.27-.36,1.97-.35.63,0,1.27.44,1.96.47.63.02,1.28.08,1.96.12.64.03,1.3-.22,1.97-.18s1.29.08,1.96.13,1.31-.03,1.97.04,1.31-.02,1.98.06,1.27.37,1.93.46,1.36-.25,2.01-.16,1.29.25,1.94.36,1.27.36,1.92.48,1.27.32,1.92.45,1.32.12,1.96.26,1.17.75,1.81.91,1.2.58,1.84.75,1.47-.42,2.11-.24,1.12.82,1.75,1.02,1.38,0,2,.22,1.19.58,1.81.8,1.31.27,1.92.51,1,1.02,1.61,1.28,1.25.4,1.85.67,1.29.34,1.88.62,1.34.26,1.93.57,1.11.73,1.69,1.05,1.01.9,1.57,1.23,1.1.72,1.65,1.08.99.88,1.53,1.25.96.83,1.5,1.22c.78.7.77.36,1.7,1.23.44.41,1.2.62,1.79,1.12.5.43,1.13.75,1.71,1.19.54.41.8,1.24,1.39,1.64s1.3.56,1.9.9,1.04,1.15,1.66,1.41c.67.28,1.54-.09,2.19.04.72.14,1.43.79,2.1.7s.92-.92,1.51-1.33c.44-.87.59-.59.45-1.78-.07-.55-.05-1.24-.19-1.96-.12-.59-.91-1.08-1.1-1.74-.17-.6-.22-1.24-.46-1.88-.22-.59-.38-1.22-.67-1.82s-.57-1.15-.91-1.71-.67-1.1-1.08-1.62-.78-1.03-1.26-1.49-.87-.98-1.4-1.38-1.13-.64-1.71-.97c-.55-.31-1.15-.57-1.77-.82-.58-.24-1.1-.81-1.75-.99-.61-.16-1.56.36-2.22.25Z"/><path class="cls-1" d="m68.45,131.52c-.19.99-.19.74-.44,1.97-.11.57-.11,1.26-.23,2.01-.1.62-.3,1.27-.39,1.98-.08.64-.03,1.32-.09,2.02-.05.65-.04,1.32-.06,2.01s-.12,1.34-.1,2.02.15,1.34.21,2.01-.02,1.36.09,2.03.21,1.34.38,2,.44,1.29.68,1.91.41,1.31.58,1.96.37,1.32.48,1.99.16,1.37.22,2.04.18,1.38.19,2.05-.15,1.38-.18,2.05c-.04.71-.07,1.4-.14,2.04-.08.73-.13,1.41-.23,2.04-.13.76-.27,1.44-.4,2.01-.28,1.24.27,1.3-.56,1.91s-.9.23-1.92-.67c-.42-.37-.79-.99-1.2-1.77-.28-.54-.52-1.2-.75-1.99-.18-.61-.36-1.29-.49-2.07-.11-.64-.23-1.34-.3-2.12-.06-.66.01-1.38-.01-2.14-.02-.68-.23-1.32-.28-1.93-.05-.68-.07-1.33-.16-1.93-.1-.68-.3-1.29-.45-1.89-.16-.67-.33-1.28-.54-1.85-.24-.64-.47-1.24-.77-1.77-.33-.58-.7-1.1-1.1-1.59s-.89-.92-1.36-1.36-.84-.99-1.36-1.39-1.04-.74-1.58-1.12c-.51-.36-1.03-.74-1.57-1.13-.51-.36-1.07-.68-1.61-1.09-.59-.45-.99-.93-1.34-1.32-.55-.61-1-1.09-1.09-1.55-.14-.72.31-1.28.89-1.59.48-.25,1.15-.37,1.84-.29.59.06,1.16.36,1.73.68.52.3,1.07.62,1.45,1.16.42.59.92,1.06,1.34,1.55.48.57.84,1.17,1.29,1.59.59.54,1.12,1.01,1.62,1.27.8.41,1.52.37,1.95-.07.26-.26.41-.95.51-1.89.06-.57.08-1.25.14-1.97.05-.62.04-1.29.1-1.97s.13-1.31.24-1.96.25-1.31.41-1.94c.18-.66.5-1.24.77-1.82.29-.62.56-1.24,1-1.69.58-.6,1.09-.83,1.45-.97.74-.3.98.16,1.11.81.15.78.18.86.01,1.73Z"/><path class="cls-2" d="m162.79,39.01c-.87-.47-.52-.58-1.65-1.12-.5-.24-1.27-.16-1.96-.45-.56-.23-1.06-.76-1.73-1.01-.58-.21-1.26-.3-1.92-.51-.6-.19-1.25-.33-1.91-.5-.62-.16-1.3-.13-1.96-.27-.63-.14-1.27-.24-1.93-.35s-1.23-.64-1.89-.72-1.34.28-2.01.24-1.29-.52-1.96-.53-1.32,0-1.99.02-1.28.52-1.94.59-1.33-.09-1.99.01-1.29.23-1.94.37-1.33.11-1.98.29-1.26.39-1.9.61-1.14.7-1.76.92-1.31.22-1.93.44-1.13.73-1.75.96-1.33.19-1.94.41-1.27.36-1.88.59-1.12.76-1.73.99-1.24.44-1.85.67-1.22.48-1.83.72-1.21.5-1.81.75-1.23.46-1.83.71-1.22.49-1.81.76-1.11.74-1.7,1.01-1.35.23-1.93.51-1.2.56-1.78.85-1.15.65-1.72.96-1.04.85-1.59,1.17c-.58.34-1.33.37-1.87.71-.57.36-.97.96-1.48,1.33-.56.39-1.27.55-1.75.94-.53.43-.87,1.06-1.31,1.49-.49.49-1.05.88-1.42,1.38-.4.55-.67,1.19-1.08,1.75s-1.02.94-1.42,1.5-.48,1.33-.87,1.9-.79,1.1-1.16,1.69-.84,1.08-1.19,1.68-.66,1.19-.98,1.81-.7,1.17-.98,1.81-.49,1.27-.75,1.92-.64,1.21-.86,1.87-.21,1.36-.4,2.03-.46,1.28-.62,1.97-.33,1.32-.46,2.01.02,1.38-.07,2.07-.24,1.33-.31,2.03c-.08.92.04.76-.13,1.84-.09.54-.1,1.19-.25,1.84-.13.58-.66,1.08-.85,1.68s-.27,1.23-.54,1.76c-.29.58-.62,1.12-1.01,1.54-.44.48-.96.59-1.54.75-1.23.03-1.39.07-1.88-1.02-.24-.52-.36-1.21.17-2.29.3-.62.63-1.15.91-1.66.32-.57.49-1.17.77-1.73.27-.53.55-1.06.76-1.71.18-.54.54-1.09.66-1.78.1-.56.06-1.2.12-1.9.05-.57-.03-1.21,0-1.9.02-.58.01-1.28.11-2.02.08-.61.21-1.28.36-1.98.13-.62.31-1.27.5-1.95.17-.62.66-1.17.88-1.83.21-.61.19-1.33.44-1.97.24-.6.62-1.17.91-1.79s.47-1.25.79-1.85.91-1.01,1.26-1.59.5-1.24.88-1.81.58-1.22.99-1.77.88-1.01,1.31-1.53,1.04-.86,1.5-1.36.77-1.11,1.25-1.58.89-1.01,1.4-1.46,1.11-.75,1.64-1.18.94-.97,1.49-1.37,1.22-.58,1.79-.96,1.1-.75,1.68-1.11,1.18-.61,1.77-.94,1.05-.87,1.66-1.18,1.24-.5,1.86-.78,1.31-.29,1.89-.56,1.22-.5,1.8-.76,1.2-.55,1.78-.82c.61-.28,1.23-.5,1.81-.76.61-.28,1.11-.74,1.69-1.01.61-.28,1.18-.61,1.75-.87.61-.28,1.12-.74,1.69-1.01.61-.28,1.34-.23,1.92-.49.61-.27,1.23-.49,1.81-.74.62-.27,1.26-.42,1.84-.66.62-.26,1.21-.52,1.8-.75.63-.24,1.1-.82,1.7-1.03.63-.22,1.33-.17,1.94-.36s1.2-.58,1.82-.74,1.24-.48,1.87-.61,1.34.12,1.99.03,1.28-.13,1.93-.18,1.27-.26,1.93-.27,1.29-.21,1.96-.19c.63.02,1.27.3,1.94.35.97.03.74.09,1.94.12.56.02,1.23-.2,1.96-.16.6.03,1.25.16,1.94.22.62.05,1.28.07,1.95.15s1.27.22,1.93.32,1.27.31,1.91.43,1.33.04,1.96.19,1.29.31,1.9.5c.64.21,1.27.45,1.84.7.63.28,1.18.65,1.7.99.85.49.81.56,1.53,1.22.51.47.84,1.06.84,1.66.19,1.19.49,1.68-1.43.69Z"/><path class="cls-2" d="m171.04,35.7c-.94-.32-.3-.58-1.15-1.52-.38-.41-.97-.77-1.53-1.28-.44-.41-1.13-.61-1.69-1.06-.48-.39-.82-1.03-1.4-1.43-.52-.36-1.11-.65-1.71-1.01-.54-.33-1.12-.65-1.73-.96-.57-.29-1.23-.42-1.86-.69-.59-.26-1.17-.55-1.81-.79-.6-.23-1.23-.42-1.88-.62-.61-.19-1.13-.8-1.78-.97s-1.31-.18-1.97-.32-1.32-.03-1.99-.14-1.25-.54-1.92-.61-1.32-.1-1.99-.14-1.32-.06-1.99-.08-1.32.11-1.99.12-1.31.07-1.98.1-1.31.08-1.98.13-1.34-.13-2.01-.05-1.23.73-1.9.82-1.32.04-1.98.16-1.26.38-1.92.52-1.31.1-1.97.25c-.98.34-.67.35-1.86.88-.53.24-1.12.63-1.84.95-.58.26-1.4.12-2.08.41-.6.26-1.19.63-1.86.92-.61.26-1.25.53-1.91.8-.62.26-1.24.56-1.9.83s-1.28.47-1.94.73-1.32.39-1.97.64-1.19.73-1.84.98-1.34.37-1.99.6-1.38.25-2.03.48-1.22.73-1.87.94-1.29.55-1.94.75-1.34.29-1.95.5c-.65.23-1.28.48-1.88.72-.64.26-1.16.73-1.75,1.01-.63.29-1.49.07-2.06.38-.61.32-1.01,1-1.56,1.34-.59.36-1.31.48-1.85.86s-.96.98-1.48,1.4-1.08.82-1.57,1.26-.78,1.12-1.25,1.59-1.16.73-1.62,1.22-1.07.83-1.52,1.33-.82,1.06-1.26,1.57-.52,1.24-.98,1.75c-.47.88-.37.76-.82,1.79-.25.57-.46,1.27-.81,1.85s-.93,1.09-1.38,1.49c-.56.5-1.19.64-1.84.42s-.92-.67-1.07-1.38c-.11-.53-.37-1.19-.24-1.92.11-.57.48-1.15.73-1.82.21-.57.29-1.24.59-1.86.28-.55.76-1.03,1.11-1.61.33-.53.48-1.22.87-1.76.37-.51.72-1.08,1.13-1.6s.91-1,1.45-1.51c.47-.45,1-.92,1.56-1.37.51-.42,1.34-.48,1.91-.9.54-.4,1.12-.74,1.71-1.14s1.13-.74,1.72-1.12.98-1.01,1.58-1.37,1.25-.59,1.85-.93,1.11-.85,1.71-1.18,1.31-.49,1.91-.8,1.16-.79,1.77-1.09,1.21-.71,1.82-.99c.65-.29,1.38-.35,1.99-.61.66-.28,1.41-.26,2.02-.5.69-.27,1.19-.88,1.79-1.08s1.26-.32,1.86-.5c.63-.19,1.27-.25,1.87-.42s1.25-.3,1.86-.46,1.18-.59,1.79-.74,1.35.12,1.96-.05,1.11-.77,1.72-.94,1.25-.24,1.86-.44,1.18-.44,1.78-.67,1.13-.55,1.72-.82,1.14-.5,1.73-.8,1.28-.25,1.88-.52,1.15-.53,1.75-.76,1.1-.7,1.71-.9,1.27-.21,1.89-.39,1.21-.4,1.84-.54,1.24-.34,1.87-.45,1.28-.08,1.92-.17,1.28-.02,1.92-.07,1.26-.43,1.9-.44,1.29.08,1.93.1,1.26.26,1.9.33,1.25.25,1.88.36,1.39-.24,2.07-.09c.64.15,1.26.46,1.91.64s1.2.66,1.84.85,1.41,0,2.04.2,1.14.85,1.76,1.07,1.42.05,2.03.28c.65.24,1.12.91,1.72,1.13.67.25,1.43.15,2.01.38.7.28,1.24.76,1.77.98,1.15.48.87.5,1.79.91s.77.19,1.8.7c.51.26,1.11.55,1.72.88.55.3,1.2.48,1.77.82s1.04.81,1.55,1.17c.58.41,1.24.67,1.64,1.07.6.6.8,1.26.7,1.75-.19.91-.8,1.45-1.5,1.8-1.11.56-1.14.87-2.31.48Z"/></g></svg>