<?xml version="1.0" encoding="UTF-8"?><svg id="hair" xmlns="http://www.w3.org/2000/svg" viewBox="0 0 300 300"><defs><style>.cls-1{fill:#d66a5e;}</style></defs><g id="hair_1"><rect class="cls-1" x="147.38" y="51.24" width="4.51" height="17.59" rx="2.25" ry="2.25"/><rect class="cls-1" x="160.53" y="54.81" width="4.51" height="14.77" rx="2.07" ry="2.07" transform="translate(17.04 -33.33) rotate(12.33)"/><rect class="cls-1" x="185.85" y="59.27" width="4.51" height="14.77" rx="2.07" ry="2.07" transform="translate(46.17 -73.64) rotate(25.16)"/><rect class="cls-1" x="172.65" y="56.39" width="4.51" height="14.77" rx="2.07" ry="2.07" transform="translate(17.65 -35.88) rotate(12.33)"/><rect class="cls-1" x="196.67" y="62.71" width="4.51" height="14.77" rx="2.07" ry="2.07" transform="translate(39.69 -68.21) rotate(21.57)"/><rect class="cls-1" x="208.14" y="68.52" width="4.51" height="14.77" rx="2.07" ry="2.07" transform="translate(42.63 -72.02) rotate(21.57)"/><rect class="cls-1" x="134.2" y="53.62" width="4.51" height="14.77" rx="2.07" ry="2.07" transform="translate(282.8 91.45) rotate(167.67)"/><rect class="cls-1" x="108.33" y="59.27" width="4.51" height="14.77" rx="2.07" ry="2.07" transform="translate(239.02 79.98) rotate(154.84)"/><rect class="cls-1" x="121.53" y="56.39" width="4.51" height="14.77" rx="2.07" ry="2.07" transform="translate(258.33 99.64) rotate(167.67)"/><rect class="cls-1" x="97.51" y="62.71" width="4.51" height="14.77" rx="2.07" ry="2.07" transform="translate(218.31 98.61) rotate(158.43)"/><rect class="cls-1" x="86.04" y="68.52" width="4.51" height="14.77" rx="2.07" ry="2.07" transform="translate(198.31 114.04) rotate(158.43)"/></g></svg>