<svg xmlns="http://www.w3.org/2000/svg" viewBox="0 0 100 100">
    <defs>
        <style>
            .cls-1{fill:#007fdd}.cls-2{fill:#0058af}
        </style>
    </defs>
    <g id="OBJECTS">
        <path class="cls-1" d="M22.17 77.83a30.7 30.7 0 100-43.41 30.69 30.69 0 000 43.41zm35.27-35.27a19.18 19.18 0 11-27.12 0 19.17 19.17 0 0127.12 0z"/>
        <path class="cls-1" transform="rotate(-135 67.691 32.31)" d="M61.93 19.37h11.52v25.88H61.93z"/>
        <path class="cls-1" d="M62.33 13.18V24.7H75.3v12.97h11.52V13.18H62.33z"/>
        <path class="cls-2" d="M68.86 39.15a30.55 30.55 0 00-5.92-6.45l.63-.78c.82.67 1.62 1.39 2.37 2.14a31.77 31.77 0 013.75 4.53zM75.8 32.85h-1V25.2h-4.31v-1h5.31v8.65z"/>
    </g>
</svg>