<?xml version="1.0" encoding="UTF-8"?>
<svg id="backHair" xmlns="http://www.w3.org/2000/svg" viewBox="0 0 300 300">
  <path d="m270.3,192.97c.63-1.6,2.42-2.72,3.02-4.27s-.77-3.94-.19-5.5.73-3.35,1.29-4.92,2.77-2.65,3.3-4.22,2.29-2.86,2.8-4.44-.47-3.74,0-5.33-.38-3.65.06-5.25,2.26-2.93,2.66-4.53c.42-1.68,2.01-3.07,2.36-4.68.37-1.7.96-3.35,1.25-4.97.31-1.71-2.31-3.85-2.08-5.48.24-1.72,2.55-3.14,2.71-4.78.16-1.73-.02-3.47.04-5.11.07-1.74.51-3.47.47-5.12-.05-1.73.5-3.55.34-5.2s-2.06-3.22-2.36-4.85.87-3.77.43-5.37-1.56-3.19-2.16-4.75-2.97-2.4-3.72-3.91-1.27-3.08-2.16-4.53-2.6-2.21-3.6-3.59c-1.03-1.41-1.46-3.26-2.56-4.66s-2.41-2.56-3.53-3.93-1.31-3.51-2.46-4.85-3.2-1.9-4.37-3.21-2.33-2.67-3.51-3.95-2.17-2.85-3.37-4.09c-1.26-1.31-2.68-2.38-3.88-3.6-1.29-1.31-2.03-3.13-3.22-4.31.85-1.67.86-3.68,1.31-5.68.41-1.8,1.42-3.57,1.45-5.65.02-1.84-1.34-3.6-1.67-5.66-.26-1.67,2-3.87,1.56-5.43s-2.96-2.56-3.6-4.05-.28-3.62-1.12-5.01-1.7-3.04-2.74-4.29-3.92-.77-5.15-1.83-2.54-1.69-3.95-2.52-1.61-4.24-3.16-4.81-3.83,1.8-5.48,1.55-3.05-2.62-4.73-2.55-3.53-.37-5.19,0c-1.56.35-2.25,3.68-3.83,4.32-1.48.59-3.87-.71-5.36.15-1.45.84-3.29,1.21-4.47,2.13-1.31,1.03-.49,4.21-1.5,5.33-1.11,1.23-3.52,1.28-4.31,2.58-.86,1.41.22,3.58-.31,5-.57,1.55-1.98,2.63-2.25,4.13-.29,1.64-.18,4.26-.2,5.75-1.63-.51-3.67-3.08-5.36-3.53s-3.65.45-5.36.08-3.07-2.22-4.78-2.54-3.76,1.8-5.49,1.55-3.27-1.19-5.01-1.38-3.48.88-5.22.76-3.26-3.22-5-3.28-3.48,1.81-5.22,1.8-3.47-1.82-5.21-1.76-3.44.53-5.18.64-3.37,1.13-5.11,1.29-3.32,1.09-5.06,1.3-3.29,1.07-5.02,1.32-3.36.52-5.07.82c-1.78.31-3.59.4-5.46.86-1.77.43-3.94-.46-5.77.11s-3.81.44-5.6,1.11-2.45,3.8-4.19,4.56-3.81-.59-5.49.27c-.05-1.36-1.42-2.19-1.8-4.15-.29-1.54,1.08-3.69.45-5.41-.56-1.52-2.02-2.82-2.93-4.35-.83-1.4-1.82-2.81-3.02-4.13-1.09-1.2-3.09-1.37-4.54-2.42-1.3-.95-2.78-1.3-4.41-2.07-1.45-.69-2.54-2.11-4.28-2.62-1.65-.48-3.17-.82-4.75-1.05-1.69-.25-3.24-.38-4.84-.35-1.7.03-3.07,1.01-4.65,1.32s-3.86-1.45-5.37-.83-2.4,2.63-3.77,3.54-3.42,1.05-4.61,2.21-2.86,2.12-3.84,3.47-.05,3.86-.79,5.36-1.53,2.82-2.04,4.42-2.89,2.75-3.17,4.41-.42,3.45-.48,5.13.04,3.45.18,5.13c.13,1.59,2.1,2.92,2.4,4.34.33,1.56-.23,3.34.29,4.7.56,1.49,1,3.14,1.76,4.39.81,1.35,2.55,2,3.54,3.09-1.16,1.15-2.63,2.01-3.87,3.27-1.15,1.18-.9,3.79-2.1,5.05s-4.57.35-5.74,1.62-1.54,3.2-2.68,4.48-.68,3.9-1.8,5.2-2.86,2.01-3.94,3.33-3.7,1.42-4.75,2.76-2.05,2.79-3.05,4.15c-1.01,1.38-1.6,3.12-2.48,4.55s.38,4.04-.37,5.55-3.09,2.27-3.7,3.85-.42,3.4-.87,5.04-.92,3.19-1.23,4.88-.76,3.25-.93,4.97-1.45,3.29-1.49,5.02,1.01,3.37,1.07,5.1c.06,1.64,1.54,3.21,1.7,4.93.15,1.64-.49,3.37-.24,5.09.23,1.63.54,3.27.85,4.98s-.86,3.58-.49,5.28,2.38,2.88,2.8,4.56-.03,3.45.43,5.12,1.76,2.96,2.26,4.62,1.62,2.98,2.15,4.62-1.87,4.14-1.32,5.77,3.88,2.2,4.46,3.83-1.14,3.98-.54,5.6,3.72,2.18,4.34,3.79.75,3.3,1.39,4.9c.65,1.64.84,3.45,1.37,5.03.56,1.68.12,3.61.55,5.22.46,1.71,1.13,3.3,1.46,4.93.35,1.74,1.36,3.34,1.56,4.99.22,1.76.24,3.53.31,5.19.07,1.77-1.15,3.48-1.23,5.14-.08,1.77-.9,3.32-1.13,4.97-.25,1.75-.49,3.33-.89,4.94-.42,1.72,1.32,4.03.76,5.6-.6,1.67-3.67,2.23-4.38,3.73-.76,1.61-1.62,2.93-2.46,4.35-.92,1.54.33,4.38-.63,5.71-1.07,1.47-2.55,2.57-3.59,3.79-1.22,1.44-2.25,2.89-3.31,4-1.46,1.54-3.45,2.07-4.3,3.03-1.75,1.96-1.69,1.7,1.47,1.5,1.2-.08,3.19,2.44,5.41,2.09,1.45-.23,2.96-1.62,4.91-1.95,1.69-.29,3.15-1.54,4.76-1.94s3.71.53,5.29,0,3.28-1.15,4.82-1.79,2.59-2.54,4.07-3.31,3.8-.29,5.21-1.18,1.64-3.61,2.97-4.63,4.18-.33,5.42-1.46.51-4.3,1.64-5.54,4.36-.8,5.37-2.14.45-3.86,1.33-5.29,2.87-2.31,3.61-3.82,1.66-3.08,2.25-4.65.23-3.55.67-5.17.02-3.43.29-5.09.61-3.27.72-4.96-.58-3.3-.64-4.99,1.93-3.54,1.69-5.22.11-3.58-.3-5.23-2.17-2.96-2.74-4.57-1.02-3.26-1.74-4.8-2.74-2.33-3.61-3.8-1.03-3.29-2.04-4.67-3.06-1.77-4.18-3.07-1.62-2.96-2.85-4.16c-1.21-1.18-3.18-1.65-4.3-2.84s-1.48-3.24-2.53-4.49-1.14-3.36-2.13-4.67-2.15-2.54-3.05-3.91-1.52-2.95-2.32-4.38-3.04-2.21-3.73-3.7-1.93-2.92-2.5-4.46-1.02-3.31-1.46-4.9,1.89-3.85,1.59-5.48-3.51-2.88-3.66-4.54-.07-3.46-.07-5.13.62-3.39.78-5.06.91-3.27,1.21-4.92-.33-3.54.11-5.16,2.58-2.69,3.15-4.28-.26-3.7.42-5.24c.67-1.5,1.54-2.91,2.23-4.35s2.25-2.55,2.97-3.96.23-3.59.99-4.98,3.88-1.6,4.66-2.97c.82-1.45.46-3.51,1.26-4.86.84-1.44,2.61-2.27,3.41-3.61.86-1.44,1.09-3.18,1.88-4.52.86-1.46,1.75-1.56,2.5-2.89,2.41.95,4.68.27,7.21.52-.87,1.52-1.83,2.87-2.59,4.48s-.57,3.55-1.2,5.21-1.41,3.17-1.91,4.89-2.81,2.95-3.17,4.7.17,3.66-.06,5.44c-.23,1.74.31,3.52.22,5.17-.09,1.75,1.52,3.39,1.57,5.05.06,1.74-2.57,3.64-2.36,5.29.23,1.73,1.17,3.37,1.56,4.99s1.04,3.32,1.62,4.89,1.76,2.98,2.52,4.48.23,3.92,1.18,5.32,2.18,2.83,3.29,4.12,3.16,1.8,4.4,2.98,2.94,1.77,4.3,2.82,2.55,2.21,3.99,3.15,2.39,2.65,3.9,3.47,3.37.9,4.93,1.62,2.86,1.98,4.46,2.6,3.69-.27,5.33.27,3.17,1.1,4.82,1.56,3.11,1.41,4.79,1.81,3.35.49,5.03.81,3.45-.22,5.14.04,3.26.91,4.96,1.13,3.19,2.01,4.89,2.17,3.46-.47,5.16-.35,3.45-1.33,5.16-1.26,3.36-.05,5.07-.02,3.38,2.6,5.08,2.59,3.42-.25,5.12-.3,3.29-2.46,4.99-2.56c1.81-.1,3.56-.05,5.2-.11,1.81-.07,3.59,1.8,5.25,1.75,1.79-.05,3.45-1.56,5.12-1.62,1.76-.07,3.55,1.59,5.25,1.48s3.49.09,5.22-.1,3.52.19,5.28-.11c1.63-.28,2.89-2.86,4.65-3.26,1.6-.36,3.25-.71,5-1.19,1.58-.43,3.71.67,5.44.13,1.56-.49,2.71-2.51,4.43-3.11,1.55-.54,3.34-.63,5.03-1.26,1.54-.58,2.59-2.62,4.26-3.29,1.54-.61,3.22-1,4.88-1.69,1.53-.63,3.8.31,5.44-.39,1.53-.66,2.36-3.08,3.99-3.8,1.53-.67,3.33-.86,4.95-1.59,1.61-.72,2.76-1.99,4.2-2.84,1.52-.89,3.23-1.21,4.56-2.24s3.73-1.04,4.92-2.23.48-4.1,1.5-5.46,2.12-2.5,2.94-4,3.9-2,4.51-3.61-.18-3.73.21-5.41-.2-3.45-.02-5.17-.24-3.3-.26-5.04,1.68-3.48,1.47-5.21-.34-3.46-.71-5.16-1.3-3.22-1.83-4.88-1.46-3.09-2.12-4.71-1.47-3.05-2.26-4.6-.03-3.92-.92-5.41-2.81-2.31-3.81-3.74-1.78-2.96-2.87-4.32-2.08-2.35-3.25-3.64c1.1-.58,1.71-1.29,2.73-2.03.85,1.46.72,3.66,1.68,5.27.88,1.47,1.51,3.17,2.45,4.76.88,1.48,2.7,2.47,3.62,4.07.86,1.5,3.35,2.17,4.23,3.78.84,1.53.4,3.8,1.24,5.42s.76,3.55,1.55,5.19,3.52,2.27,4.26,3.93c.69,1.54-.03,3.66.53,5.2s1.58,3.02,2.01,4.6.26,3.37.56,4.99-.17,3.34-.01,4.98,1.81,3.23,1.82,4.89-1.51,3.25-1.66,4.91.83,3.45.53,5.09-.64,3.29-1.09,4.9-.46,3.4-1.04,4.97-3.21,2.23-3.92,3.76-.63,3.33-1.45,4.8-1.77,2.76-2.7,4.17-1.64,2.86-2.65,4.21-.77,3.65-1.86,4.94-3.31,1.53-4.46,2.76-1.81,2.87-3.02,4.05c-1.23,1.2-1.71,2.95-2.8,4.2s-3.33,1.62-4.3,2.97-.46,3.68-1.31,5.11-1.61,2.81-2.32,4.32-2.29,2.61-2.85,4.18-2.08,2.91-2.48,4.53-1.36,3.27-1.59,4.93,1.46,3.54,1.39,5.22-1.08,3.37-.97,5.05,1.23,3.24,1.5,4.9-1.41,3.8-.97,5.43,1.58,3.15,2.18,4.73,1.73,2.99,2.48,4.5,2,2.76,2.89,4.2,1.3,3.22,2.32,4.57,1.54,3.21,2.69,4.46,3.83.97,5.08,2.11,1.17,3.88,2.53,4.91,3.42,1.1,4.86,2.01,2.61,2.28,4.13,3.07,3.32.92,4.9,1.58,3.33.64,4.96,1.17,3.32.37,4.99.79,2.97,2.02,4.66,2.32c1.94.34,3.48,1.6,4.93,1.82,2.23.35,4.12-.97,5.32-.89,3.15.2,2.6.11.84-1.86-.85-.95-1.27-2.95-2.73-4.48-1.06-1.11-3.7-1.09-4.92-2.53-1.04-1.22-1.65-3.04-2.71-4.51-.96-1.33-1.96-2.81-2.88-4.34-.85-1.42-1.88-2.91-2.64-4.52-.71-1.5-.95-3.34-1.55-5.01-.56-1.57-1.38-3.18-1.8-4.9-.4-1.61.14-3.51-.11-5.26-.24-1.64.15-3.37.07-5.14-.08-1.66-1.62-3.38-1.55-5.15.07-1.66,2.09-3.21,2.31-4.97.2-1.65-1.25-3.61-.9-5.35.33-1.63.8-3.33,1.26-5.04.43-1.61,2.63-2.72,3.19-4.4.53-1.58.09-3.54.74-5.18Z" style="fill: #be5e50; stroke-width: 0px;"/>
</svg>