<?xml version="1.0" encoding="UTF-8"?><svg id="backHair" xmlns="http://www.w3.org/2000/svg" viewBox="0 0 300 300"><defs><style>.cls-1{fill:#be5e50;}</style></defs><g id="backHair_14"><path class="cls-1" d="m149.98,38.23c-2.39.05-1.78,1.48-4.79,1.12-1.34-.16-2.8-1.57-4.61-1.71-1.45-.12-3.12,1.14-4.84,1.06-1.5-.07-3.06-.17-4.74-.19-1.52-.02-3.1-.75-4.76-.71-1.54.03-3.19-1.06-4.82-.96-1.55.09-3.12.71-4.75.86s-3.09.79-4.7,1-3.28-.5-4.88-.24-3.08.88-4.66,1.2-3.15.53-4.71.92-2.9,1.48-4.44,1.93-3.01,1-4.53,1.52-2.92,1.23-4.41,1.82-3.29.39-4.75,1.05-2.54,2.06-3.97,2.79-3.24.72-4.63,1.52-2.29,2.35-3.63,3.23-2.54,1.88-3.84,2.83-2.72,1.66-3.96,2.68c-1.21,1-2.45,2.03-3.63,3.12s-2.14,2.35-3.25,3.5-2.23,2.25-3.28,3.46-2.96,1.7-3.94,2.98c-.96,1.24-1.17,3.11-2.09,4.43-.9,1.29-.78,3.25-1.63,4.62s-3.43,1.65-4.21,3.06c-.76,1.37-.56,3.3-1.28,4.75s-.37,3.29-1.02,4.77-3.05,2.15-3.64,3.65-1.34,2.92-1.86,4.44-.58,3.17-1.05,4.71c-.46,1.5.97,3.55.56,5.11s-.88,2.99-1.24,4.57c-.35,1.53-1.38,2.91-1.69,4.49-.3,1.54-.9,3.04-1.16,4.64s-1.17,3.02-1.39,4.62c-.21,1.55-.55,3.14-.72,4.74-.17,1.56,1.26,3.3,1.13,4.9-.13,1.57-.19,3.14-.29,4.75s-2.01,3.05-2.07,4.66c-.14,2.4.44,1.77.24,4.83-.09,1.35,1.32,3.05,1.21,4.89-.08,1.46-2.07,2.97-2.15,4.7-.07,1.51,1.3,3.18,1.23,4.86-.06,1.54.43,3.15.38,4.81-.05,1.55-.46,3.14-.5,4.79s-.33,3.16-.36,4.79-1.45,3.16-1.46,4.79.29,3.19.3,4.81.81,3.19.83,4.8-.06,3.2-.02,4.81c.04,1.6,1.04,3.17,1.1,4.77.06,1.6-.56,3.23-.48,4.82s-.6,3.26-.5,4.85-.43,3.28-.3,4.86c.14,1.61.36,3.23.53,4.8.17,1.62,2.38,2.97,2.59,4.53s-1.11,3.43-.85,4.98c.27,1.62,2.02,2.92,2.33,4.45.33,1.62-1.46,3.69-1.08,5.19.42,1.62,2.1,2.83,2.59,4.29.54,1.6.7,3.29,1.33,4.66.72,1.56,1.77,2.86,2.61,4.08.99,1.43,1.28,3.31,2.47,4.2,1.5,1.73,1.54,1.3,4.56,2.16,1.16.33,2.82-.21,4.71-.18,1.32.03,2.23-.19,3.97-.41,1.03-1.9-.07-1.43-.67-3.8-.33-1.29-.9-2.74-1.07-4.22s-.76-3.19-.52-4.49c.29-1.57,1.1-1.96,2.39-2.6,1.78,1.63,1.39,1.19,2.07,3.86.36,1.42.7,3.02,1.33,4.57.61,1.52,1.65,2.68,2.57,3.91,1.03,1.38,1.92,1.88,3.39,2.36,2.33.58,1.53.53,4.61,1,1.33.2,2.67,2.18,4.5,2.44,1.44.2,3.19-.72,4.92-.5,1.49.19,2.99,1.15,4.68,1.35,1.51.18,3.12.25,4.79.43,1.53.17,3.06.99,4.71,1.16,1.54.16,3.24-.68,4.88-.52,1.55.15,3.2-.34,4.84-.2s3.05,1.61,4.68,1.74,3.21-.38,4.84-.27,3.22-.64,4.85-.54,3.19-.2,4.81-.11,3.12,1.12,4.75,1.2,3.21-.69,4.83-.63,3.13,1.41,4.75,1.46,3.18.47,4.79.51,3.2-.7,4.82-.68,3.19-.28,4.8-.27,3.19-.56,4.8-.57,3.21,1.94,4.82,1.92,3.19-.58,4.8-.61,3.21.17,4.82.12,3.22.24,4.82.18,3.1-2.29,4.7-2.37,3.24.79,4.85.69,3.13-1.1,4.73-1.22,3.24.48,4.84.35,3.1-1.24,4.7-1.39,3.42,2.04,5.01,1.87,3.19-.4,4.79-.58,3.08-1.28,4.67-1.48,3.31.51,4.9.29,2.84-2.66,4.43-2.9,3.47,1.39,5.05,1.12,3.22-.29,4.79-.58,2.92-1.83,4.49-2.14,3.44.77,5.01.43,3.14-.75,4.7-1.11,3-1.32,4.55-1.71,2.87-1.58,4.41-1.99c1.98-.93,1.12-1.04,2.65-3.27.7-1.02,1-2.35,1.62-3.91.48-1.22.65-2.5.95-4.08.25-1.32.74-3.03.78-4.62,1.72-2.74,4.25-3.84,4.92,1.15.18,1.36.21,3.02.24,4.74.02,1.63-.84,3.26-.89,4.74-.09,2.7-.27,2.58,1.25,4.43,1.34,1.64,1.46.46,3.67-.5,1.13-.49,1.96-1.61,3.02-2.81.83-.93,1.38-1.99,1.94-3.51.33-.92.72-2.41,1.18-4.59.29-1.35,1.68-2.72,1.99-4.52.25-1.45.31-3.08.57-4.8.22-1.49,1.18-3,1.4-4.69.2-1.52.16-3.16.35-4.83.18-1.54-.08-3.19.09-4.85.16-1.55-.69-3.24-.55-4.89.14-1.56.98-3.1,1.1-4.74.12-1.56-.21-3.2-.11-4.84s-.1-3.19-.02-4.82,1.24-3.13,1.31-4.76c.07-1.58.69-3.17.74-4.81s.37-3.19.4-4.83-.57-3.21-.55-4.85-.8-3.2-.8-4.83,1.23-3.21,1.21-4.83-1.19-3.19-1.22-4.81,1.32-3.24,1.28-4.86c-.05-1.59-.58-3.19-.65-4.82-.06-1.59-1.78-3.13-1.85-4.75s-.54-3.17-.64-4.79c-.09-1.59-.13-3.19-.24-4.81s1.44-3.31,1.31-4.93-.17-3.21-.31-4.83-1.63-3.07-1.79-4.69,1.48-3.42,1.28-5.01-.59-3.21-.85-4.79-.41-3.24-.72-4.82-2.49-2.78-2.85-4.34c-.36-1.58,1.21-3.63.8-5.18s-1.38-3-1.85-4.53c-.47-1.55-1-3.1-1.52-4.61s-1.76-2.81-2.34-4.3-2.2-2.56-2.84-4.03c-.65-1.49.67-3.86-.03-5.31s-1.71-2.79-2.48-4.2c-.77-1.42-2.84-2.09-3.67-3.47s-1.73-2.68-2.62-4.02-.37-3.69-1.33-4.98c-.96-1.3-3.38-1.46-4.4-2.69s-1.75-2.71-2.83-3.9-2.16-2.37-3.31-3.49c-1.16-1.13-2.5-2.01-3.71-3.06s-2.26-2.28-3.54-3.27-1.69-3.2-3.02-4.11-3.57-.44-4.95-1.27-3.03-1.09-4.46-1.84-2.31-2.56-3.79-3.22-3.07-1.01-4.58-1.58-2.89-1.5-4.44-1.98-3-1.34-4.57-1.73-3.32.06-4.92-.25-3.18-.44-4.79-.66-3.11-1.19-4.73-1.32-3.24-.06-4.87-.11-3.23-.3-4.86-.28-3.25-.24-4.88-.15-3.03,2.37-4.65,2.53-3.4-1.53-5.02-1.3-3.1,1.05-4.7,1.34-2.97,1.46-4.57,1.81-3.28-.96-4.87-.56Z"/></g></svg>