<?xml version="1.0" encoding="UTF-8"?><svg id="backHair" xmlns="http://www.w3.org/2000/svg" viewBox="0 0 300 300"><defs><style>.cls-1{fill:#be5e50;}</style></defs><g id="backHair_4"><path class="cls-1" d="m237.63,13.27c-1.62,0-3.11,1.77-4.61,1.95-1.61.2-2.91,1.07-4.37,1.45-1.56.41-2.88.86-4.28,1.44-1.48.61-2.96.85-4.28,1.62s-3.15.92-4.36,1.86-2.56,1.92-3.64,3-2.16,2.37-3.11,3.55c-1.02,1.26-1.7,2.72-2.52,3.98-.91,1.38-2.4,2.36-3.09,3.65-.83,1.53-.38,3.52-.92,4.78-.88,2.03-1.89,3.52-2.13,4.3-1.45-.6-3-1.14-4.5-1.68s-2.59-2.22-4.11-2.71-3.32.02-4.85-.41-3.19-.22-4.74-.58-3.04-.74-4.61-1.05-2.95-1.36-4.53-1.61-3.02-1.3-4.61-1.5-3.33,1.51-4.92,1.37-3.06-1.26-4.65-1.34-3.14-.94-4.73-.97-3.16,1.71-4.76,1.73-3.16-.79-4.76-.72-3.12.61-4.71.73-3.16-.03-4.74.14-3.1.54-4.69.75-3.17.06-4.75.31-2.85,1.92-4.42,2.21-3.42-1.08-4.98-.75c-1.5.32-2.6,2.39-4.17,2.82s-3.2.08-4.73.6-3.2.37-4.7.96-2.7,1.68-4.16,2.35-2.5,1.99-3.93,2.72-3.21.63-4.6,1.43-2.3,2.24-3.65,3.1-2.85,1.35-4.16,2.27-2.51,1.87-3.78,2.85-2.35,2.07-3.57,3.1-3.2,1.14-4.37,2.22-1.99,2.5-3.11,3.64-1.25,3.12-2.32,4.31-1.99,2.38-3,3.62-2.06,2.33-3.01,3.61c-.94,1.26-2.85,1.82-3.74,3.15s-1.4,2.85-2.23,4.21-1.21,2.92-1.98,4.32-3.1,1.96-3.8,3.4-.26,3.38-.89,4.84-.54,3.16-1.1,4.66-2.48,2.47-2.97,3.99-1.18,2.97-1.61,4.52-1.1,3.02-1.46,4.58,1.52,3.54,1.23,5.12-1.82,2.87-2.05,4.46-.48,3.13-.65,4.72c-.17,1.63-.68,3.23-.78,4.81s-.36,3.28-.39,4.86-.12,3.3-.08,4.89.49,3.28.62,4.86,1.23,3.15,1.45,4.72,1.48,3,1.79,4.55.21,3.23.63,4.76.07,3.36.6,4.86c.54,1.54.42,3.36,1.06,4.82s1.84,2.77,2.59,4.18,2.5,2.28,3.36,3.63,1.17,3.09,2.13,4.37,2.89,1.76,3.95,2.97,1.82,2.62,2.97,3.75,1.86,2.69,3.08,3.75,2.48,2.05,3.77,3.02,2.5,2.05,3.85,2.93,2.28,2.5,3.69,3.3,3.53.25,4.98.97,2.99,1.12,4.48,1.77,2.62,2.04,4.13,2.62c1.5.57,3.34.15,4.88.66,1.52.51,2.97,1.17,4.52,1.62,1.54.44,3.17.46,4.74.84,1.56.38,2.84,1.92,4.43,2.25s3.34-.43,4.94-.16,3.17.36,4.77.59,3.1.97,4.7,1.15c1.6.18,3.08,1.64,4.69,1.77s3.2.9,4.81.99c1.61.09,3.3-1.28,4.91-1.23s3.22-.44,4.84-.44,3.23,1.17,4.85,1.13,3.18-1.43,4.79-1.5,3.26.6,4.86.49c1.66-.11,3.2-1.21,4.74-1.28,1.66-.08,3.33,1.55,4.87,1.49,1.65-.07,3.22-.58,4.77-.64,1.64-.06,3.28.95,4.85.86s3.23-.29,4.81-.42c1.58-.13,3.03-1.67,4.63-1.88s3.27.42,4.88.12c1.52-.28,2.85-1.66,4.46-2.05,1.49-.36,3.42.6,5.01.13,1.46-.44,2.45-2.6,4.02-3.15,1.44-.5,2.81-1.32,4.36-1.92,1.43-.55,3.66.74,5.2.1,1.41-.59,2.02-3.2,3.54-3.87,1.4-.63,3.31-.27,4.81-.98,1.4-.66,3.42-.15,4.9-.88,1.39-.68,2.23-2.58,3.71-3.33,1.38-.7,3.41-.25,4.87-1.01,1.38-.72,1.82-3.32,3.27-4.09,1.37-.73,2.56-1.89,4-2.67,1.37-.74,3.87.5,5.31-.29,1.42-.78,2.95-1.55,4.25-2.44,1.34-.91,1.52-3.35,2.74-4.37s3.37-1.1,4.48-2.23.95-3.43,1.94-4.68,2.55-2.31,3.42-3.65c1.7.55,3.57.76,5.21,1.05,1.76.31,3.37,1.25,5.03,1.33,1.8.08,3.57.16,5.21.02,1.83-.15,3.43-1.19,5-1.51,1.9-.39,3.52-.89,4.93-1.36,3.01-.99,3.31.63,4.33-1.75-.73-1.47-1.51-2.45-2.05-3.98s.34-3.5-.04-5.1-2.14-2.91-2.36-4.55.12-3.31.03-4.97,1-3.24,1.01-4.91-.99-3.25-.9-4.91.22-3.23.37-4.89,1.08-3.13,1.27-4.79-.98-3.38-.76-5.03,2.51-2.91,2.75-4.56-.78-3.38-.53-5.02.62-3.18.88-4.82,1.72-3.01,1.97-4.65-1.23-3.46-.98-5.1,1.48-3.06,1.72-4.7.74-3.17.96-4.81-1.45-3.46-1.24-5.1,1.99-3.02,2.17-4.67-1.43-3.41-1.26-5.06.48-3.2.62-4.85,2.18-3.16,2.24-4.74c.06-1.67-.93-3.32-.97-4.9-.04-1.67.53-3.34.39-4.92-.15-1.66-.67-3.26-.93-4.82-.28-1.64-.65-3.24-1.04-4.78s-.43-3.34-.95-4.84-1.38-3.04-2.05-4.48-2.63-2.29-3.45-3.66-.97-3.23-1.93-4.51-2.28-2.33-3.37-3.51-2.61-1.9-3.82-2.97-2.64-1.73-3.96-2.68-2.38-2.13-3.78-2.95-2.61-1.9-4.08-2.59-3.17-.68-4.69-1.24-2.57-2.52-4.13-2.96-3.28-.32-4.87-.65-3.09-1.34-4.7-1.56-3.32.22-4.93.11-3.26-1.17-4.87-1.17Z"/></g></svg>