<?xml version="1.0" encoding="UTF-8"?><svg id="backHair" xmlns="http://www.w3.org/2000/svg" viewBox="0 0 300 300"><defs><style>.cls-1{fill:#be5e50;}</style></defs><g id="backHair_6"><path class="cls-1" d="m193.99,41.82c.95-1.36,1.27-2.28,1.8-3.59.61-1.49.7-3.11.8-4.58.1-1.49.21-3.1-.19-4.65-.36-1.37-1.45-2.61-2.19-4.09-.64-1.26-.53-3.14-1.44-4.51-.79-1.19-1.89-2.34-2.88-3.63-.88-1.15-2.07-2.18-3.09-3.42-.99-1.2-1.73-2.96-3.02-3.95-1.22-.93-3.5-.41-4.95-1.16-1.37-.71-2.69-1.51-4.23-2.06s-3.04-.59-4.61-.97-3.01-.7-4.6-.93-3.06-.74-4.65-.85-3.13-1.47-4.73-1.48-3.12,1.88-4.7,1.98-3.27-.93-4.83-.72-2.95,1.63-4.49,1.94-3.5-.86-5-.43-3.18.85-4.63,1.4c-1.52.58-2.18,3-3.54,3.7-1.46.75-3.94-.23-5.17.66-1.34.97-2.62,2.24-3.64,3.36-1.11,1.21-1.79,2.76-2.66,3.93-.97,1.33-1.08,3.11-1.76,4.39-.78,1.46-2.02,2.61-2.47,3.99-.51,1.56-.74,3.16-.9,4.61-.18,1.62-.31,3.24-.15,4.7.18,1.61.43,2.8.9,4.21-1.51.39-2.3,2-3.86,2.5s-3.61-.72-5.15-.14-2.32,2.75-3.81,3.4-2.8,1.43-4.26,2.16-2.98,1.1-4.4,1.89-2.51,1.96-3.89,2.81-3.9-.14-5.24.78-1.98,2.76-3.28,3.74c-1.27.96-2.88,1.53-4.13,2.56s-2.44,2.1-3.64,3.19-2.6,1.95-3.75,3.09-1.27,3.22-2.37,4.41-1.99,2.47-3.03,3.71c-1.02,1.22-2.02,2.44-3,3.73-.96,1.27-2.95,1.82-3.87,3.15s-1.81,2.68-2.66,4.05c-.84,1.35-.8,3.24-1.59,4.66s-1.79,2.66-2.5,4.12-1.76,2.72-2.41,4.2c-.64,1.46-1.22,2.97-1.79,4.49-.57,1.49-1.54,2.87-2.05,4.41-.5,1.51-.97,3.08-1.41,4.65s-.68,3.16-1.05,4.74c-.36,1.55,1.04,3.47.74,5.07-.3,1.56-1.1,3.02-1.33,4.63s-1.66,3.01-1.83,4.63c-.17,1.63-.24,3.28-.34,4.86s-.34,3.28-.37,4.86-.27,3.3-.22,4.89c.05,1.64,2.29,3.13,2.43,4.71.14,1.64-.32,3.27-.1,4.84s.65,3.15.97,4.71c.33,1.61.71,3.13,1.14,4.66s-.66,3.63-.13,5.13,2.9,2.35,3.54,3.81c.65,1.5-.31,3.75.44,5.16s2.19,2.53,3.04,3.88c.87,1.37,1.37,3.03,2.33,4.32s3.06,1.69,4.12,2.9,1.71,2.79,2.85,3.93,2.18,2.4,3.41,3.46,3.28,1.02,4.57,1.99,2.21,2.37,3.57,3.26c1.34.88,2.01,2.91,3.42,3.71s3.13,1.05,4.58,1.77c1.43.72,3.49.09,4.98.74,1.47.64,2.33,2.76,3.84,3.34,1.5.57,3.24.51,4.78,1.02,1.52.51,2.8,1.87,4.36,2.32s3.57-.89,5.14-.51,2.78,2.23,4.37,2.56,3.42-.79,5.02-.51c1.58.28,3.14.58,4.74.81,1.59.23,3.13.77,4.74.95s3.08,1.64,4.69,1.78,3.3-.85,4.91-.76c1.61.09,3.22-.17,4.84-.12,1.61.05,3.21.89,4.82.89,1.61,0,3.21-1.27,4.82-1.3,1.61-.03,3.22.24,4.83.17,1.61-.07,3.24.36,4.85.25,1.66-.11,3.27.09,4.81.02,1.66-.08,3.28.7,4.82.64,1.65-.07,3.2-1.28,4.75-1.34,1.64-.06,3.18-.85,4.75-.94s3.25.75,4.83.61c1.58-.13,3.06-1.08,4.66-1.29s3.13-.15,4.74-.45c1.52-.28,3.16-.12,4.77-.52,1.49-.36,2.78-1.62,4.37-2.09,1.46-.44,2.87-1.14,4.45-1.68,1.44-.5,3.3-.01,4.85-.61,1.43-.55,2.81-1.37,4.35-2.01,1.41-.59,3.11-.68,4.63-1.35,1.4-.63,2.71-1.6,4.21-2.3,1.4-.66,3.32-.36,4.8-1.09,1.39-.68,2.74-1.58,4.21-2.33,1.38-.7,2.76-1.52,4.22-2.28,1.38-.72,2.07-2.83,3.52-3.6,1.37-.73,2.95-1.17,4.39-1.95s3.18-.77,4.61-1.56c1.43-.79,2.32-2.43,3.63-3.33s3.2-1.15,4.43-2.18,1.34-3.27,2.46-4.42,3.15-1.47,4.16-2.73,2.35-2.34,3.22-3.7c.88-1.35,1.05-3.15,1.8-4.59s.46-3.28,1.08-4.78c.61-1.48,2.12-2.6,2.61-4.15s.81-3.1,1.19-4.68,1.12-3.06,1.38-4.67c.25-1.58-.7-3.3-.55-4.93s1.72-3.11,1.76-4.74-1.24-3.21-1.3-4.83c-.06-1.6,1.48-3.33,1.33-4.95-.15-1.6-.74-3.19-.98-4.8s-.48-3.21-.8-4.81c-.32-1.57-.24-3.29-.64-4.87s-1.34-3.01-1.82-4.56-1.8-2.8-2.35-4.33-.93-3.09-1.55-4.59-2.08-2.58-2.76-4.05-.44-3.36-1.19-4.8c-.74-1.42-2.08-2.52-2.9-3.93-.81-1.39-1.46-2.86-2.33-4.23s-.68-3.44-1.61-4.77c-.92-1.32-3.51-1.42-4.5-2.71s-.59-3.65-1.63-4.9c-1.03-1.23-3.44-1.26-4.53-2.46-1.09-1.19-1.11-3.37-2.26-4.52-1.13-1.14-2.1-2.5-3.29-3.6s-3.28-1.16-4.52-2.21-2.67-1.77-3.95-2.77-2.3-2.26-3.62-3.2-2.86-1.47-4.22-2.35-2-2.88-3.4-3.7-2.77-1.68-4.21-2.44-3.57-.06-5.03-.76-2.33-2.62-3.82-3.26-3.01-1.16-4.54-1.74-2.28-1.23-3.82-1.75Z"/></g></svg>