<?xml version="1.0" encoding="UTF-8"?><svg id="backHair" xmlns="http://www.w3.org/2000/svg" viewBox="0 0 300 300"><defs><style>.cls-1{fill:#be5e50;}</style></defs><g id="backHair_11"><path class="cls-1" d="m189.03,47.96c-2.31-.82-1.11-2.01-3.31-4.17-.99-.97-2.14-2.09-3.58-3.27-1.16-.94-1.45-3.35-2.91-4.34-1.27-.87-3.51-.43-5.01-1.29-1.35-.77-2.71-1.67-4.25-2.39-1.42-.66-3.35-.13-4.94-.72-1.48-.55-2.87-1.22-4.49-1.69-1.52-.44-2.59-2.86-4.24-3.21-1.55-.32-3.22-.61-4.89-.84-1.57-.21-3.41,1.88-5.08,1.77-1.59-.11-3.13-1.57-4.81-1.57-1.59,0-3.23-.12-4.91-.02s-3.31-.51-4.98-.32-2.98,2-4.63,2.28-2.98,1.34-4.61,1.7-3.59-1.17-5.21-.74-3.04.99-4.54,1.42-3.03,1.01-4.53,1.47-2.92,1.33-4.41,1.81-3.17.59-4.64,1.1-2.42,2.64-3.88,3.19-3.16.6-4.61,1.19-3.35.25-4.78.88-2.65,1.88-4.06,2.55-2.53,2.03-3.91,2.75-3.23.68-4.59,1.45-2.4,2.16-3.73,2.98-2.48,1.95-3.77,2.83-3.94-.02-5.19.93c-1.28.97-2.06,2.58-3.25,3.59-1.22,1.04-1.38,3.19-2.51,4.27s-2.18,2.22-3.23,3.37-3.13,1.47-4.1,2.7-2.87,1.9-3.75,3.21-.42,3.52-1.2,4.89c-.79,1.37-1.14,2.93-1.82,4.37-.67,1.43-.98,2.95-1.54,4.43-.56,1.47-3.29,2.23-3.74,3.76-.44,1.5,1.44,3.64,1.1,5.2-.33,1.53-.24,3.07-.47,4.66-.25,1.67-3.07,2.9-3.32,4.46-.26,1.67,1.93,3.69,1.66,5.25-.29,1.67-2.84,2.88-3.13,4.43-.31,1.68.79,3.55.47,5.09-.35,1.68-.53,3.32-.89,4.84-.4,1.67-1.15,3.18-1.57,4.68-.46,1.66-.58,3.36-1.07,4.82-.55,1.64-1.71,2.97-2.3,4.4-.66,1.6-2.09,2.68-2.82,4.05-.8,1.52-.54,3.54-1.43,4.83-.96,1.38-2.66,2.08-3.74,3.28s-2.2,2.39-3.44,3.48c-1.54,1.68-1.25,1.5-2.48,3.97-.59,1.18-.49,2.92-1.04,4.53-.46,1.35-2.18,2.54-2.48,4.12-.27,1.43,1.85,3.18,1.81,4.76-.04,1.47-1.99,3.07-1.75,4.63.22,1.45,1.85,2.64,2.37,4.13.48,1.37-.21,3.38.57,4.77.7,1.27,2.53,1.94,3.51,3.2,1.61,2,2.05,1.25,3.48,3.98.69,1.32,1.15,3.16,1.76,4.96.52,1.51.68,3.34.97,5.13.26,1.61.59,3.39.56,5.18-.03,1.63.05,3.5-.32,5.25-.33,1.59-1.13,3.27-1.81,4.93-.61,1.5-1.33,3.38-2.27,4.93-1.82,1.82-3.09-.21-5.26,1.99-1.05,1.07-2.34,2.5-3.44,4.05-.93,1.31-1.32,3.25-2.09,4.89-.7,1.48.47,3.63.03,5.37-.4,1.59-2.87,3.07-2.95,4.87.35,2.25,1.64,1.19,3.98,3.05.97.77,2.03,1.86,3.68,2.64,1.21.57,3-.15,4.64.33,1.32.39,2.19,3.31,3.84,3.6,1.38.25,3.26-2.28,4.89-2.13,1.42.14,1.89.77,3.52.82,1.54-1.61,2.29-.7,3.29-2.88.59-1.28.8-2.56,1.96-3.53,1.07-.89,3-1.32,4.68-1.32-1.5,2.2-4.2.52-4.44,3.52-.11,1.33.87,3,2.1,5.04,1.77,1.63,1.26,1.56,4.24,2.5,1.29.4,2.79,1.06,4.57,1.59,1.4.41,3.06.51,4.75.98,1.45.41,3.29-.22,4.94.22,1.48.39,2.96,1.1,4.59,1.51,1.5.38,3.25,0,4.87.38,1.51.36,2.65,2.55,4.27,2.91,1.52.35,3.18.36,4.79.71s3.28-.12,4.88.21,3.05.99,4.66,1.29,3.35-.59,4.95-.3,2.82,2.41,4.43,2.68,3.5-1.68,5.11-1.43,2.95,1.83,4.56,2.06,3.07,1.21,4.68,1.42,3.21.22,4.82.41,3.41-1.74,5.02-1.57,3.15.49,4.76.64,3.05,1.85,4.66,1.98,3.16.88,4.77.99,3.29-1.27,4.9-1.18,3.14,1.59,4.75,1.65,3.25-1.03,4.86-.99,3.2.87,4.81.89,3.22.7,4.84.69,3.17-2.63,4.79-2.66,3.21.4,4.82.34,3.27,1.26,4.88,1.17,3.13-1.44,4.73-1.55,3.15-.66,4.76-.8,3.17-.42,4.77-.59,3.35,1.03,4.95.82,3.09-1.07,4.69-1.3,3.14-.64,4.73-.91,3.35.48,4.93.18,3.03-1.25,4.6-1.59,2.88-1.75,4.45-2.12,3.13-.61,4.69-1.02,3.58.93,5.13.49,2.93-1.47,4.46-1.95,3.28-.35,4.8-.87,2.44-2.74,3.95-3.29,3.64.51,5.13-.08,3.26-.61,4.74-1.25,3.39-1.86,4.85-2.54c1.2-1.74.06-2.39.16-4.85.06-1.27.58-2.8.53-4.3-.04-1.4-1.39-4.16-1.6-5.52,2.98.17,3.12,2.38,4.64,5.43.76,1.53.56,3.76.56,6.08,1.72,1.85,1.98,1.02,5.03.52,1.44-.24,3.21-.39,5.05-.76,1.56-.31,2.66-3.19,4.38-3.61,1.6-.39,3.77,1.16,5.41.67s3.4-.7,4.97-1.28,2.36-3.22,3.84-3.93c1.59-.76,3.69-.42,5.01-1.32,1.5-1.02,3.62-1.97,4.62-3.18.84-2.14-1.1-2.07-1.77-4.88-.3-1.26-.27-2.89-.99-4.51-.57-1.26-2.32-1.99-3.25-3.4-.77-1.19-.69-3.11-1.78-4.36-.94-1.09-1.43-2.86-2.63-3.97-1.27-1.18-3.74-1-4.68-2.13-1.12-1.34-.26-3.8-.97-5.08-.85-1.54-2.01-2.5-2.33-3.94-.37-1.66-.26-3.01-.03-4.53.25-1.59-.52-3.53.25-4.94s1.63-2.97,2.75-4.16c.86-.91,3.17-1.15,4.22-2.75.79-1.21.64-3.18,1.42-4.74.68-1.35.73-3,1.33-4.58.55-1.44,1.6-2.71,2.03-4.31.4-1.5,1.97-2.83,2.22-4.46.24-1.54,0-3.25.07-4.89.07-1.56-1.19-3.13-1.3-4.76s.63-3.22.33-4.83c-.28-1.53.42-3.42-.05-5-.45-1.49-3.14-2.23-3.79-3.75-.6-1.43,0-3.46-.8-4.91-.74-1.36-1.93-2.53-2.85-3.91-.95-1.41-2.87-2.02-3.75-3.26-1-1.4.14-4.23-.78-5.43-1.05-1.38-2.66-2.2-3.6-3.35-1.11-1.36-2.39-2.39-3.36-3.51-1.16-1.34-2.32-2.44-3.29-3.54-1.16-1.32-1.4-3.12-2.31-4.3-1.02-1.33-3.58-1.53-4.3-2.97-.68-1.35.79-3.53.36-5.23-.36-1.4-2.41-2.58-2.62-4.37-.17-1.44.65-3.12.57-4.9-.07-1.47-.27-3.11-.55-4.81-.25-1.5-.12-3.22-.54-4.84-.38-1.5-.5-3.21-1.02-4.78-.5-1.48-2.03-2.67-2.66-4.18-.6-1.45-1.77-2.68-2.5-4.13s-1.58-2.73-2.4-4.12c-.81-1.37-1.31-2.92-2.23-4.24-.91-1.31-2.11-2.38-3.13-3.63-1.01-1.23-2.01-2.44-3.14-3.59s-1.71-2.86-2.94-3.9-2.77-1.68-4.1-2.58-2.97-1.19-4.4-1.94-2.82-1.33-4.33-1.91-3.02-.68-4.6-1.07-3.02-.4-4.65-.6-3.01-.42-4.65-.45-3.05.01-4.69.15c-1.55.14-3.41-1.69-5.03-1.4-1.53.28-3.15.74-4.74,1.17-1.5.4-3.11,2.66-4.67,3.21Z"/></g></svg>