<?xml version="1.0" encoding="UTF-8"?>
<svg width="120.234469px" height="28.0150404px" viewBox="0 0 120.234469 28.0150404" version="1.1" xmlns="http://www.w3.org/2000/svg" xmlns:xlink="http://www.w3.org/1999/xlink">
    <title>開始製作 copy</title>
    <g id="視覺" stroke="none" stroke-width="1" fill="none" fill-rule="evenodd">
        <g id="開始製作-copy" fill="#FBFAF9" fill-rule="nonzero">
            <path d="M21.5316899,26.5374539 L22.1227245,26.4487987 L22.831966,25.7691089 L22.7728626,24.4983845 L22.7433108,16.6671759 L22.831966,16.1647965 C22.6251039,15.0713825 22.5364487,13.8893133 22.5364487,12.7072441 C22.4477935,11.5251748 22.4477935,10.3431056 22.3295866,9.24969161 C22.2409314,8.15627758 22.1227245,6.97420837 21.8272072,5.88079434 L21.9454141,4.61006994 C22.0340693,4.01903533 21.8272072,3.51665591 21.5316899,3.0142765 C20.8520001,2.54144881 20.1723103,2.12772459 19.2857584,2.0390694 C18.3696547,1.9504142 17.6013098,1.83220728 16.7147578,1.74355209 C15.7986542,1.6548969 15.0303092,1.53668998 14.1437573,1.53668998 C13.4345158,1.44803479 12.754826,1.53668998 12.1637914,1.74355209 L11.1590325,2.18682805 L11.1590325,3.3097938 L10.9817222,6.59003587 C10.9817222,7.18107048 11.0703773,7.77210509 11.1590325,8.2744845 C11.2772395,8.86551911 11.4545498,9.3383468 11.661412,9.84072621 C11.8682741,10.3431056 12.1637914,10.845485 12.5479639,11.3183127 L13.3754123,10.9932437 C14.7347919,10.9045885 17.3353442,10.6681747 18.1036892,10.5795195 L19.4926205,10.6681747 L19.876793,12.3230716 L19.6699309,15.4851067 C19.5812757,16.2830034 19.6699309,17.0513484 19.7585861,17.8492451 C19.876793,18.6471419 19.9654482,19.4450386 20.0541034,20.1247284 L19.9654482,21.5136597 L19.1675515,21.7205218 C18.6651721,21.7205218 18.0741374,21.7205218 17.6013098,21.6023149 C17.0989303,21.5136597 16.5965509,21.3954528 16.0941715,21.3067976 L15.7986542,21.3954528 C16.2123784,21.809177 16.5965509,22.1933495 17.0989303,22.6957289 C17.4831028,23.1981083 17.8968271,23.5822808 18.3696547,23.9664533 C18.783379,24.4688327 19.1675515,24.882557 19.6699309,25.2667295 L20.0541034,25.9464193 C20.4678276,26.3601435 20.9406553,26.5374539 21.5316899,26.5374539 Z M1.11144421,26.0055227 C1.61382363,25.3849364 1.90934093,24.7052466 2.02754785,23.8186947 C2.11620304,23.020798 2.20485824,22.2229012 2.41172035,21.4545562 C2.50037554,20.6566595 2.8549963,16.0761413 2.97320323,15.3668998 C3.06185842,14.68721 3.15051361,14.0075202 3.26872053,13.2982787 C3.74154822,13.0027614 6.31254876,12.4117268 6.90358336,12.2048646 L7.81968701,12.4117268 L8.70623892,12.1162095 L9.59279083,10.5499677 C9.59279083,9.84072621 9.59279083,9.04282949 9.59279083,8.36313969 C9.59279083,7.6834499 9.47458391,6.97420837 9.38592872,6.29451857 C9.29727352,5.49662185 9.32682526,4.25544917 9.62234256,3.66441457 L9.41548045,2.74831092 L7.76058355,1.86175901 L4.8940657,2.06862113 C4.18482417,2.15727632 3.50513437,2.15727632 3.00275496,1.86175901 C2.41172035,1.56624171 1.82068574,1.47758652 1.11144421,1.47758652 L0.431754414,1.68444863 L0.93413383,4.13724225 L0.0475819188,19.9769697 C0.0475819188,20.6566595 0.0475819188,21.4545562 0.0475819188,22.134246 C-0.0706250027,22.8434876 0.0475819188,23.5231774 0.224892301,24.2028672 C0.343099223,24.9121087 0.638616526,25.5031433 1.11144421,26.0055227 Z M12.6366191,24.5574879 L13.0503433,24.3801776 C13.2276537,23.670936 13.4345158,22.9912462 13.5527227,22.3115564 C13.6413779,21.6023149 13.6413779,20.8044182 13.7300331,20.0360732 C13.84824,19.3268317 13.9368952,18.6471419 14.1437573,17.9379003 C14.5279298,17.76059 14.9121023,17.642383 15.4144817,17.642383 C15.7986542,17.642383 16.2123784,17.5537278 16.5965509,17.4650726 L17.3057925,16.874038 L17.3057925,16.4603138 L16.5965509,15.780624 L15.1189644,15.8692792 L14.3210677,15.4851067 C14.2324125,14.9827273 14.4392746,14.5985548 14.7347919,14.3030375 C15.2076196,14.1848306 15.5031369,14.0075202 15.7986542,13.7120029 L15.6213438,13.2096235 C15.3258265,12.825451 14.8234471,12.6185889 14.3210677,12.6185889 C13.7300331,12.6185889 13.2276537,12.6185889 12.754826,12.5003819 C11.8682741,12.6185889 11.0703773,12.7072441 10.1838254,12.825451 C9.29727352,12.9141062 8.41072161,12.9141062 7.5241697,13.0027614 C6.60806606,13.1209683 5.83972107,13.2982787 4.95316916,13.4164856 L4.95316916,13.7120029 L6.13523838,14.8940721 L7.28775586,15.3964515 L7.2286524,16.4603138 C7.2286524,16.4603138 6.31254876,16.9626932 5.83972107,17.0513484 C5.33734166,17.1695553 4.83496224,17.3468657 4.33258282,17.4650726 L4.33258282,18.2038659 C4.74630705,18.3220728 6.43075568,18.7062453 6.72627298,19.0017626 L6.31254876,21.3067976 C6.22389357,22.1933495 6.51941087,22.902591 7.02179029,23.4936256 L7.9083422,23.1981083 C8.2038595,22.4888668 8.4993768,21.809177 8.8835493,21.0999355 C9.29727352,20.5089009 9.68144602,19.4745903 9.91785986,18.4993832 L10.77486,18.3516246 C10.8635152,19.1495213 10.9817222,19.9178663 11.0703773,20.715763 C11.1590325,21.6023149 11.2772395,22.4002116 11.4545498,23.0799014 C11.7500671,23.670936 12.1637914,24.1733154 12.6366191,24.5574879 Z M10.9521704,16.1056931 L9.82920467,16.1056931 L9.77010121,15.3668998 C9.77010121,15.3668998 10.77486,15.0713825 10.9817222,15.3668998 L10.9521704,16.1056931 Z M6.90358336,10.2544504 L3.44603091,10.0475883 L3.56423783,8.2744845 L6.13523838,7.9789672 L6.81492817,8.06762239 C7.19910067,8.36313969 7.40596278,8.86551911 7.31730759,9.3383468 L6.90358336,10.2544504 Z M19.1675515,8.24493277 L18.0741374,8.24493277 L14.7347919,8.62910527 C14.3210677,8.74731219 14.0255504,8.62910527 13.84824,8.33358796 L13.84824,7.32882913 L14.3210677,6.91510491 C14.8234471,7.0037601 17.0989303,7.12196702 17.6899649,7.12196702 C18.1923444,7.12196702 18.783379,7.12196702 19.2857584,7.21062221 L19.1675515,8.24493277 Z M6.60806606,5.88079434 C6.01703145,5.99900127 5.42599685,5.99900127 4.95316916,5.99900127 C4.45078974,5.99900127 3.94841033,5.79213915 3.56423783,5.49662185 L3.68244475,4.43275956 L4.39168628,4.04858706 L6.2534453,4.13724225 L6.75582471,4.63962167 L6.60806606,5.88079434 Z M18.5765169,5.05334589 L14.7347919,4.93513897 L14.3210677,4.01903533 L14.5279298,3.42800072 C15.2076196,3.51665591 16.0055163,3.60531111 16.7147578,3.72351803 C17.3944476,3.81217322 18.0741374,4.01903533 18.783379,4.40320783 L18.5765169,5.05334589 Z" id="Shape"></path>
            <path d="M39.2725787,26.0055227 L39.8636133,25.7986606 C39.8045098,24.6461431 39.3907856,23.9664533 38.8884062,23.345867 C38.2973716,22.8730393 37.8245439,22.2820047 37.4108197,21.5727632 C37.4994749,20.8635216 37.7949922,19.6814524 38.1791647,18.4993832 C38.474682,17.4059692 38.7406476,16.1352448 39.0361649,14.9531756 C39.243027,13.7415546 39.5089925,12.5594854 39.8045098,11.3478645 L41.0456825,10.9932437 L42.0504414,10.1066918 C41.9322344,9.60431237 41.6367171,9.22013988 41.3411998,8.80641565 C40.9570273,8.51089835 40.6319583,8.42224316 40.3659927,8.39269143 C40.3659927,8.39269143 39.893165,7.21062221 39.3907856,7.12196702 C39.0952683,7.06286356 36.9675437,7.32882913 36.9675437,7.32882913 C36.9675437,8.00851893 36.7606816,8.59955354 36.4651643,9.22013988 L35.5195089,9.10193295 C35.6081641,8.39269143 35.8150262,6.94465664 35.9036814,6.23541511 C36.0218884,5.55572531 36.0218884,4.75782859 36.0218884,4.07813879 L35.9036814,3.48710418 L35.4308537,2.98472477 L33.6577499,3.19158688 C33.6577499,3.95993187 33.6577499,4.75782859 33.539543,5.55572531 C33.4508878,6.35362203 33.3622326,7.12196702 33.2440257,7.83120855 C33.1553705,8.59955354 32.9485084,9.30879507 32.6529911,9.98848487 C32.2688186,10.2840022 30.2888527,11.1705541 29.7864732,11.288761 L29.8751284,11.6729335 C30.3775079,12.2639681 30.8798873,12.5594854 31.5595771,12.6776923 L32.1506117,13.2687269 L31.4709219,16.0761413 C31.4709219,16.6671759 31.5595771,17.1400036 31.8550944,17.642383 C32.0619565,18.1447624 32.3574738,18.6471419 32.6529911,19.1199695 C32.9485084,19.622349 33.5986465,20.3315905 33.8941638,20.8044182 L33.4213361,22.4002116 C33.3326809,22.8730393 33.2440257,23.1390049 33.3622326,23.6413843 C33.4508878,24.1437637 33.6577499,24.5279362 33.8350603,24.9121087 C33.9532672,25.3258329 34.2487845,25.6213502 34.632957,25.7100054 L35.3126468,25.7100054 L36.612923,24.3210741 C37.1153024,24.439281 37.5881301,24.7347983 38.0018543,25.1189708 C38.3860268,25.5031433 38.7701993,25.7986606 39.2725787,26.0055227 Z M46.8673734,25.532695 C47.7539253,25.4144881 48.7586841,25.3258329 49.7338912,25.1189708 C50.6204432,25.0303156 51.5365468,24.8234535 52.4230987,24.5279362 C53.3096506,24.3210741 54.1075473,24.0255568 54.9940993,23.6413843 C55.2896166,23.2572118 55.4669269,22.7548324 55.5851339,22.252453 C55.6737891,21.7500736 55.6737891,21.1590389 55.7624442,20.6862113 C55.7624442,20.1838318 55.7624442,19.7996593 55.7624442,19.2972799 C55.7624442,18.7949005 55.6737891,18.410728 55.5851339,17.9970038 L56.0579615,16.4307621 L55.5851339,15.3373481 C55.2896166,15.0418308 54.8758923,14.8349686 54.4030646,14.7463135 C53.9006852,14.6576583 53.486961,14.5394513 53.1027885,14.4507962 C51.8320641,14.4507962 50.6204432,14.4507962 49.4383739,14.5394513 C48.1676495,14.6576583 46.9855803,14.8349686 45.8035111,15.0418308 C44.5918902,15.2486929 43.4098209,15.5442102 42.3459587,15.8397275 C42.4346138,16.7262794 42.523269,17.6128313 42.523269,18.4993832 C42.523269,19.504142 42.641476,20.390694 42.7301311,21.2772459 C42.8187863,22.1637978 43.0256485,23.0503497 43.4098209,23.8482464 C43.9122004,24.3210741 44.4145798,25.0007639 45.0056144,25.2962812 C45.5079938,25.5917985 46.1876836,25.4144881 46.8673734,25.532695 Z M52.4230987,22.252453 C51.8320641,22.5479703 51.1228226,22.7548324 50.4431328,22.6661772 C49.7338912,22.6661772 49.0542014,22.6661772 48.3745117,22.7548324 C47.6652701,22.8434876 46.9855803,22.7548324 46.2763388,22.5479703 L45.8921663,19.9769697 C45.7739594,19.3859351 45.8921663,18.7949005 46.0694767,18.3220728 C46.5718561,18.0265555 47.0742355,17.9083486 47.5470632,17.8196934 C48.0494426,17.8196934 50.0294086,17.6128313 50.531788,17.5241761 C50.9159605,17.5241761 51.3296847,17.6128313 51.7138572,17.8196934 L52.6004091,20.7748665 C52.718616,21.2772459 52.6004091,21.7500736 52.4230987,22.252453 Z M34.751164,17.9083486 L34.1896811,17.9083486 C33.6281982,17.1104519 34.5443018,14.8349686 34.632957,14.243934 C34.7216122,13.6528994 34.8398191,13.0618648 35.1353364,12.5594854 L35.9627849,12.7663475 C35.8741297,13.3573821 35.7854745,13.9484167 35.6672676,14.4507962 C35.5786124,15.0418308 34.9580261,17.4355209 34.751164,17.9083486 Z M56.4716858,12.9732096 L56.9740652,12.9732096 C56.6489962,12.1753129 56.3534789,11.3774162 55.8806512,10.6090712 C55.3782717,9.89982967 54.8758923,9.10193295 54.580375,8.33358796 C54.1962025,7.62434644 53.6938231,6.82644972 53.1027885,6.14675992 L50.8273053,6.05810473 L50.1476155,6.14675992 L50.1476155,6.53093241 L51.6843055,8.33358796 C51.181926,8.83596738 50.3249259,9.10193295 49.6452361,9.22013988 C48.9655463,9.30879507 48.2563047,9.39745026 47.5766149,9.69296756 C47.1628907,9.81117448 46.8673734,9.69296756 46.5718561,9.39745026 C46.690063,8.71776046 46.9855803,8.03807066 47.2810976,7.32882913 C47.5766149,6.73779452 47.9607874,6.14675992 48.2563047,5.46707012 C48.551822,4.75782859 48.8473393,4.16679398 49.3497188,3.57575937 L49.1428566,2.60055227 C48.551822,2.18682805 47.8721322,2.00951767 47.0742355,2.09817286 L46.2763388,2.18682805 L44.7987523,5.76258742 C44.503235,6.35362203 44.1190625,6.94465664 43.8235452,7.62434644 C43.5280279,8.33358796 43.0256485,8.80641565 42.4346138,9.22013988 C42.4346138,9.81117448 42.523269,10.2840022 42.7301311,10.7863816 C42.8187863,11.288761 43.0256485,11.7911404 43.3211658,12.2639681 L44.2077177,12.7663475 C45.2124765,12.6776923 46.1876836,12.5594854 47.2810976,12.4708302 C48.3745117,12.4708302 49.3497188,12.2639681 50.2362707,11.9684508 C51.1228226,11.6729335 52.0093745,11.3774162 52.8959264,10.9045885 C53.6051679,11.0818989 54.1962025,11.4956231 54.6985819,11.9684508 C55.1714096,12.4708302 55.7624442,12.8550027 56.4716858,12.9732096 Z" id="Shape"></path>
            <path d="M83.2849558,28.0150404 C83.8759904,28.0150404 84.467025,28.0150404 85.0580596,28.0150404 C85.6490942,28.0150404 86.328784,27.9263852 86.9198186,27.6308679 L86.8016117,27.069385 C86.0332667,26.6852125 85.23537,26.3896952 84.5556802,25.975971 C83.8464387,25.5917985 83.1667489,25.207626 82.4575073,24.7052466 C81.7778175,24.3210741 81.0981277,23.9073499 80.4775414,23.4936256 L80.5957483,23.1981083 C80.9799208,22.7843841 81.6005072,22.577522 82.3688522,22.4888668 C82.8712316,22.2820047 83.2554041,21.8978322 83.6395766,21.5136597 L83.5509214,20.6271078 C83.0780937,20.2429353 82.5757143,20.1542801 82.0733348,20.0656249 C81.6005072,19.947418 81.2754381,19.8587628 80.5070931,19.5632455 C79.9160585,20.1542801 79.531886,20.4497974 79.0295066,20.8339699 C78.5271272,21.3363493 77.9360926,21.7500736 77.5519201,22.0455909 L75.9265749,21.5727632 C75.9265749,21.5727632 76.4289543,20.5089009 76.9904372,20.2429353 C77.4632649,20.1542801 78.1725064,20.0360732 78.6748859,19.947418 C79.8274033,19.7996593 81.3345416,19.0313144 81.3936451,18.1152107 L81.3049899,17.5537278 L77.9065409,17.2286588 L78.6748859,15.3964515 L78.5566789,14.2143823 L77.019989,13.918865 L76.2220922,14.5690031 C75.8674715,15.780624 74.714954,17.4946244 74.3012298,17.5832796 C74.3012298,17.5832796 72.0257465,17.8787969 68.6568493,18.2925211 L68.4795389,19.179073 C68.7750562,19.8587628 69.454746,20.2133836 70.1344358,20.2133836 C71.0209877,20.0065215 71.4347119,20.1247284 71.7006775,20.2133836 C71.5233671,20.7453147 71.1391946,21.4250045 70.5186083,21.9273839 C69.8389185,22.5184185 68.3317802,23.9369016 68.2135733,24.7939018 L68.5681941,26.5670056 C69.5434012,26.4487987 70.0162289,26.1532814 71.1096429,25.4440398 L71.5233671,25.5622468 C71.9370913,26.5374539 72.4985742,27.1284885 73.178264,27.7195231 L74.3603332,27.3353506 C75.1286782,26.7147643 75.6901611,26.419247 76.1925405,25.9168675 C76.7244717,25.3849364 77.1972993,24.3210741 77.1972993,24.3210741 C77.1972993,24.3210741 77.9360926,24.8530052 78.6453341,25.3553847 C79.3250239,26.1532814 80.0342655,26.6261091 80.8026104,27.0398333 C81.511852,27.4240058 82.280197,27.7195231 83.2849558,28.0150404 Z M74.6262988,24.7052466 L74.1534711,23.5822808 C74.271678,23.1981083 74.4489884,22.6957289 74.7740574,22.4002116 L74.9809196,22.4002116 L75.8674715,23.2867635 L74.6262988,24.7052466 Z M65.4948141,15.8692792 L66.1745039,15.780624 C66.5586764,15.1895894 66.7359868,14.5985548 67.0315041,14.0075202 C67.2383662,13.3278304 67.3270214,12.7367958 67.4452283,12.2935198 L68.8637114,12.1162095 L68.9228148,13.3869339 C69.0410218,14.4803479 69.8093667,14.9531756 70.2821944,15.6328654 L71.0505394,15.3373481 L71.7893327,12.0866577 L72.7349881,12.1457612 L73.2373675,12.1457612 L73.5624365,12.9732096 L72.3508156,13.3869339 L72.5576777,14.5394513 L73.8284021,15.4260033 L75.0991265,15.2191411 L75.8674715,14.0370719 C75.9856784,13.3573821 75.8674715,12.7958993 75.6901611,12.2935198 C75.3946438,11.7911404 75.3355403,10.9341402 75.3355403,10.2544504 C74.8627126,9.57476064 74.3307815,9.72251929 73.5328848,9.81117448 L72.6758846,9.69296756 L72.6167811,9.45655372 C73.178264,9.24969161 74.5671953,8.89507084 75.2468851,8.33358796 C75.3355403,7.74255336 75.040023,7.47658778 74.5671953,7.35838086 L71.9075396,7.41748432 L71.4051602,7.09241529 L71.4938154,5.49662185 C72.3508156,5.28975974 73.0305054,4.55096648 73.7988503,4.07813879 L73.7101952,3.39844899 L71.1096429,2.95517304 L70.9027808,2.54144881 L70.991436,1.6548969 C71.1096429,1.15251748 70.8141256,0.76834499 70.5186083,0.502379416 L68.6568493,0.591034607 L68.1544698,0.886551911 L68.6568493,2.92562131 L68.2726768,3.36889726 L67.5338835,3.25069034 C67.5338835,2.45279362 67.7407456,1.86175901 67.8294008,1.15251748 L67.6225387,0.502379416 L66.2631591,0 L65.613021,0 C65.613021,0.857000181 65.4948141,1.44803479 65.4061589,2.15727632 C65.3175037,2.83696612 65.1106416,3.42800072 65.0219864,4.01903533 C64.9037795,4.72827686 64.8151243,5.31931147 64.7264691,5.99900127 C64.6082622,6.88555318 64.8742278,7.41748432 65.3470555,7.86076028 L66.056297,7.83120855 C66.3518143,7.21062221 66.7359868,6.59003587 67.0315041,5.88079434 L67.5338835,5.49662185 L68.4499871,5.58527704 C68.7750562,5.99900127 68.9523666,6.38317376 68.9523666,7.09241529 L68.8637114,7.59479471 C68.2726768,7.80165682 67.7407456,7.80165682 67.0610558,7.9789672 C66.381366,8.2744845 64.8151243,8.21538104 63.8990207,8.68820873 L63.8990207,9.24969161 L64.5787105,9.72251929 L68.9523666,9.89982967 L68.8341596,10.5795195 L67.2679179,10.5795195 L65.0810899,10.4613126 L64.3127449,10.845485 C64.7264691,11.732037 64.9037795,12.4412785 64.9037795,13.3278304 C64.8151243,14.2143823 65.0219864,15.0713825 65.4948141,15.8692792 Z M82.3097487,14.1848306 C83.0189902,14.3325892 83.9055421,14.3030375 84.467025,14.0370719 L85.1467148,12.825451 C85.3535769,11.6729335 85.3535769,10.4613126 85.3535769,9.27924334 C85.3240252,8.18582931 85.2058183,6.94465664 85.2058183,5.76258742 C85.0876113,4.6691734 84.9398527,3.54620764 84.7329906,2.3345867 C84.5261285,1.86175901 84.2306112,1.03431056 83.1667489,0.886551911 L81.836921,0.76834499 C82.1915418,1.86175901 82.3688522,2.68920746 82.3688522,3.57575937 C82.3984039,4.46231129 82.4575073,5.3488632 82.4575073,6.23541511 C82.5166108,7.15151875 82.5461625,8.06762239 82.605266,8.9541743 C82.6348177,9.75207102 82.4870591,10.3726574 82.0437831,11.0227954 L80.2411276,11.6433818 L80.1820241,12.1162095 L82.3097487,14.1848306 Z M77.9656443,9.39745026 C78.881748,8.83596738 79.2363687,8.24493277 79.3545757,7.44703605 C79.4727826,6.76734625 79.5909895,6.08765646 79.7091964,5.37841493 C79.7091964,4.78738032 79.7091964,4.19634571 79.7091964,3.60531111 C79.7091964,3.10293169 79.5909895,2.54144881 79.2363687,1.9504142 L76.4880578,1.74355209 L76.8131268,3.39844899 L76.7244717,4.99424243 C76.7244717,5.79213915 76.8131268,6.47182895 76.9313338,7.15151875 C77.0790924,7.94941547 77.4041615,8.62910527 77.9656443,9.39745026 Z" id="Shape"></path>
            <path d="M100.641672,26.9807298 L101.350914,26.744316 C101.646431,25.7986606 101.735086,24.7939018 101.853293,23.7004878 C101.941948,22.577522 102.030603,21.5432114 102.14881,20.4497974 C102.237466,19.4154869 102.326121,18.2925211 102.326121,17.1991071 L102.237466,16.1056931 L102.444328,13.0618648 C102.532983,12.4412785 102.532983,11.8206921 102.444328,11.3478645 C102.326121,10.845485 102.14881,10.2248987 101.941948,9.72251929 C102.030603,9.10193295 102.14881,8.51089835 102.444328,7.9789672 C102.739845,7.44703605 103.035362,7.03331183 103.50819,6.53093241 C104.010569,6.028553 104.306087,5.55572531 104.512949,5.02379416 L103.921914,3.45755245 C103.50819,3.16203515 103.124017,2.86651785 102.621638,2.74831092 C102.14881,2.65965573 101.557776,2.57100054 101.055396,2.45279362 L100.553017,2.65965573 C100.050637,4.13724225 99.3709477,5.55572531 98.573051,6.88555318 C97.6864991,8.33358796 96.8886023,9.72251929 96.1202574,11.0818989 C95.3223606,12.4412785 94.8199812,13.9779685 94.6131191,15.5737619 L95.1154985,17.1991071 L95.7065331,17.8787969 C96.4157747,17.6719348 96.8886023,17.2582105 97.1841196,16.6080725 C97.4796369,15.9283827 97.8933612,15.455555 98.4843958,14.9531756 L98.8685683,15.1600377 L98.7799131,21.6909701 C98.8685683,22.3706599 99.0754304,22.9912462 99.1640856,23.7004878 C99.2822925,24.4097293 99.4596029,25.0007639 99.666465,25.7100054 C99.8733271,26.1828331 100.168844,26.6556608 100.641672,26.9807298 Z M111.723571,26.8329712 L112.019088,26.7147643 C112.521468,26.2419366 112.816985,25.7691089 112.90564,25.1780743 C113.023847,24.5870397 113.023847,23.9664533 113.023847,23.3754187 C113.023847,21.8682805 113.112502,21.2476941 113.201158,20.6271078 C114.383227,20.3020388 114.885606,20.0951767 115.476641,19.9769697 C115.97902,19.8883145 116.570055,19.7996593 117.161089,19.7996593 C117.663469,19.7996593 118.254503,19.7996593 118.845538,19.6814524 C119.229711,19.5927972 119.525228,19.2972799 119.820745,18.9131074 L119.643435,18.2334176 C119.0524,17.7310382 118.431814,17.317314 117.752124,17.1104519 C117.072434,16.9331415 116.274537,16.8149346 115.594848,16.7262794 C114.796951,16.6376242 114.087709,16.4307621 113.40802,15.9579344 L113.614882,15.1009342 L115.772158,14.9531756 C116.570055,14.8645204 117.367951,14.7463135 118.136296,14.6281065 C118.845538,14.5394513 119.525228,14.3325892 120.234469,14.0370719 L119.938952,13.2687269 C119.347917,12.8845544 118.756883,12.5890371 118.047641,12.4708302 C117.367951,12.382175 116.570055,12.2935198 115.890365,12.382175 C115.181123,12.4708302 114.383227,12.382175 113.703537,12.2935198 L113.614882,11.9388991 C113.614882,11.4365197 114.087709,9.72251929 114.205916,9.30879507 C114.885606,8.98372603 115.683503,8.86551911 116.4814,8.77686392 C117.249745,8.68820873 118.047641,8.68820873 118.845538,8.57000181 L119.347917,8.12672585 L119.229711,7.2992774 C118.756883,7.0037601 118.343159,6.79689799 117.840779,6.59003587 C117.367951,6.38317376 116.865572,6.26496684 116.363193,6.17631165 C115.772158,6.17631165 115.181123,6.17631165 114.678744,6.17631165 C114.087709,6.26496684 111.723571,6.38317376 111.221192,6.47182895 C110.748364,6.47182895 110.33464,6.47182895 109.861812,6.47182895 C109.359433,6.59003587 108.857053,6.47182895 108.561536,6.14675992 L108.857053,4.04858706 C108.945708,3.51665591 108.857053,3.0142765 108.650191,2.630104 C108.472881,2.21637978 108.266019,1.80265555 108.059156,1.44803479 L107.379467,1.15251748 C106.877087,1.03431056 106.492915,1.15251748 106.07919,1.3593796 L106.197397,1.80265555 L105.192639,6.76734625 L104.306087,11.3478645 L104.719811,14.7758652 L105.606363,16.0761413 L106.286053,15.8397275 C106.58157,15.1895894 106.877087,14.4507962 106.995294,13.6824512 C107.083949,12.8550027 107.172605,12.057106 107.379467,11.3478645 C107.586329,10.6386229 107.881846,9.9293814 108.177363,9.16103641 L110.039122,9.39745026 L110.157329,9.72251929 C110.245984,10.6386229 110.157329,11.5251748 110.039122,12.3526233 C109.950467,13.2391752 109.861812,14.0666237 109.861812,14.9827273 C109.743605,15.8692792 109.65495,16.6967277 109.448088,17.5241761 C109.448088,18.2038659 109.448088,19.0313144 109.448088,19.7110042 C109.359433,20.5680043 109.448088,21.2476941 109.536743,21.9864874 C109.65495,23.5527291 109.743605,24.2619706 110.039122,24.9416604 L111.723571,26.8329712 Z" id="Shape"></path>
        </g>
    </g>
</svg>