<svg width="85.991" height="131.284" xmlns="http://www.w3.org/2000/svg" xmlns:xlink="http://www.w3.org/1999/xlink">
    <defs>
        <path id="a" d="M0 0h3.775v15.692H0z"/>
        <path id="c" d="M0 0h3.757v15.7H0z"/>
        <path id="e" d="M0 0h21.398v16.922H0z"/>
        <path id="g" d="M0 0h13.036v16.609H0z"/>
        <path id="i" d="M14.785 128.158h61.25V5.842h-61.25z"/>
    </defs>
    <g transform="translate(-3.308 -2.716)" fill="none" fill-rule="evenodd">
        <path d="M52.543 124.787a3.289 3.289 0 0 1-4.37-1.592L16.865 55.976 22.83 53.2l31.307 67.219a3.289 3.289 0 0 1-1.593 4.37" fill="#C36568"/>
        <path fill="#F8F3E0" d="m18.405 43.703-5.963 2.777 4.424 9.496L22.83 53.2z"/>
        <path fill="#E0DCCB" d="m19.847 54.588 2.981-1.389-4.422-9.497-2.981 1.389z"/>
        <path fill="#F5D38A" d="m24.243 56.237-5.962 2.776-1.415-3.037 5.962-2.777z"/>
        <path fill="#D89257" d="m24.243 56.237-2.981 1.388-1.415-3.037 2.98-1.389z"/>
        <path d="M52.543 124.787 21.262 57.626l2.981-1.39 29.893 64.182a3.289 3.289 0 0 1-1.593 4.37" fill="#AD5759"/>
        <path d="M12.968 46.235c-4.61-1.303-7.137-4.816-6.608-9.095.046-.376.099-.751.125-1.13l.6-8.825 8.339 17.906-2.456 1.144Z" fill="#D79358"/>
        <path d="M17.88 43.947c1.969-4.366.906-8.562-2.71-10.91-.317-.207-.638-.408-.945-.632l-7.14-5.22 8.34 17.906 2.455-1.144Z" fill="#BE824D"/>
        <path d="m35.1 40.864 19.558 80.29a1.79 1.79 0 0 1-1.287 2.163 1.782 1.782 0 0 1-2.175-1.252L28.723 42.54l6.377-1.677Z" fill="#889F60"/>
        <path d="m35.1 40.864 19.558 80.29a1.79 1.79 0 0 1-1.287 2.163L31.907 41.704l3.193-.84Z" fill="#737D4D"/>
        <path fill="#F8F3E0" d="m29.47 25.946-3.184.838 2.438 15.757 6.376-1.677z"/>
        <path fill="#E0DCCB" d="m29.47 25.946 5.63 14.917-3.193.84-4.034-15.337z"/>
        <path fill="#E0DCCB" d="m29.043 24.324-3.183.838.426 1.62 3.184-.836z"/>
        <path fill="#C6C3B5" d="m29.47 25.946-1.592.418-.427-1.621 1.592-.419z"/>
        <g transform="rotate(-15 49.95 -69.977)">
            <mask id="b" fill="#fff">
                <use xlink:href="#a"/>
            </mask>
            <path d="M2.057 15.685A9.44 9.44 0 0 1 .989 5.597L3.775-.001l-.072 15.693-1.646-.007Z" fill="#D79358" mask="url(#b)"/>
        </g>
        <g transform="rotate(-15 48.1 -84.04)">
            <mask id="d" fill="#fff">
                <use xlink:href="#c"/>
            </mask>
            <path d="M1.646 15.7a9.438 9.438 0 0 0 1.16-10.078L.073 0 0 15.692l1.646.008Z" fill="#BE824D" mask="url(#d)"/>
        </g>
        <path fill="#F5D38A" d="m32.346 43.356-3.187.839-.436-1.654 3.188-.839z"/>
        <path fill="#D89257" d="m35.532 42.518-3.187.839-.436-1.654 3.188-.839z"/>
        <path d="m56.411 39.344 5.68 82.443a1.79 1.79 0 0 1-1.635 1.913 1.78 1.78 0 0 1-1.932-1.602l-8.681-82.18 6.568-.574Z" fill="#4E566B"/>
        <path d="m56.411 39.344 5.68 82.443a1.79 1.79 0 0 1-1.635 1.913l-7.334-84.069 3.29-.287Z" fill="#3F4657"/>
        <path fill="#F8F3E0" d="m53.388 23.689-3.279.285-.267 15.943 6.569-.572z"/>
        <path fill="#E0DCCB" d="m53.388 23.689 3.023 15.656-3.29.287-1.378-15.8zM53.242 22.018l-3.279.286.146 1.67 3.28-.286z"/>
        <path fill="#C6C3B5" d="m53.388 23.689-1.64.142-.145-1.67 1.639-.143z"/>
        <path fill="#F5D38A" d="m53.277 41.334-3.285.287-.148-1.704 3.284-.286z"/>
        <path fill="#D89257" d="m56.559 41.048-3.285.287-.148-1.704 3.284-.287z"/>
        <g transform="rotate(-15 50.96 -144.836)">
            <mask id="f" fill="#fff">
                <use xlink:href="#e"/>
            </mask>
            <path d="M21.398 5.271 9.979 16.921l-3.241-.571L0 1.492a20.484 20.484 0 0 1 21.398 3.779" fill="#D79358" mask="url(#f)"/>
        </g>
        <g transform="rotate(-15 47.966 -176.746)">
            <mask id="h" fill="#fff">
                <use xlink:href="#g"/>
            </mask>
            <path d="M13.037 4.959 1.618 16.609 0 16.324 2.882 0a20.484 20.484 0 0 1 10.155 4.959" fill="#BE824D" mask="url(#h)"/>
        </g>
        <path d="M52.172 94.214a1.41 1.41 0 0 0 1.703 1.036l1.577 6.453-3.152-1.716a9.759 9.759 0 0 1-5.077-7.95l-1.905-21.185 2.444-.598 5.442 22.256a1.41 1.41 0 0 0-1.032 1.704" fill="#D79358"/>
        <path d="m57.46 98.725-2.008 2.978-1.577-6.453a1.41 1.41 0 0 0-.67-2.74L47.76 70.254l2.447-.598 8.084 19.673a9.75 9.75 0 0 1-.832 9.396" fill="#BE824D"/>
        <path fill="#F8F3E0" d="m46.67 65.793-2.443.598 1.091 4.46 2.443-.597z"/>
        <path fill="#E0DCCB" d="m49.114 65.196-2.444.597 1.092 4.461 2.443-.598z"/>
        <path fill="#E6EAF0" d="m46.694 59.531-2.934.718 1.443 5.903 2.935-.718z"/>
        <path fill="#D7DBE0" d="m44.58 50.89-2.933.718 2.113 8.64 2.933-.717z"/>
        <path d="m39.883 36.534-.695.17a.816.816 0 0 0-.621.755l-.458 9.943a2.066 2.066 0 0 0 .68 1.63l2.858 2.575 2.933-.717 1.346-3.604a2.067 2.067 0 0 0-.148-1.76l-4.995-8.61a.816.816 0 0 0-.9-.382" fill="#F5F6F7"/>
        <mask id="j" fill="#fff">
            <use xlink:href="#i" transform="rotate(-15 45.41 67)"/>
        </mask>
        <path fill="#4E566B" mask="url(#j)" transform="rotate(-15 52.526 104.082)" d="M34.682 124.691h35.689V83.474H34.682z"/>
        <path fill="#3F4657" mask="url(#j)" transform="rotate(-15 61.12 101.681)" d="M52.197 122.195h17.845V81.168H52.197z"/>
        <path fill="#F8F3E0" mask="url(#j)" transform="rotate(-15 58.234 125.384)" d="M38.208 126.828H78.26v-2.888H38.208z"/>
        <path fill="#E0DCCB" mask="url(#j)" transform="rotate(-15 67.906 122.792)" d="M57.893 124.236h20.026v-2.888H57.893z"/>
        <path fill="#F8F3E0" mask="url(#j)" transform="rotate(-15 46.818 82.781)" d="M26.793 84.225h40.051v-2.888H26.793z"/>
        <path fill="#E0DCCB" mask="url(#j)" transform="rotate(-15 56.49 80.19)" d="M46.477 81.634h20.026v-2.888H46.477z"/>
    </g>
</svg>
