<svg xmlns="http://www.w3.org/2000/svg" xml:space="preserve" style="enable-background:new 0 0 300 300" viewBox="0 0 300 300">
    <style>.st55{fill:#fcc900}.st72{fill:#ff9ef0}.st73{fill:#e7ffc1}</style>
    <path d="M149.8 23.7c-3.4.3-2.5.1-6.5-.1-2-.1-4.4.7-6.9 1-2.1.2-4.8-.3-7 .3-2.1.6-3.3 3.8-5.4 4.9-1.9 1-4.8.9-6.5 2.5-1.6 1.4-2.9 3.5-4.2 5.5-1.2 1.7-1.3 5.1-2.2 7.3-3 1.5-3.1.5-7.1.7-2 .1-3.8 1.1-6.2 1.7-2.1.5-5.9-4.1-8.1-3.2-2 .8-3.8 3.1-5.8 4.4-1.8 1.2-3.7 2.9-5.4 4.6-1.5 1.5 0 5.5-1.3 7.5-1.2 1.8-4.6 2.3-5.6 4.5-.9 1.9-.8 4.6-1.5 6.8-2.6 2-3.1-.8-6.8.4-1.8.6-4 1.4-6.2 2.4-1.8.9-2.5 4-4.4 5.3-1.7 1.2-3.7 1.9-5.3 3.5-1.5 1.5-1.9 3.6-3.2 5.5-1.1 1.8-5.4 2.1-6.2 4.3-.7 1.9-1.5 4.4-1.9 6.6-.4 2 .7 4.1.6 6.5-1.7 2.7.2 3.6-2.6 6.3-1.4 1.3-5.7.1-7.2 2-1.3 1.6-3.6 2.9-4.7 4.9-1 1.8-2.4 3.9-3.2 6-.8 1.9.6 4.9.1 7.1-.5 2 1.4 4.4 1.2 6.6-.2 2.1-2.3 4.1-2.2 6.4.1 2.1-1.6 4.6-1.2 6.8.4 2 5.7 4.5 6.4 6.6-.9 2.9-3.7 1.1-5.9 4.1-1 1.4-2.2 2.9-3.2 4.9-.8 1.6-4.2 2.6-4.8 4.6-.6 1.8 1.1 4.4.7 6.5-.3 1.9-2.4 3.7-2.4 5.8-.3 3.3 1.8 2.9 2.4 6.6.3 1.9-.4 4.5.6 6.7.8 1.9 2.5 3.7 4 5.4 1.3 1.5 2.3 4.3 4.3 5.5 1.7 1.1 4.2 1.6 6.5 2.4 1.9.6 4.5-.7 6.9-.3 2 .3 3.9 2.8 6.2 2.8 3.7.5 3.1 0 7.6.3 2.2.2 4.9-.1 7.6-.2 2.4-.1 5.3 1.2 7.8.7 2.4-.4 6-1.8 7.6-3.4 1.6-1.6-.4-5.9 0-8.2.4-2.2 3.7-5.3 2.7-7.5-.1-.2-2.3.4-2.4.2-.9-2.1-2.3-3.9-3-6-.7-2.1-2.6-4-3.1-6.2s1.8-4.9 1.5-7.1c-.3-2.2-4.1-4.1-4.2-6.4-.1-2.2-.3-4.7-.2-6.9.1-2.2 3.7-4.3 4-6.5.3-2.2.5-4.4 1-6.5.5-2.2 2-4 2.6-6.1.6-2.1-.1-4.7.7-6.7.8-2.1 3.8-3.1 4.8-5.1 1-2-.8-5.4.4-7.3 1.2-1.9 1.6-4.4 3-6.2 1.3-1.8 5.6-1.2 7-2.9 1.5-1.7-.2-6.3 1.4-7.9 1.6-1.5 6.7.8 8.4-.6 1.7-1.4 2.5-3.8 4.3-5.1 1.8-1.2 2.1-5.1 4.1-6.2 1.9-1.1 5.6 1.1 7.6.2 2-.9 3.1-4 5.3-4.7 2.1-.7 4.4-1 6.5-1.6 2-.5 4.3.2 6.4-.3 2-.4 3.9-1.5 6-1.8 2-.4 3.8-3 5.9-3.3 2.1-.3 4.3.4 6.4.2 2.1-.2 4.2-.7 6.3-.8 2.1-.1 4.3.1 6.4.1 2.1 0 4.1 3.1 6.2 3.2 2.1.1 4 .6 6.1.8 2.2.2 4.6-1.9 6.7-1.5 2.1.4 4.8-1 6.9-.4 2.1.6 2.8 5.4 4.8 6.2 2 .8 5.2-1.1 7.1-.1 1.9 1 2.6 4.2 4.5 5.3 1.8 1.1 4.9.4 6.6 1.7 1.7 1.3 2 4.4 3.6 5.8 1.6 1.4 2.6 3.3 4.1 4.9 1.5 1.6 4.4 1.8 5.7 3.5 1.3 1.7 3.9 2.6 5.1 4.4 1.2 1.8-.7 5.4.3 7.3 1 1.9 2.7 3.3 3.6 5.3.8 2 1.4 4 2 6.1.7 2 2 3.8 2.5 6 .5 2.1 2 4 2.3 6.2.3 2.1-.7 4.4-.5 6.6.1 2.2-1.2 4.6-1.2 7 0 2.3.4 4.5.3 6.9-.1 2.3-1.1 4.5-1.3 6.8-.1 2.3 4 4.9 3.7 7.3-.2 2.2-4.5 4.5-4.2 6.6.3 2.1 2.6 4.2 3.4 6.1.8 2 3.7 2.8 4.9 4.5 1.3 1.7 3.2 2.3 4.9 3.6 1.6 1.3 2.4 3.5 4.3 4.4 1.9.9 4 .3 6.1.7 2.1.4 3.8 1.8 5.9 1.6 2.1-.1 4.9 2.2 6.9 1.5 1.9-.6 4.5-1.5 6.3-2.7.4-.3-.5-2.8 0-3.1 3.7-.2 3.7.9 7.4-.8 2-.9 5.4-1.7 7-3.9 1.3-1.7-.9-5.4-.4-8.2.4-2.1 4.7-4.3 4.5-7.1-.2-2.4-2.5-4.4-2.8-6.5-.3-2.4-1.6-4.3-2.1-6.3-.6-2.3-2.7-3.7-3.5-5.6-.9-2.2-2-3.6-3.1-5.4-1.3-1.9 0-5.6-1.5-7.1-1.5-1.6-5.9-1.9-7.6-3.3-.7-3.1 3.2-2.8 3.9-6.5.3-1.8 2.3-3.8 2.4-6.2.1-2-3.7-4.1-3.8-6.3-.1-2-.1-3.9-.6-6-.4-2 2.2-5 1.4-7-.8-1.9-2-4-3.1-5.8-1.1-1.7-5.1-1-6.7-2.5-1.4-1.4-1.7-4.1-3.6-5.3-1.2-3.1 1.6-2.8 1.2-6.7-.2-1.9-3.6-3.5-4.3-5.9-.5-2 1.9-5.2.9-7.3-.9-1.9-2.7-3.7-4.1-5.5-1.3-1.6-5.2-.7-7-2.2-1.6-1.3-1-6-3-7.1-1.8-1-4.7-.4-6.9-1.1-2.1-2.5-2-1.9-3.7-5.4-.8-1.7 1-5.3-.4-7.2-1.1-1.7-4.6-1.7-6.2-3.4-1.4-1.5-2.6-3.2-4.4-4.5-1.7-1.2-2.4-4.6-4.5-5.5-1.9-.8-5.2 2-7.4 1.5-2-.5-3.5-4.8-5.8-5-2-.2-4 1.7-6.3 1.9-2.6-1.9-3.4-.7-5.3-4-.9-1.6-.4-4.3-1.9-6.2-1.2-1.6-3.4-2.3-5.1-3.8-1.5-1.4-2.7-3-4.5-4.1-1.8-1.1-2.6-4.2-4.7-5-1.9-.7-4.1-2.1-6.3-2.4-2-.3-4.3 3.2-6.6 3.4-2 .1-3.9.2-6.1.7-2 .4-4.6-1.2-6.7-.4-1.5 1.2-3.4.8-5.5 1.7z" style="fill:#007005"/>
    <path d="M244.7 107.4c0 2.1-.5 4-1.5 5.6-1 1.7-2.4 3-4.2 4-1.7 1-3.5 1.7-5.6 1.7-2.1 0-4-.6-5.7-1.5-1.7-1-3-2.5-4-4.2-1-1.7-1.4-3.5-1.4-5.6 0-2.1.2-4.1 1.1-5.8 1-1.7 2.7-2.9 4.4-3.9 1.7-1 3.5-1.5 5.6-1.5 2.1 0 4 .5 5.6 1.4 1.7 1 3.3 2.3 4.3 4 1 1.8 1.4 3.7 1.4 5.8zM62.5 197.4c0 2.6-.9 5-2.5 6.7-1.7 1.7-4.1 2.6-6.7 2.6-2.6 0-5-.9-6.7-2.5-1.7-1.7-2.7-4.1-2.7-6.7s1-5 2.7-6.7c1.7-1.7 4.1-2.8 6.7-2.8 2.6 0 4.8 1.2 6.5 2.9 1.7 1.7 2.7 4 2.7 6.5z" class="st72"/>
    <path d="M118.7 95.1c0 2.5-.8 4.7-1.9 6.7-1.2 2.1-2.9 3.8-4.9 5-2 1.2-4.3 1.7-6.8 1.7s-4.8-.5-6.8-1.7c-2.1-1.2-4-2.8-5.1-4.9-1.2-2-1.9-4.4-1.9-6.9s.9-4.8 2.1-6.8c1.2-2.1 2.8-3.9 4.9-5.1 2-1.2 4.4-1.6 6.9-1.6s4.8.5 6.8 1.7c2.1 1.2 3.8 2.9 5 5 1.1 2.1 1.7 4.4 1.7 6.9z" class="st73"/>
    <path d="M70.4 111.5c0 2.2-.9 4-2.3 5.4s-3.3 2.3-5.4 2.3-4.2-.7-5.6-2.2c-1.4-1.4-2.2-3.5-2.2-5.6 0-2.2.9-4.1 2.3-5.5s3.3-2.2 5.5-2.2 4 .8 5.4 2.2 2.3 3.4 2.3 5.6zM249 162.4c0 2.2-.9 4-2.3 5.4-1.4 1.4-3.3 2.4-5.4 2.4-2.2 0-4.1-.9-5.5-2.3-1.4-1.4-2.3-3.4-2.3-5.5s.9-4.1 2.3-5.5c1.4-1.4 3.4-2.1 5.5-2.1 2.2 0 4.1.7 5.5 2.1 1.4 1.3 2.2 3.3 2.2 5.5zM113.1 64.2c0 2.2-.9 4.2-2.3 5.6s-3.5 2.2-5.6 2.2-4.1-1-5.5-2.4-2.2-3.3-2.2-5.5.7-4.1 2.2-5.5c1.4-1.4 3.4-2.2 5.5-2.2s4 .9 5.4 2.3c1.4 1.5 2.5 3.4 2.5 5.5zM59.3 170.2c0 2.2-.9 4.1-2.3 5.5-1.4 1.4-3.3 2.3-5.5 2.3s-4-1-5.4-2.4c-1.4-1.4-2.3-3.3-2.3-5.4s.8-4.1 2.3-5.5c1.4-1.4 3.4-2.3 5.5-2.3 2.2 0 4.1.9 5.5 2.3 1.3 1.4 2.2 3.3 2.2 5.5zM272.4 122.5c0 2.2-.7 4.2-2.1 5.6-1.4 1.4-3.4 2.2-5.6 2.2-2.2 0-4.1-.9-5.5-2.3-1.4-1.4-2.3-3.4-2.3-5.5s1-4 2.4-5.4c1.4-1.4 3.3-2.5 5.4-2.5 2.2 0 4.1 1 5.5 2.4s2.2 3.3 2.2 5.5z" class="st55"/>
    <path d="M33.2 181.9c0 2.7-.9 5.2-2.6 7-1.8 1.8-4.3 2.7-7 2.7s-5.2-.9-7-2.7c-1.8-1.8-2.9-4.3-2.9-7s1.2-5.2 2.9-6.9c1.8-1.8 4.2-2.7 6.9-2.7s5 1.1 6.8 2.8c1.8 1.8 2.9 4.2 2.9 6.8zM270.5 184.7c0 2.7-1.3 5-3.1 6.8-1.8 1.8-4.1 2.9-6.8 2.9s-5.2-.9-7-2.7c-1.8-1.8-2.7-4.3-2.7-7s1.1-5.1 2.8-6.9c1.8-1.8 4.2-2.9 6.9-2.9s5.2 1.1 6.9 2.8c1.9 1.8 3 4.3 3 7zM231.6 64.6c0 2.1-.6 4-1.4 5.8-.8 1.9-1.8 3.5-3.2 5-1.4 1.4-2.9 2.8-4.8 3.6-1.8.8-3.9 1.2-5.9 1.2-2.1 0-4-.8-5.8-1.5-1.9-.8-3.5-1.9-4.9-3.3-1.4-1.4-2.6-3-3.3-4.9-.8-1.8-1.1-3.8-1.1-5.8 0-2.1.1-4.2.8-6 .8-1.9 2.1-3.5 3.5-5 1.4-1.4 3.3-2.2 5.2-3 1.8-.8 3.7-1.7 5.8-1.7 2.1 0 4 .8 5.8 1.5 1.9.8 3.7 1.7 5.1 3.1 1.4 1.4 2.5 3.2 3.3 5 .5 1.9.9 3.9.9 6z" class="st73"/>
    <path d="M75.1 78.5c0 2.6-.4 5.1-1.6 7.2-1.3 2.2-3.2 3.8-5.4 5.1-2.1 1.2-4.5 1.8-7.1 1.8-2.6 0-5.1-.3-7.2-1.5-2.2-1.3-3.9-3.2-5.2-5.4-1.2-2.1-2-4.6-2-7.2 0-2.6.8-5 2-7.1 1.3-2.2 3-4 5.2-5.3 2.1-1.2 4.5-2 7.2-2 2.6 0 4.9 1 7 2.2 2.2 1.3 4.2 2.8 5.5 5 1.3 2.1 1.6 4.6 1.6 7.2zM264.8 211.7c0 2.8-1.1 5.5-2.9 7.4-1.8 1.8-4.5 2.8-7.4 2.8-2.8 0-5.3-1.1-7.1-3-1.8-1.8-3.1-4.3-3.1-7.1s1.1-5.4 2.9-7.3c1.8-1.8 4.5-2.8 7.3-2.8s5.3 1 7.2 2.8 3.1 4.4 3.1 7.2zM291 152.6c0 2.1-.5 3.9-1.2 5.7-.8 1.9-1.8 3.5-3.2 4.9-1.4 1.4-3 2.5-4.9 3.3-1.8.7-3.7 1.6-5.8 1.6s-4-.7-5.8-1.5c-1.9-.8-3.5-1.9-4.9-3.3-1.4-1.4-2.6-3-3.4-4.9-.7-1.8-1.4-3.8-1.4-5.9 0-2.1.9-4 1.6-5.8.8-1.9 1.7-3.6 3.1-5 1.4-1.4 3.2-2.3 5.1-3.1 1.8-.7 3.7-1.3 5.7-1.3 2.1 0 4 .4 5.8 1.1 1.9.8 3.5 1.9 4.9 3.3 1.4 1.4 2.6 3 3.4 4.9.8 2 1 4 1 6zM51.5 134.2c0 2.3-.1 4.5-.7 6.6-.7 2.1-1.9 4.1-3.2 5.8-1.3 1.8-2.8 3.5-4.6 4.8-1.8 1.3-3.8 2.5-5.9 3.2-2.1.7-4.3.6-6.6.6s-4.4-.4-6.5-1.1c-2.1-.7-4.2-1.5-5.9-2.8-1.8-1.3-3.7-2.7-5-4.4-1.3-1.8-2-4-2.6-6.1-.7-2.1-.9-4.2-.9-6.5s.3-4.4 1-6.5c.7-2.1 1.5-4.2 2.8-5.9 1.3-1.8 3.1-3 4.9-4.3 1.8-1.3 3.6-2.4 5.7-3.1 2.1-.7 4.2-.9 6.4-.9 2.3 0 4.5 0 6.5.7 2.1.7 3.9 2 5.7 3.3 1.8 1.3 3.4 2.7 4.7 4.5 1.3 1.8 2.2 3.7 2.9 5.9.7 1.8 1.3 3.9 1.3 6.2z" class="st72"/>
    <path d="M172.5 9.3c.5 3.5-.6 3.6-.1 7.1.5 3.5.3 3.5.7 7 .3 1.9 2.1 3.4 3.8 4.2 3.1 1.6 3.2 1.4 6.3 3s3.2 1.4 6.4 2.9c2.1 1.1 3 3.6 2.9 5.6s-1.1 4-3.3 5c-3.2 1.5-2.9 2.1-6.1 3.6-3.2 1.5-3.5.8-6.7 2.4-1.7.8-3.2 2.7-3.5 4.5-.5 3.5.1 3.6-.5 7s-.1 3.5-.6 7c-.4 2.4-2.4 4.4-4.4 5-2 .6-4-.7-5.6-2.4-2.4-2.5-3.3-1.7-5.7-4.2-2.4-2.5-2.3-2.6-4.8-5.2-1.3-1.4-2.9-2-4.8-1.7-3.5.6-3.6-.1-7 .5s-3.4.8-6.9 1.4c-2.4.4-4.5-.4-5.7-2.1-1.2-1.7-1.5-4.1-.4-6.2 1.7-3.1 1.7-3.1 3.3-6.2 1.7-3.1 1.2-3.4 2.8-6.5.9-1.7 1.1-3.2.2-4.9l-3.2-6.2c-1.6-3.1-1.2-3.3-2.8-6.5-1.1-2.1-.7-4.4.5-6 1.2-1.7 3.2-2.5 5.5-2.1 3.5.6 3.4.8 6.9 1.4s3.5.2 7 .8c1.9.3 3.9-.2 5.3-1.5 2.5-2.5 2.2-2.8 4.6-5.3 2.5-2.5 2.3-2.6 4.8-5.1 1.7-1.7 4.4-2.2 6.4-1.5s4.4 2.9 4.7 5.2z" class="st55"/>
</svg>
