<svg xmlns="http://www.w3.org/2000/svg" viewBox="0 0 300 300">
  <path d="M85.88 56.34c-.53.2-1.03.49-1.46.83s-.75.83-1.06 1.29-.62.93-.8 1.46-.17 1.09-.21 1.65-.12 1.11-.03 1.67c.06.35.22.69.33 1.04.04.14 0 .31.06.45.24.63.65 1.17 1.02 1.69.4.55.85 1.01 1.36 1.4s1.07.78 1.68 1.01c.58.22 1.19.39 1.8.41.7.03 1.42-.08 2.1-.33.63-.24 1.17-.65 1.65-1.09s.85-.98 1.17-1.57.59-1.17.71-1.84.17-1.31.1-1.98c-.06-.64-.29-1.27-.53-1.9-.24-.63-.58-1.19-.96-1.71-.4-.55-.82-1.05-1.32-1.45s-1.12-.72-1.72-.95-1.27-.38-1.92-.39-1.32.06-1.95.3zm3.9 4.31c0 .81-.6 1.4-1.41 1.4-.81 0-1.48-.6-1.48-1.41 0-.81.68-1.4 1.49-1.4.81 0 1.4.6 1.4 1.41z" fill="#4b3427"/>
  <path d="M88.29 59.25s.06-.07.09-.07c.07 0 .16-.06.23-.05.44.07.78.42 1 .78.12.2.15.42.17.66v.08c0 .81-.6 1.44-1.41 1.44-.49 0-.85-.27-1.12-.64-.17-.24-.46-.49-.45-.81 0-.23.04-.52.14-.71.23-.45.82-.65 1.35-.68z" fill="#fff"/>
  <path fill="none" d="M0 0h297.58v297.58H0z"/>
  <path d="M113.11 74.22c.48-.18 1.01-.45 1.61-.68.55-.22 1.15-.46 1.78-.73.46-.2.92-.46 1.42-.69.47-.21 1.01-.3 1.5-.53s.9-.54 1.38-.78.94-.45 1.42-.7.91-.53 1.37-.8.93-.49 1.39-.77c.12-.07.19-.22.31-.3.24-.15.56-.17.8-.32.48-.3.88-.73 1.35-1.06.42-.29.8-.64 1.22-.95s.93-.48 1.33-.8.83-.62 1.22-.95.72-.74 1.1-1.09c.02-.02-.07-.15-.06-.16l.12.13c.26-.24.49-.5.74-.74.17-.17.36-.34.53-.52.08-.09.21-.15.29-.24.17-.18.18-.5.34-.68.32-.37.73-.66 1.03-1.04.21-.27.4-.56.6-.84.08-.11.24-.17.32-.29.14-.2.28-.39.41-.59.13-.2.25-.4.37-.6.04-.06.02-.15.06-.21.39-.67.66-1.39.96-2.1.24-.56.34-1.17.51-1.76s.47-1.14.57-1.75c.06-.35.02-.71.06-1.06.05-.54.25-1.08.25-1.64s-.04-1.1-.1-1.66c-.05-.45-.17-.91-.27-1.37-.14-.72-.42-1.44-.67-2.19-.19-.58-.45-1.11-.67-1.63-.24-.56-.51-1.07-.79-1.58s-.58-1.03-.92-1.5-.57-1.07-.97-1.49c-.24-.25-.5-.49-.75-.71-.17-.15-.51-.1-.68-.25-.35-.28-.58-.73-.96-.98s-.77-.48-1.18-.68c-.59-.29-1.22-.5-1.81-.69-.08-.03-.2.05-.29.02-.17-.05-.33-.12-.5-.16-.34-.09-.67-.17-1-.23-.17-.03-.34.04-.51.02-.08-.01-.15-.09-.23-.1-.16-.02-.33.02-.49 0-.08 0-.16.02-.24.01-.16-.01-.31-.05-.46-.05v-.2c-.29-.01-.58.16-.86.16-.46 0-.86-.19-1.28-.16.04-.16.12-.19.16-.36.09-.44.1-.92.12-1.39 0-.07.07-.15.07-.22 0-.22-.1-.44-.11-.66l.06-.02c-.01-.38-.19-.74-.24-1.12-.03-.23-.08-.46-.12-.68-.13-.62-.3-1.2-.52-1.77-.24-.6-.47-1.17-.8-1.66-.05-.07-.03-.2-.08-.27-.31-.43-.66-.83-1-1.19l-.14.12c-.13-.14-.23-.3-.36-.42-.16-.15-.25-.36-.41-.5-.35-.3-.67-.63-1.05-.87-.52-.33-1.16-.44-1.71-.67-.45-.19-.89-.37-1.35-.49s-.93-.3-1.4-.37-.97-.06-1.45-.08v-.17c-.32-.02-.65.06-.97.06-.2 0-.39-.03-.59-.02-.09 0-.17.13-.25.14-.11 0-.24-.19-.35-.18-.15.01-.29.2-.44.22-.15.02-.31-.03-.45-.01-.3.04-.58.11-.86.15-.32.05-.6.19-.9.26-.29.06-.59.05-.86.12.01-.11 0-.23.01-.34.03-.38.02-.77 0-1.17 0-.13.1-.28.09-.41-.03-.29-.23-.56-.3-.86-.07-.29.05-.62-.03-.9-.18-.6-.47-1.15-.71-1.69-.26-.57-.47-1.16-.79-1.66-.34-.52-.82-.93-1.22-1.37-.09-.1-.21-.18-.3-.27-.39-.41-.75-.86-1.19-1.21s-.98-.58-1.46-.86-.96-.59-1.47-.83-1.06-.37-1.59-.55-1.07-.37-1.61-.5-1.11-.24-1.66-.33-1.12-.19-1.67-.23c-.53-.04-1.05-.17-1.55-.18-.8 0-1.57.02-2.26.09-.3.03-.59.08-.86.12-.28.04-.55.2-.76.36-.13.09-.1.33-.2.46-.11.15-.31.24-.37.42-.04.14 0 .28-.01.43 0 .19-.14.39-.09.56.02.06 0 .14.02.19.04.09.15.15.2.23.03.04.1.06.13.1.08.11.17.22.28.31.18.15.42.18.67.25.04 0-.01.21.03.24s.2-.08.24-.04c.02.02-.09.14-.07.16.02.03.11 0 .13.02.01.02-.05.08-.03.1.09.15.23.3.25.53 0 .06.06.13.05.2 0 .11.03.25 0 .38-.04.16-.19.31-.28.49-.08.15-.2.3-.32.46-.17.22-.4.42-.66.65-.15.13-.28.29-.46.42-.58.41-1.38.68-2.31 1.04-.52.21-1.03.43-1.48.66l.09.18c-.41.21-.89.28-1.25.51-.39.25-.71.59-1.04.85-.21.16-.43.31-.62.48-.57.51-1.04 1.06-1.44 1.59l.07.06c-.53.71-.95 1.4-1.24 2.1-.04.1-.09.2-.12.3-.08.21-.17.41-.23.62-.06.21 0 .44-.04.64-.13.53-.37.99-.41 1.45-.05.58-.09 1.1-.07 1.51.02.33.27.62.32.93 0 .06-.21.16-.2.22.01.08.2.13.22.21.14.7.22 1.38.49 1.94.04.08.15.12.19.2.08.15.16.29.24.43.04.06-.02.17.02.23.26.39.59.7.89 1-.14.07-.2.22-.33.29-.55.3-1.16.52-1.69.88s-1.03.74-1.51 1.16-.82.97-1.24 1.44-.81.96-1.16 1.49c-.23.36-.56.66-.75 1.04-.22.44-.31.94-.47 1.41s-.3.93-.39 1.42c-.02.13-.1.25-.12.39 0 .02.11.06.11.08-.02.16-.1.3-.11.46a9.65 9.65 0 000 1.7c.04.45.13.86.21 1.27.04.2.04.41.09.6.04.16-.02.34.03.49.23.7.49 1.37.83 1.93.37.63.96 1.06 1.42 1.53.12.13.26.23.39.35.08.07.13.16.21.23.06.05.09.11.15.16.07.05.08.17.15.22.14.1.42.22.56.32-.53.41-1.18.78-1.69 1.3 0 0 .08.08.07.08 0 0-.05-.02-.06-.01-.25.26-.6.46-.84.75-.05.06-.08.14-.12.2-.15.19-.33.36-.47.56-.27.38-.54.78-.78 1.2-.21.35-.28.79-.46 1.18-.07.15-.04.35-.11.51-.03.08-.08.15-.11.23-.1.24-.25.46-.33.71-.11.34-.26.67-.34 1.02-.04.15.05.33.02.49-.02.07-.02.14-.03.22 0 .05-.03.09-.04.13-.02.11-.09.21-.11.32-.07.45-.33.88-.36 1.36 0 0 .09.02.08.03-.02.28.1.57.09.86 0 .19-.12.39-.12.58 0 .2.12.39.14.59.02.34-.11.7-.07 1.05.07.59.17 1.2.31 1.82 0 .03.02.06.02.08.16.58.36 1.15.57 1.69s.53 1.08.79 1.6.63 1.01.95 1.49.68.96 1.06 1.41.77.89 1.21 1.29.93.71 1.42 1.06.88.81 1.41 1.1c.12.07.23.16.35.22.24.12.59.08.89.21.04.02.07.04.11.05.19.08.33.3.54.38.07.03.2-.1.28-.07.52.2 1.07.49 1.73.68.55.16 1.15.33 1.8.46.57.12 1.21.03 1.86.12.58.08 1.17.36 1.82.41.59.05 1.22.02 1.87.04.49.01 1 .13 1.52.12.49 0 1-.18 1.53-.2.5-.02 1-.14 1.52-.18.57-.04 1.18.11 1.78.04.53-.06 1.05-.32 1.61-.4s1.08-.1 1.64-.2 1.1-.06 1.65-.17 1.03-.38 1.58-.5 1.09-.13 1.64-.27 1.03-.39 1.57-.54c.58-.16 1.16-.36 1.76-.54s1.21-.2 1.81-.39 1.13-.48 1.72-.68 1.17-.35 1.76-.56c.07-.02.17.06.24.03z" fill="#9b7d5f"/>
  <path d="M127.86 57.78c.45-.17.86-.4 1.23-.68s.76-.57 1.05-.95.58-.76.78-1.19.36-.88.46-1.36c.09-.4.08-.84.09-1.26s-.05-.83-.11-1.25-.08-.84-.21-1.24c-.04-.12-.06-.26-.11-.38-.2-.52-.52-.97-.81-1.42s-.67-.86-1.06-1.22c-.39-.37-.78-.73-1.23-.99-.43-.25-.89-.43-1.35-.57s-.95-.25-1.44-.26-.99-.02-1.47.1c-.2.05-.37.2-.56.27-.47.18-.93.37-1.32.66s-.7.69-1 1.09-.55.81-.75 1.26c-.24.56-.4 1.17-.48 1.8-.07.58-.17 1.18-.09 1.78s.23 1.16.45 1.73c.13.35.28.7.46 1.01.24.43.56.82.87 1.18s.7.69 1.08.98.83.52 1.26.72.9.39 1.37.48.97.13 1.46.09.94-.21 1.4-.39zM88.16 58.26c-.44.17-.87.39-1.23.66s-.66.66-.95 1.02-.61.71-.82 1.13-.25.89-.36 1.34-.27.89-.28 1.36.09.92.17 1.38c.06.35.06.73.17 1.08.04.14.19.24.24.38.18.47.4.9.66 1.31s.53.84.86 1.19.7.72 1.11.98.86.52 1.32.69c.58.22 1.21.29 1.82.31.7.03 1.38-.12 2.06-.37.45-.17.9-.33 1.27-.61s.75-.6 1.04-.96.48-.81.68-1.24.32-.87.42-1.34.21-.91.22-1.39-.05-.93-.13-1.4-.18-.91-.35-1.36c-.17-.45-.33-.9-.57-1.29s-.61-.73-.92-1.07-.64-.71-1.01-.98-.83-.45-1.26-.63-.88-.32-1.34-.4-.93-.09-1.4-.04-.94.07-1.39.24zm3.9 4.31c0 .4-.15.73-.42.99s-.59.49-.99.49-.73-.23-.99-.5-.52-.59-.52-.99.25-.73.52-.99.59-.49 1-.49c.4 0 .72.24.99.5s.42.59.41.99z" fill="#4b3427"/>
  <path d="M124.99 46.77s.07-.02.1-.02c.07 0 .15.1.22.11.44.07.75.38.97.75.12.2.29.39.3.64 0 .03-.02.06-.02.09 0 .81-.68 1.5-1.48 1.5-.49 0-1.02-.2-1.29-.57-.17-.24-.15-.61-.14-.93 0-.23.02-.46.12-.65.23-.45.69-.87 1.22-.9zM90.57 61.17s.06-.07.09-.07c.07 0 .16-.06.23-.05.44.07.78.42 1 .78.12.2.15.42.17.66v.08c0 .81-.6 1.44-1.41 1.44-.49 0-.85-.27-1.12-.64-.17-.24-.46-.49-.45-.81 0-.23.04-.52.14-.71.23-.45.82-.65 1.35-.68z" fill="#fff"/>
  <path d="M104.25 62.24c1.19 3.42 4.97 4.64 8.18 3.13 2.7-1.27 3.38-4.82 1.96-7.31-.61-1.06-2.25-.11-1.64.96.89 1.56.55 3.79-1.13 4.62-2.08 1.03-4.73.4-5.54-1.91-.4-1.15-2.23-.65-1.83.5z" fill="#4b3427"/>
  <path d="M80.05 32.18c.75.04.54.47 1.44.62.43.07.95.11 1.5.16.47.04.98.23 1.51.23.49 0 .98-.44 1.49-.5s.97-.15 1.46-.27 1.07.02 1.53-.18.74-.8 1.16-1.09c.68-.31 1.15-.4 1.69-.15.33.16.62.9.38 1.7-.1.33-.77.59-1.32 1.04-.36.29-.81.54-1.32.86-.42.26-.94.39-1.44.65-.45.23-.9.5-1.4.72-.47.21-.86.64-1.37.83s-1.01.31-1.52.47-1.04.21-1.55.33-1.01.33-1.53.42-1.07-.04-1.59 0-1.06.41-1.58.39-1.02-.43-1.53-.52-1.32.1-1.81-.09c-.19-.77.74-.49 1.26-1.27.26-.39.45-.91.81-1.35.33-.4.56-.91.96-1.28s.76-.82 1.2-1.09 1.06-.53 1.57-.64zM76.28 50.9c.74-.02.53.45 1.45.61.41.07.94-.09 1.5-.01.45.06.92.34 1.45.4.47.05.96.08 1.49.11.47.03.97 0 1.49 0 .48.02.98-.04 1.49-.04s.98-.07 1.48-.09 1.01.36 1.51.32.94-.52 1.44-.58 1.02.19 1.52.11.98-.19 1.47-.28 1.01-.04 1.5-.16.85-.65 1.33-.79.93-.31 1.4-.48 1.04-.05 1.51-.25.77-.76 1.22-.98c.83-.29 1.62-.32 1.98.36.16.31.08 1.08-.31 1.95-.15.34-.8.53-1.31.93-.35.27-.8.49-1.29.77-.41.23-.91.33-1.41.55-.44.2-.87.43-1.37.63-.46.18-.84.58-1.34.75-.47.16-.97.26-1.47.4-.48.14-.99.17-1.49.3s-.95.33-1.46.43-1.02 0-1.53.09-.95.51-1.46.57-1.04-.25-1.56-.21-.98.58-1.49.61-1.03-.45-1.54-.45-1.01.15-1.52.13-1.02.12-1.54.08-1.03.04-1.54-.03-.94-.6-1.44-.69-1-.11-1.5-.22-.95-.08-1.45-.21c-.37-.59-.38-.65-.15-1.42.12-.4.6-.77.85-1.2.22-.39.75-.51 1.11-.83.33-.29.51-1.04.99-1.19z" fill="#cda982"/>
</svg>