<svg id="accessories" xmlns="http://www.w3.org/2000/svg" viewBox="0 0 300 300">
    <defs>
        <style>
            .cls-1{fill:none}
            .cls-1,.cls-2,.cls-3{stroke-width:0}
            .cls-2{fill:#d35905}
            .cls-3{fill:#912f03}
        </style>
    </defs>
    <path fill="#d35905" d="M217.42 31.87c1.14-1.2 2.85-1.35 3.88-2.54 2.97-3.4 6.05-6.51 9.55-9.31 1.32-1.06 2.3-2.56 3.62-3.62 1.69-1.35 4.1-1.78 6.02-.87.8.38 1.27 1.47 1.97 2 1.15.88 2.53 2.45 2.01 3.81-.37.97-.89 2.15-1.46 3.03-2 3.1-5.53 5.03-8.59 7.07-2.59 1.73-5.65 2.74-8.23 4.47-.26.18-.44.99-.78 1.25.25.21.29 1.33.5 1.47 3.06 1.9 6.59 3.02 9.5 5.12s6.08 3.89 8.9 6.12c3.89 3.06 7.33 6.64 10.94 9.99 2.32 2.15 4.35 4.59 6.29 7.03s4.19 4.78 5.8 7.49c1.99 3.36 2.88 7.33 4.55 10.84s4.24 6.69 5.57 10.36c.9 2.48.21 5.55 1.12 8.03s3.02 4.52 3.92 7.01c.91 2.51.49 5.41 1.17 7.98s1.65 5.06 2.25 7.65c.37 1.61.4 3.25.66 4.88.42 2.61.87 5.1.7 7.72-.05.84.91 1.83.78 2.67-.27 1.82-1.17 3.75-2.05 5.36-.75 1.38-2.24 2.37-2.96 3.77-.98 1.88-2.61 2.96-4.4 4.05-1.97 1.21-4.05 1.66-6.29 2.26-2.03.54-3.81 1.43-5.84.91-2.11-.54-4.47-.22-6.56-.83-2.88-.83-5.44-3.16-6.7-5.87-.98-2.12-.37-4.94-1.27-7.1-.88-2.12-2.07-4.13-2.97-6.25-.72-1.68-2.01-3.09-3.16-4.52-.78-.97-1.37-2.11-2.17-3.07-1.39-1.68-3.04-3.13-4.54-4.71-1.97-2.08-3.89-4.21-5.86-6.29-2.54-2.69-5.62-4.73-8.51-6.99-2.62-2.05-5.48-3.69-8.34-5.36-3.17-1.86-6.37-3.61-9.74-5.09-3.2-1.4-5.97-3.76-9.13-5.23s-6.74-1.97-10.03-3.15c-2.28-.82-4.72-1.26-6.97-2.15-2.32-.92-4.5-2.18-6.84-3.06-3.89-1.46-7.28-4.27-11.17-5.72-2.12-.79-4.42-1.08-6.55-1.85-2.96-1.07-5.65-2.82-8.58-3.96-2.99-1.16-6.51-.63-9.67-1.15-2.99-.49-5.91-1.3-8.87-1.93s-6.03-.78-8.97-1.47c-2.9-.69-5.58-2.44-8.5-3.02-2.41-.48-4.93-.5-7.35-.92-2.3-.4-4.71.02-7.04-.18-2.05-.18-4.03-1.66-6.09-1.74-3.51-.13-7.06.13-10.57.11-2.94-.01-5.86 1.51-8.8 1.62-2.06.08-4.15-.43-6.15.06-.92.22-.56-.4-.98-1.28-.51-1.04-2.12-1.48-2.81-2.37-.73-.95-1.1-2.07-1.61-3.16-1.19-2.57-2.81-4.99-3.24-7.8-.38-2.47.49-5.03.38-7.52-.16-3.5-1.11-7.03-.17-10.39.9-3.22 2.47-6.26 4.02-9.13s3.81-5.37 5.83-8.01c2.17-2.84 5.53-3.96 8.63-5.66 2.93-1.61 5.36-4.14 8.48-5.2s6.45-1.52 9.72-2.15c3.56-.69 7.05-2.05 10.65-2.48 2.76-.33 5.63-.07 8.41-.14 5.05-.14 10.1-.05 15.15-.06 3.27 0 6.51.95 9.78 1.1 3.72.17 7.54-.73 11.19-.15s6.94 2.82 10.53 3.83c2.54.71 5.64-.53 8.19.18s4.98 2.01 7.45 2.95c2.68 1.02 4.94 3.12 7.61 4.17 2.67 1.05 5.81 1.09 8.33 2.46 2.71 1.48 5.16 3.45 7.88 4.92s5.03 3.58 7.64 5.24c1.43.91 3.79.19 5.29.98 2 1.04 3.55 2.45 5.62 3.52z"/>
    <path fill="#912f03" d="M103.43 51.89c2.97.2 7.13.4 11.27.77 6.97.63 13.83 1.96 20.54 3.96 5.62 1.67 11.06 3.85 16.35 6.37 4.12 1.96 8.15 4.11 12.27 6.06 6.93 3.29 13.92 6.44 21.17 8.99 4.72 1.66 9.45 3.31 14.14 5.06 5.68 2.12 11.14 4.72 16.44 7.69 5.78 3.24 11.48 6.61 16.96 10.34 4.85 3.29 9.17 7.16 12.56 11.98 1.18 1.68 2.23 3.46 3.24 5.25.86 1.51 1.6 3.08 2.35 4.64 1.32 2.73 1.86 5.66 2.23 8.64.05.39-.03.81-.14 1.19-.22.79-.83 1.19-1.63 1.17-.79-.02-1.38-.48-1.55-1.28-.19-.95-.31-1.91-.47-2.87-.39-2.33-1.05-4.56-2.2-6.64-.43-.78-.81-1.58-1.2-2.38-2.94-5.95-7.13-10.85-12.41-14.82-4.82-3.62-9.92-6.8-15.16-9.77-5.2-2.95-10.37-5.96-15.94-8.18-3.56-1.42-7.16-2.75-10.76-4.07-4.13-1.52-8.32-2.87-12.41-4.48-8.61-3.39-16.95-7.36-25.19-11.58-7.13-3.65-14.52-6.73-22.28-8.74-6.49-1.67-13.08-2.96-19.8-3.32-3.27-.17-6.54-.45-9.8-.42-7.12.08-14.2.58-21.2 1.98-3.28.66-6.59 1.2-9.88 1.82-.75.14-1.49.37-2.21.62-1.3.45-2.56.97-3.63 1.89-.75.64-1.63.57-2.17-.04-.55-.63-.56-1.51.1-2.2.47-.49 1.02-.92 1.6-1.27 2.2-1.35 4.64-2.1 7.14-2.57 5.55-1.05 11.12-2.03 16.7-2.93 1.99-.32 4.02-.37 6.04-.49 2.58-.15 5.17-.23 8.94-.4z"/>
</svg>