<svg xmlns="http://www.w3.org/2000/svg" viewBox="0 0 300 300">
    <path fill="#a1b3d3" d="M220.33 64.04l.28-7.11-2.08-6.82-2.09-6.66-2.36-6.62-3.97-5.8-3.73-6.04-5.39-4.61-5.39-4.66-6.7-2.47-6.6-2.28-6.63-2.51-6.97-1.52-7.12.56-7.04 1.12-7.38-1.05-7.43-.44-7.42.67-6.93 2.94-7.28 1.51-6.47 3.66-5.98 4.43-5.23 5.37-3.32 6.7-3.78 6.44-2.02 7.18-.71 7.41-1.19 7.38-6.52 3.49-6.78 2.57-6.52 3.15-6.7 2.77-4.53 4.7 6 .94 6.87-.31 6.89-.46 6.89.48 6.9.51 6.71 1.89 6.84 1.39 6.12 3.54 6.82 1.63 6.21 3.16 6.55 2.41 6.96.06 6.97-1.31 7.4-.52 6.56-3.46 7.27-1.22 7.01-2.06 6.39-3.8 7.22-1.5 6.95-2.26 6.29-3.95 7.09-1.9 6.3-3.77 6.77-2.95z"/>
    <path d="M139.55 12.06c-21.52 1.3-31.83 27.04-29.78 45.94.18 1.68 2.84 1.7 2.65 0-1.88-17.25 7.09-42.08 27.12-43.28 1.7-.1 1.71-2.75 0-2.65z" fill="#c2d1f0"/>
    <path d="M93.33 61.4c17.41 4.31 36.16 4.74 53.99 5.31 23.25.75 46.74.54 69.85-2.4 1.67-.21 1.69-2.87 0-2.65-22.62 2.87-45.62 3.12-68.39 2.44-18.07-.54-37.11-.89-54.75-5.26-1.66-.41-2.36 2.15-.7 2.56z" fill="#c2d1f0"/>
    <path d="M151.18 16.78c-5.52 13.99-8.23 28.7-7.91 43.74.04 1.7 2.69 1.71 2.65 0-.32-14.83 2.38-29.26 7.81-43.04.63-1.59-1.94-2.28-2.56-.7zM168.69 14.43c8.85 3 16.73 8.46 21.05 17 4.41 8.72 5.44 18.96 6.04 28.56.11 1.69 2.76 1.71 2.65 0-.66-10.43-1.8-21.68-6.98-30.98-4.79-8.61-12.95-14.05-22.06-17.14-1.62-.55-2.31 2.01-.7 2.56z" fill="#c2d1f0"/>
    <ellipse cx="152.78" cy="8.73" rx="2.71" ry="4.75" transform="rotate(-87.44 152.784 8.728)" fill="#c2d1f0"/>
    <path fill="none" d="M0 .81h300v300H0z"/>
</svg>