<svg id="accessories" xmlns="http://www.w3.org/2000/svg" viewBox="0 0 300 300">
    <defs>
    </defs>
    <path fill="none" stroke-width="0" d="M0 0h300v300H0z"/>
    <path fill="#ffd371" stroke-width="0" d="m198.48 23.4.43 1.73-.03 1.79.04 1.78.62.41 1.4 1.09.92 1.62 1.24 1.28-.01 1.55-1.64.66-1.73.5-1.34 1.3-.7.17-.69 1.63-.97 1.5-.67 1.65-1.38.3-1.54-.97-1.23-1.28-.95-1.55-.63-.15-1.73-.43-1.77-.13h-1.79l-1.04-1.83 1.3-1.31.36-1.82 1.19-1.37-.02-.67.03-1.81-.72-1.67-.02-1.8.9-1.03 1.81-.02 1.68.65 1.74.35.62-.37 1.51-.94 1.49-.95 1.86-.32 1.46.46zM245.32 64.06l1.29.87 1.07 1.11 1.23.94.31.22 1.52.35 1.54-.03 1.56-.2.71 1.35-.51 1.46-1.04 1.22-.26 1.58-.23.39.41 1.48.38 1.49.56 1.45-1.01 1.22-1.53-.11-1.51-.39-1.51-.34-.61-.01-1.13 1.08-1.16 1.05-1.42.64-.85-.61-.95-1.38.16-1.61-.5-1.47-.36-.23-1.19-.98-.87-1.38-1.35-.78V71.1l1.43-.59 1.31-.83 1.27-.89.62-.1.5-1.46.2-1.58.81-1.34 1.11-.25zM55.06 46.37l-.38 1.49.1 1.54-.6 1.49-.1 1.53.69.46.94 1.2.45 1.54.72 1.37 1.48.83-.83 2.1-1.51.23-1.64-.3-1.35.92-1.48.37-.28.43-1.25.97-1.12 1.06-.73 1.37L46.99 66l-.92-.08-.96-1.19-1.2-1.06-.5-1.49-1.22-1.04-.21-.54-1.54-.23-1.41-.58-1.5-.33-1.44-.53-.61-2.18 1.61-.64.84-1.29 1.09-1.07.86-1.28.51-.7-.38-1.53-.11-1.53-.09-1.53-.04-1.53 1.64-.83 1.53.29 1.14 1.23 1.47.44 1.36.72.78-.46h1.59l1.37-.74 1.35-.83 1.52-.24 1.54 1.14z"/>
    <path d="M221.42 56.09c0 15.46-31.98 27.99-71.42 27.99S78.58 71.55 78.58 56.09 110.56 28.1 150 28.1c9.23 0 18.06.69 26.16 1.94" stroke="#ffd371" stroke-linecap="round" stroke-linejoin="round" stroke-width="3px" fill="none"/>
</svg>
