<?xml version="1.0" encoding="UTF-8"?>
<svg id="_層_1" xmlns="http://www.w3.org/2000/svg" viewBox="0 0 300 300">
    <path d="M61.3,71.27s-28.58-3.73-31.91-23.41c-.35-2.09-1.26-4.06-2.8-5.52-2.41-2.28-6.44-4.25-11.69-.18,0,0-14.31,12.92,1,25.32,0,0-11.96,10.25,3.53,21.94,0,0-10.65,12.46,8.91,20.08,0,0,18.18-32.8,32.96-38.23Z"
          style="fill:#fbb03b;"/>
    <path d="M21.75,47.23s-9.89,8.13,0,19.42c0,0-7.01,13.85,1.18,18.64,0,0-5.35-13.39,3.15-19.78,0,0-10.14-5.21-4.32-18.29Z"
          style="fill:#fff;"/>
    <path d="M241.82,71.27s28.58-3.73,31.91-23.41c.35-2.09,1.26-4.06,2.8-5.52,2.41-2.28,6.44-4.25,11.69-.18,0,0,14.31,12.92-1,25.32,0,0,11.96,10.25-3.53,21.94,0,0,10.65,12.46-8.91,20.08,0,0-18.18-32.8-32.96-38.23Z"
          style="fill:#fbb03b;"/>
    <path d="M281.36,47.23s9.89,8.13,0,19.42c0,0,7.01,13.85-1.18,18.64,0,0,5.35-13.39-3.15-19.78,0,0,10.14-5.21,4.32-18.29Z"
          style="fill:#fff;"/>
    <path d="M155.3,7.04s-21.06-11.24-27.92-3.85c0,0-5.74,3.45,2.14,8.58,0,0-13.95,4.61-.23,10.98,0,0-10.38,3.05,1.74,7.87l24.27-23.58Z"
          style="fill:#c1272d;"/>
    <g>
        <path d="M293.71,154.13c-19.71-111.13-143.71-113.13-143.71-113.13,0,0-121,0-142.68,120.9-25.71,143.38,122.87,133.53,156.02,130.45,33.15-3.08,153.19-9.49,130.37-138.22ZM43.73,201.77h0Zm.02-.16v-.1l.04-.21-.04,.3Zm203.94-33.36c-1.84,75.86-86.25,75.5-86.25,75.5-113.8,4.02-105.07-70.78-105.07-70.78,6.53-93.71,88.01-96.49,88.01-96.49,105.82-8.3,103.31,91.77,103.31,91.77Zm8.88-7.03h0c0,.07,0,.13,0,.19v-.19Z"
              style="fill:#fff1d4;"/>
        <path d="M48.57,166.46l.09-.65c-.03,.22-.06,.43-.09,.65h0Z" style="fill:#f58029;"/>
    </g>
    <path d="M26.7,221.4s-3.43,2.56-.47,8.97,10.6,1.4,9.06-2.23-3.49-10.29-8.58-6.75Z" style="fill:#f3c503;"/>
    <path d="M32.93,186.7s-2.96,2.2-.41,7.74c2.55,5.53,9.14,1.21,7.81-1.92s-3.01-8.87-7.4-5.82Z" style="fill:#f3c503;"/>
    <path d="M13.09,197.89s-2.96,2.2-.41,7.74,9.14,1.21,7.81-1.92-3.01-8.87-7.4-5.82Z" style="fill:#f3c503;"/>
    <path d="M21.82,169.17s-3.46,1.27-2.59,7.3,8.42,3.76,8.03,.38c-.39-3.38-.36-9.36-5.44-7.68Z" style="fill:#f3c503;"/>
    <path d="M57.72,250s-1.87,3.85,3.71,8.18,10.06-3.63,7.02-6.14-7.83-7.53-10.73-2.04Z" style="fill:#f3c503;"/>
    <path d="M45.96,224.15s-1.87,3.85,3.71,8.18,10.06-3.63,7.02-6.14-7.83-7.53-10.73-2.04Z" style="fill:#f3c503;"/>
    <path d="M36.13,250.09s-1.87,3.85,3.71,8.18c5.57,4.34,10.06-3.63,7.02-6.14s-7.83-7.53-10.73-2.04Z"
          style="fill:#f3c503;"/>
    <path d="M274.38,221.4s3.43,2.56,.47,8.97-10.6,1.4-9.06-2.23,3.49-10.29,8.58-6.75Z" style="fill:#f3c503;"/>
    <path d="M268.15,186.7s2.96,2.2,.41,7.74-9.14,1.21-7.81-1.92,3.01-8.87,7.4-5.82Z" style="fill:#f3c503;"/>
    <path d="M287.99,197.89s2.96,2.2,.41,7.74-9.14,1.21-7.81-1.92,3.01-8.87,7.4-5.82Z" style="fill:#f3c503;"/>
    <path d="M279.27,169.17s3.46,1.27,2.59,7.3c-.87,6.03-8.42,3.76-8.03,.38,.39-3.38,.36-9.36,5.44-7.68Z"
          style="fill:#f3c503;"/>
    <path d="M243.36,250s1.87,3.85-3.71,8.18-10.06-3.63-7.02-6.14,7.83-7.53,10.73-2.04Z" style="fill:#f3c503;"/>
    <path d="M255.13,224.15s1.87,3.85-3.71,8.18c-5.57,4.34-10.06-3.63-7.02-6.14s7.83-7.53,10.73-2.04Z"
          style="fill:#f3c503;"/>
    <path d="M264.95,250.09s1.87,3.85-3.71,8.18c-5.57,4.34-10.06-3.63-7.02-6.14s7.83-7.53,10.73-2.04Z"
          style="fill:#f3c503;"/>
    <path d="M200.65,32.42s1.56-17.32-19.12-23.77c0,0-29.34-12.29-47.52,12.42,0,0-16.98,26.9-38.31,25.1,0,0-10.43,17.91,10.31,21.46,0,0,4.98,16.37,29.98,7.37,0,0,11,13,33,4,0,0,16.79,13.14,27-2,0,0,15,8,16-7,0,0,20.76,.65,19-12,0,0,0-4-23-9,0,0-7.89-4.1-18-4,0,0,8.69,.43,10.65-12.58Z"
          style="fill:#f3c503;"/>
    <path d="M175.78,38.28s3.35,9.42,13.85,12.7c0,0,3.1-5.87,.59-11.62,0,0-9.13-4.67-14.44-1.08Z"
          style="fill:#9d272d;"/>
    <path d="M191.53,27.46c5.03,.97,12,3.15,15.51,8,0,0-17.89,6.99-31.26,2.82,0,0-1.43-3.65,3.8-7.92,3.33-2.72,7.73-3.72,11.95-2.91Z"
          style="fill:#c1272d;"/>
    <path d="M185.74,29.87s-1.91-.6-2.5,1.31,2.73,1.9,3.42,1.07,1.29-2.74-.92-2.38Z" style="fill:#fff;"/>
    <path d="M175.18,23.43s4.95-5.79-3.94-7.51c-8.89-1.72-17.83,10.15-8.28,13.13,9.55,2.98,12.23-5.62,12.23-5.62Z"
          style="fill:#fff;"/>
    <path d="M173.62,21.58s.14-3.76-4.88-2.74-6.57,5.92-2.24,7.2c4.33,1.28,7.83-3.51,7.12-4.45Z" style="fill:#42210b;"/>
    <path d="M173.87,37.69s-13.36-4.17-22.01,6.76c0,0-4.95,5.79,1.44,8.83s8.87-1.59,8.87-1.59c0,0,2.75,6.04,8.27,1.06,0,0,2.76,2.97,5.29,.36,.83-.85,.88-2.19,.22-3.18-1.6-2.4-4.32-7.55-2.09-12.24Z"
          style="fill:#f15a24;"/>
    <path d="M57.42,267.37s-.1-8.46-5.76-7.91-20.17,14.23-20.17,14.23c0,0-9.79-17.6-14.14-14.14s7.68,19.46,7.68,19.46c0,0,.39,4.32-3.32,3.66s-14.07-5.2-12.89,.07,17.25,9.24,17.25,9.24c0,0,5.93,1.98,9.93,0s18-8.98,18-8.98c0,0,2.68-7.31-6.66-5.66l-11.34,3.33s.66-1.72,5.83-4.7,15.59-8.61,15.59-8.61Z"
          style="fill:#8c6239;"/>
    <path d="M245.72,267.37s.1-8.46,5.76-7.91,20.17,14.23,20.17,14.23c0,0,9.79-17.6,14.14-14.14,4.35,3.46-7.68,19.46-7.68,19.46,0,0-.39,4.32,3.32,3.66s14.07-5.2,12.89,.07-17.25,9.24-17.25,9.24c0,0-5.93,1.98-9.93,0s-18-8.98-18-8.98c0,0-2.68-7.31,6.66-5.66l11.34,3.33s-.66-1.72-5.83-4.7-15.59-8.61-15.59-8.61Z"
          style="fill:#8c6239;"/>
</svg>
