<?xml version="1.0" encoding="UTF-8"?><svg id="accessories" xmlns="http://www.w3.org/2000/svg" viewBox="0 0 300 300"><defs><style>.cls-1{fill:none;}.cls-1,.cls-2,.cls-3,.cls-4,.cls-5,.cls-6{stroke-width:0px;}.cls-2{fill:#653c00;}.cls-3{fill:#a96e0d;}.cls-4{fill:#901c16;}.cls-5{fill:#fff;}.cls-6{fill:#ebebec;}</style></defs><g id="component_7"><path class="cls-3" d="m272.2,9.48c-1.34.17-1.04-.34-2.75-.12-.76.1-1.6.7-2.63.83-.82.11-1.8-.32-2.76-.2-.85.11-1.71.56-2.65.68-.86.11-1.79,0-2.72.13-.87.11-1.79.07-2.71.19s-1.74.54-2.65.67-1.78.23-2.69.36-1.81.07-2.72.19-1.77.42-2.67.55-1.8.25-2.69.38-1.83.04-2.72.17-1.75.64-2.64.76-1.85,0-2.73.12-1.81.3-2.69.43-1.77.6-2.64.73c-.93.14-1.92-.31-2.78-.17-.94.15-1.76.77-2.61.91-.96.16-1.89.1-2.71.25-1.02.18-1.85.65-2.6.81-1.42.3-2.34.36-2.6.55-.51.38-1.17,1.04-1.47,2.06-.22.73-.16,1.64-.24,2.56-.07.82.16,1.66.21,2.53s-.3,1.77-.1,2.58c.2.86.57,1.68.94,2.41.41.8,1.01,1.71,1.65,2.22,1.35.11,1.38-.25,2.73-.36s1.32-.43,2.67-.55,1.34-.22,2.68-.34,1.37.09,2.71-.03,1.33-.35,2.68-.46,1.39.35,2.73.23,1.34-.15,2.69-.27,1.36,0,2.71-.12,1.33-.32,2.68-.43,1.35-.05,2.7-.17,1.31-.51,2.66-.62,1.39.36,2.74.24,1.35-.09,2.7-.21,1.34-.25,2.69-.36,1.31-.54,2.66-.66,1.35-.07,2.7-.19,1.34-.16,2.69-.27,1.38.18,2.73.06,1.37.06,2.72-.05,1.34-.29,2.69-.41,1.35-.16,2.7-.28,1.37.02,2.71-.15c1.48-.19,1.24-.28,2.24-1.93.41-.67,1.06-1.54,1.31-2.75.17-.84-.3-1.89-.28-3.04.01-.89.08-1.86-.03-2.97-.19-1.39-.25-1.15-.9-2.57-.36-.78-.62-1.73-1.29-2.44-.61-.65-1.35-1.28-2.29-1.6-.79-.27-1.7,0-2.75.14Z"/><path class="cls-2" d="m277.85,17.73c.08.9,0,1.76-.07,2.55-.09.95-.31,1.78-.59,2.46-.41,1-.97,1.6-1.68,1.66s-1.38-.4-1.98-1.31c-.4-.61-.78-1.39-1.05-2.3-.22-.76-.43-1.6-.51-2.5s-.02-1.76.05-2.55c.09-.95.24-1.81.52-2.49.41-1,1.03-1.63,1.74-1.69s1.46.42,2.05,1.32c.4.61.67,1.45.94,2.36.22.76.48,1.59.56,2.49Z"/><path class="cls-2" d="m223.04,19.67c.09.72.27,1.71.63,2.79.28.84.69,1.71,1.24,2.57.49.77,1.04,1.56,1.81,2.21.68.58,1.51,1.07,2.46,1.47.2.08.43.1.65.07.44-.02.44-.05.88-.06,1.13-.01,1.51-1.42.54-2.01-.66-.4-1.35-.84-2-1.36s-1.17-1.11-1.71-1.71-1.05-1.24-1.41-1.94-.66-1.47-.75-2.29c-.07-.66-.63-1.17-1.29-1.1,0,0,0,0,0,0-.66.07-1.13.7-1.05,1.36Z"/><path class="cls-2" d="m232.37,18.41c.09.72.21,1.73.57,2.81.28.84.76,1.69,1.3,2.55.49.77,1.08,1.51,1.85,2.16.68.58,1.48,1.09,2.43,1.49.2.08.41.1.63.06.44-.02.44.06.89.05,1.13-.01,1.51-1.49.54-2.08-.66-.4-1.29-.92-1.94-1.44s-1.3-.97-1.84-1.57-.96-1.31-1.33-2.01-.64-1.47-.72-2.28c-.07-.66-.67-1.17-1.33-1.1,0,0,0,.05,0,.05-.66.07-1.13.65-1.05,1.31Z"/><path class="cls-2" d="m243.2,17.22c.09.72.26,1.71.62,2.79.28.84.71,1.7,1.25,2.56.49.77,1.03,1.56,1.8,2.21.68.58,1.53,1.02,2.48,1.42.2.08.41.18.63.15.44-.02.44-.05.88-.05,1.13-.01,1.53-1.48.56-2.07-.66-.4-1.36-.82-2.02-1.33s-1.18-1.1-1.72-1.7-1.08-1.22-1.44-1.93-.62-1.49-.71-2.3c-.07-.66-.64-1.18-1.3-1.11,0,0,0,.07,0,.07-.66.07-1.13.63-1.05,1.29Z"/><path class="cls-2" d="m253.23,15.73c.09.72.3,1.7.66,2.78.28.84.65,1.74,1.19,2.59.49.77,1.08,1.53,1.85,2.18.68.58,1.5,1.09,2.45,1.49.2.08.44.11.65.08.44-.02.44-.02.88-.03,1.13-.01,1.54-1.51.57-2.1-.66-.4-1.32-.87-1.98-1.38s-1.27-1-1.81-1.59-1.03-1.27-1.39-1.97-.6-1.49-.69-2.3c-.07-.66-.67-1.16-1.32-1.09,0,0,0,.02,0,.02-.66.07-1.16.68-1.07,1.34Z"/><path class="cls-6" d="m217.01,14.01c.12,1.33.37.95.5,2.63.06.75-.62,1.7-.54,2.71.06.81.46,1.68.54,2.63.07.84.51,1.7.58,2.62.07.85-.57,1.8-.49,2.71.07.86.98,1.68,1.06,2.59s.27,1.74.34,2.64-.58,1.82-.51,2.71.83,1.71.9,2.6-.53,1.83-.45,2.72,1.14,1.69,1.22,2.58-.95,1.88-.87,2.75.66,1.74.74,2.61.48,1.76.56,2.63c.09.92.15,1.8.23,2.66.09.93.08,1.83.16,2.66.1.96-.6,1.93-.51,2.74.11,1.02.59,1.77.69,2.5-.26,1.42-.61.81-1.71,2.03-.57.63-.62,2.13-1.57,2.62-.78.4-1.84.84-2.91.95-.86.09-1.77-1.07-2.83-1.26-.85-.16-2,.46-3,.06-.44-.17-1.27-.57-2.45-1.1-.7-.31-1.13-1.55-2.06-1.95-.75-.32-2.07.52-2.96.15-.78-.32-1.19-1.68-2.07-2.02-.79-.31-1.96.26-2.83-.06-.81-.3-1.34-1.46-2.21-1.76-.82-.29-1.82-.12-2.69-.41-.82-.27-1.86.06-2.73-.21s-1.34-1.64-2.22-1.9-1.72-.45-2.59-.69-1.92.33-2.8.1-1.49-1.36-2.37-1.56-1.75-.33-2.63-.52-1.95.65-2.83.48-1.69-.58-2.57-.74-1.72-.47-2.6-.61-1.7-.62-2.59-.74-1.86.6-2.76.49-1.65-1.2-2.55-1.28-1.8.18-2.7.11-1.77-.15-2.67-.2-1.8.59-2.7.56-1.75-1.32-2.65-1.33-1.79.67-2.68.68-1.79-.42-2.69-.39-1.78.18-2.68.23-1.72.85-2.62.92-1.81-.27-2.7-.18-1.75.35-2.64.46-1.86-.39-2.75-.25-1.75.38-2.63.55-1.66.79-2.54.97-1.6.95-2.47,1.16-2.05-.86-2.92-.63-1.36,1.74-2.22,2-1.93-.24-2.78.03-1.64.7-2.49,1-1.85.16-2.68.48-1.29,1.56-2.12,1.9-2.1-.36-2.92.01-1.11,1.83-1.92,2.22-1.86.24-2.66.66-1.5.97-2.29,1.4-1.58.81-2.36,1.27-1.87.36-2.63.83-1.59.85-2.34,1.35-1.16,1.39-1.9,1.9c-1.18.4-1.16.42-2.37.7s-1.21.3-2.42.58-1.1.8-2.31,1.08-1.34-.34-2.58-.15-.21-.12-.97-1.73c-.26-.55-.85-1.07-1.05-2.05-.14-.67-.26-1.42-.34-2.33-.07-.71-1.02-1.46-1.04-2.35-.02-.77,1.06-1.72,1.05-2.77-.01-.84-.38-1.76-.39-2.74,0-.87.03-1.79.02-2.75,0-.89.26-1.81.26-2.75s-.06-1.82-.06-2.75-.24-1.83-.24-2.75.14-1.84.14-2.76-.58-1.85-.58-2.76.54-1.86.55-2.75c0-.96.49-1.88.49-2.76,0-.98-.14-1.91-.14-2.76,0-1.04-.07-1.97-.07-2.75.01-1.72-.63-1.38-.59-2.76.04-1.22.6-.97,1.03-2.27.24-.71.49-1.42,1-2.11.47-.62.54-1.98,1.32-2.36.66-.32,1.75.68,2.68.68.38,0,1.28-.56,2.65-.65.75-.05,1.69.54,2.7.46.81-.06,1.69-.15,2.65-.23.83-.06,1.69-.48,2.62-.55.84-.07,1.69-.58,2.61-.66.85-.07,1.74-.05,2.65-.12.85-.07,1.76.18,2.67.1.86-.07,1.74-.11,2.65-.19s1.75-.05,2.65-.12,1.67-1.02,2.57-1.1,1.84.95,2.74.88,1.74-.29,2.63-.37,1.68-1.05,2.57-1.12,1.83.73,2.72.66,1.75-.28,2.64-.35,1.77.04,2.66-.04,1.67-1.22,2.55-1.3,1.76-.17,2.64-.25,1.82.54,2.71.47,1.81.35,2.69.27,1.71-.83,2.59-.9,1.74-.39,2.63-.46,1.73-.6,2.61-.67,1.83.62,2.72.55,1.72-.69,2.61-.77,1.85.78,2.74.7,1.78.02,2.66-.06,1.66-1.37,2.54-1.44,1.81.34,2.69.27,1.75-.36,2.63-.44,1.75-.38,2.63-.46,1.84.64,2.72.56,1.8.11,2.67.04,1.78-.12,2.65-.2,1.77-.25,2.64-.33,1.69-1.22,2.56-1.29,1.81.21,2.68.13,1.78-.19,2.65-.27,1.83.37,2.69.29,1.78-.29,2.64-.37c.91-.08,1.79-.23,2.64-.3.91-.08,1.74-.81,2.59-.88.92-.08,1.87.55,2.71.47.94-.08,1.84.1,2.67.03.96-.08,1.79-.79,2.59-.86,1.02-.09,1.97.62,2.72.55,1.71-.15,1.2-1.09,2.51-1.3,1.21-.2,1.15.78,2.55.67.74-.06,1.54-.33,2.4-.27s1.81-.41,2.56-.14c.79.29,1.48,1,2.01,1.62.47.57.4,1.44.5,2.38Z"/><path class="cls-5" d="m139.38,48.86c-.72-.59-1.69-.72-2.39-1.11-.82-.45-1.56-.8-2.34-1.02-.89-.25-1.7-.7-2.53-.7-.91,0-1.69.6-2.5.81-.88.23-1.7.39-2.43.78-.83.44-1.66.78-2.26,1.28-.85.73-1.43,1.48-1.69,1.98-.25.48-.84,1.21-1.77,1.96-.62.5-1.33,1.08-2.16,1.57-.73.43-1.64.62-2.48.97s-1.58.87-2.45,1.06-1.78.41-2.67.39-1.73-.47-2.58-.74-1.83-.29-2.59-.84c-.8-.59-1.33-1.42-2.06-1.86-.86-.51-1.67-.98-2.47-1.27-.91-.33-1.85-.14-2.74-.17s-1.75-.08-2.68.18c-.82.23-1.83.19-2.72.65-.75.39-1.56.89-2.39,1.44-.71.48-1.34,1.19-2.12,1.79-.81.62-1.68.88-2.44,1.25-.92.44-1.64,1.12-2.47,1.27-1,.18-1.99.38-2.83.25-1.02-.15-1.73-1.04-2.46-1.4-1.45-.7-1.46-.27-2.43-1.26l.32-.03c0,.82-.08,1.61-.08,2.36,0,.84-.51,1.64-.5,2.36.01.89.47,1.67.48,2.34.02.88-.06,1.68,0,2.39.09.91.09,1.72.23,2.38.2.98.35,1.8.6,2.35.75,1.62.63,1.68,1.81,1.5s1.24-.15,2.45-.42,1.24-.18,2.45-.46,1.24-.19,2.45-.47,1.18-.45,2.36-.84c.73-.51,1.58-.79,2.31-1.27s1.51-.91,2.25-1.37,1.36-1.15,2.12-1.59,1.41-1.1,2.17-1.52,1.69-.58,2.47-.99,1.44-1.06,2.23-1.44,1.71-.52,2.5-.88,1.68-.54,2.49-.88,1.48-1.04,2.29-1.36,1.75-.37,2.57-.66,1.71-.44,2.54-.71,1.56-.91,2.4-1.17,1.74-.35,2.58-.58,1.76-.21,2.61-.42,1.7-.41,2.56-.6,1.63-.81,2.49-.98,1.82.17,2.68.03,1.71-.47,2.57-.59,1.71-.52,2.58-.62,1.77.02,2.64-.06,1.76-.08,2.63-.14,1.99-.11,2.86-.15c-.77-.3-1.63-.97-2.38-1.41s-1.4-.82-2.08-1.37Z"/><path class="cls-5" d="m215.64,48.74c-.69-.67-1.5-1.06-2.15-1.59-.75-.61-1.34-1.29-2.03-1.73-.82-.53-1.68-.75-2.43-1.06-.9-.38-1.67-.72-2.49-.84-.93-.13-1.76-.05-2.61.08s-1.66.44-2.49.79-1.63.62-2.42,1.1-1.54.87-2.29,1.39-1.33,1.21-2.08,1.71-1.67.69-2.46,1.13-1.56.85-2.4,1.18c-.96.38-1.87.46-2.69.61-1.01.19-1.87.19-2.7.09-.97-.12-1.98.02-2.78-.38s-1.59-1-2.32-1.6-1.11-1.51-1.82-2.14-1.32-1.31-2.07-1.88-1.63-.88-2.48-1.32c-.82-.42-1.61-.82-2.39-.97-.88-.18-1.79-.23-2.6-.14-.86.1-1.62.63-2.39.96s-1.74.46-2.42.95c-.71.52-.93,1.57-1.48,2.16-.63.68-1.29,1.22-1.7,1.86-.35.55-1.05,1.09-1.89,1.6-.63.38-1.33.68-2.17.98.89.05,1.68.23,2.55.3s1.74.37,2.61.46,1.82-.36,2.69-.25,1.69.73,2.56.86,1.82-.17,2.68-.02,1.78.17,2.64.33,1.76.3,2.61.47,1.68.64,2.53.83,1.72.45,2.57.65,1.75.35,2.59.56,1.64.73,2.48.96,1.83.07,2.66.31,1.56.98,2.39,1.24,1.75.39,2.56.66c.86.29,1.72.5,2.53.78.86.3,1.8.3,2.6.6.86.32,1.56.97,2.35,1.27.87.34,1.81.37,2.58.68.88.36,1.69.73,2.43,1.05.92.39,1.71.81,2.39,1.12,1.16.52,1.92,1.03,2.35,1.2,1,.39,1.91.71,2.77.87,1.06.19,2.07.44,2.92.35,1.07-.11,2.08-.46,2.86-.85.95-.49,1.48-1.46,2.05-2.09,1.11-1.22,1.12-.96,1.37-2.38-.1-.77.26-1.68.14-2.76-.09-.85-.53-1.75-.63-2.76-.09-.88-.27-1.81-.37-2.78-.09-.9-.07-1.67-.16-2.63-1.11.22-1.91.07-2.58-.17-1.46-.51-1.23-.69-1.97-1.8Z"/><path class="cls-4" d="m76.86,61.77c-.23,1.31-.45,1.08-.79,2.55-.19.8-.67,1.68-.7,2.6s.46,1.78.76,2.58c.5,1.89.56,2.43.25,3.98-.11.56-.92,1.38-1.15,2.31s-.24,1.96.19,2.58c.35.51,1.18.78,2.42.73,1.07-.04,1.84-.45,2.49-.83.85-.49,1.59-1.03,2.01-1.72.57-.92.81-1.88,1.28-2.31.38-.34,1.18-.56,2.03-.93.68-.3,1.32-.82,1.99-1.11.91-.4,1.54-.87,1.79-1.21.13-.18.91-.83,2.14-1.74.62-.46,1.58-.67,2.43-1.25.68-.47,1.4-1.01,2.22-1.54.72-.46,1.29-1.25,2.1-1.75.74-.45,1.73-.56,2.54-1.02.76-.44,1.42-1.1,2.24-1.54s1.71-.59,2.53-1,1.51-.98,2.34-1.37,1.56-.92,2.39-1.28,1.71-.59,2.55-.92,1.66-.73,2.51-1.03,1.71-.58,2.58-.85,1.81-.22,2.69-.44,1.69-.59,2.58-.78c-.4-1.26-.99-.04-2.62-.15-.76-.05-1.64-.22-2.64-.21-.82,0-1.72-.05-2.65.03-.84.07-1.75.07-2.65.23-.85.14-1.72.38-2.59.61s-1.67.55-2.51.88-1.65.64-2.44,1.07-1.37,1.11-2.09,1.64c-.81.59-1.55,1.22-2.31,1.72-.84.56-1.89.71-2.66,1.17-.88.52-1.65,1.08-2.45,1.47-.93.46-1.8.85-2.63,1.14-1,.35-1.94.43-2.79.57-1.05.17-1.95.3-2.8.19-.78-.11-1.59.2-2.39.43s-1.62.38-2.35.64c-.91.32-1.72.77-2.35.59s-1.21-.82-1.39-2.01-.37-2.06-.67-2.65c-.79-1.52-1.5-1.13-1.43-.07Z"/><path class="cls-4" d="m173.14,53.86c.42,1.24.69.39,2.26.84.71.2,1.64.17,2.58.45.77.23,1.55.7,2.44.97.8.24,1.57.68,2.44.95.81.25,1.66.45,2.51.72s1.65.52,2.49.8,1.73.32,2.55.61,1.65.6,2.46.89,1.66.6,2.46.91c.84.32,1.53.95,2.31,1.27.84.35,1.64.7,2.39,1.04.86.4,1.8.48,2.49.86.89.49,1.42,1.25,1.97,1.71.79.65,1.82.9,2.52,1.44.82.64,1.6,1.16,2.32,1.65.87.6,1.61,1.14,2.38,1.55.93.49,1.75.86,2.61,1.06.95.23,1.83.27,2.79.16,1.35-.15,1.8.68,2.08,1.65.24.82.23,1.84.27,2.89s.28,2.12.65,2.9c.39.83,1.12,1.62,1.98,1.85s2.03.08,2.76-.4c.66-.44.96-1.38.98-2.48.02-.85-.27-1.77-.67-2.76-.35-.86-.64-1.82-1.08-2.68-.47-.91-.84-1.82-1.19-2.62-.51-1.16-.92-2.02-.54-2.64.3-.49.29-1.55.47-2.8.12-.86.66-1.8.67-2.8.02-.95-.23-1.93-.35-2.85-.13-1.01-.56-1.88-.89-2.68-.41-1.01-.7-2.04-1.49-2.39-1.46-.64-1.49.43-1.58,1.73-.06.85-.14,1.88-.83,2.73-.49.6-1.26,1.12-2.47,1.45-.77.21-1.72.2-2.89.22-1.01.02-1.89-.14-2.73-.31-.97-.2-1.94-.17-2.74-.55-.86-.41-1.69-.89-2.43-1.42s-1.27-1.42-1.99-2-1.65-.93-2.4-1.45-1.49-1.1-2.36-1.45c-.82-.33-1.71-.55-2.69-.63-.84-.07-1.77-.07-2.78.12-1.94.32-2.59.37-2.59,2.59-.59,1.14-.78-.53-2.27-.99-.72-.22-1.6-.34-2.52-.57-.79-.19-1.65-.34-2.53-.49-.83-.14-1.7-.17-2.56-.24s-1.73-.24-2.57-.2-1.79.07-2.59.27c-.86.22-1.36.68-2.07,1.13Z"/></g><rect class="cls-1" y="1" width="300" height="300"/></svg>