<svg xmlns="http://www.w3.org/2000/svg" viewBox="0 0 300 300">
  <path d="M33.72 44.18c-1.52-3.43-3.51-5.24-5.12-6.69-1.46-1.32-2.61-2.37-3.09-4.17-1.2-4.59.13-9.13.14-9.18l.43-1.43-1.2.88c-.47.35-.96.7-1.46 1.05-5.02 3.58-11.27 8.03-8.4 16.19 1.09 3.08-.5 5.91-2.04 8.64-1.55 2.76-3.16 5.62-1.74 8.57 1.45 3.02 8.74 5.35 13.88 5.35 1.08 0 2.07-.1 2.89-.32 2.75-.74 4.08-2.55 3.87-5.22-.1-1.2-.35-2.3-.72-3.3.75-.28 1.55-.98 2.19-1.94.74-1.11 2.25-4.17.36-8.43z" fill="#b4e0ff"/>
  <path d="M31.23 54.43c1.74.03 5.66-4.15 2.96-10.01-2.99-6.49-7.62-6.98-8.76-11.18-1.33-4.9.16-9.65.16-9.65-5.54 3.9-13.52 8.27-10.3 17.03 2.45 6.66-6.86 11.92-4.05 17.53 2.17 4.33 21.71 9.16 20.95.07-.76-9.08-8.69-11.1-11.48-9.08-1.62 1.17-3.97 5.34.02 6.79 3.78 1.38 4.27-2.08 4.27-2.08" fill="none" stroke="#8fb5cc" stroke-miterlimit="10"/>
  <path d="M254.95 22.18c-1.16-2.61-2.68-3.99-3.9-5.1-1.11-1.01-1.99-1.8-2.35-3.18-.91-3.5.1-6.96.11-6.99l.33-1.09-.92.67c-.36.26-.73.53-1.11.8-3.83 2.73-8.59 6.12-6.39 12.33.83 2.35-.38 4.5-1.56 6.58-1.18 2.1-2.41 4.28-1.33 6.53 1.11 2.3 6.66 4.08 10.58 4.08.82 0 1.58-.08 2.2-.25 2.09-.57 3.11-1.94 2.95-3.97-.07-.91-.27-1.75-.55-2.51.57-.21 1.18-.74 1.67-1.48.56-.85 1.71-3.17.28-6.42z" fill="#b4e0ff"/>
  <path d="M253.05 29.99c1.32.02 4.31-3.16 2.25-7.63-2.28-4.95-5.8-5.32-6.67-8.51-1.01-3.73.12-7.35.12-7.35-4.22 2.97-10.3 6.3-7.85 12.98 1.87 5.08-5.22 9.08-3.08 13.35 1.65 3.3 16.54 6.97 15.96.05s-6.62-8.46-8.74-6.92c-1.23.89-3.02 4.06.02 5.18 2.88 1.05 3.25-1.59 3.25-1.59" fill="none" stroke="#8fb5cc" stroke-miterlimit="10"/>
  <path d="M295.15 95.32c-1.73-3.9-3.26-6.23-5.09-7.88-1.66-1.5-2.97-2.69-3.51-4.75-1.36-5.22-.05-7.4-.03-7.45l.49-1.62-1.37 1c-.54.39-1.09.79-1.66 1.2-5.71 4.07-9.68 8.11-6.41 17.38 1.24 3.5-2.3 5.01-4.05 8.12-1.77 3.14-2.5 8.55-.88 11.91 1.65 3.43 6.41 4.77 12.26 4.77 1.23 0 4.49-.81 5.42-1.06 3.12-.85 3.71-3.31 3.46-6.34-.11-1.36-.61-4.24-1.03-5.37.85-.31 1.34-1.58 2.07-2.68.84-1.27 2.46-2.38.32-7.22z" fill="#b4e0ff"/>
  <path d="M291.85 105.37c1.53-.97 6.5-4.75 3.4-11.39-2.85-6.11-7.51-6.62-8.81-11.38-1.51-5.57-.01-8-.01-8-6.3 4.44-12.9 7.26-9.24 17.23 2.79 7.57-6.78 11.12-5.9 18.2 1.18 9.52 23.7 11.3 22.84.97s-9.88-12.62-13.05-10.33c-1.84 1.33-4.67 7.14-.13 8.8 4.29 1.57 5.02-3.45 5.02-3.45" fill="none" stroke="#8fb5cc" stroke-miterlimit="10"/>
  <path fill="#e8ebf9" d="M151.02 37.42l-6.68 5.74-6.35 6.14-6.77 5.69-6.61 5.87-6.13 6.39-6.62 5.86-6.52 5.98-6.9 5.79 9.5.21 9.34.06 9.35-.52 9.34-.33 9.35.99 9.34-.16 9.35.02 9.35-.02 9.34-.24 9.36.32 8.98-.59-5.59-6.1-6.92-5.26-5.94-6.3-6.64-5.57-5.88-6.36-6.69-5.52-6.1-6.15-6.26-5.94z"/>
  <path fill="#d1d5e0" d="M245.18 66.81l-8.46 4.21-8.31 2.87-8.37 2.78-8.81.87-8.59 1.86-8.6 2.25-8.84.27-8.82.15-8.79 1.09-8.82-.92-8.81-.22-8.76-1.2-8.82.97-8.68-1.09-8.73-.53-8.53-2.17-8.8-.27-8.5-2.08-8.31-2.82-8.41-2.18-8.37-2.39-8.14-2.63-5.09 5.1-3.72 6.7 7.91 3.58 7.91 3.72 8.47 2.23 8.5 2.02 8.57 1.74 8.57 1.77 8.53 2.29 8.68 1.51 8.9-.7 8.59 2.56 8.85-.45 7.52-.33 7.45 1.47 7.52-.95 9.11.08 9.13.02 9.15-.02 9.08-1.12 8.88-2.32 9.26-.11 8.89-2.22 8.83-2.48 8.49-3.52 7.26-4.84-2.19-6.99-3.78-7.56z"/>
  <path fill="none" d="M0 0h300v300H0z"/>
</svg>