<?xml version="1.0" encoding="UTF-8"?>
<svg id="_層_1" xmlns="http://www.w3.org/2000/svg" viewBox="0 0 300 300">
    <path d="M269.59,83.48C237.1,4.98,158.97,10.8,151,11.61c-7.97-.81-86.1-6.63-118.59,71.87C-1.66,165.79-24.84,294.19,151,289.6c175.84,4.59,152.66-123.81,118.59-206.12Zm-121.28,139.18c-56.71,2.52-105.22-11.63-88.09-81.14,17.14-69.5,87.52-67.35,87.52-67.35,38-2.27,86.52,13.91,99.24,86.07,12.73,72.16-98.68,62.42-98.68,62.42Z"
          style="fill:#b20721;"/>
    <path d="M100.28,237.25c-.52-2.55-2.3-4.73-4.77-5.55-2.05-.68-4.46-.45-6.35,2.76-4.07,6.92,4.07,42.3,19.53,42.3,0,0,7.32,3.25,2.03-8.95-4.98-11.5-7.48-15.99-10.44-30.57Z"
          style="fill:#f5792a;"/>
    <path d="M70.82,225.88c-.16-2.27-1.45-4.37-3.51-5.37-1.7-.82-3.82-.9-5.83,1.67-4.32,5.53-1.33,37.18,12.08,38.95,0,0,5.98,3.66,2.79-7.53-3-10.55-4.66-14.74-5.55-27.72Z"
          style="fill:#f5792a;"/>
    <path d="M206.23,237.25c.52-2.55,2.3-4.73,4.77-5.55,2.05-.68,4.46-.45,6.35,2.76,4.07,6.92-4.07,42.3-19.53,42.3,0,0-7.32,3.25-2.03-8.95,4.98-11.5,7.48-15.99,10.44-30.57Z"
          style="fill:#f5792a;"/>
    <path d="M235.7,225.88c.16-2.27,1.45-4.37,3.51-5.37,1.7-.82,3.82-.9,5.83,1.67,4.32,5.53,1.33,37.18-12.08,38.95,0,0-5.98,3.66-2.79-7.53,3-10.55,4.66-14.74,5.55-27.72Z"
          style="fill:#f5792a;"/>
    <path d="M142.35,267.1c-.2,.77-.31,1.53-.31,2.3,0,2.71,.36,5.41,.36,8.17,0,3.57-.82,3.57-4.09,3.57-.92,0-1.74-.05-2.6-.41-2.35-.97-1.99-8.53-2.5-10.78-.1-.36-.46-.41-.77-.41-.87,0-.77,.71-1.63,.71-1.12,0-2.14-4.8-2.14-5.72,0-4.29,7.76-8.38,7.76-12.46,0-1.23-4.03-.82-4.54-.82-2.5,0-2.14-2.3-2.14-4.14,0-1.58,.41-3.52,2.35-3.52,.56,0,1.02-.2,1.28-.66,1.69-2.91-.66-5.57,3.78-6.28,.82-.15,1.63-.2,2.45-.2,2.25,0,2.96,.26,2.96,2.66,0,.82-.15,1.58-.15,2.4,0,.92,.15,1.58,1.23,1.58,.26,0,.56-.05,.82-.05,1.53,0,1.58,2.04,1.58,3.12,0,2.66-.05,5.31-1.12,7.76-.36,.82-.92,1.69-.92,2.6,0,.82,1.99,4.44,2.81,4.44l.05-.05c.1-.36,.05-.71,.36-1.02s9.04-.41,10.06-.41h8.17c5.57,0,12.41-.82,12.41,6.79,0,3.47-.36,6.95-1.02,10.37-.56,2.81-1.79,3.98-4.7,3.98-.97,0-1.99,.2-2.96,.2-1.94,0-.51-1.33-2.14-1.33-1.89,0-3.78-.05-5.72-.05-.97,0-4.7,.15-5.36,.77-.26,.26-.41,.51-.61,.82-.46,.31-4.09,.2-4.75,.2-.92,0-1.79,.05-2.5-.66-1.17-1.12-1.07-9.29-1.07-10.93,0-.56,.1-1.63-.66-1.63-.82,0-1.28,1.28-2.09,1.28l-.41-.15c-.31-.71-.92-1.23-1.28-1.89l-.2-.15Zm23.18-22.78c-2.5,0-16.34-.05-17.67-1.38-.66-.71-.71-1.79-.71-2.71,0-3.12,4.09-3.47,6.49-3.47,1.07,0,2.2,.05,3.32,.05,3.57,0,17.62-.26,19.76,2.45,.77,.97,.87,2.09,.87,3.27,0,1.84-3.17,1.79-4.39,1.79h-7.66Zm-13.84,13.53c-3.42,0-3.22-3.83-3.22-6.28,0-3.93,1.79-5.82,5.77-5.82,1.33,0,2.6,.05,3.93,.05,3.63,0,12.31-.15,15.73,1.07,.56,.2,1.07,.46,1.43,.92,1.02,1.23,1.12,2.96,1.12,4.44v1.89c0,3.57-2.76,3.73-5.62,3.73h-19.15Zm5.82,16.49c.97,0,1.07-.66,1.07-1.48,0-.61-1.28-.82-1.74-.82-.56,0-1.12,.26-1.12,.87,0,1.07,.41,1.43,1.48,1.43h.31Zm-.51-8.89c-.46,0-1.17,.26-1.17,.82,0,.41,.1,.92,.2,1.33,.51,0,1.02,.15,1.53,.15,.92,0,1.12-.66,1.12-1.48,0-.66-.87-.82-1.38-.82h-.31Zm3.12-14.61c-.61,0-2.5,.15-2.5,1.02,0,1.33,3.63,1.33,4.6,1.33,.82,0,3.98,0,4.6-.46,.2-.15,.31-.36,.31-.61l-.05-.41c-1.28-.71-3.27-.87-4.7-.87h-2.25Zm8.43,21.81c0-.82-1.07-.82-1.69-.82-.51,0-1.17,.41-1.17,.97,0,1.12,.31,1.33,1.38,1.33s1.48-.36,1.48-1.48Zm-1.23-7.3c-.77,0-1.33,.26-1.33,1.12,0,.66,.2,1.12,.92,1.12h.87c.82,0,1.02-.66,1.02-1.33s-.51-.92-1.12-.92h-.36Z"
          style="fill:#f5792a;"/>
</svg>
