<svg id="accessories" xmlns="http://www.w3.org/2000/svg" viewBox="0 0 300 300">
    <path fill="none" stroke-width="0" d="M1.21 1.21h297.58v297.58H1.21z"/>
    <path fill="#937254" stroke-width="0" d="M222.86 86.55c.23-.42.17-.27.76-.46.26-.08.58-.15.93-.25.28-.08.56-.25.9-.35.29-.08.73.3 1.06.21.29-.08.41-.89.73-.98.3-.08.72.26 1.04.18.3-.08.63-.08.95-.16.3-.07.65.02.97-.05s.49-.7.81-.77.78.57 1.09.51.55-.47.87-.53.61-.18.93-.24.67.12.99.06.65.04.97-.02.61-.21.93-.26.51-.88.83-.92.66.07.98.02.65.06.97.02.63-.12.95-.15.68.34 1 .31.59-.55.91-.58.69.64 1.02.62.6-.54.92-.56.63-.2.95-.22.63-.32.96-.33.66.58.98.58.64-.6.96-.61.64.62.96.63.65-.33.97-.32.62.55.94.56.64 0 .96.02.69-.54 1.01-.51.63.24.94.28.61.31.93.36.71-.36 1.03-.3.57.5.88.56.64.09.95.16.67-.01.98.07.65.09.96.18.51.52.81.63.69 0 .99.11.41.68.71.81.89-.38 1.17-.23.48.5.76.65.38.63.66.79.37.58.64.76.94-.2 1.19 0 .51.41.76.62.47.46.7.68.43.49.65.73.59.52.8.77c-.05.32-.47.71-.53 1.02s-.13.63-.21.93-.4.55-.49.86.37.79.26 1.09-.17.63-.29.93-.9.32-1.03.61.33.86.19 1.15-.4.52-.56.8-.71.32-.88.6.29.95.12 1.21-.71.3-.9.56-.11.73-.31.98-.27.62-.48.87-1.11-.11-1.32.12 0 .86-.23 1.09-.77.14-1 .36-.09.83-.33 1.05-.58.31-.83.52-.54.36-.79.56-.22.76-.47.96-.9-.12-1.16.07-.47.44-.73.63-.23.8-.5.98-.65.19-.92.37-.75.02-1.02.18-.32.72-.59.88-.94-.36-1.22-.2-.28.81-.57.96-.4.62-.69.76-.77-.1-1.06.04-.46.53-.75.66-.81-.2-1.1-.07-.3.91-.59 1.04-.78-.18-1.08-.05-.43.66-.72.78-.84-.37-1.14-.25-.46.59-.76.7-.74-.15-1.04-.04-.59.27-.88.37-.55.38-.85.48-.58.3-.88.39-.7-.07-1 .03-.51.53-.81.63c-.31.1-.66.06-.96.15-.32.1-.55.44-.84.53-.32.09-.68 0-.97.09-.33.09-.73-.17-1.03-.09-.33.09-.53.56-.81.64-.35.1-.56.51-.82.59-.42.12-.72.11-.9.18-.23.09-.37-.56-.66-.91-.17-.2-.71-.19-.89-.51-.14-.25-.44-.46-.59-.77-.13-.26.1-.72-.04-1.02-.12-.27-.12-.61-.24-.91-.11-.28-.38-.51-.5-.81-.11-.29.05-.68-.06-.98s-.38-.52-.49-.83 0-.66-.1-.96-.27-.57-.37-.87-.84-.39-.94-.69-.05-.65-.15-.95.07-.68-.02-.98-.26-.58-.35-.88-.27-.58-.36-.88-.46-.52-.55-.83.19-.72.1-1.02-.32-.57-.41-.87.25-.73.16-1.03-.35-.58-.44-.89-.03-.67-.11-.98-.13-.64-.22-.96-.54-.53-.62-.84.14-.72.06-1.03-.07-.66-.15-.97-.11-.65-.19-.96-.05-.67-.13-.98c-.08-.32-.84-.46-.92-.77-.08-.33.24-.75.17-1.05-.08-.33-.14-.65-.21-.95-.08-.33-.62-.54-.69-.83-.09-.34-.08-.68-.15-.97-.09-.37.38-.82.31-1.09-.15-.6-.76-.34-.53-.76Z"/>
    <path fill="#60442d" stroke-width="0" d="M250.41 94.27c-.06-.41-.56.35-.96.46s-.58-.56-.98-.45-.34.34-.74.45c-.46.12-.32.62-.78.74s-.61-.44-1.07-.31-.48.03-.94.15-.33.59-.79.71-.5-.02-.96.1-.53-.13-.98 0-.44.18-.9.31-.33.61-.78.73-.45.15-.91.27-.4.34-.85.47-.69-.72-1.14-.6-.35.51-.81.63-.34.57-.8.69-.62-.48-1.08-.35-.35.54-.81.66-.62-.49-1.08-.36-.47.08-.93.2-.3.69-.76.81-.44.2-.9.32-.44.21-.9.34-.65-.57-1.11-.44-.96-.03-1.22.37.83.65.91 1.11.07.47.16.93-.35.55-.26 1.01-.14.51-.06.97-.05.49.03.95.95.3 1.03.76-.75.62-.66 1.08.87.31.96.78-.48.57-.4 1.04.38.41.46.88.29.43.38.9-.58 1.01-.14 1.17.53-.38.9-.69.4-.26.77-.57.11-.61.47-.92.36-.32.72-.62.73.13 1.1-.18.01-.73.38-1.03.34-.34.7-.65.58-.06.94-.36.58-.05.94-.36-.04-.78.32-1.09.21-.49.57-.79.83.25 1.2-.05.48-.17.85-.48.12-.6.49-.91.32-.36.69-.66.53-.11.9-.42-.07-.82.29-1.13.85.27 1.22-.04-.02-.77.34-1.08.58-.06.94-.37.02-.72.39-1.03.79.19 1.15-.12.54-.1.91-.41-.05-.81.31-1.11.4-.27.77-.58.14-.58.51-.89.61-.04 1.05-.24c.57-.26 1.01-.21.94-.69Z"/>
    <path fill="#937254" stroke-width="0" d="M76.29 89.7c-.23-.42-.07-.49-.66-.67-.26-.08-.68.22-1.04.12-.28-.08-.48-.54-.82-.63-.29-.08-.79.56-1.12.47-.3-.08-.44-.8-.77-.88-.3-.08-.77.51-1.1.44-.3-.07-.51-.59-.83-.66-.3-.07-.6-.21-.92-.28s-.54-.51-.86-.58-.74.45-1.06.38-.62-.14-.94-.2-.69.22-1.01.16-.54-.58-.86-.64-.66.08-.98.03-.58-.43-.9-.48-.6-.35-.92-.4-.71.52-1.04.48-.55-.74-.87-.77-.72.75-1.04.72-.58-.67-.9-.7-.66.14-.98.12-.62-.27-.94-.29-.65.12-.97.1-.64-.17-.96-.18-.65.15-.97.14-.65.56-.97.56-.64-.43-.96-.42-.65-.17-.97-.16-.65-.11-.97-.09l-.97.06c-.32.02-.65.05-.97.08s-.6.51-.91.55-.62.2-.93.25-.7-.36-1.02-.31-.67-.08-.99-.02-.48.88-.79.95-.82-.68-1.13-.61-.61.26-.91.35-.65.12-.95.22-.57.35-.87.46-.51.46-.81.58-.61.2-.9.34-.4.64-.68.78-.76-.09-1.04.07-.42.54-.69.71-.63.2-.89.38-.3.64-.56.84-.61.24-.85.45-.86.02-1.09.25-.16.74-.38.98-.32.47-.52.72c.05.32.2.53.26.85s.08.63.16.94-.14.7-.05 1.01.74.42.85.73-.2.75-.08 1.05.66.4.8.69-.16.78-.02 1.06-.07.78.09 1.06.93.19 1.1.47.39.49.57.76.19.64.38.9.28.59.48.84.1.76.3 1.01.58.35.8.59.78.14 1 .37.57.32.8.54.26.65.5.86.15.81.39 1.02.58.32.83.52.9-.11 1.15.08.09.95.35 1.14.76.04 1.02.22.54.35.8.52.48.43.75.6.66.15.93.31.36.65.64.81.73 0 1.01.15.28.84.56.99.53.39.82.53.97-.52 1.26-.38.59.24.88.37.2 1.12.49 1.25.84-.32 1.14-.19.36.82.65.94.65.13.94.25.62.18.92.3.84-.4 1.14-.29.37.88.67.99.81-.38 1.11-.28.43.74.73.84.77-.28 1.07-.18.52.5.82.59.57.35.87.44c.32.09.58.33.88.42.32.09.78-.38 1.08-.3.32.09.45.85.74.93.33.09.79-.4 1.08-.32.33.09.59.38.87.45.35.09.66.16.92.23.42.11.87-.18 1.05-.11.23.09.18.06.47-.3.16-.2.64-.24.82-.56.14-.25-.15-.74 0-1.05.12-.26.83-.29.95-.6.12-.28-.25-.76-.13-1.07.11-.28.2-.58.31-.88.1-.29.35-.53.46-.83s.28-.56.38-.87.35-.54.45-.85.42-.52.52-.83-.54-.82-.44-1.13.19-.6.28-.9.82-.41.91-.71.36-.55.45-.86-.46-.79-.37-1.09.16-.61.24-.92.18-.61.26-.91.66-.48.74-.78-.36-.75-.28-1.06.73-.48.81-.8-.14-.71-.06-1.03.48-.55.56-.87.22-.62.3-.94-.26-.74-.18-1.06.3-.6.37-.91.36-.59.44-.9-.17-.72-.09-1.03c.08-.33.28-.61.36-.92.08-.33.47-.57.54-.88.08-.33-.45-.79-.38-1.1.08-.33.63-.54.7-.84.08-.34.31-.62.38-.91.09-.37 0-.73.05-.99.14-.6.04-.49-.2-.91Z"/>
    <path fill="#60442d" stroke-width="0" d="M50.77 97.28c.03-.41.26.46.67.55s.45-.11.85-.01.53-.43.93-.33c.46.11.28.88.74.98s.6-.49 1.06-.38.39.39.85.5.5-.05.96.06.35.58.81.68.5-.06.96.05.45.15.91.26.61-.53 1.07-.42.42.29.88.39.32.69.78.8.55-.29 1.01-.18.44.21.9.32.52-.14.98-.03.32.7.78.8.66-.74 1.12-.63.4.39.86.49.37.51.83.62.49 0 .95.11.45.16.91.27.61-.52 1.07-.41.41.33.88.43.27.21.52.62.12.23.03.72.31.56.21 1.05-.02.5-.11.99-.38.43-.47.92.27.56.18 1.05-.66.38-.75.87.33.57.24 1.06-.21.47-.31.96.05.52-.04 1.01.05.86-.4 1.07c-.43.19-.66-.11-1.05-.39s.08-.92-.3-1.2-.84.35-1.22.07-.09-.68-.48-.96-.41-.25-.79-.53-.62.05-1.01-.23-.3-.4-.68-.68-.23-.5-.61-.78-.65.09-1.04-.19-.16-.58-.54-.86-.28-.42-.66-.7-.54-.07-.92-.35-.24-.48-.63-.76-.41-.24-.8-.52-.59 0-.98-.27-.2-.53-.59-.81-.55-.06-.94-.34-.02-.78-.41-1.06-.81.3-1.19.02-.06-.72-.45-1.01-.66.1-1.05-.18-.14-.62-.52-.9-.36-.31-.75-.59-.68.12-1.07-.16-.04-.76-.43-1.04-.51-.19-.95-.37c-.47-.2-.81.04-.78-.44Z"/>
    <path fill="#937254" stroke-width="0" d="M147.23 67.12c1.51-.59-.18-1.57-1.21-3.3-.47-.8-1.51-1.44-2.21-2.45-.57-.82-1.37-1.56-2.1-2.46-.65-.8-.87-2.06-1.64-2.88-.72-.76-1.78-1.25-2.6-2s-1.42-1.67-2.3-2.33-2.09-.74-3.03-1.32-1.8-1.12-2.8-1.59-1.91-.95-2.95-1.31c-1.15-.4-2.36-.42-3.42-.75-1.18-.35-2.06-1.52-3.12-1.79-1.2-.31-2.35-.55-3.42-.78-1.23-.27-2.47-.03-3.52-.23-1.28-.24-2.32-.96-3.33-1.16-1.36-.28-2.48-.36-3.35-.72-1.3-.52-2.2-.98-2.45-2.13-.19-.87.2-2 .2-3.22 0-1.03-.16-2.14-.19-3.23s-.35-2.21-.56-3.2c-.24-1.16-.69-2.11-1.41-2.82-.68-.67-1.58-1.28-2.91-1.28-1.19 0-1.38 1.03-1.69 2.19-.22.86-1.1 1.83-1.09 2.98 0 1.01.73 2.07.76 3.1.03 1.12-.13 2.21-.24 3.13-.15 1.3-.54 2.44-1.39 2.79-1.06.44-2.41.74-3.7.81s-2.51-.62-3.58-.99c-1.35-.46-2.9-.88-3.01-2.13-.06-.69.65-1.95.83-3.45.13-1.04.61-2.18.73-3.39.11-1.13-.38-2.34-.37-3.48 0-1.2-.46-2.27-.66-3.33-.24-1.24.16-2.71-.52-3.51s-2.02-.95-3.36-1.03c-1.24-.07-2.2.5-2.71 1.74-.36.89-.1 2.16-.28 3.44-.15 1.06-.07 2.23-.19 3.4s-.31 2.3-.48 3.4c-.18 1.19-.42 2.39-.77 3.39-.41 1.19-1.55 1.82-2.35 2.5s-1.66 1.55-3.02 1.44c-1.24-.1-2.42-.63-3.14-1.4-.68-.73-1.05-1.91-1.38-3.09-.27-.96-.63-2.07-.72-3.24-.08-1.03.69-2.16.69-3.3 0-1.07-.57-2.18-.52-3.29s.74-2.16.8-3.25-.66-2.24-.63-3.32c.03-1.14.18-2.23.15-3.27-.04-1.18.1-2.3-.08-3.29-.22-1.23-.41-2.43-.94-3.22-.62-.93-1.78-1-3-1.11-1.08-.1-1.91.05-2.79.77-.73.59-1.87 1.09-2.45 2.12-.47.85-.52 2.04-.89 3.12-.33.95-.71 1.95-.96 3.03-.23 1-.17 2.09-.33 3.17s-.86 2.03-.94 3.1.4 2.14.38 3.21.28 2.1.33 3.16-.06 2.12.06 3.16.47 2.08.66 3.09c.2 1.08-.19 2.26.1 3.24.31 1.07 1.29 1.83 1.71 2.74.48 1.03.59 2.17 1.21 2.93.71.89 1.55 1.59 2.46 2.02.93.44 2.1.44 3.27.76 1.01.28 2.08.5 3.25.7 1.06.18 2.16.24 3.31.37 1.08.12 2.17.38 3.31.47s2.19.45 3.32.51 2.24-.34 3.36-.31 2.23.66 3.34.68 2.25-.38 3.36-.37 2.26-.09 3.36-.08c1.15 0 2.27.57 3.35.59 1.17.02 2.3-.16 3.35-.13 1.21.04 2.34-.08 3.36 0 1.3.1 2.49-.02 3.38.18.92.21 2.05.39 3.32.65 1.02.21 2.07.76 3.25 1.02 1.05.23 2.2.31 3.34.59 1.07.26 2 1.16 3.11 1.47s2.39-.14 3.48.21 1.85 1.55 2.92 1.94 2.42.06 3.45.51 1.79 1.53 2.77 2.06 2.18.78 3.1 1.4 1.8 1.42 2.63 2.15 1.67 1.56 2.36 2.42 1.25 2.13 1.73 3.15c1.62.43 1.74-.34 3.4-.08 1.74.27 1.91.6 3.47-.01ZM153.95 66.59c-1.51-.59.47-.73 1.5-2.46.47-.8 1.18-1.63 1.88-2.63.57-.82 1.29-1.62 2.01-2.51.65-.8 1.15-1.78 1.92-2.6.72-.76 1.47-1.53 2.3-2.28s1.54-1.49 2.43-2.15 1.59-1.5 2.53-2.07 2.15-.54 3.14-1.02 1.84-1.13 2.88-1.49c1.15-.4 2.33-.52 3.4-.84 1.17-.35 2.13-1.25 3.2-1.53 1.2-.31 2.33-.66 3.39-.89 1.23-.27 2.47 0 3.52-.2 1.28-.24 2.46-.28 3.47-.48 1.36-.28 2.45-.74 3.33-1.1 1.3-.52 2.25-1.22 2.5-2.38.19-.87-.2-2.03-.19-3.25 0-1.03.45-2.13.48-3.22s-.29-2.26-.08-3.25c.24-1.16 1.09-1.85 1.81-2.55.68-.67 1.36-1.5 2.69-1.5 1.19 0 1.7.94 2 2.1.22.86.48 1.91.47 3.06 0 1.01-.36 2.07-.39 3.11-.03 1.12-.23 2.24-.13 3.16.15 1.3.78 2.56 1.62 2.92 1.06.44 2.51.01 3.8.08s2.69.56 3.76.19c1.35-.46 2.34-1.53 2.46-2.78.06-.69-.11-1.94-.3-3.44-.13-1.04-.18-2.21-.3-3.42-.11-1.13-.28-2.28-.29-3.42 0-1.2-.16-2.4.05-3.46.24-1.24.82-2.3 1.5-3.1s1.7-1.12 3.04-1.19c1.24-.07 2.03.45 2.53 1.69.36.89.11 2.11.29 3.39.15 1.06.87 2.14.99 3.31s-.14 2.33.03 3.44c.18 1.19.81 2.22 1.16 3.22.41 1.19.59 2.47 1.4 3.14s2.03.96 3.38.86c1.24-.1 2.51-.42 3.23-1.19.68-.73.83-2.02 1.16-3.2.27-.96.36-2.06.46-3.24.08-1.03.23-2.13.23-3.27 0-1.07-.4-2.16-.44-3.27s.6-2.22.54-3.31-.54-2.19-.57-3.26c-.03-1.14-.3-2.25-.26-3.29.04-1.18.62-2.24.79-3.22.22-1.23.62-2.14 1.15-2.93.62-.93 1.24-1.65 2.46-1.76 1.08-.1 1.98.33 2.85 1.05.73.59 1.68 1.21 2.27 2.25.47.85.37 2.06.74 3.14.33.95.78 1.9 1.03 2.98.23 1 .15 2.07.31 3.15s.52 2.04.6 3.11-.21 2.1-.19 3.17.78 2.13.74 3.18.07 2.17-.04 3.21-.99 2.03-1.18 3.05c-.2 1.08-.04 2.21-.32 3.19-.31 1.07-.49 2.19-.91 3.09-.48 1.03-1.32 1.83-1.94 2.6-.71.89-1.58 1.54-2.49 1.96-.93.44-2.07.51-3.24.83-1.01.28-2.09.5-3.25.7-1.06.18-2.15.33-3.3.46-1.08.12-2.15.71-3.29.8s-2.23-.21-3.37-.15-2.23-.15-3.35-.12-2.22.87-3.34.89-2.25-.26-3.36-.25-2.26.23-3.35.24c-1.15 0-2.28-.61-3.36-.59-1.17.02-2.3-.06-3.36-.03-1.21.04-2.32.46-3.34.54-1.3.1-2.38.42-3.27.62-.92.21-2.12.09-3.39.35-1.02.21-2.14.4-3.32.67-1.05.23-1.99 1.2-3.13 1.48-1.07.26-2.26.15-3.37.46s-2.14.66-3.23 1-2.08.86-3.15 1.25-2.23.52-3.26.97-1.84 1.39-2.82 1.91-2.05.95-2.97 1.56-1.85 1.29-2.68 2.02-2.05 1.2-2.74 2.07-1 2.41-1.48 3.42c-1.62.43-1.76-.12-3.44-.03s-1.68-.07-3.25-.69Z"/>
    <path d="M96.03 92.3c.76-.77 1.86-.84 2.67-1.57s1.41-1.66 2.26-2.35 1.93-1.02 2.81-1.67 1.63-1.42 2.55-2.01 1.63-1.48 2.57-2.03 1.76-1.32 2.74-1.82 2.08-.7 3.08-1.15 1.9-1.08 2.92-1.48 2.2-.29 3.24-.65 2.15-.32 3.21-.63 1.87-1.32 2.94-1.59 2.07-.71 3.14-.94 2.27.37 3.35.19 2.09-.54 3.18-.69 2.09-.81 3.19-.91 2.19.16 3.28.09 2.17.01 3.27-.02 2.16-.48 3.26-.48 2.18.6 3.26.63 2.22-.58 3.29-.52 2.12.99 3.19 1.09 2.15.3 3.22.43 2.15.3 3.21.48 2.23-.07 3.28.15 2.17.31 3.22.57 2.19.31 3.22.61 2.08.73 3.1 1.08 1.9 1.16 2.9 1.56 2.2.42 3.18.86 1.81 1.28 2.77 1.77 1.8 1.24 2.73 1.78 2.19.6 3.1 1.19 1.47 1.71 2.34 2.34 1.9 1.09 2.74 1.77 1.51 1.57 2.3 2.3 1.68 1.74 2.44 2.51c1.39.3 1.52-.13 2.94-.13s1.36-.18 2.67-.73c-.48-.98-.97-1.46-1.5-2.42s-.65-2.16-1.23-3.09-1.66-1.52-2.29-2.41-.94-2.03-1.62-2.88-1.52-1.58-2.26-2.4-1.54-1.55-2.31-2.33-1.34-1.77-2.16-2.5-1.8-1.26-2.66-1.94-2-.95-2.9-1.58-1.36-1.9-2.3-2.47-2.23-.5-3.2-1.02-1.84-1.16-2.83-1.63-2.01-.8-3.03-1.22-1.9-1.11-2.95-1.47-1.96-1.05-3.02-1.36-2.26 0-3.33-.26-2.06-.76-3.14-.98-2.21.04-3.3-.12-2.11-.6-3.21-.72-2.14-.58-3.24-.66-2.21.67-3.32.63-2.16-.79-3.27-.79-2.2.4-3.28.44-2.17.49-3.24.56-2.18.16-3.25.28-2.18.18-3.25.34-2.3-.35-3.36-.14-2.13.63-3.18.88-2.17.43-3.21.74-2.11.65-3.13 1.01-2.15.58-3.15.99-1.94 1.09-2.92 1.56-1.93 1.07-2.88 1.59-1.88 1.15-2.8 1.72-1.95 1.05-2.84 1.67-1.53 1.62-2.38 2.29-1.83 1.21-2.65 1.93-1.58 1.52-2.35 2.28-1.67 1.44-2.39 2.25-1.31 1.76-1.99 2.61-1.57 1.56-2.2 2.45-.71 2.15-1.3 3.07-1.53 1.62-2.06 2.58-1.02 2.07-1.51 3.05c1.31.55 1.47.1 2.89.05s1.35-.31 2.74-.6Z" fill="#e55c5c" stroke-width="0"/>
</svg>
