<svg xmlns="http://www.w3.org/2000/svg" viewBox="0 0 300 300">
    <path stroke-width="0" fill="#482384"
          d="M178.16 27.32c.39-3.43.36-3.5 6.49-3.19 6.13.3 16.3 4.14 20.13 8.11 3.83 3.96 3.78 3.12 7.93 6.11 1.24.89 1.1 4.64 2.17 3.55 3.61-3.65-.42-3.05 7.3-5.16 7.72-2.11 21.34.4 26.64-1.88s12.85-9.54 20.25-9.28c7.4.26 10.08.38 11.75 7.46s.47 10.21-3.71 14.39c-4.18 4.19.06-8.18-5.2-10.91-5.26-2.73-5.47-.72-6.86 2.48-1.39 3.2-1.94 4.78-4.35 4.02-2.41-.76-5.94-2.19-8.61 3.93-2.66 6.12.28 5.89-2.29 10.21-2.03 3.41-3.88 2.27-6.24 5.46-.71.96-2.98 1.78-2.18 2.67 8.11 9.14 15.43 11.09 18.39 16.45 2.96 5.35 3.42 11.85-.11 15.43-3.52 3.59-7.99 3.88-15.63-1.48-7.65-5.36-9.89-5.22-23.66-12.2-6.9-3.5-18.15-11.18-27.6-21-9.41-9.78-18.84-20.5-19.17-29.37.25-3.97 2.63-6.22 4.87-7.3.73.36-.42 2.51-.31 1.5Z"/>
    <path stroke-width="0" fill="#03032b"
          d="m216 38.64 3.78 11.49 16.33 12.08 7.66 1.01-4.51 7.29-1.64 4.22-10.93-4.3-18.77-18.04.04-9.08 2.54-2.47 5.5-2.2z"/>
    <path stroke-width="0" fill="none" d="M1.21 1.21h297.58v297.58H1.21z"/>
    <path stroke-width="0" fill="#e5c04c"
          d="m228.96 57.51-6.54-7.1-1.46-.49-9.03 6.63 2.83 6.43 6.03 4.39 8.16-9.87Zm-8.31 7.21-4.5-3.12-1.71-4.46 3.67-3.23 2.44-1.37 1.17.1 4.74 5.05-5.81 7.03Z"/>

</svg>
