<?xml version="1.0" encoding="UTF-8"?>
<svg id="_層_1" xmlns="http://www.w3.org/2000/svg" viewBox="0 0 300 300">
    <path d="M62.66,34.2s-12.48-20.74-31.73-10.8c-19.25,9.94-13.32,39.8,6.92,44.65l24.81-33.86Z" style="fill:#b10900;"/>
    <path d="M55.39,42.16c.7-2.08-.72-1.81-2.29-3.78-.83-1.03-2.11-1.9-3.3-2.9-1.1-.92-2.16-2.06-3.53-2.63s-2.84-.8-4.37-.75c-1.34,.04-2.72,.57-4.2,1.26s-2.5,1.7-3.31,2.83c-.87,1.21-1.73,2.5-1.91,4.01-.17,1.43,.33,2.92,.67,4.42s.54,2.96,1.24,4.28,1.62,2.57,2.63,3.64,2.31,2.01,3.6,2.66,2.92,1.14,4.42,1.14c1.66-1.42,1.1-1.95,2.4-3.71s1.25-1.8,2.55-3.55,1.36-1.72,2.84-3.34,1.86-1.5,2.56-3.58Z"
          style="fill:#f8c100;"/>
    <path d="M65.91,34.77c1.37-1.34,1.35-1.36,1.57-3.35,.14-1.25,.23-2.89-.35-4.02-.52-1-1.63-1.68-3.17-2.06-.89-2.18,.64-2.51-.22-4.72-.51-1.33-2.07-2.15-3.85-2.76-1.17-.4-2.45-1.16-4.43-.83-1.83-.71-1.21-.91-3.13-2.06-.98-.59-2.08-1.58-3.55-1.77-1.15-.15-2.6-.22-4.06,.13-1.13,.27-2.24,1.78-3.55,2.47-2.04-.02-1.59-1.23-3.89-1.76-1.19-.28-2.55-.69-4.01-.75-1.32-.05-2.62,.49-3.97,.82s-2.91,.09-4.07,.91c-1.03,.73-1.87,1.61-2.69,2.86-2.26,.82-2.42-.1-4.73,.85-1.39,.57-2.59,2.01-3.38,3.58-.59,1.18-.35,2.88-.06,4.87-.73,2.36-1.97,1.55-2.9,4.15-.5,1.4-.43,3.07-.34,4.87,.08,1.51,.12,3.12,1.01,4.73,.71,1.27,1.55,2.58,2.96,3.83,.39,1.94-.19,1.6-.64,3.77-.24,1.17-.91,2.43-.71,3.82,.17,1.22,.17,2.76,.95,3.96,.64,.99,1.44,1.76,2.66,2.62,.5,2.26-.48,2.19,.12,4.58,.34,1.34,1.38,2.79,2.74,3.91,1,.82,2.44,1.41,4.27,1.77,1.68,1.05,1.1,1.19,2.89,2.63,.91,.73,2.1,1.24,3.43,1.82,1.13,.5,2.27,.98,3.68,1.13,1.22,.13,2.57,.37,3.98,.08,1.57-2.2,1.08-2.5,2.23-4.95s2.01-2.15,2.81-4.74c.65-2.07-.26-3.06-2.35-4.21-.93-.52-2.25-.62-4.2-.3-1.48-1.41-.68-1.49-1.72-3.33-.59-1.04-.95-2.67-2.51-3.14-1.05-.31-2.02-.36-3.69-.09-1.17-1.63-.22-1.53-.67-3.59-.26-1.2-.97-2.04-2.14-2.98-.87-.69-1.69-1.67-3.33-1.87-.29-1.86,.9-1.08,1.69-3.14,.37-.96,1.46-2,1.31-3.51-.1-1.06-.68-2.22-1.22-3.58,2.07-1.78,2.18-.72,3.78-3.46,.72-1.23,1.79-2.1,1.75-4.43,2.68-.61,2,1.24,5.05,.49,1.37-.33,2.94-.77,4.57-2.54,2.45-.1,1.54,1.26,3.84,2.63,1.32,.79,2.93,1.19,4.59,1.44,1.54,.23,3.04,.59,4.63-.24,2.04,.81,.96,1.56,2.26,3.6,.75,1.18,1.59,2.5,2.58,3.56,1.13,1.2,2.3,1.88,3.56,2.11,2.75-1.29,2.44-1.7,4.62-3.83Z"
          style="fill:#fff;"/>
    <path d="M233.1,34.2s12.48-20.74,31.73-10.8c19.25,9.94,13.32,39.8-6.92,44.65l-24.81-33.86Z" style="fill:#b10900;"/>
    <path d="M240.22,42.22c-.7-2.08,.87-1.87,2.44-3.83,.83-1.03,1.89-2.16,3.09-3.16,1.1-.92,2.56-1.36,3.93-1.93s2.66-1.3,4.19-1.25c1.34,.04,2.73,.61,4.21,1.3s2.46,1.74,3.27,2.87c.87,1.21,1.41,2.52,1.6,4.03,.17,1.43,.38,2.96,.04,4.46s-1.25,2.69-1.96,4.01-1.36,2.68-2.36,3.75-2.28,1.98-3.56,2.64-2.9,1.29-4.4,1.28c-1.66-1.42-1.3-1.81-2.61-3.57s-1.05-1.94-2.36-3.7-1.32-1.75-2.83-3.33-1.98-1.49-2.68-3.56Z"
          style="fill:#f8c100;"/>
    <path d="M229.64,35c-1.37-1.34-.51-1.65-.73-3.64-.14-1.25-.05-2.41,.53-3.53,.52-1,.91-2.06,2.46-2.44,.89-2.18-.29-2.38,.57-4.59,.51-1.33,1.71-2.14,3.48-2.74,1.17-.4,2.42-1.25,4.4-.93,1.83-.71,1.19-.98,3.11-2.13,.98-.59,2.15-.91,3.63-1.09,1.15-.15,2.27,.11,3.72,.46,1.13,.27,2.49,.76,3.8,1.45,2.04-.02,1.64-1.02,3.94-1.55,1.19-.28,2.52-.39,3.98-.44,1.32-.05,2.68-.36,4.04-.04s2.63,.72,3.79,1.53c1.03,.73,1.69,2.38,2.51,3.63,2.26,.82,2.77-1.06,5.08-.11,1.39,.57,2.67,1.89,3.46,3.46,.59,1.18,.94,2.71,.65,4.7,.73,2.36,.77,1.94,1.7,4.55,.5,1.4,1.75,2.91,1.66,4.7-.08,1.51-.74,3.16-1.63,4.77-.71,1.27-1.94,2.46-3.35,3.71-.39,1.94,1.4,1.45,1.85,3.62,.24,1.17-.33,2.59-.52,3.99-.17,1.22-.1,2.67-.88,3.87-.64,.99-2.06,1.71-3.28,2.56-.5,2.26,1.23,2.36,.63,4.75-.34,1.34-1.65,2.39-3.01,3.51-1,.82-2.22,1.63-4.05,1.99-1.68,1.05-1.01,1.36-2.79,2.8-.91,.73-1.89,1.71-3.21,2.29-1.13,.5-2.42,1-3.82,1.15-1.22,.13-2.84,.08-4.25-.22-1.57-2.2-.93-2.62-2.08-5.07s-.88-2.52-1.69-5.1c-.65-2.07-.5-2.19,1.59-3.35,.93-.52,1.91-1.2,3.86-.88,1.48-1.41,.06-1.82,1.11-3.66,.59-1.04,1.68-2.08,3.23-2.54,1.05-.31,2.26-.36,3.93-.08,1.17-1.63-.28-1.8,.16-3.85,.26-1.2,.94-2.29,2.11-3.22,.87-.69,2.51-1.3,4.14-1.5,.29-1.86-1.49-1.18-2.28-3.23-.37-.96-1.75-2.03-1.61-3.54,.1-1.06,.88-2.08,1.43-3.45-2.07-1.78-2.7-.47-4.29-3.21-.72-1.23-1.04-3.07-1-5.4-2.68-.61-2.27,2.41-5.33,1.66-1.37-.33-2.79-1.73-4.42-3.5-2.45-.1-1.29,2.11-3.59,3.48-1.32,.79-3.18,.85-4.84,1.1-1.54,.23-3.23,.05-4.82-.79-2.04,.81-.75,2.02-2.06,4.07-.75,1.18-1.39,2.7-2.38,3.75-1.13,1.2-2.61,1.82-3.86,2.05-2.85-1.09-2.59-1.62-4.76-3.76Z"
          style="fill:#fff;"/>
    <path d="M41.91,56.92s5.46-9.74,27-16.03c21.54-6.29,16.46,4.17,16.46,4.17,0,0-4.9-28.91,18.89-29.11,0,0,12.1-.2,17.71,4.57,0,0,4.53-13.11,34.7-11.8,22.56,.98,28.47,13.71,28.47,13.71,0,0,26.27-11.92,32.76,.48,0,0,10.2,1.73,3.21,16.27,0,0,9.62-9.15,22.35,14.47s6.29,15.59,6.29,15.59L41.91,56.92Z"
          style="fill:#b10900;"/>
    <path d="M269.51,103.93s-10.89-14.29-12.32-17.15c-1.43-2.86,5.85-15.43-2.97-33.55-8.17-16.79-58.48-32.53-106.41-21.49-47.93-11.05-98.24,4.7-106.41,21.49-8.82,18.12-1.54,30.69-2.97,33.55-1.43,2.86-12.32,17.15-12.32,17.15,25.42,18.69,93.48,18.07,121.7,16.93,28.23,1.14,96.28,1.76,121.7-16.93Z"
          style="fill:#da2c00;"/>
    <g>
        <path d="M65.4,48.04c-1.82,.44-1.35,.07-3.05,1.72-.74,.72-1.89,1.4-2.69,2.62-.61,.93-1.26,2.05-1.82,3.32-.46,1.04,.16,2.56-.22,3.86-.32,1.11-.85,2.27-1.09,3.59-.56,1.78-.78,1.26-1.49,3.44-.33,1.02-.3,2.3-.65,3.66-.29,1.12-.71,2.26-.95,3.56-.21,1.18-.79,2.33-.92,3.61-.12,1.21,.33,2.44,.32,3.71s-1.07,2.51-.94,3.76,.74,2.41,1.03,3.63,.06,2.63,.53,3.79,1.1,2.32,1.76,3.4,2.44,1.22,3.29,2.18c.8,.9,.94,2.49,1.95,3.3,.93,.75,2.22,1.07,3.35,1.73,1.03,.6,1.96,1.53,3.16,2.04,1.1,.46,2.48,.33,3.73,.7,1.71,.59,1.27,.25,3.49,.84,.99,.26,1.91,1.63,3.27,1.9,1.08,.22,2.32,.32,3.62,.51,1.13,.16,2.38-.03,3.65,.08,1.15,.1,2.34,.83,3.6,.87,1.17,.04,2.4-.62,3.65-.65,1.17-.02,2.39,.08,3.63-.01s2.32-.8,3.54-.95,2.41,.02,3.63-.2,2.47,.04,3.67-.24,2.4-.43,3.58-.78,2.09-1.37,3.25-1.79,2.5-1.04,3.63-1.52c1.43,1.54,.48,1.83,1.87,3.7,.73,.98,1.46,1.89,2.95,2.53,1.1,.47,2.28,1.53,3.93,1.53,1.28,0,2.39-.71,3.43-.99,1.27-.35,2.33-.73,3.1-1.45,.89-.83,.7-1.85,.75-3.08,.05-1.01,0-1.83-.64-3.05-.47-.91-.37-2.35-1.26-3.35-.7-.79-1.55-1.57-2.55-2.4-1.11-1.47-1.4-.74-2.5-2.8-.49-.92-.15-2.52-.85-3.75-.56-.98-.87-2.25-1.56-3.39-.6-1-1.3-2.04-2-3.13-.64-1-1.31-2.06-2.03-3.12-.67-.99-2.43-1.27-3.17-2.3s-.42-2.73-1.19-3.73-1.52-1.95-2.31-2.91-2.48-1.11-3.31-2.05-1.25-2.18-2.1-3.08-1.9-1.57-2.79-2.44-1.44-2.07-2.36-2.9-2.03-1.43-2.99-2.21-2.33-.98-3.33-1.71-1.25-2.55-2.29-3.21-2.3-1.04-3.37-1.63-2.59-.34-3.71-.86-2.22-.96-3.38-1.4-2.23-1-3.42-1.33-2.19-1.5-3.4-1.73-2.5-.16-3.73-.28-2.48,.92-3.72,.92-2.32-.19-3.56-.07Z"
              style="fill:#fff;"/>
        <path d="M70.78,50.81c-1.65,.9-1.17,.93-2.18,3.02-.47,.97-.78,2.24-1.33,3.54-.46,1.08-.66,2.35-1.12,3.6-.41,1.13-.93,2.29-1.3,3.53-.35,1.18-1.06,2.31-1.34,3.55s.29,2.6,.1,3.85-.2,2.46-.26,3.71-.92,2.51-.83,3.75,.58,2.48,.85,3.7,.47,2.5,.97,3.66,1.46,2.03,2.2,3.07,1.09,2.35,2.05,3.23c.91,.83,2.32,.98,3.28,1.64s1.71,1.84,2.77,2.36,2.45,.34,3.57,.72,2.17,1.05,3.34,1.28,2.37,.19,3.56,.29,2.38,.52,3.57,.5,2.39-.28,3.58-.41,2.32-.65,3.48-.87,2.41-.2,3.55-.5,2.44-.3,3.55-.67,2.39-.59,3.47-1c1.16-.45,1.88-1.87,2.92-2.33,1.17-.52,2.24-1.01,3.24-1.51,1.21-.6,2.3-1.08,3.2-1.58,1.95-1.09,2.96,.32,3.41-1.41,.48-1.83-1.19-1.03-2.38-3.1-.54-.93-1.12-2.04-1.9-3.25-.62-.98-.52-2.57-1.29-3.69-.68-.98-1.48-1.99-2.28-3.05-.73-.97-1.54-1.97-2.37-2.97-.78-.95-2.26-1.34-3.13-2.3s-1.06-2.43-1.97-3.35-1.97-1.59-2.91-2.45-2.13-1.38-3.11-2.19-2.01-1.47-3.04-2.23-2.12-1.31-3.19-2-1.63-2.18-2.74-2.8-2.36-.96-3.52-1.49-2.35-.93-3.54-1.38-2.35-.94-3.57-1.29-2.5-.37-3.75-.63-2.38-.39-3.65-.54Z"
              style="fill:#42210b;"/>
        <path d="M78.68,52.5c-1.6,.97-.73,1.14-1.59,3.25-.41,1-1.09,2.1-1.55,3.41-.39,1.1-.29,2.46-.67,3.71-.35,1.16-1.35,2.19-1.66,3.42s-.28,2.5-.49,3.73,.07,2.53-.02,3.75-.62,2.52-.54,3.72c.09,1.29,.82,2.41,1.17,3.56,.38,1.24,.72,2.38,1.27,3.42,.59,1.14,1.26,2.12,2.02,3.04,.81,.98,1.41,2.12,2.35,2.87s2.32,.95,3.4,1.5,2,1.66,3.16,2.01,2.48,.56,3.67,.71c1.28,.16,2.55-.05,3.71-.11,1.05-.05,2.24-.54,3.64-.79,1.14-.2,2.49,.08,3.76-.23,1.18-.29,2.43-.53,3.64-.89s2.24-1.25,3.39-1.65c1.23-.43,2.41-.83,3.49-1.3,1.27-.55,2.38-1.1,3.32-1.65,1.5-.88,2.17-1.51,2.32-2.29-.27-1.89-.08-1.4-1.07-3.57-.45-.99-.68-2.32-1.35-3.6-.55-1.04-1.24-2.14-1.95-3.3-.63-1.03-1.39-2.08-2.16-3.17-.7-1.01-1.37-2.13-2.19-3.15-.77-.97-1.76-1.82-2.64-2.78s-2.04-1.52-2.98-2.41-1.41-2.23-2.42-3.04-2.13-1.42-3.2-2.14-2.21-1.26-3.35-1.88-2.18-1.37-3.37-1.87-2.61-.19-3.85-.57-2.33-.94-3.61-1.21-2.35-.38-3.65-.51Z"
              style="fill:#fff;"/>
        <path d="M85.56,53.74c-1.69,.98-1.31,.98-2.54,2.98-.6,.97-.86,2.35-1.48,3.65-.54,1.11-1.44,2.17-1.89,3.46-.42,1.2-.53,2.55-.78,3.86s-.2,2.57-.2,3.89-.1,2.6,.2,3.9,.66,2.51,1.28,3.72c.57,1.1,1.42,2.12,2.32,3.17,.8,.94,1.71,1.69,2.63,2.35,.98,.7,2.08,1.08,3.16,1.5s2.11,1.23,3.28,1.43,2.38,.25,3.57,.25,2.39-.06,3.56-.21,2.28-.75,3.42-1.01,2.39-.33,3.48-.67c1.18-.37,2.36-.66,3.39-1.06,1.23-.48,2.23-1.2,3.15-1.63,1.95-.9,2.49,.03,3.11-1.62s-.35-1.34-1.23-3.41c-.41-.96-.92-2.09-1.52-3.31-.5-1.01-.97-2.15-1.6-3.28-.57-1.02-1.51-1.87-2.19-2.93-.64-1-1.44-1.91-2.18-2.9s-1.35-1.99-2.16-2.91-1.56-1.85-2.45-2.68-1.58-1.93-2.56-2.64-2.3-.91-3.37-1.48-1.99-1.52-3.16-1.89-2.43-.21-3.66-.35-2.34-.26-3.6-.16Z"
              style="fill:#257597;"/>
        <path d="M113.79,75.53c-.27-1.76-1.04-1.13-1.79-3.2-.35-.95-.37-2.22-.95-3.43-.47-.99-1.35-1.85-2-2.94-.57-.97-.56-2.41-1.29-3.41-.67-.92-1.53-1.81-2.35-2.72-.77-.86-1.52-1.83-2.43-2.65-.85-.78-2.16-1.08-3.14-1.8-.93-.68-1.73-1.62-2.79-2.24-1-.58-2.06-1.16-3.17-1.66-1.05-.47-2.36-.37-3.52-.76-1.09-.36-2.01-1.49-3.2-1.77-1.12-.26-2.33-.43-3.55-.61-1.14-.17-2.39,.24-3.61,.16-1.15-.08-2.34-.13-3.57-.13-1.77-.31-1.35-.93-3.5-1-1.03-.03-2.26,.38-3.58,.62-1.08,.19-2.13,.8-3.32,1.29-1.03,.42-2.34,.22-3.4,.94-1.88,.52-1.54,.83-3.71,1.09-1.21,.14-2.63-.1-3.92,.19-1.4,.32-2.63,.99-3.58,1.54-1.32,.78-1.94,1.7-1.07,3.09,.57,.91,1.46,2.02,2.87,2.7,1.06,.51,2.48,.55,3.85,.94,1.2,.34,2.4,1.06,3.73,1.31s2.58,.59,3.87,.76,2.74-.77,4-.68c1.4,.1,2.69,.84,3.88,.85,1.62,0,3.07,.38,4,.23,.78-.13,1.85-.33,3.34-.06,1.02,.19,2.38-.41,3.62-.07,1.06,.29,2.13,.9,3.3,1.29,1.08,.36,2.19,.77,3.31,1.19s2.17,.87,3.26,1.33,1.96,1.37,3.01,1.86,2.02,1.24,3.02,1.77c1.08,.58,2.61,.3,3.55,.89,1.07,.68,1.65,1.94,2.46,2.62,1.06,.89,1.69,1.84,2.14,2.68,1.08,1.81,1.51,1.7,2.81,3.17s3,2.66,3.49,1c.22-.76,.2-2.26-.05-4.36Z"
              style="fill:#f8c100;"/>
        <path d="M128.34,97.35c1.21-1.5,.08-1.72,.74-3.81,.35-1.11,1.29-2.2,1.4-3.55,.1-1.26,.37-2.63,.02-3.89-.33-1.18-.98-2.43-1.92-3.45-.78-.84-2.05-1.37-3.38-1.99-.87-1.48-.39-1.39-.59-3.4-.1-1.01,.08-2.18-.24-3.38-.28-1.06-.91-1.99-1.45-3.04-.51-.99-.88-2.02-1.68-2.88-.75-.8-1.27-2.05-2.34-2.63-.94-.5-2.36,.17-3.57-.08-1.03-.22-2.39-.53-3.64-.52-1.51-1.14,.03-1.94-1.2-3.94-.56-.92-1.98-1.46-2.86-2.59-.71-.92-1.19-2.12-2.13-3.1-.83-.86-1.16-2.38-2.18-3.24-.92-.77-2.71-.5-3.8-1.24-1.01-.68-1.62-2.07-2.77-2.69-1.08-.57-2.15-1.34-3.36-1.83-1.13-.46-2.61-.04-3.87-.42-1.17-.35-2.4-.45-3.68-.7-1.2-.24-2.27-1.5-3.57-1.65-1.21-.14-2.2-.19-3.5-.24-1.46-1.12-.89-1-1.94-2.89-.54-.96-1.77-1.65-2.53-2.73-.69-.99-1.19-2.11-2.04-3.01s-1.29-2.41-2.3-3.04c-1.09-.68-2.54-.13-3.75-.21-1.14-.08-2.22-.28-3.43,.4s-2.87,1.01-3.58,1.95c-.83,1.09-1.36,2.66-1.49,3.93s.65,2.61,1.13,3.9c.43,1.14,.67,2.63,1.56,3.7,.78,.95,2.08,1.61,3.19,2.43,1,.73,2.16,1.38,3.4,1.96,1.13,.52,2.42,.63,3.74,.98,1.83,.09,1.37-.63,3.64-.66,1.05,0,2.31,.45,3.69,.56,1.13,.1,2.43-.08,3.72,.16,1.15,.21,2.1,1.55,3.33,1.9,1.14,.32,2.51,.02,3.69,.49,1.1,.44,2.13,1.16,3.24,1.75,1.05,.56,2.39,.76,3.43,1.47,.98,.68,1.83,1.64,2.78,2.47,.9,.78,1.27,2.13,2.12,3.06,.8,.88,2.24,1.38,2.99,2.4,.67,1.83-.63,2.09,.41,4.07,.53,1.02,1.48,2.2,2.52,3.19,.86,.82,2.03,1.78,3.33,2.35,1.08,.47,2.33,.57,3.77,.73,1.65,1.21,.71,1.25,1.68,3.5,.47,1.1,1,2.38,1.51,3.79,.44,1.23,1.6,2.32,1.97,3.68s-.39,2.78-.17,4.11c-.02,1.95,.27,1.78,.28,3.9,.01,1.27-.46,2.84-.14,4.05,.38,1.44,1.52,3.03,2.68,3.44,.91,.33,2.49-.11,4.09-1,.92-.51,1.87-1.49,3.06-2.53Z"
              style="fill:#fff;"/>
    </g>
    <g>
        <path d="M234.19,48.26c1.82,.44,1.09,.18,2.78,1.83,.74,.72,1.79,1.36,2.59,2.57,.61,.93,1.63,1.79,2.19,3.06,.46,1.04-.12,2.54,.26,3.84,.32,1.11,.67,2.33,.91,3.65,.56,1.78,1.58,1,2.3,3.18,.33,1.02,.05,2.41,.39,3.77,.29,1.12,1.73,2.11,1.97,3.4,.21,1.18-1.18,2.64-1.05,3.92,.12,1.21,1.51,2.38,1.52,3.64s-.85,2.45-.98,3.7-.81,2.31-1.1,3.53-.07,2.5-.54,3.66-1.29,2.04-1.96,3.12-.88,2.35-1.73,3.31c-.8,.9-1.58,1.91-2.59,2.72-.93,.75-1.83,1.74-2.96,2.39-1.03,.6-2.66,.09-3.87,.6-1.1,.46-1.99,1.57-3.24,1.95-1.71,.59-1.16,.8-3.38,1.39-.99,.26-2.16,.73-3.51,1-1.08,.22-2.45-.55-3.75-.36-1.13,.16-2.28,.65-3.55,.76-1.15,.1-2.37-.27-3.63-.22-1.17,.04-2.37,.95-3.61,.92-1.17-.02-2.41-.04-3.64-.13s-2.27-1.28-3.5-1.43-2.49,.54-3.71,.32-2.34-.56-3.54-.85-2.35-.51-3.53-.86-2.26-.82-3.42-1.24-1.88-.69-3.02-1.17c-1.43,1.54-.87,1.43-2.26,3.3-.73,.98-1.7,1.6-3.18,2.24-1.1,.47-2.21,1.4-3.86,1.4-1.28,0-2.58,.25-3.61-.04-1.27-.35-1.91-1.65-2.68-2.37-.89-.83-2.04-1.55-2.1-2.78-.05-1.01,.13-2.39,.77-3.62,.47-.91,1.2-1.97,2.1-2.97,.7-.79,1.84-1.33,2.83-2.17,1.11-1.47,.95-1,2.05-3.07,.49-.92,.65-2.25,1.35-3.47,.56-.98,.88-2.24,1.57-3.37,.6-1,1.47-1.93,2.17-3.02,.64-1,1.52-1.9,2.24-2.96,.67-.99,1.37-2.01,2.11-3.04s1.46-1.96,2.22-2.96,1.83-1.66,2.62-2.63,1.77-1.69,2.6-2.62,.83-2.56,1.69-3.46,1.97-1.52,2.86-2.39,1.83-1.65,2.75-2.48,2.02-1.42,2.98-2.2,1.67-1.88,2.66-2.6,2.09-1.33,3.13-1.99,1.79-1.87,2.87-2.46,2.68-.2,3.8-.72,1.95-1.73,3.11-2.16,2.69,.34,3.88,0,2.04-2.07,3.25-2.3,2.5-.28,3.74-.39,2.5,.35,3.75,.35,2.27,.85,3.51,.96Z"
              style="fill:#fff;"/>
        <path d="M228.99,50.59c1.65,.9,1.01,1.17,2.02,3.26,.47,.97,.78,2.24,1.33,3.54,.46,1.08,.91,2.26,1.37,3.51,.41,1.13,1.24,2.21,1.61,3.45,.35,1.18,.68,2.43,.97,3.67s.02,2.57,.2,3.81,.81,2.47,.88,3.72-.35,2.55-.44,3.8,.16,2.62-.11,3.84-1.43,2.2-1.93,3.35-.65,2.49-1.39,3.53-1.62,1.92-2.58,2.8c-.91,.83-1.92,1.51-2.88,2.18s-2.04,1.32-3.1,1.85-2.35,.59-3.47,.97-2.25,.74-3.42,.97-2.35,.25-3.54,.34-2.37,1.02-3.57,.99-2.37-.72-3.56-.85-2.34-.5-3.51-.72-2.39-.28-3.54-.58-2.52-.06-3.63-.42-2.28-.91-3.37-1.33c-1.16-.45-2.18-1.16-3.23-1.62-1.17-.52-1.98-1.62-2.98-2.11-1.21-.6-2.4-.91-3.29-1.41-1.95-1.09-2.28-.03-2.73-1.76-.48-1.83,.19-1.12,1.38-3.19,.54-.93,1.34-1.93,2.11-3.14,.62-.98,1.4-1.97,2.17-3.09,.68-.98,1.43-1.98,2.23-3.04,.73-.97,1.57-1.9,2.4-2.9,.78-.95,1.1-2.33,1.97-3.3s1.97-1.58,2.87-2.5,1.34-2.23,2.28-3.1,2.24-1.26,3.23-2.07,2.24-1.19,3.26-1.94,1.75-1.85,2.82-2.54,2.12-1.34,3.24-1.96,2.07-1.49,3.23-2.03,2.6-.29,3.79-.74,2.18-1.36,3.4-1.72,2.35-1.07,3.6-1.33,2.62-.05,3.89-.2Z"
              style="fill:#42210b;"/>
        <path d="M221.18,52.13c1.6,.97,.34,1.57,1.2,3.69,.41,1,1.12,2.08,1.58,3.39,.39,1.1,.48,2.39,.86,3.64,.35,1.16,1.04,2.27,1.34,3.5s.41,2.46,.62,3.69,.59,2.47,.68,3.69,.11,2.56,.02,3.76c-.09,1.29-.39,2.55-.74,3.69-.38,1.24-.72,2.47-1.27,3.52-.59,1.14-1.54,2.02-2.29,2.94-.81,.98-1.45,2.13-2.39,2.88s-2.09,1.49-3.17,2.04-2.46,.62-3.62,.97-2.43,.46-3.62,.61c-1.28,.16-2.5,.64-3.67,.59-1.05-.05-2.24-.73-3.64-.98-1.14-.2-2.43-.16-3.7-.47-1.18-.29-2.38-.66-3.59-1.02s-2.53-.37-3.68-.78c-1.23-.43-2.24-1.31-3.33-1.78-1.27-.55-2.3-1.26-3.24-1.81-1.5-.88-2.55-1.49-2.7-2.27,.27-1.89,.61-1.27,1.6-3.44,.45-.99,.9-2.19,1.57-3.46,.55-1.04,1.41-2,2.11-3.17,.63-1.03,1.24-2.13,2-3.22,.7-1.01,.89-2.47,1.71-3.49,.77-.97,2.13-1.49,3.02-2.45s1.5-2.05,2.44-2.94,2.17-1.32,3.18-2.13,1.93-1.59,3-2.3,1.79-1.92,2.93-2.54,2.57-.48,3.76-.98,2.24-1.14,3.48-1.52,2.44-.56,3.71-.82,2.54-.89,3.84-1.03Z"
              style="fill:#fff;"/>
        <path d="M214.02,53.85c1.69,.98,1.35,.88,2.58,2.89,.6,.97,.72,2.42,1.34,3.71,.54,1.11,1.03,2.29,1.48,3.57,.42,1.2,.73,2.42,.98,3.73s.4,2.5,.4,3.82-.17,2.5-.47,3.79-.44,2.5-1.06,3.7c-.57,1.1-.99,2.41-1.88,3.46-.8,.94-1.89,1.54-2.81,2.2-.98,.7-1.96,1.41-3.04,1.84s-2.3,.57-3.47,.76-2.34,.21-3.52,.22-2.32-.33-3.49-.48-2.4,.04-3.54-.22-2.26-.79-3.35-1.13c-1.18-.37-2.34-.66-3.37-1.06-1.23-.48-2.25-1.12-3.17-1.55-1.95-.9-2.54,.2-3.15-1.45s.12-1.4,1.01-3.47c.41-.96,1.11-2,1.71-3.23,.5-1.01,1.32-1.96,1.95-3.08,.57-1.02,1.29-1.99,1.96-3.05,.64-1,.8-2.37,1.54-3.36s1.51-1.92,2.31-2.84,1.91-1.54,2.79-2.37,1.73-1.72,2.7-2.44,1.88-1.64,2.95-2.2,2.46-.39,3.63-.76,2.25-.7,3.48-.84,2.27-.26,3.52-.17Z"
              style="fill:#257597;"/>
        <path d="M186.58,75.64c.27-1.76,.41-1.2,1.16-3.28,.35-.95,0-2.39,.58-3.6,.47-.99,1.54-1.77,2.19-2.87,.57-.97,.94-2.14,1.67-3.14,.67-.92,1.39-1.88,2.21-2.8,.77-.86,2.04-1.24,2.94-2.06,.85-.78,1.28-2.1,2.27-2.82,.93-.68,1.95-1.33,3-1.94,1-.58,1.99-1.31,3.1-1.81,1.05-.47,2.21-.84,3.37-1.23,1.09-.36,2.47,.22,3.66-.06,1.12-.26,2.19-.76,3.4-.93,1.14-.17,2.27-.52,3.5-.6,1.15-.08,2.31-.32,3.54-.32,1.77-.31,1.37-.9,3.53-.97,1.03-.03,2.29,.36,3.62,.6,1.08,.19,2.15,.82,3.35,1.31,1.03,.42,2.17,.75,3.24,1.46,1.88,.52,1.63,.59,3.8,.85,1.21,.14,2.68-.37,3.96-.07,1.4,.32,2.93,.55,3.88,1.1,1.32,.78,1.8,2.38,.93,3.77-.57,.91-1.7,1.79-3.11,2.47-1.06,.51-2.42,.7-3.78,1.08-1.2,.34-2.45,.8-3.78,1.05s-2.57,.58-3.86,.74-2.71-.53-3.97-.45c-1.4,.1-2.68,1.29-3.87,1.29-1.62,0-2.95-.76-3.88-.91-.78-.13-1.99,.26-3.48,.53-1.02,.19-2.27,.06-3.51,.4-1.06,.29-2,1.26-3.16,1.64-1.08,.36-2.21,.62-3.33,1.05s-2.13,.93-3.21,1.38-2.1,1.03-3.14,1.52-2.56,.18-3.56,.72c-1.08,.58-1.68,1.89-2.62,2.48-1.07,.68-2.05,1.27-2.86,1.95-1.06,.89-2.41,1.35-2.86,2.18-1.08,1.81-.53,2.39-1.83,3.86s-3.5,2.37-3.99,.72c-.22-.76,.66-2.19,.92-4.29Z"
              style="fill:#f8c100;"/>
        <path d="M171.45,97.23c-1.21-1.5-.7-1.45-1.36-3.54-.35-1.11-.17-2.41-.28-3.76-.1-1.26-1.33-2.67-.98-3.93,.33-1.18,1.05-2.58,1.99-3.59,.78-.84,2.07-1.28,3.4-1.9,.87-1.48,.57-1.26,.77-3.27,.1-1.01-.21-2.22,.11-3.42,.28-1.06,.62-2.18,1.16-3.23,.51-.99,1.24-1.88,2.05-2.73,.75-.8,1.39-1.94,2.45-2.51,.94-.5,2.23-.38,3.45-.64,1.03-.22,2.33-.23,3.58-.22,1.51-1.14,.4-1.55,1.63-3.56,.56-.92,.84-2.3,1.72-3.43,.71-.92,2.36-1.15,3.3-2.13,.83-.86,1.59-1.8,2.61-2.66,.92-.77,1.96-1.4,3.06-2.13,1.01-.68,2.05-1.27,3.21-1.88,1.08-.57,2.15-1.1,3.36-1.59,1.13-.46,2.16-1.2,3.41-1.57,1.17-.35,2.33-.82,3.61-1.08,1.2-.24,2.41-.64,3.71-.79,1.21-.14,2.37-.27,3.67-.31,1.46-1.12,.58-1.33,1.64-3.22,.54-.96,1.66-1.74,2.41-2.83,.69-.99,.95-2.39,1.79-3.29s1.9-1.74,2.91-2.36c1.09-.68,2.37-.72,3.58-.8,1.14-.08,2.49-.37,3.7,.31s2.04,1.89,2.76,2.83c.83,1.09,2.03,2.21,2.16,3.47s-.91,2.56-1.4,3.84c-.43,1.14-.56,2.65-1.44,3.71-.78,.95-1.9,1.82-3.01,2.63-1,.73-2.11,1.6-3.34,2.17-1.13,.52-2.59,.27-3.91,.63-1.83,.09-1.38,.17-3.65,.15-1.05,0-2.33-.65-3.7-.54-1.13,.1-2.27,.98-3.55,1.21-1.15,.21-2.41,.16-3.64,.51-1.14,.32-2.05,1.35-3.23,1.82-1.1,.44-2.76-.21-3.87,.38-1.05,.56-1.38,2.37-2.42,3.09-.98,.68-2.56,.6-3.51,1.43-.9,.78-1.67,1.78-2.52,2.71-.8,.88-1.97,1.74-2.72,2.76-.67,1.83,.54,2.01-.5,3.99-.53,1.02-1.61,1.91-2.65,2.91-.86,.82-2.06,1.2-3.36,1.77-1.08,.47-1.96,1.48-3.4,1.64-1.65,1.21-.84,1.26-1.81,3.52-.47,1.1-1.44,2.23-1.95,3.64-.44,1.23,.08,2.84-.3,4.19s-.72,2.49-.93,3.83c.02,1.95,.24,1.79,.22,3.91-.01,1.27-1.27,2.5-1.59,3.71-.38,1.44-.53,2.55-1.68,2.97-.91,.33-1.76-.1-3.36-.98-.92-.51-2.17-.81-3.36-1.85Z"
              style="fill:#fff;"/>
    </g>
    <path d="M134.69,69.35c-1.26-1.29-.38-1.53-2.1-3-.78-.66-1.63-1.52-2.66-2.42-.83-.73-1.92-1.31-2.88-2.17-.85-.76-2.04-1.24-2.96-2.1-.85-.79-1.72-1.62-2.62-2.47-.85-.81-1.31-2.06-2.19-2.92s-2.06-1.31-2.91-2.18-1.64-1.75-2.47-2.63-2.04-1.4-2.85-2.29-.96-2.38-1.74-3.29-2-1.48-2.75-2.4-.93-2.35-1.65-3.29-2.02-1.54-2.68-2.51c-.7-1.03-1.55-1.94-2.14-2.94-.64-1.08-.95-2.32-1.44-3.35-.54-1.16-1.1-2.27-1.42-3.35-.37-1.24-.26-2.51-.28-3.62-.23-1.72-.14-1.75-1.02-3.37-.54-.99-1.61-1.71-2.59-2.33-.89-.57-1.89-.84-3.22-.52-.91,.22-2.21,.27-3.35,1.12-1.03,.77-1.48,2.12-2.11,3.2s-.93,2.23-1.19,3.49-.26,2.4-.2,3.68-.49,2.61-.17,3.84,.87,2.44,1.43,3.56,1.14,2.37,1.93,3.34,1.78,1.98,2.79,2.72,2.3,1.33,3.5,1.74c1.06,.36,2.17,.66,3.18,1.58,.84,.75,2.15,1.26,2.98,2.31,.72,.91,1.14,2.17,1.87,3.24,.67,.98,1.22,2.09,1.91,3.17,.64,1.01,1.3,2.05,1.97,3.12s.8,2.39,1.48,3.44,1.43,2.02,2.13,3.04,2.18,1.47,2.92,2.45,1.18,2.22,1.98,3.13,1.71,1.8,2.59,2.63,2.12,1.28,3.1,1.99,2.03,1.26,3.12,1.79,2.14,.95,3.34,1.26,2.24,1.1,3.51,1.14c1.34,.05,2.59-.17,3.71-.1,1.38,.09,2.58,.5,3.66,.61,1.5,.14,2.75-.01,3.71,.1,2.69,.31,2.89,.87,2.05-.17-.45-.55-.72-1.92-1.92-3.21-.71-.76-2.15-1.12-3.08-2.21-.72-.85-1.45-1.8-2.28-2.87Z"
          style="fill:#e35f00;"/>
    <path d="M163.61,68.78c1.26-1.29,1.23-.64,2.96-2.11,.78-.66,2.04-1.07,3.07-1.97,.83-.73,1.2-2.13,2.16-2.99,.85-.76,1.67-1.64,2.59-2.49,.85-.79,1.81-1.52,2.71-2.37,.85-.81,1.56-1.8,2.44-2.65s2.29-1.08,3.15-1.94,1.34-2.04,2.18-2.91,1.95-1.48,2.76-2.37,1.72-1.71,2.5-2.62,.82-2.47,1.57-3.39,2.2-1.36,2.91-2.3,.78-2.43,1.45-3.4c.7-1.03,2-1.62,2.59-2.62,.64-1.08,1.38-2.09,1.87-3.13,.54-1.16,1.06-2.33,1.38-3.41,.37-1.24-.45-2.65-.43-3.76,.23-1.72,1.13-1.41,2.01-3.02,.54-.99,.91-2.27,1.89-2.89,.89-.57,2.22-1.19,3.55-.87,.91,.22,1.43,1.72,2.57,2.58,1.03,.77,2,1.36,2.63,2.43s1.07,2.17,1.33,3.43,.88,2.44,.82,3.72-.73,2.43-1.06,3.66-.63,2.43-1.18,3.56-1.38,2.08-2.16,3.05-1.81,1.63-2.82,2.37-1.83,1.78-3.04,2.18c-1.06,.36-1.87,1.22-2.88,2.13-.84,.75-1.75,1.52-2.58,2.56-.72,.91-1.35,1.95-2.08,3.03-.67,.98-1.83,1.69-2.52,2.76-.64,1.01-.9,2.31-1.57,3.37s-1.16,2.16-1.84,3.21-1.45,2-2.15,3.01-1.82,1.73-2.56,2.71-1.65,1.82-2.46,2.73-1.03,2.45-1.92,3.28-2.33,1.09-3.31,1.8-1.71,1.97-2.81,2.51-2.34,.98-3.54,1.29-2.47,.16-3.74,.2c-1.34,.05-2.58-.05-3.71,.02-1.38,.09-2.6,.27-3.68,.37-1.5,.14-2.75,0-3.71,.11-2.69,.31-3.14,.81-2.3-.23,.45-.55,1.17-1.53,2.38-2.82,.71-.76,1.77-1.47,2.7-2.55,.72-.85,1.07-2.2,1.9-3.27Z"
          style="fill:#e35f00;"/>
    <path d="M164.66,95.73s17.37-8.75,17.8-26.5-66.67-16.08-61.5,9.57,30.31,33.85,43.7,16.93Z" style="fill:#b10900;"/>
    <path d="M182,69.14c.38-1.79,.26-1.33-.35-3.48-.29-1.02-.54-2.26-1-3.54-.39-1.08-.68-2.33-1.21-3.49-.5-1.08-1.42-2.01-2.05-3.09s-1.12-2.2-1.87-3.18-2.06-1.4-2.95-2.25-1.2-2.44-2.24-3.1-2.24-1.22-3.42-1.62c-1.12-.38-2.5-.01-3.76-.14-1.16-.11-2.43-.77-3.71-.63s-2.51,.29-3.74,.43-2.53,.2-3.76,.34-2.47,.78-3.69,.95-2.4,1.01-3.62,1.22-2.51,.27-3.71,.55-2.55,.27-3.72,.67-2.51,.63-3.62,1.18-1.77,1.92-2.77,2.66-2.43,1-3.28,1.94-1.26,2.15-1.93,3.27c-.62,1.03-.74,2.3-1.22,3.53-.44,1.11-1.83,1.97-2.15,3.26-.29,1.16-.37,2.52-.55,3.83,.08,1.74,.73,1.29,1.74,3.13,.49,.88,.97,1.97,1.82,2.96,.7,.81,1.61,1.54,2.6,2.32,.86,.67,1.89,1.16,3,1.72,.97,.49,1.81,1.6,3,1.96,1.04,.32,2.39-.35,3.61-.17,1.08,.16,2.16,1.07,3.4,1.1,1.1,.03,2.25-.57,3.48-.66,1.1-.08,2.21-.43,3.42-.62,1.33-.21,2.67,.15,3.87,0,1.34-.18,2.63-.08,3.83-.21,1.36-.14,2.58-.71,3.77-.81,1.37-.11,2.65-.1,3.83-.18,1.39-.1,2.71,.43,3.87,.33,1.39-.12,2.62-.69,3.78-.91,1.32-.25,2.68-.35,3.81-.86s1.67-1.95,2.72-2.84c.88-.74,2.2-1.17,3.11-2.27,.73-.89,.87-2.14,1.67-3.3Z"
          style="fill:#f8c100;"/>
    <path d="M170.63,78.02c.47-1.7,.47-1.64,.56-3.46,.06-1.16-.1-2.4-.7-3.38-.54-.87-1.47-1.19-2.95-1.37-.95-.12-1.89-.66-2.92-.71-.96-.05-1.97,.37-2.99,.37-.97,0-1.95-.1-2.97-.08s-1.98-.41-3-.38-1.97,.21-2.98,.24-1.98-.16-2.99-.14-1.97,.11-2.98,.12-1.94,.5-2.9,.51-1.96-.12-2.91-.08c-1,.05-1.99-.12-2.92,0-1.01,.12-1.9,.63-2.78,.87-1,.27-1.78,.71-2.55,1.19-.84,.52-1.72,.9-2.21,1.75-.44,.76-.76,1.68-.86,2.76-.08,.93,.39,1.9,.74,3.02,.29,.92,.25,2.09,.8,3.08,.48,.88,1.08,1.79,1.73,2.67,.61,.82,1.75,1.24,2.47,2.04s1.19,1.74,1.98,2.45,1.57,1.4,2.42,2.02,1.61,1.44,2.51,1.95,2.13,.47,3.08,.84c1.01,.39,1.96,.72,2.97,.89,1.07,.18,2.11,.71,3.13,.59s2.08-.39,3.07-.63,2.05-.52,3-.89,2-.72,2.9-1.22,1.67-1.3,2.49-1.92,1.26-1.67,1.98-2.41,1.82-1.16,2.42-2,.96-1.84,1.42-2.78,.69-1.92,1-2.93,.77-1.91,.94-2.95Z"
          style="fill:#fff;"/>
    <path d="M146.62,109.5c0,1.34,.1,2.66-.23,3.89s-.71,2.59-1.36,3.71-1.67,2.06-2.59,2.98-2,1.66-3.14,2.32-2.33,1.1-3.61,1.44-2.5,.74-3.84,.74-2.58-.51-3.82-.84-2.57-.59-3.69-1.23-2.27-1.38-3.2-2.3-1.54-2.12-2.2-3.26-1.08-2.33-1.43-3.61-.88-2.5-.88-3.84,.55-2.61,.88-3.84,.75-2.51,1.39-3.63,1.42-2.2,2.34-3.13,1.91-1.82,3.05-2.48,2.32-1.31,3.6-1.66,2.61-.05,3.95-.05,2.7-.23,3.94,.1,2.51,.94,3.63,1.59,1.96,1.73,2.88,2.65,1.87,1.82,2.52,2.96,1.42,2.26,1.76,3.54,.04,2.61,.04,3.95Z"
          style="fill:#fff;"/>
    <path d="M130.53,47.74c0,.92,.05,1.84-.18,2.69s-.61,1.73-1.05,2.5-.99,1.54-1.62,2.17-1.38,1.19-2.16,1.64-1.61,.87-2.49,1.1-1.79,.11-2.71,.11-1.78-.19-2.62-.42-1.68-.56-2.45-1.01-1.48-.97-2.11-1.6-1.3-1.25-1.75-2.02-.65-1.65-.89-2.53-.29-1.71-.29-2.63,.15-1.76,.38-2.61,.37-1.78,.81-2.54,1-1.51,1.63-2.14,1.29-1.31,2.07-1.76,1.66-.75,2.53-.99,1.77-.18,2.69-.18,1.76,.26,2.61,.49,1.83,.27,2.6,.71,1.3,1.25,1.93,1.88,1.44,1.15,1.89,1.93,.45,1.73,.69,2.61,.5,1.68,.5,2.6Z"
          style="fill:#fff;"/>
    <path d="M185.28,109.5c0,1.34-.56,2.58-.89,3.81s-.49,2.62-1.14,3.74-1.38,2.31-2.3,3.23-2.3,1.29-3.43,1.95-2.2,1.38-3.48,1.72-2.53,.74-3.87,.74-2.68-.25-3.92-.58-2.41-1.07-3.53-1.72-2.36-1.25-3.28-2.17-1.6-2.09-2.26-3.23-1.05-2.36-1.39-3.64-.61-2.51-.61-3.85,.28-2.61,.61-3.85,.54-2.64,1.19-3.76,1.49-2.24,2.41-3.16,2.06-1.68,3.2-2.34,2.43-.96,3.71-1.3,2.52-.78,3.86-.78,2.69,.19,3.93,.52,2.48,.97,3.6,1.62,1.96,1.7,2.89,2.62,1.86,1.81,2.51,2.95,1.45,2.24,1.79,3.52,.4,2.6,.4,3.94Z"
          style="fill:#fff;"/>
    <path d="M146.32,105.98c0,1.34-.3,2.67-.69,3.88s-1.03,2.45-1.79,3.49-1.76,1.94-2.82,2.71-2.26,1.22-3.52,1.63-2.46,.72-3.8,.72-2.6-.3-3.81-.69-2.37-1.03-3.41-1.79-1.97-1.65-2.74-2.7-1.37-2.17-1.78-3.42-.61-2.47-.61-3.82,0-2.67,.4-3.89,1.31-2.26,2.07-3.3,1.58-2.04,2.63-2.81,2.15-1.46,3.41-1.87,2.51-.64,3.85-.64,2.69,.1,3.9,.49,2.45,1.06,3.5,1.82,2.09,1.68,2.85,2.74,1.2,2.34,1.61,3.6,.76,2.51,.76,3.85Z"
          style="fill:#f8c100;"/>
    <path d="M181.64,105.98c0,1.34-.34,2.64-.73,3.85s-1.02,2.42-1.78,3.46-1.6,2.11-2.66,2.88-2.32,1.19-3.57,1.59-2.49,.57-3.83,.57-2.63-.13-3.84-.52-2.48-.93-3.52-1.69-1.83-1.84-2.6-2.9-1.27-2.2-1.68-3.46-.65-2.44-.65-3.78,.26-2.57,.65-3.79,.8-2.5,1.56-3.54,1.6-2.14,2.65-2.91,2.33-1.21,3.59-1.62,2.51-.71,3.85-.71,2.59,.49,3.8,.89,2.46,.87,3.51,1.63,1.99,1.69,2.75,2.74,1.47,2.17,1.87,3.43,.64,2.54,.64,3.88Z"
          style="fill:#f8c100;"/>
    <path d="M175.87,33.22s-2.91-11.09-21.58-10.01c-18.67,1.07-21.41,2.86-24.69,12.16,0,0-1.14,5.84,5.12,5.51,6.26-.33,18.06-1.46,23.96-1.16,5.9,.3,20.12,1.71,17.19-6.5Z"
          style="fill:#e35f00;"/>
    <path d="M191.89,30.63c0,.92-.28,1.8-.51,2.65s-.65,1.66-1.09,2.43-.88,1.57-1.52,2.2-1.41,1.1-2.18,1.55-1.53,.98-2.4,1.21-1.77,.29-2.69,.29-1.79-.28-2.63-.51-1.65-.63-2.42-1.08-1.47-.96-2.1-1.6-1.18-1.3-1.63-2.08-.98-1.51-1.22-2.39-.09-1.76-.09-2.68,.02-1.79,.25-2.63,.68-1.63,1.12-2.39,.81-1.61,1.44-2.24,1.34-1.21,2.11-1.66,1.65-.66,2.52-.89,1.71-.51,2.63-.51,1.82,.13,2.67,.36,1.72,.6,2.48,1.04,1.44,1.07,2.07,1.7,1.24,1.3,1.69,2.08,.62,1.65,.86,2.53,.62,1.7,.62,2.62Z"
          style="fill:#fff;"/>
    <path d="M292.9,117.67c-1.07-9.3-10.37-8.18-10.37-8.18-5.01-13.55-19.1-5.14-19.1-5.14-11.95-11.53-26.07,0-26.07,0-12.01-8.46-15.99,4.69-15.99,4.69-10.73-16.14-24.32,.45-24.32,.45-8.7-2.34-8.6,7.11-8.6,7.11-9.19-7.15-16.05,.48-16.05,.48-9.67-9.33-18.31-6.49-21.99-4.51-3.68-1.98-12.32-4.82-21.99,4.51,0,0-6.86-7.63-16.05-.48,0,0,.11-9.45-8.6-7.11,0,0-13.59-16.59-24.32-.45,0,0-3.98-13.15-15.99-4.69,0,0-14.12-11.53-26.07,0,0,0-14.1-8.41-19.1,5.14,0,0-9.3-1.12-10.37,8.18-1.07,9.3,6.29,13.95,14.77,12.52,0,0-2.89,14.66,20.32,10.73,0,0,16.77,12.07,35.37,.67,0,0,22.34,14.11,41.69,.76,0,0,6.95,10.97,20.3,3.34,0,0,4.92,5.41,10.04,3.68,5.12,1.73,10.04-3.68,10.04-3.68,13.35,7.63,20.3-3.34,20.3-3.34,19.35,13.35,41.69-.76,41.69-.76,18.6,11.4,35.37-.67,35.37-.67,23.21,3.93,20.32-10.73,20.32-10.73,8.48,1.43,15.84-3.22,14.77-12.52Z"
          style="fill:#fff;"/>
    <path d="M44.4,91.19c.33-2.22,.59-1.94-.31-4.45-.43-1.2-1.39-2.43-2.45-3.78-.82-1.05-1.91-2.03-3.26-3.03-1.09-.8-2.36-1.51-3.87-2.2s-2.81-1.22-4.1-1.48c-1.62-.33-3.04-.33-4.33-.13-1.61,.25-3.08,.61-4.11,1.48-1.16,.98-1.64,2.44-1.94,3.87s-.24,2.78,.35,4.24c.44,1.09,1.24,2.03,2.15,3.04,.81,.9,1.63,1.85,2.67,2.65s1.98,1.59,3.08,2.22,2.28,1.21,3.42,1.68c1.25,.52,2.46,1.04,3.58,1.31,1.48,.36,2.87,.48,3.84,.31,1.59-.28,2.56-1.38,3.38-2.25,1.51-1.6,1.57-1.44,1.88-3.47Z"
          style="fill:#fff;"/>
    <path d="M254.66,93.59c-.33-2.22-.16-1.92,.74-4.43,.43-1.2,1.13-2.56,2.19-3.91,.82-1.05,1.86-2.15,3.21-3.14,1.09-.8,2.47-1.38,3.97-2.07s2.77-1.48,4.06-1.74c1.62-.33,3.13-.18,4.42,.02,1.61,.25,2.95,.91,3.97,1.78,1.16,.98,1.74,2.31,2.04,3.74s.17,2.75-.42,4.2c-.44,1.09-.84,2.35-1.75,3.36-.81,.9-1.85,1.7-2.89,2.49s-2.02,1.56-3.13,2.18-2.35,1.09-3.48,1.56c-1.25,.52-2.46,1.03-3.58,1.3-1.48,.36-2.79,.12-3.76-.04-1.59-.28-2.74-.89-3.56-1.76-1.51-1.6-1.72-1.5-2.02-3.53Z"
          style="fill:#fff;"/>
</svg>
