<?xml version="1.0" encoding="UTF-8"?><svg id="accessories" xmlns="http://www.w3.org/2000/svg" viewBox="0 0 300 300"><path d="m57.68,100.29c-2.66-1-1.06-2.07-2.37-5.32-.61-1.51-1.08-3.39-1.84-5.38-.63-1.65-1.11-3.5-1.79-5.39-.62-1.72-1.36-3.47-1.98-5.32s-1.35-3.52-1.91-5.35-.69-3.75-1.18-5.57-1.2-3.64-1.6-5.46c-.42-1.91-.54-3.82-.81-5.62-.3-1.98-.71-3.85-.78-5.62-.08-2.09-.16-4.03.16-5.69.41-2.15,1.41-3.79,2.65-4.93s2.84-1.93,4.9-2.4c1.63-.38,3.47-.72,5.49-.77,1.74-.05,3.58.43,5.52.58,1.78.14,3.63.17,5.51.45s3.68.28,5.51.65,3.54,1.14,5.33,1.57,3.71.58,5.45,1.07c1.85.52,3.58,1.22,5.26,1.76,1.89.61,3.7,1.1,5.28,1.69,2.04.77,3.67,1.7,4.98,2.35-1.63.72-3.18,1.55-4.74,2.42s-3.24,1.55-4.72,2.55-2.79,2.24-4.2,3.34-2.93,2.08-4.25,3.28-2.62,2.46-3.85,3.74-2.26,2.79-3.42,4.14-2.27,2.78-3.34,4.18-2.28,2.8-3.26,4.26-1.81,3.13-2.69,4.64c-.92,1.59-1.64,3.23-2.39,4.78-.81,1.67-1.81,3.19-2.42,4.78-.68,1.76-1.29,3.47-1.71,5.09-.49,1.88-.67,3.89-.79,5.5Z" style="fill:#0c0f21; stroke-width:0px;"/><path d="m243,93.85c2.72-.4.94-1.81,2.33-4.9.65-1.45,1.2-3.24,1.99-5.14.67-1.59,1.56-3.22,2.27-5.02.64-1.66,1.54-3.3,2.17-5.08s.74-3.62,1.29-5.38,1.35-3.46,1.8-5.22.69-3.68.99-5.43c.33-1.91.63-3.74.71-5.46.09-2.01.04-3.87-.3-5.49-.43-2-1.43-3.46-2.7-4.62-1.16-1.06-2.84-1.75-5.12-2.13-1.68-.28-3.58-.55-5.69-.51-1.8.03-3.7.33-5.7.57-1.84.22-3.76.34-5.69.71s-3.75.7-5.62,1.18-3.64,1.22-5.45,1.8-3.77.95-5.51,1.64c-1.85.73-3.49,1.79-5.12,2.61-1.83.92-3.61,1.76-5.07,2.75,1.59.66,3.16,1.62,4.79,2.54,1.51.86,3.12,1.66,4.64,2.72,1.44,1,2.74,2.26,4.16,3.42s2.99,2,4.32,3.25,2.63,2.45,3.87,3.78,2.26,2.81,3.41,4.2,2.12,2.91,3.17,4.36,2.16,2.88,3.12,4.39,2.02,3.01,2.86,4.58,1.33,3.38,2.03,5,1.54,3.19,2.07,4.87Z" style="fill:#0c0f21; stroke-width:0px;"/><path d="m89.18,53.5c-1.13-.23-2.41-.3-3.54-.49s-2.29-.33-3.41-.48-2.29-.41-3.41-.51c-1.18-.1-2.32-.27-3.44-.31-1.19-.04-2.35.03-3.45.08-1.21.06-2.34.26-3.41.44-1.22.2-2.4.29-3.39.67-1.17.44-2.11,1.14-2.89,1.86-.78.72-1.48,1.61-1.92,2.75-.37.96-.52,2.09-.68,3.3-.13,1.04-.11,2.16-.1,3.35,0,1.07-.07,2.19.04,3.36.1,1.08.27,2.19.44,3.33.16,1.08.42,2.17.64,3.3s.23,2.23.48,3.34.6,2.15.88,3.25.62,2.03.92,3.12c.5-.99,1.07-1.82,1.63-2.82s.95-2.03,1.55-3,1.26-1.85,1.89-2.79,1.21-1.89,1.87-2.81,1.44-1.73,2.14-2.62,1.38-1.77,2.11-2.63,1.58-1.59,2.35-2.43,1.45-1.72,2.25-2.52,1.69-1.48,2.52-2.25,1.66-1.51,2.52-2.24,1.65-1.54,2.54-2.23,1.93-1.39,2.85-2.03Z" style="fill:#ffb8b3; stroke-width:0px;"/><path d="m239.45,85.27c.37-1.04.72-2.03,1.07-3.09s.71-2.1,1.03-3.16.45-2.18.74-3.25.59-2.15.83-3.22.56-2.17.75-3.24c.2-1.13.25-2.24.37-3.3.12-1.15.3-2.25.32-3.31.01-1.17,0-2.29-.14-3.32-.16-1.18-.57-2.21-.96-3.16-.45-1.08-.9-2.1-1.7-2.83-.75-.69-1.88-1.06-3.13-1.46-1-.31-2.11-.66-3.37-.8-1.08-.12-2.24-.28-3.46-.29-1.11,0-2.27.14-3.47.22-1.12.07-2.29.05-3.47.19s-2.24.55-3.4.75-2.25.44-3.4.68-2.29.36-3.42.63-2.34.55-3.45.87c.98.61,2.05,1.29,3.03,1.98s1.96,1.29,2.91,2.03,1.69,1.64,2.59,2.42,1.86,1.44,2.72,2.26,1.61,1.72,2.44,2.57,1.71,1.62,2.51,2.5,1.63,1.71,2.39,2.62,1.38,1.92,2.1,2.86,1.45,1.87,2.12,2.83,1.4,1.91,2.03,2.9,1.05,2.13,1.63,3.15,1.28,1.94,1.81,2.99Z" style="fill:#ffb8b3; stroke-width:0px;"/></svg>