<?xml version="1.0" encoding="UTF-8"?>
<svg width="115.92px" height="25.4109188px" viewBox="0 0 115.92 25.4109188" version="1.1" xmlns="http://www.w3.org/2000/svg" xmlns:xlink="http://www.w3.org/1999/xlink">
    <title>avatar_download</title>
    <g id="視覺" stroke="none" stroke-width="1" fill="none" fill-rule="evenodd">
        <g id="avatar_download" transform="translate(0, 0)" fill="#FBFAF9" fill-rule="nonzero">
            <path d="M24.08,24.1789188 L24.444,24.1789188 L25.116,23.3109188 C24.92,22.6389188 24.556,21.9389188 24.08,21.2669188 C23.604,20.6509188 23.044,20.3709188 22.4,20.3709188 C21.644,20.3709188 21,20.2869188 20.328,20.1749188 L20.048,20.1749188 C20.244,20.7349188 20.608,21.3789188 21.084,21.8829188 C21.56,22.1909188 22.12,22.6109188 22.596,23.0589188 C23.044,23.5629188 23.52,23.8709188 24.08,24.1789188 Z M2.072,24.1509188 C3.108,23.7309188 3.948,23.4229188 4.956,23.1429188 C5.992,22.8909188 7.112,22.7789188 8.232,22.6669188 C9.38,22.6669188 10.388,22.4709188 11.424,22.0509188 L12.096,20.7909188 L11.984,20.3989188 C11.62,20.1189188 11.228,20.0069188 10.78,19.9229188 C10.304,19.7829188 9.94,19.7829188 9.464,19.6709188 L9.464,19.1389188 L10.5,17.8229188 L11.06,16.7869188 L10.864,15.7229188 L10.024,15.3309188 L9.548,15.4429188 L7.868,15.1069188 L7.392,15.1629188 C7.672,15.3589188 7.784,15.8349188 7.868,16.3949188 C7.868,16.8989188 7.868,17.4589188 7.784,18.0189188 C7.672,18.5509188 7.392,19.1109188 7.112,19.5589188 C6.468,20.1189188 5.628,20.4549188 4.788,20.5669188 C3.948,20.6789188 3.276,20.9029188 2.436,21.2109188 C1.596,21.5189188 0.868,21.7149188 -1.8189894e-12,21.8269188 L-1.8189894e-12,22.1069188 C0.28,22.5269188 0.56,22.9189188 0.952,23.2549188 C1.232,23.6469188 1.596,23.9549188 2.072,24.1509188 Z M13.832,24.2069188 C14.364,23.8989188 14.756,23.6749188 15.764,23.2829188 C16.24,23.3109188 16.744,22.9749188 17.08,22.8629188 C17.444,22.6949188 17.808,22.4709188 18.144,22.2469188 L18.34,21.5189188 L17.976,20.7629188 C17.36,20.2029188 16.688,19.9789188 15.848,20.0629188 L13.86,20.3989188 L12.712,22.0509188 L12.852,23.1989188 L13.832,24.2069188 Z M4.956,19.6709188 L5.628,19.5029188 C6.076,18.7749188 6.272,18.0749188 6.272,17.1229188 L6.272,16.4229188 C5.908,15.9469188 5.432,15.7509188 4.788,15.8349188 C4.116,15.9749188 3.472,15.8349188 2.996,15.5269188 L2.632,15.6109188 L2.996,16.0309188 L4.116,18.6629188 L4.956,19.6709188 Z M13.636,18.8029188 C14.308,18.6909188 15.036,18.5789188 15.792,18.4669188 C16.548,18.3829188 19.46,18.0749188 20.188,17.9909188 C20.944,17.8789188 21.588,17.9909188 22.26,18.2989188 C23.38,18.0189188 23.912,17.2909188 23.912,17.2909188 C23.912,17.2909188 24.08,15.8629188 24.192,15.1629188 C24.444,14.2949188 24.5,13.3709188 24.584,12.7549188 C24.584,12.1389188 24.584,11.4949188 24.584,10.8509188 C24.5,10.2069188 24.5,9.56291878 24.416,8.94691878 C24.304,8.27491878 24.22,7.77091878 23.94,7.29491878 C23.1,6.56691878 22.26,6.14691878 21.224,6.14691878 C20.188,6.14691878 19.068,6.14691878 18.032,6.14691878 C17.024,6.14691878 16.1,5.89491878 16.1,5.89491878 C16.828,4.85891878 18.2,3.40291878 18.76,3.20691878 C19.488,3.03891878 20.384,2.98291878 20.86,2.89891878 C21.336,2.75891878 21.98,2.70291878 22.232,2.22691878 L22.12,1.47091878 L20.412,1.35891878 L13.44,1.33091878 L12.236,1.44291878 L12.516,2.22691878 C12.796,2.61891878 12.88,3.17891878 13.244,3.40291878 C13.636,3.59891878 14.896,3.62691878 14.896,3.62691878 C14.588,4.29891878 14.056,4.85891878 13.244,6.17491878 L13.384,7.82691878 C13.384,8.52691878 13.44,10.9349188 13.356,11.5229188 C13.272,12.1389188 13.272,12.7549188 13.16,13.2869188 C13.16,13.2869188 12.964,18.2429188 13.636,18.8029188 Z M20.58,16.0589188 L16.072,16.5349188 L16.156,15.8629188 L19.824,14.9949188 L20.664,14.9949188 L20.58,16.0589188 Z M3.724,13.5109188 C4.564,13.3709188 5.404,13.3709188 6.244,13.2869188 C7.084,13.2869188 7.84,13.1749188 8.68,13.0629188 C9.52,12.9789188 10.164,12.6709188 10.724,12.1109188 L10.444,11.4109188 C10.584,11.2149188 10.556,10.3749188 10.836,9.92691878 C11.116,9.61891878 11.396,9.17091878 11.48,8.80691878 L11.312,7.77091878 C10.724,7.37891878 10.164,7.07091878 9.604,6.98691878 C8.96,6.87491878 8.288,6.76291878 7.644,6.67891878 L6.888,6.76291878 C6.44,6.76291878 6.048,6.76291878 5.572,6.67891878 C5.124,6.67891878 4.648,6.56691878 2.408,6.34291878 L2.128,6.42691878 C2.128,7.09891878 2.128,8.10691878 2.128,9.03091878 C2.128,9.89891878 2.128,10.7109188 2.128,11.4949188 C2.128,12.2229188 2.296,12.9229188 2.772,13.3709188 L3.724,13.5109188 Z M20.86,13.3429188 L15.988,13.3989188 L15.876,13.0069188 L15.96,11.9989188 C16.408,11.3829188 16.912,11.5789188 17.472,11.4949188 L20.58,11.5229188 L21.056,12.6989188 L20.86,13.3429188 Z M8.12,11.2429188 C7.448,11.4949188 6.804,11.6069188 6.16,11.6069188 C5.488,11.7189188 4.844,11.6069188 4.368,11.2149188 C4.452,10.6269188 4.396,10.4309188 4.508,9.89891878 C4.508,9.33891878 4.676,8.89091878 4.956,8.49891878 L7.784,8.83491878 L8.344,9.56291878 L8.12,11.2429188 Z M20.216,9.39491878 C18.984,9.56291878 18.424,9.56291878 17.948,9.56291878 C17.472,9.67491878 17.024,9.56291878 16.548,9.28291878 L16.744,8.49891878 L17.584,8.05091878 L20.216,8.30291878 L20.3,8.75091878 L20.216,9.39491878 Z M4.312,5.58691878 C4.984,5.36291878 5.544,5.13891878 6.216,5.05491878 C6.86,4.97091878 7.42,4.74691878 8.064,4.52291878 C8.652,4.41091878 9.212,4.10291878 9.772,3.85091878 L9.604,3.03891878 L7.924,2.73091878 L4.004,2.84291878 L2.688,2.73091878 L2.212,2.98291878 L2.8,4.83091878 L4.312,5.58691878 Z" id="Shape"></path>
            <path d="M31.8173333,23.4229188 L32.0973333,23.4229188 C32.6573333,22.9469188 33.2173333,22.4989188 33.8613333,22.0229188 C34.4213333,21.5469188 34.9813333,21.0989188 35.6533333,20.6229188 C35.7373333,20.0629188 35.6533333,19.5869188 35.4573333,19.1109188 C34.9813333,19.0269188 34.6173333,18.8309188 34.1413333,18.7469188 C33.6933333,18.6629188 33.2173333,18.5509188 32.7413333,18.4669188 C32.1813333,18.3829188 31.7053333,18.5509188 31.2573333,18.8309188 L30.6973333,20.5389188 C30.7813333,20.9869188 30.8653333,21.5469188 30.9773333,22.0229188 C31.0613333,22.5829188 31.3413333,23.0589188 31.8173333,23.4229188 Z M44.1093333,22.9469188 C44.7533333,22.6669188 50.1013333,22.2749188 50.7453333,22.0789188 C51.2213333,21.9949188 52.0333333,21.8269188 52.3133333,22.0229188 L53.6293333,21.8269188 C53.9933333,21.3789188 54.2733333,20.9029188 54.4693333,20.3429188 C54.5533333,19.7829188 54.7493333,19.2229188 54.8613333,18.6629188 C55.0293333,15.5549188 55.1413333,15.1909188 55.3093333,14.7149188 L55.2253333,14.0709188 C54.5533333,13.5949188 53.9093333,13.3989188 53.1533333,13.3989188 C50.2693333,13.6509188 49.8773333,13.5389188 49.5973333,13.3709188 C49.7933333,12.8109188 49.5413333,11.0469188 49.7373333,10.4869188 C50.7173333,10.3469188 53.2653333,10.1509188 53.7413333,9.61891878 L54.1893333,8.80691878 L54.1893333,8.44291878 L53.5453333,7.79891878 C52.8733333,7.79891878 49.8493333,7.82691878 49.8493333,7.82691878 C49.6533333,7.26691878 49.6533333,6.95891878 49.5693333,6.39891878 C49.4853333,5.81091878 49.4853333,5.25091878 49.3733333,4.60691878 C49.2893333,4.04691878 49.2053333,3.48691878 48.9253333,3.01091878 L47.4133333,2.25491878 L46.7693333,2.25491878 L46.7973333,4.69091878 C46.8253333,6.23091878 47.0493333,11.6069188 46.7973333,13.2869188 L44.0253333,13.5109188 L42.4293333,13.5109188 C42.5973333,14.5189188 42.7093333,15.6669188 42.7093333,16.7869188 C42.5973333,17.9909188 42.7093333,19.0269188 42.8773333,20.0629188 C43.0733333,21.0989188 43.4653333,22.1069188 44.1093333,22.9469188 Z M40.1333333,22.4989188 L41.5613333,22.3029188 L42.1213333,21.7429188 L41.8413333,20.6229188 C41.4493333,20.2589188 41.0853333,19.9509188 40.7213333,19.7829188 C40.2453333,19.5869188 39.8533333,19.5029188 39.4053333,19.3909188 C38.9293333,19.5029188 38.3693333,19.5869188 37.8933333,19.5869188 C37.3333333,19.5869188 36.8573333,19.6709188 36.4093333,19.7829188 L36.4933333,20.2589188 C37.0533333,20.8189188 37.6133333,21.2669188 38.2853333,21.5469188 C38.8453333,21.9389188 39.4893333,22.2189188 40.1333333,22.4989188 Z M52.0333333,19.7829188 L46.2933333,20.3429188 L45.8453333,20.1749188 L45.7893333,16.1149188 C50.7173333,15.5549188 51.1933333,15.6389188 51.6693333,15.8349188 C51.9493333,16.2829188 52.2293333,19.3069188 52.0333333,19.7829188 Z M33.1333333,17.7109188 C33.6933333,17.7109188 38.0333333,17.0389188 38.0333333,17.0389188 C38.5093333,16.9549188 38.7893333,17.1229188 39.2093333,17.0109188 L39.9653333,16.8429188 C40.4413333,16.3669188 40.8053333,15.7229188 40.8893333,15.0509188 L40.8053333,13.0909188 L40.4413333,7.29491878 L40.5253333,6.25891878 C40.4413333,5.78291878 40.4413333,5.22291878 40.3293333,4.74691878 C40.2453333,4.29891878 40.1613333,3.06691878 40.2453333,2.47891878 C39.9653333,2.11491878 39.6013333,1.91891878 39.1253333,1.91891878 C38.1733333,1.91891878 37.2493333,2.03091878 36.4093333,2.11491878 C35.0933333,2.14291878 34.1413333,2.33891878 33.3013333,2.42291878 C32.4613333,2.61891878 31.5373333,2.81491878 30.6973333,2.89891878 L30.7813333,4.24291878 C30.6973333,5.44691878 30.6973333,6.56691878 30.5853333,7.79891878 C30.5013333,9.00291878 30.5293333,10.4869188 30.3333333,11.6069188 C30.1373333,12.7269188 30.2213333,15.9469188 30.3053333,16.3949188 C30.3893333,16.8709188 30.6693333,17.3469188 31.0613333,17.6269188 L32.1813333,17.5429188 L33.1333333,17.7109188 Z M37.9773333,14.7429188 L33.2733333,15.3309188 L33.4133333,13.7909188 L37.8093333,13.4269188 L38.0893333,13.9029188 L37.9773333,14.7429188 Z M37.6973333,11.4669188 C37.2493333,11.5509188 34.4213333,11.9989188 34.4213333,11.9989188 C33.9733333,12.1109188 33.5813333,11.9989188 33.3013333,11.7189188 C33.3013333,11.7189188 33.3013333,10.3189188 33.6933333,9.75891878 L34.1413333,9.84291878 L37.4173333,9.67491878 L37.8933333,9.95491878 C37.9773333,10.5149188 37.8933333,10.9909188 37.6973333,11.4669188 Z M37.5293333,7.51891878 C34.2533333,8.07891878 33.7773333,7.96691878 33.4133333,7.68691878 L33.4973333,4.60691878 C34.1973333,4.49491878 37.3333333,4.29891878 37.3333333,4.29891878 C37.6133333,4.94291878 37.6973333,7.23891878 37.5293333,7.51891878 Z" id="Shape"></path>
            <path d="M72.2586667,24.7669188 C72.7066667,24.8509188 72.9866667,24.6549188 73.2666667,24.3749188 C73.5466667,23.7029188 73.7426667,23.0869188 73.8266667,22.2749188 C73.9386667,21.5469188 73.9386667,20.8189188 74.0226667,20.0629188 C73.9386667,15.3869188 73.9386667,14.6589188 74.0226667,13.9869188 C74.1066667,13.3709188 74.1066667,12.6149188 74.1066667,11.9149188 C74.0226667,11.2709188 74.2186667,10.6269188 74.1066667,8.77891878 C74.1066667,8.13491878 74.2186667,7.43491878 74.3866667,6.79091878 C74.4986667,6.17491878 74.7786667,5.61491878 75.0586667,5.11091878 C75.8146667,4.83091878 76.5426667,4.63491878 77.4106667,4.55091878 C79.0066667,4.43891878 79.7346667,4.35491878 80.5746667,4.27091878 C81.4426667,4.15891878 82.1706667,3.99091878 83.0106667,3.90691878 L83.8786667,3.12291878 L83.5706667,2.11491878 L81.8906667,1.44291878 L80.9666667,1.44291878 C78.8946667,1.55491878 76.0946667,1.63891878 74.1066667,1.72291878 C72.1466667,1.83491878 70.1026667,2.00291878 68.1146667,2.28291878 C66.1546667,2.56291878 64.1946667,3.01091878 62.3186667,3.68291878 L62.4026667,4.07491878 C62.8786667,4.27091878 63.2706667,4.43891878 63.6346667,4.71891878 C63.9146667,4.99891878 64.3906667,5.19491878 64.8386667,5.19491878 L67.5546667,5.11091878 C68.3946667,4.99891878 69.1506667,5.11091878 69.8226667,5.25091878 L70.1866667,7.26691878 L69.9626667,13.9029188 C69.9066667,15.0509188 70.0466667,15.9469188 70.1026667,16.9829188 C70.1026667,18.0749188 70.1866667,19.1669188 70.2706667,20.1469188 C70.3826667,21.2389188 70.6626667,22.2749188 71.0266667,23.1989188 C71.3066667,23.8149188 71.6986667,24.2909188 72.2586667,24.7669188 Z M74.8626667,10.0949188 L75.6186667,10.9349188 C76.2626667,11.3549188 76.9346667,11.8309188 77.5786667,12.2229188 C78.2506667,12.6429188 78.8946667,13.0349188 79.5386667,13.3149188 C80.2106667,13.6789188 80.9666667,13.9309188 81.6946667,14.2109188 L82.0866667,14.2109188 L82.7306667,13.6509188 L82.7306667,13.2869188 C82.4506667,12.5869188 81.9746667,12.1669188 81.4146667,11.6909188 C80.8546667,11.2429188 80.2946667,10.7669188 79.8186667,10.3189188 C79.2586667,9.87091878 78.6986667,9.31091878 78.2506667,8.77891878 L77.4106667,8.30291878 C76.9346667,8.38691878 76.5426667,8.38691878 76.0946667,8.49891878 C75.6186667,8.58291878 75.2826667,8.75091878 74.9186667,8.91891878 L74.8626667,10.0949188 Z" id="Shape"></path>
            <path d="M112.644,25.4109188 L113.204,25.2149188 C113.68,24.8509188 114.072,24.4589188 114.352,24.0109188 C114.632,23.5349188 114.912,23.0589188 115.08,22.4989188 C115.192,22.0229188 115.36,21.4629188 115.556,21.0149188 C115.556,20.5389188 115.472,20.1749188 115.276,19.7829188 C115.08,19.4189188 114.8,19.0269188 114.52,18.6629188 L114.156,18.6629188 L113.792,19.7829188 C113.596,20.1749188 113.4,20.5389188 113.204,20.8189188 C112.924,21.1829188 112.644,21.4629188 112.28,21.7429188 L111.916,21.6589188 L111.244,20.1749188 C111.636,19.1389188 112.084,18.1869188 112.56,17.2629188 C113.036,16.4229188 113.512,15.4709188 113.96,14.4629188 C114.352,13.5109188 114.8,12.5869188 115.472,11.7469188 C115.556,11.1869188 115.36,10.7109188 114.996,10.3189188 C114.52,9.87091878 113.96,9.47891878 113.316,9.31091878 L112.756,9.31091878 L112.364,9.75891878 L112.476,10.1509188 C112.364,10.7109188 112.28,11.2709188 112,11.7469188 C111.72,12.1949188 111.356,12.6709188 111.076,13.1469188 C110.796,13.5949188 110.404,14.0709188 110.124,14.5469188 L109.76,14.4629188 C109.48,13.9869188 109.368,13.5109188 109.284,12.9509188 C109.2,12.4749188 109.088,11.9149188 109.004,11.3549188 C108.92,10.8789188 108.808,10.3189188 108.724,9.87091878 C108.64,9.39491878 108.724,8.91891878 108.92,8.55491878 L109.648,8.27491878 L110.124,8.35891878 L115.836,7.99491878 L115.92,7.79891878 L115.836,7.23891878 C115.36,6.59491878 114.716,6.20291878 114.072,6.11891878 C113.512,6.11891878 112.924,6.11891878 112.364,6.11891878 C111.72,6.11891878 111.16,6.20291878 110.684,6.31491878 L108.36,6.20291878 C108.08,5.55891878 107.884,4.80291878 107.884,3.96291878 C107.8,3.12291878 107.688,2.36691878 107.604,1.61091878 C107.324,0.966918782 106.764,0.490918782 106.092,0.210918782 C105.728,0.210918782 105.448,0.406918782 105.168,0.686918782 C105.448,1.33091878 105.644,2.08691878 105.728,2.84291878 C105.728,3.68291878 105.812,4.43891878 105.924,5.16691878 C106.008,5.55891878 105.924,5.92291878 105.728,6.20291878 L100.212,6.11891878 L100.1,5.83891878 L100.492,4.60691878 C101.136,4.52291878 102.452,4.41091878 103.124,4.24291878 L103.012,3.85091878 C102.368,3.40291878 100.856,3.03891878 100.212,2.75891878 L100.296,2.28291878 L99.82,0.966918782 L98.056,0.0429187825 C97.58,-0.0690812175 97.216,0.0429187825 96.936,0.322918782 L97.02,2.75891878 L96.936,3.31891878 L93.576,3.59891878 L93.688,4.57891878 C94.136,4.77491878 94.612,4.85891878 95.088,4.77491878 C96.18,4.97091878 96.572,4.85891878 96.936,5.13891878 L97.3,6.39891878 L93.072,6.87491878 L91.952,6.76291878 C91.504,6.67891878 91.112,6.76291878 90.832,6.95891878 C90.944,7.43491878 91.112,7.79891878 91.392,8.16291878 C92.064,8.55491878 92.792,8.91891878 93.464,9.19891878 C93.94,9.11491878 94.304,8.91891878 94.78,8.75091878 C96.348,8.47091878 96.656,8.55491878 96.824,8.83491878 L96.544,9.31091878 C95.984,9.39491878 95.452,9.50691878 94.892,9.50691878 C94.248,9.59091878 93.8,9.98291878 93.52,10.4589188 L93.716,10.9349188 L94.752,11.1309188 L96.712,11.4109188 L97.02,11.8309188 L96.936,12.6709188 L93.464,12.5029188 L92.624,12.7829188 L92.904,14.3789188 L93.184,15.7789188 C93.1,16.3389188 93.184,16.7869188 93.268,17.2629188 C93.38,17.7389188 93.548,18.2149188 93.828,18.6629188 C94.5,19.1389188 96.068,19.0549188 96.824,19.2509188 L96.908,19.8949188 L93.408,19.9229188 C92.96,19.9229188 92.568,19.9229188 92.204,20.0069188 C91.84,20.0909188 91.448,20.3709188 91.168,20.6509188 C91.364,21.0429188 91.644,21.3229188 92.12,21.6029188 L93.94,21.8549188 L96.74,21.7429188 C96.936,22.1349188 97.104,23.7309188 97.104,24.1789188 L98.224,25.2149188 L99.12,25.1869188 C99.4,24.6269188 99.792,22.2749188 99.82,21.7429188 L101.444,21.7149188 C102.284,21.7989188 103.04,21.7149188 103.684,21.5189188 L103.684,20.7629188 C103.208,20.4829188 102.732,20.2029188 102.172,20.1189188 C101.612,20.0349188 100.38,19.9789188 99.904,19.7829188 L99.932,19.3069188 C100.296,19.1389188 102.228,19.2229188 102.536,18.7469188 L103.376,17.2629188 C103.376,16.5909188 103.376,15.8629188 103.376,15.1069188 C103.376,14.4629188 103.208,13.7909188 102.928,13.2309188 C102.452,12.9509188 101.892,12.7549188 101.332,12.6709188 C100.66,12.5869188 100.1,12.3909188 99.652,12.1949188 L99.82,10.9909188 C100.296,10.8789188 100.772,10.7949188 101.22,10.7109188 C101.696,10.7109188 102.172,10.5989188 102.536,10.3189188 L102.256,9.67491878 C101.892,9.47891878 101.5,9.31091878 101.136,9.19891878 C100.772,9.11491878 100.38,9.03091878 99.932,9.03091878 L100.016,8.47091878 C100.66,8.16291878 101.416,8.07891878 102.172,8.07891878 C102.816,8.07891878 103.488,8.07891878 104.132,8.07891878 C104.776,8.16291878 105.364,8.27491878 106.008,8.35891878 C106.288,9.31091878 106.484,10.2349188 106.652,11.2709188 C106.764,12.3069188 106.932,13.3149188 107.212,14.2669188 C107.408,15.3029188 107.604,16.2269188 107.8,17.2629188 C107.604,18.0189188 107.212,18.6629188 106.764,19.3069188 C105.896,20.5669188 105.532,21.2109188 105.336,21.9669188 L105.616,24.3189188 L106.26,24.9629188 C106.736,24.8789188 107.212,24.6829188 107.576,24.3189188 C107.856,24.0389188 108.64,23.1709188 109.004,22.8909188 L109.48,22.8909188 L110.208,24.0949188 C110.6,24.3749188 110.964,24.6549188 111.44,24.9349188 C111.804,25.2149188 112.196,25.3269188 112.644,25.4109188 Z M96.824,17.8229188 L95.592,17.7389188 C95.48,17.1789188 95.592,16.7029188 95.872,16.2549188 L96.74,16.2269188 L97.104,16.7869188 C97.216,17.2629188 97.104,17.5429188 96.824,17.8229188 Z M99.624,17.5709188 L99.708,16.4509188 L100.772,16.5069188 L100.912,17.6549188 L99.624,17.5709188 Z M96.852,14.8829188 L95.62,14.9109188 L95.76,14.0429188 L96.824,14.0149188 L96.852,14.8829188 Z M100.688,14.9109188 L99.54,14.9109188 L99.708,14.2109188 L100.772,14.2669188 L100.688,14.9109188 Z M111.916,4.01891878 L113.624,3.85091878 L114.352,3.93491878 L114.828,3.73891878 L114.548,3.09491878 C114.072,2.81491878 113.512,2.42291878 113.064,2.05891878 C112.588,1.69491878 112.028,1.30291878 111.552,1.02291878 C110.992,0.742918782 110.432,0.546918782 109.872,0.266918782 L109.676,0.266918782 C109.76,0.938918782 109.956,1.41491878 110.348,1.86291878 C110.628,2.33891878 110.908,2.89891878 110.992,3.45891878 L111.916,4.01891878 Z" id="Shape"></path>
        </g>
    </g>
</svg>