<?xml version="1.0" encoding="UTF-8"?>
<svg id="backHair" xmlns="http://www.w3.org/2000/svg" viewBox="0 0 300 300">
  <path d="m285.54,226.01c.23-1.65,2.36-3.05,2.46-4.63s-.16-3.34-.2-4.92.33-3.38.15-4.96-.77-3.28-1.1-4.83-2.69-2.65-3.17-4.16-.39-3.25-1.02-4.71-2.05-2.52-2.84-3.9-.33-3.61-1.26-4.9-2.76-1.93-3.83-3.11-2.13-2.39-3.33-3.43-2.23-2.4-3.55-3.27c-1.4-.92-2.54-2.22-3.97-2.88-1.52-.71-1.96-1.36-3.47-1.77.94-1.3.22-2.44,1.04-3.85s1.63-2.73,2.32-4.21.4-3.24.96-4.77,3.35-2.28,3.79-3.85-.99-3.57-.66-5.16,2-2.91,2.24-4.52.57-3.21.71-4.83-1.22-3.3-1.17-4.92-.09-3.18-.12-4.8,1.26-3.27,1.15-4.89.13-3.28-.05-4.89-1.29-3.1-1.54-4.7-1.86-2.91-2.18-4.5,1.21-3.56.83-5.13-.77-3.16-1.22-4.71-2.98-2.43-3.49-3.97.55-3.59-.02-5.1-2.21-2.57-2.84-4.06.3-3.67-.39-5.13-3.44-1.88-4.19-3.3-.65-3.28-1.46-4.68-2.42-2.26-3.29-3.62-.13-3.78-1.06-5.1-2.44-2.23-3.42-3.5-1.88-2.64-2.92-3.86-2.8-1.81-3.9-2.98-2.42-2.08-3.59-3.19-1.87-2.68-3.1-3.73-2.06-2.58-3.34-3.56-3.34-.84-4.68-1.74-1.82-3.14-3.21-3.96-2.57-2.14-4.01-2.87-2.95-1.48-4.44-2.11-3.44-.16-4.96-.7-3.07-.98-4.63-1.41-3.14-.71-4.73-1.04-2.97-1.96-4.58-2.17-3.36.8-4.98.7-3.21-1.2-4.84-1.21-3.19,1.55-4.82,1.64-3.37-1.36-4.99-1.17-3.09,2.54-4.7,2.82c-1.53-.58-2.59-3.09-4.11-3.6s-3.31-.48-4.84-.92-3.17-.89-4.72-1.25-3.22-.71-4.79-1-3.33.08-4.92-.13-3.15-1.52-4.74-1.65-3.37,2.01-4.97,1.97-3.23-1.2-4.83-1.15-3.2.76-4.8.9-3.21.31-4.8.55-3.46-.79-5.03-.45-3.22.73-4.77,1.16-3.04,1.29-4.57,1.81-2.71,2.01-4.21,2.62-3.26.62-4.72,1.32-3.12,1.07-4.53,1.85-1.87,3.19-3.24,4.04-3.75.17-5.08,1.1-2.78,1.75-4.06,2.75-1.59,3.17-2.81,4.23-2.23,2.3-3.4,3.42-2.06,2.45-3.18,3.62-3.85.87-4.92,2.09-1.45,3.04-2.46,4.31-2.22,2.4-3.17,3.71-2.39,2.32-3.29,3.67-1.03,3.21-1.87,4.6-1.91,2.65-2.7,4.07-.79,3.25-1.52,4.69-2.88,2.23-3.55,3.71.85,3.9.24,5.4-3.42,2.16-3.97,3.68-.72,3.23-1.21,4.76.52,3.54.09,5.1-2.45,2.73-2.82,4.3-.76,3.2-1.07,4.78,1.27,3.51,1.03,5.11-1.02,3.12-1.19,4.72c-.18,1.7-.03,3.38-.14,5.02s.28,3.36.25,5.01-1.8,3.4-1.74,5.04.01,3.44.16,5.08,1.3,3.28,1.55,4.91.77,3.29,1.12,4.9,1.83,2.97,2.3,4.55.6,3.28,1.18,4.83.81,3.27,1.51,4.76,2.04,3.52,2.86,4.96c-1.49.26-3.76.68-5.29,1.24-1.43.53-3.63-.32-5.04.46-1.33.74-1.3,3.7-2.6,4.67s-3.85.23-5.01,1.34-1.88,2.62-2.9,3.85-1.54,2.76-2.43,4.1-.95,3-1.69,4.42-2.69,2.18-3.28,3.67-1.61,2.83-2.06,4.37,1.76,3.6,1.46,5.18-2.24,2.77-2.39,4.37.05,3.13.04,4.74-.16,3.13-.05,4.73,1.62,2.91,1.86,4.5c.24,1.57-.63,3.27-.45,4.76.19,1.58.42,3.11.55,4.61.14,1.59,1.21,3.09,1.28,4.59.08,1.6.47,3.19.48,4.68.01,1.61-.35,3.2-.41,4.69-.06,1.61-1.82,3.07-1.95,4.54-.14,1.62-.7,3.06-.91,4.52-.23,1.63.45,3.28.15,4.7-.34,1.63-.64,3.15-1.03,4.52-.47,1.64-1.32,2.97-1.82,4.26-.65,1.69-1.7,2.83-2.3,3.97-1.4,2.68-1.93,1.81-.89,3.88,1.51-.37,1.96-1.42,3.56-1.84,1.51-.4,3.3.07,4.87-.4s2.83-1.54,4.38-2.06,3.52.37,5.04-.21,2.73-1.81,4.22-2.46,3.38-.37,4.84-1.1,2.01-3.04,3.42-3.84,2.5-1.93,3.86-2.82,3.46-.59,4.76-1.57,3.23-1.17,4.46-2.23,1.53-3.13,2.69-4.27,1.36-3.06,2.43-4.28,2.96-1.65,3.95-2.95,2.76-2.01,3.65-3.38,1.92-2.66,2.72-4.08-.66-3.94.04-5.42,2.96-2.16,3.57-3.68.93-3.08,1.46-4.64,1.34-2.95,1.78-4.53c.51-1.82,1.49-3.5,1.85-5.18.39-1.85-.66-3.91-.44-5.6.25-1.88,1.76-3.62,1.83-5.32.08-1.91-.76-3.07-.88-4.76,1.42.68,2.59.02,4.05.64s2.8,1.42,4.29,1.97,3.21.26,4.72.74,2.79,1.54,4.32,1.97,3.08.57,4.63.93,2.84,1.72,4.39,2.03,3.26-.37,4.83-.1,3.08.54,4.65.76,3.08.7,4.65.87,3.15.08,4.73.21,3.1.85,4.68.94,3.17-.43,4.75-.38,3.14.74,4.72.74,3.14-1.05,4.72-1.08,3.24,2.16,4.81,2.09,3.07-1.87,4.65-1.98c1.71-.11,3.42.87,5,.79,1.71-.09,3.36.06,4.95,0,1.7-.07,3.26-2.14,4.86-2.2,1.69-.07,3.29-.36,4.91-.45s3.47,2.3,5.11,2.15,2.97-2.72,4.62-2.96,3.51,1.4,5.17,1.06c1.56-.31,3.33-.13,4.98-.56,1.53-.4,2.42-3.25,4.06-3.77,1.5-.47,3.63.78,5.26.2,1.48-.53,3.26-.55,4.86-1.19,1.47-.58,2.06-3.44,3.64-4.12,1.45-.62,3.6.18,5.16-.53,1.44-.66,2.25-2.8,3.8-3.54,1.44-.69,3.62-.58,5.15-1.34-.29,1.39.4,3.27.26,4.86-.12,1.42-2.11,2.85-2.08,4.43.02,1.43,1.23,2.89,1.39,4.47.14,1.43-.92,3.12-.65,4.68.25,1.42,2.53,2.49,2.89,4.02.33,1.41.1,2.99.54,4.5.46,1.58,1.9,2.75,2.43,4.24s-1.24,3.95-.63,5.4,2.75,2.34,3.45,3.75.13,3.63.92,5,1.99,2.66,2.86,3.97,2.48,2.24,3.45,3.49,2.51,2.09,3.57,3.27,2.55,1.95,3.69,3.05,2.31,2.15,3.52,3.17,2.31,2.18,3.59,3.12,1.94,2.85,3.28,3.7,2.45,2.26,3.84,3.04,3.86-.44,5.29.25,2.11,3.12,3.58,3.74,3.54-.17,5.02.38,2.53,2.57,4.04,3.06,3.3.34,4.82.77,3.13.88,4.65,1.27c1.6.41,2.33.29,3.84.64,1.01-2.09-1.42-.16-2.85-2.83-.61-1.13-.61-2.96-1.27-4.63-.51-1.29-1.04-2.8-1.53-4.43-.41-1.37-.79-2.91-1.14-4.54-.31-1.42-1.29-2.87-1.54-4.49-.22-1.45,1.53-3.25,1.38-4.86-.14-1.47-1.4-2.92-1.48-4.53-.07-1.48.88-3.05.87-4.66,0-1.49.57-3,.63-4.6.06-1.5-1.6-3.13-1.48-4.72.11-1.5.46-3.04.63-4.62.16-1.5-.46-3.16-.24-4.74Z" style="fill: #be5e50; stroke-width: 0px;"/>
</svg>