<?xml version="1.0" encoding="UTF-8"?><svg id="backHair" xmlns="http://www.w3.org/2000/svg" viewBox="0 0 300 300"><defs><style>.cls-1{fill:#be5e50;}</style></defs><g id="backHair_15"><path class="cls-1" d="m168.89,41.32c-2.34-.24-.78-1.01-3.24-2.66-1.11-.74-3.59.31-5.16-.55-1.26-.69-2.41-1.74-3.96-2.43-1.35-.6-2.24-2.62-3.8-3.17-1.41-.5-2.92-1.17-4.5-1.59-1.46-.39-3.37.82-4.96.51-1.49-.29-3.08.2-4.69,0-1.51-.18-2.92-1.47-4.53-1.54-1.52-.07-3.08.04-4.69.08-1.53.03-3.13-.57-4.74-.43-1.52.13-3.12.24-4.71.47s-3.27-.38-4.84-.05-2.76,1.95-4.31,2.37-3.38-.36-4.91.14-2.11,3.35-3.62,3.92-3.87-1.19-5.31-.61-2.11,3.17-3.54,3.78-2.62,1.84-4.02,2.49-2.83,1.35-4.21,2.04-2.81,1.38-4.18,2.1-2.75,1.49-4.09,2.26-3.17.82-4.49,1.63-3.63.24-4.92,1.09-2.34,2.27-3.59,3.17-1.86,2.83-3.07,3.78-3.64.61-4.81,1.61c-1.22,1.05-.57,4.11-1.67,5.17-1.17,1.12-3.84.67-4.87,1.79-1.11,1.19-1.07,3.31-2.03,4.49-1.02,1.27-2.6,2.04-3.45,3.29-.92,1.35-1.76,2.71-2.48,4.04-.78,1.45-1.66,2.82-2.2,4.22-.59,1.54.45,3.42.15,4.89-.32,1.61-.95,2.95-.91,4.46.04,1.63.34,3.16.41,4.65.08,1.63.07,3.19.14,4.68.08,1.63-1.66,3.22-1.66,4.71,0,1.62.71,3.13.55,4.63s1.23,3.51.8,5.01-1.29,3.06-2.05,4.49c-.69,1.3-3.44,1.35-4.48,2.66-.9,1.14-1.99,2.02-3.2,3.19-1.05,1.01-1.2,3.11-2.51,4.16s-3.25,1.4-4.44,2.47c-1.28,1.14-1.48,3.34-2.59,4.49-1.19,1.24-2.74,2.04-3.74,3.29-1.08,1.34-1.45,3.05-2.28,4.41-.9,1.47-3.52,2.06-4.11,3.55-.64,1.58,1.1,3.84.82,5.44s-2.25,3.19-2.14,4.85,2.18,2.92,2.67,4.56c.46,1.51,1.13,2.84,1.94,4.38.77,1.46,1.65,2.83,2.38,4.24s1.24,3.07,1.92,4.49c.71,1.5,1.4,3.02,1.98,4.48.62,1.55.36,3.39.78,4.9.46,1.6-.09,3.27.09,4.83s.68,3.09.48,4.68-1.38,2.68-2.01,4.23c-.58,1.41-.51,3.06-1.52,4.46-.88,1.23-.95,3.03-1.75,4.39s-2.92,1.97-3.59,3.38.29,3.47-.21,4.94-2.43,2.58-2.73,4.1,1.36,3.28,1.3,4.83-.6,3.01-.4,4.56.67,2.92,1.16,4.42c.46,1.43-.02,3.35.74,4.76.7,1.31,2.93,1.7,3.91,2.99.9,1.18,1.4,2.71,2.54,3.85,1.68,1.88,2.11,1.37,3.27,4.1.58,1.35-.13,3.44.19,5.27.27,1.54-.72,3.05-.87,4.84-.13,1.56,1.81,3.63,1.21,5.33-.52,1.47-1.27,3.2-2.23,4.74-.88,1.4-1.62,2.57-2.18,3.84-.68,1.54-.94,2.82-1.2,4.16-.32,1.68-.92,2.92-.67,4.25.3,1.61-.32,3.84.66,4.92s3.29.73,4.81,1.22c1.35.44,3.01-.08,4.64-.16,2.19.53,1.33.81,4.21,1.26,1.23.19,2.54.35,4.3.32,1.34-.02,3.06,2.28,4.71,2.04,1.36-.2,2.62-1.9,4.2-2.3,1.36-.35,2.55-1.47,4.07-2,1.34-.46,3.37.61,4.83-.02,1.55-.66,2.97-1.31,4.44-1.8,1.61-.54,2.74-2.4,4.25-2.76,1.65-.4,3.24-1.13,4.77-1.34,1.68-.23,3.47,1.96,5.01,1.93,1.7-.04,3.25-.95,4.79-.79,1.69.17,3.56-.87,5.06-.51,1.66.39,3.16,1.37,4.6,1.92,1.62.61,3.24,1.14,4.57,1.84,1.17.61,2.62.94,4.28,1.56,1.34.5,2.3,2.56,3.9,3,1.42.38,3.01.65,4.61.94,1.47.27,3.03.75,4.63.9,1.5.14,3.13.23,4.72.24s3.19.53,4.77.39,3-1.36,4.56-1.64,3.12-.34,4.65-.77,3.09-.68,4.57-1.26,2.48-2.07,3.9-2.78,2.53-2.44,4.05-2.98,3.63.83,5.19.46,2.82-2.51,4.41-2.73,3.34.47,4.94.39,3.24.04,4.84.08,3.31-.63,4.9-.47,2.98,2.15,4.54,2.42,3.16.47,4.7.84,2.9,1.45,4.39,1.93c1.58.5,3.63-.55,5.06.03,1.56.63,2.62,2.15,3.98,2.85,1.53.79,3.59.51,4.8,1.36s2.74.85,4.26,1.39c1.44.51,2.55,1.91,4.16,2.14,1.51.21,3.07,1.89,4.68,1.87s2.96-2.58,4.55-2.78,3.35,1.14,4.9.79,3.34,0,4.84-.48,3-1.28,4.44-1.88,2.33-2.59,3.7-3.31,3.61-.25,4.89-1.09c1.36-.91,1.41-3.49,2.54-4.48,1.26-1.1,2.85-2.06,4.33-2.81s3.39-.58,5-1.02,3.14-1.53,4.8-1.69,3.38.79,5.03.85,3.46-.69,5.07-.43,3.4.66,4.93,1.11c1.69.5,3,1.88,4.4,2.54,1.69.79,3.01,1.77,4.09,2.71,1.14.99,2.44,1.93,3.78,2.6s3.08.48,4.5.79c1.59.35,2.96.44,4.32.23,1.63-.26,2.35-1,3.2-2.2.75-1.05,3.15-2.09,2.96-3.95s-3.2-2.59-3.72-3.81c-.65-1.54,1.07-3.92.38-5.28-.63-1.24-2.48-1.95-2.72-3.75-.17-1.27-1.31-2.92-1.11-4.77.15-1.33.29-3.01.7-4.74.37-1.57,2.04-2.77,2.45-4.21.45-1.54,1.06-2.97,1.5-4.41.46-1.52-.25-3.3.12-4.77s.97-2.86,1.2-4.39,1.21-2.92,1.19-4.52c-.01-1.48,1-3.21.73-4.83-.24-1.43-1.92-2.69-2.41-4.28-.43-1.38.12-3.27-.52-4.8-.56-1.34-2.49-2.18-3.24-3.65s.01-3.38-.46-4.68c-.56-1.55-2.68-2.51-2.91-3.87-.28-1.62.02-3.26.12-4.65.11-1.6-.18-3.35.27-4.71.49-1.47,1.94-2.6,2.64-3.89s2.84-1.86,3.6-3.11c.81-1.33.71-3.2,1.3-4.54s1.95-2.68,2.03-4.21c.49-2.22.14-1.76.49-4.59.16-1.27.11-2.89.08-4.63-.02-1.38-.48-2.91-.7-4.55-.19-1.4.08-3.05-.31-4.61-.34-1.39-.32-3.08-.85-4.59-.48-1.36-1.05-2.89-1.71-4.33-.6-1.32-1.82-2.5-2.59-3.88-.87-1.56-2.26-2.59-2.78-3.9-.67-1.7-1.39-3.18-1.56-4.56-.22-1.76,1.53-3.02,1.9-4.45.4-1.54.36-2.98,1.14-4.41.73-1.34,1.32-2.81,2.1-4.29.7-1.32,2.07-2.58,2.6-4.19.46-1.39-1.36-3.4-1.15-5.12.17-1.44.13-2.82.05-4.56s.85-3.38.74-4.97c-.12-1.7-1.21-3.22-1.39-4.8-.19-1.69.79-3.45.5-5.02-.3-1.67.25-3.54-.2-5.07-.47-1.62-3.11-2.37-3.78-3.83s.58-4.11-.37-5.45-2.37-2.49-3.59-3.65c-1.15-1.08-3.11-1.32-4.55-2.26-1.3-.85-3.02-.96-4.6-1.7s-2.45-2.69-3.87-3.46c-1.51-.82-3.73-.39-5.08-1.26-1.45-.93-2.67-2.23-3.94-3.21-1.36-1.05-1.68-3.22-2.85-4.34-1.23-1.17-2.39-2.26-3.43-3.52s-2.91-2.01-3.79-3.41-1.87-2.84-2.57-4.36-.39-3.42-.92-5.02c-.42-1.25-1.77-2.31-2.83-3.76-.84-1.14-1.84-2.26-3.05-3.45-1.04-1.03-2.11-2.12-3.4-3.14-1.17-.93-2.52-1.66-3.88-2.55-1.27-.82-2.24-2.22-3.65-2.97s-2.3-2.48-3.76-3.11-3.63.75-5.13.24-2.45-2.69-3.98-3.08-3.43,1.27-4.99,1.02-2.88-1.93-4.46-2.04-3.16-.79-4.74-.76-2.99,2.06-4.57,2.24-3.33-1.2-4.88-.88-3.07.8-4.59,1.26-2.39,2.52-3.87,3.11-3.15.43-4.58,1.14-2.74,1.42-4.11,2.24-2.46.61-3.76,1.53Z"/></g></svg>