<?xml version="1.0" encoding="UTF-8"?><svg id="backHair" xmlns="http://www.w3.org/2000/svg" viewBox="0 0 300 300"><defs><style>.cls-1{fill:#be5e50;}</style></defs><g id="backHair_16"><path class="cls-1" d="m159.15,40.88c-1.09-.11-.72-.41-2.11-.63-.6-.1-1.5,1.09-2.33.98-.65-.09-1.21-1.54-1.99-1.62-.68-.07-1.32-1.13-2.09-1.2-.69-.06-1.47.29-2.23.25-.7-.04-1.52,1.8-2.27,1.77-.7-.03-1.4-.61-2.14-.63-.71-.02-1.42.49-2.17.49s-1.43-.75-2.17-.73-1.45-.54-2.19-.51-1.46-.21-2.2-.17-1.36,1.31-2.1,1.36-1.51-.78-2.24-.71-1.34,1.03-2.07,1.11-1.53-.66-2.26-.56-1.27,1.28-2,1.39-1.36.52-2.08.64-1.42.15-2.14.29-1.39.29-2.11.45-1.85-1.66-2.57-1.49-1.48.12-2.19.3-1.43.34-2.14.53-.98,1.84-1.69,2.05-1.55-.1-2.24.13-1.08,1.31-1.77,1.55-1.63-.25-2.31,0-1.06,1.27-1.74,1.54-1.12,1.03-1.8,1.31-1.75-.43-2.42-.13-1.89-.6-2.55-.29-.52,2.24-1.18,2.57-1.45.34-2.09.68-1.52.24-2.16.6-1.35.59-1.98.96-.61,1.78-1.24,2.16-2.29-.88-2.9-.48-.1,2.46-.71,2.87-1.52.34-2.11.77-1.08.97-1.66,1.41-.88,1.21-1.45,1.67-1.2.79-1.77,1.26-2.1-.24-2.65.24-1.02,1.06-1.57,1.55-.27,1.85-.8,2.35-1.61.41-2.13.93-.81,1.24-1.32,1.76-.78,1.25-1.28,1.79-1.4.68-1.89,1.23-1.4.72-1.88,1.27.24,2.1-.23,2.67-1.2.88-1.66,1.45-1.58.61-2.02,1.19-1.24.9-1.68,1.49.93,2.45.5,3.05-1.38.78-1.8,1.39-1.96.44-2.37,1.05.77,2.21.37,2.83-2.46.18-2.84.81.84,2.19.47,2.82-2.48.25-2.84.89.74,2.07.39,2.71-1.63.78-1.96,1.43-1.22,1.02-1.54,1.68-.08,1.59-.39,2.25-.58,1.34-.89,2,.04,1.62-.26,2.28-1.15,1.08-1.44,1.75.29,1.7,0,2.37-1.28,1.04-1.55,1.72-.51,1.36-.78,2.05-.32,1.43-.57,2.12-1.59.98-1.83,1.67,1.33,2.05,1.1,2.74c-.4,1.01-1.75.11-2.25,1.47-.21.56.17,1.49-.1,2.29-.21.62-.21,1.38-.45,2.15-.2.64.52,1.61.3,2.36-.19.66-.29,1.37-.49,2.11-.18.67-2.51.8-2.7,1.54-.17.68,1.68,1.89,1.51,2.62-.17.68-2.5.88-2.66,1.61-.16.69-.34,1.41-.5,2.14-.15.69,1.91,1.86,1.76,2.59s-1.44,1.18-1.58,1.91-.22,1.42-.35,2.15-1.22,1.25-1.34,1.98-.15,1.44-.27,2.17,1.19,1.64,1.08,2.37-1.34,1.27-1.44,2,1.34,1.63,1.24,2.36-1.54,1.26-1.63,1.99-.67,1.38-.75,2.12,1.41,1.6,1.34,2.33-.34,1.42-.4,2.15-.16,1.43-.22,2.17-.07,1.44-.12,2.18-.36,1.42-.41,2.16-.24,1.43-.29,2.17,1.05,1.51,1.01,2.24-1.86,1.35-1.9,2.09-.2,1.45-.23,2.18.2,1.46.18,2.2,1.2,1.48,1.18,2.22-1.83,1.41-1.85,2.15,1.38,1.47,1.37,2.21-1.54,1.44-1.54,2.17,1.19,1.46,1.19,2.19-.81,1.46-.8,2.19.85,1.44.86,2.18-1.28,1.47-1.27,2.21,1.92,1.41,1.94,2.14-.18,1.45-.15,2.19-.67,1.48-.64,2.21.09,1.45.12,2.19-.41,1.47-.37,2.21.38,1.44.41,2.17-.75,1.5-.71,2.23,1.16,1.39,1.2,2.12-.47,1.49-.42,2.22-.1,1.47-.05,2.21,1.4,1.35,1.46,2.08c.11,1.08-.2.81-.04,2.2.07.61.64,1.28.73,2.11.07.66.66,1.34.74,2.12.07.68-1.71,1.59-1.63,2.35.07.69.96,1.34,1.02,2.09.06.7.19,1.42.25,2.16.06.7-1.09,1.52-1.03,2.27s.53,1.4.58,2.14.77,1.39.81,2.13-.05,1.45,0,2.19.85,1.41.89,2.14-.16,1.46-.13,2.2-1,1.49-.97,2.22.71,1.43.73,2.16.65,1.44.66,2.17.37,1.46.38,2.19-.07,1.47-.08,2.19-.14,1.47-.15,2.2-1.54,1.43-1.56,2.15,1.28,1.51,1.25,2.23-.7,1.43-.74,2.15.49,1.5.44,2.22-1.68,1.32-1.75,2.04.96,1.57.88,2.28.88,1.61.78,2.32-.62,1.42-.75,2.12-1.44,1.22-1.59,1.91c-.16.73.61,1.73.43,2.42-.44,1.06.09.87-.02,2.09-.07.7-.85,1.29-.51,2.04.28.61,1.14.36,1.89.85.54.35.61,1.65,1.48,1.87.65.16,1.43.13,2.29.19,1.12.14.96.5,2.28.27.64-.11.88-1.56,1.65-1.91.62-.28,1.32-.18,1.96-.69.54-.44,2.04-.02,2.54-.67.43-.54,1.12-1.17,1.5-1.89.33-.62.66-1.43.93-2.19.24-.66.66-1.12.85-1.9.57-1.06-.12-1.64.76-2.03.64-.28,1.34-.31,1.62,1.09.13.65,1.19,1.53,1.13,2.39-.05.72-1.81,1.39-1.87,2.18s-.32,1.62-.28,2.37c.05.79-.29,1.97-.02,2.67s1.15,1.76,1.78,2.28c.52.43,2.11-.8,2.96-.56.36.1.81,1.54,1.87,1.68.61.08,1.46-.86,2.29-.77.66.07,1.46-.71,2.25-.63.68.07,1.22,1.94,1.99,2.01.69.06,1.4.25,2.16.31.69.06,1.5-.78,2.25-.72.7.06,1.5-.91,2.25-.86.7.05,1.34,1.3,2.08,1.35.71.05,1.4.56,2.14.61s1.51-1.11,2.25-1.06,1.4.52,2.14.56,1.45-.12,2.18-.07,1.42.42,2.15.46,1.41.63,2.14.67,1.5-1.04,2.24-1,1.45-.05,2.18-.01,1.44.14,2.17.18,1.42.44,2.16.48,1.42.67,2.15.7,1.42.62,2.15.65,1.44.14,2.17.17,1.45-.05,2.18-.02,1.5-1.38,2.23-1.35,1.4,1.24,2.13,1.27,1.49-1.11,2.22-1.08,1.46-.38,2.19-.36,1.42,1.05,2.15,1.07,1.48-.97,2.21-.95,1.4,1.74,2.13,1.76,1.44.47,2.17.49,1.46-.75,2.19-.74,1.44.46,2.17.47,1.46-.55,2.19-.54,1.44.37,2.17.38,1.46-.93,2.19-.92,1.43,1.54,2.16,1.55,1.45-.26,2.18-.25,1.45-.49,2.18-.49,1.45.08,2.18.08,1.45.79,2.18.79,1.45-1.89,2.18-1.89,1.45,1.08,2.18,1.08,1.45.26,2.18.26,1.45-.25,2.18-.26,1.45-.33,2.18-.34,1.46,1.16,2.19,1.15,1.43-1.86,2.16-1.86,1.46.59,2.18.58,1.44-.9,2.16-.91,1.45.23,2.18.22,1.46.5,2.19.49,1.45-.23,2.17-.25,1.43-.69,2.16-.71,1.51,1.98,2.24,1.96,1.44-.4,2.17-.42,1.46.05,2.18.02,1.42-.87,2.15-.9,1.49.81,2.21.79,1.38-1.95,2.1-1.98,1.5,1.1,2.23,1.07,1.45-.25,2.17-.28,1.52,1.19,2.24,1.15,1.39-1.24,2.12-1.28,1.39-1.19,2.12-1.23,1.55,1.58,2.28,1.54,1.49.51,2.22.47,1.4-.93,2.13-.98,1.46.03,2.19-.03,1.44-.37,2.16-.42,1.41-.72,2.13-.78,1.45-.19,2.17-.24,1.46.05,2.19-.01,1.56,1.12,2.28,1.05,1.35-1.29,2.07-1.36,1.57,1.15,2.29,1.08,1.42-.46,2.14-.53,1.3-1.65,2.02-1.72,1.51.44,2.23.36,1.58.99,2.3.91,1.51.32,2.23.23,1.22-2.09,1.94-2.18,1.41-.46,2.13-.55,1.66,1.48,2.38,1.39,1.45-.16,2.17-.26,1.21-1.88,1.92-1.98,1.59.84,2.3.73,1.41.79,2.12.68c1.05.02,1.05-.87,1.81-2.08.28-.45.98-1.04,1.15-1.93.11-.58-1.27-1.41-1.24-2.23.02-.62,1.36-1.31,1.32-2.1-.03-.64.64-1.45.55-2.21-.07-.65-.51-1.34-.62-2.09-.1-.66-1.07-1.23-1.21-1.96.07-1.08.71-.78,1.2-1.83.31-.65.96-.82,1.45-1.3.55-.53.16-.36.93-.12.52.16,2.32-1.31,2.94-.57.43.51.68,1.52.99,2.21.28.62-.93,1.84-.72,2.55.19.67,2.14.98,2.27,1.7s-1.49,1.69-1.41,2.39,1.06,1.36,1.1,2.05c.05.75-.82,1.5-.81,2.18.02.8,1.13,1.52,1.12,2.14-.02,1.31-1.34,1.33-.76,2.23s.99-.38,2.31-.28c.61.05,1.18-.56,1.99-.63.65-.06,1.35.54,2.1.35.65-.16,1.6.46,2.31.16.62-.26,1.02-1.1,1.68-1.48.58-.34,1.65-.08,2.25-.54.54-.41-.04-2.18.51-2.69.4-.38.63-.63,1.03-1.45.28-.57.39-1.18.66-1.95.22-.63,2.44-.67,2.66-1.43.19-.66-.56-1.63-.37-2.38.17-.67,1.1-1.21,1.26-1.95.15-.68-1.49-1.77-1.34-2.51.14-.69,1.95-1.07,2.08-1.81.13-.69-1.46-1.71-1.33-2.45s2.24-1.08,2.36-1.81-.91-1.6-.8-2.33-.16-1.47-.06-2.21,1.61-1.24,1.7-1.97-.25-1.49-.16-2.22-1.28-1.61-1.19-2.34,1.08-1.33,1.16-2.06.72-1.38.79-2.11-1.03-1.56-.95-2.29,1.19-1.34,1.26-2.07,1.13-1.35,1.19-2.08-1.34-1.57-1.27-2.3.95-1.37,1.01-2.1-1.47-1.57-1.42-2.3,1.07-1.37,1.12-2.1,1.15-1.38,1.2-2.1-.99-1.52-.94-2.25.62-1.42.66-2.15.36-1.44.4-2.17.28-1.44.32-2.17-1.9-1.54-1.86-2.27.47-1.43.5-2.15-.61-1.47-.58-2.2,1.5-1.4,1.52-2.12-.85-1.48-.83-2.21,1.65-1.41,1.67-2.13-1.83-1.5-1.81-2.23,1.33-1.43,1.35-2.15-1.13-1.47-1.12-2.2-.03-1.45-.02-2.18.39-1.45.4-2.18,1.55-1.45,1.55-2.18-.79-1.46-.8-2.19-.22-1.46-.22-2.18-1.24-1.44-1.25-2.17.44-1.46.43-2.19,1.84-1.5,1.82-2.23-2.11-1.41-2.13-2.14-.06-1.45-.09-2.18.56-1.48.53-2.2.02-1.46-.02-2.19.22-1.47.19-2.2.38-1.48.34-2.21-.57-1.43-.62-2.15.18-1.47.13-2.19-1-1.38-1.06-2.1-.14-1.45-.21-2.17-.14-1.45-.21-2.16.04-1.46-.04-2.18,1.37-1.63,1.29-2.34.07-1.49-.02-2.2-1.19-1.32-1.29-2.03-.28-1.41-.39-2.14-1.3-1.26-1.41-1.98.37-1.51.26-2.23-.97-1.3-1.09-2.02,1.09-1.64.97-2.36.49-1.55.36-2.27-.27-1.43-.4-2.14-.18-1.44-.32-2.16-.58-1.36-.72-2.08-.35-1.41-.5-2.12-.9-1.28-1.06-1.99-1.48-1.14-1.65-1.85-.14-1.44-.31-2.15.34-1.57.16-2.27.35-1.58.17-2.29-.17-1.46-.36-2.16-1.1-1.2-1.3-1.89-1.52-1.05-1.73-1.75,1.26-1.89,1.04-2.58-1.68-.98-1.9-1.67,1.1-1.89.86-2.57-.64-1.32-.88-2-2.01-.81-2.26-1.49-.41-1.38-.67-2.06-.37-1.4-.64-2.07-.45-1.37-.73-2.04,1.04-2.02.75-2.69-1.86-.76-2.16-1.42-.65-1.29-.96-1.94-1.54-.85-1.86-1.5.57-1.9.24-2.54-1.24-.98-1.58-1.62-.19-1.54-.54-2.17-.39-1.45-.75-2.08-.4-1.46-.78-2.08-1.44-.82-1.83-1.43-.73-1.25-1.13-1.85-1.42-.78-1.83-1.37-.46-1.44-.89-2.02-.05-1.77-.49-2.35-1.65-.55-2.11-1.12-1.05-1-1.52-1.56-1.34-.74-1.82-1.28.66-2.54.17-3.07-1.98-.14-2.49-.66-.28-1.77-.79-2.28-1.5-.55-2.03-1.04-1.55-.45-2.09-.93-1.41-.56-1.96-1.03-.01-2.24-.58-2.7-1.78-.09-2.35-.53-.43-1.84-1.02-2.27-1.13-.95-1.72-1.37-1.66-.15-2.27-.55-1.23-.77-1.84-1.15-1.43-.42-2.06-.79-1.45-.35-2.09-.7-.96-1.25-1.6-1.59-1.83.45-2.48.13-1.21-.75-1.87-1.05-1.12-.97-1.79-1.26-1.23-.77-1.9-1.04-1.49-.11-2.17-.37-.89-1.77-1.57-2.01-1.13-1.22-1.82-1.45-2.06,1.73-2.75,1.52-1-1.71-1.7-1.91-1.69.76-2.4.58-1.28-.8-1.99-.96-1.52.23-2.23.08-1.08-1.93-1.8-2.07-1.49.07-2.21-.05-1.53.41-2.25.3-1.55.79-2.28.7-1.37-.55-2.09-.63-1.34-.98-2.06-1.05-1.42-.29-2.15-.35-1.4-.7-2.13-.75-1.43-.47-2.16-.5-1.49.81-2.21.79-1.46.96-2.19.95-1.43.4-2.16.4-1.45-1.48-2.18-1.47-1.45.4-2.18.42Z"/></g></svg>