<?xml version="1.0" encoding="UTF-8"?><svg id="backHair" xmlns="http://www.w3.org/2000/svg" viewBox="0 0 300 300"><defs><style>.cls-1{fill:#be5e50;}</style></defs><g id="backHair_10"><path class="cls-1" d="m188.07,38.09c-2.12-1.24-.97-.99-3.06-3.27-.93-1.02-2.47-1.9-3.9-3.12-1.13-.97-2.9-1.34-4.37-2.35-1.26-.86-1.97-2.88-3.5-3.71-1.36-.74-2.73-1.9-4.31-2.58-1.43-.62-3.35-.41-4.97-.95-1.49-.5-3.43.39-5.08-.03-1.53-.38-3.14-.27-4.81-.56-1.55-.27-2.79-3.18-4.48-3.36-1.57-.17-3.4,2.22-5.08,2.14-1.58-.07-3.16-.78-4.84-.77-1.59.01-3.24-.67-4.92-.57-1.59.09-3.24.08-4.91.26-1.58.16-3.28-.06-4.94.19s-2.95,1.98-4.6,2.28-3,1.29-4.64,1.65-3.61-1.25-5.23-.84c-1.53.39-2.98,1.19-4.52,1.66s-3.16.59-4.69,1.11-2.54,2.29-4.05,2.87-2.78,1.51-4.26,2.15-3.82-.75-5.27-.06-2.73,1.72-4.16,2.45-2.75,1.65-4.15,2.43-3.03,1.18-4.4,2-2.52,2.03-3.86,2.9-2.5,2.01-3.82,2.93-2.74,1.67-4.02,2.62-2.2,2.38-3.45,3.38-2.3,2.21-3.52,3.25-2.38,2.1-3.57,3.17-3.23,1.22-4.39,2.33-1.07,3.44-2.19,4.59-1.83,2.61-2.9,3.79-2.89,1.67-3.93,2.89-3.21,1.52-4.2,2.77-1.79,2.69-2.74,3.98-1.03,3.2-1.93,4.52-1.49,2.83-2.35,4.18c-.85,1.34-2.67,2.12-3.48,3.5s-1.28,2.96-2.04,4.37.25,3.69-.45,5.13-2.04,2.52-2.69,3.98-.83,3.07-1.43,4.56-3.19,2.18-3.74,3.68-.9,3.09-1.39,4.61-1.24,2.99-1.67,4.53.42,3.42.04,4.98-1.32,2.97-1.65,4.54-.15,3.22-.42,4.8-.61,3.12-.82,4.72-.66,3.13-.81,4.73,1.38,3.28,1.28,4.88-.53,3.12-.57,4.73.2,3.14.21,4.75-1.13,3.18-1.06,4.79,1.32,3.09,1.43,4.69-1.81,3.34-1.65,4.94,2,2.96,2.21,4.56.47,3.12.73,4.71.4,3.13.71,4.71.95,3.02,1.3,4.59.82,3.04,1.21,4.6.68,3.08,1.11,4.63-.42,3.42.05,4.96,2.57,2.5,3.08,4.03.26,3.26.81,4.78c.78,2.34-.97,2.81.56,5.26.77,1.24,1.84,2.9,3.11,4.19,1.09,1.1,3.02,1.75,4.53,2.63,1.34.78,3.36.14,5.07.56,1.48.37,2.92.56,4.7.54,1.52-.02,3.03-.04,4.78-.42,1.49-.32,3.03-.63,4.7-1.25,1.4-.52,3.08-.51,4.7-1,1.44-.43,2.97-.81,4.6-1.2,1.46-.36,2.77-1.87,4.41-2.2,1.48-.3,3.16-.1,4.8-.37,1.5-.25,3.13-.15,4.77-.37,1.51-.21,3.13-.04,4.77-.23,1.52-.17,3.09-.42,4.73-.57,1.53-.15,3.11-.3,4.74-.43,1.54-.12,3.17.57,4.8.46,1.54-.1,3.09-.72,4.72-.81,1.54-.08,3.08-1.21,4.71-1.29,1.55-.07,3.14-.08,4.77-.14s3.13-.45,4.76-.5c1.55-.04,3.18,1.62,4.81,1.59s3.13-.82,4.75-.84c1.56-.02,3.15,1.1,4.77,1.08,1.56-.01,3.14-.74,4.75-.74,1.56,0,3.15-.35,4.76-.35s3.16-1,4.77-.99,3.14,1.65,4.75,1.66c1.57.02,3.15.23,4.76.25s3.17-1.04,4.78-1.01,3.13,1.4,4.74,1.44c1.57.03,3.18-1.2,4.79-1.16s3.17-.57,4.78-.53,3.15.22,4.76.27c1.57.05,3.11,1.66,4.72,1.71s3.15.28,4.75.33,3.22-1.59,4.82-1.54,3.1,1.58,4.71,1.64,3.23-1.78,4.84-1.72c1.57.06,3.09,1.88,4.69,1.95s3.16.14,4.76.21c1.57.07,3.22-1.07,4.82-1,1.57.07,3.11,1.24,4.71,1.32,1.57.07,3.21-.79,4.81-.71,1.57.08,3.21-.71,4.81-.63,1.57.08,3.1,1.4,4.7,1.48,1.58.08,3.13.81,4.73.89s3.18-.03,4.78.05c1.45.08,3.04-1.22,4.48-1.05s2.93.4,4.36.65c1.43.25,2.69,1.46,4.11,1.79s2.78.83,4.18,1.22,2.84,1.01,4.49,1.23c1.46.2,3.01-1.28,4.62-1.32,1.49-.04,2.95.51,4.5.17,1.45-.32,2.49-1.47,3.94-2.14,1.34-.61,2.72-.86,4.02-1.82,1.17-.87,3.41-.67,4.52-1.87.99-1.07.39-3.47,1.3-4.83.7-1.04,2.24-1.91,2.94-3.73.52-1.34.48-3.01.98-4.72.42-1.43,1.27-2.85,1.66-4.52.35-1.49,1.93-2.81,2.25-4.47.29-1.52-.99-3.39-.73-5.04.25-1.54-.19-3.2.03-4.85.2-1.55.73-3.09.9-4.73s.49-3.13.62-4.77,2.32-3.04,2.42-4.68-2.12-3.3-2.06-4.93-.04-3.18-.02-4.81.47-3.18.46-4.81,1.21-3.23,1.16-4.85-2.18-3.11-2.27-4.72.96-3.26.83-4.87-1-3.12-1.17-4.72.67-3.3.47-4.9-1.52-3.02-1.77-4.61.89-3.4.6-4.99-1.04-3.08-1.38-4.65.22-3.37-.16-4.93-1.04-3.08-1.47-4.63-.67-3.19-1.16-4.72-1.13-3.05-1.67-4.56-1.28-2.99-1.88-4.48-2.45-2.45-3.12-3.91-1.32-2.9-2.05-4.34-.44-3.41-1.24-4.81-2.38-2.33-3.24-3.69c-.86-1.36-.38-3.65-1.31-4.96s-4.02-1-5.03-2.26-1.17-3.16-2.24-4.36-2.7-1.82-3.84-2.95-1.77-2.74-2.99-3.81-2.79-1.6-4.07-2.59-2.39-2.07-3.73-2.98-2.18-2.52-3.57-3.35-3.02-1.15-4.47-1.89-2.46-2.32-3.95-2.97-3.16-.79-4.69-1.35-2.98-1.21-4.54-1.68-2.99-1.31-4.57-1.69-3.44.8-5.05.5-2.86-2.32-4.48-2.55-3.19-.62-4.82-.77-3.35,1.93-4.98,1.85-3.13-1.68-4.76-1.71-3.2.58-4.84.61-2.52-1.08-4.15-.99Z"/></g></svg>