<?xml version="1.0" encoding="UTF-8"?><svg id="backHair" xmlns="http://www.w3.org/2000/svg" viewBox="0 0 300 300"><defs><style>.cls-1{fill:#be5e50;}</style></defs><g id="backHair_12"><path class="cls-1" d="m296.57,130.11c0-1.26,2.77-2.77,2.53-3.97s-3.37-1.6-3.83-2.73c-.47-1.16,1.52-3.6.85-4.63s-3.72-.2-4.58-1.09.08-3.9-.94-4.61-4.15.66-5.29.16c.45-.56,3.32-1.17,3.71-1.78s-1.81-2.65-1.5-3.3,3.28-.2,3.51-.88-2.36-2.17-2.2-2.88,3.15-.92,3.23-1.65-2.78-1.59-2.78-2.32c0-1.4,2.73-3.08,2.45-4.39-.29-1.36-3.48-1.76-4.04-2.99s1.22-3.92.4-5.01-3.88-.15-4.92-1.05-.49-4.07-1.7-4.73-4.01,1.26-5.34.86c.18-.41,2.57-1.51,2.72-1.94s-2.47-1.76-2.34-2.2,3.06-.16,3.16-.6-2.69-1.4-2.63-1.85,3.01-.59,3.04-1.04-2.86-1-2.86-1.46c0-1.73,2.64-3.79,2.21-5.38s-3.76-2.11-4.6-3.56.41-4.57-.79-5.76-4.3.06-5.76-.79c-1.45-.84-1.91-4.16-3.56-4.6s-3.65,2.21-5.38,2.21c-.04,0-.13-2.91-.17-2.91s.04,2.91,0,2.92-.26-2.9-.3-2.9.11,2.91.07,2.92-.27-2.9-.31-2.9-1.44,1.26-1.48,1.26c.08-.29,3.02-.04,3.09-.33s-2.72-1.19-2.66-1.49,2.98-.11,3.02-.4-2.81-.94-2.79-1.24,2.95-.39,2.97-.69-2.89-.67-2.89-.97c0-1.73,2.64-3.79,2.21-5.38s-3.76-2.11-4.6-3.56.41-4.57-.79-5.76c-1.19-1.19-4.3.06-5.76-.79-1.45-.84-1.91-4.16-3.56-4.6s-3.65,2.21-5.38,2.21c-.69,0-1.53-2.87-2.2-2.8s-.9,3.05-1.56,3.2-2.1-2.48-2.74-2.27-.23,3.17-.84,3.45-2.57-1.98-3.16-1.64.36,3.21-.19,3.61c0-.06.68-1.26.69-1.32s-2.9-.31-2.89-.37,2.92.07,2.92.01-2.9-.28-2.9-.34,2.92,0,2.92-.07-2.91-.16-2.91-.22c0-1.73,2.64-3.79,2.21-5.38s-3.76-2.11-4.6-3.56.41-4.57-.79-5.76-4.3.06-5.76-.79-1.91-4.16-3.56-4.6-3.65,2.21-5.38,2.21c-1,0-2.21-2.82-3.17-2.67s-1.29,3.21-2.22,3.5-2.95-2.02-3.83-1.59-.25,3.44-1.05,4.01-3.42-1.04-4.13-.36-1.16,3.69-1.76,4.47c-.35-1.4,1.26-4.62.63-5.88s-3.85-.91-4.75-2.02.1-4.18-1.02-5.06-3.86.82-5.16.21-1.68-3.81-3.09-4.13-3.11,2.41-4.57,2.41c-.94,0-2.08-2.83-2.98-2.7s-1.21,3.17-2.09,3.43-2.79-2.12-3.63-1.74-.25,3.38-1.02,3.89-3.27-1.25-3.97-.64-.69,3.79-1.29,4.5c-.57-.95.18-4.23-.54-5.07s-3.55.46-4.4-.25-.12-3.72-1.08-4.27-3.18,1.62-4.23,1.25-1.36-3.46-2.47-3.65-2.43,2.61-3.56,2.61c-1.35,0-2.96-2.74-4.22-2.48s-1.69,3.44-2.89,3.96-3.79-1.34-4.86-.58-.17,3.82-1.07,4.78-4.01.26-4.7,1.39.31,4.49-.13,5.74c-.55-1.03-.37-4.32-1.09-5.23s-3.62.25-4.5-.51c-.87-.76-.1-3.79-1.1-4.39s-3.3,1.51-4.39,1.1-1.42-3.51-2.58-3.72-2.54,2.58-3.72,2.58c-1.46,0-3.21-2.71-4.58-2.41s-1.82,3.53-3.1,4.14-4.05-1.08-5.16-.2-.11,3.96-1.02,5.07-4.11.75-4.75,2.03,1.17,4.33.83,5.73c-.59-.54-1.35-3.29-2-3.75s-2.87,1.58-3.57,1.2-.19-3.35-.94-3.64-2.39,2.23-3.16,2.04-1.01-3.2-1.81-3.3-1.76,2.76-2.56,2.76c-1.73,0-3.79-2.64-5.38-2.21s-2.11,3.76-3.56,4.6-4.57-.41-5.76.79.06,4.3-.79,5.76-4.16,1.91-4.6,3.56c-.43,1.6,2.21,3.65,2.21,5.38,0,.03-2.91.12-2.91.15s2.91-.07,2.91-.04-2.9.25-2.9.28,2.91-.13,2.91-.1-2.9.24-2.9.27,1.29,1.43,1.29,1.46c-.25-.06-.04-2.99-.29-3.05s-1.05,2.76-1.3,2.72-.09-2.96-.35-3-.83,2.84-1.09,2.81-.33-2.95-.59-2.96-.58,2.89-.84,2.89c-1.73,0-3.79-2.64-5.38-2.21s-2.11,3.76-3.56,4.6-4.57-.41-5.76.79.06,4.3-.79,5.76-4.16,1.91-4.6,3.56,2.21,3.65,2.21,5.38c0,.41-2.9.91-2.87,1.31s2.96.54,3.02.94-2.76,1.27-2.68,1.67,3.01.15,3.11.55-2.58,1.61-2.45,1.99,3.08.03,3.23.41c-.08,0-1.48-1.18-1.55-1.19s-.36,2.9-.43,2.89.03-2.92-.05-2.92-.3,2.9-.38,2.9-.05-2.92-.13-2.92-.19,2.91-.27,2.91c-1.73,0-3.79-2.64-5.38-2.21s-2.11,3.76-3.56,4.6-4.57-.41-5.76.79.06,4.3-.79,5.76-4.16,1.91-4.6,3.56c-.43,1.6,2.21,3.65,2.21,5.38,0,1.03-2.81,2.27-2.66,3.25s3.22,1.32,3.53,2.27c.32.97-1.97,3.02-1.51,3.92s3.47.24,4.06,1.06c.6.82-.95,3.48-.23,4.19s3.7,1.19,4.52,1.79c-1.46.3-4.66-1.42-5.98-.81s-1.11,3.86-2.27,4.76-4.24-.14-5.18,1c-.93,1.13.7,3.94.05,5.27s-3.87,1.73-4.21,3.18,2.38,3.2,2.38,4.71c0,1.09-2.8,2.41-2.63,3.45s3.26,1.4,3.61,2.4-1.86,3.19-1.34,4.12,3.54.24,4.2,1.08-.72,3.61.08,4.34,4.09.3,4.99.88c-.91.58-4.2.16-4.99.88s.59,3.49-.08,4.34c-.66.84-3.68.13-4.2,1.08s1.7,3.1,1.34,4.12-3.43,1.33-3.61,2.4c-.17,1.04,2.63,2.36,2.63,3.45,0,1.73-2.64,3.79-2.21,5.38s3.76,2.11,4.6,3.56-.41,4.57.79,5.76,4.3-.06,5.76.79,1.91,4.16,3.56,4.6,3.65-2.21,5.38-2.21c.02,0,.1,2.91.12,2.91s-.1-2.91-.07-2.91.24,2.9.26,2.9-.16-2.91-.13-2.91.22,2.91.24,2.9,1.38-1.09,1.4-1.09c-.11.33-3.02-.1-3.11.23s2.65,1.36,2.58,1.7-3,.13-3.05.47,2.78,1.07,2.75,1.42-2.97.45-2.99.79,2.88.77,2.88,1.11c0,1.73-2.64,3.79-2.21,5.38.44,1.65,3.76,2.11,4.6,3.56s-.41,4.57.79,5.76,4.3-.06,5.76.79,1.91,4.16,3.56,4.6,3.65-2.21,5.38-2.21c.79,0,1.74,2.85,2.51,2.76s1.02-3.1,1.77-3.28,2.38,2.35,3.1,2.08.24-3.25.93-3.61,2.87,1.71,3.51,1.27.38-3.58.96-4.1c15.19-.42,15.26,2.74,30.45,2.57s15.17-3.09,30.36-3.26,15.23,2.74,30.43,2.57,15.17-3.09,30.36-3.26c15.2-.17,15.23,2.74,30.43,2.57s15.16-3.04,30.36-3.26c.47,0,.77,2.76,1.35,2.58.25-.08-.32-2.95.02-3.06.27-.09,1.49,2.58,1.81,2.47.28-.09-.37-2.95-.06-3.06.29-.1,1.56,2.54,1.88,2.42.29-.1,1.49-1.97,1.8-2.09.11,1.64-2.35,4.07-1.85,5.58s3.82,1.76,4.69,3.11-.31,4.46.87,5.55,4.18-.29,5.6.49,1.84,4.05,3.42,4.46,3.49-2.27,5.14-2.27,3.79,2.64,5.38,2.21,2.11-3.76,3.56-4.6,4.57.41,5.76-.79-.06-4.3.79-5.76c.84-1.45,4.16-1.91,4.6-3.56.43-1.6-2.21-3.65-2.21-5.38,0-.36,2.9-.81,2.88-1.17s-2.95-.47-3-.83,2.79-1.14,2.73-1.49-2.99-.13-3.07-.49,2.64-1.44,2.54-1.79-2.47-1.46-2.59-1.8c1.22-.46,4.02,1.36,5.12.67s.34-3.78,1.28-4.68,3.99,0,4.73-1.07-1.17-3.6-.65-4.81,3.66-1.56,3.93-2.85-2.5-2.83-2.5-4.16c0-.8,2.85-1.76,2.76-2.53s-3.1-1.03-3.29-1.79,2.34-2.4,2.06-3.13-3.26-.24-3.63-.93,1.69-2.89,1.24-3.53-3.56-.73-4.08-1.32c.78-.6,3.99.06,4.68-.65s-.93-3.32-.36-4.13,3.57-.16,4.01-1.05-1.89-2.88-1.59-3.83,3.35-1.23,3.5-2.22-2.67-2.17-2.67-3.17Z"/></g></svg>