<?xml version="1.0" encoding="UTF-8"?><svg id="backHair" xmlns="http://www.w3.org/2000/svg" viewBox="0 0 300 300"><defs><style>.cls-1{fill:#be5e50;}</style></defs><g id="backHair_13"><path class="cls-1" d="m24.59,273.74c-.39-.29-1.41-1.63-1.06-2.59.21-.57.86-1.2,1.2-1.89.29-.6,1.78-.67,2.1-1.3s.38-1.4.66-2.02c.32-.69,1.65-1.03,1.83-1.63.27-.86-1.38-1.58-1.62-2.04-.21-.4-.27-1.15-1.24-1.27-.61-.07-1.36.6-2.12.58-.67-.02-1.36-1.26-2.07-1.27s-1.48,1.64-2.15,1.61c-.77-.04-1.6-.23-2.19-.35-.92-.18-2.52-.95-2.68-1.47-.14-.46,2-.8,2.7-1.5.44-.43.9-.86,1.51-1.34.53-.42,1.23-.66,1.8-1.09s-.07-2.39.46-2.82c.6-.49,1.83-.17,2.25-.62.65-.69,1.41-1.56,1.31-2.07-.1-.47-1.7.41-2.61.07-.58-.22-.63-2.37-1.37-2.56-.65-.17-1.4-.18-2.1-.34s-1.69.84-2.34.66c-.74-.2-1.35-.81-1.91-1.05-.88-.37-1.62-.9-1.69-1.42-.07-.49.66-1.02,1.44-1.61.49-.37.93-1.02,1.6-1.42.58-.35,1.83.38,2.45.02s.45-2.06,1.03-2.41c.66-.4,1.62-.24,2.1-.63.75-.59.19-1.15.14-1.66s.1-.57-.77-1c-.55-.27-.63-1.99-1.36-2.26-.64-.23-1.89,1.17-2.57.94s-1.5-.14-2.13-.37c-.72-.27-.82-1.91-1.37-2.19-.85-.44-2.81-.43-2.84-.94s1.21-1.78,2.02-2.32c.51-.34,1.88.53,2.56.18.6-.31.61-1.91,1.25-2.22s1.19-.76,1.79-1.07c.68-.35,2.42,1.13,2.93.79.79-.54-.2-1.99-.22-2.5s.77-1.87-.07-2.35c-.54-.31-1.46-.27-2.17-.57-.62-.27-1.03-1.21-1.69-1.48s-1.3-.52-1.92-.79c-.71-.31-2.22,1.17-2.75.86-.83-.48-1.36-1.56-1.36-2.07s1.08-.64,1.9-1.15c.53-.32,1.07-.74,1.77-1.06.61-.28,1.67.36,2.32.08s1.29-.7,1.9-.98c.7-.32.25-2.69.78-3.02.82-.51.77-.05.77-.55s.54-.82-.28-1.34c-.52-.33-.99-.97-1.68-1.3-.61-.29-1.63.23-2.28-.06s-1.47-.27-2.09-.56c-.7-.33-.71-1.89-1.24-2.22-.82-.51-1.79-.76-1.78-1.27s.81-1.04,1.64-1.52c.53-.31,1.48.04,2.19-.26.62-.27.63-2.15,1.29-2.41s1.25-.64,1.88-.91c.71-.3,1.51-.06,2.05-.37.84-.48,2.86-.34,2.88-.84s-1.26-1.63-2.06-2.16c-.51-.34-1.62.07-2.31-.27-.6-.31-1.33-.43-1.97-.74s-.74-1.73-1.34-2.04c-.69-.35-2.25.88-2.76.54-.81-.53-1.15-1.91-1.13-2.41s1.16-.6,2.01-1.06c.54-.3,1.22-.39,1.94-.68.63-.25,1.11-.96,1.78-1.21s1.47-.19,2.1-.44c.72-.28,1.46-.53,2-.82.86-.46.47-1.41.49-1.91s-.08-.54-.86-1.1c-.5-.36-.5-1.75-1.18-2.11-.6-.32-1.38-.39-2.02-.71s-1.85.46-2.45.14c-.68-.36-1.06-1.25-1.57-1.6-.8-.55-.83-1.31-.8-1.81s.23-1.1,1.08-1.55c.55-.29,1.07-.98,1.79-1.25.63-.24,1.1-1.13,1.77-1.36s1.81.84,2.44.6c.72-.27,1.71.07,2.26-.21.87-.44.92-1.65.96-2.14.04-.52-.42-.87-1.18-1.44-.49-.37-.39-1.95-1.06-2.33-.59-.33-1.19-.8-1.82-1.14s-1.82.39-2.41.07c-.68-.37-1.02-1.12-1.52-1.47-.81-.56-1.27-.58-1.23-1.07.04-.53.81.1,1.64-.34.55-.29.8-1.19,1.53-1.45.63-.23,1.01-1.34,1.69-1.57s1.68.5,2.32.29c.73-.25,1.55-.34,2.11-.59.9-.41,1.43-1.55,1.47-2.02.05-.54-1.42-.21-2.13-.8-.47-.4-.36-1.63-1.02-2.03-.58-.35-1.75.31-2.38-.04s-.9-1.34-1.49-1.68c-.67-.38-.69-1.71-1.2-2.05-.84-.57-1.4-.55-1.36-1,.08-.78.69-.65,1.33-1.08.55-.37,1.05-.29,1.83-.5.68-.19.92-2.5,1.66-2.64s1.48-.11,2.17-.25c.8-.16,1.6.32,2.18.07.81-.35.13-.62.19-1.34.02-.51.88-1.01.1-1.58-.51-.37-.73-1.48-1.41-1.86-.6-.33-1.06-1.07-1.7-1.41s-2.09.85-2.69.52c-.68-.38-1.1-1.13-1.61-1.49-.8-.57-1.39-1.09-1.35-1.59s.97-.38,1.82-.82c.55-.28,1.31-.06,2.04-.33.64-.23.55-2.64,1.24-2.87s2.15,1.8,2.79,1.57c.73-.26.53-2.61,1.09-2.89.87-.43,2.24.04,2.29-.45s-1.11-.68-1.85-1.28c-.48-.39-.46-1.65-1.12-2.06-.58-.36-1.79.26-2.41-.11s-.82-1.43-1.4-1.79c-.66-.41-1.27-.77-1.75-1.16-.76-.61-.42-.95-.35-1.45s-.4-1.49.49-1.86c.57-.24,1.57.42,2.32.21.65-.19,1.35-.3,2.05-.48s.96-1.96,1.62-2.15c.75-.21,2.18,1.75,2.76,1.52.9-.36.81-1.91.9-2.4s.01-1.13-.68-1.8c-.45-.43-.29-1.87-.92-2.33-.54-.41-1.71-.07-2.3-.48s-.81-1.3-1.36-1.71c-.62-.46-1.23-.7-1.69-1.13-.71-.67-1.19-.59-1.08-1.08s.42-.56,1.33-.86c.59-.19,1.27-.19,2.03-.33.67-.13,1.16-1.46,1.87-1.57s1.42-.13,2.09-.25c.76-.14,1.27-.75,1.86-.93.93-.28.68.02.82-.46s.22-.15-.4-.88c-.4-.47,0-1.82-.56-2.34-.5-.46-1.42-.5-1.97-.97s-1.68-.29-2.19-.75c-.58-.52-1.28-1.05-1.69-1.51-.64-.73-.6-2.42-.44-2.9s1.3-1.1,2.24-1.3c.61-.13,1.45.46,2.22.4.68-.06,1.31-1.61,2.03-1.65s1.48.91,2.16.85c.77-.06,1.65.88,2.26.77.95-.18,1.75-1.03,1.93-1.49s-1.38-.54-1.92-1.33c-.35-.51-.09-1.5-.6-2.08-.45-.51-1.48-.52-1.97-1.05s-.89-1.17-1.34-1.68c-.51-.58.79-2.51.44-3.02-.56-.8-2.71-1.24-2.49-1.7s1.74-1.2,2.7-1.29c.62-.05,1.43.82,2.2.85.68.03,1.36.61,2.08.66s1.41.75,2.09.79c.77.04,1.58-.55,2.2-.59.97-.06,1.31-.94,1.56-1.38s.75-1.14.32-2c-.28-.56-.61-1.26-1.04-1.9-.38-.57-2.14-.22-2.55-.81s1.02-2.45.64-3.01c-.43-.64-2.66-.17-2.94-.72-.44-.87.24-2.12.51-2.54s1.07-.19,2.03-.14c.62.03,1.28.21,2.04.35.67.12,1.56-.68,2.26-.53s1.33.63,2,.75c.76.14,1.35,1.51,1.97,1.56.96.07,1.23-1.46,1.53-1.85s.08-.49-.22-1.39c-.19-.59-.18-1.3-.51-2-.29-.62-.77-1.16-1.09-1.81s-.39-1.42-.68-2.03c-.33-.7-1.22-1.2-1.42-1.79-.31-.92-.25-2.63.09-3.01s1.57,1.52,2.51,1.72c.61.13,1.24.02,1.97.28.64.22,2.06-1.57,2.73-1.31s.91,1.67,1.55,1.89c.73.26,1.48.24,2.09.38.94.22,1.44.23,1.8-.12s1.12-.97.96-1.91c-.1-.61-.3-1.38-.52-2.12-.19-.65-1.58-.98-1.8-1.66s1.33-1.91,1.14-2.56c-.22-.74-1.74-1.08-1.84-1.69-.16-.96-.37-2.29.03-2.61s1.2,1.33,2.1,1.68c.58.22,2.02-1.23,2.7-.86.6.32.16,2.6.78,2.95s1.69-.05,2.29.27c.68.37,2.03-.92,2.6-.69.9.36.49.78.9.5s.14-.07.12-1.02c0-.62.94-1.35.84-2.11-.09-.67.18-1.44.06-2.15s.59-1.52.5-2.19c-.1-.77-1.4-1.34-1.41-1.95-.01-.97.39-1.39.83-1.64s1.29-.93,2.13-.45c.54.31.16,2.15.79,2.62.54.41,2.08-.42,2.64.02s1.01,1.03,1.55,1.44c.62.47,1.54.25,2.07.56.83.49,1.08,1.8,1.53,1.58s-.41-1.22-.28-2.17c.08-.62,1.39-1.2,1.4-1.97,0-.68-.87-1.39-.88-2.11s.3-1.45.31-2.13c0-.78.35-1.49.43-2.11.13-.96.26-1.91.73-2.11.5-.2,1.71-.17,2.51.44.52.39.59,1.52,1.17,2.08.51.49,2.04.02,2.57.55s.84,1.22,1.37,1.7c.59.55.21,2.17.75,2.53.78.53,1.51-.37,2.07-.53.52-.15,1.59.17,1.93-.75.22-.61.04-1.48.22-2.27.17-.69.34-1.42.5-2.15s.36-1.45.53-2.13c.2-.78-.28-1.78-.02-2.37.37-.88,1.35-1.5,1.92-1.62.54-.11.72,1.08,1.42,1.78.46.46.91.95,1.4,1.58.44.56.52,1.41.96,2.01s2.4.05,2.84.61c.5.63.21,1.88.68,2.33.69.66,1.38-.19,1.95-.28s.61.05,1.05-.82c.29-.58.37-1.27.64-2.02.24-.67.9-1.22,1.13-1.93s.57-1.4.81-2.06c.28-.76.63-1.46.94-2.03.45-.85,1.05-1.84,1.62-1.91s1.73.46,2.37,1.2c.43.49,1.25.95,1.7,1.62.39.59.17,1.64.57,2.28s.21,1.65.61,2.24c.45.67.53,1.67.96,2.16.64.72,1.86-.36,2.42-.41s1.91.74,2.4-.1c.33-.56.4-1.47.72-2.21.28-.65.45-1.4.73-2.1s-1.09-2.09-.81-2.74c.32-.74.76-1.56,1.1-2.12.5-.83,2.21.45,2.78.42s.63-.36,1.24.41c.4.51,1.03.92,1.44,1.62.36.61-.06,1.69.31,2.35s2.71.16,3.08.77c.41.69.49,1.39.9,1.9.6.75.51.84,1.07.82s2.22,1.06,2.76.25c.36-.54.46-1.51.81-2.24.31-.64-.28-1.75.02-2.43s.51-1.42.82-2.06c.35-.72,1.61-.82,1.97-1.36.54-.81.34-2.41.9-2.42s1.38.91,1.95,1.69c.38.52-.4,1.85-.01,2.55.34.62,2,.59,2.33,1.26s.87,1.22,1.2,1.84c.38.71-.73,2.34-.35,2.86.57.78,2.05-.44,2.61-.44s.88.37,1.45-.41c.38-.53,1.69-.63,2.07-1.34.33-.62-.06-1.68.28-2.35s.51-1.43.84-2.05c.38-.71,1.01-1.22,1.39-1.75.57-.79,1.09-1.72,1.65-1.71s.6,1.26,1.15,2.07c.36.54,2.07.44,2.42,1.16.31.63.8,1.26,1.11,1.94s-1.37,2.31-1.06,2.94c.36.72,2.43.41,2.79.95.54.81.32,2.38.88,2.4s2.06-.31,2.66-1.07c.4-.51.82-1.31,1.23-2.01.36-.61-.22-1.82.14-2.48s.72-1.32,1.08-1.93c.41-.7.32-1.72.72-2.23.6-.77,1.66.22,2.21.25s.4,0,.91.81c.34.55,2.16.43,2.49,1.16.29.65-.82,1.94-.54,2.63s1.97.79,2.25,1.44c.32.74.9,1.15,1.24,1.7.5.83.05,2.06.6,2.11s1.51-.21,2.14-.94c.43-.49,1.59-.7,2.03-1.37.39-.59-1.12-2.43-.73-3.07s1.46-.87,1.84-1.47c.44-.68.95-1.26,1.37-1.75.63-.75,1.4-2,1.95-1.95s1.06,1.43,1.54,2.27c.32.56,1.01,1.11,1.3,1.87.26.66-.08,1.59.17,2.29s1.41,1.07,1.66,1.73c.29.75-1.21,2.28-.91,2.85.46.87,1.98.68,2.52.75s.61-.66,1.28-1.33c.46-.46.48-1.24.96-1.89.42-.57,2.56.06,2.98-.56s-.29-2.05.12-2.62c.48-.65,2.23-.13,2.67-.6.68-.72.64-2.82,1.18-2.73.58.1.68,1.68,1.1,2.54.28.58,1.92.83,2.15,1.6.21.68.4,1.44.6,2.17s-2.05,2.12-1.85,2.8c.22.77.56,1.61.81,2.21.38.91,2.16.14,2.69.26.57.13.73.34,1.47-.23.52-.4,1.78-.12,2.34-.7.49-.51,1.1-1,1.6-1.56s.11-1.92.59-2.44c.55-.59,1.18-1.1,1.67-1.53.76-.66,1.39.26,1.89.42.6.2,1.61-.24,1.86.62.18.61.03,1.43.1,2.23.06.69-.94,1.47-.92,2.21s1.5,1.43,1.53,2.13c.03.79.02,1.5.09,2.14.12,1,.11,1.45.51,1.7.35.22.81.31,1.63-.19.5-.3,1.14-.58,1.72-1.01.51-.38.78-1.14,1.32-1.55s.94-1.01,1.45-1.39c.58-.43,1.97.45,2.47.15.83-.5.83-1.44,1.17-1.2s1.69,1.01,1.5,1.96c-.12.57-1.41,1.01-1.63,1.71-.19.61.32,1.49.11,2.13s-.41,1.27-.59,1.88c-.21.7-2.06.93-2.17,1.49-.19.94.68,1.74,1,2s1.02.35,1.9-.04c.53-.24.87-1.06,1.5-1.41.56-.31.78-1.25,1.36-1.6s2.21,1.14,2.77.83c.64-.36,1.06-.83,1.59-1.07.89-.39,1.41-1.47,1.72-1.19s-1.12.76-1.43,1.68c-.19.55-.15,1.18-.45,1.85-.26.58.64,1.73.35,2.34s-2.01.57-2.27,1.15c-.3.66.36,1.72.17,2.28-.31.91-.37,1.82-.08,2.12s1.14.08,2.06-.2c.56-.17,1.19-.41,1.86-.69.59-.24.72-1.65,1.34-1.91s1.9,1,2.49.76c.67-.28,1.13-.96,1.69-1.12.93-.28,2.48-1.05,2.75-.73s-1.6,1.31-2.02,2.18c-.25.52-.33,1.17-.7,1.79-.33.55.11,1.6-.25,2.17s-.22,1.44-.55,1.98c-.37.62-2.47.29-2.72.81-.42.87.78,1.83,1.03,2.16s.87,1.75,1.82,1.57c.57-.11,1.22-.71,1.92-.91.61-.17,1.15-.78,1.8-.98s1.12-.98,1.73-1.15c.7-.2,1.34-.62,1.91-.72.95-.17,1.65.4,1.89.75s.5,1.2-.01,2.02c-.31.49-1.24.7-1.68,1.28-.39.51-1.49.49-1.91,1.02s.78,2.31.39,2.82c-.44.58-1.03.9-1.34,1.39-.51.82-1.53,1.18-1.32,1.54s1.1.84,2.06.77c.58-.05,1.25-.42,1.97-.55.63-.11,1.07-1.43,1.73-1.56s1.67,1.63,2.3,1.52c.72-.12,1.19-1.7,1.77-1.74.97-.07.99.96,1.19,1.33s1.04.94.45,1.71c-.35.46-1.42.47-1.92,1-.43.47-.07,1.75-.54,2.24s-2.43-.44-2.86.03c-.5.53-.23,1.73-.58,2.19-.59.76-.65,1.41-.47,1.78s.74-.34,1.7-.32c.58,0,1.29,1.52,2.02,1.47.64-.05,1.36.26,2.03.19s1.19-1.87,1.83-1.92c.73-.05,1.48-.04,2.06-.03.97.02,2.56.48,2.72.86s-.5,1.95-1.16,2.66c-.39.43-1.81-.01-2.35.47-.48.43-1.41.37-1.92.81s0,2.06-.47,2.49c-.54.49-2.07-.07-2.47.36-.65.71-.46,2.02-.31,2.41s.95.65,1.91.75c.58.06,1.28-1.14,2.01-1.13.64,0,1.31,1.72,1.98,1.71s1.35-.9,1.99-.89c.73,0,1.47-.29,2.05-.23.96.11.91,1.14,1.04,1.54s-.23.08-.95.73c-.43.39-.97.66-1.55,1.1-.51.38-.13,2.02-.68,2.42s-.83,1.12-1.34,1.51c-.58.44-2.56-.85-2.99-.46-.71.65.19,2.05.3,2.45s.31.85,1.26,1.03c.57.11,1.35-.85,2.07-.78.64.06,1.27.33,1.95.38s1.32.53,1.96.59c.73.07,1.48-.09,2.05.02.95.18,2.29.79,2.39,1.2s-.73,1.67-1.49,2.26c-.46.36-.89,1.06-1.51,1.45-.54.34-1.09.77-1.67,1.12s-1.65-.11-2.19.23c-.61.39-1.97-.26-2.42.1-.76.59-1.24,2.18-1.16,2.59s1.7-.4,2.63-.15c.56.15.93,1.5,1.65,1.62.63.11,1.52-1.27,2.19-1.17s1.19,1.21,1.82,1.31c.72.12,1.35.45,1.91.61.94.25,1.77.53,1.84.95s-.23,1.54-1.03,2.08c-.48.32-1.73-.4-2.37-.06-.56.3-1.43.07-2.03.38s-1.3.49-1.86.8c-.64.35-.32,2.26-.8,2.58-.8.54-2.38.71-2.33,1.12s1.22,1.33,2.14,1.64c.55.19,1.54-.75,2.25-.58.62.15,1.39-.25,2.05-.11s1.35.25,1.97.4c.71.17,1.26.96,1.81,1.15.92.32.18,1.19.22,1.61.05.54.19.27-.56.88-.49.4-.46,1.63-1.13,2.05-.59.37-.76,1.53-1.4,1.91s-1.87-.27-2.46.1c-.67.42-.43,1.92-.92,2.33-.75.61-1.96.25-1.91.79s1.22-.12,2.07.35c.56.31.47,2.06,1.21,2.36.65.26,1.65-.3,2.34-.04s.7,2.25,1.35,2.51c.74.29,2.41-1.55,2.97-1.24.85.47,1.88,1.79,1.93,2.33s-2.09.34-2.85.94c-.5.39-1.03.68-1.71,1.08-.6.36-.41,2.12-1.05,2.49s-.93,1.3-1.52,1.65c-.68.41-1.55.26-2.05.66-.76.6-2.37.78-2.33,1.32s1.95-.01,2.79.47c.55.32,1.1.53,1.84.84.64.27.81,1.79,1.49,2.06s1.89-.71,2.53-.44c.73.31.85,1.87,1.4,2.19.84.48,1.17.82,1.21,1.36s.45,1.82-.32,2.41c-.5.39-1.73-.01-2.42.38-.6.35-1.83-.37-2.48-.02s-.81,1.61-1.41,1.96c-.69.4-1.43.7-1.94,1.08-.77.59-2.31,1.56-2.28,2.1s1.77,1.16,2.6,1.65c.55.33,1.78-.59,2.51-.27.64.28.42,2.7,1.1,2.98s1.9-.76,2.54-.48c.73.32,1,1.36,1.55,1.69.83.5,1.97.48,2,1.02s-1.17.56-1.95,1.14c-.51.38-1.21.45-1.9.84-.61.34-.74,1.61-1.39,1.95s-1.58.18-2.19.52c-.69.39-1.46.7-1.97,1.08-.78.58-.44,1.64-.41,2.18s-.09,1.4.73,1.91c.54.34,1.49.15,2.21.48.63.29,1.72-.4,2.39-.12s.7,2.1,1.34,2.39c.72.33,2.06-.54,2.6-.2.83.51,1.61,1.83,1.63,2.37s-1.27,1.08-2.05,1.65c-.51.38-1.62-.13-2.32.25-.61.33-.83,1.47-1.48,1.8s-1.76-.14-2.37.19c-.7.38-.14,2.66-.66,3.03-.79.57-1.68.16-1.67.69s-.11,1.64.7,2.16c.54.34,1.41.42,2.13.76.63.3,1.74-.38,2.41-.09s1.24.87,1.87,1.17c.72.33,1.73.22,2.26.56.82.52,2.04,1.86,2.05,2.39s-1.4,1.53-2.19,2.09c-.52.37-1.73-.19-2.43.18-.62.33-1.46.23-2.12.55s-1.22.9-1.84,1.22c-.7.37-.62,1.96-1.14,2.33-.8.55-1.06.56-1.05,1.09s-.17,1.2.63,1.73c.53.35,1.06,1,1.77,1.34.63.31,1.23.78,1.9,1.09s1.02,1.23,1.65,1.53c.71.34,1.25.58,1.78.93.82.53,3.03-.04,3.03.49s-1.39,1.24-2.18,1.78c-.52.36-1.08.95-1.79,1.31-.62.32-1.66-.13-2.32.19s-1.31.69-1.93,1.01c-.71.36-1.71.27-2.24.62-.81.54-.49,1.86-.49,2.39s.94.02,1.72.57c.52.36-.14,2.9.56,3.27.62.32,2.17-1.16,2.84-.84s.6,2.14,1.22,2.45c.71.35,1.78-.12,2.31.23.82.54,1.72,1.09,1.71,1.62,0,.56-.52,1.66-1.31,2.2-.53.36-1.97-.7-2.69-.35-.62.31-1.15.86-1.82,1.16s-1.43.45-2.06.75c-.72.34-.73,1.89-1.27,2.22-.83.52-2.83.56-2.84,1.08-.01.56,2.43.09,3.19.65.51.38-.13,2.72.57,3.1.61.33,1.94-.6,2.6-.27s.52,2.2,1.14,2.52c.7.37,2.32-.97,2.85-.61.82.56.61,1.61.59,2.13-.02.57-.45.67-1.24,1.19-.53.35-.46,2.07-1.18,2.4-.63.29-1.67-.18-2.35.1s-1.04,1.28-1.68,1.56c-.73.32-1.99-.62-2.55-.31-.86.49-1.94,1.32-1.97,1.82-.03.58.43,2.01,1.13,2.62.48.42,1.23.94,1.9,1.36.59.37,2.3-1.08,2.94-.72s1.1,1.07,1.7,1.41c.69.39.54,2.01,1.06,2.38.84.59.85.36.8.84-.06.68.84,1.75.21,2.18-.5.35-1.06,1.36-1.77,1.59-.62.21-1.66-.67-2.35-.53s-1.35.4-2,.51c-.74.12-1.54-.41-2.14-.31-1.05.19-2.15.58-2.25.86-.29.6-1.05,1.95-.78,2.69.22.59,1.74.8,2.14,1.44.36.58-.25,1.82.13,2.41s2.84.05,3.12.64c.33.71-1.76,1.72-1.82,2.35s1.33,1.92.62,2.41c-.37.26-2.16.54-3.05,0-.54-.32-1.24-.78-1.87-1.23-.56-.4-1.12-.85-1.71-1.27s-1.13-.79-1.71-1.16c-.66-.42-.77-1.46-1.35-1.71-.83-.36-1.91-1.97-2.42-1.72-.42.21-.76,1.94-.86,2.94-.06.62,1.03,1.42,1.02,2.2,0,.69-1.73,1.4-1.73,2.12s2.58,1.51,2.55,2.19c-.03.78-2.19,1.29-2.32,1.9-.18.91.49,2.24-.04,2.45-.46.18-1.18-.86-1.94-1.5-.48-.4-.98-.9-1.52-1.46-.48-.49-.81-1.17-1.31-1.69s-2.03-.02-2.52-.5c-.56-.55-.7-1.33-1.2-1.71-.75-.56-.88-.56-1.39-.4-.47.15-.38.27-.63,1.22-.16.6-1.97.99-2.09,1.76-.1.68.52,1.51.42,2.23s1.42,1.71,1.31,2.38c-.13.77-.53,1.6-.72,2.19-.29.9-2,.15-2.53.29-.48.13.06-.14-.63-.84-.44-.44-1.93-.01-2.41-.62-.43-.54-.13-1.68-.57-2.26s-1.97-.29-2.4-.82c-.49-.6-.52-1.53-.98-1.95-.69-.64-1.18-.38-1.71-.26-.49.11-2.25-.35-2.58.57-.21.59,1.7,1.95,1.52,2.71-.16.67-2.07.97-2.23,1.67s1.37,1.81,1.2,2.48c-.19.76-.33,1.6-.56,2.18-.36.88-1.44,2.19-1.97,2.28-.49.09-1.88-.88-2.52-1.62-.41-.47-.9-1.13-1.35-1.77-.39-.56-.11-1.64-.51-2.24s-.12-1.69-.52-2.25c-.45-.64-1.31-.99-1.74-1.44-.65-.7-1.74-2.07-2.27-1.99-.5.08-1.11,1.75-1.5,2.65-.25.57.36,1.57.13,2.32-.2.65-1.85.93-2.05,1.63s1.12,1.84.91,2.49c-.24.74-1.88.86-2.14,1.42-.41.86.13,2.66-.4,2.73s-1.36-1.07-1.97-1.83c-.39-.49-.93-1.04-1.35-1.7-.36-.58.25-1.79-.12-2.42s-2.1-.41-2.47-.98c-.42-.66-.31-1.56-.71-2.04-.61-.73-.91-.34-1.44-.28s-1.32-.47-1.74.41c-.27.56-1.53.92-1.79,1.66-.23.65,1.65,2.06,1.42,2.75s-.41,1.42-.64,2.07c-.27.73-.69,1.48-.97,2.03-.44.85-1.59,2-2.12,2.05s-1.48-1.18-2.07-1.97c-.37-.5.56-1.93.17-2.61-.34-.59-2-.49-2.35-1.12s-1.28-.92-1.62-1.51c-.39-.67-.69-1.19-1.07-1.68-.58-.76-.24-.87-.77-.83s-2.22-1.02-2.68-.16c-.29.55.62,1.86.33,2.58-.25.64.16,1.56-.09,2.24s-2.04.76-2.3,1.4c-.29.72-.46,1.33-.76,1.88-.47.84-.21,2.36-.74,2.39s-1.89-.5-2.44-1.3c-.36-.51,1.18-2.29.82-2.98-.32-.6-1.47-.8-1.79-1.45s-1.79-.69-2.12-1.29c-.37-.69-.3-1.48-.67-1.99-.56-.78-.66-.87-1.19-.84s-.17.36-.66,1.21c-.31.54-2.03.48-2.34,1.19-.27.63-.46,1.35-.73,2.02s-.77,1.23-1.04,1.86c-.31.72-.58,1.28-.9,1.82-.49.82-.37.43-.9.45s-.72.64-1.25-.18c-.34-.52-.43-1.25-.78-1.95-.31-.61-.4-1.36-.71-2.01s-1.45-.91-1.76-1.52c-.35-.7-1.62-.7-1.97-1.22-.54-.79-.11-2.61-.64-2.6s-.03,1.79-.53,2.62c-.32.53-1.33.73-1.65,1.44-.28.62-.68,1.23-.97,1.9s.1,1.65-.18,2.27c-.33.71-2.16.56-2.49,1.09-.51.81-.39,1.1-.91,1.1s.07-.57-.45-1.4c-.33-.53-2.04-.35-2.38-1.06-.29-.62.23-1.65-.07-2.31s-1.72-.8-2.02-1.42c-.34-.7-1.19-.92-1.53-1.44-.52-.81.06-1.79-.46-1.79s-2.09-.38-2.59.44c-.32.53,1.43,2.28,1.11,2.98-.28.62-1.98.64-2.26,1.3s-1.26.98-1.54,1.6c-.32.7-.38,1.32-.71,1.85-.51.8-.14,2.21-.67,2.2-.7.03-.27-1.36-.71-2.09-.33-.53-2.34-.35-2.6-1.1-.23-.65-.39-1.39-.62-2.08s.27-1.64,0-2.27c-.31-.72-1.26-.84-1.69-1.31-.51-.56-.59-1.59-1.36-1.54-.43.03-.22,1.13-.65,2.05-.26.55-.5,1.17-.76,1.89-.23.63-1.22,1.02-1.46,1.69s-.61,1.28-.87,1.9c-.29.71-.64,1.3-.95,1.82-.47.79-.7,1.92-1.24,1.94-.46.02-1.36-.76-1.87-1.61-.31-.53-1.01-1.04-1.34-1.73-.29-.61,1.34-2.14,1.05-2.79s-2.94-.18-3.23-.78c-.34-.69,1.61-2.64,1.26-3.15-.52-.78-2.14-.47-2.66-.45-.47,0,.08,1.06-.4,1.91-.3.54-.4,1.14-.7,1.84-.26.62-1.66.79-1.93,1.45s-.68,1.26-.95,1.87c-.31.7.36,1.93.04,2.45-.49.81-1.91,1.58-2.42,1.58-.48,0-.92-1.37-1.4-2.22-.3-.53.42-1.62.11-2.32-.27-.62-1.72-.77-1.98-1.42s.47-1.76.2-2.38c-.31-.7-1.82-.77-2.14-1.29-.49-.82-.66-2.57-1.17-2.58s-.42,1.93-.93,2.75c-.32.52-.94.94-1.27,1.63-.29.61,0,1.51-.3,2.15s-1.31.97-1.6,1.58c-.33.69-1.88.57-2.21,1.08-.52.81.06,1.72-.45,1.7s.08-.83-.37-1.7c-.28-.54-.94-.92-1.22-1.63-.24-.63-.62-1.23-.86-1.9s-.81-1.22-1.06-1.85c-.28-.71-.11-1.65-.4-2.19-.45-.84-1.51-2.28-2.01-2.31s-2.13.99-2.68,1.79c-.35.51-.31,1.5-.67,2.17-.31.59.05,1.59-.27,2.22s-.36,1.42-.68,2.01c-.36.68-2.03.43-2.38.93-.55.79-.02,1.4-.51,1.36s-.67-.17-1.08-1.05c-.26-.55.15-1.41-.1-2.13-.22-.64-2.47-.65-2.68-1.33s-.5-1.3-.72-1.94c-.25-.73.44-1.69.18-2.24-.41-.87-.77-.41-1.26-.47s-.93-.72-1.52.05c-.37.49-1.54.63-1.93,1.29-.34.58,1.16,2.27.81,2.88s-2.67.09-3.02.67c-.39.66-.46,1.35-.84,1.83-.59.76-.57,1.93-1.06,1.86s-1.74-.54-2.1-1.43c-.23-.57.75-1.7.55-2.44-.18-.65-1.73-.98-1.91-1.66s0-1.45-.19-2.09c-.21-.74.88-1.87.65-2.43-.36-.89-1.29-1.79-1.77-1.87s-.78,1.22-1.41,1.95c-.4.46-.65,1.1-1.08,1.73-.38.56-1.55.62-1.94,1.22s-.23,1.56-.61,2.11c-.43.63-.87,1.26-1.27,1.72-.63.73-1.57,1.2-2.05,1.1s-1.25-.86-1.55-1.77c-.19-.58.28-1.47.12-2.22-.14-.66.83-1.55.71-2.25s-2.2-1.03-2.33-1.69c-.16-.75,1.36-1.92,1.17-2.5-.3-.92-1.89-.41-2.36-.52s-1.34-.97-2.03-.3c-.44.43-1.43.65-1.91,1.24-.42.52.6,2.24.16,2.8-.43.56-2.09.16-2.51.69-.48.6-.81,1.13-1.25,1.56-.69.68-.91,2.39-1.38,2.25s-.53-1.51-.76-2.45c-.14-.59-.23-1.3-.32-2.06-.08-.67.84-1.46.78-2.17s-1.41-1.29-1.49-1.96c-.09-.76-.61-1.35-.75-1.94-.21-.94-.06-1.18-.52-1.34s-1.07-.6-1.82,0c-.48.38-1.41.51-1.95,1.05-.48.48-1.01.98-1.5,1.49s.48,2.45,0,2.93c-.54.54-1.8.34-2.27.72-.76.61-1.33.26-1.78.07s-.06-.46-.17-1.42c-.07-.61-1.79-1.24-1.79-2,0-.67.3-1.39.32-2.1s1.79-1.38,1.8-2.05c.01-.76-.2-1.59-.26-2.2-.09-.96-1.42-1.21-1.85-1.43s-1.53-1.38-2.36-.91c-.53.3-.97,1.14-1.59,1.6-.54.4-.66,1.43-1.23,1.87s-1.33.59-1.87.99c-.62.46-1.45.36-1.98.66-.85.49-1.23,1.69-1.65,1.43-.62-.39-.74-1.64-1.4-2.09s-1.72-.25-2.34-.7c-.65-.48-1.38-.83-1.95-1.29Z"/></g></svg>