<?xml version="1.0" encoding="UTF-8"?>
<svg id="backHair" xmlns="http://www.w3.org/2000/svg" viewBox="0 0 300 300">
  <path d="m300.77,273.88c-.19-.88-.61.45-1.42.04-.8-.41-.23-1.55-1.03-1.96-.81-.41-1.53,1.03-2.34.63-.81-.41-.52-.98-1.32-1.39-.81-.41-.26-1.48-1.07-1.89-.41-.21-1.01-.19-1.2-.31.46-1.35,1.79-2.69,1.85-4.13s-.61-2.97-.94-4.36-.77-2.9-1.51-4.12-1.5-2.77-2.65-3.67c-1.09-.85-3.12-.08-4.57-.53-1.28-.4-2.45-2.48-4.01-2.48-.69,0-.15.64-.79.72.2-1.11-1.96-1.69-2.01-2.85-.07-1.55,1.31-3.27.91-4.71s-1.61-2.72-2.34-4.04-.94-3.24-1.97-4.34-3.54-.44-4.83-1.25-1.94-2.74-3.42-3.2-2.16-1.29-3.73-1.35c.19-1.25.79-1.68.73-2.98-.07-1.67-2.07-3.15-2.44-4.73s.83-3.89.17-5.37-2.68-2.46-3.63-3.79-3.02-1.61-4.22-2.73-.65-3.12-2.07-3.96c1.16-.94.93-2.1,2.06-3.16s2.4-1.83,3.44-2.98,2.93-1.52,3.88-2.76.64-3.26,1.49-4.57c.8-1.24,2.62-1.96,3.36-3.34.7-1.3,1.01-2.9,1.65-4.33.6-1.34,2.11-2.44,2.65-3.91.51-1.38-1.33-3.63-.88-5.13.43-1.41,2.93-2.3,3.31-3.82.36-1.45-.3-3.16.03-4.65s-.59-3.16-.31-4.65.93-2.86,1.16-4.36,1.54-2.81,1.73-4.31-.45-3.08-.3-4.58,1.55-2.89,1.66-4.4.69-3,.76-4.51-2.12-3.08-2.09-4.59,1.38-3,1.36-4.51.48-3.05.42-4.55-1.07-2.98-1.18-4.48.19-3.05.04-4.55-2.32-2.76-2.52-4.25,1.79-3.29,1.55-4.78-1.12-2.88-1.41-4.35-1.49-2.75-1.83-4.22,1.45-3.49,1.06-4.94-.79-2.97-1.24-4.4-2.4-2.41-2.9-3.82-.22-3.17-.78-4.56-1.49-2.68-2.12-4.04-1.82-2.48-2.52-3.81-1.6-2.55-2.36-3.84-.98-2.95-1.82-4.2-2.01-2.29-2.91-3.49-1.63-2.57-2.61-3.72-1.69-2.59-2.73-3.67-2.55-1.74-3.67-2.75-1.68-2.74-2.86-3.68-2.65-1.58-3.9-2.44-2.67-1.48-3.97-2.26-2.22-2.33-3.58-3.01-3.82,1.08-5.22.48-1.92-3.33-3.35-3.83-3.31.44-4.78.02-2.94-.48-4.43-.82-2.76-1.43-4.26-1.69-2.84-1.58-4.36-1.76-3.09.46-4.62.35-3.03.51-4.56.47-2.98.14-4.51.17-2.3-1.41-3.83-1.32c-1.91-1.08-2.38.6-4.22-1.47-.82-.92-.84-2.91-2.09-4.03-.99-.89-2.56-1.26-3.84-2.2-1.1-.81-2.42-1.37-3.76-2.17-1.19-.71-2.72-.75-4.1-1.43-1.25-.61-1.89-2.66-3.31-3.22-1.31-.52-2.81-.64-4.26-1.09-1.35-.42-2.52-1.74-3.99-2.09-1.38-.33-3.22,1.55-4.71,1.29-1.4-.24-2.46-3.16-3.96-3.33-1.41-.16-3.07,2.12-4.57,2.04-1.42-.08-2.81-2.7-4.31-2.71-1.42,0-2.94.21-4.44.27s-2.85,1.2-4.35,1.32-2.83.71-4.32.89-2.92-.04-4.4.2-2.98-.17-4.45.11-2.62,1.66-4.08,1.99-2.81.69-4.26,1.06c-1.43.36-3.12-.03-4.55.47s-2.16,2.55-3.56,3.16-2.66,1.14-4.01,1.84-2.59,1.33-3.89,2.11-3.34.26-4.6,1.11-1.34,3.21-2.55,4.12-3.89-.14-5.06.83-1.49,2.87-2.61,3.88-1.26,2.96-2.35,4.02-2.13,2.01-3.18,3.1-3.13,1.14-4.13,2.27-2.14,2.11-3.1,3.27-2.2,2.08-3.13,3.27-1.05,2.96-1.94,4.17-1.49,2.59-2.34,3.83-2.01,2.24-2.82,3.5-2.35,2.07-3.13,3.35-.27,3.31-1.01,4.61-2.88,1.84-3.58,3.16-1.6,2.57-2.26,3.92.97,3.77.35,5.14-2.6,2.1-3.19,3.48-2.26,2.33-2.8,3.73.43,3.38-.07,4.79-.65,2.93-1.12,4.35-1.46,2.67-1.89,4.1-1.81,2.61-2.19,4.06-.15,3.07-.48,4.53-.68,2.93-.97,4.39-.99,2.88-1.24,4.36,1.55,3.25,1.35,4.73-2.53,2.72-2.68,4.21,1.14,3.1,1.04,4.6-1.36,2.94-1.4,4.44,1.53,3,1.55,4.5-1.53,3.04-1.46,4.53,1.53,2.9,1.66,4.39.87,2.88,1.06,4.36.03,2.98.29,4.46-.76,3.19-.44,4.65,1.35,2.76,1.73,4.21,1.44,2.67,1.89,4.1.73,2.87,1.24,4.28-.15,3.26.43,4.65,1.33,2.7,1.98,4.06,1.3,2.71,2.01,4.04,1.46,2.63,2.23,3.92,1.22,2.08,2.04,3.33c-1.43.61-1.55,2.36-2.84,3.23s-2.29,1.83-3.4,2.92-2.93,1.47-3.82,2.74-2.6,2.25-3.21,3.67-.79,3.21-1.09,4.74.96,3.16,1.03,4.75c.09,1.95.88,4.43,1.37,6.26-1.46.16-3.83.47-5.2.99s-2.98.53-4.2,1.34-1.89,2.26-2.89,3.33-1.75,2.21-2.46,3.48-1.54,2.43-1.89,3.86-1.47,2.85-1.4,4.34c.05,1.19.36,2.46.62,3.59s1.9,2.81,2.35,3.88c-1.58.04-3.35.55-4.64,1-1.45.51-3.88-.65-4.94.27s-2.25,2.52-2.95,3.79.48,3.37.2,4.81-1.68,2.85-1.55,4.31,1.06,2.83,1.61,4.18c-.52.42.58,1.91-.06,2.36-.69.48-2.1-1.52-2.78-1.03-.69.48.42,2.06-.27,2.54-.69.48-.28,1.07-.96,1.55-.69.48-1.27-.34-1.96.15-.69.49-1.33-.42-2.02.07-.69.49-2.77.65-2.7,1.49.07.93,3.42-1.07,4.18-.54.76.53-.28,2.03.48,2.56.76.53-.04,1.68.73,2.21.76.53.81.47,1.57,1.01.76.53.65.69,1.42,1.22.76.53,1.66-.75,2.43-.21.77.54.97.24,1.74.78s.6,2.45,1.5,2.23c.88-.22.8-1.36,1.18-2.18.38-.82,1.33-.38,1.71-1.19.38-.82-1.94-1.9-1.56-2.72.38-.82,2.17.02,2.55-.8.38-.82-.65-1.3-.27-2.12.1-.2.23.65.29.53,1.36.47,3.09-1.08,4.79-1.08s2.76-.74,4.13-1.21c1.56-.54,4.03.76,5.15-.25s.45-3.55,1.14-4.95,3.45-2.23,3.67-3.79-.27-2.8-.53-4.34c1.07.2,1.34-1.64,2.49-1.64,1.57,0,2.77-.05,4.27-.48s3.6.71,4.96-.08,3.14-1.4,4.26-2.49.43-3.69,1.24-5.03,3.34-1.98,3.75-3.5-.95-3.31-1.02-4.91c0,0,.62-.96.62-.96,1,.13,1.91.21,2.96.21,1.57,0,2.84-.61,4.38-.94s3.84,1.73,5.29,1.1,1.76-3.38,3.06-4.26,2.68-1.47,3.79-2.58,2.13-2.19,3.02-3.48,1.71-3.27,2.31-4.72c1.22.77,2.44,3.13,3.8,3.85,1.29.67,2.79,1.11,4.2,1.73,1.33.59,3.05.36,4.49.89s2.92.51,4.38.98,2.71,1.18,4.18,1.57,2.94.33,4.43.67,2.47,2.73,3.96,3.01,3.31-1.74,4.81-1.51,2.64,2.6,4.14,2.78,2.99.28,4.49.42,3.11-1.62,4.62-1.53,2.89,1.79,4.4,1.85,3.01-1.24,4.52-1.23,2.98,1.01,4.49.99,2.93-1.65,4.43-1.71,2.98.29,4.48.19,3,.24,4.49.11,3.04.42,4.53.25,3.01-.1,4.5-.3,3.04.03,4.52-.21,2.88-.95,4.36-1.23,3.02-.22,4.49-.53,2.52-2.43,3.98-2.77,2.99-.27,4.45-.65,2.93-.58,4.37-.99,3.06-.2,4.49-.64,2.69-1.42,4.11-1.89,2.87-.85,4.28-1.36,2.82-1,4.22-1.54,3.05-.46,4.43-1.03,3.11-3.07,4.48-3.68c.1,1.55.02,4.06.37,5.53s-.7,3.56-.1,4.94,1.48,2.95,2.33,4.21,1.98,2.63,3.06,3.72,3.43.75,4.7,1.61,2.82.78,4.25,1.37,2.35,2.17,3.88,2.48,2.97-.48,4.54-.48c1.7,0,3.92-.04,5.57-.43.17,1.49-1.05,4.17-.56,5.55s2.12,2.43,2.91,3.67,2.46,1.69,3.53,2.71,1.37,3.03,2.67,3.76,3.07.18,4.53.56,2.7.16,4.24.16c1.17,0,2.34.97,3.47.73s1.3.39,2.37-.06c-.01,1.4,2.33,1.42,2.69,2.77s-.16,2.91.59,4.08,1.28,2.68,2.42,3.54c1.07.81,2.4,1.75,3.82,2.18,1.25.38,2.84.79,4.35.79,2.4,0,4.34-1.77,6.07-2.67.09.31.16.92.47,1.38.46.7-1.08,1.72-.62,2.42.46.7.31.81.77,1.51.46.7.89.42,1.35,1.12.46.7,2.11-.38,2.58.32.46.7,1.17.24,1.64.94s-1.06,3.01-.22,2.97c.93-.04.9-1.25,1.46-2,.56-.75-.8-1.76-.25-2.5.56-.75,2.95,1.04,3.51.29.56-.75.28-.95.84-1.7.56-.75-1.33-2.15-.77-2.9.56-.75.73-.62,1.29-1.37.56-.75,2,.32,2.55-.43s-.26-1.08-.46-1.99Z" style="fill: #be5e50; stroke-width: 0px;"/>
  <g>
    <path d="m53.23,218.59c-.07.32.06.66.22.86s.38.53.67.62c.24.07.59-.23.88-.22.26.01.53.05.81.01.27-.03.51-.16.78-.23s.52-.14.77-.24c.26-.1.53-.15.76-.29.25-.15.66-.12.83-.31.2-.22,0-.64.06-.89.06-.26.36-.47.41-.73s-.16-.56-.12-.83.41-.48.44-.75.08-.53.1-.8-.38-.55-.37-.82.48-.52.48-.79-.03-.54-.04-.81-.12-.53-.13-.8-.22-.52-.25-.78.09-.55.06-.81-.1-.53-.14-.79-.06-.53-.12-.79-.08-.53-.14-.79-.44-.43-.51-.69.23-.62.15-.88-.51-.39-.6-.64-.21-.48-.31-.73c-.1-.24-.13-.41-.33-.55s-.4-.12-.65-.18c-.23-.06-.42-.55-.67-.55s-.5.26-.74.29c-.26.04-.55-.02-.75.04-.23.07-.47.15-.7.24s-.5.14-.71.26-.24.51-.41.68c-.15.16-.29.36-.42.58s-.19.36-.09.6c.1.25-.07.59.02.84s.17.5.25.75.36.44.43.7.07.53.13.79.03.53.08.79.11.52.15.78-.02.53.02.79.06.52.08.78.07.52.09.78.4.52.41.78-.12.53-.12.8-.29.52-.3.78-.02.52-.05.79-.09.52-.13.78-.13.51-.18.77-.02.53-.08.79Z" style="fill: #a8534a; stroke-width: 0px;"/>
    <path d="m73.21,220.7c-.26-.04-.52-.08-.78-.12s-.53,0-.79-.04-.49-.27-.75-.3-.5-.29-.76-.32-.53-.04-.79-.06-.53.05-.79.03-.53.03-.79,0-.52-.09-.78-.1-.53.1-.79.09-.52-.24-.78-.24-.53.04-.79.04-.53.07-.79.07-.53-.16-.79-.15-.51.37-.77.39-.53-.02-.79,0-.52.11-.78.13-.52.03-.78.06-.53-.02-.79,0-.55-.22-.81-.19-.47.46-.73.49-.55-.18-.81-.14-.48.33-.74.37-.58-.25-.83-.21-.52.07-.78.12-.43.51-.69.57-.61-.34-.87-.28-.51.14-.76.2-.49.22-.74.28-.46.31-.72.38-.55,0-.8.06-.5.17-.75.24-.51.12-.76.2-.51.12-.76.2-.4.47-.64.55-.63-.2-.87-.11-.37.52-.61.62c-.18.07-.39.2-.65.34-.22.12-.46.19-.65.35-.21.18-.25.36-.32.58s-.45.56-.25.8c.16.2.59.17.87.23.24.06.52.19.8.18.26-.01.55-.06.81-.11s.57-.05.81-.12c.3-.09.48-.45.67-.52.24-.09.47-.21.72-.3s.49-.16.74-.24.57.11.82.03.49-.15.74-.22.44-.34.69-.41.52-.07.77-.13.52-.03.77-.09.5-.12.75-.17.52,0,.77-.05.5-.09.76-.14.5-.12.75-.15.46-.45.71-.48.53.05.78.02.54.21.8.19.51-.06.77-.08.51,0,.77-.02.51.03.77.02.5-.48.76-.49.52.13.78.13.52-.03.77-.03.52,0,.77.01.5.37.76.39.54-.38.79-.36.48.43.74.45.52-.1.78-.08.5.16.75.19.55-.23.8-.2.49.2.75.24.5.13.76.17c.23.04.48-.22.73-.23s.47.12.71.08.54.21.78.14.44-.27.66-.36.3-.47.51-.59.61.03.79-.11c.27-.22.35-.55.43-.77.1-.3.17-.69-.07-.9-.18-.15-.58.02-.93-.04Z" style="fill: #a8534a; stroke-width: 0px;"/>
    <path d="m56.15,240.08c-.26-.01-.51-.07-.76-.08s-.51.04-.77.04-.51,0-.77,0-.51.07-.76.07-.51-.3-.77-.3-.51.28-.76.29-.51.03-.76.04-.51-.13-.77-.12-.51.1-.76.11-.51.08-.76.09-.5.1-.76.12-.51-.04-.77-.02-.54-.3-.79-.28-.48.4-.73.43-.53-.17-.78-.14-.48.27-.74.3-.5.07-.76.1-.5.07-.76.1-.49.14-.75.18-.56-.14-.82-.1c.07-.25.35-.49.41-.75s.1-.53.15-.78,0-.54.04-.8.01-.53.04-.8.12-.52.13-.78-.09-.53-.08-.8.24-.53.24-.79-.06-.53-.07-.8-.09-.53-.11-.79.12-.55.08-.81-.42-.48-.46-.74-.04-.52-.1-.78-.19-.49-.25-.75-.12-.51-.19-.76-.08-.52-.16-.77c-.1-.29-.2-.69-.5-.79-.25-.08-.62.27-.93.27s-.61-.22-.89-.17c-.34.06-.59.38-.79.43-.23.07-.56-.19-.79-.11s-.48.16-.7.27-.19.59-.37.74c-.14.12-.66-.04-.8.14s-.24.6-.17.82c.08.24.25.45.32.69s.32.44.38.69-.03.53.02.78.12.49.16.74.05.5.08.75.02.5.04.76.36.49.37.74-.37.52-.37.77.37.51.36.76.01.52,0,.77-.12.5-.15.76.03.52,0,.77-.55.42-.6.67.14.54.08.79-.2.41-.27.65c-.25.05-.43.09-.68.14s-.51.04-.75.1-.42.4-.66.46-.48.16-.72.22-.49.12-.73.18-.56-.14-.8-.07-.49.13-.73.2-.43.34-.67.41-.5.08-.74.15-.51.06-.75.14-.48.16-.72.24c-.16.05-.54.08-.87.23-.28.13-.6.31-.81.48-.27.23-.39.72-.17.99.14.16.51-.09.83-.08.23,0,.47.11.74.06.25-.04.56.17.81.11.26-.06.52-.15.75-.22.33-.1.61-.16.75-.2.25-.08.51-.11.77-.19s.37-.6.62-.67.55-.02.8-.09.5-.17.75-.24.51-.14.76-.2.6.22.85.16.42-.52.67-.58.6.27.86.22.48-.25.74-.3.54,0,.79-.04.46-.39.72-.43.54.04.8,0,.53-.03.79-.07.48-.36.74-.39.54.06.8.03.56.23.82.2.51-.19.77-.21.49-.36.76-.39.55.3.82.28.51-.18.78-.2.54.16.8.15.5-.42.77-.43.54.31.8.3.52-.33.78-.33.53,0,.79,0,.53.07.79.07.52.28.79.29.53-.23.79-.23.53-.06.79-.05.52.19.78.2c.27.01.54-.27.84-.3s.55,0,.84-.06.58-.02.85-.11.57-.13.82-.25c.27-.12.62-.1.86-.25.25-.16.27-.51.37-.65.17-.23.08-.21-.19-.33-.15-.07-.29-.24-.59-.25Z" style="fill: #a8534a; stroke-width: 0px;"/>
    <path d="m36.21,258.4c-.26,0-.51.21-.77.21s-.52-.38-.78-.38-.52.08-.78.08-.52.05-.78.05-.52.07-.78.07-.52-.07-.78-.06-.52.27-.78.27-.52.04-.78.04-.52-.23-.78-.22-.52.25-.78.26-.66-.09-.93-.08c-.03-.32-.04-.75-.1-1.07s.2-.71.11-1.02c-.06-.24-.37-.41-.45-.64s-.02-.52-.12-.74-.44-.34-.54-.56-.27-.4-.39-.61-.12-.49-.24-.7c-.13-.21-.39-.32-.7-.41s-.63-.19-.84-.2c-.25-.01-.5.05-.77.08s-.5.09-.75.16-.46.22-.68.33c-.19.09-.53-.08-.73.03s-.22.46-.38.6-.26.28-.36.48c-.06.15-.26.24-.32.4-.06.32.08.55.29.8.03.05.12.1.15.15.13.25.32.49.43.74s.15.56.24.83-.15.63-.08.9.47.57.52.85c-.26.03-.65-.08-.91-.05s-.48.29-.74.33-.51.1-.76.15-.51.11-.76.16-.49.19-.74.25-.55-.07-.8,0-.57-.08-.82,0-.5.17-.75.25-.46.26-.71.35-.47.24-.71.34-.51.14-.74.25-.42.33-.65.44-.57.04-.8.16-.44.3-.66.43-.41.33-.63.47-.53.15-.74.31c-.23.16-.21.63-.37.86s-.33.45-.39.72c-.06.28.02.5.13.77.1.23.22.4.5.58.2.14.37.29.61.36s.44.38.69.4.47-.39.72-.43.53.17.76.1.37-.39.59-.49c.23-.11.61.06.8-.07.21-.15.43-.26.64-.39s.23-.63.45-.74.66.18.89.07.44-.23.68-.32.43-.27.68-.35.43-.33.67-.4.53.01.78-.04.49-.13.74-.18.5-.06.75-.1.5-.04.76-.07.47-.38.72-.41.54.34.79.32.48-.41.73-.43c.26-.02.52-.07.78-.09s.52.05.78.03.51-.13.77-.14.54.45.8.44.51-.26.77-.27.52.1.78.09.52-.02.78-.03.52.06.78.05.51-.3.77-.31.52-.05.78-.05.52,0,.78,0,.52.27.78.27.52,0,.78,0,.52-.22.77-.22.52.06.78.05.52.08.78.07c.26,0,.56-.06.85-.14.26-.07.59-.09.85-.22s.53-.3.75-.47.43-.44.59-.67-.09-.61-.05-.89c.04-.28.13-.44.04-.64-.1-.23-.06-.57-.27-.72-.19-.13-.46-.24-.7-.32s-.49-.16-.73-.19c-.26-.03-.53.12-.75.13Z" style="fill: #a8534a; stroke-width: 0px;"/>
    <path d="m251.06,217.06c.25-.25.41-.49.48-.74.09-.32-.02-.52-.25-.75-.17-.18-.34-.51-.71-.58-.22-.05-.49.13-.75.13-.24,0-.51-.32-.76-.29s-.5.1-.74.16-.34.54-.57.63-.57-.05-.77.07c-.22.13-.38.34-.54.5-.19.19-.21.53-.39.73s-.52.26-.69.46-.28.46-.43.68-.48.33-.62.55.04.64-.09.87-.26.45-.38.69-.6.31-.71.56.18.65.09.9-.49.4-.57.65-.07.54-.14.8-.09.53-.15.79.08.56.04.82-.48.47-.51.73.05.46.03.73c-.26-.06-.42-.09-.68-.15s-.53-.05-.79-.1-.5-.16-.76-.21-.56.18-.82.14-.52-.04-.78-.07-.49-.29-.75-.32-.54.19-.8.17-.52-.08-.78-.09-.52-.11-.78-.11-.52-.35-.78-.35-.53.24-.79.24-.53-.15-.79-.14-.51.28-.77.3-.52.1-.78.12-.53-.09-.79-.06-.52.07-.78.1-.53.02-.79.05-.51.14-.77.18c-.24.04-.5.11-.79.19-.26.07-.48.22-.74.33s-.65-.04-.87.1c-.24.15-.27.53-.43.74s-.24.4-.29.69c-.06.33-.13.57.04.78s.44.29.72.4c.26.1.54.1.82.13.31.03.57-.04.8-.09.28-.05.57-.02.85-.06s.6.26.88.22.52-.42.8-.45.58.17.86.15c.2-.01.39-.24.59-.25-.04,0,.53-.03.62-.03.28,0,.57,0,.85,0s.57-.06.85-.05c.27.01.53.23.79.25.27.02.51.27.77.3s.53.04.79.08.53-.02.8.03.53.03.79.08.5.17.76.23.54,0,.8.08c.25.06.45.35.71.43.21.06.49.05.73.07.22.01.47-.05.71-.08s.28.04.5-.02c0,.28.29.37.3.65s-.03.55-.02.83.11.55.12.82.03.55.05.83-.03.56,0,.83-.23.58-.21.85.45.51.47.79c.02.23,0,.49.23.61s.58-.03.74,0c.23.05.44.41.69.41s.51,0,.75-.03.4-.5.62-.56c.2-.06.58.3.83.21.22-.08.46-.22.67-.33s.39-.35.57-.5c.19-.16.21-.46.32-.67s.3-.42.27-.67c-.03-.25-.07-.51-.1-.77s-.02-.52-.04-.78,0-.52-.03-.78-.36-.49-.38-.76.36-.54.34-.8-.39-.5-.4-.76-.05-.52-.06-.78.07-.53.07-.79-.09-.53-.09-.79.49-.5.5-.76-.21-.53-.19-.79.16-.51.19-.77.06-.52.1-.77.15-.5.21-.75-.18-.57-.12-.83.1-.52.17-.77.17-.5.25-.75.44-.38.55-.62.22-.46.34-.7.06-.56.2-.78.34-.4.49-.61.38-.36.55-.56.24-.48.43-.67Z" style="fill: #a8534a; stroke-width: 0px;"/>
    <path d="m267.05,235.54c.08-.35-.24-.64-.6-.7-.26-.04-.62-.02-.92.01-.38.04-.74.06-.89.09-.25.05-.53.03-.78.1s-.47.28-.71.37-.54.08-.77.19c-.16.07-.25.55-.49.69s-.77.08-.82.27c-.06.25.11.55.06.8s0,.52-.05.77-.33.46-.38.71-.24.48-.28.74.31.56.27.82.02.52,0,.77-.22.49-.25.74-.07.51-.09.76-.31.5-.32.75-.03.52-.04.77.23.52.23.78-.05.51-.05.77.13.51.13.77-.08.51-.07.77.08.51.09.76.01.54.03.8c-.27,0-.56.1-.82.11s-.55-.2-.81-.18-.51.25-.78.28-.57-.27-.84-.23-.53.1-.79.15-.45.51-.71.56-.58-.16-.84-.1-.5.19-.76.26-.45.36-.7.43-.57-.06-.83.03-.48.24-.73.33-.57,0-.82.1-.35.54-.59.65c-.21.09-.4.19-.61.36-.19.16-.67.05-.83.25s.06.63-.02.86c-.09.24-.45.45-.42.7.03.24.22.48.4.7.19.23.44.38.68.52s.56.04.84.09.54.45.83.44.59-.14.86-.21.55-.22.8-.33c.24-.11.46-.27.71-.37,0,0,.03.06.04.06.07-.01.29-.36.58-.46.31-.1.61-.24.65-.25.19-.05.45.12.64.07s.33-.33.53-.37c.06-.01.62-.07.75-.11,0,0,.05.07.06.07.29-.04.61.26.9.23s.55-.29.84-.31.58.13.87.12c.03,0,.17-.27.3-.27-.08,0,.49-.05.55-.05.22.01.47.2.7.22.05.25.13.52.18.77s.06.51.12.75.18.48.24.72.14.49.21.73.22.46.29.71-.14.58-.06.82.42.39.51.63.19.47.28.71c.08.22.19.4.54.45.23.03.51-.05.81-.07.26-.02.51-.11.8-.17.26-.05.51-.18.77-.26s.55-.09.8-.18c.27-.1.66.1.9,0,.28-.13.35-.58.54-.72.32-.23.64-.37.56-.56-.09-.24-.38-.41-.47-.65s-.18-.49-.26-.73-.17-.49-.24-.74-.23-.47-.3-.72.05-.55-.01-.8.09-.55.03-.8-.13-.49-.19-.74-.2-.48-.25-.73-.16-.49-.21-.75-.03-.52-.07-.77-.2-.49-.23-.75.16-.54.13-.79-.11-.5-.13-.76-.11-.5-.13-.76.13-.52.11-.78-.38-.5-.39-.75.03-.52.03-.77-.09-.52-.09-.77.01-.52.02-.77.09-.51.1-.77.31-.5.32-.75-.36-.54-.33-.8.3-.49.33-.74-.19-.54-.16-.8.41-.46.45-.72.11-.5.15-.75-.32-.58-.27-.84.55-.41.61-.66-.01-.53.05-.78Z" style="fill: #a8534a; stroke-width: 0px;"/>
    <path d="m283.68,268.17c-.11-.23.1-.6,0-.84s-.25-.45-.33-.69-.01-.52-.08-.77-.14-.48-.19-.73-.13-.48-.17-.73.05-.51.02-.76-.41-.47-.43-.73.32-.51.32-.77-.29-.51-.27-.77.01-.51.04-.77.06-.51.1-.76.19-.48.24-.73-.08-.55-.01-.8c.07-.26.27-.48.1-.63-.16-.14-.47-.07-.7-.13-.25-.06-.47-.11-.65-.09-.25.03-.46.18-.7.28s-.68-.06-.86.12-.12.56-.19.83c-.07.25,0,.52-.05.77s-.34.45-.39.7.17.54.14.79-.07.5-.08.75-.14.5-.14.75,0,.51,0,.76-.11.44-.09.69c-.3,0-.53-.03-.83,0s-.6.09-.89.15c-.23.05-.49.07-.73.14s-.5.1-.72.19-.39.35-.59.47-.49.18-.67.33c-.24.19-.2.6-.26.93-.05.27-.2.67.04.79.32.17.8-.01,1.16-.06.21-.03.39-.17.6-.23s.51.05.68-.08c.13-.1.33-.05.47-.14.01,0-.17-.35-.16-.36.03-.01.02-.11.05-.12.04-.02.16.11.21.1.09-.02.19-.03.28-.05.06,0,.15.25.22.25.01,0,.01,0,.02,0,.01,0,.01-.25.03-.25.08,0,.16.05.24.06.01,0,.04-.12.05-.12.12.02.23.14.35.17.27.07.61.02.91-.02.06.24.13.52.2.76s.21.45.29.69-.05.55.04.78.38.38.48.6c.11.23.08.65.29.76s.55.17.8.18.43-.44.66-.51c.17-.05.52.11.76-.04.21-.13.39-.35.53-.53.16-.21,0-.34-.11-.59Z" style="fill: #a8534a; stroke-width: 0px;"/>
  </g>
</svg>