<?xml version="1.0" encoding="UTF-8"?><svg id="backHair" xmlns="http://www.w3.org/2000/svg" viewBox="0 0 300 300"><defs><style>.cls-1{fill:#be5e50;}</style></defs><g id="backHair_5"><path class="cls-1" d="m264.21,170.51s27.93,2.8,21.95,44.43c-5.99,41.62-36.91,56.36-57.86,64.46,0,0,10.97-16.22,0-54.44-10.97-38.22,19.95-64.09,35.91-54.44Z"/><path class="cls-1" d="m116.37,39.25c-29.37,6.27-72.33,34.58-78.3,91.12-7.69,72.9,56.59,92.47,114.3,88.62,29.91-2,37.4,2.58,90.51-26.74,63.85-35.25,10.68-182.27-126.51-153Z"/></g><g id="backHair_2"><path class="cls-1" d="m264.21,170.51s27.93,2.8,21.95,44.43c-5.99,41.62-36.91,56.36-57.86,64.46,0,0,10.97-16.22,0-54.44-10.97-38.22,19.95-64.09,35.91-54.44Z"/><path class="cls-1" d="m116.37,39.25c-29.37,6.27-72.33,34.58-78.3,91.12-7.69,72.9,56.59,92.47,114.3,88.62,29.91-2,37.4,2.58,90.51-26.74,63.85-35.25,10.68-182.27-126.51-153Z"/></g><g id="backHair_1"><path class="cls-1" d="m264.27,170.1c-.19-.11,0,.34-.2.23.69-1.44,1.59-2.79,2.17-4.3s1.14-3.06,1.59-4.61.76-3.17,1.09-4.75-1.31-3.45-1.1-5.06,2.54-2.95,2.65-4.56c.11-1.59-1.24-3.26-1.23-4.88s-.44-3.15-.53-4.77c-.09-1.59-.23-3.14-.41-4.75-.17-1.58.82-3.33.55-4.92-.26-1.57-1.99-2.86-2.33-4.44-.34-1.56-.17-3.21-.6-4.77s-1.45-2.87-1.94-4.4c-.49-1.52.91-3.7.34-5.21-.56-1.49-.91-3.14-1.54-4.62s-1.51-2.88-2.21-4.34-2.37-2.41-3.13-3.83-.48-3.43-1.31-4.82-1.61-2.83-2.49-4.18-3.59-1.43-4.53-2.74c-.93-1.3-1.09-3.16-2.09-4.43-.99-1.26-1.43-2.99-2.48-4.22-1.04-1.22-2.22-2.35-3.32-3.54-1.09-1.17-3.12-1.44-4.27-2.57-1.14-1.12-2.49-1.98-3.69-3.06s-1.61-3.01-2.85-4.05-2.14-2.49-3.42-3.47-3.09-1.23-4.41-2.16c-1.31-.91-2.58-1.91-3.94-2.78s-3.17-.92-4.57-1.73c-1.38-.8-1.82-3.35-3.25-4.1s-2.96-1.34-4.42-2.03-3.13-.92-4.62-1.55-3-1.18-4.52-1.75-3.2-.57-4.74-1.08-3.14-.67-4.69-1.11-2.81-1.93-4.38-2.31-3.54,1.18-5.12.86-2.76-2.64-4.36-2.9-3.16-.75-4.77-.96-3.39,1.44-5,1.29-3.15-.53-4.76-.63-3.14-1.78-4.76-1.81-3.22,1.59-4.84,1.6-3.24-1.27-4.86-1.21-3.23.05-4.85.17-3.06,1.77-4.68,1.93-3.17.32-4.78.53-3.05,1.1-4.65,1.36-3.28-.29-4.87,0-3.29-.12-4.88.22c-1.5.32-3.14.43-4.71.87s-2.53,2.38-4.07,2.9-2.8,1.32-4.3,1.92-3.56-.4-5.03.27c-1.42.65-2.96,1.16-4.39,1.89-1.39.71-2.1,2.72-3.5,3.51s-2.44,1.96-3.8,2.82-3.16.88-4.47,1.8-2.78,1.54-4.05,2.51-1.72,2.86-2.94,3.89-3.66.62-4.83,1.7-1.81,2.7-2.93,3.84-1.88,2.56-2.95,3.75-2.05,2.39-3.06,3.62-2.53,2.03-3.48,3.31-2.11,2.41-3,3.73c-.88,1.3-.24,3.59-1.07,4.95s-1.45,2.74-2.22,4.15c-.75,1.38-1.81,2.56-2.51,4s-3.05,2.07-3.69,3.54-1.32,2.92-1.88,4.42.03,3.38-.47,4.9c-.49,1.49-1.6,2.82-2.03,4.36-.42,1.51-.56,3.13-.92,4.69s.02,3.23-.27,4.8c-.29,1.54-1.41,2.96-1.65,4.55-.23,1.55.96,3.29.8,4.89-.17,1.63-1.42,3.14-1.52,4.72s1.07,3.29,1.04,4.87-.91,3.24-.86,4.82c.05,1.64.02,3.26.15,4.84.14,1.64,1.09,3.14,1.31,4.71s.8,3.11,1.12,4.66.29,3.22.72,4.75c.43,1.58.81,3.11,1.34,4.61.54,1.54.48,3.29,1.12,4.75.65,1.5.89,3.21,1.64,4.62s1.42,2.99,2.28,4.35,2.1,2.55,3.06,3.84c.97,1.3,2.46,2.2,3.52,3.41s2.21,2.35,3.35,3.49c1.15,1.13,2.58,1.94,3.8,2.99s2.44,2.06,3.74,3.03c1.29.96,1.77,3.12,3.13,4,1.34.88,2.7,1.88,4.11,2.68s3.7-.06,5.15.67,3.05.98,4.53,1.63c1.47.64,2.09,3.39,3.6,3.97,1.5.57,3.15.89,4.69,1.41s3.22.58,4.78,1.02c1.54.44,3.07,1.09,4.64,1.48s3.1,1.05,4.68,1.38c1.57.33,3.18.72,4.77,1,1.58.28,3.38-.64,4.98-.41s3.14.92,4.75,1.1,3.36-1.36,4.97-1.23c1.6.13,3.09,1.91,4.7,2s3.24-.19,4.86-.14c1.61.05,3.22.82,4.84.82s3.25-.07,4.86-.1c1.61-.03,3.24-.25,4.85-.32,1.61-.07,3.28.45,4.89.35,1.68-.11,3.17-2.03,4.72-2.11,1.68-.08,3.36,1.52,4.92,1.46,1.67-.07,3.22-1.59,4.78-1.65,1.65-.06,3.25-.25,4.82-.33s3.21-.22,4.81-.36c1.6-.14,3.23.16,4.85-.06s2.95-1.5,4.57-1.81c1.53-.29,3.44.96,5.06.55,1.5-.37,2.8-1.7,4.41-2.19,1.48-.45,3.05-.77,4.64-1.33,1.46-.51,2.78-1.53,4.35-2.14,1.44-.56,3.63.53,5.18-.12,1.43-.6,2.38-2.48,3.91-3.17,1.42-.64,2.58-1.94,4.1-2.66,1.41-.67,3.38-.28,4.88-1.02,1.4-.69,3.28-2.48,4.77-3.24-.26,1.57-.08,4.07-.19,5.72-.11,1.58-.7,3.13-.65,4.79.04,1.59.13,3.17.32,4.82s-.41,3.32-.08,4.95.68,3.18,1.14,4.78c.44,1.53.92,2.99,1.29,4.45.39,1.54.51,3.09.83,4.55.34,1.56.26,3.12.53,4.59.29,1.58,1.24,2.96,1.44,4.44.22,1.59-.16,3.16-.02,4.64.15,1.61,2.31,3.01,2.37,4.49.07,1.62-1.98,3.21-2,4.68-.02,1.64,1.1,3.21.99,4.67-.12,1.66.22,3.29,0,4.71-.25,1.69-1.72,2.99-2.04,4.34-.42,1.76-1.61,2.91-2.06,4.12-1.04,2.84-1.51,2.29-.21,4.22,1.45-.56,1.92-1.82,3.45-2.45,1.45-.59,3.24-.44,4.74-1.11s2.94-1.21,4.41-1.93,3.49-.23,4.92-1.01c1.39-.75,2.85-1.55,4.25-2.39,1.36-.82,2.07-2.75,3.42-3.65,1.32-.89,2.76-1.64,4.06-2.62,1.27-.96,2.13-2.44,3.36-3.5,1.21-1.04,2.69-1.78,3.85-2.91s2.05-2.45,3.13-3.66,2.12-2.37,3.11-3.66,1.59-2.75,2.5-4.1c.88-1.32,2.7-2.08,3.5-3.5s.62-3.28,1.33-4.75,2.85-2.25,3.46-3.77c.59-1.46,1.05-3.08,1.56-4.64s-1.09-3.63-.67-5.22,2.12-2.76,2.44-4.37.26-3.19.49-4.82c.23-1.58-.7-3.21-.56-4.69.14-1.6,1.35-3.03,1.39-4.51.04-1.61-.3-3.13-.37-4.6-.07-1.61.82-3.26.63-4.71-.22-1.61-2.28-2.76-2.63-4.17-.39-1.58-.72-2.94-1.25-4.3-.58-1.52.62-3.79-.1-5.06-.8-1.42-3.38-1.53-4.3-2.65-1.03-1.27-.91-3.48-2.01-4.43-1.25-1.08-2.84-1.66-4.06-2.38-1.49-.88-3.02-1.34-4.27-1.8-2.62-.97-2.11-1.21-4.39-1.55Z"/></g></svg>