<?xml version="1.0" encoding="UTF-8"?><svg id="backHair" xmlns="http://www.w3.org/2000/svg" viewBox="0 0 300 300"><defs><style>.cls-1{fill:#be5e50;}</style></defs><g id="backHair_9"><path class="cls-1" d="m116.18,38.37c-1.5.32-2.63,2.37-4.2,2.8s-3.04.62-4.57,1.14-2.77,1.42-4.27,2.02-3.52-.26-4.98.4-2.14,2.77-3.57,3.5-3.31.46-4.7,1.25c-1.36.78-2.44,2.04-3.79,2.9s-3.42.58-4.73,1.5-1.71,3.02-2.97,4-2.35,2.07-3.57,3.09-3.31,1.02-4.48,2.1-1.89,2.61-3.01,3.75-1.52,2.88-2.59,4.07c-1.05,1.17-2.59,1.91-3.6,3.14-1,1.21-1.57,2.76-2.52,4.04s-2.83,1.86-3.72,3.18c-.88,1.3-.77,3.26-1.6,4.62-.82,1.34-1.53,2.73-2.29,4.13s-1.39,2.8-2.09,4.23-2.24,2.43-2.87,3.9-.59,3.16-1.15,4.65-.44,3.15-.94,4.67-2.84,2.43-3.27,3.97c-.42,1.51-.7,3.11-1.07,4.67-.35,1.53.25,3.29-.04,4.86s-1.46,2.96-1.69,4.55c-.23,1.55,1.41,3.35,1.24,4.94s-.8,3.17-.91,4.75c-.1,1.64-1.59,3.2-1.62,4.78s-.16,3.3-.11,4.89.38,3.29.51,4.87,2.19,3.02,2.41,4.59-1.04,3.46-.72,5.01c.33,1.61.51,3.26.93,4.79s2.52,2.6,3.05,4.1-.86,3.83-.22,5.29,2.42,2.48,3.17,3.89,1.55,2.84,2.41,4.19,2.01,2.52,2.97,3.81c.97,1.3.95,3.42,2,4.63,1.06,1.22,3.5,1.15,4.64,2.29,1.15,1.13,1.42,3.21,2.64,4.26s2.97,1.46,4.27,2.43,2.89,1.43,4.24,2.32,2.35,2.27,3.76,3.08c1.39.8,3.01,1.16,4.46,1.89,1.43.72,2.95,1.21,4.43,1.86,1.47.64,3.03.97,4.55,1.55s2.35,2.97,3.89,3.48,3.42-.1,4.97.35,3.2.44,4.77.82,3.12.69,4.71,1.02,2.88,2.08,4.48,2.36c1.58.28,3.2.52,4.81.74s3.22.38,4.83.56,3.22.4,4.83.53,3.28-.62,4.9-.54,3.25-.79,4.86-.74c1.61.05,3.2.02,4.81.03s3.24,1.92,4.85,1.89,3.19-1.36,4.8-1.43c1.61-.07,3.3,1.14,4.91,1.04s3.23-.26,4.77-.34c1.66-.08,3.2-1.21,4.74-1.28,1.65-.07,3.23-.56,4.78-.62,1.64-.06,3.22-.02,4.78-.1s3.3,1.29,4.89,1.15c1.58-.13,2.98-2.02,4.58-2.23s3.04-.64,4.65-.94c1.52-.28,3.41.98,5.01.59,1.49-.36,2.67-2.07,4.27-2.55,1.46-.44,3.17-.27,4.75-.81,1.44-.5,3.05-.75,4.61-1.35,1.43-.55,2.54-2.04,4.08-2.68,1.41-.59,3.23-.4,4.74-1.07,1.4-.63,2.77-1.49,4.27-2.19,1.4-.66,2.82-1.37,4.31-2.1,1.39-.68,2.81-1.41,4.28-2.15,1.38-.7,2.36-2.27,3.82-3.03,1.38-.72,3.73.33,5.18-.44,1.37-.73,2.29-2.41,3.73-3.2s2.57-1.88,4-2.68,3.14-.98,4.44-1.87,2.24-2.32,3.45-3.33,3.1-1.37,4.2-2.5,2.37-2.26,3.36-3.49c1-1.24.27-3.72,1.15-5.05.87-1.32,2.39-2.19,3.14-3.6.75-1.4,2.5-2.35,3.13-3.81.62-1.45-.45-3.56.05-5.08s.72-3.01,1.1-4.57.98-2.96,1.25-4.54,1.27-2.99,1.44-4.59.12-3.16.18-4.76.47-3.17.44-4.77-.64-3.14-.77-4.73-.92-3.05-1.14-4.64c-.21-1.56,1.16-3.39.87-4.97-.29-1.55-1.92-2.83-2.3-4.39-.37-1.53-.03-3.26-.48-4.8s-.64-3.14-1.16-4.65-2.16-2.58-2.75-4.06-1-2.99-1.65-4.45-1.9-2.57-2.61-4c-.71-1.41-.51-3.29-1.29-4.68-.77-1.38-.95-3.13-1.79-4.49-.83-1.35-2.06-2.47-2.96-3.79s-2.35-2.22-3.3-3.5-1.81-2.59-2.81-3.84c-.99-1.23-2.17-2.3-3.22-3.5s-1.25-3.16-2.36-4.31-2.41-2.11-3.56-3.22-1.98-2.57-3.18-3.63-2.55-1.95-3.79-2.96-2.42-2.11-3.7-3.06-3.62-.38-4.94-1.28-2.31-2.21-3.66-3.06-2.45-2.08-3.84-2.86-2.77-1.55-4.19-2.28-3.05-.97-4.5-1.64-2.76-1.57-4.24-2.18-2.9-1.3-4.4-1.85-2.9-1.34-4.42-1.83-3.36.2-4.9-.23-2.92-1.27-4.47-1.64-2.81-2.01-4.38-2.32-3.42,1.11-5,.85-3.08-.68-4.67-.87-3-1.73-4.6-1.87-3.26,1.11-4.86,1.03-3.13-.85-4.73-.88-3.15,1.23-4.76,1.25-3.21-1.87-4.81-1.81-3.17.32-4.77.44-3.09,1.04-4.69,1.2-3.29-.76-4.88-.55-3.03,1.29-4.61,1.54-3.03,1.05-4.61,1.34-3.37-.68-4.94-.34Z"/></g><g id="backHair_8"><path class="cls-1" d="m223.75,62.28c-.48-1.88,1.28-1.64,1.41-4.01.06-1.11-1.73-2.65-1.5-4.08.19-1.19.91-2.47,1.27-3.8.33-1.19-.05-2.84.45-4.09.47-1.16,2.17-1.93,2.82-3.09.61-1.09.24-3.08,1.04-4.14.76-1,1.99-1.96,2.93-2.89.89-.88,2.6-1.09,3.67-1.89,1-.75,1.59-2.48,2.76-3.13,1.08-.61,3.03.19,4.27-.32,1.15-.47,2-2.21,3.29-2.59s2.68-.6,3.91-.84c1.3-.25,2.68-.93,3.93-1.03s2.74,1.81,4,1.85,2.63-.1,3.87.11,2.72,0,3.94.37,1.57,2.96,2.72,3.5,2.19.95,3.26,1.64,3.51-.46,4.49.38c.97.83,2.32,1.51,3.19,2.47s.96,2.65,1.71,3.72c.73,1.04,1.88,1.94,2.5,3.08s-1.45,3.45-.96,4.66.87,2.2,1.23,3.45c.35,1.22,2.07,2.02,2.31,3.3s.35,2.49.47,3.79c.12,1.26,0,2.51.01,3.81,0,1.27.81,2.57.7,3.87s-1.44,2.36-1.65,3.55c-.22,1.28-1.39,2.15-1.72,3.31-.36,1.25.52,2.74.05,3.85-.51,1.19.17,2.97-.45,4.01-.66,1.1-1.89,1.88-2.66,2.83s-1.6,2.05-2.51,2.88-1.19,2.87-2.22,3.55c-1.05.7-3.4-.68-4.52-.14s-1.78,2.45-2.96,2.84-2.94-1.31-4.16-1.08-2.38.24-3.62.33c-1.26.09-2.45,1.41-3.68,1.36s-2.35-1.4-3.57-1.59-2.23-.91-3.41-1.25-3.36,1.87-4.47,1.27c-1.05-.57-1.99-1.71-2.99-2.47-.95-.73-2.45-1.09-3.35-1.95s.18-3.6-.65-4.53-3.67-.15-4.43-1.11.03-3.14-.67-4.14c-.72-1.02-2.14-1.56-2.79-2.57-.69-1.07.66-3.32.06-4.34-.66-1.12-3.41-.97-3.96-1.97-.66-1.21-1.5-2.21-1.97-3.15-1.02-2.03-.91-1.82-1.36-3.6Z"/></g><g id="backHair_7"><path class="cls-1" d="m77.62,61.95c.48-1.88.59-1.35.46-3.72-.06-1.11,1.16-2.62.93-4.05-.19-1.19-2.19-2.12-2.55-3.45-.33-1.19-2.02-1.84-2.52-3.08-.47-1.16.54-2.92-.11-4.09-.61-1.09-1.27-2.17-2.08-3.23-.76-1-.64-2.89-1.59-3.83-.89-.88-2.67-.9-3.74-1.7-1-.75-2.44-.79-3.61-1.44-1.08-.61-2.45-.41-3.7-.92-1.15-.47-2.01-1.53-3.3-1.91s-1.95-3.21-3.17-3.45c-1.3-.25-2.91,1.45-4.16,1.35s-2.59-.56-3.85-.51-2.34,1.84-3.59,2.05-2.41.27-3.62.65-2.61.08-3.77.61-2.85.2-3.92.89-1.44,2.39-2.42,3.22-.91,2.53-1.77,3.49-1.7,1.66-2.44,2.72-2.58,1.3-3.2,2.44c-.6,1.12-1.73,2.04-2.22,3.24s-.74,2.49-1.1,3.74-.75,2.49-.99,3.76,1.74,2.76,1.62,4.05-3.66,2.38-3.67,3.69.22,2.69.33,3.99,3.36,2.15,3.57,3.34c.22,1.28-.75,2.69-.42,3.86.36,1.25,1.43,2.12,1.9,3.24.51,1.19,1.55,1.87,2.17,2.92.66,1.1-.44,3.32.33,4.26s1.54,2.18,2.45,3.01,2.07,1.65,3.11,2.33,1.86,2.19,2.98,2.72c1.14.54,3.61-2.29,4.8-1.91s2.06,1.33,3.29,1.57,2.21,2.34,3.45,2.43,2.64.89,3.88.84,2.47-1.7,3.69-1.89c1.26-.2,2.27-1.27,3.45-1.61s2.82.53,3.93-.07c1.05-.57.99-2.85,2-3.61s2.09-1.12,2.99-1.99,1.03-2.26,1.85-3.19,2.48-1.03,3.24-2,.34-2.75,1.04-3.74,1.62-1.81,2.26-2.82c.69-1.07,2.13-1.58,2.73-2.6.66-1.12.27-2.72.82-3.72.66-1.21,2.61-1.56,3.08-2.5,1.02-2.03.68-1.62,1.14-3.39Z"/></g></svg>