<svg width="1920" height="1080" xmlns="http://www.w3.org/2000/svg" xmlns:xlink="http://www.w3.org/1999/xlink">
    <defs>
        <path id="a" d="M0 0h596.579v332H0z"/>
    </defs>
    <g fill="none" fill-rule="evenodd">
        <path d="M1920 770.728V1080h-561.43c-1.696-17.36 2.46-34.955 12.634-49.896 22.57-33.148 70.147-55.88 121.042-63.386 44.351-6.559 95.677-3.988 128.422-26.165 31.693-21.451 31.645-56.575 46.644-85.732 19.154-37.187 65.394-65.735 118.224-78.683 42.942-10.53 89.682-11.426 134.464-5.409" fill="#FFD878"/>
        <g transform="translate(0 748)">
            <mask id="b" fill="#fff">
                <use xlink:href="#a"/>
            </mask>
            <path d="M596.58 332H0V.08c8.65-.337 17.213.402 25.034 2.066C59.95 9.56 88.466 37.866 111.87 68.192c23.406 30.307 43.966 64.078 72.098 88.687 56.512 49.419 133.823 53.84 204.868 46.528 29.701-3.06 59.491-7.8 89.221-5.143 29.73 2.655 60.039 13.58 81.118 37.52 17.851 20.253 27.553 47.972 33.775 75.725 1.496 6.673 2.784 13.565 3.63 20.491" fill="#7DC9D1" mask="url(#b)"/>
        </g>
        <path d="M1920 0v436c-24.94-.389-49.796-3.4-72.877-9.018-26.114-6.33-50.862-16.481-63.66-31.36-14.083-16.368-11.813-35.716-11.84-54.075 0-18.36-4.02-38.533-26.471-51.21-30.381-17.129-79.194-12.935-119.01-20.804-59.668-11.819-94.069-52.31-88.19-89.402 2.98-18.635 14.275-37.237 8.369-55.613-6.782-21.015-34.948-37.383-65.22-49.056-30.3-11.673-64.099-20.157-92.428-33.432-19.39-9.1-41.403-25.532-47.83-42.03H1920Z" fill="#FF8E7B"/>
        <path d="M496.15 0c-9.618 35.066-31.008 66.943-60.263 88.583-41.645 30.825-94.912 39.925-145.791 49.777-50.862 9.869-104.163 22.76-141.583 58.61-22.71 21.792-37.588 50.262-52.55 77.947-14.977 27.686-30.974 55.772-55.17 75.876C29.021 360.58 14.828 368.16 0 372V0h496.15Z" fill="#FFD878"/>
    </g>
</svg>
