<svg width="140" height="53" xmlns="http://www.w3.org/2000/svg" xmlns:xlink="http://www.w3.org/1999/xlink">
    <defs>
        <path id="a" d="M0 0h136.048v50.802H0z"/>
        <path id="c" d="M0 .039h1.348v.67H0z"/>
        <path id="e" d="M.095 0h.848v.749H.095z"/>
        <path id="g" d="M.088 0h.863v.749H.088z"/>
        <path id="i" d="M0 .108h1.039v.533H0z"/>
    </defs>
    <g fill="none" fill-rule="evenodd">
        <g transform="translate(.8 1.698)">
            <mask id="b" fill="#fff">
                <use xlink:href="#a"/>
            </mask>
            <path d="M121.697 4.898a19.723 19.723 0 0 1-.169-.178c-.052.03-.157.068-.148.091.025.064.096.123.148.185l.169-.098ZM15.218 45.7c-.052-.03-.117-.091-.155-.086-.111.014-.213.055-.318.086.053.03.116.091.156.086.11-.014.212-.055.317-.086Zm118.79-3.823-.168-.179c-.052.031-.156.068-.148.092.025.064.096.123.148.185l.168-.098Zm-100.795-.04c-.053-.03-.117-.091-.156-.087-.11.015-.213.056-.317.087.052.03.116.091.155.086.111-.014.212-.055.318-.086Zm100.322-1.144a21.239 21.239 0 0 1-.168-.098c-.053.061-.123.12-.148.185-.01.023.095.06.148.09l.168-.177ZM11.262 39.175l.168-.098c-.105-.03-.206-.072-.318-.086-.039-.005-.103.055-.156.086l.306.098Zm122.984-.275.304-.099c-.052-.03-.117-.09-.155-.086-.111.015-.213.056-.318.086l.169.099Zm-10.182-2.267-.168-.178c-.053.031-.157.069-.149.091.026.065.096.124.149.186l.168-.1Zm-95.654-1.38c-.056-.057-.112-.117-.169-.177-.053.03-.157.068-.148.09.025.066.095.124.148.185l.169-.098ZM8.994 33.518a21.243 21.243 0 0 1-.168-.098c-.053.061-.123.12-.149.185-.008.023.096.06.149.09l.168-.177Zm.947-.276-.168-.098c-.053.061-.124.12-.149.185-.008.023.096.06.149.091l.168-.178Zm121.937-1.162-.168.098c.104.03.206.072.317.086.039.006.103-.055.156-.086l-.305-.098Zm.541-1.144c-.052.031-.156.068-.147.09.025.066.095.125.147.186.053-.03.157-.068.149-.09-.025-.065-.096-.124-.149-.186Zm-7.88.178-.17-.178c-.052.031-.156.068-.148.09.025.066.096.125.149.186l.168-.098Zm9.843-.77c.064-.036.116-.067.168-.098-.104-.03-.206-.072-.317-.086-.039-.005-.103.055-.156.086l.305.098Zm-1.489-2.72c-.052.031-.157.069-.148.091.025.065.096.125.148.186.052-.03.157-.068.148-.091-.025-.065-.095-.124-.148-.185ZM8.994 25.516l-.168-.098c-.053.062-.123.12-.149.185-.008.023.096.06.149.09l.168-.177Zm122.173-5.519a48.89 48.89 0 0 1-.168-.098c-.053.06-.123.12-.148.185-.009.022.095.06.148.09l.168-.177Zm-7.676-.61-.306.098c.054.03.117.092.156.086.112-.014.213-.055.318-.086-.053-.03-.105-.061-.168-.099Zm-112.84-.08.305-.098c-.052-.03-.116-.091-.155-.086-.111.014-.213.055-.318.086l.169.098Zm3.315-.828.305-.098c-.052-.03-.116-.091-.155-.086-.112.014-.213.055-.318.086l.168.098Zm-6.56-2.444c-.054.03-.158.068-.15.091.026.065.096.124.15.185.052-.03.155-.068.147-.09-.025-.065-.095-.125-.148-.186Zm94.875-3.489-.168-.098c-.052.061-.123.12-.148.185-.009.023.096.06.148.09l.168-.177Zm-2.062-.098c-.053.03-.157.068-.148.09.025.066.095.125.148.185.053-.03.156-.067.148-.09-.024-.064-.095-.124-.148-.185Zm28.344-.512-.169.098c.106.03.207.072.319.086.038.005.102-.055.155-.086-.103-.033-.205-.067-.305-.098Zm3.383 1.319c-.307.25-.444.426.07.54.256-.161.24-.314-.07-.54Zm-109 35.128c.098.134-.474.357.16.456.252-.159.236-.311-.16-.456Zm110.42-3.648c-.34.184-.34.368 0 .553.34-.185.34-.37 0-.553Zm-94.507-5.38c.43.177.731.258.927-.041-.277-.15-.54-.141-.927.04Zm95.254-11.04c-.43-.178-.731-.258-.927.041.277.15.54.14.927-.04ZM5.038 28.177c-.34.185-.34.369 0 .553.34-.184.34-.368 0-.553Zm9.944-1.378c.34-.185.34-.37 0-.554-.34.185-.34.369 0 .554Zm-8.05-1.658c-.34.185-.34.37 0 .553.34-.184.34-.368 0-.553Zm1.567-.789-.3.008c-.028.123-.068.245-.076.368-.001.03.116.094.15.088.113-.018.296-.06.3-.098.013-.12-.044-.244-.074-.366Zm113.502-8.295c.307-.251.445-.427-.07-.54-.256.161-.24.314.07.54Zm9.233-1.264c.317.199.633.199.95 0a.835.835 0 0 0-.95 0ZM2.67 13.296c.307-.25.445-.426-.07-.54-.256.161-.24.314.07.54Zm25.774 25.367c.366 0 .447.01.516-.002.134-.023.26-.06.39-.092-.057-.062-.096-.134-.174-.185-.145-.095-.313-.178-.572-.323l-.16.602Zm-15.829-5.247c-.396.28-.396.556 0 .836.396-.28.396-.556 0-.836ZM111.61 1.118c-.363.196-.365.38-.03.565.205-.157.57-.24.644-.499l-.614-.066ZM133.866 39.2c-.364.197-.367.38-.03.565.205-.157.57-.239.643-.499l-.613-.066Zm-3.585-11.438c.481.232.955.232 1.436 0a1.577 1.577 0 0 0-1.436 0ZM11.773 39.66c1.169.12 1.168.113 1.461-.083-.421-.127-.841-.14-1.46.083ZM130.8 21.61c.09.097.13.165.203.218.138.102.295.196.444.293.366-.206.367-.388-.007-.582l-.64.071ZM7.21 38.703l.936-.104-.166-.517c-.318.035-.53.06-.77.085v.536Zm26.045-1.932.936-.104-.167-.517c-.317.035-.528.06-.77.086v.535Zm-4.78-17.285c.464.229.93.22 1.345.04l-.572-.49-.772.45Zm-21.78-3.85c.32.16.637.192.975-.038l-.143-.413-.831.1v.35Zm.904 24.294c.37.05.418.336.842.345.16-.527.152-.527-.157-.744l-.685.4Zm3.358-32.864c.32.196.636.203.974-.024l-.142-.412-.832.101v.335Zm16.78 25.013c-.223 1.078-.22 1.078.161 1.31.16-.36.19-.697-.161-1.31ZM10.39 33.266c.633.227 1.059.18 1.54.03a629.7 629.7 0 0 0-.53-.307l-1.01.277Zm19.403-.456c-.351.068-.578.088-.748.155-.085.034-.066.156-.116.303l.863.36c.293-.153.083-.415.001-.818Zm-17.932-.795c-.556.07-.961-.063-1.383.16l.136.43c.468-.058.873.075 1.247-.122v-.468Zm-5.519-.34c-.274-.147-.441-.236-.47-.25-.252-.287.054-.524-.357-.769-.23.14-.478.274-.823.494.875-.041.38.408.844.617.182-.02.443-.05.806-.093Zm-.358.622c-.382.263-.222.497-.222.71 0 .211-.16.445.2.693l.817-.085-.442-.271c-.264-.372.081-.699-.353-1.047Zm26.351-12.974c-.08-.242-.12-.367-.158-.478-.504-.038-.958-.163-1.358.104l.124.374h1.392ZM14.245 46.78c.945.536 1.018.55 1.447.3v-.27l-1.322-.394-.126.364ZM123.817 24.29c-.215 1.357-.215 1.357.167 1.626.05-.033.14-.067.142-.1.009-.454.009-.908-.002-1.362 0-.03-.108-.06-.307-.164Zm7.213-12.417c.024.001-.331.027-.269.354.215.228.457.44.952.497.41.015.472-.144.472-.46l-1.155-.391Zm.241 11.573c.429-.509.964-.47 1.405-.648l-.191-.482c-.439.148-.86-.052-1.214.178v.952Zm-7.656-18.313.792-.405c-.754.066-1.224-.166-1.693.127v.179l.696.565.782-.17-.577-.296ZM14.744 25.004c.086.213-.165.456.175.654.835-.223.86-.749 1.274-1.116l-.277-.221-1.172.682ZM127.7 9.126c-.404.193-.378.526-.219.635.454.31.372.859 1.248.972.56-.339-.215-.454-.363-.731v-.418l-.666-.458ZM28.95 37.155c.065-.382-.39-.54-.885-.718l-.598.15c.195.31-.113.631.216.927l1.266-.36ZM8.426 16.066l.613-.453-.45-.286c-.01-.684-.01-.684-.342-.888-.044.034-.127.069-.127.103-.008.63-.008 1.26 0 1.89.001.033.09.066.215.155.204-.02.468-.045.809-.076l-.718-.445ZM7.894 32.6l.448-.554c.414-.052.837.093 1.173-.132-.525-.15-1.07-.275-1.421-.569a.674.674 0 0 0-.373-.124c-.182.004-.36.069-.555.11l.497.343c.214.3-.325.656.231.926Zm96.125-20.362c-.86.085-.538.69-1.18.916-.057.02-.2.351.305.348l.814-.475.654-.077.148-.401-.741-.31ZM9.062 20.505V21.6l.68.76c.264.02.571.092.688-.146l-.348-.204c.268-.25.559-.525.382-.82-.163-.27-.49-.505-.732-.744l-.67.06Zm.85-1.153c.011-.41-.009-.446-.33-.735v-1.083c.58-.448.594-.526.15-.644l-.344.197-.788.794v.683c.28.318.477.544.677.769l.635.019Zm1.476 5.957c.102-.395-.419-.449-.405-.595.025-.273-.267-.395-.523-.554-.242-.152-.502-.164-.791-.064-.25.154-.105.34-.128.51a1.85 1.85 0 0 0 .002.538c.026.168-.147.36.192.526h.992l.661-.361Zm1.3 12.278.626-.455v-.545l-.841-.49-.285-.492-.718.08v1.208l.451.262v1.228l1.4-.395-.634-.4Zm110.024-24.726c0-.367.004-.734-.008-1.1 0-.031-.108-.061-.213-.116h-.564l-.327.534-.533-.267c-.708.281.132.484.124.731l-.374.218c.29.107.389.338.784.372l.45-.263.739.45c-.115.177-.19.296-.22.34-.45.15-.88-.05-1.34.241l.866.377c.867-.008.867-.008 1.1-.143-.052-.381.043-.786-.027-1.108l-.457-.266Zm-90.92 23.845v-1.209l-.452-.286.435-.292c-1.063-.285-1.063-.285-1.688-.966-.203.03-.415.06-.61.09v1.477l.882.515c.1.21-.143.452.2.671h1.233ZM9.066 28.462c.095.281-1.047.425-.244.813l.582-.035.314-.526.715.069-.354.41c.331.136.6.122.846-.028l.032-.274c.525-.147 1.08-.273 1.396-.59l-.415-.243v-1.085l-.738-.454h-.504l-.472-.577-.688.115c0 .485.009.941-.013 1.397-.002.049-.179.094-.273.142l-.387-.226c-.15.074-.287.168-.461.219-.25.072-.626-.011-.759.218l.042.256 1.381.4ZM30.609 39.51c.842-.062 1.473.06 2.033-.07l.369-.64.779.646c1.34 0 2.433.001 3.525-.004.051 0 .102-.061.223-.138-.487-.053-.92-.098-1.34-.143l-.85-.496h-2.352c-.668-.32-.99-.752-1.215-1.22-.032-.067-.214-.108-.283-.14h-.934l-.597.363.799.904-.383.223.932.265c-.163.104-.314.2-.338.4-.367.06-.733.04-.412.282.11-.076.22-.15.044-.232Zm97.732-32.384c.104.214.07.428.484.241-.13-.064-.259-.128-.43-.024v-.548l.505-.314-.156-.347H127.6c-.251.242-.135.464-.11.68.224.13.446.26.85.312ZM34.58 38.034c.104.214.07.428.484.24-.13-.063-.258-.128-.413-.163l-.074-.556-.966.061.233.495c.34 0 .564 0 .736-.077Zm95.289-15.3c-.105-.214-.07-.427-.484-.24.13.064.258.128.43.163.28.283.28.283.907.161-.176-.294-.603-.11-.853-.084Zm3.73 9.583c.489-.164.489-.164.273-.545-.42.132-.217.36-.137.513-.367.06-.733.04-.412.282.11-.076.22-.15.275-.25Zm-96.07 8.079c-.105-.214-.07-.428-.484-.24.129.063.258.128.427.16.282.285.282.285.936.16-.226-.245-.618-.127-.88-.08Zm-23.678.276c-.104-.214-.07-.427-.483-.241.13.064.258.129.43.164.086.177-.23.426.277.528.207-.365.207-.365-.224-.45Zm-4.789 1.579c.132-.03.358-.048.376-.094.065-.164-.145-.192-.376-.182-.086-.178.23-.426-.277-.529-.207.365-.207.365.277.529v.276c-.13.03-.357.048-.375.093-.065.165.145.193.375.182.087.178-.229.426.278.529.207-.366.207-.366-.278-.529v-.275Zm123.923-20.693c.208.257-.003.54.306.783.39-.046.632-.433 1.26-.104 0 .345.003.751-.003 1.157a.64.64 0 0 1-.06.261c-.019.038-.105.066-.247.148l-.26-.82-.594-.058c-.869.413.535.604.186.986-.276.077-.6.166-.929.255.307.245.736.11 1.132.152l.51-.253c.082.049.244.1.252.16.04.265-.087.542.393.743.111.047.046.236.059.338-.392.212-.803.045-1.13.122-.313-.17-.53-.402-1.097-.215-.031.07-.086.195-.15.335l.988.271v.303l-.942.26c.342.237.767.094 1.175.145l.47-.572.68.423c-.125.084-.265.18-.424.286v.814l.309.195c.05.077.144.155.148.235.017.322.007.643.007.974l-1.06.292c.345.058.556.093.907.15.05.096.085.27.232.403.163.148.47.243.336.602l-.601.315h-1.135l-.204-.798c-.364.282-.364.282-.357 1.236l1.216.364.92-.5c.067.039.17.071.171.104.012.365.007.73.007 1.08l.509.328v.624l-.552.55c-.85.174-1.066-.51-1.726-.123-.026.205.358.242.53.439l1.076.042c.203.185.664.257.686.62-.28.345-1.057.55-1.39.902v.551l.404.236.072.894.924.192c-.184.12-.331.217-.479.312l.538.34-.92 1.066.34.252v.542l-.417.28.445.286v.54l-.463.29c-.187.298.33.39.512.657l-.479.513v1.108c-.112.344-.69.419-.494.736l.427.285-.449.287v.453l-.676.759c-.146.007-.298.016-.498.025l-.46-.554c-.373.26-.371.67-1 .798l-.475-.224c-.683.347.106.47.254.718l-.888.153-1.613.987c-.959.063-1.327.58-2.002.879h-1.88l-.87.519h-2.06l-.298-.475c-.452.083-.623.405-1.01.471-.387.067-.72.125-.954.313h-3.33l-.31.186c-.08.036-.14.087-.199.087-.785.006-1.571.003-2.34.003-.379.351-.924.292-1.465.244l-.335-.195c-.067-.016-.133-.045-.202-.046a11.805 11.805 0 0 0-.71 0c-.226.007-.58-.017-.654.054-.427.408-1.449.021-1.8.482l-.747-.323-.748.336h-2.604c-.075.002-.15.012-.225.017l-.389.227h-1.505c-.175-.08-.331-.153-.482-.221l-.378.22h-6.27l-.405-.235h-4.737l-.49.265-.331-.194c-.139-.026-.278-.074-.417-.075-.864-.007-1.727-.004-2.56-.004l-.42.245h-2.003l-.376-.22H80.76l-.403.236-.509-.253h-1.4l-.492.265-.416-.243h-1.863l-.7-.353c-.246.08-.5.164-.921.3h-5.15c-.194-.026-.328-.355-.867-.242-.135.07-.307.16-.489.253l-.498-.266h-.92l-.594-.317-1.06.308h-1.65l-.455.265h-2.351l-1.598-.524H56.69l-.52-.276-.334.196c-.06.024-.122.071-.183.071-3.309.004-6.618.003-9.862.003l-.534.258a77.218 77.218 0 0 1-.367-.214l-.891.28-.61-.318h-1.4l-.498.267h-.93a160.61 160.61 0 0 1-.493-.261h-2.375l-.404.235h-1.931l-.553-.253H29.65c-.195-.114-.306-.18-.44-.256h-4.695l-.547-.287c-.82-.005-1.67 0-2.712-.004l.55-.404-.394-.273c.078-.16.517-.202.207-.637-.078-.116.177-.03.21.077.097.312.272.075.572.016-.294-.21.214-.5-.336-.698-.223.13-.444.259-.446.605-.005.212-.24.212-.47.212l-.578-.314-.234.782c-.073.032-.132.08-.192.08-.779.006-1.557.004-2.15.004-.545-.162-.938-.28-1.317-.391l1.482-.559c-1.09-.19-1.09-.19-2.9.4-.62-.022-.802-.385-1.163-.525l-.808-.101.46-.326c-.163-.286-.872-.35-.898-.706h.71c.404-.168.176-.418.248-.661l-.67-.424h-1.887l-.772-.429v-.581l-1.81-.478c.036-.435-.255-.87-.68-1.183-.47-.346-.828-.731-1.295-1.124v-1.23l-1.376-1.55v-1.068l1.916-.51c-.706-.294-1.356-.562-1.982-.822v-.576l-.88-.513v-1.728c.32-.066.594-.123.862-.177-.108-.263-.481-.158-.727-.223-.35-.183-.1-.429-.184-.648l-.918-.56c-.16-.303.274-.417.52-.646l-.456-.479c.067-.05.193-.14.333-.242.034-.292.278-.634-.41-.794v-.596l.453-.281-.48-.299v-.526c-.171-.115-.323-.215-.436-.29v-1.935l.441-.257v-.827l.497-.29v-1.686c.355-.076.628-.133.9-.19-.272-.448-1.072-.457-1.588-.686-.595-.266-.6-.72-1.184-.992V19.77c.085-.059.23-.16.412-.289v-.54l-.437-.288v-.85c.164-.032.36-.077.562-.112.24-.042.427-.103.374-.256.438-.217.424.4.9.155v-1.168l-.374-.219c-.201-.507.147-1.05-.218-1.59l-.747.435c.144.186.617.284.43.567l-.458.282.467.288v1.25c-.237-.02-.474-.02-.71-.02l-.69-.403v-1.384l.445-.288v-.855l-.785-.154c-.052-.08-.146-.159-.148-.239-.013-.504-.007-1.009-.007-1.507-.122-.071-.233-.137-.426-.248l-.077-.545-.51-.451.6-.545-.464-.424c.274-.31.765-.07 1.167-.103l.838.49c.552-.103.185-.37.314-.587L2.01 9.82v-.627c.223-.02.463-.08.65-.045.193.037.335.167.498.256.393-.184.149-.432.228-.656l-.457-.297.457-.293v-.818l.676-.395c.838.37-.42.572-.163.956l.563.357 1.142-.277c.293-.29.074-.614.156-.923.55-.31 1.172-.02 1.823-.18l.097 1.04c.313.213.736.07 1.118.117l1-.555c.32.004.655.029.695-.337l-.439-.36.413-.27-.435-.287.8-.466.848.706.377-.593c.305.09.611.179 1.03.3l.347-.557c.246-.166.669-.021 1.046-.069l.511.278h.486l.506-.626.948.318.382-.222.498.23.468-.231c.273.046.344.302.702.216.077.176.043.39.457.202-.13-.064-.258-.128-.457-.202.082-.04.138-.118.207-.217h1.379l.56-.276.479.244.975-.528.404.236h1.407l.727-.269.925.297c.67.002.768-.434 1.292-.537.47-.117.64.169.922.248h.952l.393-.228.77.277.787-.3h2.234l.525-.278.963.53c.542.114.68-.208 1.175-.286l.733.251c.12-.143.262-.313.402-.483l.485-.023.516.274h.93l.583-.309.236.805c.662.037.15-.376.666-.464l.958-.062.356-.51.532.256h2.349l.493-.262h5.176l.514-.27.415.241.559-.242h2.837l.2-.284h1.172l.5.267.426-.247h4.262l.467-.273.498.227.494-.239h.888l.534-.284h.929l.5.265.413-.241 1.504-.05 1.362-.793.927.504L71.4 2l.334.194.815-.27c.205.085.443.185.74.307h.85l.518.276.846-.493c.496.035.584.37 1.103.438l.418-.21h3.272l.599-.325 1.053.615 2.689-.806.548.292.84-.695c.174.27.275.43.396.619l.942.027 1.1-.568c.94.063.99.527 1.35.813l1.12-.634.15-.388c.531-.146.796.018 1.04.206h.98l.494-.263h1.11l.789.64.384-.615h1.071l.394.23.48-.23c.313.075.483.357 1.038.229l.255-.444c.333-.181.749-.036 1.113-.095.11-.066.223-.13.334-.195.14-.025.279-.069.42-.071.546-.008 1.092-.003 1.602-.003l.4.232 1.648-.494h4.035l.623-.319 1.107.305.175.247h1.561l.331-.531.542.277c.67.03 1.37-.03 1.945.022.592.447-.743.637-.179 1.016.174.049.174.049 1.252-.61l.205-.424.67.045c.515.47-.88.693-.25 1.206l-.784.42-.412-.24c-.48.055-.6.367-1.018.466-.22.064-.58-.027-.677.202.072.042.128.103.184.103.946.006 1.891.004 2.905.004l.273-.47a.855.855 0 0 1 .833.042l-.443.299 1.957.572-.917.192c.177.52 1.189.423 1.623.744.37.051.552-.109.802-.213.222-.092.526-.117.808-.174l-.53-.34.203-.391 1.022.556.47-.231.695.366c.095.244-.155.489.24.701l.434-.52.991.326 2.106 1.227.205.37.544-.287.876.51c.342.35.503.491.623.644.12.153.202.317.322.514l1.015-.561.525.279h.986l.177.365-.496.312.486.312c-.308.063-.633.084-.844.185-.254.12-.469.205-.814.211-.11.002-.21.2-.259.25.05.42.642.212.909.38.233.147.631.205.97.306v.553c-.097.152-.531.196-.454.46-.283-.095-.511-.195-.785-.315-.073.13-.138.252-.19.344l.876.684c.061-.402.088-.574.1-.714.128 0 .33.01.384.068.171.184.288.386.533.734v.895l.6.477-.555.431.299.16c.057.095.146.175.147.255.012.594.006 1.187.006 1.741l-.496.39c.095.395.7.45.929.982v2.176l.463.343-.398.287v.783l-.466.309c.513.204.417.625.89.872.156.08.025.347.025.516l-.671.392c-.253-.085-.5-.17-.894-.249.072-.357.279-.724.058-1.049-.144-.03-.23-.068-.278-.055-.511.125-1.016.259-1.804.463l1.584.138c.11.189.203.35.44.503Z" fill="#F8F6F4" mask="url(#b)"/>
        </g>
        <path d="m53.596 3.974-.168.098c.105.03.206.072.318.086.039.005.103-.055.156-.086a89.485 89.485 0 0 1-.306-.098m-2.84 0-.17.098c.106.03.207.072.319.086.039.005.102-.055.155-.086a89.485 89.485 0 0 1-.305-.098m8.356.237-2.042-.001-.623-.249c-.31.228-.11.455-.143.559l-.507.518c-.647.031-.352-.325-.631-.51-.99-.208-1.685.281-2.53.462l-.362-.211h-1.485c-.25-.186-.539-.402-.764-.568h-1.245l-.838.617-.988-.294-.363.212h-1.485c-.25.185-.538.4-.762.568h-1.574l-.678-.403.423-.283-.439-.287.684-.398h3.286l.525-.283h.926l.497-.271h1.875l.509.254.853-.498c.472-.139.716.055.994.228h1.43l.494-.266c.471-.1.666.154.953.269h.942l.404-.235h1.065l.828.482c.439-.04.236-.262.336-.4l1.303-.39h1.251l.499.265.849-.495c.462.068.653.33 1.017.492l1-.547h.903l.546-.283h5.718l.19-.42c.52-.251 1.047-.199 1.535.118l.689-.24c.666.016.83.396 1.333.56l.29-.485c.63-.018.63-.018 1.263.242l.779-.267.442.212.968-.525c.226.13.45.26.676.393.028.166-.057.369.409.428.636.032.798-.361 1.259-.544h1.411c.286.09.462.368.989.257l.43-.534c.533-.112.701.175 1.03.267 1.06.09 1.74-.45 2.714-.557l.499.248.88-.292.594.32h.871l.788-.328.664.288.677-.244 1.193.346.502-.606h.489l.497.269h.941l.387-.226c.632-.136 1.33.025 1.919-.06l.683.338.878-.296h3.377l.095.382c-.087.05-.142.11-.199.112-.624.006-1.248.003-1.97.003-.234-.063-.4-.352-.893-.248l-.514.277H97.7l-.43.25c-.901.071-1.915-.018-2.914.043l-.417.243H91.57l-.46.269c-.153-.072-.31-.146-.514-.24h-1.402l-.494.254h-.905l-.51.277-.58-.314-.89.254-.422-.187h-1.53c-.161.134-.43.358-.629.521h-1.148l-.494-.268c-1.176 0-2.358 0-3.514.038-.078-.175-.043-.39-.457-.202.13.064.258.129.457.202-.083.04-.113.174-.198.186-.293.045-.604.047-.924.066-.18-.087-.353-.173-.551-.27l-.494.25h-.981l-.274-.458c-.5-.181-1.055-.056-1.583-.085l-.429.25-.997.04-.544.275H68.79l-.944.55h-3.314l-.432.251h-1.425l-.532-.283c-.098.168-.187.325-.282.49-.504.16-1.052.053-1.566.07l-.513-.262c-.192.21-.694.266-.671.548M37.556 4.762h-.997l-.276.475c-.507.155-1.05.057-1.648.066-.047-.116-.112-.238-.144-.363-.024-.09-.068-.236.006-.266.45-.186.275-.593.789-.739.832-.073.918.635 1.802.546l.45-.542h.486l.5.265.346-.202c.503-.135 1.04-.06 1.572-.048.37.182.123.429.206.656l.454.288c-.112.045-.23.092-.42.17l-1.013-.34-.75.303h-.87l-.493-.269M31.643 5.314h-1.67c-.355-.22-.728-.45-1.096-.675.439-.15.439-.153 1.198-.127l.285.471c.403-.022.54-.245.814-.367v-.27l.469-.17.806.301.761-.606.77.476-.592.374-1.084.07c-.197.185-.664.253-.66.523M24.941 4.95l.17-.38c.11-.102.311-.094.316.028.02.425.638.588 1.008.857v.29c-.56.197-1.156.125-1.742.08l-.322-.516-.528.265c-.312-.108-.293-.268-.175-.446.325-.206.754-.006 1.273-.178M110.253.76v.277c-.454.283-1.036.083-1.551.138l-.807.326-.784-.32h-.872l-.49.267-.663-.387c.027-.033.053-.092.083-.093 1.314-.038 2.63-.07 3.96-.104.315-.197.646-.406 1.124-.104M27.471 6.068c.057-.698-.673-.874-1.001-1.184.33-.237 1.08.04 1.042-.534l.734.837c-.323.14-.352.415-.775.881M7.398 6.223l.527.307v.33c-.369.197-.767.065-1.17.116l-.322-.426.965-.327M20.754 5.761V5.42c.182-.033.425-.13.575-.094.456.108.876.267 1.374.427-.693.163-1.322.172-1.95.008" fill="#FAF9F7"/>
        <g transform="translate(114.132 .568)">
            <mask id="d" fill="#fff">
                <use xlink:href="#c"/>
            </mask>
            <path d="M.62.054h.57l.158.42C.852.668.434.64 0 .526.039.293.428.217.62.055" fill="#DD9BA1" mask="url(#d)"/>
        </g>
        <path d="M17.617 5.06c.425.14.821.268 1.236.403-.415.212-.813.084-1.175.128-.353-.184-.309-.368-.061-.53M5.258 7.63c-.62.223-1.04.21-1.462.082.293-.195.293-.202 1.462-.082M31.64 5.304l.857.037c-.01.276-.396.345-.573.5-.512-.1-.189-.351-.284-.537M22.86 5.052l-.614-.065c.025-.281.5-.314.602-.522.377.208.375.39.011.587M122.601 2.968c-.388.18-.65.19-.927.04.196-.299.497-.218.927-.04M15.581 5.452c-.388.18-.65.19-.927.04.196-.299.497-.219.927-.04" fill="#FAF9F7"/>
        <g transform="translate(138.961 34.053)">
            <mask id="f" fill="#fff">
                <use xlink:href="#e"/>
            </mask>
            <path d="M.844.335.6.512C.524.482.373.445.385.422.422.356.525.297.6.236c.076.03.153.06.244.098" fill="#DD9BA1" mask="url(#f)"/>
        </g>
        <g transform="translate(138.956 37.09)">
            <mask id="h" fill="#fff">
                <use xlink:href="#g"/>
            </mask>
            <path d="M.95.374C.799.405.652.446.49.46.433.466.34.405.264.374c.153-.03.3-.072.461-.086.056-.005.149.056.226.086" fill="#DD9BA1" mask="url(#h)"/>
        </g>
        <path d="m13.705 48.44-.484-.24c.413-.187.379.027.484.24" fill="#FAF9F7"/>
        <g transform="translate(112.499 .5)">
            <mask id="j" fill="#fff">
                <use xlink:href="#i"/>
            </mask>
            <path d="M.619.359.176.26C.253.23.346.169.402.175.563.189.71.23.862.26L.62.359" fill="#DD9BA1" mask="url(#j)"/>
        </g>
        <path d="m111.068 2.034.413-.282c.32.241-.046.221-.413.282M119.487 2.278c.052.062.123.12.148.185.009.024-.096.06-.148.092-.052-.062-.123-.12-.148-.186-.009-.022.096-.06.148-.09M119.778 3.735l-.484-.24c.413-.187.379.026.484.24" fill="#FAF9F7"/>
        <path d="m119.67 3.581.484.24c-.415.188-.38-.026-.484-.24M123.817 4.17l-.305-.098c.053-.03.117-.091.155-.086.112.014.213.056.319.086l-.169.098M59.057 4.133l.483.24c-.413.188-.379-.026-.483-.24M120.908 4.762c.052.062.123.12.148.185.009.023-.096.06-.148.091-.053-.061-.124-.12-.149-.185-.008-.023.096-.06.149-.09M16.424 5.412l-.169.178c-.052-.031-.157-.068-.148-.09.025-.065.096-.124.148-.186l.169.098M131.157 7.7l.168-.179c.053.031.157.069.149.092-.025.064-.096.123-.149.185l-.168-.098M10.167 8.113l.169.098c-.105.031-.206.072-.318.087-.039.005-.103-.056-.156-.087.103-.032.206-.065.305-.098M2.828 9.828l.168-.099c.052.062.123.121.148.185.009.024-.096.061-.148.092l-.168-.178M9.862 30.15c.087-.177-.228-.425.277-.528.208.365.208.365-.277.528M12.23 29.46c-.105.031-.206.072-.318.087-.039.005-.103-.056-.156-.086.106-.031.207-.072.319-.086.038-.006.102.055.155.086" fill="#FAF9F7"/>
        <g fill="#B60069" fill-rule="nonzero">
            <path d="m55.76 39.384.792-.24.24-.48c.48-.24.96-.336 1.536-.336.384-.24.72-.384 1.128-.648.384-.24.72-.48 1.032-.792l.792-.648 1.464-1.44a12.81 12.81 0 0 1 1.848 1.44c.552.576 1.2 1.128 1.824 1.536a12.53 12.53 0 0 0 1.944 1.128c.552.072.96-.096 1.272-.48v-.576l-.552-.552a19.26 19.26 0 0 1-1.296-2.016c-.384-.648-.864-1.272-1.272-1.992-.408-.648-.888-1.296-1.296-1.944.24-.72.576-1.368.888-2.088.408-1.296.744-1.944 1.128-2.568A7.679 7.679 0 0 1 68.6 24.84l-.072-.576-.816-.864-1.512.144-.336-.072-1.584.072-.576.576c-.408.24-2.256.96-2.64 1.032-.48.096-.96.168-1.536.24.24.576.576 1.128.96 1.608a2.472 2.472 0 0 0 1.536-.312l.816.144-.96 1.92-.432-.6c-.552.072-1.032.24-1.608.384-.552.168-1.032.408-1.512.648l.072.648.648.072 1.512 1.392c-.072.552-1.32 2.472-1.56 2.952s-.768.96-1.152 1.368h-.24l.144-11.016c.096-.384.288-2.064.528-2.448.432-.072 1.008-.36 1.416-.504.384-.096.72-.336.96-.648l-.096-.336-1.032-.312H57.44a36.566 36.566 0 0 0-2.976.312c-1.032.168-1.992.336-2.976.576-.96.24-1.92.408-2.952.48l-.48.552.312.72c.24.408.552.648.96.744.408.072.72.24 1.128.312l.24.552-.168 7.872-2.088.888a.898.898 0 0 1-.864-.24l-.336.072-.072.168c.072.312.24.648.408 1.032.072.408.312.648.624.816.72-.096 1.464-.168 2.184-.408.624-.24 1.272-.408 1.992-.648.648-.144 1.296-.384 2.352-.552.168.552.24 1.128.24 1.68 0 .648 0 1.296.072 1.848.096.552.168 1.128.336 1.68l.384.576Zm-.936-7.8s-1.968.384-2.208.144l.096-.624 1.752-.552.432.072.168.408-.24.552Zm.24-3.12-2.232.36.216-1.32 2.064-.24.024.792-.072.408Zm.096-3-.84.24-.96-.096-.312-.72c-.096-.432-.024-1.008.216-1.56l.96-.336.84.096.312 1.128c.12.36.024.912-.216 1.248ZM90.464 40.344c.312.096.648 0 .888-.144l.24-.504-.096-.624v-1.536c0-.552.096-1.032.168-1.44v-.576c-.072-1.032-.072-2.088-.072-3.12-.096-1.056-.168-2.016-.336-3.048-.144-.96-.384-1.92-.72-2.808a2.659 2.659 0 0 0-1.44-.648c-.552-.072-1.2-.072-1.752-.168-.576 0-1.128-.072-1.608-.312.072-.408.24-.888.48-1.296.24-.384.384-.864.48-1.344.072-.408.144-.888.24-1.296a2.404 2.404 0 0 0-.336-1.512 1.741 1.741 0 0 0-.96-.48c-.384 0-.72-.096-1.032-.168l-.864.168-.072.144c.24.576.312 1.2.312 1.92 0 .744 0 1.368.096 2.016.072.648.192 1.32.48 1.824l-.12.264-1.032.408-1.776-.168c-.408-.072-.648 0-.888.312l.096.504c0 .96-.096 1.92-.168 2.808-.168.96-.24 1.92-.312 2.808-.096.96-.24 1.92-.456 4.032-.096.624 0 1.2.24 1.752.168.336.312.648.48.96.168.336.408.576.72.816.408-.336.648-.72.792-1.296.168-.48.336-.96.504-1.512.072-.48.192-2.184.288-2.76.552-.144 1.104-.24 1.752-.312.576 0 2.976-.336 3.528-.408l.72.072c.168.576.336 2.112.408 2.664l-.072.408c-.336.312-.72.48-1.2.552-.48.072-.984.168-1.368.24v.168l.552.168c.576.312 1.056.792 1.44 1.344.24.336.48.576.816.648.312.168.648.336.96.48Zm-15.096-2.16 1.128-.24a7 7 0 0 0 .96-1.944c.168-.624.408-1.272.648-1.992.24-.648.408-1.296.648-1.92l-.24-.744h-.24l-1.536 1.776c-.408.408-.792.72-1.2 1.128-.408.408-.888.792-1.296 1.2-.384.408-.864.72-1.344.96l.072.336c.312.384.72.624 1.128.792.384.24.864.408 1.272.648Zm13.488-6.336c-.48.072-4.344.384-4.824.48-.384.072-.72 0-.96-.24.096-.576.24-1.224.336-1.776.552.168 5.208.312 5.208.312l.408.48c.072.24 0 .504-.168.744ZM76.424 30.24l1.272-.096.096-.144c.072-.408 0-.72-.168-1.056-.408-.408-.888-.72-1.296-.96-.48-.24-.96-.408-1.512-.408l-1.92.24.552.96c.408.504.792.888 1.272 1.128.504.24 1.056.408 1.704.336Zm12.024-1.2H83.48l-.072-.888c.384-.24.792-.336 1.272-.408.48 0 .96 0 1.368-.072h1.128c.408 0 .72.072 1.032.24l.408.792-.168.336Zm-10.824-2.496h.792l.24-.336-.24-.864c-.48-.48-.96-.888-1.512-1.224-.576-.312-1.128-.48-1.848-.384h-1.2l.864 1.368 2.904 1.44Zm4.728-1.2.48-.096.168-.312-.072-1.056.072-.384-.072-1.368-2.016-.408-.552.096.48 1.104c.24.408.48.888.624 1.296.168.408.48.792.888 1.128Zm6.024-.888h.408l.48-.576c.408-.072.72-.24 1.128-.48.312-.24.72-.312 1.104-.384l.408-1.056-.168-.648c-.384-.24-.72-.48-1.104-.624-.408-.168-.72-.408-1.056-.648l-.552.072c-.24.576-.408 1.128-.648 1.704-.24.552-.48 1.104-.72 1.68v.384l.72.576Z"/>
        </g>
    </g>
</svg>
