<svg xmlns="http://www.w3.org/2000/svg" viewBox="0 0 300 300">
    <defs>
        <style>
            .cls-1{fill:#ff5f89;stroke-width:0}
        </style>
    </defs>
    <path class="cls-1" d="M221.13 121.07c0-39.29-31.85-71.13-71.13-71.13s-71.13 31.85-71.13 71.13c0 34.72 24.88 63.61 57.78 69.86v15.14h-21.86v26.7h21.86v17.29h26.7v-17.29h21.85v-26.7h-21.85v-15.14c32.9-6.25 57.78-35.14 57.78-69.86zm-115.57 0c0-24.54 19.89-44.43 44.44-44.43s44.43 19.89 44.43 44.43S174.54 165.5 150 165.5s-44.44-19.89-44.44-44.43z"/>
    <path class="cls-1" d="M150 193.36c-4.57 0-9.13-.43-13.57-1.27l.43-2.28c6.61 1.26 13.54 1.55 20.29.87l.23 2.3c-2.44.25-4.93.37-7.39.37zm-13.35 11.55h20.62v2.32h-20.62zm0 26.7h20.62v2.32h-20.62z"/>
</svg>