<svg xmlns="http://www.w3.org/2000/svg" viewBox="0 0 300 300">
    <defs>
        <clipPath id="clippath">
            <path class="cls-2" d="M196.25 103.75c25.54 25.54 25.54 66.95 0 92.49-25.54 25.54-66.95 25.54-92.49 0-25.54-25.54-25.54-66.95 0-92.49 25.54-25.54 66.95-25.54 92.49 0z"/>
        </clipPath>
        <style>
            .cls-1{clip-path:url(#clippath)}.cls-2{fill:none}.cls-2,.cls-3,.cls-4,.cls-5,.cls-6,.cls-7,.cls-8,.cls-9{stroke-width:0}.cls-3{fill:#f9dd43}.cls-4{fill:#58d3c5}.cls-5{fill:#3fa7f5}.cls-6{fill:#c5d0ea}.cls-7{fill:#b555ca}.cls-8{fill:#ff5f89}.cls-9{fill:#ffb422}
        </style>
    </defs>
    <path class="cls-6" d="M90.65 209.35c32.78 32.78 85.92 32.78 118.7 0s32.78-85.92 0-118.7-85.92-32.78-118.69 0c-32.78 32.78-32.78 85.92 0 118.7zm105.73-105.73c25.62 25.62 25.62 67.15 0 92.77-25.62 25.62-67.15 25.62-92.77 0-25.62-25.62-25.62-67.15 0-92.77 25.62-25.62 67.15-25.62 92.77 0z"/>
    <g class="cls-1">
        <path class="cls-7" d="M81.61 197.96h136.78v25.19H81.61z"/>
        <path class="cls-5" d="M81.61 172.77h136.78v25.19H81.61z"/>
        <path class="cls-4" d="M81.61 147.57h136.78v25.19H81.61z"/>
        <path class="cls-3" d="M81.61 122.38h136.78v25.19H81.61z"/>
        <path class="cls-9" d="M81.61 97.19h136.78v25.19H81.61z"/>
        <path class="cls-8" d="M81.61 72h136.78v25.19H81.61z"/>
    </g>
</svg>