<svg width="145.908" height="34.128" xmlns="http://www.w3.org/2000/svg">
    <g fill="#AABD9A" fill-rule="nonzero">
        <path d="M22.5 33.228h1.944c.648 0 1.008-.252 1.224-.756l-.072-.612a14.162 14.162 0 0 0-3.852-1.656c-1.548 0-3.456-.036-4.968-.072-1.548-.036-3.24-.288-3.24-.288l-.216-1.512h3.24c.612-.108 2.952-.36 2.952-.36.612.108 1.116-.144 1.404-.54l-.036-.54c-.648-.756-1.512-1.08-2.628-1.332-1.98 0-2.556-.288-4.572-.288l.288-1.908c1.152-.216 4.176 0 5.076-.144.828-.108 1.872-.036 2.232-.792l.684-2.484c0-.828.18-2.052.288-2.88 0-.792-.252-1.62-.612-2.376-.504-.432-1.116-.684-1.8-.792-.936 0-1.8 0-2.736-.144a10.93 10.93 0 0 1-2.808-.36l.216-.972c1.476-.36 2.772-.468 4.14-.468a20.09 20.09 0 0 0 3.636-.324c1.26-.144 2.484-.252 3.564-.36l.756-.864-.108-.612c-.576-.576-1.368-1.044-2.268-1.152-.936-.108-2.016-.252-2.916-.36-.504.108-7.308-.036-7.308-.036l.252-1.44 1.044-.468 3.096.18c.9.108 1.404 0 1.908-.612l.324-.612c0-.72-.108-1.404-.36-2.052-.504-.18-1.368-.432-2.052-.684-.756-.216-1.44-.576-2.124-1.152-.576-.504-1.188-.72-1.872-.72L13.068.9c-.684.864-1.548 1.548-2.52 2.268-.972.684-2.088 1.26-2.988 1.728-1.116.612-2.196 1.044-3.06 1.656v.396l1.26.36h6.228l-.252 1.08c-1.368.252-2.448.36-3.672.504-1.26.108-2.304.216-3.384.324-1.188.108-2.412.216-3.492.108l-.72.864.684 1.548 4.752.36 3.42-.036c.9-.108 1.656.108 2.628.468l-.216 1.116c-4.536-.252-6.624-.108-6.624-.108l-1.44-.036c.216 1.08.504 2.124.648 3.24.108 1.044.252 2.196.36 3.24.144 1.044.396 2.088.936 3.06.792.252 1.764.612 5.292.864.18.54-.288 1.44-.288 1.44-1.476 0-4.176.468-5.112.144l-1.152.396v.396c.684.756 1.44 1.224 2.34 1.476 2.268.072 4.032.54 4.032.54s.036 1.116-.576 1.476l-3.672-.108c-.828 0-4.104 0-4.86.108A2.314 2.314 0 0 0 0 30.96l.036.504c1.8 1.044 3.96 1.512 6.336 1.62 3.924-.288 6.408-.144 8.64.072 2.268.252 5.148-.288 7.488.072ZM18.684 20.52c-1.008 0-3.456-.108-4.392-.18l.36-.792 4.104.288-.072.684Zm-7.452-.396-3.996-.036v-.54l.792-.144 3.204.036v.684Zm8.208-2.484-4.932-.432-.036-.9.72-.144 3.96.252.288 1.224Zm-8.172-.864c-.936.144-3.744.252-4.428-.036l.072-.648.684.072c2.916-.216 3.384-.108 4.212.108l-.54.504ZM63.012 33.084l.756.108c.576-.612.612-1.332.72-2.052.144-1.692.504-3.096.756-5.04.216-1.692.432-2.916.504-4.248.072-1.152.324-2.52.612-4.032.504-.108 1.044-.828 1.62-.828l.864-.828-.36-.972c-.72-.36-1.44-.612-2.304-.72-1.98-.252-3.96.108-4.788.252-.972.108-1.944.36-2.916.468l-.972-.108-.36-1.224.252-.72c.864-.576 1.584-1.296 2.412-2.052.72-.576 1.44-1.296 2.304-1.908.72-.612 1.548-.972 2.628-1.08.864-.36 1.44-.864 1.944-1.584v-.72c-.252-.468-.612-.828-.972-1.188-.468-.252-1.08-.756-1.44-1.116l-1.08.396c-.972.72-1.8 1.44-2.664 2.268-.828.864-1.692 1.584-2.52 2.304-.864.828-1.692 1.548-2.52 2.412-1.08 1.08-1.584 2.268-1.476 3.852a24.24 24.24 0 0 1 0 4.572c-.108 1.548-.576 2.88-1.188 4.212l-2.268-1.08-.828-.612c1.26-.144 2.988-.36 3.564-.972l-.216-1.296c-.612-.612-1.26-.792-2.34-.972l-1.224-.108-.072-1.332 2.916-1.44.828-.864-.108-.72a2.04 2.04 0 0 0-1.44-.612c-.612 0-1.224 0-1.836-.108v-.36l1.764-1.98c.612-.612 1.152-1.296 1.404-2.484 1.188.072 1.908-.288 2.16-1.188l-.252-1.08c-.612-.36-1.188-.612-1.908-.504-1.476.144-2.196 0-2.916-.108-.108-.828-.36-1.584-.468-2.412a7.469 7.469 0 0 0-1.08-2.052l-.972-.468c-.864-.144-1.44.108-2.052.468L46.668 4.5l-.216 1.908c-.972.252-1.944.468-2.772.612-.972.216-1.944.468-2.88.576-.72.144-1.332 0-1.944-.36l-.72.252.36 1.332c.468.72 1.332.972 2.412.72l3.852 4.104h.72l.828-.972c-.108-.972-.36-1.8-.828-2.52l.108-.612.36-.108 1.836.108.108.36c.108.612 0 1.08-.108 1.548-.144.504-.36.972-.72 1.332l.216.612v.468c-1.08.144-2.052.36-2.988.504-1.116.216-2.052.468-3.024.72-.972.36-1.944.612-2.88.828-.612.144-.972 0-1.332-.36l-.612.252.144.612c.216.72.72 1.296 1.44 1.656.828-.108 1.692-.216 2.52-.36.828 0 1.548-.108 2.412-.216l2.052.216-.288 1.188c-1.332.252-2.124.504-3.096.648-1.08.108-2.052.36-3.024.576-.576.144-1.08 0-1.548-.216l-.972.216.252 1.08c.468.504.972.972 1.44 1.332.468.36.972.72 1.548.972l2.304-.468 1.764-.504-3.096 5.184c.144.612.36 1.08.864 1.44.828.108 1.656-.252 2.268-.828a10.158 10.158 0 0 1 1.8-1.44l.612.36c.108.828.252 1.8.252 2.772-.144 1.08.108 1.908.468 2.736l.612-.216c.612-.612.972-1.332 1.332-2.052.36-.72.576-1.44.828-2.304.252-.72.468-1.44.828-2.16.612.144 1.116.36 1.584.612.468.36.972.468 1.548.612l1.224-.36c.828-.612 1.332-1.476 1.692-2.304.36-.828.576-1.692.72-2.664.108-.828.36-1.8.576-2.628.396-.612.972-.936 1.584-1.08.612-.144 1.656-.144 2.268-.252l.504.612-.468 5.22c0 1.08 0 2.052.108 3.024 0 1.08.108 2.052.252 2.988.108.972.216 1.944.576 2.772l.684.504ZM100.896 34.128h2.16c.72 0 1.548-.108 2.268-.468l-.144-.684c-.936-.468-1.908-.828-2.736-1.332-.864-.468-1.692-.936-2.556-1.548a39.04 39.04 0 0 1-2.412-1.476l.144-.36c.468-.504 1.224-.756 2.16-.864.612-.252 1.08-.72 1.548-1.188l-.108-1.08c-.576-.468-1.188-.576-1.8-.684-.576-.144-.972-.252-1.908-.612-.72.72-1.188 1.08-1.8 1.548-.612.612-1.332 1.116-1.8 1.476l-1.98-.576s.612-1.296 1.296-1.62c.576-.108 1.44-.252 2.052-.36 1.404-.18 3.24-1.116 3.312-2.232l-.108-.684-4.14-.396.936-2.232-.144-1.44-1.872-.36-.972.792c-.432 1.476-1.836 3.564-2.34 3.672 0 0-2.772.36-6.876.864l-.216 1.08c.36.828 1.188 1.26 2.016 1.26 1.08-.252 1.584-.108 1.908 0a4.67 4.67 0 0 1-1.44 2.088c-.828.72-2.664 2.448-2.808 3.492l.432 2.16c1.188-.144 1.764-.504 3.096-1.368l.504.144c.504 1.188 1.188 1.908 2.016 2.628l1.44-.468c.936-.756 1.62-1.116 2.232-1.728.648-.648 1.224-1.944 1.224-1.944s.9.648 1.764 1.26c.828.972 1.692 1.548 2.628 2.052.864.468 1.8.828 3.024 1.188Zm-10.548-4.032-.576-1.368c.144-.468.36-1.08.756-1.44h.252l1.08 1.08-1.512 1.728ZM79.224 19.332l.828-.108c.468-.72.684-1.44 1.044-2.16.252-.828.36-1.548.504-2.088l1.728-.216.072 1.548c.144 1.332 1.08 1.908 1.656 2.736l.936-.36.9-3.96 1.152.072h.612l.396 1.008-1.476.504.252 1.404 1.548 1.08 1.548-.252.936-1.44c.144-.828 0-1.512-.216-2.124-.36-.612-.432-1.656-.432-2.484-.576-.828-1.224-.648-2.196-.54l-1.044-.144-.072-.288c.684-.252 2.376-.684 3.204-1.368.108-.72-.252-1.044-.828-1.188l-3.24.072-.612-.396.108-1.944c1.044-.252 1.872-1.152 2.808-1.728l-.108-.828-3.168-.54-.252-.504.108-1.08c.144-.612-.216-1.08-.576-1.404L83.076.72l-.612.36.612 2.484-.468.54-.9-.144c0-.972.252-1.692.36-2.556l-.252-.792L80.16 0h-.792c0 1.044-.144 1.764-.252 2.628-.108.828-.36 1.548-.468 2.268a65.441 65.441 0 0 0-.36 2.412c-.144 1.08.18 1.728.756 2.268l.864-.036c.36-.756.828-1.512 1.188-2.376l.612-.468 1.116.108c.396.504.612.972.612 1.836l-.108.612c-.72.252-1.368.252-2.196.468-.828.36-2.736.288-3.852.864v.684l.828.576 5.328.216-.144.828h-1.908l-2.664-.144-.936.468c.504 1.08.72 1.944.72 3.024-.108 1.08.144 2.124.72 3.096Zm20.484-2.052c.864.18 1.944.144 2.628-.18l.828-1.476c.252-1.404.252-2.88.252-4.32-.036-1.332-.18-2.844-.18-4.284a67.808 67.808 0 0 0-.576-4.176c-.252-.576-.612-1.584-1.908-1.764l-1.62-.144c.432 1.332.648 2.34.648 3.42.036 1.08.108 2.16.108 3.24.072 1.116.108 2.232.18 3.312.036.972-.144 1.728-.684 2.52l-2.196.756-.072.576 2.592 2.52Zm-5.292-5.832c1.116-.684 1.548-1.404 1.692-2.376.144-.828.288-1.656.432-2.52v-2.16c0-.612-.144-1.296-.576-2.016l-3.348-.252.396 2.016-.108 1.944c0 .972.108 1.8.252 2.628.18.972.576 1.8 1.26 2.736ZM122.04 32.868l.864-.288c.36-1.152.468-2.376.612-3.708.108-1.368.216-2.628.36-3.96.108-1.26.216-2.628.216-3.96l-.108-1.332.252-3.708c.108-.756.108-1.512 0-2.088-.144-.612-.36-1.368-.612-1.98.108-.756.252-1.476.612-2.124.36-.648.72-1.152 1.296-1.764.612-.612.972-1.188 1.224-1.836l-.72-1.908c-.504-.36-.972-.72-1.584-.864-.576-.108-1.296-.216-1.908-.36l-.612.252a26.85 26.85 0 0 1-2.412 5.148 167.323 167.323 0 0 0-2.988 5.112c-.972 1.656-1.584 3.528-1.836 5.472l.612 1.98.72.828c.864-.252 1.44-.756 1.8-1.548.36-.828.864-1.404 1.584-2.016l.468.252-.108 7.956c.108.828.36 1.584.468 2.448.144.864.36 1.584.612 2.448.252.576.612 1.152 1.188 1.548Zm13.5-.18.36-.144c.612-.576.972-1.152 1.08-1.872.144-.72.144-1.476.144-2.196 0-1.836.108-2.592.216-3.348 1.44-.396 2.052-.648 2.772-.792.612-.108 1.332-.216 2.052-.216.612 0 1.332 0 2.052-.144.468-.108.828-.468 1.188-.936l-.216-.828c-.72-.612-1.476-1.116-2.304-1.368-.828-.216-1.8-.36-2.628-.468-.972-.108-1.836-.36-2.664-.936l.252-1.044 2.628-.18a69.443 69.443 0 0 0 2.88-.396c.864-.108 1.692-.36 2.556-.72l-.36-.936c-.72-.468-1.44-.828-2.304-.972-.828-.108-1.8-.216-2.628-.108-.864.108-1.836 0-2.664-.108l-.108-.432c0-.612.576-2.7.72-3.204.828-.396 1.8-.54 2.772-.648.936-.108 1.908-.108 2.88-.252l.612-.54-.144-1.008a10.71 10.71 0 0 0-1.692-.864c-.576-.252-1.188-.396-1.8-.504h-2.052c-.72.108-3.6.252-4.212.36h-1.656c-.612.144-1.224 0-1.584-.396l.36-2.556c.108-.648 0-1.26-.252-1.728a13.422 13.422 0 0 0-.72-1.44l-.828-.36c-.612-.144-1.08 0-1.584.252l.144.54-1.224 6.048-1.08 5.58.504 4.176 1.08 1.584.828-.288c.36-.792.72-1.692.864-2.628.108-1.008.216-1.98.468-2.844.252-.864.612-1.728.972-2.664l2.268.288.144.396c.108 1.116 0 2.196-.144 3.204-.108 1.08-.216 2.088-.216 3.204-.144 1.08-.252 2.088-.504 3.096v2.664c-.108 1.044 0 1.872.108 2.772.144 1.908.252 2.772.612 3.6l2.052 2.304Z"/>
    </g>
</svg>
