<?xml version="1.0" encoding="UTF-8"?>
<svg width="46.664px" height="21.072px" viewBox="0 0 46.664 21.072" version="1.1" xmlns="http://www.w3.org/2000/svg" xmlns:xlink="http://www.w3.org/1999/xlink">
    <title>匯出 copy</title>
    <g id="視覺" stroke="none" stroke-width="1" fill="none" fill-rule="evenodd">
        <g id="匯出-copy" transform="translate(0, 0)" fill="#FFFFFF" fill-rule="nonzero">
            <path d="M3.696,21.072 C6.168,20.904 8.736,20.784 11.304,20.688 C13.8,20.592 16.296,20.376 18.768,20.136 C19.56,19.968 20.112,19.56 20.544,19.008 L20.544,18.696 C19.728,18.24 18.864,17.952 17.808,17.808 C16.776,17.832 15.816,17.952 14.832,18.072 C13.8,18.264 7.536,18.48 7.536,18.48 C6.264,18.576 4.968,18.648 3.768,18.816 C3.432,18.912 3.192,18.792 2.952,18.552 L3.12,17.592 L2.952,14.232 C2.952,14.232 3.12,3.792 3.192,3 C3.936,2.712 4.656,2.592 5.52,2.64 L15.312,2.688 C16.848,2.832 18.432,2.832 19.776,2.424 L20.616,1.608 L20.712,1.44 L20.544,1.032 C19.824,0.432 19.008,0.144 18.144,0 C15.576,0.048 12.984,0.072 10.416,0.168 C7.848,0.264 5.28,0.384 2.712,0.552 L1.992,0.456 L1.368,0.576 L0.672,1.248 L0.864,1.824 C0.96,2.64 0.144,16.8 -1.8189894e-12,18.624 L0.312,19.704 C1.2,20.64 2.328,21.072 3.696,21.072 Z M4.608,17.472 C5.088,17.544 5.496,17.376 5.808,16.992 C5.976,16.008 6.312,15.144 6.864,14.328 C7.416,13.536 7.752,12.648 7.896,11.688 C7.992,11.352 7.896,11.112 7.752,10.872 L7.512,10.872 C6.936,11.448 6.456,12.096 5.904,12.72 C5.328,13.368 4.704,13.92 4.128,14.496 L3.48,15.528 L3.648,17.304 L4.608,17.472 Z M13.656,17.088 C14.472,16.824 17.976,16.752 18.864,16.584 L19.872,15.552 L19.776,15.312 C18.816,15 17.808,14.76 16.848,14.592 L17.04,13.224 C17.856,13.152 18.552,12.912 19.08,12.336 L19.08,12.096 C18.456,12.024 17.808,11.856 17.136,11.616 L17.184,10.824 C17.76,10.728 18.288,10.488 18.768,10.176 L18.744,9.864 L17.136,9.456 L17.112,8.88 L18.792,8.736 C19.032,8.328 19.392,7.92 19.8,7.68 L19.704,7.44 C19.128,7.128 18.504,6.96 17.832,6.888 L17.976,6.24 C17.952,5.52 17.76,4.944 17.4,4.392 C16.776,3.84 16.032,3.6 15.216,3.504 L14.904,3.504 C15.096,4.56 15.456,5.52 15.912,6.408 L15.84,7.032 L13.92,7.368 C13.368,7.44 12.864,7.368 12.48,7.2 C12.768,6.312 13.2,5.52 13.752,4.8 L13.632,4.32 C12.912,4.152 12.264,3.984 11.544,3.84 L10.824,3.984 C10.632,5.112 10.248,6.168 9.744,7.128 C9.144,8.16 8.616,9.12 8.088,10.176 C8.112,10.728 8.232,11.376 8.424,11.928 L8.736,11.928 L10.272,10.416 L10.512,10.416 L10.464,11.784 L10.752,14.76 L10.728,15.864 L11.256,16.824 L11.64,16.752 C12.36,16.68 13.104,16.824 13.656,17.088 Z M15.096,14.832 C12.792,15.48 12.552,15.384 12.384,15.144 C12.288,14.592 12.336,14.016 12.552,13.536 C12.552,13.536 14.64,13.392 15.192,13.632 C15.312,14.016 15.24,14.424 15.096,14.832 Z M15.144,11.928 L12.504,12.072 L12.624,10.776 C13.824,10.944 14.544,10.728 15.192,11.064 L15.12,11.784 L15.144,11.928 Z M5.016,10.632 L6.552,10.632 L7.344,9.84 L7.272,9.528 C6.696,9.12 6.144,8.952 5.424,8.88 C4.704,8.784 3.984,8.952 3.408,9.192 L3.576,10.248 L5.016,10.632 Z M14.904,9.456 L13.608,9.696 L12.648,9.6 C12.552,9.216 12.624,8.88 12.768,8.64 L15.024,8.88 L14.904,9.456 Z M7.176,7.44 L8.136,7.104 L8.4,6.624 L8.304,6.384 C7.752,5.976 7.104,5.664 6.384,5.496 C5.664,5.352 4.944,5.184 4.224,5.112 L3.888,5.184 C3.816,5.664 3.984,6.072 4.296,6.456 C5.184,6.864 6.144,7.2 7.176,7.44 Z" id="Shape"></path>
            <path d="M30.728,20.52 C31.256,20.52 31.736,20.52 32.24,20.52 C32.72,20.52 33.2,20.52 33.728,20.448 C34.208,20.448 36.92,20.04 37.784,19.968 C38.552,19.896 39.344,19.728 40.208,19.656 C40.976,19.56 41.72,19.416 43.976,19.08 L45.536,20.04 L46.352,19.896 L46.664,19.32 C46.592,18.768 46.424,18.192 46.208,17.64 C45.968,17.088 45.896,16.584 45.656,16.056 C45.416,15.552 45.176,15.096 44.792,14.616 C44.48,14.304 44.168,14.064 43.784,13.824 C43.208,13.56 42.752,13.392 42.248,13.464 L41.912,13.632 L42.848,17.04 L42.776,17.448 L38.264,17.952 C37.64,18.048 37.016,17.952 37.016,17.952 L37.28,12.744 C37.328,12.216 37.328,11.544 37.328,11.544 C37.712,11.304 38.888,11.112 39.896,10.968 C40.736,10.848 41.264,10.656 41.72,10.512 L42.584,11.208 L43.52,11.04 C43.928,10.968 44.192,10.728 44.264,10.32 C44.192,9.768 44.192,9.288 44.12,8.712 C44.024,8.232 43.88,7.752 43.712,7.2 C43.544,6.72 43.424,6.24 43.184,5.832 C42.92,5.424 42.632,5.112 42.392,4.704 C42.104,4.296 41.792,3.984 41.384,3.744 L40.4,4.08 C40.544,4.632 40.712,5.28 40.88,5.928 C40.952,6.552 41.12,7.2 41.24,7.776 L41.168,8.568 C40.808,8.88 40.16,8.976 38.864,9.096 C38.336,9.144 37.472,9.144 37.472,9.144 L37.424,7.056 L37.328,0.696 L36.848,0.216 C36.152,0.144 35.528,0.216 34.952,0.552 L35.12,1.584 C35.12,2.472 35.12,3.36 35.024,4.224 C34.952,5.112 34.808,8.568 34.664,9.456 L34.112,9.768 C33.656,9.768 32.72,9.768 32.24,9.768 C31.784,9.768 30.56,9.576 30.2,9.408 C30.128,8.688 29.96,7.968 29.888,7.248 C29.792,6.504 29.72,5.784 29.792,5.064 C29.792,4.344 29.576,3.624 29.192,3.072 L28.736,3.096 C28.256,3.6 28.136,4.056 28.04,4.632 C27.848,5.88 27.584,7.296 27.488,7.848 C27.488,8.4 27.584,8.976 27.656,9.528 C27.728,10.104 27.896,10.656 28.112,11.136 L28.616,11.448 C30.392,11.496 31.664,11.544 32.24,11.448 C32.792,11.448 33.896,11.544 34.424,11.784 L34.232,13.992 C34.232,14.568 34.184,15.144 34.256,15.72 C34.328,16.296 34.496,16.848 34.664,17.4 L34.568,17.952 L33.512,18.12 L30.2,17.88 L30.152,16.752 L29.84,15.144 C29.672,14.808 29.456,14.568 29.144,14.328 C28.472,13.872 27.872,13.512 27.536,13.896 C26.768,14.88 26.744,16.032 26.744,16.032 C26.84,16.584 26.96,17.712 27.032,18.288 C27.032,18.84 27.176,19.416 27.488,19.8 C27.992,20.136 28.544,20.28 29.072,20.28 C29.624,20.28 30.176,20.376 30.728,20.52 Z" id="Path"></path>
        </g>
    </g>
</svg>