<?xml version="1.0" encoding="UTF-8"?>
<svg width="44.9584473px" height="20.5732495px" viewBox="0 0 44.9584473 20.5732495" version="1.1" xmlns="http://www.w3.org/2000/svg" xmlns:xlink="http://www.w3.org/1999/xlink">
    <title>性別</title>
    <g id="Symbols" stroke="none" stroke-width="1" fill="none" fill-rule="evenodd">
        <g id="性別" fill="#9EBCC7" fill-rule="nonzero">
            <path d="M4.99464607,20.3092495 L5.23464607,20.1172495 C5.47464607,19.5172495 5.71464607,18.8692495 5.95464607,18.1252495 C6.19464607,17.4772495 6.36264607,16.8052495 6.50664607,16.0612495 C6.67464607,15.3172495 6.74664607,14.5732495 6.84264607,13.8292495 L6.67464607,10.2772495 C6.60264607,9.55724945 6.50664607,9.17324945 6.81864607,8.59724945 L7.85064607,8.71724945 L8.45064607,8.71724945 L9.07464607,7.97324945 L8.93064607,7.44524945 C8.52264607,7.01324945 8.11464607,6.70124945 7.70664607,6.46124945 C7.22664607,6.19724945 6.74664607,6.10124945 6.19464607,6.10124945 C6.12264607,5.45324945 6.02664607,4.75724945 5.95464607,4.15724945 C5.78664607,3.60524945 5.71464607,2.93324945 5.64264607,2.30924945 C5.54664607,1.70924945 5.54664607,1.03724945 5.47464607,0.437249452 L4.22664607,0.245249452 L3.74664607,0.245249452 C3.89064607,0.893249452 3.98664607,1.54124945 4.05864607,2.30924945 C4.05864607,3.02924945 4.05864607,3.67724945 4.13064607,4.42124945 C4.13064607,5.16524945 4.22664607,5.93324945 4.37064607,6.58124945 C4.37064607,7.34924945 4.37064607,7.82924945 4.46664607,8.21324945 C4.46664607,8.64524945 4.53864607,9.12524945 4.61064607,9.55724945 L4.53864607,10.7812495 C4.61064607,12.2452495 4.61064607,13.0852495 4.53864607,13.8292495 C4.46664607,14.5732495 4.37064607,15.4132495 4.29864607,16.1332495 C4.22664607,16.9012495 4.05864607,17.7172495 3.98664607,18.4612495 C3.89064607,19.1092495 4.05864607,19.6612495 4.29864607,20.2132495 L4.99464607,20.3092495 Z M10.4666461,19.6852495 C11.0186461,19.6132495 11.4986461,19.4452495 12.0506461,19.3732495 C12.6266461,19.2292495 13.7306461,19.2292495 14.3066461,19.1572495 C14.8586461,19.1572495 15.3386461,19.1572495 15.9146461,19.1092495 C16.3946461,19.1092495 16.8746461,19.1092495 17.2586461,19.1092495 C17.6666461,19.1092495 18.1466461,19.1092495 18.6266461,19.1572495 C19.0346461,19.2292495 19.5146461,19.2292495 19.9226461,19.3732495 L21.6746461,19.1572495 L22.1546461,18.5812495 L21.9866461,18.1972495 C21.0026461,17.1892495 19.3466461,16.9732495 18.6266461,16.8772495 C17.9066461,16.8772495 17.1866461,16.7092495 16.5386461,16.4452495 L16.7786461,14.8852495 C17.4026461,14.5972495 18.9626461,14.4052495 19.4426461,14.1172495 L20.0906461,13.5892495 L20.0906461,13.2532495 C19.8506461,12.9892495 17.7386461,12.4132495 17.1146461,12.3412495 C16.8746461,11.7652495 16.7786461,11.3092495 16.8746461,10.7572495 C16.9466461,10.3492495 16.8746461,9.82124945 16.7786461,9.38924945 L17.0666461,8.66924945 L19.2266461,8.64524945 L19.8506461,8.06924945 L19.8746461,7.27724945 C19.3706461,6.91724945 18.7466461,6.79724945 16.7066461,6.60524945 C16.6346461,5.86124945 16.7066461,5.21324945 16.9226461,3.91724945 C17.1626461,3.41324945 17.4026461,2.78924945 17.8106461,2.42924945 L17.7386461,2.04524945 L17.0906461,1.82924945 C16.6106461,1.82924945 16.1306461,1.82924945 15.6506461,1.73324945 C15.1706461,1.73324945 14.7626461,1.82924945 14.3546461,2.04524945 L14.4266461,2.45324945 L14.5466461,6.58124945 C13.9706461,6.86924945 13.4186461,6.60524945 12.3626461,6.60524945 C12.2906461,6.02924945 12.2906461,4.22924945 12.2186461,3.82124945 C12.1226461,3.38924945 12.0506461,2.81324945 11.9786461,2.45324945 L10.4426461,1.92524945 L10.2026461,1.92524945 L10.4426461,3.26924945 C10.4426461,4.03724945 10.3706461,4.87724945 10.2986461,5.69324945 C10.1306461,6.53324945 9.89064607,7.34924945 9.65064607,8.04524945 C9.31464607,8.74124945 9.07464607,9.48524945 8.93064607,10.2292495 C8.93064607,10.6852495 8.93064607,11.0212495 9.00264607,11.4052495 C9.00264607,11.8372495 9.07464607,12.1732495 9.24264607,12.3892495 C9.79464607,12.1012495 10.2026461,11.7652495 10.5386461,11.2132495 C10.7786461,10.8052495 11.0906461,10.2772495 11.3306461,9.82124945 C11.6426461,9.53324945 12.0506461,9.36524945 12.4586461,9.29324945 C12.8666461,9.12524945 13.2506461,9.12524945 13.6586461,9.05324945 L14.3066461,9.12524945 L14.6186461,10.6852495 L14.5466461,12.1252495 C14.1386461,12.4852495 13.6586461,12.6052495 13.1786461,12.4852495 C12.6986461,12.4852495 12.2186461,12.6052495 11.8106461,12.6772495 C11.4026461,12.7492495 10.9226461,12.9412495 10.5386461,13.0852495 C10.5386461,13.0852495 10.4186461,13.5412495 10.6586461,13.7332495 C10.9946461,14.3092495 11.9786461,14.5012495 11.9786461,14.5012495 L14.2106461,14.3332495 L14.6186461,14.8372495 C14.4506461,15.5812495 14.3066461,16.2532495 14.2106461,16.9732495 L9.74664607,17.7652495 L9.17064607,17.9092495 L9.17064607,18.1012495 C9.41064607,18.7732495 9.89064607,19.2532495 10.4666461,19.6852495 Z M0.89064607,10.7572495 C1.27464607,10.5652495 1.63464607,10.2532495 1.99464607,9.79724945 C2.35464607,9.34124945 2.61864607,8.95724945 2.97864607,8.57324945 C3.36264607,8.16524945 3.53064607,7.75724945 3.72264607,7.22924945 L3.57864607,6.79724945 C3.07464607,6.53324945 2.47464607,6.43724945 1.82664607,6.60524945 L0.55464607,6.74924945 C0.19464607,7.03724945 0.0026460703,7.56524945 0.0026460703,8.14124945 C-0.0213539297,8.66924945 0.12264607,9.12524945 0.24264607,9.55724945 C0.38664607,10.0132495 0.60264607,10.3972495 0.89064607,10.7572495 Z" id="Shape"></path>
            <path d="M43.7306461,20.5732495 L44.2106461,20.5732495 L44.5226461,20.1892495 L44.2106461,18.6532495 C44.1146461,18.1732495 44.1146461,17.6932495 44.2106461,17.2132495 C44.2826461,16.8052495 44.3786461,16.3252495 44.4506461,15.9172495 C44.5226461,15.5332495 44.6186461,15.1252495 44.6186461,14.6452495 C44.4506461,13.5892495 44.5226461,12.9652495 44.6186461,12.3892495 C44.6906461,11.8372495 44.7626461,11.1892495 44.8586461,10.6372495 C44.9306461,10.0612495 44.9306461,9.43724945 44.9306461,8.86124945 L44.6906461,4.37324945 L44.9306461,2.21324945 C45.0026461,1.80524945 44.9306461,1.39724945 44.7626461,1.08524945 L43.9706461,0.677249452 L42.3626461,0.749249452 L42.0506461,0.845249452 C42.2906461,1.15724945 42.3626461,1.56524945 42.3626461,1.97324945 C42.3626461,2.35724945 42.3626461,2.83724945 42.4346461,3.24524945 C42.4346461,3.96524945 42.4346461,4.78124945 42.4346461,5.50124945 C42.3626461,6.29324945 42.3626461,7.10924945 42.2906461,7.82924945 C42.1946461,8.54924945 42.1226461,9.34124945 42.1226461,11.8372495 C42.0506461,12.4852495 42.0506461,13.1092495 42.1226461,13.7572495 C42.1946461,14.4772495 42.0506461,15.0532495 41.7146461,15.6052495 L39.9626461,15.4372495 L38.2586461,15.4372495 L38.2586461,15.6772495 C38.6666461,16.0852495 39.1466461,16.5652495 39.5546461,17.0452495 C39.9626461,17.6212495 40.2746461,18.1012495 40.5866461,18.6532495 C40.9946461,19.2292495 41.4746461,19.6132495 42.0506461,19.8532495 C42.6026461,20.0932495 43.1546461,20.3332495 43.7306461,20.5732495 Z M32.6426461,17.8612495 L34.5866461,17.8612495 L35.6906461,17.4532495 C35.9306461,17.0452495 36.1706461,16.6612495 36.3386461,16.2532495 C36.5066461,15.8452495 36.5786461,15.3652495 36.6506461,14.8852495 C36.6506461,14.4772495 36.7466461,13.9972495 36.8186461,13.5892495 C36.8186461,13.0372495 36.8186461,12.5572495 36.7466461,12.0772495 C36.6506461,11.5972495 36.5066461,11.1172495 36.2666461,10.7092495 C35.8586461,10.1572495 35.4506461,9.82124945 34.8986461,9.58124945 C34.3226461,9.34124945 33.8426461,9.19724945 33.2906461,9.10124945 C32.7386461,9.02924945 32.0906461,8.93324945 31.5146461,8.86124945 L30.8906461,8.30924945 L31.6106461,7.10924945 C31.9946461,6.86924945 32.4026461,6.70124945 32.9786461,6.70124945 C33.4586461,6.70124945 33.8426461,6.53324945 34.2506461,6.29324945 C34.6586461,6.05324945 35.0666461,5.81324945 35.4506461,5.64524945 L35.6906461,4.85324945 L35.7866461,3.07724945 C35.6906461,2.69324945 35.6906461,2.28524945 35.6906461,1.87724945 C35.6906461,1.46924945 35.5466461,1.15724945 35.3066461,0.845249452 L34.2506461,0.509249452 L31.8506461,0.605249452 C31.2746461,0.677249452 30.7226461,0.605249452 30.2426461,0.509249452 C29.6666461,0.437249452 29.1866461,0.269249452 28.8026461,0.029249452 C28.3226461,-0.042750548 27.8426461,0.029249452 27.4346461,0.125249452 C27.0266461,0.269249452 26.5466461,0.437249452 26.1386461,0.509249452 L25.8986461,0.917249452 C25.9946461,1.46924945 26.1386461,1.97324945 26.3786461,2.35724945 C26.6186461,2.76524945 26.7866461,3.24524945 26.8586461,3.72524945 C26.9546461,4.27724945 26.9546461,4.85324945 26.8586461,5.40524945 C27.0986461,5.81324945 27.0506461,6.48524945 27.3626461,6.86924945 C27.6986461,7.27724945 28.2746461,7.39724945 28.8986461,7.46924945 C28.5866461,8.35724945 28.1546461,9.43724945 27.7466461,10.3012495 C27.2666461,11.1892495 26.7146461,12.7972495 26.4026461,13.6852495 C25.9946461,14.5492495 25.6106461,15.4372495 25.1306461,16.3252495 L25.1306461,16.7332495 L25.7546461,16.9732495 L27.5306461,16.0852495 C28.0106461,15.6052495 28.4186461,15.0532495 28.7306461,14.4772495 C29.1146461,13.2052495 29.3546461,12.5572495 29.5946461,12.0052495 C29.8346461,11.6692495 30.0026461,11.3572495 30.2426461,10.9492495 C30.4106461,10.7092495 30.7226461,10.4692495 31.1306461,10.3252495 C31.6106461,10.3252495 32.0906461,10.3972495 32.4986461,10.4692495 C32.8826461,10.6372495 33.2906461,10.8052495 33.6986461,10.9492495 C34.1786461,11.4292495 34.4186461,12.0052495 34.4906461,12.4852495 C34.5866461,12.9652495 34.4906461,13.4452495 34.4186461,13.8292495 C34.3226461,14.3332495 34.0826461,14.7172495 33.7706461,15.0532495 C33.2906461,15.4372495 32.7386461,15.6772495 32.1626461,15.8452495 C31.6106461,16.0852495 30.9626461,16.1572495 30.3146461,16.1572495 L30.4106461,16.4932495 C30.7226461,16.8052495 31.1306461,17.0452495 31.5146461,17.2852495 C31.9226461,17.5252495 32.2586461,17.6932495 32.6426461,17.8612495 Z M38.1866461,10.3972495 L38.8346461,10.2292495 C39.0746461,9.67724945 39.2426461,9.19724945 39.4106461,8.62124945 C39.5786461,8.06924945 39.6506461,7.49324945 39.7226461,6.94124945 C39.8186461,6.36524945 39.8186461,5.74124945 39.8906461,5.16524945 C39.8906461,4.78124945 39.8906461,4.27724945 39.8906461,3.79724945 C39.8186461,3.41324945 39.7226461,3.00524945 39.6506461,2.59724945 L38.9306461,2.28524945 L37.7786461,2.21324945 L37.3946461,2.28524945 L37.7066461,3.07724945 C37.7066461,3.55724945 37.7066461,4.03724945 37.6346461,4.44524945 C37.5386461,4.92524945 37.5386461,5.40524945 37.4666461,5.81324945 C37.3946461,6.29324945 37.2986461,6.77324945 37.2986461,7.25324945 C37.3946461,7.66124945 37.3946461,8.06924945 37.3946461,8.45324945 C37.3946461,8.86124945 37.4666461,9.26924945 37.6346461,9.67724945 L38.1866461,10.3972495 Z M33.3626461,5.09324945 C32.8106461,5.16524945 30.9626461,4.92524945 30.4106461,5.02124945 C29.8346461,5.09324945 29.4266461,4.92524945 29.0426461,4.68524945 C29.0426461,4.13324945 29.1866461,3.55724945 29.5226461,3.07724945 C30.0746461,2.83724945 30.7226461,2.69324945 31.4426461,2.59724945 C32.0906461,2.52524945 32.6426461,2.59724945 33.2186461,2.76524945 L33.6986461,4.03724945 L33.6026461,4.85324945 L33.3626461,5.09324945 Z" id="Shape"></path>
        </g>
    </g>
</svg>