<?xml version="1.0" encoding="UTF-8"?>
<svg width="44.52px" height="22.92px" viewBox="0 0 44.52 22.92" version="1.1" xmlns="http://www.w3.org/2000/svg" xmlns:xlink="http://www.w3.org/1999/xlink">
    <title>btn_eyes</title>
    <g id="Symbols" stroke="none" stroke-width="1" fill="none" fill-rule="evenodd">
        <g id="btn_eyes" transform="translate(0.000000, -0.000000)" fill="#B8BDB4" fill-rule="nonzero">
            <path d="M20.856,21.072 L21.552,20.616 L21.552,20.136 C21,19.632 20.52,19.104 19.944,18.576 C19.392,18.12 18.816,17.664 18.336,17.136 C17.784,16.608 17.352,16.08 16.896,15.48 L16.896,15.216 C17.232,15.024 17.544,14.616 17.952,14.232 C18.336,13.896 18.672,13.536 19.056,13.176 C19.392,12.84 19.704,12.624 20.184,12.288 L20.184,11.712 C19.56,11.4 18.984,11.136 18.024,10.704 L17.712,10.704 C17.4,11.16 17.16,11.544 16.92,11.928 C16.68,12.408 16.44,12.768 16.2,13.224 C15.888,13.68 15.624,13.968 15.312,14.184 L13.608,12.744 L11.616,12.888 L11.616,13.32 L12.264,13.8 L13.464,15 C14.184,15.864 15,16.68 15.792,17.472 C16.512,18.264 17.328,18.96 18.12,19.608 C18.936,20.232 19.824,20.736 20.856,21.072 Z M9.576,20.496 L10.176,20.616 C10.8,20.184 11.28,19.68 11.832,19.128 C12.24,18.6 12.648,18.072 12.96,17.4 L12.96,17.064 L11.064,17.592 C10.896,17.664 10.728,17.592 10.56,17.424 C10.56,17.424 10.632,16.536 10.704,15.912 C10.8,14.736 10.872,14.136 10.944,13.512 C11.04,12.888 11.112,12.336 11.184,11.76 C11.592,11.544 12.072,11.352 12.576,11.28 C13.056,11.16 14.712,10.752 15.12,10.368 C15.84,10.56 16.92,10.176 17.064,8.88 L16.944,5.856 C16.848,5.424 16.896,4.416 16.896,3.888 C16.896,3.456 16.728,2.952 16.488,2.616 C16.104,2.112 15.696,1.944 15.144,1.848 C14.256,1.944 13.464,2.016 12.648,2.136 C11.76,2.208 10.968,2.4 10.248,2.64 C9.528,2.88 8.736,3.024 7.872,3.48 C8.184,4.2 8.328,4.752 8.424,5.928 C8.496,6.648 8.496,9.96 8.496,10.944 C8.424,11.88 8.424,12.888 8.328,13.872 C8.256,14.856 8.088,16.368 7.944,17.328 L8.016,18.36 C8.016,18.36 8.616,20.016 9.576,20.496 Z M3.192,18.192 C3.576,18.288 3.984,18.12 5.568,16.992 L6.12,17.256 L6.696,17.088 L7.104,16.248 L6.936,13.68 L7.008,10.68 C7.008,10.032 7.008,9.312 6.936,8.616 C6.864,7.968 6.768,7.272 6.696,6.672 C6.528,5.976 6.288,5.448 6.048,4.896 C5.664,4.416 5.256,4.176 4.776,4.08 C4.296,4.008 3.816,4.008 3.336,4.008 C2.856,4.008 2.4,3.672 1.656,3.6 C1.656,3.6 0.552,3.96 0,4.632 C0.24,5.424 0.552,6.12 0.624,6.912 C0.624,7.824 0.624,8.688 0.72,9.48 C0.72,10.416 0.72,11.28 0.792,12.144 L0.72,14.592 L0.792,16.248 C0.792,16.248 1.344,17.952 2.208,18.12 L3.192,18.192 Z M4.968,15.024 L3.384,15.384 C3.192,15.456 3.024,15.384 2.928,15.216 L3.096,13.488 L4.776,13.248 L4.968,15.024 Z M4.56,11.28 C3.912,11.28 3.336,11.136 2.856,10.92 C2.76,10.56 2.856,10.32 3.024,10.104 C3.024,10.104 4.392,10.104 4.632,10.464 L4.56,11.28 Z M14.28,8.976 L11.616,9.24 L11.112,9.144 L10.944,8.784 L10.992,7.896 C11.232,7.824 14.304,8.088 14.304,8.088 L14.28,8.976 Z M4.392,8.16 L2.928,8.016 L2.76,6.384 L3.528,6.144 L4.08,6.264 C4.248,6.672 4.488,7.992 4.392,8.16 Z M14.208,5.952 C14.208,5.952 11.64,6.24 11.16,6.432 L10.896,6.336 C10.752,5.712 10.512,5.088 10.464,4.488 L13.848,4.224 L14.208,5.952 Z" id="Shape"></path>
            <path d="M42.384,22.848 L42.768,22.848 C43.248,22.728 43.632,22.416 43.8,21.816 L43.728,20.304 C43.632,19.416 43.704,14.592 43.704,14.592 L43.8,14.184 L43.464,12.12 C42.36,11.568 41.16,11.232 39.96,11.16 L37.224,11.232 C36.576,10.992 35.856,10.752 35.136,10.68 C34.752,10.752 34.344,10.848 33.96,11.16 L34.128,12.192 L33.624,19.656 C33.552,20.856 33.792,21.96 34.44,22.92 L35.064,22.848 L35.616,21.72 C35.76,20.376 36.096,19.488 36.336,18.6 L41.016,18.672 L41.28,19.896 L41.232,19.992 C40.296,20.4 39.336,20.88 38.304,21.504 L38.304,21.96 C39.168,22.128 41.688,22.704 42.384,22.848 Z M26.016,19.368 L26.52,19.368 L26.928,18.816 C27.552,18.744 28.296,18.552 28.944,18.384 C29.664,18.216 30.312,17.928 30.768,17.472 L31.248,17.736 L31.896,17.592 L32.496,16.296 C32.232,15.576 32.088,15.048 32.16,14.232 L32.16,7.248 L32.328,5.256 L32.232,4.272 C31.272,3.816 30.12,3.648 29.088,3.72 C27.96,3.816 27.096,3.552 26.112,3.096 L25.032,3.552 L25.368,5.376 L25.2,16.2 L25.128,17.28 L26.016,19.368 Z M30.432,16.008 L27.624,16.56 C27.48,16.656 27.36,16.584 27.264,16.392 C27.192,15.48 27.264,14.592 27.504,13.848 L30.096,13.584 L30.504,15.864 L30.432,16.008 Z M40.728,16.92 L40.536,17.016 L36.408,17.016 C36.336,16.608 36.408,16.104 36.648,15.792 L40.44,15.624 L40.704,15.696 L40.848,16.344 C40.944,16.512 40.848,16.68 40.728,16.92 Z M40.608,13.968 C40.608,13.968 36.912,14.136 36.576,14.04 L36.576,13.224 L37.056,12.888 C38.184,12.96 39.408,13.056 40.44,13.2 L40.704,13.8 L40.608,13.968 Z M29.928,11.76 L28.032,11.952 C27.792,12.048 27.648,11.976 27.6,11.856 L27.672,10.608 C28.08,10.416 30,10.344 30,10.344 C30.096,10.968 30.024,11.496 29.928,11.76 Z M29.832,8.52 L27.744,8.328 C27.672,5.64 27.744,5.472 27.888,5.28 L29.616,5.568 L30.024,7.8 L29.832,8.52 Z M34.584,10.392 L37.632,10.392 L43.632,10.08 L44.52,9.216 L44.52,8.352 L42.84,8.112 C42.84,8.112 39.552,8.184 39.312,8.088 L39.552,7.2 C40.44,7.032 41.4,6.72 42.36,6.168 L42.264,5.544 C41.472,5.304 40.656,5.064 40.104,4.944 L40.344,4.296 C41.064,3.984 41.88,3.672 42.744,3.264 L42.672,2.64 C41.64,2.568 40.848,2.4 40.104,2.16 C40.032,1.92 40.104,1.584 40.344,1.344 L40.272,0.792 C39.792,0.312 39.384,0.072 38.832,1.42108547e-14 L37.656,0.24 L37.488,2.16 C36.336,2.328 35.064,2.496 33.792,2.64 L33.576,3.072 C33.696,3.504 34.008,3.816 34.392,3.96 C35.52,4.2 36.504,4.152 37.416,4.392 L37.32,4.968 L34.272,5.208 L33.624,5.304 C33.648,5.76 33.528,6.144 33.936,6.528 C34.992,7.08 36.096,7.104 37.32,7.104 L37.488,7.608 L37.416,8.184 C36.84,8.352 36.024,8.424 35.304,8.52 C34.584,8.592 33.792,8.76 33.072,9 L32.904,9.288 L33,9.6 C33.456,10.08 33.936,10.32 34.584,10.392 Z" id="Shape"></path>
        </g>
    </g>
</svg>