<?xml version="1.0" encoding="UTF-8"?>
<svg width="45.5473215px" height="20.856px" viewBox="0 0 45.5473215 20.856" version="1.1" xmlns="http://www.w3.org/2000/svg" xmlns:xlink="http://www.w3.org/1999/xlink">
    <title>btn_accessories</title>
    <g id="Symbols" stroke="none" stroke-width="1" fill="none" fill-rule="evenodd">
        <g id="btn_accessories" transform="translate(0.000000, 0.000000)" fill="#B8BDB4" fill-rule="nonzero">
            <path d="M1.12332148,19.848 C1.53132148,19.92 1.91532148,19.848 2.25132148,19.608 C2.49132148,19.32 2.75532148,19.224 3.37932148,19.224 C4.02732148,19.128 4.62732148,18.96 5.25132148,18.768 C5.77932148,18.672 6.37932148,18.48 7.00332148,18.384 C7.62732148,18.288 8.25132148,18.216 8.77932148,18.024 C9.47532148,17.952 10.0273215,18.144 10.3873215,18.768 L11.1073215,18.768 L11.8273215,18.096 L11.6833215,16.776 L11.8273215,16.032 C11.7553215,15.048 11.7553215,13.944 11.7553215,12.96 C11.7553215,12 11.7553215,10.896 11.6833215,9.912 C11.5873215,8.88 11.5153215,7.896 11.4673215,6.984 L10.1233215,6.36 L8.25132148,6.552 C7.79532148,6.624 7.41132148,6.552 7.09932148,6.24 C7.19532148,5.736 7.19532148,4.392 7.26732148,3.912 C7.33932148,3.48 7.48332148,3.048 7.81932148,2.784 C8.15532148,2.496 8.56332148,2.424 9.01932148,2.328 C9.42732148,2.232 9.83532148,2.064 10.1473215,1.824 L10.0753215,1.536 C9.64332148,1.248 9.09132148,1.056 8.56332148,1.056 L7.07532148,1.056 C6.54732148,0.96 6.01932148,1.056 5.58732148,1.296 C5.17932148,1.584 3.23532148,2.04 2.70732148,2.16 L1.67532148,1.848 L1.33932148,1.944 L1.50732148,2.952 C1.65132148,3.456 1.98732148,3.864 2.37132148,4.104 L3.09132148,4.032 C3.37932148,3.936 3.59532148,4.032 3.83532148,4.248 L3.66732148,6.576 L3.21132148,7.176 C2.75532148,7.272 1.21932148,6.696 0.835321475,6.624 L0.499321475,6.672 L0.595321475,7.536 C0.643321475,8.544 0.643321475,9.456 0.595321475,10.32 C0.499321475,11.256 0.331321475,12.168 0.259321475,13.056 C0.187321475,13.944 0.0913214752,14.88 0.0193214752,15.768 C-0.0286785248,16.44 0.0193214752,16.944 0.0913214752,17.568 C0.187321475,18.192 0.331321475,18.72 0.595321475,19.176 L1.12332148,19.848 Z M18.9313215,19.512 C19.3873215,19.512 19.8433215,19.512 20.3953215,19.392 C20.8753215,19.32 21.2593215,19.152 21.6673215,18.816 C21.5953215,18.12 21.5233215,17.4 21.4273215,16.704 C21.3553215,15.96 21.2593215,15.24 21.2593215,14.424 C21.1873215,13.704 21.0193215,13.104 20.6593215,12.48 L19.6033215,11.448 L19.2913215,11.664 L19.3633215,12.264 L18.9553215,14.256 C18.6673215,14.832 18.3553215,15.36 18.1393215,16.008 C17.8033215,16.656 17.4433215,17.208 17.0593215,17.688 L15.4753215,17.328 C15.0913215,17.136 14.8033215,16.752 14.6353215,16.248 L14.7073215,15.504 C14.6353215,15 14.5633215,14.424 14.5633215,13.776 C14.4673215,13.152 14.4673215,12.6 14.3953215,12 L14.8033215,10.296 C15.3073215,10.008 15.8353215,9.816 16.3633215,9.744 C16.8913215,9.624 17.5393215,9.528 18.1633215,9.432 C18.6913215,9.36 19.2433215,9.168 19.7233215,8.88 L19.7233215,8.592 L19.0033215,7.848 C19.2673215,6.984 19.4113215,5.832 19.5793215,5.376 C19.7233215,4.944 19.8673215,4.464 19.9633215,4.032 L19.7953215,3.168 C19.5793215,2.76 19.1473215,2.616 18.6193215,2.616 C18.0673215,2.616 17.5873215,2.616 17.1313215,2.52 C16.6033215,2.52 16.1713215,2.52 15.7633215,2.616 C15.3073215,2.712 14.8513215,2.88 14.3713215,2.976 C13.9153215,3.072 13.4593215,3.24 12.9793215,3.336 L12.6673215,3.24 L12.3313215,3.312 L12.7393215,4.152 L13.9153215,4.68 C14.2753215,4.608 14.6113215,4.488 14.9953215,4.296 C15.3793215,4.2 15.7633215,4.128 16.1713215,4.128 L16.5793215,4.128 L17.2033215,5.208 L17.0353215,6.96 C16.6513215,7.848 14.8513215,8.376 14.3713215,8.472 C13.8193215,8.568 13.4833215,8.352 13.0513215,8.136 L12.1633215,8.592 C12.2593215,9.528 12.3313215,10.44 12.4033215,11.448 C12.4033215,12.072 12.4033215,13.152 12.4033215,14.16 C12.4033215,15.144 12.5713215,16.128 12.8593215,16.92 C13.4353215,17.592 13.9633215,18.144 14.6833215,18.48 C15.3073215,18.864 16.0033215,19.056 16.7713215,19.128 C17.4673215,19.224 18.2353215,19.392 18.9313215,19.512 Z M8.99532148,17.04 C8.56332148,17.232 8.10732148,17.328 7.55532148,17.328 C7.00332148,17.424 6.47532148,17.424 5.92332148,17.424 C5.39532148,17.496 4.84332148,17.616 4.31532148,17.688 C3.78732148,17.76 3.33132148,17.688 2.94732148,17.472 L2.73132148,16.896 L2.77932148,16.08 C3.33132148,15.744 3.85932148,15.6 4.48332148,15.6 C5.01132148,15.6 5.61132148,15.6 6.13932148,15.48 L8.75532148,15.744 L8.99532148,17.04 Z M8.82732148,14.712 C8.34732148,14.712 7.41132148,14.616 6.93132148,14.448 L5.25132148,14.52 L3.01932148,14.328 C3.11532148,13.584 3.35532148,12.912 3.71532148,12.456 C4.09932148,12.024 4.33932148,11.472 4.57932148,10.872 C4.74732148,10.296 4.96332148,9.744 5.27532148,9.144 L5.41932148,9.144 L5.51532148,9.504 C5.51532148,10.44 5.58732148,11.16 5.65932148,11.784 C5.75532148,12.408 5.97132148,12.72 6.35532148,13.248 C6.78732148,13.488 7.14732148,13.56 7.53132148,13.56 C7.93932148,13.68 8.61132148,13.656 8.89932148,13.896 L8.82732148,14.712 Z M8.89932148,13.344 C8.51532148,13.464 7.89132148,13.2 7.65132148,12.936 C7.26732148,12.36 6.95532148,12.024 6.85932148,11.232 C6.95532148,10.704 6.95532148,10.176 7.02732148,9.624 C7.02732148,9.144 7.09932148,8.592 7.26732148,8.088 L7.45932148,7.992 L8.05932148,8.184 C8.29932148,8.832 8.51532148,9.48 8.58732148,10.152 C8.68332148,10.872 8.75532148,11.568 8.82732148,12.312 L8.89932148,13.344 Z M2.75532148,11.04 L2.49132148,10.752 C2.39532148,10.056 2.49132148,9.432 2.70732148,8.736 L3.13932148,9.096 C3.13932148,9.816 2.97132148,10.344 2.75532148,11.04 Z M5.75532148,6.624 L5.32332148,6.576 L5.29932148,4.32 C5.20332148,4.032 5.29932148,3.72 5.46732148,3.456 L5.82732148,3.72 L5.75532148,6.624 Z" id="Shape"></path>
            <path d="M39.3793215,20.856 L39.7633215,20.688 C40.0033215,20.304 40.1713215,19.896 40.2433215,19.416 C40.3393215,18.936 40.4113215,18.456 40.4833215,17.976 C40.5793215,17.496 40.5793215,17.016 40.6513215,16.536 C40.6513215,15.792 40.7233215,15.312 40.7233215,14.76 C40.7233215,14.28 40.7233215,13.8 40.8193215,13.32 C40.8913215,12.84 40.9633215,12.36 41.0593215,11.952 C41.4433215,11.712 41.8513215,11.616 42.4273215,11.712 C42.9073215,11.784 43.3873215,11.784 43.8673215,11.712 C44.2753215,11.616 44.7553215,11.616 45.1393215,11.544 L45.5473215,11.136 L45.3073215,10.584 C44.6593215,10.512 44.1073215,10.272 41.0593215,10.272 L40.7233215,9.384 C40.7233215,8.976 40.7233215,8.664 40.8193215,8.256 C40.8193215,7.944 40.8913215,7.608 41.0593215,7.296 C41.4433215,7.056 41.9473215,6.888 42.4273215,6.816 C42.9073215,6.72 43.3873215,6.576 43.7713215,6.336 C43.4593215,6.096 43.0513215,5.856 42.5713215,5.76 C42.0193215,5.688 41.5393215,5.688 41.0593215,5.616 L40.7233215,5.208 C40.6513215,3.12 40.6513215,2.64 40.7233215,2.232 C40.7233215,1.824 40.8193215,1.512 41.0593215,1.2 L41.0593215,0.552 L40.1713215,-3.55271368e-15 C39.6193215,-3.55271368e-15 39.1153215,-3.55271368e-15 38.6353215,0.072 C38.1553215,0.144 37.8673215,0.24 37.3873215,0.384 L37.7233215,1.344 C37.7233215,1.92 37.7233215,2.4 37.7233215,2.88 C37.6273215,3.432 37.6273215,3.912 37.6273215,4.488 C37.6273215,5.04 37.6033215,5.568 37.3873215,5.976 L36.2593215,5.712 C36.3553215,5.328 36.4273215,4.848 36.5953215,4.44 C36.6673215,4.032 36.7633215,3.624 36.8353215,3.24 C36.8353215,2.664 36.7633215,2.184 36.5953215,1.704 C36.1873215,1.464 34.7233215,1.272 34.3153215,1.104 L33.9073215,1.272 L33.9793215,1.512 C33.9793215,2.232 33.9073215,2.952 33.6673215,3.6 C33.4273215,4.32 33.1873215,4.968 32.9473215,5.616 C32.7073215,6.336 32.5393215,6.984 32.4673215,7.704 C32.4673215,8.088 32.4673215,8.424 32.5393215,8.736 C32.5393215,9.144 32.6353215,9.456 32.7073215,9.792 C32.8753215,10.176 33.1153215,10.416 33.4993215,10.584 L33.9793215,10.416 L34.2193215,9.864 C34.4833215,9.456 34.7233215,8.976 34.9633215,8.496 C35.2033215,8.088 35.2753215,7.776 35.7313215,7.512 C36.2833215,7.44 36.9553215,7.536 37.4833215,7.944 L37.2913215,10.416 C36.8113215,10.656 36.1633215,10.656 35.5873215,10.752 C35.0353215,10.824 34.4833215,10.824 33.9073215,10.896 C33.3553215,10.992 32.7073215,11.136 32.1553215,11.232 L32.2993215,12.192 L33.0193215,12.984 C33.5953215,12.744 34.1473215,12.6 34.7233215,12.432 C35.2753215,12.36 35.8273215,12.264 36.4033215,12.192 L37.3153215,12.264 C37.4833215,12.984 37.5553215,13.8 37.5553215,14.592 C37.5553215,15.48 37.6273215,16.272 37.7233215,17.088 C37.7953215,17.88 37.8673215,18.696 37.9633215,19.416 C38.1073215,19.728 38.3473215,19.968 38.4913215,20.208 C38.7313215,20.448 39.0433215,20.688 39.3793215,20.856 Z M29.8033215,19.824 L30.2113215,19.728 C30.4513215,19.344 30.6913215,18.864 30.8353215,18.384 C31.0033215,17.904 31.1713215,17.424 31.2433215,16.92 C31.4113215,15.552 31.5793215,15.072 31.7473215,14.592 C31.7473215,14.04 31.7473215,13.392 31.7473215,12.84 C31.7473215,12.264 31.6513215,11.784 31.5073215,10.824 C31.4113215,10.344 31.3393215,9.864 31.1713215,9.384 C30.9313215,8.904 30.6913215,8.496 30.3793215,8.088 C30.6193215,7.536 30.7873215,7.056 31.0273215,6.48 C31.2673215,5.928 31.4113215,5.448 31.6513215,4.896 C31.8913215,4.32 32.1553215,3.84 32.3953215,3.288 L32.2273215,2.4 L30.8593215,1.584 L30.4513215,1.68 C29.9713215,3.048 29.4193215,4.392 28.6993215,5.76 C27.9793215,7.128 27.1633215,8.496 26.2753215,9.696 C25.4113215,10.896 24.6673215,12.264 24.1873215,13.632 C24.1153215,14.352 24.2833215,15 24.6673215,15.48 L25.0033215,15.48 C25.5553215,15.168 26.0353215,14.76 26.5153215,14.28 C26.9953215,13.872 27.4033215,13.32 27.7393215,12.744 C27.9793215,12.192 28.2913215,11.712 28.6033215,11.136 L28.9393215,11.136 L28.7713215,14.04 C28.7713215,14.592 28.7713215,15.072 28.7713215,15.552 C28.6753215,17.016 28.7473215,17.496 28.8433215,17.976 C28.9153215,18.456 28.9873215,18.936 29.0833215,19.416 L29.8033215,19.824 Z" id="Shape"></path>
        </g>
    </g>
</svg>