<svg id="_圖層_11" xmlns="http://www.w3.org/2000/svg" viewBox="0 0 300 300">
    <defs>
        <clipPath id="clippath">
            <path d="M197.4 103.95c25.54 25.54 25.54 66.95 0 92.49-25.54 25.54-66.95 25.54-92.49 0-25.54-25.54-25.54-66.95 0-92.49 25.54-25.54 66.95-25.54 92.49 0Z" style="stroke-width:0;fill:none"/>
        </clipPath>
        <style>
            .cls-3,.cls-5,.cls-7,.cls-8,.cls-9{stroke-width:0}.cls-10{opacity:.15}.cls-3{fill:#4c6e36}.cls-5{fill:#3e2210}.cls-7{fill:#e1602d}.cls-8{fill:#fff}.cls-9{fill:#e96c33}
        </style>
    </defs>
    <path d="M90.65 209.35c32.78 32.78 85.92 32.78 118.7 0s32.78-85.92 0-118.7-85.92-32.78-118.69 0c-32.78 32.78-32.78 85.92 0 118.7Zm105.73-105.73c25.62 25.62 25.62 67.15 0 92.77-25.62 25.62-67.15 25.62-92.77 0-25.62-25.62-25.62-67.15 0-92.77 25.62-25.62 67.15-25.62 92.77 0Z" style="fill:#c5d0ea;stroke-width:0"/>
    <g style="clip-path:url(#clippath)">
        <path class="cls-3" d="m185.02 80.1-4.76-2.26-5.87 4.9-7.05-4.69-3.83 5.71-3.73 5.6-4.15 5.53 3.3 2.27 4.74-7.74 4.15-7.8 6.29 3.53 6.28-5.1 4.53 1.03.31-.12 2.34-1.84-2.55.98z"/>
        <path class="cls-3" d="m144.42 63.96 2.66 8.63-1.58 7.13-1.87 7.1-2.41 7.12 7.35-.24 7.18-.03 7.16-.05-1.95-7.11-2.02-7.11-2.37-7.01-.57-2.51-4.68-4.33-4.61-4.4-.7-1.04-7.43.88.81 4.7 5.03-1.73z"/>
        <path d="m138.5 61 .95 4.56-.95-4.56Z" style="fill:#6c8142;stroke-width:0"/>
        <path class="cls-9" d="m131.08 218.51 7.5-1.26 6.87.78 6.82-1.97 6.86 2.03 6.86-.41 6.72-.69 2.72-6.61 3.84-6.42.73-7.41 2.11-7 1.91-7.09.34-7.35 1.59-7.2-.15-7.35-1.25-7.32.57-7.28-.47-7.28.71-7.37-1.9-7.15-.51-7.28-1.94-7.08-1.89-7.03.04-7.64-6.32-4.26-7.24-1.24-7.18-.79-7.21.5-7.2-.22-7.26.36-6.49 3.36-5.33 3.61-3.31 6.43-.21 7.38-1.16 7.19-.86 7.24-1.15 7.22-.62 7.29.94 7.32-.53 7.29.88 7.25.81 7.23-.15 7.35 1.67 7.12.51 7.34 1.91 7.07 2.56 6.86 1.76 7.15 3.1 7.33z"/>
        <path class="cls-9" d="m173.92 217.78 8.16-.29 6.9-2.58 7.16-.18 6.64-2.61 7.41-1.07 3.25-6.75.26-7.46 2.75-6.75 1.04-7.15-.42-7.24.58-7.18-1-7.15-.33-7.17.84-7.36-3.13-6.81.1-7.35-1.21-7.14-1.51-7.08-3.42-6.52-2.27-6.81h-.09l-4.22-5.06-6.02-4.18-7.27 1.08-7.66.64 3.13 6.99-.59 7.36 1.48 6.98 1.49 7.01.68 7.11-.94 7.21 1.53 7.07-.4 7.14-.75 7.1.18 7.15-1.53 7-.47 7.11v7.27l-2.22 6.84-1.83 6.92-3.43 6.36-2.87 7.55zM91.64 210l-2.77-5.99-1.3-7.03-1.71-6.88-.06-7.12-2.12-6.93.5-7.12.03-7.09.94-7.04.69-7.04-.39-7.22 2.55-6.77 1.76-6.86 1.69-6.86 1.23-6.99 2.3-7.13-7.08 2.63-6.01 3.84-4.19 5.75-1.95 6.83-3.3 6.1-1.07 6.87-2.65 6.56-1.11 6.92 1.26 7.04-1.18 6.94.28 6.77 1.73 6.57 1.23 6.61 3.07 5.98 3.19 5.82 3.25 6.11 6.32 2.97 4.87 3.76z"/>
        <path class="cls-9" d="m212.31 209.44 6.22-3.02 4.71-4.96 3.98-5.43 4.21-5.4 2.39-6.41.52-6.82.53-6.69.24-6.71.1-6.94.76-7.06-2.49-6.7-1.65-6.7-.79-6.98-3.15-6.21-3.27-6.11-4.2-5.57-6.04-3.46-5.63-2.73 1.42 6.53 2.13 6.76.8 7.09 3.05 6.58.64 7.11 1.2 6.98.37 7.09.6 7.05 1.65 7.04-1.44 7.09-.81 7.02-.96 6.98-.79 7.03-2.27 6.69-2.03 6.86zM94.7 211.58l6.53 3.03 7.17.8 7.14.17 6.97 2.03 7.17-.08-3.63-6.25-.7-7.35-2.48-6.66-2.62-6.7-.32-7.22-1.47-6.97-1.21-7.04.39-7.18-2.45-7.04 1.77-7.17.53-7.11-.45-7.15.96-7.07-.75-7.27.62-7.15 1.57-7 1.31-6.62-6.31-1.31-7.25-.37-6.48 3.32-3.74 5.79-1.18-.36-2.05 6.94-.71 7.27-1.36 7.07-1.48 7.02-1.57 7.03-2.48 6.94 1.09 7.36-.09 7.18-1.49 7.16.88 7.18.38 7.19.69 7.19 2.63 6.77 2.23 6.79 2.24 6.84z"/>
        <path class="cls-7" d="m92.81 209.86 1.23 1.8-2.28-6.66-2.03-6.91-2.33-6.87-1.49-7.11-.73-7.22 1.55-7.27-.69-7.2 1.1-7.14 1.04-7.11.61-7.17-.09-7.33 3.26-6.69 1-7.14 1.4-7.08 2.68-6.76-2.59.2-1.96 6.81-2.39 6.71-.86 7.08-.65 7.09-2.45 6.76-.69 7.06.04 7.12-2.08 6.97.23 7.13.99 7.07-.4 7.15 1.31 7.01 1.83 6.87 1.23 7.07 4.21 5.76zM129.78 217.44l2.33.04-4.39-6.19-1.78-7.16-1.26-7.24-2.82-6.81-1-7.25-.59-7.28-1.62-7.15.28-7.33-1.8-7.24.5-7.32.78-7.28.63-7.26 1.31-7.19.84-7.21-.4-7.42 1.01-7.24 1.27-6.8-1.23 2.09-.29.14-.38 7.17-1.43 6.97-1.63 6.98-1 7.07.26 7.18.08 7.13-.05 7.11-1.98 7.16 1.26 7.1-.18 7.2.48 7.17 1.57 7.01 2.93 6.69-.31 7.45 2.83 6.65 2.95 6.54 2.83 6.52zM210.55 210.69l2.65-.73 1.34-7.32 1.46-6.9 1.57-6.85 1.41-6.94.19-7.08-.61-7.06 1.61-7.15-.74-7.08-.8-7.07-2.61-6.77-.28-7.15-1.03-7.05-2.24-6.76-1.13-7.07-2.5-6.94-2.06.06 1.69 6.97 1.52 7.05 3.1 6.66.9 7.2.56 7.23 2.03 6.97.47 7.21.1 7.21.93 7.18-.84 7.19.78 7.29-1.46 7.12-2.02 6.94-2.29 6.82-1.7 6.82zM172.27 217.11l3.21.47 2.92-6.74 1.77-6.98 1.16-7.09 1.73-6.9 2.32-6.84-.24-7.24.24-7.12.54-7.09 1.16-7.09.88-7.16-.64-7.14.23-7.2-.7-7.14-3.06-6.82-.79-7.07.31-7.31-1.54-7.17-.53-.17-2.6-1.87 2.44 6.93-.66 7.55 2.73 6.93 1.5 7.18.51 7.3-.07 7.33.62 7.28.87 7.31-2.32 7.24-.24 7.26-.75 7.23.74 7.47-2.53 6.96-2.23 6.94-1.44 7.15-3.29 6.53-2.25 7.08z"/>
        <g class="cls-10">
            <path class="cls-8" d="m105.81 103.01 1.92 6.81-1.47 7.2-3.04 6.35-5.24 3.78-1.8-6.6 1.47-7.14 2.79-6.44 5.37-3.96z"/>
        </g>
        <g class="cls-10">
            <path class="cls-8" d="m97.1 129.66 1.23 7.59-4.88 5.84-1.33-7.67 4.98-5.76z"/>
        </g>
        <path class="cls-5" d="M151.73 152.07c1.01 0 5.86 1.18 5.83-2.43-.03-3.6-4.53-8.09-5.92-8.08s-5.81 4.57-5.78 8.18c.03 3.6 4.86 2.34 5.87 2.33ZM126.64 138.97c4.9-.04 17.48 8.74 17.41-.15-.07-8.89-9.25-21.32-17.59-21.25-8.34.07-17.3 12.66-17.23 21.54.07 8.89 12.51-.1 17.41-.15ZM176.6 138.55c4.9-.04 17.48 8.74 17.41-.15-.07-8.89-9.25-21.32-17.59-21.25-8.34.07-17.3 12.66-17.23 21.54.07 8.89 12.51-.1 17.41-.15ZM152.1 195.94c52.69-.44 47.92-39.45 47.92-39.45l-48.25.4-48.25.4s-4.12 39.09 48.58 38.64Z"/>
        <path class="cls-9" d="m181.13 153.74 1.1 12.33-10.79.09.64-10.53 9.05-1.89zM131.17 198.01l-1.1-12.32 10.79-.09-.63 10.52-9.06 1.89z"/>
    </g>
</svg>
