<svg width="99.953" height="28.513" xmlns="http://www.w3.org/2000/svg" xmlns:xlink="http://www.w3.org/1999/xlink">
    <defs>
        <path id="a" d="M0 0h97.962v22.47H0z"/>
        <path id="c" d="M0 .026h.97v.448H0z"/>
        <path id="e" d="M.047 0H.47v.5H.047z"/>
        <path id="g" d="M.044 0h.428v.5H.044z"/>
        <path id="i" d="M0 .072h.516v.356H0z"/>
    </defs>
    <g fill="none" fill-rule="evenodd">
        <g transform="translate(0 6.043)">
            <mask id="b" fill="#fff">
                <use xlink:href="#a"/>
            </mask>
            <path d="M87.628 2.166a12.72 12.72 0 01-.12-.078c-.039.013-.114.03-.108.04.018.028.07.055.107.082l.121-.044zm-76.67 18.048c-.038-.014-.084-.04-.112-.039-.08.007-.153.025-.229.039.038.013.084.04.112.038.08-.007.153-.025.229-.038zm85.536-1.692l-.122-.078c-.037.013-.112.03-.106.04.017.028.069.055.106.082l.122-.044zm-72.579-.017c-.038-.014-.084-.04-.112-.039-.08.007-.153.025-.229.039.038.013.084.04.112.038.08-.006.153-.025.23-.038zm72.238-.506l-.121-.044c-.039.028-.09.054-.107.082-.006.01.068.027.107.04l.12-.078zm-88.044-.672l.121-.043c-.076-.014-.148-.032-.228-.038-.029-.002-.075.024-.113.038l.22.043zm88.555-.121l.22-.044c-.038-.013-.084-.04-.112-.038-.08.006-.154.025-.229.038l.121.044zm-7.33-1.003l-.122-.078c-.038.013-.113.03-.107.04.018.028.07.055.107.082l.121-.044zm-68.878-.61l-.12-.079c-.039.014-.114.03-.108.04.018.03.069.055.107.082l.121-.043zm-13.98-.768l-.12-.043c-.04.027-.09.053-.108.082-.006.01.069.026.107.04l.121-.079zm.682-.122l-.121-.043c-.038.027-.089.053-.107.082-.006.01.069.026.107.04l.121-.079zm87.802-.514l-.122.044c.076.013.149.031.229.038.028.002.074-.025.112-.038l-.22-.044zm.39-.506c-.038.014-.113.03-.107.04.018.03.069.055.106.082.038-.013.113-.03.107-.04-.017-.028-.069-.054-.107-.082zm-5.676.079l-.121-.079c-.038.014-.113.03-.107.04.018.03.069.055.107.082l.121-.043zm7.088-.34l.122-.044c-.076-.013-.149-.032-.229-.038-.028-.002-.074.025-.112.038.074.015.148.03.22.043zm-1.072-1.203c-.037.013-.113.03-.106.04.018.029.069.055.106.082.038-.014.113-.03.107-.04-.018-.03-.068-.055-.107-.082zm-89.214-.933l-.12-.044c-.04.027-.09.053-.108.082-.006.01.069.027.107.04l.121-.078zm87.972-2.442l-.121-.043c-.038.027-.089.053-.107.082-.006.01.069.026.107.04l.12-.079zm-5.528-.27l-.22.044c.039.014.085.04.112.038.08-.006.154-.024.23-.038a15.624 15.624 0 01-.122-.044zM7.67 8.54l.22-.043c-.039-.014-.085-.04-.113-.038-.08.006-.153.024-.229.038l.122.043zm2.386-.366l.22-.043c-.037-.014-.084-.04-.112-.038-.08.006-.153.024-.229.038l.121.043zM5.332 7.092c-.038.014-.113.03-.107.04.018.029.069.055.107.082.038-.013.113-.03.106-.04-.017-.029-.068-.055-.106-.082zm68.316-1.543l-.121-.044c-.038.028-.089.054-.107.082-.006.01.07.027.107.04l.121-.078zm-1.485-.044c-.038.014-.113.03-.106.04.018.03.068.055.106.082.038-.013.113-.03.107-.04-.018-.028-.069-.054-.107-.082zm20.41-.226l-.122.043c.076.014.149.032.23.038.027.003.073-.024.111-.038-.074-.014-.148-.03-.22-.043zm2.436.583c-.221.11-.32.189.05.239.184-.071.173-.139-.05-.239zM16.523 21.4c.07.06-.342.158.114.201.182-.07.17-.137-.114-.201zm79.509-1.614c-.246.082-.246.163 0 .245.244-.082.244-.163 0-.245zm-68.051-2.38c.31.079.526.115.667-.018-.2-.066-.388-.062-.667.018zm68.588-4.882c-.31-.08-.527-.115-.667.018.199.066.388.062.667-.018zm-92.942-.062c-.245.082-.245.164 0 .245.245-.081.245-.163 0-.245zm7.16-.61c.245-.081.245-.162 0-.244-.244.082-.244.163 0 .245zm-5.796-.732c-.245.082-.245.163 0 .244.245-.081.245-.162 0-.244zm1.129-.35l-.216.004c-.02.054-.049.109-.055.163 0 .014.083.042.109.039.08-.008.212-.027.215-.043.01-.054-.032-.108-.053-.162zm81.728-3.668c.22-.111.32-.19-.05-.24-.185.072-.173.14.05.24zm6.648-.56a.921.921 0 00.684 0 .925.925 0 00-.684 0zM1.922 5.882c.22-.111.32-.189-.05-.24-.185.072-.173.14.05.24zM20.48 17.1c.264 0 .322.005.372-.001.096-.01.188-.027.28-.04-.04-.028-.068-.06-.124-.083-.105-.042-.226-.078-.412-.142l-.116.266zM9.083 14.78c-.286.124-.286.246 0 .37.285-.124.285-.246 0-.37zM80.365.495c-.262.086-.263.168-.022.25.148-.07.411-.107.464-.221l-.442-.03zM96.39 17.339c-.262.087-.264.168-.022.25.148-.07.411-.106.463-.221l-.441-.03zm-2.581-5.06a1.78 1.78 0 001.033 0 1.785 1.785 0 00-1.033 0zM8.477 17.542c.842.054.841.05 1.052-.036-.303-.056-.606-.062-1.052.036zm85.706-7.983c.064.043.094.073.146.097.1.045.212.086.32.13.263-.092.264-.172-.005-.258l-.461.031zM5.19 17.118l.674-.046-.12-.228-.554.038v.237zm18.753-.854l.675-.046-.12-.229-.555.039v.236zm-3.44-7.645c.333.101.669.097.968.018l-.412-.218-.557.2zM4.82 6.916c.23.071.457.085.701-.017l-.103-.182-.598.044v.155zm.65 10.745c.266.023.3.149.606.153.116-.233.11-.233-.113-.329l-.493.176zM7.889 3.126c.23.086.458.09.702-.011l-.103-.183-.599.045v.149zm12.082 11.063c-.16.477-.158.477.116.58.115-.16.137-.309-.116-.58zm-12.49.525c.456.1.763.08 1.109.013l-.38-.136-.729.123zm13.972-.202c-.253.03-.416.039-.539.069-.061.015-.047.069-.084.134l.622.159c.21-.068.06-.183 0-.362zM8.54 14.16c-.4.032-.692-.027-.995.071l.097.19c.338-.025.629.034.898-.054v-.207zm-3.973-.15l-.339-.11c-.181-.127.039-.232-.257-.34-.166.061-.344.12-.592.218.63-.018.274.18.608.273l.58-.041zm-.258.275c-.275.117-.16.22-.16.314s-.115.197.144.307l.589-.038-.319-.12c-.19-.164.058-.309-.254-.463zm18.974-5.738l-.114-.212c-.363-.017-.69-.072-.977.046l.089.166h1.002zM10.257 20.69c.68.237.734.243 1.042.133v-.12l-.952-.174-.09.16zm78.9-9.947c-.156.6-.156.6.12.72.034-.015.1-.03.101-.045a8.37 8.37 0 00-.001-.603c0-.013-.078-.026-.22-.072zm5.192-5.492c.018 0-.238.012-.193.157.155.1.329.194.685.22.295.006.34-.064.34-.204l-.832-.173zm.174 5.119c.31-.225.695-.208 1.012-.287l-.138-.213c-.316.065-.62-.023-.874.079v.42zm-5.513-8.1c.138-.043.26-.081.57-.18-.543.03-.88-.073-1.219.057v.079l.502.25.563-.076-.416-.13zm-78.394 8.788c.062.095-.118.202.127.29.601-.099.618-.332.917-.494l-.2-.098-.844.302zm81.335-7.022c-.29.085-.272.233-.157.28.326.138.267.38.898.43.404-.15-.155-.2-.261-.323V4.24l-.48-.203zM20.845 16.434c.047-.17-.28-.239-.636-.317l-.431.066c.14.137-.081.279.155.41l.912-.16zM6.068 7.106l.441-.2-.324-.127c-.007-.303-.007-.303-.246-.393-.032.016-.091.03-.091.046-.006.279-.006.557 0 .836 0 .015.064.03.155.068l.582-.033-.517-.197zm-.384 7.313l.323-.245c.298-.023.603.041.844-.058-.378-.066-.77-.122-1.023-.252a.706.706 0 00-.269-.055c-.13.002-.259.03-.4.049l.358.152c.155.132-.233.29.167.41zM74.9 5.413c-.618.038-.387.305-.85.405-.04.009-.144.156.22.154l.587-.21.47-.034.107-.178-.534-.137zM6.525 9.07v.483l.49.336c.19.01.411.041.495-.064l-.25-.09c.192-.11.402-.232.274-.363-.117-.119-.352-.223-.526-.33-.15.01-.255.015-.483.028zm.612-.51c.008-.182-.006-.198-.238-.326v-.478c.419-.199.428-.233.108-.286a62.09 62.09 0 01-.247.088l-.567.35v.303l.487.34.457.008zM8.2 11.193c.073-.174-.302-.198-.292-.263.018-.12-.192-.174-.376-.245a.985.985 0 00-.57-.028c-.18.068-.075.15-.092.226a.507.507 0 00.001.237c.02.075-.105.16.14.233h.713l.476-.16zm.936 5.431l.451-.201v-.241l-.606-.217-.205-.218-.517.036v.534l.325.116v.543l1.008-.175-.456-.177zM88.36 5.688c0-.162.002-.324-.006-.486-.001-.014-.078-.027-.154-.051h-.406l-.235.236-.384-.118c-.51.124.095.214.09.323l-.27.096c.21.048.28.15.564.165l.324-.116.532.198a33.34 33.34 0 00-.157.151c-.325.067-.634-.022-.966.107l.624.167c.624-.004.624-.004.792-.064-.038-.168.031-.347-.02-.49l-.328-.118zM22.892 16.235v-.534l-.326-.127.314-.13c-.766-.125-.766-.125-1.216-.426l-.439.04v.653l.635.227c.073.094-.103.2.144.297h.888zM6.528 12.59c.068.124-.754.188-.175.36l.419-.016.226-.233.514.03-.255.183c.239.06.433.053.61-.013l.023-.121c.378-.065.777-.121 1.005-.261l-.3-.108v-.48l-.53-.2h-.363l-.34-.256-.495.051c0 .215.006.417-.01.618-.001.022-.129.042-.197.063l-.278-.1c-.108.033-.206.074-.332.097-.18.032-.451-.005-.547.096l.03.114.995.176zm15.512 4.887c.606-.028 1.061.026 1.464-.032l.266-.283.56.286 2.539-.001c.037 0 .073-.028.16-.062l-.965-.063-.612-.22H23.76c-.481-.141-.713-.332-.875-.54-.023-.029-.154-.047-.204-.061h-.673l-.429.16.575.4-.276.1.672.116c-.118.046-.226.089-.244.177-.264.027-.528.018-.297.125.08-.033.159-.067.032-.102zM92.412 3.152c.076.095.05.19.349.107-.093-.029-.186-.057-.31-.011v-.242l.364-.14-.112-.153h-.824c-.18.107-.097.205-.08.3.162.059.322.116.613.139zM24.9 16.822c.076.095.05.19.349.107-.093-.028-.186-.057-.298-.072l-.053-.246-.695.027.168.219c.244 0 .406 0 .53-.034zm68.614-6.766c-.076-.095-.05-.19-.349-.107.093.028.186.057.31.073.202.124.202.124.653.07-.126-.13-.434-.048-.614-.036zm2.685 4.238c.353-.073.353-.073.197-.24-.301.057-.156.158-.098.226-.264.027-.528.018-.297.125.08-.034.159-.067.198-.11zm-69.175 3.573c-.076-.094-.05-.189-.349-.106.093.028.186.057.308.071.203.126.203.126.674.07-.163-.107-.445-.055-.633-.035zm-17.05.123c-.075-.095-.05-.19-.347-.107.093.028.186.057.309.072.062.079-.165.189.2.234.149-.161.149-.161-.161-.2zm-3.448.698c.095-.014.258-.021.27-.042.047-.072-.104-.085-.27-.08-.062-.079.166-.189-.2-.234-.148.161-.148.161.2.234v.122c-.094.013-.257.021-.27.04-.046.074.105.086.27.082.063.078-.165.188.2.233.15-.161.15-.161-.2-.233v-.122zm89.231-9.153c.15.114-.002.239.22.347.282-.02.456-.192.908-.046 0 .152.002.332-.002.511a.198.198 0 01-.043.116c-.014.017-.076.029-.178.065l-.188-.362-.427-.026c-.626.182.385.267.134.436l-.669.113c.221.108.53.049.815.067l.367-.112c.06.022.176.045.182.07.028.118-.063.24.283.33.08.02.033.104.042.15-.282.093-.578.019-.813.053-.226-.076-.382-.178-.79-.095l-.108.148.71.12v.134l-.677.115c.246.105.552.041.846.064l.338-.253.49.187-.305.127v.36l.222.086c.037.034.104.069.107.104.012.142.005.284.005.43l-.763.13.652.067c.037.042.062.12.168.178.117.065.339.107.242.266l-.433.14h-.817l-.147-.354c-.262.125-.262.125-.257.547.279.05.558.102.875.16l.662-.22c.049.017.123.031.124.046.008.161.005.322.005.477l.366.145v.276l-.397.244c-.613.077-.768-.226-1.243-.055-.018.091.258.107.382.194l.774.019c.146.082.478.114.494.274-.201.153-.76.243-1 .4v.243l.29.104.052.396c.243.03.44.056.666.085l-.345.138.387.15-.662.472.244.11v.24l-.3.124.321.127v.24l-.333.127c-.135.132.236.173.368.29l-.345.228v.49c-.08.152-.496.185-.356.325l.308.127-.323.126v.2l-.488.336-.358.012a298.7 298.7 0 01-.332-.246c-.268.115-.266.297-.719.354a138.4 138.4 0 00-.342-.1c-.492.154.076.208.183.318l-.64.068-1.16.436c-.691.028-.957.256-1.442.389h-1.354l-.627.23h-1.483l-.215-.21c-.325.036-.448.178-.727.208-.278.03-.518.055-.687.138h-2.397l-.225.082c-.056.016-.1.039-.142.039-.566.002-1.131.001-1.685.001-.273.156-.666.13-1.055.108l-.241-.086c-.049-.007-.096-.02-.146-.02-.17-.003-.34-.004-.51 0-.163.003-.419-.008-.472.023-.308.181-1.043.01-1.296.214l-.538-.143-.539.148h-1.874c-.054.001-.108.006-.162.008l-.28.1h-1.084l-.347-.098-.273.098h-4.514l-.292-.104h-3.41c-.109.035-.23.077-.353.117l-.24-.086c-.099-.011-.199-.032-.3-.033-.621-.003-1.243-.002-1.843-.002l-.302.109H60.53l-.27-.097h-2.11l-.29.104-.366-.112h-1.008l-.354.117-.3-.107h-1.341l-.505-.156-.663.132h-3.708c-.14-.011-.236-.157-.624-.107l-.352.112-.359-.117h-.662l-.428-.14-.763.135H45.24l-.328.118h-1.693l-1.15-.232h-1.25l-.374-.122-.24.086c-.045.011-.088.032-.132.032-2.383.002-4.766.001-7.101.001l-.385.114a69.987 69.987 0 01-.265-.094l-.641.124-.44-.141h-1.007l-.36.118h-.669l-.355-.116h-1.71l-.29.105h-1.391l-.398-.113h-3.712l-.317-.113h-3.38l-.394-.127c-.59-.002-1.202 0-1.953-.001l.396-.18-.283-.12c.056-.07.372-.089.149-.281-.056-.052.127-.014.15.033.071.138.197.034.413.008-.212-.093.154-.222-.242-.31-.16.058-.32.115-.321.269-.004.093-.172.093-.338.093l-.417-.139-.168.346c-.053.014-.095.036-.139.036-.56.002-1.12.001-1.548.001a763.87 763.87 0 00-.948-.173l1.067-.247c-.785-.084-.785-.084-2.088.177-.447-.01-.578-.17-.838-.232l-.58-.045.33-.144c-.117-.127-.628-.155-.647-.312h.512c.29-.075.126-.185.178-.293l-.482-.187H8.102l-.556-.19v-.257l-1.303-.211c.026-.193-.184-.385-.49-.524-.339-.153-.596-.323-.932-.497v-.544l-.991-.685v-.473l1.38-.226-1.427-.363v-.255l-.634-.227v-.764l.62-.078c-.077-.117-.346-.07-.523-.099-.251-.08-.072-.19-.133-.286l-.66-.248c-.115-.134.197-.185.374-.286l-.328-.212.239-.107c.025-.129.2-.28-.295-.35v-.264l.326-.125-.345-.132v-.233l-.314-.128v-.856l.317-.113v-.367l.359-.128v-.745l.647-.085c-.195-.198-.771-.201-1.143-.303-.429-.118-.432-.319-.853-.438v-.618l.297-.127v-.24l-.315-.127v-.375c.119-.015.26-.035.405-.05.173-.019.308-.046.269-.113.316-.097.305.176.649.068v-.516l-.27-.097c-.145-.224.106-.465-.157-.704l-.538.193c.104.082.444.125.31.25l-.33.125.336.128v.553c-.17-.01-.34-.01-.512-.01l-.496-.178v-.611l.32-.128v-.378L.84 6.339c-.037-.035-.105-.07-.106-.106-.01-.223-.005-.446-.005-.667l-.307-.11-.056-.24-.366-.2.431-.241-.334-.187c.198-.137.551-.031.84-.046l.604.217c.397-.046.133-.164.226-.26l-.32-.156v-.277c.16-.009.333-.036.467-.02.14.016.242.073.36.113.282-.081.106-.191.163-.29l-.329-.131.33-.13v-.362l.486-.174c.603.163-.303.252-.117.422l.405.158.823-.122c.21-.128.053-.272.112-.408.396-.138.844-.01 1.313-.08l.07.46c.224.094.53.03.804.052l.721-.246c.23.002.471.013.5-.149-.067-.033-.19-.095-.316-.16l.297-.119-.313-.127.576-.206.61.313.272-.263c.22.04.44.08.742.133l.25-.246c.176-.074.48-.01.752-.03l.369.122h.35l.364-.277.683.14.275-.098.358.102.337-.102c.197.02.248.134.506.096.055.078.03.172.328.09a4.113 4.113 0 00-.328-.09c.06-.018.099-.052.149-.096h.992l.405-.122.344.108.702-.234.29.104h1.014c.125-.028.305-.07.523-.118l.667.13c.482.002.552-.191.93-.237.338-.052.46.075.664.11h.685l.283-.101.555.122.566-.132h1.61l.377-.123.693.235c.39.05.49-.093.846-.127l.528.111.29-.214.35-.01.37.121h.67l.42-.136.17.356c.476.016.108-.167.48-.205l.69-.028.256-.226.383.114h1.691l.355-.116h3.727l.37-.12.299.107.402-.107h2.043l.144-.126h.844l.36.119.307-.11h3.069c.137-.05.218-.078.336-.12l.358.1.356-.106h.64l.384-.125h.669l.36.117c.08-.03.16-.058.297-.107l1.084-.022.98-.35.668.222 1.1-.21.24.085.588-.119.532.136h.612l.373.122.609-.218c.357.015.42.163.795.194l.3-.093h2.357l.43-.144.76.272 1.935-.357.395.13.605-.308.285.274.679.012.79-.251c.678.028.714.233.973.36l.807-.281.107-.172c.383-.064.574.008.75.091h.706l.355-.116h.799l.568.283.277-.272h.771l.284.102.346-.102c.225.033.347.158.747.101l.184-.196c.24-.08.538-.016.8-.042l.241-.086c.1-.012.201-.03.303-.032.393-.003.786-.001 1.153-.001l.288.103L75.343.14h2.905l.45-.141.796.135.126.11h1.124l.239-.236.39.123c.482.013.986-.013 1.4.01.426.197-.535.281-.128.449.124.022.124.022.9-.27l.148-.187.483.02c.371.207-.634.306-.18.533l-.565.186-.296-.106c-.345.024-.433.162-.734.206-.158.028-.417-.013-.487.09.052.018.092.045.133.045.68.002 1.361.001 2.091.001l.197-.207a.96.96 0 01.6.018l-.319.132 1.41.253-.661.085c.127.23.856.187 1.168.33.267.022.398-.049.578-.095.16-.04.379-.052.582-.077l-.382-.15.147-.173.735.246.339-.103.5.162c.068.108-.112.217.172.31.112-.08.217-.158.313-.23l.714.145 1.517.542.147.164.391-.127.632.226c.246.154.362.217.448.284.087.068.145.14.232.228l.73-.248.379.123h.71l.127.162-.357.138.35.137c-.222.029-.456.038-.608.082-.183.054-.337.09-.586.094-.08 0-.151.088-.186.11.035.186.462.094.654.168.168.065.455.091.699.136v.244c-.07.068-.383.087-.327.203-.204-.041-.368-.086-.566-.139l-.136.153.63.302c.045-.178.064-.254.072-.316.092 0 .238.005.277.03.123.082.207.171.384.325v.396l.432.21-.4.192.215.07c.042.042.105.078.106.113.009.263.005.525.005.77l-.357.173c.068.174.503.198.668.434v.963l.334.151-.287.127v.347l-.335.136c.37.09.3.277.641.386.112.035.018.153.018.228l-.484.173a7.112 7.112 0 00-.644-.11c.053-.158.201-.32.042-.464-.103-.013-.165-.03-.2-.024-.368.055-.731.114-1.3.205l1.142.061a.766.766 0 00.316.222z" fill="#EBC41D" mask="url(#b)"/>
        </g>
        <path d="M38.016 7.05l-.12.043c.075.013.148.031.228.038.028.002.074-.025.112-.038l-.22-.044m-2.046 0l-.12.044c.075.013.148.031.228.038.028.002.074-.025.112-.038l-.22-.044m6.017.105h-1.47l-.449-.11c-.222.1-.078.2-.103.247l-.365.229c-.466.014-.254-.144-.454-.225-.713-.093-1.214.124-1.822.204-.08-.03-.16-.058-.26-.094h-1.07l-.55-.251h-.897l-.603.273-.711-.13-.261.094h-1.07l-.549.251H30.22l-.488-.178.304-.125-.315-.127.492-.177h2.366l.378-.125h.667l.357-.12h1.35l.367.113.615-.22c.34-.062.515.024.715.1h1.03l.356-.117c.339-.045.479.068.686.119h.678l.291-.104h.767l.596.213c.316-.018.17-.116.242-.177l.938-.173h.901l.359.118.612-.219c.332.03.47.146.732.218l.72-.242h.65l.394-.126h4.116l.138-.185a1.661 1.661 0 011.105.052l.496-.107c.48.008.598.176.96.248l.209-.214c.453-.008.453-.008.909.107l.56-.118c.072.02.186.055.32.094l.696-.233.487.174c.02.074-.041.163.294.19.458.014.575-.16.907-.241h1.016c.206.04.332.163.712.114l.31-.236c.383-.05.505.077.742.117.763.04 1.252-.199 1.954-.246l.359.11.633-.13.428.142h.628l.567-.145.478.127.488-.107.858.153.362-.268h.352l.358.118h.678l.278-.1c.455-.06.958.012 1.382-.026l.491.15.633-.132h2.431l.069.17c-.063.022-.102.049-.143.049-.45.003-.9.002-1.418.002-.17-.029-.289-.156-.644-.11l-.37.122h-2.035l-.31.111c-.65.031-1.38-.008-2.099.019l-.3.107H65.36l-.332.12-.37-.107H63.65l-.355.112h-.652l-.368.123-.417-.139-.641.112-.304-.082h-1.101l-.453.23h-.827l-.355-.118c-.847 0-1.698 0-2.53.016-.057-.077-.031-.172-.33-.089.093.029.186.057.33.09-.06.017-.082.076-.143.082-.211.02-.436.02-.666.029l-.397-.12-.355.111h-.707l-.197-.203c-.36-.08-.76-.024-1.14-.037l-.308.11-.719.018-.391.122h-1.666l-.68.243h-2.386l-.312.111h-1.026l-.383-.125-.203.216c-.362.072-.757.024-1.127.032l-.37-.116c-.138.093-.5.117-.483.242M26.466 7.398h-.718l-.198.21c-.365.068-.757.025-1.187.03-.034-.052-.08-.106-.104-.161-.017-.04-.049-.105.005-.118.323-.082.198-.262.568-.327.6-.032.66.281 1.297.241.102-.074.213-.157.324-.24h.35l.36.118.25-.09c.362-.06.749-.026 1.131-.02.267.08.09.19.149.29l.327.127c-.08.02-.166.04-.303.075l-.729-.15-.54.134h-.627l-.355-.12M22.209 7.642h-1.202l-.79-.299c.316-.066.316-.067.863-.056l.205.209c.29-.01.39-.109.586-.163v-.12l.337-.075.581.134.548-.268.555.21-.427.166-.78.03c-.142.082-.479.113-.476.232M17.383 7.481l.122-.168c.08-.045.225-.041.228.012.014.188.46.26.725.38v.128c-.402.087-.832.055-1.253.035l-.233-.228-.38.117c-.224-.048-.21-.118-.126-.197.234-.091.543-.003.917-.079M78.812 5.628v.122c-.327.126-.746.037-1.117.061l-.58.144-.565-.141h-.628l-.352.118-.478-.171c.02-.015.038-.041.06-.041.946-.017 1.893-.031 2.85-.046.228-.087.466-.18.81-.046M19.205 7.976c.04-.31-.485-.387-.721-.524.238-.105.777.018.75-.236l.529.37c-.233.061-.254.183-.558.39M4.75 8.044l.38.136v.146c-.265.087-.552.029-.842.051l-.232-.188.695-.145M14.368 7.84v-.151c.131-.015.306-.058.414-.042.329.048.631.118.99.19-.5.071-.953.075-1.404.003" fill="#EBC41D"/>
        <g transform="translate(81.605 5.543)">
            <mask id="d" fill="#fff">
                <use xlink:href="#c"/>
            </mask>
            <path d="M.446.036h.411l.114.281C.614.446.312.427 0 .351.028.196.308.145.446.036" fill="#DD9BA1" mask="url(#d)"/>
        </g>
        <path d="M12.11 7.53l.89.178c-.3.093-.586.037-.847.056-.254-.08-.222-.162-.044-.234M3.21 8.666c-.447.099-.749.093-1.053.037.211-.087.211-.09 1.053-.037M22.206 7.638l.617.016c-.006.122-.285.153-.412.221-.369-.044-.136-.155-.205-.237M15.884 7.526l-.441-.029c.018-.124.36-.139.433-.23.272.091.27.172.008.26M87.704 6.605c-.28.08-.468.084-.668.017.141-.132.358-.097.668-.017M10.643 7.703c-.279.08-.468.084-.667.018.14-.132.358-.097.667-.018" fill="#EBC41D"/>
        <g transform="translate(99.484 20.354)">
            <mask id="f" fill="#fff">
                <use xlink:href="#e"/>
            </mask>
            <path d="M.42.224L.298.342C.261.322.185.297.191.282.21.238.261.198.298.157L.42.224" fill="#DD9BA1" mask="url(#f)"/>
        </g>
        <g transform="translate(99.48 21.696)">
            <mask id="h" fill="#fff">
                <use xlink:href="#g"/>
            </mask>
            <path d="M.472.25C.396.27.324.298.244.307.215.311.169.272.13.25.207.23.28.202.361.193.387.189.433.23.471.25" fill="#DD9BA1" mask="url(#h)"/>
        </g>
        <path d="M9.292 26.717l-.348-.106c.297-.083.273.012.348.106" fill="#EBC41D"/>
        <g transform="translate(80.43 5.513)">
            <mask id="j" fill="#fff">
                <use xlink:href="#i"/>
            </mask>
            <path d="M.307.24a68.106 68.106 0 00-.22-.066C.126.154.172.114.2.117c.08.01.153.037.229.057L.307.24" fill="#DD9BA1" mask="url(#j)"/>
        </g>
        <path d="M79.399 6.191l.297-.125c.23.107-.032.098-.297.125M85.461 6.3c.038.027.089.053.107.081.006.01-.07.027-.107.04-.037-.027-.089-.053-.107-.082-.006-.01.07-.026.107-.04M85.67 6.944l-.348-.107c.298-.082.273.012.349.107" fill="#EBC41D"/>
        <path d="M85.593 6.876l.348.106c-.298.083-.273-.012-.348-.106M88.58 7.136a95.867 95.867 0 00-.22-.043c.038-.014.083-.04.111-.038.08.006.154.024.23.038l-.122.043M41.948 7.12l.348.106c-.297.083-.273-.012-.348-.106M86.484 7.398c.038.027.089.053.107.082.006.01-.07.027-.107.04-.038-.027-.089-.053-.107-.082-.006-.01.07-.026.107-.04M11.25 7.685l-.121.079c-.038-.014-.113-.03-.107-.04.018-.029.069-.055.107-.082l.12.043M93.864 8.697l.122-.079c.037.014.113.03.106.04-.018.03-.069.055-.106.083l-.122-.044M6.745 8.88l.121.044c-.075.013-.148.031-.228.038-.029.002-.075-.025-.113-.038l.22-.044M1.46 9.638l.121-.043c.038.027.09.053.107.082.006.01-.069.027-.107.04l-.121-.079M6.525 18.627c.063-.078-.164-.188.2-.233.15.161.15.161-.2.233M8.23 18.322c-.076.014-.148.032-.229.038-.028.003-.074-.024-.112-.038.076-.013.149-.032.23-.038.027-.002.073.025.111.038" fill="#EBC41D"/>
    </g>
</svg>