<?xml version="1.0" encoding="UTF-8"?>
<svg width="44.424px" height="22.896px" viewBox="0 0 44.424 22.896" version="1.1" xmlns="http://www.w3.org/2000/svg" xmlns:xlink="http://www.w3.org/1999/xlink">
    <title>btn_backhair</title>
    <g id="Symbols" stroke="none" stroke-width="1" fill="none" fill-rule="evenodd">
        <g id="btn_backhair" fill="#B8BDB4" fill-rule="nonzero">
            <path d="M10.152,22.464 C10.56,22.464 10.848,22.368 11.184,22.128 C11.616,21.888 11.928,21.648 12.36,21.36 C12.792,21.024 13.104,20.712 13.368,20.328 C13.608,19.92 13.992,19.68 14.4,19.368 C15.024,19.44 15.624,19.608 16.224,19.824 C16.8,20.04 17.304,20.28 17.904,20.52 C18.504,20.736 18.984,20.88 19.56,21.12 C19.56,21.12 19.968,21.264 20.184,20.928 C20.328,20.664 19.992,20.04 19.992,20.04 C19.704,19.68 19.368,19.344 18.936,19.032 C18.528,18.72 18.12,18.408 17.664,18.168 C17.256,17.952 16.752,17.712 16.296,17.496 L16.296,17.232 C16.536,16.848 16.824,16.56 17.16,16.32 C17.496,16.08 17.856,15.936 18.168,15.696 L18.504,14.856 L18.24,14.16 C17.736,13.752 17.256,13.44 16.752,13.2 C16.248,12.984 15.696,12.888 15,12.984 L14.376,12.528 L14.496,12.36 L17.184,11.904 C17.688,11.904 18.24,12.336 18.576,12.624 C18.888,13.032 19.32,13.272 19.752,13.44 C19.752,13.44 20.184,13.512 20.616,13.272 C20.76,13.032 20.76,12.288 20.76,12.288 C20.496,11.712 20.088,10.896 19.68,10.344 C19.248,9.864 18.84,9.336 18.6,8.784 L17.28,8.136 C16.608,8.232 16.032,8.472 15.456,8.688 C15.168,9.072 15.576,9.792 15.576,9.792 L15.096,9.912 C14.664,9.912 12.528,10.104 12.12,9.984 C12.576,9.672 13.632,9 14.136,8.64 C14.64,8.232 15.168,7.872 15.744,7.464 C16.248,7.176 16.656,6.744 16.968,6.216 C17.04,5.856 16.968,5.52 16.728,5.304 C16.488,4.896 16.176,4.656 15.744,4.584 C15,4.296 14.952,3.96 14.52,4.272 L13.272,5.256 L12.84,5.088 L14.568,3.888 L15.888,3.024 L16.224,2.28 L15.96,1.32 C15.48,0.912 14.976,0.456 14.184,0.432 C13.896,1.176 12.264,2.616 11.952,3 C11.52,3.336 10.92,3.528 10.56,3.936 C10.224,4.272 9.984,4.704 9.84,5.184 C9.696,5.64 9.528,6.144 9.72,6.552 L10.368,7.2 L9.744,7.872 C9.504,8.256 8.976,8.904 8.976,9.408 C8.904,9.864 8.328,11.712 9.144,12.288 C9.504,12.432 10.2,12.504 10.656,12.6 C10.56,13.008 10.008,13.44 9.84,14.088 C9.648,14.712 9.432,15.336 9.336,15.816 C9.432,16.416 9.6,16.872 9.84,17.304 L10.872,16.632 L12,17.472 C12,17.472 11.616,18.144 11.16,18.48 C10.728,18.912 10.44,19.296 10.248,19.752 C10.104,20.208 9.936,20.664 9.84,21.216 C9.744,21.672 9.84,22.104 10.152,22.464 Z M5.016,21.312 L5.448,21.192 C5.712,20.472 5.88,19.632 6.024,18.792 C6.192,17.904 6.288,17.088 6.384,16.152 C6.384,15.264 6.456,14.424 6.528,13.56 L6.384,12.528 L6.528,11.112 L5.952,9.792 C6.192,9.12 6.528,8.616 6.96,8.016 C7.272,7.512 7.728,6.96 8.232,6.456 C8.472,6.048 8.664,5.664 8.736,5.016 C8.832,4.704 8.736,4.44 8.496,4.224 C7.944,4.128 7.392,3.984 7.008,3.648 L6.696,3.696 C6.048,4.944 5.376,6.144 4.704,7.416 C3.936,8.712 3.192,9.936 2.424,11.136 C1.584,12.312 0.984,13.584 0.6,14.952 C0.48,15.504 0.6,16.032 0.888,16.368 L1.272,16.368 C1.68,16.152 1.992,15.816 2.256,15.384 C2.496,14.952 2.76,14.616 3.096,14.184 C3.36,13.824 3.696,13.488 3.984,13.008 L4.368,13.2 C4.368,14.088 4.368,14.76 4.296,15.432 C4.2,16.152 4.128,16.824 4.056,17.496 C4.056,18.096 4.128,18.696 4.2,19.296 C4.296,19.872 4.44,20.4 4.632,20.952 L5.016,21.312 Z M13.272,15.888 L12.336,15.408 L12.408,15.048 L13.272,14.76 L13.992,15.192 L13.272,15.888 Z M0.648,10.032 L0.84,10.032 C1.584,9.528 2.256,8.88 2.688,8.112 C3.096,7.32 3.6,6.576 4.2,5.784 C4.8,5.064 5.472,4.392 6.024,3.744 L5.784,3.144 C5.4,2.88 4.872,2.664 4.368,2.496 C3.888,2.328 3.384,2.256 2.808,2.136 L2.424,2.232 C2.232,2.928 1.992,3.672 1.584,4.248 C1.176,4.848 0.744,5.544 0.48,6.216 C0.24,6.888 0.096,7.68 0,8.424 L0.168,9.552 L0.648,10.032 Z" id="Shape"></path>
            <path d="M40.896,22.896 L41.136,22.896 L41.616,22.416 L41.448,22.008 C40.56,21.6 39.6,21.12 38.712,20.64 C37.848,20.232 36.96,19.68 36.072,19.032 L37.2,18.24 L37.512,17.424 L37.368,16.704 C36.864,16.296 36.312,16.152 35.592,16.224 C34.704,16.536 33.912,16.944 33.192,17.52 C32.784,17.52 32.376,17.184 32.064,16.848 L32.712,16.104 L34.872,15.744 C35.832,15.672 36.792,15.576 37.752,15.432 C37.92,15.024 38.088,14.616 38.232,14.136 L37.92,13.488 L36.312,13.008 C35.28,13.104 34.872,13.2 34.176,13.2 L34.632,12.288 L34.536,11.976 C34.152,11.568 33.672,11.256 33.096,11.16 L32.304,11.328 L31.488,13.176 C30.864,13.488 30.144,13.656 29.328,13.656 C28.536,13.728 27.816,13.824 27.072,14.064 C26.76,14.136 26.592,14.376 26.52,14.688 L26.592,15.096 C27.408,15.816 28.368,16.152 29.496,16.152 C29.256,16.872 28.92,17.592 28.368,18.144 C27.816,18.792 27.408,19.44 27.072,20.16 C27,20.568 27.168,20.88 27.48,21.12 L28.2,21.048 C28.776,20.568 29.256,20.088 29.808,19.68 C30.288,19.272 30.768,18.792 31.176,18.24 L31.968,18.912 C31.32,20.016 30.528,20.952 29.808,22.008 C29.736,22.32 29.904,22.56 30.216,22.8 C30.936,22.56 31.656,22.248 32.304,21.768 C32.952,21.288 33.576,20.808 34.224,20.328 C35.352,20.712 36.48,21.192 37.512,21.672 C38.568,22.152 39.696,22.56 40.896,22.896 Z M40.872,14.736 L41.184,14.592 C41.328,14.064 41.424,13.488 41.112,12.504 L40.152,11.928 C39.36,11.856 38.616,11.928 37.896,12.168 L38.232,12.816 C39.024,13.704 39.912,14.352 40.872,14.736 Z M34.296,11.16 C34.536,11.256 34.8,11.16 34.944,11.016 L34.944,10.776 C34.464,9.72 33.744,9 32.712,8.448 C32.232,8.208 31.656,8.256 31.008,8.592 L31.104,8.928 L31.008,9.24 L29.568,9.48 L29.256,9.312 L29.328,8.928 L30.288,8.448 L30.624,8.04 C31.728,7.632 32.856,7.32 33.984,7.08 L33.984,6.504 C33.096,6.12 31.992,6.048 30.864,6.12 L29.856,6.144 L29.856,5.832 C31.992,5.736 32.808,5.568 33.528,5.232 L33.456,4.92 L32.808,4.68 L31.368,4.752 L29.64,4.656 L29.64,4.344 C30.528,4.416 32.088,4.344 32.808,3.864 C32.928,3.624 32.784,3.384 32.688,3.12 C31.968,2.88 31.248,2.808 30.048,2.904 L30.048,2.496 C31.104,2.328 32.232,2.184 33.264,2.016 L33.816,1.536 L33.672,1.128 C32.952,0.576 32.136,0.336 31.248,0.336 C30.288,0.336 29.4,0.408 28.68,0 L27.96,0.096 L27.576,0.72 C27.576,1.368 27.576,2.256 27.576,3.144 C27.576,4.032 27.648,4.896 27.888,5.712 L27.816,6.264 C26.592,6.504 25.392,6.744 24.264,7.152 L24.36,7.392 C25.08,8.04 26.04,8.28 27.072,8.208 C27,8.592 26.76,8.928 26.52,9.312 L26.592,10.368 C26.832,10.92 27.408,11.16 28.128,11.088 C28.92,11.088 29.736,11.016 30.456,10.92 C31.176,10.848 31.896,10.776 32.616,10.536 L34.296,11.16 Z M37.92,11.376 L38.256,11.376 C39.12,10.584 42.264,7.68 43.056,7.296 C43.488,7.392 43.92,7.44 44.256,7.2 L44.424,6.408 L44.112,5.592 C43.536,5.352 43.056,5.112 42.576,4.728 L42.192,4.728 C41.448,5.76 40.656,6.72 39.768,7.68 C38.88,8.736 38.088,9.696 37.368,10.728 L37.368,11.136 L37.92,11.376 Z M36.96,8.952 C37.536,8.472 38.016,7.896 39.216,6.864 C40.176,6.216 40.896,5.424 41.472,4.464 L41.376,4.056 L40.272,3.504 C39.696,3.576 39.144,3.888 38.664,4.296 C37.776,5.256 37.128,6.312 36.576,7.416 C36.576,7.992 36.72,8.544 36.96,8.952 Z M35.016,6.624 C35.832,5.736 36.696,4.944 37.68,4.128 C38.544,3.336 39.504,2.616 40.392,1.896 L40.32,1.08 L38.952,0.432 C38.544,0.36 38.16,0.432 37.824,0.6 C37.176,1.32 36.552,2.136 35.976,2.928 C35.424,3.744 34.944,4.608 34.536,5.496 L34.608,6.216 L35.016,6.624 Z" id="Shape"></path>
        </g>
    </g>
</svg>