<svg width="44.958" height="20.573" xmlns="http://www.w3.org/2000/svg">
    <g fill="#B8BDB4" fill-rule="nonzero">
        <path d="m4.995 20.31.24-.193c.24-.6.48-1.248.72-1.992.24-.648.408-1.32.552-2.064.168-.744.24-1.488.336-2.232l-.168-3.552c-.072-.72-.168-1.104.144-1.68l1.032.12h.6l.624-.744-.144-.528a5.504 5.504 0 0 0-1.224-.984c-.48-.264-.96-.36-1.512-.36-.072-.648-.168-1.344-.24-1.944-.168-.552-.24-1.224-.312-1.848-.096-.6-.096-1.272-.168-1.872L4.227.245h-.48c.144.648.24 1.296.312 2.064 0 .72 0 1.368.072 2.112 0 .744.096 1.512.24 2.16 0 .768 0 1.248.096 1.632 0 .432.072.912.144 1.344l-.072 1.224c.072 1.464.072 2.304 0 3.048-.072.744-.168 1.584-.24 2.304-.072.768-.24 1.584-.312 2.328-.096.648.072 1.2.312 1.752l.696.096Zm5.472-.625c.552-.072 1.032-.24 1.584-.312.576-.144 1.68-.144 2.256-.216.552 0 1.032 0 1.608-.048h1.344c.408 0 .888 0 1.368.048.408.072.888.072 1.296.216l1.752-.216.48-.576-.168-.384c-.984-1.008-2.64-1.224-3.36-1.32a5.6 5.6 0 0 1-2.088-.432l.24-1.56c.624-.288 2.184-.48 2.664-.768l.648-.528v-.336c-.24-.264-2.352-.84-2.976-.912-.24-.576-.336-1.032-.24-1.584.072-.408 0-.936-.096-1.368l.288-.72 2.16-.024.624-.576.024-.792c-.504-.36-1.128-.48-3.168-.672-.072-.744 0-1.392.216-2.688.24-.504.48-1.128.888-1.488l-.072-.384-.648-.216c-.48 0-.96 0-1.44-.096-.48 0-.888.096-1.296.312l.072.408.12 4.128c-.576.288-1.128.024-2.184.024-.072-.576-.072-2.376-.144-2.784-.096-.432-.168-1.008-.24-1.368l-1.536-.528h-.24l.24 1.344c0 .768-.072 1.608-.144 2.424-.168.84-.408 1.656-.648 2.352a8.968 8.968 0 0 0-.72 2.184c0 .456 0 .792.072 1.176 0 .432.072.768.24.984.552-.288.96-.624 1.296-1.176.24-.408.552-.936.792-1.392.312-.288.72-.456 1.128-.528.408-.168.792-.168 1.2-.24l.648.072.312 1.56-.072 1.44c-.408.36-.888.48-1.368.36-.48 0-.96.12-1.368.192-.408.072-.888.264-1.272.408 0 0-.12.456.12.648.336.576 1.32.768 1.32.768l2.232-.168.408.504c-.168.744-.312 1.416-.408 2.136l-4.464.792-.576.144v.192c.24.672.72 1.152 1.296 1.584ZM.89 10.757c.384-.192.744-.504 1.104-.96.36-.456.624-.84.984-1.224.384-.408.552-.816.744-1.344l-.144-.432a2.406 2.406 0 0 0-1.752-.192L.555 6.75c-.36.288-.552.816-.552 1.392-.024.528.12.984.24 1.416.144.456.36.84.648 1.2ZM43.73 20.573h.48l.313-.384-.312-1.536a3.636 3.636 0 0 1 0-1.44c.072-.408.168-.888.24-1.296.072-.384.168-.792.168-1.272-.168-1.056-.096-1.68 0-2.256.072-.552.144-1.2.24-1.752.072-.576.072-1.2.072-1.776l-.24-4.488.24-2.16c.072-.408 0-.816-.168-1.128L43.97.677 42.363.75l-.312.096c.24.312.312.72.312 1.128 0 .384 0 .864.072 1.272v2.256c-.072.792-.072 1.608-.144 2.328-.096.72-.168 1.512-.168 4.008a8.56 8.56 0 0 0 0 1.92c.072.72-.072 1.296-.408 1.848l-1.752-.168h-1.704v.24c.408.408.888.888 1.296 1.368.408.576.72 1.056 1.032 1.608.408.576.888.96 1.464 1.2.552.24 1.104.48 1.68.72Zm-11.087-2.712h1.944l1.104-.408c.24-.408.48-.792.648-1.2.168-.408.24-.888.312-1.368 0-.408.096-.888.168-1.296 0-.552 0-1.032-.072-1.512-.096-.48-.24-.96-.48-1.368-.408-.552-.816-.888-1.368-1.128a7.178 7.178 0 0 0-1.608-.48c-.552-.072-1.2-.168-1.776-.24l-.624-.552.72-1.2c.384-.24.792-.408 1.368-.408.48 0 .864-.168 1.272-.408.408-.24.816-.48 1.2-.648l.24-.792.096-1.776c-.096-.384-.096-.792-.096-1.2 0-.408-.144-.72-.384-1.032L34.25.51l-2.4.096c-.576.072-1.128 0-1.608-.096-.576-.072-1.056-.24-1.44-.48-.48-.072-.96 0-1.368.096-.408.144-.888.312-1.296.384l-.24.408c.096.552.24 1.056.48 1.44.24.408.408.888.48 1.368a4.936 4.936 0 0 1 0 1.68c.24.408.192 1.08.504 1.464.336.408.912.528 1.536.6a31.822 31.822 0 0 1-1.152 2.832c-.48.888-1.032 2.496-1.344 3.384-.408.864-.792 1.752-1.272 2.64v.408l.624.24 1.776-.888c.48-.48.888-1.032 1.2-1.608.384-1.272.624-1.92.864-2.472.24-.336.408-.648.648-1.056.168-.24.48-.48.888-.624.48 0 .96.072 1.368.144.384.168.792.336 1.2.48.48.48.72 1.056.792 1.536.096.48 0 .96-.072 1.344-.096.504-.336.888-.648 1.224-.48.384-1.032.624-1.608.792-.552.24-1.2.312-1.848.312l.096.336c.312.312.72.552 1.104.792.408.24.744.408 1.128.576Zm5.544-7.464.648-.168c.24-.552.408-1.032.576-1.608.168-.552.24-1.128.312-1.68.096-.576.096-1.2.168-1.776V3.797c-.072-.384-.168-.792-.24-1.2l-.72-.312-1.152-.072-.384.072.312.792c0 .48 0 .96-.072 1.368-.096.48-.096.96-.168 1.368-.072.48-.168.96-.168 1.44.096.408.096.816.096 1.2 0 .408.072.816.24 1.224l.552.72Zm-4.824-5.304c-.552.072-2.4-.168-2.952-.072-.576.072-.984-.096-1.368-.336 0-.552.144-1.128.48-1.608.552-.24 1.2-.384 1.92-.48.648-.072 1.2 0 1.776.168l.48 1.272-.096.816-.24.24Z"/>
    </g>
</svg>
