<?xml version="1.0" encoding="UTF-8"?>
<svg width="137.81479px" height="43.5615751px" viewBox="0 0 137.81479 43.5615751" version="1.1" xmlns="http://www.w3.org/2000/svg" xmlns:xlink="http://www.w3.org/1999/xlink">
    <title>Group 18</title>
    <g id="視覺" stroke="none" stroke-width="1" fill="none" fill-rule="evenodd">
        <g id="Group-18" transform="translate(-0.000000, 0.000000)" fill-rule="nonzero">
            <g id="arrow-right-circle-fill" transform="translate(123.814790, 21.961575) rotate(90.000000) translate(-123.814790, -21.961575) translate(109.814790, 7.961575)" fill="#FFFFFF">
                <path d="M14,0 C21.7319865,0 28,6.2680135 28,14 C28,21.7319865 21.7319865,28 14,28 C6.2680135,28 0,21.7319865 0,14 C0,6.2680135 6.2680135,0 14,0 Z M7.875,13.125 C7.39175084,13.125 7,13.5167508 7,14 C7,14.4832492 7.39175084,14.875 7.875,14.875 L18.01275,14.875 L14.2555,18.6305 C14.034174,18.851826 13.9477363,19.1744158 14.0287473,19.4767527 C14.1097582,19.7790897 14.3459103,20.0152418 14.6482473,20.0962527 C14.9505842,20.1772637 15.273174,20.090826 15.4945,19.8695 L20.7445,14.6195 C20.909073,14.4553425 21.0015641,14.2324477 21.0015641,14 C21.0015641,13.7675523 20.909073,13.5446575 20.7445,13.3805 L15.4945,8.1305 C15.273174,7.90917397 14.9505842,7.82273631 14.6482473,7.90374726 C14.3459103,7.98475821 14.1097582,8.22091028 14.0287473,8.52324726 C13.9477363,8.82558425 14.034174,9.14817397 14.2555,9.3695 L18.01275,13.125 L7.875,13.125 Z" id="Shape"></path>
            </g>
            <g id="下載" transform="translate(0.000000, 0.000000)" fill="#FBFAF9">
                <path d="M17.04,42.4575751 C17.808,42.6015751 18.288,42.2655751 18.768,41.7855751 C19.248,40.6335751 19.584,39.5775751 19.728,38.1855751 C19.92,36.9375751 19.92,35.6895751 20.064,34.3935751 C19.92,26.3775751 19.92,25.1295751 20.064,23.9775751 C20.208,22.9215751 20.208,21.6255751 20.208,20.4255751 C20.064,19.3215751 20.4,18.2175751 20.208,15.0495751 C20.208,13.9455751 20.4,12.7455751 20.688,11.6415751 C20.88,10.5855751 21.36,9.62557506 21.84,8.76157506 C23.136,8.28157506 24.384,7.94557506 25.872,7.80157506 C28.608,7.60957506 29.856,7.46557506 31.296,7.32157506 C32.784,7.12957506 34.032,6.84157506 35.472,6.69757506 L36.96,5.35357506 L36.432,3.62557506 L33.552,2.47357506 L31.968,2.47357506 C28.416,2.66557506 23.616,2.80957506 20.208,2.95357506 C16.848,3.14557506 13.344,3.43357506 9.936,3.91357506 C6.576,4.39357506 3.216,5.16157506 0,6.31357506 L0.144,6.98557506 C0.96,7.32157506 1.632,7.60957506 2.256,8.08957506 C2.736,8.56957506 3.552,8.90557506 4.32,8.90557506 L8.976,8.76157506 C10.416,8.56957506 11.712,8.76157506 12.864,9.00157506 L13.488,12.4575751 L13.104,23.8335751 C13.008,25.8015751 13.248,27.3375751 13.344,29.1135751 C13.344,30.9855751 13.488,32.8575751 13.632,34.5375751 C13.824,36.4095751 14.304,38.1855751 14.928,39.7695751 C15.408,40.8255751 16.08,41.6415751 17.04,42.4575751 Z M21.504,17.3055751 L22.8,18.7455751 C23.904,19.4655751 25.056,20.2815751 26.16,20.9535751 C27.312,21.6735751 28.416,22.3455751 29.52,22.8255751 C30.672,23.4495751 31.968,23.8815751 33.216,24.3615751 L33.888,24.3615751 L34.992,23.4015751 L34.992,22.7775751 C34.512,21.5775751 33.696,20.8575751 32.736,20.0415751 C31.776,19.2735751 30.816,18.4575751 30,17.6895751 C29.04,16.9215751 28.08,15.9615751 27.312,15.0495751 L25.872,14.2335751 C25.056,14.3775751 24.384,14.3775751 23.616,14.5695751 C22.8,14.7135751 22.224,15.0015751 21.6,15.2895751 L21.504,17.3055751 Z" id="Shape"></path>
                <path d="M86.272,43.5615751 L87.232,43.2255751 C88.048,42.6015751 88.72,41.9295751 89.2,41.1615751 C89.68,40.3455751 90.16,39.5295751 90.448,38.5695751 C90.64,37.7535751 90.928,36.7935751 91.264,36.0255751 C91.264,35.2095751 91.12,34.5855751 90.784,33.9135751 C90.448,33.2895751 89.968,32.6175751 89.488,31.9935751 L88.864,31.9935751 L88.24,33.9135751 C87.904,34.5855751 87.568,35.2095751 87.232,35.6895751 C86.752,36.3135751 86.272,36.7935751 85.648,37.2735751 L85.024,37.1295751 L83.872,34.5855751 C84.544,32.8095751 85.312,31.1775751 86.128,29.5935751 C86.944,28.1535751 87.76,26.5215751 88.528,24.7935751 C89.2,23.1615751 89.968,21.5775751 91.12,20.1375751 C91.264,19.1775751 90.928,18.3615751 90.304,17.6895751 C89.488,16.9215751 88.528,16.2495751 87.424,15.9615751 L86.464,15.9615751 L85.792,16.7295751 L85.984,17.4015751 C85.792,18.3615751 85.648,19.3215751 85.168,20.1375751 C84.688,20.9055751 84.064,21.7215751 83.584,22.5375751 C83.104,23.3055751 82.432,24.1215751 81.952,24.9375751 L81.328,24.7935751 C80.848,23.9775751 80.656,23.1615751 80.512,22.2015751 C80.368,21.3855751 80.176,20.4255751 80.032,19.4655751 C79.888,18.6495751 79.696,17.6895751 79.552,16.9215751 C79.408,16.1055751 79.552,15.2895751 79.888,14.6655751 L81.136,14.1855751 L81.952,14.3295751 L91.744,13.7055751 L91.888,13.3695751 L91.744,12.4095751 C90.928,11.3055751 89.824,10.6335751 88.72,10.4895751 C87.76,10.4895751 86.752,10.4895751 85.792,10.4895751 C84.688,10.4895751 83.728,10.6335751 82.912,10.8255751 L78.928,10.6335751 C78.448,9.52957506 78.112,8.23357506 78.112,6.79357506 C77.968,5.35357506 77.776,4.05757506 77.632,2.76157506 C77.152,1.65757506 76.192,0.841575056 75.04,0.361575056 C74.416,0.361575056 73.936,0.697575056 73.456,1.17757506 C73.936,2.28157506 74.272,3.57757506 74.416,4.87357506 C74.416,6.31357506 74.56,7.60957506 74.752,8.85757506 C74.896,9.52957506 74.752,10.1535751 74.416,10.6335751 L64.96,10.4895751 L64.768,10.0095751 L65.44,7.89757506 C66.544,7.75357506 68.8,7.56157506 69.952,7.27357506 L69.76,6.60157506 C68.656,5.83357506 66.064,5.20957506 64.96,4.72957506 L65.104,3.91357506 L64.288,1.65757506 L61.264,0.0735750556 C60.448,-0.118424944 59.824,0.0735750556 59.344,0.553575056 L59.488,4.72957506 L59.344,5.68957506 L53.584,6.16957506 L53.776,7.84957506 C54.544,8.18557506 55.36,8.32957506 56.176,8.18557506 C58.048,8.52157506 58.72,8.32957506 59.344,8.80957506 L59.968,10.9695751 L52.72,11.7855751 L50.8,11.5935751 C50.032,11.4495751 49.36,11.5935751 48.88,11.9295751 C49.072,12.7455751 49.36,13.3695751 49.84,13.9935751 C50.992,14.6655751 52.24,15.2895751 53.392,15.7695751 C54.208,15.6255751 54.832,15.2895751 55.648,15.0015751 C58.336,14.5215751 58.864,14.6655751 59.152,15.1455751 L58.672,15.9615751 C57.712,16.1055751 56.8,16.2975751 55.84,16.2975751 C54.736,16.4415751 53.968,17.1135751 53.488,17.9295751 L53.824,18.7455751 L55.6,19.0815751 L58.96,19.5615751 L59.488,20.2815751 L59.344,21.7215751 L53.392,21.4335751 L51.952,21.9135751 L52.432,24.6495751 L52.912,27.0495751 C52.768,28.0095751 52.912,28.7775751 53.056,29.5935751 C53.248,30.4095751 53.536,31.2255751 54.016,31.9935751 C55.168,32.8095751 57.856,32.6655751 59.152,33.0015751 L59.296,34.1055751 L53.296,34.1535751 C52.528,34.1535751 51.856,34.1535751 51.232,34.2975751 C50.608,34.4415751 49.936,34.9215751 49.456,35.4015751 C49.792,36.0735751 50.272,36.5535751 51.088,37.0335751 L54.208,37.4655751 L59.008,37.2735751 C59.344,37.9455751 59.632,40.6815751 59.632,41.4495751 L61.552,43.2255751 L63.088,43.1775751 C63.568,42.2175751 64.24,38.1855751 64.288,37.2735751 L67.072,37.2255751 C68.512,37.3695751 69.808,37.2255751 70.912,36.8895751 L70.912,35.5935751 C70.096,35.1135751 69.28,34.6335751 68.32,34.4895751 C67.36,34.3455751 65.248,34.2495751 64.432,33.9135751 L64.48,33.0975751 C65.104,32.8095751 68.416,32.9535751 68.944,32.1375751 L70.384,29.5935751 C70.384,28.4415751 70.384,27.1935751 70.384,25.8975751 C70.384,24.7935751 70.096,23.6415751 69.616,22.6815751 C68.8,22.2015751 67.84,21.8655751 66.88,21.7215751 C65.728,21.5775751 64.768,21.2415751 64,20.9055751 L64.288,18.8415751 C65.104,18.6495751 65.92,18.5055751 66.688,18.3615751 C67.504,18.3615751 68.32,18.1695751 68.944,17.6895751 L68.464,16.5855751 C67.84,16.2495751 67.168,15.9615751 66.544,15.7695751 C65.92,15.6255751 65.248,15.4815751 64.48,15.4815751 L64.624,14.5215751 C65.728,13.9935751 67.024,13.8495751 68.32,13.8495751 C69.424,13.8495751 70.576,13.8495751 71.68,13.8495751 C72.784,13.9935751 73.792,14.1855751 74.896,14.3295751 C75.376,15.9615751 75.712,17.5455751 76,19.3215751 C76.192,21.0975751 76.48,22.8255751 76.96,24.4575751 C77.296,26.2335751 77.632,27.8175751 77.968,29.5935751 C77.632,30.8895751 76.96,31.9935751 76.192,33.0975751 C74.704,35.2575751 74.08,36.3615751 73.744,37.6575751 L74.224,41.6895751 L75.328,42.7935751 C76.144,42.6495751 76.96,42.3135751 77.584,41.6895751 C78.064,41.2095751 79.408,39.7215751 80.032,39.2415751 L80.848,39.2415751 L82.096,41.3055751 C82.768,41.7855751 83.392,42.2655751 84.208,42.7455751 C84.832,43.2255751 85.504,43.4175751 86.272,43.5615751 Z M59.152,30.5535751 L57.04,30.4095751 C56.848,29.4495751 57.04,28.6335751 57.52,27.8655751 L59.008,27.8175751 L59.632,28.7775751 C59.824,29.5935751 59.632,30.0735751 59.152,30.5535751 Z M63.952,30.1215751 L64.096,28.2015751 L65.92,28.2975751 L66.16,30.2655751 L63.952,30.1215751 Z M59.2,25.5135751 L57.088,25.5615751 L57.328,24.0735751 L59.152,24.0255751 L59.2,25.5135751 Z M65.776,25.5615751 L63.808,25.5615751 L64.096,24.3615751 L65.92,24.4575751 L65.776,25.5615751 Z M85.024,6.88957506 L87.952,6.60157506 L89.2,6.74557506 L90.016,6.40957506 L89.536,5.30557506 C88.72,4.82557506 87.76,4.15357506 86.992,3.52957506 C86.176,2.90557506 85.216,2.23357506 84.4,1.75357506 C83.44,1.27357506 82.48,0.937575056 81.52,0.457575056 L81.184,0.457575056 C81.328,1.60957506 81.664,2.42557506 82.336,3.19357506 C82.816,4.00957506 83.296,4.96957506 83.44,5.92957506 L85.024,6.88957506 Z" id="Shape"></path>
            </g>
        </g>
    </g>
</svg>