<?xml version="1.0" encoding="UTF-8"?>
<svg width="42.7011699px" height="23.5147902px" viewBox="0 0 42.7011699 23.5147902" version="1.1" xmlns="http://www.w3.org/2000/svg" xmlns:xlink="http://www.w3.org/1999/xlink">
    <title>btn_mouth@2x</title>
    <g id="Symbols" stroke="none" stroke-width="1" fill="none" fill-rule="evenodd">
        <g id="btn_mouth" transform="translate(0.000000, -0.000000)" fill="#B8BDB4" fill-rule="nonzero">
            <path d="M17.8333687,23.4875197 C18.5053687,23.5835197 19.0573687,23.4395197 19.2493687,22.8395197 C19.0093687,17.4395197 18.9373687,16.4795197 18.9373687,15.0395197 C18.8653687,14.3195197 18.6253687,13.5515197 18.1693687,12.9275197 L17.8093687,12.7835197 L14.8333687,12.8555197 L14.4493687,12.7355197 L14.4493687,12.5195197 L16.1293687,10.7675197 L15.9613687,10.1675197 C15.5293687,9.78351972 15.1213687,9.39951972 14.5213687,9.32751972 L14.1853687,9.39951972 L13.2013687,9.32751972 L12.0253687,8.36751972 L11.2093687,8.60751972 L10.5853687,8.43951972 L9.88936867,8.60751972 C9.26536867,9.61551972 8.64136867,10.5755197 8.06536867,11.5115197 C8.16136867,11.9915197 8.23336867,12.5195197 8.52136867,12.9755197 L9.57736867,12.9755197 L12.1213687,10.7195197 L12.8173687,10.9115197 C12.7213687,11.7515197 12.4813687,12.4235197 11.9773687,12.9275197 L10.9693687,13.3355197 L8.97736867,13.2635197 L8.25736867,13.3355197 L8.54536867,14.2475197 C8.47336867,15.2795197 8.30536867,16.3355197 8.16136867,17.3675197 C7.99336867,18.4235197 7.82536867,19.4555197 7.75336867,20.5115197 C7.68136867,21.3755197 7.99336867,22.1435197 8.59336867,22.7675197 L9.09736867,22.6715197 C9.62536867,21.6635197 10.0333687,20.7035197 10.2973687,19.7915197 C14.1853687,19.7915197 15.3133687,19.6235197 16.8253687,19.4795197 L16.8973687,20.4875197 L14.8093687,21.0875197 L14.9053687,21.5195197 L16.6333687,22.8395197 L17.8333687,23.4875197 Z M12.4093687,18.1595197 C12.4093687,18.1595197 10.6333687,18.4715197 10.5133687,18.3275197 L10.7533687,17.5355197 C11.5453687,17.3915197 12.0493687,17.4635197 12.5773687,17.6555197 L12.4093687,18.1595197 Z M16.5133687,17.9915197 L14.6173687,17.8475197 L14.6413687,17.2235197 L16.5613687,17.3195197 L16.5133687,17.9915197 Z M4.84936867,16.2635197 L5.23336867,16.1915197 C5.68936867,15.5675197 5.92936867,14.7995197 5.83336867,14.0075197 C5.76136867,13.2875197 6.07336867,9.83151972 5.68936867,8.89551972 C5.06536867,8.36751972 4.36936867,8.12751972 3.64936867,8.19951972 C2.92936867,8.29551972 2.20936867,8.19951972 1.56136867,7.95951972 L0.721368672,8.05551972 C0.433368672,8.41551972 0.193368672,8.82351972 0.121368672,9.25551972 L0.265368672,9.83151972 L0.0253686717,12.1595197 C-0.0466313283,13.1195197 0.0253686717,13.9595197 0.361368672,14.6795197 C0.601368672,15.1595197 0.913368672,15.5675197 1.36936867,16.0235197 L4.84936867,16.2635197 Z M12.3853687,15.9035197 C12.3853687,15.9035197 11.1613687,16.0715197 10.9933687,15.9515197 L11.2813687,15.0395197 L12.4333687,14.9675197 C12.5053687,15.1835197 12.4813687,15.7115197 12.3853687,15.9035197 Z M16.2973687,15.7595197 C15.5773687,15.8555197 15.0013687,15.8315197 14.4493687,15.6395197 L14.5213687,14.5835197 L15.5533687,14.4155197 L16.2493687,14.5835197 L16.2973687,15.7595197 Z M3.64936867,14.1515197 L2.54536867,14.3915197 L2.23336867,14.1995197 L2.56936867,10.7915197 L3.62536867,10.5515197 C3.86536867,11.8955197 3.79336867,13.1915197 3.64936867,14.1515197 Z M6.55336867,8.72751972 C7.60936867,8.63151972 8.56936867,8.55951972 9.62536867,8.31951972 C10.5853687,8.15151972 11.5453687,7.98351972 12.4333687,7.67151972 C12.6253687,7.43151972 12.8173687,7.07151972 12.7693687,6.61551972 L12.4333687,6.32751972 L11.6173687,6.44751972 C11.2093687,6.51951972 10.8733687,6.44751972 10.6813687,6.25551972 L10.9213687,4.59951972 L11.0653687,4.55151972 L12.3853687,4.55151972 L12.8653687,5.22351972 L12.8893687,6.37551972 L13.0093687,7.16751972 C13.4173687,8.10351972 14.1853687,8.67951972 15.2413687,8.72751972 C16.5853687,8.63151972 17.8813687,8.55951972 19.1533687,8.31951972 C19.5373687,8.22351972 19.8253687,7.93551972 19.8973687,7.57551972 L19.8253687,7.16751972 L20.0653687,6.06351972 C20.1373687,5.31951972 19.9933687,4.55151972 19.7053687,3.87951972 L19.2733687,3.87951972 C18.5773687,4.64751972 18.0253687,5.43951972 17.6653687,6.35151972 L16.2013687,6.75951972 L14.7613687,6.51951972 L14.6173687,5.96751972 C14.5213687,5.48751972 14.6173687,5.12751972 14.7613687,4.74351972 C15.4333687,4.38351972 16.1533687,3.97551972 16.9693687,3.73551972 C17.6893687,3.49551972 18.4813687,3.25551972 19.2973687,3.01551972 L19.5853687,2.65551972 L19.5853687,2.15151972 L18.3373687,0.807519715 L17.4733687,0.903519715 L16.9213687,0.807519715 C16.5133687,0.735519715 16.1533687,0.807519715 15.8653687,1.02351972 C15.5293687,1.59951972 15.2653687,2.31951972 14.8093687,2.60751972 C14.7373687,2.12751972 14.4493687,1.26351972 14.0653687,0.663519715 L13.2253687,0.255519715 L12.8173687,0.471519715 L12.9613687,1.40751972 C12.9613687,2.12751972 12.8893687,2.72751972 12.6973687,3.23151972 C12.0253687,3.23151972 11.4253687,3.06351972 10.9213687,2.87151972 L11.1613687,1.40751972 L11.1613687,0.951519715 L10.3933687,0.0155197155 C9.93736867,-0.0564802845 9.48136867,0.0875197155 8.23336867,1.19151972 C8.47336867,2.43951972 8.54536867,3.08751972 8.54536867,3.80751972 L8.68936867,6.25551972 L8.35336867,6.27951972 L8.35336867,3.73551972 C8.18536867,3.27951972 7.89736867,2.87151972 7.44136867,2.58351972 L5.78536867,2.94351972 L6.07336867,3.37551972 C6.38536867,4.04751972 6.45736867,6.63951972 6.45736867,6.63951972 L5.42536867,7.64751972 C5.66536867,8.17551972 6.02536867,8.55951972 6.55336867,8.72751972 Z" id="Shape"></path>
            <path d="M29.8093687,21.3035197 C38.4973687,20.9915197 38.9773687,20.8955197 39.5293687,20.8235197 C40.0093687,20.7515197 41.4493687,20.7515197 41.4493687,20.7515197 L42.4333687,20.4155197 L42.6733687,19.9355197 C42.7453687,18.9035197 42.6733687,17.8475197 42.5053687,16.8155197 C42.2653687,15.8555197 41.4253687,13.8395197 40.7053687,13.1195197 L40.5373687,13.1195197 L40.5373687,14.0315197 C40.3213687,15.3035197 39.9133687,15.8795197 39.6973687,16.6715197 C39.5053687,17.3915197 39.0733687,18.0155197 38.7613687,18.6395197 C38.7613687,18.6395197 36.0973687,18.7355197 35.2333687,18.7115197 C33.9853687,18.7355197 29.6173687,18.6635197 28.8253687,18.4235197 C28.6573687,18.1115197 28.5853687,17.7035197 28.5853687,17.3195197 C28.4893687,16.9115197 28.4173687,16.5035197 28.3453687,16.0955197 L28.6093687,13.1195197 C29.7373687,12.8075197 30.9373687,12.5195197 32.1373687,12.3995197 C33.3613687,12.2555197 34.4893687,12.4955197 35.6173687,12.2555197 C36.6733687,12.0395197 38.1133687,11.7755197 38.7133687,10.7195197 C39.0493687,9.99951972 39.3373687,9.11151972 39.7453687,8.39151972 C40.0573687,7.67151972 40.2493687,6.13551972 40.3453687,5.34351972 C40.4173687,4.52751972 40.6573687,3.80751972 41.0413687,3.35151972 C40.8733687,2.87151972 40.5613687,2.53551972 39.9853687,2.46351972 C39.4333687,2.39151972 38.9533687,2.29551972 38.4733687,2.22351972 L37.6093687,2.29551972 C35.9053687,2.43951972 35.1133687,2.51151972 33.9853687,2.77551972 C32.8813687,3.01551972 31.9213687,3.11151972 30.5773687,3.18351972 C29.4253687,3.23151972 28.3693687,3.51951972 26.3533687,3.68751972 L25.9453687,3.68751972 L25.9453687,3.99951972 L25.9693687,7.67151972 C25.8973687,8.53551972 25.8013687,9.35151972 25.7293687,10.1435197 C25.5613687,10.9595197 25.4173687,11.7515197 25.3213687,12.5675197 L25.3213687,15.2795197 C25.3213687,15.8555197 25.3213687,16.3355197 25.4173687,16.8875197 C25.4893687,17.4635197 25.5613687,17.9435197 25.8013687,18.4235197 C26.0413687,18.9035197 26.2813687,19.3835197 26.6173687,19.7915197 C27.0013687,20.2715197 27.5773687,20.5835197 28.1293687,20.8235197 C28.7053687,21.0635197 29.2573687,21.2315197 29.8093687,21.3035197 Z M30.7693687,9.87951972 L28.8973687,9.87951972 L28.6573687,8.89551972 L28.7773687,5.89551972 L31.5853687,5.65551972 C31.5853687,6.20751972 31.1773687,9.47151972 30.7693687,9.87951972 Z M36.0013687,9.37551972 L34.3213687,9.78351972 L33.9853687,9.61551972 C33.9853687,9.06351972 34.6813687,5.60751972 34.9453687,5.19951972 L36.4813687,4.76751972 L36.7213687,5.48751972 C36.5533687,8.58351972 36.4093687,8.96751972 36.0013687,9.37551972 Z" id="Shape"></path>
        </g>
    </g>
</svg>