<?xml version="1.0" encoding="UTF-8"?>
<svg width="45.816px" height="21.384px" viewBox="0 0 45.816 21.384" version="1.1" xmlns="http://www.w3.org/2000/svg" xmlns:xlink="http://www.w3.org/1999/xlink">
    <title>前髮</title>
    <g id="Symbols" stroke="none" stroke-width="1" fill="none" fill-rule="evenodd">
        <g id="前髮" fill="#B8BDB4" fill-rule="nonzero">
            <path d="M20.856,20.256 L21.552,19.8 L21.552,19.32 C21,18.816 20.52,18.288 19.944,17.76 C19.392,17.304 18.816,16.848 18.336,16.32 C17.784,15.792 17.352,15.264 16.896,14.664 L16.896,14.4 C17.232,14.208 17.544,13.8 17.952,13.416 C18.336,13.08 18.672,12.72 19.056,12.36 C19.392,12.024 19.704,11.808 20.184,11.472 L20.184,10.896 C19.56,10.584 18.984,10.32 18.024,9.888 L17.712,9.888 C17.4,10.344 17.16,10.728 16.92,11.112 C16.68,11.592 16.44,11.952 16.2,12.408 C15.888,12.864 15.624,13.152 15.312,13.368 L13.608,11.928 L11.616,12.072 L11.616,12.504 L12.264,12.984 L13.464,14.184 C14.184,15.048 15,15.864 15.792,16.656 C16.512,17.448 17.328,18.144 18.12,18.792 C18.936,19.416 19.824,19.92 20.856,20.256 Z M9.576,19.68 L10.176,19.8 C10.8,19.368 11.28,18.864 11.832,18.312 C12.24,17.784 12.648,17.256 12.96,16.584 L12.96,16.248 L11.064,16.776 C10.896,16.848 10.728,16.776 10.56,16.608 C10.56,16.608 10.632,15.72 10.704,15.096 C10.8,13.92 10.872,13.32 10.944,12.696 C11.04,12.072 11.112,11.52 11.184,10.944 C11.592,10.728 12.072,10.536 12.576,10.464 C13.056,10.344 14.712,9.936 15.12,9.552 C15.84,9.744 16.92,9.36 17.064,8.064 L16.944,5.04 C16.848,4.608 16.896,3.6 16.896,3.072 C16.896,2.64 16.728,2.136 16.488,1.8 C16.104,1.296 15.696,1.128 15.144,1.032 C14.256,1.128 13.464,1.2 12.648,1.32 C11.76,1.392 10.968,1.584 10.248,1.824 C9.528,2.064 8.736,2.208 7.872,2.664 C8.184,3.384 8.328,3.936 8.424,5.112 C8.496,5.832 8.496,9.144 8.496,10.128 C8.424,11.064 8.424,12.072 8.328,13.056 C8.256,14.04 8.088,15.552 7.944,16.512 L8.016,17.544 C8.016,17.544 8.616,19.2 9.576,19.68 Z M3.192,17.376 C3.576,17.472 3.984,17.304 5.568,16.176 L6.12,16.44 L6.696,16.272 L7.104,15.432 L6.936,12.864 L7.008,9.864 C7.008,9.216 7.008,8.496 6.936,7.8 C6.864,7.152 6.768,6.456 6.696,5.856 C6.528,5.16 6.288,4.632 6.048,4.08 C5.664,3.6 5.256,3.36 4.776,3.264 C4.296,3.192 3.816,3.192 3.336,3.192 C2.856,3.192 2.4,2.856 1.656,2.784 C1.656,2.784 0.552,3.144 0,3.816 C0.24,4.608 0.552,5.304 0.624,6.096 C0.624,7.008 0.624,7.872 0.72,8.664 C0.72,9.6 0.72,10.464 0.792,11.328 L0.72,13.776 L0.792,15.432 C0.792,15.432 1.344,17.136 2.208,17.304 L3.192,17.376 Z M4.968,14.208 L3.384,14.568 C3.192,14.64 3.024,14.568 2.928,14.4 L3.096,12.672 L4.776,12.432 L4.968,14.208 Z M4.56,10.464 C3.912,10.464 3.336,10.32 2.856,10.104 C2.76,9.744 2.856,9.504 3.024,9.288 C3.024,9.288 4.392,9.288 4.632,9.648 L4.56,10.464 Z M14.28,8.16 L11.616,8.424 L11.112,8.328 L10.944,7.968 L10.992,7.08 C11.232,7.008 14.304,7.272 14.304,7.272 L14.28,8.16 Z M4.392,7.344 L2.928,7.2 L2.76,5.568 L3.528,5.328 L4.08,5.448 C4.248,5.856 4.488,7.176 4.392,7.344 Z M14.208,5.136 C14.208,5.136 11.64,5.424 11.16,5.616 L10.896,5.52 C10.752,4.896 10.512,4.272 10.464,3.672 L13.848,3.408 L14.208,5.136 Z" id="Shape"></path>
            <path d="M35.784,21.384 C36.144,21.384 36.408,21.288 36.648,21.024 C37.056,20.544 37.464,20.064 37.872,19.512 C38.184,19.032 38.424,18.456 38.664,17.904 C38.904,17.352 39.072,16.776 39.216,16.248 L39.456,16.248 C39.384,16.824 39.456,17.4 39.624,17.976 C39.768,18.552 40.008,19.032 40.272,19.512 C40.608,19.944 41.016,20.184 41.4,20.424 C41.808,20.664 42.216,20.808 42.72,20.904 C43.128,20.976 43.608,21.048 43.992,21.144 C44.712,21.216 45.312,21.144 45.816,20.712 C45.816,20.28 45.744,19.944 45.648,19.632 C45.504,19.32 45.504,19.08 45.504,18.432 C45.432,17.928 44.616,16.872 44.424,16.344 C44.208,16.872 43.8,17.928 43.656,18.408 C43.488,18.816 43.272,19.128 42.96,19.344 L42.264,19.2 L41.664,18.648 C41.664,18.264 41.712,16.32 41.376,15.072 L41.856,14.928 L42.6,14.76 L43.224,14.376 C43.56,13.896 43.728,13.296 43.8,12.744 C43.8,12.168 43.896,11.688 43.968,11.136 L43.896,10.56 C43.632,10.296 43.296,10.056 42.888,9.96 C42.504,9.888 42.168,9.72 41.832,9.648 C41.112,9.72 40.32,9.72 39.576,9.72 C38.856,9.816 38.064,9.816 37.344,9.816 C36.528,9.816 35.808,9.888 35.04,10.152 C35.208,10.728 35.28,11.304 35.352,11.856 C35.448,12.432 35.52,13.056 35.568,14.976 C35.952,15.312 36.816,15.504 36.816,15.504 C36.816,16.008 36.648,16.8 36.48,17.208 C36.336,17.688 36.168,18.168 35.928,18.576 C35.688,19.056 35.52,19.536 35.28,19.968 L35.352,20.952 L35.784,21.384 Z M26.976,20.664 C27.864,20.664 28.68,20.544 29.544,20.472 C30.36,20.376 31.152,20.208 32.04,20.04 C32.856,19.872 33.6,19.608 34.344,19.152 L34.344,18.912 L33.6,18.384 L30.288,18.528 L30.48,15.936 L30.408,15.048 C30.312,14.256 30.408,13.512 30.648,12.936 L32.112,12.432 L32.064,11.904 C31.704,11.208 30.288,11.424 30.072,11.136 C30,10.68 30.072,10.224 30.24,9.816 L31.368,9.312 L31.368,8.712 C30.792,8.304 30.192,8.112 29.544,8.016 L28.248,8.184 C28.032,8.304 27.84,8.184 27.672,7.896 C27.84,7.44 27.912,6.936 27.984,6.36 C28.08,5.928 28.344,5.496 28.344,5.496 C28.872,5.712 29.448,5.976 30,6.312 C30.504,6.696 31.08,6.96 31.608,7.296 C32.064,7.08 32.328,7.032 32.4,6.768 L32.4,6.288 L29.208,3.744 L28.632,2.568 L27.456,1.92 L26.928,2.088 C26.688,3.096 26.448,4.176 26.208,5.136 C25.896,6.12 25.488,7.104 25.08,8.088 C24.696,9.072 24.216,9.96 23.808,10.968 C23.736,11.736 23.856,13.104 24.576,13.44 C25.32,13.296 25.488,12.432 25.488,12.432 C25.848,12.624 27.864,13.056 28.32,13.176 C28.536,13.728 28.632,14.256 28.704,14.88 C28.704,15.504 28.776,16.128 28.704,18.816 C28.152,19.032 27.528,19.2 26.88,19.368 C26.232,19.56 25.68,19.824 25.08,20.088 L25.08,20.28 C25.776,20.376 26.424,20.472 26.976,20.664 Z M31.152,17.448 L32.304,17.352 L34.008,15.576 L33.768,14.808 C33.192,14.352 32.592,14.088 31.968,14.088 L31.272,14.184 L31.344,14.592 C31.272,15.408 31.104,16.128 30.864,16.776 C30.792,17.112 30.864,17.376 31.152,17.448 Z M27.456,17.712 C27.816,17.832 28.2,17.736 28.344,17.304 L28.2,16.68 C27.768,15.984 27.192,15.504 26.496,15.312 L25.272,15.624 L25.368,16.08 C26.04,16.848 26.712,17.28 27.456,17.712 Z M41.712,13.416 C41.112,13.488 40.464,13.488 39.816,13.584 C39.096,13.656 38.472,13.728 37.896,13.896 L37.368,13.824 L37.248,12.96 L39.672,13.008 L41.184,12.912 C41.424,12.84 41.64,12.912 41.784,13.128 L41.712,13.416 Z M28.224,11.496 L27.072,11.424 C26.664,11.496 26.376,11.424 26.16,11.16 C26.472,10.464 26.784,10.056 27.168,9.648 C27.552,9.576 27.84,9.648 28.056,9.936 L28.392,10.68 L28.224,11.496 Z M41.232,11.928 C40.8,12.024 40.344,11.88 39.912,11.784 C39.432,11.712 38.952,11.712 38.544,11.712 C38.064,11.712 37.584,11.712 37.152,11.64 L37.152,11.016 C37.584,11.112 38.064,11.112 38.544,11.112 C39.024,11.112 39.504,11.112 40.056,11.016 C40.56,11.016 40.92,11.184 41.304,11.4 L41.232,11.928 Z M34.92,9.816 C35.976,9.576 37.104,9.408 38.136,9.168 C39.192,9.024 40.32,8.856 41.424,8.784 C42.48,8.688 43.608,8.448 44.688,8.208 L44.616,7.752 C44.112,7.32 43.536,7.08 42.96,6.984 C42.312,6.912 41.664,6.84 41.16,6.696 L41.64,4.656 C42.024,4.44 42.48,4.368 43.032,4.272 C43.512,4.272 43.992,4.2 44.52,4.008 L44.448,3.576 C43.944,3.312 43.464,3.144 42.96,2.976 C42.384,2.904 41.904,2.832 41.352,2.832 L39.552,2.976 C39.336,2.424 39.168,1.896 39.096,1.224 C38.856,0.744 38.496,0.36 38.112,1.42108547e-14 L37.608,1.42108547e-14 L37.32,0.096 L37.872,2.232 C37.944,2.544 37.872,2.832 37.656,3.048 C37.248,3.288 35.976,3.624 35.4,3.696 C34.848,3.792 34.464,3.696 34.056,3.456 L32.928,3.552 L33.288,4.488 C33.552,4.848 33.888,4.992 34.296,4.992 C34.68,5.088 35.016,5.16 35.376,5.256 L36.096,6.888 L36,7.224 C35.496,7.32 35.016,7.392 34.44,7.488 C33.888,7.56 33.384,7.728 32.904,7.872 L32.712,8.256 L32.784,8.76 C33.072,9.144 33.384,9.408 33.792,9.504 C34.104,9.648 34.536,9.744 34.92,9.816 Z M38.856,6.888 L38.112,6.984 C38.04,6.48 37.872,6 37.776,5.232 L38.856,4.92 L39.384,5.232 C39.384,5.832 39.216,6.456 38.856,6.888 Z" id="Shape"></path>
        </g>
    </g>
</svg>