<?xml version="1.0" encoding="UTF-8"?>
<svg width="44.736px" height="22.344px" viewBox="0 0 44.736 22.344" version="1.1" xmlns="http://www.w3.org/2000/svg" xmlns:xlink="http://www.w3.org/1999/xlink">
    <title>btn_face@2x</title>
    <g id="Symbols" stroke="none" stroke-width="1" fill="none" fill-rule="evenodd">
        <g id="btn_face" fill="#B8BDB4" fill-rule="nonzero">
            <path d="M7.104,22.056 L7.944,21.912 L8.208,21.432 L8.256,18.744 C8.328,14.16 8.64,9.648 8.112,4.104 C8.04,3.504 8.208,3 8.52,2.52 L8.352,2.04 C7.44,1.584 6.576,1.224 5.664,0.936 L4.464,1.056 C3.744,0.936 3.024,1.056 2.28,1.128 C1.536,1.32 0.912,1.656 0.312,2.136 L0.384,2.856 L0.384,11.064 C0.312,12.408 0.312,13.656 0.24,14.904 C0.144,16.248 0.072,17.496 0,18.816 C0,19.536 0.072,20.256 0.24,20.976 L0.816,21.648 L1.296,21.432 C1.608,20.328 1.848,19.272 2.088,18.096 C2.256,16.944 2.496,15.888 2.736,14.04 C3.6,13.776 4.392,13.44 5.448,13.08 C5.544,14.52 5.616,16.68 5.856,18.096 L5.784,18.864 L4.128,18.96 L3.36,19.128 L3.36,19.464 C4.104,19.776 4.656,20.28 4.968,21.072 C5.64,21.648 6.36,21.984 7.104,22.056 Z M16.32,22.344 L16.704,22.152 C17.28,21.336 17.688,20.448 18.288,19.536 C19.296,20.232 20.328,20.88 21.48,21.432 L21.936,21.264 L21.936,20.808 C21.024,19.848 19.992,18.936 18.888,18.24 L18.888,17.952 C19.368,16.92 19.992,16.032 20.88,15.312 L20.88,14.784 C20.544,14.352 20.136,14.112 19.632,13.872 L18.816,14.04 C18.096,14.712 17.496,15.432 17.112,16.152 C16.704,16.944 16.296,17.76 16.008,18.528 L15.816,18.528 L14.208,16.92 L13.824,16.704 L13.752,16.488 C13.992,15.648 14.52,15.024 15.456,14.592 L15.264,14.136 C14.688,13.56 14.016,13.32 13.224,13.32 L12,13.632 C11.568,14.616 11.232,15.6 10.92,16.56 C10.608,17.52 10.368,18.504 10.128,19.536 L10.536,20.88 L11.232,20.712 C11.664,19.8 12.144,18.936 12.672,18.072 L12.888,18 L15.504,19.56 C15.648,20.52 15.888,21.408 16.32,22.344 Z M5.448,11.184 C3.696,11.376 3.048,11.544 2.808,11.304 L3.12,8.904 C3.648,8.664 4.176,8.496 5.256,8.496 L5.544,10.704 L5.448,11.184 Z M11.28,13.416 L12.048,12.696 L12.576,12.864 C13.128,12.792 13.776,12.696 14.496,12.624 L15.456,11.832 L15.216,11.112 C15.456,10.8 15.528,10.32 15.6,9.84 L15.456,8.88 C14.904,8.568 14.256,8.4 13.704,8.4 C12.648,8.328 11.544,8.496 10.656,8.88 L10.032,9.984 C10.104,10.872 10.272,11.76 10.512,12.48 L11.28,13.416 Z M19.392,12.552 C19.968,12.624 20.52,12.456 20.904,11.832 L20.736,11.28 L21.552,9.504 L21.456,9.192 C20.76,8.808 19.968,8.568 19.248,8.496 C18.504,8.4 17.856,8.16 17.16,7.848 L15.792,8.16 L15.792,9.192 C15.888,10.152 16.08,11.304 16.752,11.976 C17.568,12.312 18.504,12.456 19.392,12.552 Z M13.296,11.208 C12.648,11.448 12.408,11.376 12.24,11.28 L12.6,10.032 L13.224,10.056 L13.392,10.464 C13.464,10.8 13.392,11.04 13.296,11.208 Z M18.936,11.064 C18.264,11.304 18.096,11.208 17.928,11.136 C18.024,10.632 18.168,10.152 18.432,9.744 C18.744,9.648 18.912,9.816 19.104,9.984 L18.936,11.064 Z M5.184,6.696 L3.264,6.696 C3.312,3.576 3.456,3.144 3.672,2.832 L4.656,2.904 C5.04,4.104 5.328,6.216 5.184,6.696 Z M9.936,8.592 L10.512,8.448 C11.088,7.44 11.736,6.48 12.384,5.592 C12.936,4.728 13.584,3.768 14.256,2.928 C15.288,3.624 16.392,4.272 17.448,4.992 C18.48,5.712 19.608,6.36 20.832,6.744 C21.168,6.744 21.456,6.672 21.528,6.36 C20.616,5.472 19.752,4.728 18.696,4.008 C17.664,3.36 16.704,2.64 15.84,1.776 L15.912,1.488 L15.744,1.056 C15.168,0.48 14.52,0.144 13.776,0 C13.224,0.072 12.72,0.24 12.24,0.48 C11.64,1.464 11.16,2.424 10.608,3.384 C10.032,4.344 9.48,5.304 8.904,6.36 C8.856,6.816 8.784,7.296 9.072,7.608 C9.24,8.016 9.504,8.352 9.936,8.592 Z M15.312,7.44 L17.376,7.344 L17.856,6.888 L17.784,6.336 C16.992,5.856 16.104,5.712 15.216,5.616 L12.816,5.712 L12.264,6.336 L12.36,6.648 C13.296,7.2 14.256,7.44 15.312,7.44 Z" id="Shape"></path>
            <path d="M42.024,20.736 C42.408,20.736 42.744,20.736 43.128,20.736 C43.464,20.832 43.776,20.736 44.088,20.592 L44.016,20.112 C43.368,19.536 42.648,19.224 41.856,19.056 C41.856,19.056 40.968,18.984 40.176,18.888 C39.288,18.816 38.472,18.648 37.584,18.504 C37.32,17.304 37.248,16.704 37.488,16.296 C37.896,16.056 38.472,16.008 39.048,16.008 C39.528,16.08 40.008,16.008 40.416,15.768 L40.32,15.288 C39.912,15.048 39.432,14.808 38.952,14.712 C38.4,14.64 37.92,14.568 37.344,14.472 C37.104,14.16 36.96,13.848 36.864,13.44 C36.72,13.032 36.552,12.72 36.384,12.312 C36.384,12.312 36.216,11.568 35.64,11.616 C35.232,11.736 35.184,12 35.184,12 C34.944,12.384 34.464,13.536 34.224,14.52 C33.6,14.664 32.688,14.712 32.064,14.712 C31.344,14.712 30.696,14.808 30.048,14.976 L30.12,15.216 C30.456,15.6 30.864,15.768 31.344,15.84 C31.728,15.936 32.208,16.008 32.688,16.008 L34.536,16.176 C34.944,16.728 34.992,17.304 35.16,18.336 C34.44,18.504 33.816,18.576 33.096,18.576 C31.824,18.648 31.104,18.744 30.384,18.816 C29.64,18.984 28.92,19.224 28.2,19.464 L28.296,19.704 C28.68,20.256 29.256,20.496 29.976,20.424 C30.624,20.424 31.248,20.424 31.896,20.424 C33.024,20.496 33.672,20.496 34.296,20.592 L37.248,20.568 L42.024,20.736 Z M43.608,14.16 L43.92,14.088 C44.16,13.368 44.4,12.648 44.496,11.832 C44.568,11.112 44.568,10.32 44.64,9.504 C44.64,8.712 44.64,7.896 44.736,5.976 C44.736,5.424 44.736,4.92 44.64,4.368 C44.568,3.816 44.496,3.336 44.256,2.928 C44.016,2.52 43.68,2.04 43.368,1.632 L42.312,1.248 L42.072,1.32 C42.312,1.872 42.408,2.52 42.312,3.96 L42.312,9.816 L42.072,10.704 C41.76,10.944 41.352,11.112 40.944,11.184 C40.56,11.28 40.08,11.424 39.672,11.52 L39.744,11.76 C40.224,12 40.704,12.24 41.112,12.48 C41.52,12.72 41.928,13.032 42.312,13.368 C42.72,13.752 43.128,13.992 43.608,14.16 Z M32.688,12.648 L33.408,12.48 C33.648,11.904 33.72,11.28 33.816,10.56 C33.816,9.816 33.984,9.192 34.224,8.616 C34.608,8.376 35.184,8.304 35.736,8.376 C36.288,8.472 36.696,8.304 37.104,8.064 L36.936,7.344 C36.552,7.008 36.048,6.864 35.496,6.768 C34.944,6.768 34.464,6.696 33.984,6.624 C33.984,5.808 34.056,5.328 34.296,4.224 C34.848,3.984 35.424,3.912 35.976,3.912 L36.384,3.504 L36.216,3.096 C35.808,2.856 35.328,2.616 34.848,2.472 C34.368,2.304 33.888,2.232 33.408,2.136 C32.688,2.136 32.04,2.136 31.392,2.136 C30.768,2.136 30.12,2.232 29.472,2.304 C28.824,2.472 27.672,2.664 27.096,2.832 L27.144,3.432 L28.752,4.224 L28.344,6.696 C27.864,6.936 27.384,7.008 26.832,7.104 C26.256,7.176 25.776,7.248 24.336,7.344 L24.096,7.968 L25.056,8.616 C26.328,8.688 27.384,8.712 27.72,8.952 L27.48,10.944 L27.552,11.832 L28.2,12.552 L29.232,12.312 C29.64,11.76 29.952,11.184 30.192,10.56 C30.432,9.984 30.792,8.76 30.792,8.76 L31.536,8.808 L32.04,11.832 C32.136,12.144 32.376,12.384 32.688,12.648 Z M38.784,8.376 L39.432,8.232 C39.504,7.656 39.672,7.176 39.912,6.696 C40.152,6.216 40.32,5.736 40.392,5.16 C40.464,4.68 40.632,4.2 40.872,3.72 C40.872,3.168 40.704,2.592 40.464,2.112 L39.432,1.728 L38.136,1.632 L37.824,1.728 L37.176,4.848 C37.176,5.424 37.272,5.976 37.416,6.528 C37.584,7.104 37.752,7.656 37.992,8.136 L38.784,8.376 Z M31.488,6.216 L30.96,6.24 L30.888,6 C30.888,5.52 31.032,4.488 31.392,4.152 L31.8,4.224 C31.896,5.328 31.8,5.736 31.488,6.216 Z" id="Shape"></path>
        </g>
    </g>
</svg>