<svg width="104" height="30" xmlns="http://www.w3.org/2000/svg">
    <g fill="#AABD9A" fill-rule="nonzero">
        <path d="M38.224 24.533l.792-.24.24-.48c.48-.24.96-.336 1.536-.336.384-.24.72-.384 1.128-.648.384-.24.72-.48 1.032-.792l.792-.648 1.464-1.44a12.81 12.81 0 011.848 1.44c.552.576 1.2 1.128 1.824 1.536a12.53 12.53 0 001.944 1.128c.552.072.96-.096 1.272-.48v-.576l-.552-.552a19.26 19.26 0 01-1.296-2.016c-.384-.648-.864-1.272-1.272-1.992-.408-.648-.888-1.296-1.296-1.944.24-.72.576-1.368.888-2.088.408-1.296.744-1.944 1.128-2.568a7.679 7.679 0 011.368-1.848l-.072-.576-.816-.864-1.512.144-.336-.072-1.584.072-.576.576c-.408.24-2.256.96-2.64 1.032-.48.096-.96.168-1.536.24.24.576.576 1.128.96 1.608a2.472 2.472 0 001.536-.312l.816.144-.96 1.92-.432-.6c-.552.072-1.032.24-1.608.384-.552.168-1.032.408-1.512.648l.072.648.648.072 1.512 1.392c-.072.552-1.32 2.472-1.56 2.952s-.768.96-1.152 1.368h-.24l.144-11.016c.096-.384.288-2.064.528-2.448.432-.072 1.008-.36 1.416-.504.384-.096.72-.336.96-.648l-.096-.336-1.032-.312h-2.088a36.566 36.566 0 00-2.976.312c-1.032.168-1.992.336-2.976.576-.96.24-1.92.408-2.952.48l-.48.552.312.72c.24.408.552.648.96.744.408.072.72.24 1.128.312l.24.552-.168 7.872-2.088.888a.898.898 0 01-.864-.24l-.336.072-.072.168c.072.312.24.648.408 1.032.072.408.312.648.624.816.72-.096 1.464-.168 2.184-.408.624-.24 1.272-.408 1.992-.648.648-.144 1.296-.384 2.352-.552.168.552.24 1.128.24 1.68 0 .648 0 1.296.072 1.848.096.552.168 1.128.336 1.68l.384.576zm-.936-7.8s-1.968.384-2.208.144l.096-.624 1.752-.552.432.072.168.408-.24.552zm.24-3.12l-2.232.36.216-1.32 2.064-.24.024.792-.072.408zm.096-3l-.84.24-.96-.096-.312-.72c-.096-.432-.024-1.008.216-1.56l.96-.336.84.096.312 1.128c.12.36.024.912-.216 1.248zM72.928 25.493c.312.096.648 0 .888-.144l.24-.504-.096-.624v-1.536c0-.552.096-1.032.168-1.44v-.576c-.072-1.032-.072-2.088-.072-3.12-.096-1.056-.168-2.016-.336-3.048-.144-.96-.384-1.92-.72-2.808a2.659 2.659 0 00-1.44-.648c-.552-.072-1.2-.072-1.752-.168-.576 0-1.128-.072-1.608-.312.072-.408.24-.888.48-1.296.24-.384.384-.864.48-1.344.072-.408.144-.888.24-1.296a2.404 2.404 0 00-.336-1.512 1.741 1.741 0 00-.96-.48c-.384 0-.72-.096-1.032-.168l-.864.168-.072.144c.24.576.312 1.2.312 1.92 0 .744 0 1.368.096 2.016.072.648.192 1.32.48 1.824l-.12.264-1.032.408-1.776-.168c-.408-.072-.648 0-.888.312l.096.504c0 .96-.096 1.92-.168 2.808-.168.96-.24 1.92-.312 2.808-.096.96-.24 1.92-.456 4.032-.096.624 0 1.2.24 1.752.168.336.312.648.48.96.168.336.408.576.72.816.408-.336.648-.72.792-1.296.168-.48.336-.96.504-1.512.072-.48.192-2.184.288-2.76.552-.144 1.104-.24 1.752-.312.576 0 2.976-.336 3.528-.408l.72.072c.168.576.336 2.112.408 2.664l-.072.408c-.336.312-.72.48-1.2.552-.48.072-.984.168-1.368.24v.168l.552.168c.576.312 1.056.792 1.44 1.344.24.336.48.576.816.648.312.168.648.336.96.48zm-15.096-2.16l1.128-.24a7 7 0 00.96-1.944c.168-.624.408-1.272.648-1.992.24-.648.408-1.296.648-1.92l-.24-.744h-.24L59.2 18.269c-.408.408-.792.72-1.2 1.128-.408.408-.888.792-1.296 1.2-.384.408-.864.72-1.344.96l.072.336c.312.384.72.624 1.128.792.384.24.864.408 1.272.648zm13.488-6.336c-.48.072-4.344.384-4.824.48-.384.072-.72 0-.96-.24.096-.576.24-1.224.336-1.776.552.168 5.208.312 5.208.312l.408.48c.072.24 0 .504-.168.744zm-12.432-1.608l1.272-.096.096-.144c.072-.408 0-.72-.168-1.056-.408-.408-.888-.72-1.296-.96-.48-.24-.96-.408-1.512-.408l-1.92.24.552.96c.408.504.792.888 1.272 1.128.504.24 1.056.408 1.704.336zm12.024-1.2h-4.968l-.072-.888c.384-.24.792-.336 1.272-.408.48 0 .96 0 1.368-.072h1.128c.408 0 .72.072 1.032.24l.408.792-.168.336zm-10.824-2.496h.792l.24-.336-.24-.864c-.48-.48-.96-.888-1.512-1.224-.576-.312-1.128-.48-1.848-.384h-1.2l.864 1.368 2.904 1.44zm4.728-1.2l.48-.096.168-.312-.072-1.056.072-.384-.072-1.368-2.016-.408-.552.096.48 1.104c.24.408.48.888.624 1.296.168.408.48.792.888 1.128zm6.024-.888h.408l.48-.576c.408-.072.72-.24 1.128-.48.312-.24.72-.312 1.104-.384l.408-1.056-.168-.648c-.384-.24-.72-.48-1.104-.624-.408-.168-.72-.408-1.056-.648l-.552.072c-.24.576-.408 1.128-.648 1.704-.24.552-.48 1.104-.72 1.68v.384l.72.576z"/>
    </g>
</svg>