<?xml version="1.0" encoding="UTF-8"?>
<svg width="524.860632px" height="916.144603px" viewBox="0 0 524.860632 916.144603" version="1.1" xmlns="http://www.w3.org/2000/svg" xmlns:xlink="http://www.w3.org/1999/xlink">
    <title>Group 20</title>
    <g id="視覺" stroke="none" stroke-width="1" fill="none" fill-rule="evenodd">
        <g id="Group-20" transform="translate(0, -0)">
            <polygon id="Fill-1" fill="#957754" points="239.582416 915.989834 286.20721 915.989834 286.20721 22.6283562 239.582416 22.6283562"></polygon>
            <polygon id="Fill-1-Copy-4" fill="#785B37" points="264.207582 915.989834 286.207582 915.989834 286.207582 22.6283562 264.207582 22.6283562"></polygon>
            <path d="M239.582789,22.6279205 C239.582789,12.5886826 250.020008,4.45040839 262.895186,4.45040839 C275.770363,4.45040839 286.207582,12.5886826 286.207582,22.6279205 L239.582789,22.6279205 Z" id="Fill-2" fill="#58483F"></path>
            <path d="M273.810684,47.5383692 C273.810684,53.3608375 268.923592,58.0806882 262.894813,58.0806882 C256.866034,58.0806882 251.980804,53.3608375 251.980804,47.5383692 C251.980804,41.7159009 256.866034,36.9960502 262.894813,36.9960502 C268.923592,36.9960502 273.810684,41.7159009 273.810684,47.5383692" id="Fill-4" fill="#58483F"></path>
            <polygon id="Fill-6" fill="#D4B590" points="62.5221831 787.613265 462.567158 787.613265 462.567158 742.958953 62.5221831 742.958953"></polygon>
            <polygon id="Fill-8" fill="#D4B590" points="0 916 46.3156254 916 239.257045 21.1906525 193.276662 15.171176"></polygon>
            <polygon id="Fill-11-Copy-3" fill="#B8956C" transform="translate(134.1988, 465.7302) scale(-1, 1) translate(-134.1988, -465.7302)" points="239.583284 916.144603 220.826464 916 28.8144113 21.1906525 47.2378513 15.3157789"></polygon>
            <path d="M193.275917,15.171176 C195.408432,5.26989949 207.428741,-1.40888763 220.126985,0.253911076 C232.823367,1.91525756 241.388815,11.289376 239.258162,21.1906525 L193.275917,15.171176 Z" id="Fill-9" fill="#775C3B"></path>
            <path d="M200.082831,43.3692877 C201.081109,49.1108134 206.70946,52.9834653 212.654428,52.0211481 C218.599397,51.0570323 222.611133,45.6212896 221.612855,39.8779652 C220.614577,34.1364394 214.986227,30.2637875 209.041258,31.2279034 C203.09629,32.1920192 199.084553,37.6277619 200.082831,43.3692877" id="Fill-10" fill="#775C3B"></path>
            <polygon id="Fill-11" fill="#D4B590" points="524.860632 916 478.545006 916 286.532954 21.1906525 332.515199 15.171176"></polygon>
            <polygon id="Fill-11-Copy-2" fill="#B8956C" points="497.303316 916.144603 478.546496 916 286.534444 21.1906525 304.957884 15.3157789"></polygon>
            <path d="M332.514454,15.171176 C330.383801,5.26989949 318.36163,-1.40888763 305.663386,0.253911076 C292.967004,1.91525756 284.401556,11.289376 286.532209,21.1906525 L332.514454,15.171176 Z" id="Fill-12" fill="#775C3B"></path>
            <path d="M303.799623,43.3692877 C304.797901,49.1108134 310.426252,52.9834653 316.37122,52.0211481 C322.316189,51.0570323 326.327925,45.6212896 325.329647,39.8779652 C324.331369,34.1364394 318.703018,30.2637875 312.75805,31.2279034 C306.811219,32.1920192 302.801345,37.6277619 303.799623,43.3692877" id="Fill-13" fill="#775C3B"></path>
            <polygon id="Fill-14" fill="#775C3B" points="169.324292 127.53559 216.4296 127.53559 213.792359 140.789241 166.700088 140.789241"></polygon>
            <polygon id="Fill-15" fill="#775C3B" points="357.137117 127.53559 310.031809 127.53559 312.667188 140.789241 359.761321 140.789241"></polygon>
            <polygon id="Fill-19" fill="#D4B590" points="18.0450662 534.850517 503.856478 534.850517 503.856478 495.573967 18.0450662 495.573967"></polygon>
            <polygon id="Fill-20" fill="#775C3B" points="18.0450662 504.739478 503.856478 504.739478 503.856478 495.575605 18.0450662 495.575605"></polygon>
            <path d="M40.4259505,516.239041 C39.8591467,519.615291 36.6630945,521.892335 33.2884827,521.325531 C29.9122327,520.758727 27.6351888,517.562675 28.2019925,514.186425 C28.7687962,510.811813 31.9648485,508.534769 35.3394603,509.101573 C38.7157103,509.668377 40.9927542,512.864429 40.4259505,516.239041" id="Fill-21" fill="#775C3B"></path>
            <path d="M493.698405,516.239041 C493.131601,519.615291 489.935549,521.892335 486.560937,521.325531 C483.184687,520.758727 480.907643,517.562675 481.474447,514.186425 C482.041251,510.811813 485.237303,508.534769 488.611915,509.101573 C491.988165,509.668377 494.265209,512.864429 493.698405,516.239041" id="Fill-22" fill="#775C3B"></path>
            <polygon id="Fill-23" fill="#775C3B" points="84.1601538 742.959512 74.8033163 787.644603 88.2855 787.613824 96.8434982 742.959512"></polygon>
            <polygon id="Fill-24" fill="#775C3B" points="441.434329 742.959512 451.303316 787.644603 437.308982 787.613824 428.750984 742.959512"></polygon>
            <polygon id="Fill-25" fill="#775C3B" points="81.9027124 534.850517 128.803316 534.644603 125.803316 548.644603 78.8033163 548.644603"></polygon>
            <polygon id="Fill-26" fill="#775C3B" points="443.303316 534.644603 396.803316 534.644603 399.803316 548.644603 446.303316 548.644603"></polygon>
            <polygon id="Fill-28" fill="#775C3B" points="177.342007 89.8452954 224.482702 89.8452954 226.212926 81.1426255 179.064781 81.1426255"></polygon>
            <polygon id="Fill-29" fill="#775C3B" points="348.206531 89.8452954 301.065836 89.8452954 299.335612 81.1426255 346.483756 81.1426255"></polygon>
            <polygon id="Fill-31" fill="#BA8343" points="53.5964379 495.575605 467.997132 495.575605 467.997132 478.756605 53.5964379 478.756605"></polygon>
        </g>
    </g>
</svg>