<svg id="eye" xmlns="http://www.w3.org/2000/svg" viewBox="0 0 300 300">
    <g id="eye_3">
        <path fill="#f7f7f7"
              stroke-width="0" d="M125.64 162.76c-.26-.79-.65-.44-1.08-1.39-.19-.43-.29-1.02-.58-1.57-.24-.45-.75-.8-1.07-1.31-.28-.45-.27-1.13-.61-1.6-.32-.44-.78-.8-1.15-1.23s-.9-.66-1.3-1.06-.64-.93-1.08-1.29-.82-.77-1.29-1.09-.89-.71-1.39-.97-1.28.17-1.81-.03-.98-.42-1.53-.56-1.01-.42-1.58-.5-1.07-.32-1.64-.34c-.54-.02-1.13-.39-1.7-.35-.54.03-1.01.87-1.58.95-.53.08-1.16-.28-1.72-.15s-.99.77-1.53.93c-.57.17-1.24-.08-1.77.11-.55.2-.9.84-1.42 1.07-.54.24-1.43-.27-1.92 0s-.64 1.21-1.12 1.51-1.24.25-1.68.6-1.04.61-1.45.99-.65 1.02-1.02 1.44-.5 1.07-.83 1.53-1.13.66-1.41 1.16.23 1.39 0 1.92-.5 1-.67 1.54-.94.93-1.06 1.49-.36 1.13-.44 1.7.67 1.21.65 1.78.03 1.11.06 1.69-.25 1.15-.18 1.72.09 1.14.2 1.7-.03 1.19.12 1.74.64 1.01.83 1.55.32 1.07.57 1.56.68.88 1 1.33.28 1.22.67 1.63.8.83 1.23 1.19 1.21.25 1.67.56.99.46 1.48.73.98.45 1.5.66.95.57 1.48.75 1.03.39 1.58.52 1.09.19 1.64.29 1.07.34 1.62.4 1.12-.09 1.68-.06 1.12.59 1.67.58 1.07-.85 1.62-.9 1.2.61 1.74.52.97-.87 1.5-1 1.23.24 1.75.06c.54-.19.86-.85 1.35-1.08.52-.25 1.02-.49 1.52-.78s1.27-.16 1.74-.49.69-1.01 1.13-1.38 1.28-.33 1.69-.74.8-.89 1.17-1.33.41-1.15.73-1.64.28-1.15.55-1.66 1.19-.72 1.41-1.26-.17-1.28-.02-1.84.09-1.12.18-1.7.84-1.06.86-1.65-.34-1.15-.38-1.74-.41-1.08-.5-1.67.5-1.27.36-1.84-.24-1.15-.43-1.71ZM174.93 162.95c.26-.79.28-.54.7-1.49.19-.43.51-.88.81-1.44.24-.45.23-1.09.55-1.59.28-.45.45-1.01.79-1.48.32-.44.68-.87 1.05-1.31s.52-1.05.92-1.45.89-.71 1.33-1.07.81-.83 1.29-1.14.97-.63 1.48-.89 1.36.32 1.89.12.86-.9 1.41-1.05 1.1-.2 1.66-.28 1.1-.36 1.67-.38c.54-.02 1.08.8 1.66.83.54.03 1.15-.54 1.72-.46.53.08.98.7 1.54.83s1.07.4 1.61.56c.57.17 1.19.03 1.72.22.55.2 1.03.51 1.54.74.54.24 1.19.19 1.69.45s.89.76 1.37 1.07 1.15.38 1.6.73.68.98 1.09 1.37.81.81 1.18 1.23c.38.44 1.23.53 1.55.99s-.16 1.46.12 1.96 1.05.74 1.27 1.27.48 1.06.66 1.6.41 1.1.53 1.66.26 1.14.33 1.71.08 1.17.1 1.74-.63 1.14-.65 1.71.28 1.15.21 1.72-.27 1.11-.38 1.67-.51 1.03-.66 1.59.62 1.4.43 1.94-1.05.79-1.3 1.28-.46 1.01-.78 1.46-.79.76-1.17 1.17-.78.75-1.21 1.11-.9.59-1.37.9-.79.8-1.29 1.06-1.07.3-1.58.51-.87.81-1.41.98-1.11.16-1.66.3-1 .7-1.55.79-1.18-.34-1.74-.28-1.1.29-1.65.31-1.13.19-1.68.18-1.12-.18-1.67-.23-1.1-.25-1.64-.34-1.05-.41-1.58-.54-1.13-.09-1.64-.27c-.54-.19-1.16-.16-1.65-.4-.52-.25-.94-.71-1.44-1s-.73-.97-1.21-1.3-1.43-.02-1.88-.39-.53-1.15-.94-1.56-1.02-.63-1.39-1.08-.57-1.02-.89-1.5-.48-1.04-.75-1.56-.99-.83-1.2-1.37-.27-1.15-.42-1.72-.25-1.14-.34-1.72.12-1.17.1-1.76-.38-1.16-.35-1.75.21-1.15.31-1.73.78-.99.92-1.57.07-1.15.26-1.71Z"/>
    </g>
</svg>
