<?xml version="1.0" encoding="UTF-8"?>
<svg id="eye" xmlns="http://www.w3.org/2000/svg" viewBox="0 0 300 300">
  <g id="eye_4">
    <path d="m106.27,173.88c.59-.27,1.01-1.07,1.7-1.49.58-.36,1.53-.29,2.15-.74.57-.41.57-1.62,1.16-2.09.56-.45,1.24-.74,1.8-1.23s1.25-.78,1.78-1.29.85-1.21,1.34-1.74.97-1.09,1.43-1.64c.48-.58,1.01-1.07,1.42-1.65.44-.62,1.06-1.1,1.39-1.7.38-.69.18-1.53.39-2.17.25-.77,1.05-1.35,1-2.01-.06-.75-.63-1.31-1.15-1.87-.41-.44-.88-1.16-1.74-1.43-.62-.2-1.47.11-2.29,0-.68-.1-1.42.05-2.21,0-.7-.04-1.43-.65-2.2-.64-.72,0-1.45.28-2.22.32-.72.04-1.49-.25-2.24-.18s-1.48.08-2.23.18-1.44.42-2.18.54-1.41.54-2.14.68c-.73.15-1.51.05-2.23.22s-1.35.74-2.05.93-1.46.32-2.15.55-1.4.52-2.07.78c-.71.28-1.52.26-2.17.57-.7.33-1.2.95-1.81,1.31-.67.4-1.2.88-1.74,1.32-.59.48-1.2.84-1.69,1.3-.56.53-1.27.84-1.69,1.35-.49.61-.71,1.33-.99,1.91-.34.7-.6,1.34-.65,2.01-.05.71-.19,1.49.07,2.18.23.62.76,1.19,1.24,1.8.4.52,1.1.82,1.67,1.35.49.45.85,1.11,1.46,1.57.54.4,1.42.37,2.04.79.67.44,1.07,1.26,1.77,1.57s1.38.95,2.14,1.13,1.65-.46,2.44-.41,1.52.32,2.32.25c.75-.07,1.56,0,2.35-.16.74-.16,1.51-.36,2.28-.6.72-.23,1.3-.91,2.05-1.21.7-.28,1.68,0,2.41-.34Z" style="fill: #fff; stroke-width: 0px;"/>
    <path d="m121.82,152.26c-.54-1.16-.78-.87-2.29-1.48-.67-.27-1.66-.04-2.63-.27-.75-.18-1.55-.56-2.49-.66-.79-.08-1.65,0-2.57,0-.8,0-1.7-.41-2.6-.33-.81.08-1.59.72-2.48.88-.8.14-1.57.55-2.45.77s-1.9-.21-2.76.02-1.65.74-2.51.99-1.75.41-2.6.68c-.86.27-1.81.31-2.64.61-.85.31-1.7.66-2.51,1s-1.39,1.3-2.16,1.7c-.81.42-1.67.69-2.4,1.16-.77.5-1.43,1.09-2.08,1.65-.69.6-1.59.98-2.14,1.67s-.98,1.54-1.36,2.35-.9,1.63-1.07,2.53c-.16.84.39,1.8.42,2.74-.03,1.04-.01,1.05.26,1.94.22.7.42,1.55,1.29,1.26,1.12-.37,1.37-1.25,1.58-2.17.17-.72.61-1.56.76-2.66.09-.66.05-1.65.7-2.55.48-.66,1.25-1.22,1.95-1.89.63-.6,1.24-1.3,1.98-1.84s1.6-.87,2.39-1.26c.84-.42,1.59-1.1,2.43-1.29.71-.16,1.6-.09,2.51-.4.75-.25,1.59-.43,2.43-.74.77-.28,1.58-.54,2.4-.83s1.57-.64,2.38-.9,1.61-.56,2.42-.78,1.61-.75,2.42-.9c.87-.16,1.77.06,2.58.02.89-.04,1.78-.17,2.57-.02.93.19,1.68.87,2.46,1.08.97.26,1.99-.13,2.72.05,1.21.3,1.79.52,2.29.15.47-.34.98-.92.79-2.32Z" style="fill: #003882; stroke-width: 0px;"/>
    <path d="m99.25,153.78c-.95.79-.72.76-1.28,2.17-.26.66-.37,1.51-.54,2.44-.13.74-.01,1.57,0,2.47,0,.77.02,1.57.18,2.44.14.76.1,1.62.37,2.46.31.95.8,1.74,1.3,2.36.6.74,1.34,1.29,2.12,1.66s1.72.54,2.61.61,1.81,0,2.68-.14c.93-.15,1.85-.32,2.62-.6,1.08-.39,2.02-.82,2.45-1.18.45-.37,1.24-.85,2.15-1.52.64-.47,1.15-1.24,1.82-1.93.57-.59,1.36-1.11,1.86-1.91.44-.7.67-1.59.97-2.48.27-.78.33-1.65.45-2.59.11-.81.24-1.67.21-2.62-.03-.82-.18-1.63-.33-2.57-.71-1.07-.75-.53-2.26-1.05-.69-.24-1.49-.56-2.46-.74-.77-.14-1.62-.34-2.55-.38-.8-.04-1.65.21-2.56.28-.81.07-1.66.07-2.55.25-.8.16-1.63.35-2.49.62-.78.25-1.66.37-2.49.72-.76.32-1.51.8-2.3,1.22Z" style="fill: #003882; stroke-width: 0px;"/>
    <path d="m194.51,173.23c-.59-.27-1.46-.19-2.14-.62-.58-.36-.86-1.25-1.49-1.7-.57-.41-1.74-.09-2.33-.56-.56-.45-.99-1.1-1.55-1.59s-.91-1.17-1.44-1.68-1.24-.85-1.74-1.38-1.02-1.09-1.48-1.64c-.48-.58-.86-1.24-1.27-1.82-.44-.62-.63-1.39-.96-2-.38-.69-1.19-1.18-1.4-1.82-.25-.77.31-1.63.36-2.29.06-.75.02-1.52.54-2.07.41-.44,1.25-.42,2.11-.7.62-.2,1.24-.83,2.05-.95.68-.1,1.43-.39,2.21-.43.7-.04,1.47.53,2.24.54.72,0,1.46-.23,2.23-.19.72.04,1.43.43,2.19.5s1.45.22,2.19.31,1.49-.01,2.22.11,1.51-.03,2.24.11,1.4.56,2.12.73,1.55-.02,2.26.18,1.42.52,2.11.75,1.44.46,2.12.73c.71.28,1.26.88,1.91,1.19.7.33,1.5.41,2.11.77.67.4,1.36.76,1.91,1.2.59.48,1.06,1.06,1.55,1.52.56.53.82,1.26,1.24,1.77.49.61,1.06,1.08,1.35,1.66.34.7.48,1.41.53,2.07.05.71-.29,1.32-.56,2.01-.23.62-.42,1.27-.9,1.88-.4.52-.68,1.25-1.24,1.77-.49.45-1.22.7-1.83,1.15-.54.4-.83,1.25-1.46,1.67-.67.44-1.64.37-2.34.68s-1.54.18-2.3.36c-.75.18-1.4,1.05-2.19,1.09s-1.56-.25-2.36-.32c-.75-.07-1.49-.37-2.28-.54-.74-.16-1.48-.35-2.25-.59-.72-.23-1.61-.06-2.37-.36-.7-.28-1.16-1.19-1.9-1.53Z" style="fill: #fff; stroke-width: 0px;"/>
    <path d="m178.61,152.24c.54-1.16.83-.87,2.34-1.49.67-.27,1.71.15,2.68-.08.75-.18,1.56-.27,2.49-.38.79-.08,1.6-.72,2.53-.72.8,0,1.64.49,2.54.58.81.08,1.73-.33,2.62-.17.8.14,1.62.5,2.49.72s1.74.38,2.61.61,1.66.71,2.52.95,1.71.54,2.55.81,1.79.32,2.62.62,1.7.62,2.51.97,1.68.69,2.46,1.09c.81.42,1.63.84,2.36,1.31.77.5,1.22,1.39,1.87,1.96.69.6,1.67.91,2.21,1.6s.92,1.58,1.3,2.39.3,1.74.48,2.64c.16.84.57,1.68.54,2.62.03,1.04.08,1.18-.2,2.08-.22.7-.71,1.07-1.58.78-1.12-.37-1.87-.8-2.09-1.73-.17-.72.45-1.74.31-2.84-.09-.66-.91-1.43-1.56-2.33-.48-.66-1.05-1.37-1.74-2.04-.63-.6-1.09-1.52-1.83-2.05s-1.81-.55-2.6-.94c-.84-.42-1.58-1.05-2.41-1.24-.71-.16-1.48-.49-2.39-.8-.75-.25-1.75.03-2.6-.27-.77-.28-1.4-1.06-2.22-1.35s-1.78,0-2.59-.27-1.6-.55-2.41-.77-1.53-1.02-2.35-1.17c-.87-.16-1.76.06-2.58.02-.89-.04-1.78-.2-2.56-.05-.93.19-1.78.5-2.56.71-.97.26-1.82.52-2.55.71-1.21.3-1.93.3-2.42-.06-.47-.34-.98-1.03-.79-2.43Z" style="fill: #003882; stroke-width: 0px;"/>
    <path d="m214.93,159.55c.76.98.39.98.64,2.47.11.7-.03,1.54-.07,2.48-.03.75-.23,1.53-.44,2.41-.17.75-.19,1.59-.53,2.41-.29.71-.59,1.5-1.04,2.26-.51.86-1.24,1.41-1.86,1.91-.74.59-1.47,1.16-2.31,1.34s-1.8.08-2.69-.05-1.82-.23-2.63-.55c-.87-.35-1.56-1.03-2.25-1.47-.97-.62-1.74-1.18-2.09-1.62-.37-.46-.91-1.21-1.66-2.06-.52-.59-1.07-1.25-1.58-2.07-.44-.7-1.03-1.38-1.35-2.26-.28-.78-.34-1.66-.45-2.59-.1-.82-.29-1.69-.21-2.63.07-.82.44-1.63.68-2.55.2-.8.23-1.76.57-2.64.92-.89.98-.43,2.57-.62.72-.08,1.6.2,2.57.23.78.03,1.67-.24,2.59-.09.79.14,1.6.51,2.47.78.77.24,1.49.73,2.32,1.1.75.33,1.6.51,2.38.96.71.41,1.31,1.04,2.04,1.56.67.47,1.63.7,2.32,1.28Z" style="fill: #003882; stroke-width: 0px;"/>
  </g>
</svg>