<?xml version="1.0" encoding="UTF-8"?>
<svg id="eye" xmlns="http://www.w3.org/2000/svg" viewBox="0 0 300 300">
  <g id="eye_13">
    <path d="m108.03,181.71c-.65,0-1.38.16-2.02,0-1-.26-1.99-.81-2.74-1.48s-1.22-1.61-1.68-2.58c-.53-1.11-.92-2.14-.95-3.03-.04-1.26.5-2.3.9-3.04.4-.73.93-1.41,1.56-1.97s1.65-.98,2.38-1.38c-.82-.54-1.98-1-2.62-1.7-.67-.73-.94-1.74-1.37-2.57-.46-.88-.83-1.75-.98-2.66-.17-.98-.24-1.9-.06-2.77.19-.93.55-1.8,1.09-2.57s1.25-1.32,2.07-1.86c.74-.49,1.53-1.03,2.48-1.31.99-.29,1.97-.42,2.85-.37,1,.05,1.88.51,2.72.85.93.38,1.85.72,2.54,1.28.87.7,1.67,1.4,2.08,2.01.61.92.05,2.1-.87,2.71-.92.61-2.11.61-2.72-.3-.07-.1-.96-1.19-2.44-1.84-.85-.38-1.84-.85-3.05-.5-1.04.3-1.68.94-2.17,1.54-.56.68-.95,1.47-.78,2.49.14.79.45,1.67.97,2.4.47.67,1.06,1.41,1.79,1.91.68.47,1.57.78,2.41,1.03.79.23,1.69.28,2.58.23,1.04-.08,2.24.62,2.34,1.69.1,1.07-.88,2.28-1.94,2.42-.76.11-1.68.28-2.64.58-.88.27-1.85.38-2.62.79-.92.49-1.43,1.24-1.8,1.92-.22.41-.64.96-.03,2.24.59,1.23,1.33,1.38,1.84,1.52.73.19,1.51.24,2.37.03.8-.19,1.73-.2,2.45-.53.94-.44,1.64-1.12,2.05-1.41.9-.63,2.23-.51,2.87.39.63.9.15,1.99-.75,2.62-.23.16-1.04,1.04-2.41,1.7-.81.39-1.72.88-2.74,1.16-.94.26-1.96.36-2.96.36Z" style="fill: #003882; stroke-width: 0px;"/>
    <path d="m182.19,181.86c-.65,0-1.25-.45-1.9-.62-1-.26-2.06-.4-2.82-1.07s-1.01-1.68-1.47-2.65c-.53-1.11-1.06-2.03-1.08-2.91-.04-1.26.46-2.26.85-2.99.4-.73.95-1.34,1.58-1.9s1.19-1.06,1.92-1.45c-.82-.54-1.31-1.33-1.94-2.02-.67-.73-1.4-1.37-1.83-2.2-.46-.88-.66-1.83-.81-2.74-.17-.98-.24-1.89-.06-2.76.19-.93.34-1.93.88-2.7s1.5-1.09,2.32-1.63c.74-.49,1.5-1,2.45-1.28.99-.29,1.94-.71,2.82-.67,1,.05,1.88.67,2.72,1.01.93.38,1.89.68,2.58,1.23.87.7,1.42,1.59,1.83,2.21.61.92.27,1.98-.65,2.59-.92.61-1.97.49-2.58-.42-.07-.1-1.13-1.05-2.61-1.7-.85-.38-1.85-.99-3.06-.64-1.04.3-1.78.93-2.27,1.53-.56.68-.54,1.53-.37,2.55.14.79.5,1.48,1.02,2.21.47.67.77,1.59,1.49,2.1.68.47,1.58.65,2.42.9.79.23,1.64.4,2.52.36,1.04-.08,2.06.7,2.16,1.76.1,1.07-.7,2.21-1.76,2.35-.76.11-1.76.04-2.73.33-.88.27-1.78.64-2.55,1.05-.92.49-1.4,1.28-1.77,1.96-.22.41-.52.89.09,2.17.59,1.23,1.08,1.89,1.59,2.03.73.19,1.61-.31,2.47-.52.8-.19,1.55-.55,2.26-.88.94-.44,1.89-.61,2.3-.9.9-.63,2.32-.66,2.95.25.63.9.24,2.38-.66,3.01-.23.16-1.24.77-2.6,1.43-.81.39-1.74.86-2.75,1.14-.94.26-1.96.5-2.96.5Z" style="fill: #003882; stroke-width: 0px;"/>
  </g>
</svg>