<?xml version="1.0" encoding="UTF-8"?>
<svg id="eye" xmlns="http://www.w3.org/2000/svg" viewBox="0 0 300 300">
  <g id="eye_8">
    <path d="m129.04,159.27c-.39-.32-.93-1.29-2.15-1.63-.74-.21-1.78.25-2.77.05-.81-.16-1.59-.88-2.53-1.03-.84-.13-1.81.37-2.74.25-.86-.11-1.73-.32-2.64-.41-.87-.08-1.75-.26-2.65-.32s-1.76-.34-2.66-.38-1.79,0-2.69,0-1.79.17-2.68.18-1.79.02-2.68.08-1.83-.16-2.71-.07c-1.51.25-2.6.66-2.26,2.1.16.68,1.79,1.13,3.18,1.19,1.58.07,1.6-.51,3.19-.63,1.27-.09,1.02.57,2.57.54.74-.02,1.6,0,2.54-.01.8,0,1.65-.62,2.54-.62.83,0,1.69.12,2.55.14s1.71-.01,2.55.02,1.72.32,2.53.38c.91.07,1.81-.19,2.58-.09.99.13,1.57.86,2.21,1.06.79.67,1.01.63-.99.63-.34,0-1.31.24-2.71.27-.78.02-1.7-.3-2.72-.28-.84.02-1.75.05-2.71.07-.87.03-1.77.35-2.7.37s-1.81-.31-2.72-.28-1.79.55-2.7.58-1.84-.49-2.74-.45-1.82.71-2.69.75c-.95.04-1.89-.57-2.74-.53-1,.05-1.9.53-2.69.58-1.25.07-2.22-.16-2.73-.1-1.56.15-2.8.51-2.46,1.95.15.66,1.53.95,2.68,1.08,1.36.15,1.39-.04,2.79-.12,1.3-.07,1.3-.04,2.6-.11,1.3-.07,1.29-.24,2.59-.31,1.3-.07,1.33.43,2.63.35s1.31.09,2.61.01,1.28-.38,2.58-.45,1.3-.02,2.6-.1c1.3-.07,1.28-.4,2.58-.48,1.3-.07,1.31.13,2.61.05s1.28-.39,2.59-.47c1.3-.07,1.31.11,2.62.03,1.3-.07,1.29-.33,2.59-.4,0,0,.17,1.27-1.27,2.11-.29.17-1.35.12-2.74.38-.78.15-1.68.37-2.68.54-.85.14-1.77.23-2.7.38-.88.14-1.73.67-2.64.82s-1.79.43-2.67.58c-.94.16-1.85.29-2.7.44-1,.18-2.03-.28-2.81-.11-1.4.3-2.03,1.17-2.26,1.4-.73.73-1.29,1.01-.48,1.39.42.2,1,.37,2.2.25.52-.05,1.4-.03,2.54-.18.74-.1,1.55-.46,2.48-.61.79-.12,1.7.13,2.58-.02.81-.14,1.58-.66,2.43-.83s1.66-.29,2.5-.48,1.71-.18,2.53-.39c.84-.21,1.56-.76,2.36-1,.84-.25,1.84.07,2.61-.21.84-.31,1.52-.92,2.24-1.27.85-.4,1.73-.62,2.34-1.06.81-.6,1.29-1.38,1.54-2.05.37-.99.64-1.06.26-2.18-.18-.55-1.05-.79-1.73-1.34Z" style="fill: #003882; stroke-width: 0px;"/>
    <path d="m168.23,158.73c.39-.32,1.44-.52,2.66-.86.74-.21,1.63-.42,2.62-.62.81-.16,1.7-.32,2.64-.47.84-.13,1.71-.45,2.63-.57.86-.11,1.81.34,2.72.25s1.73-.48,2.64-.54,1.79.17,2.69.13,1.78.09,2.68.08,1.79-.49,2.68-.47,1.8.11,2.68.16,1.73.59,2.61.68c1.51.25,2.04,0,1.7,1.44-.16.68-1.17.65-2.56.71-1.58.07-1.59.44-3.19.32-1.27-.09-.98-.28-2.53-.31-.74-.02-1.6-.11-2.55-.12-.8,0-1.66.22-2.54.22-.83,0-1.69-.09-2.55-.07s-1.69.51-2.53.54-1.77-.64-2.59-.58c-.91.07-1.75.39-2.52.49-.99.13-1.6.7-2.24.91-.79.67-1,.59,1,.59.34,0,1.3.48,2.7.52.78.02,1.7.03,2.71.05.84.02,1.76-.06,2.71-.04.87.03,1.79-.5,2.72-.47s1.78.48,2.7.51c.9.03,1.82-.12,2.72-.08s1.82.09,2.71.12,1.84.12,2.71.16c.95.04,1.85.35,2.7.39,1,.05,1.93-.15,2.72-.11,1.25.07,2.22-.18,2.73-.12,1.56.15,2.63.56,2.3,2-.15.66-1.36,1.06-2.52,1.19-1.36.15-1.39-.2-2.79-.28-1.3-.07-1.32.32-2.62.25-1.3-.07-1.29-.28-2.59-.35-1.3-.07-1.31.13-2.61.06-1.3-.07-1.31.09-2.61.01s-1.26-.79-2.56-.86c-1.3-.07-1.34.61-2.64.54s-1.27-.64-2.57-.71-1.34.56-2.64.49-1.3-.19-2.6-.26-1.3-.18-2.6-.25-1.29-.3-2.59-.38c0,0-.1.88,1.34,1.71.29.17,1.3.22,2.68.48.78.15,1.69.34,2.68.5.85.14,1.71.57,2.65.73.88.14,1.77.44,2.67.59s1.82.28,2.7.43c.94.16,1.94-.22,2.79-.07,1,.18,1.79.96,2.56,1.13,1.4.3,2.17.51,2.39.73.73.73,1.54,1.51.73,1.89-.42.2-1.27.18-2.47.07-.52-.05-1.41-.1-2.54-.25-.74-.1-1.56-.46-2.49-.6-.79-.12-1.69.08-2.57-.07-.81-.14-1.53-.93-2.38-1.1-.82-.16-1.71-.08-2.54-.27s-1.71-.17-2.53-.38-1.57-.77-2.37-1.01c-.84-.25-1.64-.52-2.41-.8-.84-.31-1.74-.36-2.46-.7-.85-.4-1.38-1.13-1.99-1.58-.81-.6-1.73-.92-1.99-1.6-.37-.99.16-.9.53-2.02.18-.55-.03-1.55.64-2.1Z" style="fill: #003882; stroke-width: 0px;"/>
  </g>
</svg>