<?xml version="1.0" encoding="UTF-8"?>
<svg id="eye" xmlns="http://www.w3.org/2000/svg" viewBox="0 0 300 300">
  <g id="eye_5">
    <path d="m130.64,165.45c.04-1.31-.25-1.02-.57-2.55-.16-.74-.16-1.65-.55-2.55-.32-.74-.6-1.62-1.14-2.39-.47-.67-1.31-1.11-1.99-1.74-.6-.55-1-1.52-1.79-2.01-.7-.42-1.83-.1-2.7-.45-.76-.3-1.36-1.26-2.27-1.49-.8-.2-1.7-.26-2.62-.39-.82-.11-1.7-.26-2.63-.3-.83-.04-1.71.34-2.63.37-.84.02-1.72-.19-2.64-.11-.88.08-1.7.49-2.51.61-.88.13-1.67.46-2.47.63-.87.19-1.88-.28-2.66-.04-.86.26-1.53.96-2.28,1.27-.83.34-1.53.82-2.24,1.21-.79.43-1.85.36-2.51.83-.73.52-1.42,1.12-2,1.68-.65.62-.79,1.67-1.28,2.31-.55.72-.87,1.48-1.24,2.19-.43.82-.84,1.53-1.07,2.28-.28.94-.35,1.76-.39,2.46-.04.79-.5,1.68-.35,2.57.13.8.32,1.72.73,2.53.36.71,1.26,1.12,1.91,1.79.54.56,1.26.9,2.05,1.41.66.42,1.16,1.22,2.02,1.59.72.31,1.53.59,2.42.85.76.23,1.54.68,2.44.86.79.16,1.72-.24,2.62-.11.8.11,1.63.27,2.52.35.81.07,1.64.39,2.54.44.82.04,1.68-.08,2.57-.07.82.01,1.68.28,2.57.27.75,0,1.59-.65,2.55-.73.81-.07,1.66-.08,2.56-.23.83-.14,1.7-.11,2.56-.35s1.54-.72,2.34-1.06,1.58-.6,2.31-1.07,1.56-.77,2.19-1.39,1.12-1.3,1.59-2.05c.44-.7.49-1.6.8-2.45.27-.77.69-1.51.83-2.42.12-.81.41-1.65.41-2.57Z" style="fill: #fff; stroke-width: 0px;"/>
    <path d="m128.25,158.11c.57-1.14.29-1.13.01-2.59-.14-.74-.58-1.55-.92-2.41-.3-.75-.54-1.64-1.06-2.36-.47-.66-1.17-1.25-1.87-1.8-.63-.49-1.56-.51-2.41-.85-.73-.29-1.43-.74-2.35-.87-.81-.12-1.7.1-2.63.05-.84-.05-1.7-.26-2.61-.26-.85,0-1.72.14-2.61.19s-1.78-.42-2.66-.35c-.87.08-1.75.22-2.62.33s-1.73.39-2.59.53-1.8.08-2.64.25c-.89.18-1.62.93-2.44,1.13-.9.22-1.78.32-2.56.57-.93.3-1.86.33-2.56.66-1.02.47-1.57,1.18-1.95,1.68-1.21,1.46-2.25,2.48,1.07,1.93.53-.09,1.35-.73,2.54-1.13.76-.25,1.6-.7,2.57-1.01.82-.26,1.85-.06,2.79-.33.85-.24,1.66-.78,2.59-1,.87-.21,1.82-.23,2.74-.41s1.79-.45,2.71-.57,1.83-.38,2.75-.42,1.84.59,2.76.63,1.87-.26,2.77-.11,1.84.32,2.7.6,1.57.97,2.38,1.41,1.8.64,2.52,1.24c.65.85.49,1.43-1.62.32-1.19-.56-.83-.65-2.43-1-.73-.16-1.69.19-2.67.04-.8-.12-1.65-.23-2.58-.31-.83-.07-1.67-.67-2.58-.69-.84-.02-1.74-.08-2.64-.04-.85.04-1.69.62-2.58.72-.85.1-1.68.34-2.56.51s-1.8-.11-2.66.13-1.73.36-2.56.67-1.4,1.15-2.21,1.53-1.68.52-2.45.97-1.23,1.26-1.95,1.78c-.98.71-.84.46-1.85,1.47-.51.51-1,1.12-1.54,1.81-.47.62-.95,1.23-1.33,1.96-.37.71-.69,1.4-.88,2.18s-.25,1.49-.17,2.31c.23,1.46.16,2.15,1.91,1.15.53-.3,1.01-1.01,1.39-2,.26-.67.38-1.51.74-2.33.31-.71.44-1.6.92-2.31.43-.65,1.27-1.03,1.9-1.61.56-.52,1.3-.77,2.07-1.19.7-.38,1.34-1.01,2.16-1.42.73-.37,1.61-.48,2.45-.83.76-.32,1.38-1.08,2.23-1.37.79-.26,1.69-.23,2.56-.43.81-.19,1.64-.35,2.52-.46.83-.11,1.67-.25,2.56-.28.83-.03,1.71-.43,2.6-.38.83.05,1.69.3,2.57.43.82.13,1.6.62,2.47.82.81.19,1.69.21,2.55.48.8.25,1.58.62,2.41.94,1.15.6.97.97,2.16,1.49.93.4,2.08.39,2.66.22Z" style="fill: #003882; stroke-width: 0px;"/>
    <path d="m123.65,165.73c0,.97-.1,1.93-.31,2.84s-.39,1.92-.8,2.77-1.27,1.46-1.86,2.19-.99,1.7-1.74,2.29-1.71.87-2.57,1.28-1.72.77-2.66.99-1.85.48-2.82.48-1.97-.03-2.88-.24-1.75-.83-2.6-1.24-1.69-.87-2.43-1.46-1.61-1.11-2.2-1.85-.77-1.76-1.18-2.62-.76-1.7-.97-2.64c-.21-.91-.51-1.83-.51-2.8s.29-1.89.49-2.8c.21-.94.49-1.83.9-2.67s.92-1.65,1.51-2.39c.59-.74,1.24-1.42,1.98-2.01s1.6-.96,2.46-1.38,1.71-.69,2.65-.9,1.81-.72,2.78-.72,1.91.35,2.81.55,1.88.42,2.72.83,1.63,1,2.37,1.59,1.45,1.24,2.04,1.98,1.16,1.52,1.58,2.38.71,1.77.92,2.71.31,1.87.31,2.84Z" style="fill: #003882; stroke-width: 0px;"/>
    <path d="m169.47,165.45c-.04-1.31-.35-1.12-.03-2.65.16-.74.86-1.46,1.24-2.36.32-.74.75-1.46,1.29-2.22.47-.67.95-1.36,1.63-1.99.6-.55,1.15-1.27,1.95-1.76.7-.42,1.68-.34,2.55-.69.76-.3,1.53-.59,2.43-.81.8-.2,1.62-.31,2.54-.43.82-.11,1.63-.75,2.55-.79.83-.04,1.7.3,2.62.33.84.02,1.69.15,2.6.23s1.73.09,2.54.21c.88.13,1.67.42,2.48.59.87.19,1.84-.16,2.62.08.86.26,1.71.47,2.47.78.83.34,1.34,1.25,2.06,1.64.79.43,1.47.87,2.13,1.35.73.52,1.71.67,2.29,1.23.65.62.75,1.66,1.24,2.3.55.72,1.57,1.08,1.94,1.79.43.82.17,1.85.4,2.59.28.94.52,1.71.56,2.42.04.79-.06,1.59-.22,2.49-.13.8.16,1.78-.24,2.59-.36.71-1.35,1.02-2,1.69-.54.56-.78,1.58-1.57,2.09-.66.42-1.48.76-2.34,1.13-.72.31-1.53.64-2.41.9-.76.23-1.61.43-2.5.62-.79.16-1.64.32-2.53.45-.8.11-1.68-.03-2.57.05-.81.07-1.68-.25-2.57-.21-.82.04-1.65.62-2.54.63-.82.01-1.68-.08-2.57-.09-.75,0-1.6-.45-2.56-.53-.81-.07-1.72.26-2.62.11-.83-.14-1.73-.18-2.58-.42s-1.44-1.07-2.24-1.42-1.86-.15-2.6-.62-1.43-1.05-2.05-1.67-1.32-1.22-1.79-1.97c-.44-.7-.45-1.7-.76-2.56-.27-.77-.5-1.6-.64-2.51-.12-.81-.2-1.66-.2-2.59Z" style="fill: #fff; stroke-width: 0px;"/>
    <path d="m171.6,158.18c-.57-1.14.38-1.1.65-2.57.14-.74.2-1.59.54-2.45.3-.75.59-1.56,1.1-2.28.47-.66,1.17-1.15,1.87-1.7.63-.49,1.28-1,2.12-1.34.73-.29,1.56-.31,2.48-.45.81-.12,1.65-.6,2.57-.65.84-.05,1.73-.29,2.64-.29.85,0,1.73.45,2.62.49s1.75.01,2.63.09,1.79-.16,2.66-.05,1.71.54,2.57.68,1.69.63,2.53.8c.89.18,1.86-.11,2.67.1.9.22,1.78.42,2.56.67.93.3,1.75.7,2.45,1.02,1.02.47,1.74,1.08,2.12,1.59,1.21,1.46,2.05,2.63-1.27,2.08-.53-.09-1.43-.47-2.63-.87-.76-.25-1.52-.94-2.49-1.26-.82-.26-1.75-.42-2.68-.69-.85-.24-1.72-.6-2.64-.83-.87-.21-1.92.23-2.84.05s-1.76-.52-2.68-.64c-.91-.12-1.84.09-2.76.04s-1.84-.64-2.75-.6-1.8.57-2.7.72-1.76.42-2.63.7-1.86.29-2.67.73c-.8.43-1.67.93-2.39,1.53-.65.85-.45,1.45,1.66.34,1.19-.56.95-.11,2.56-.46.73-.16,1.54-.55,2.52-.7.8-.12,1.67-.19,2.6-.28.83-.07,1.68-.5,2.6-.52.84-.02,1.73.03,2.64.07.85.04,1.76-.07,2.65.03.85.1,1.68.58,2.56.75s1.59.75,2.45.99c.83.23,1.7.3,2.54.61s1.5.83,2.31,1.21,1.82.26,2.58.71,1.27,1.22,2,1.74c.98.71.81.54,1.82,1.55.51.51,1.31.91,1.84,1.6.47.62.64,1.48,1.02,2.21s.49,1.46.68,2.25c.19.77.46,1.48.37,2.3-.23,1.46-.33,2.28-2.08,1.28-.53-.3-.75-1.23-1.13-2.21-.26-.67-.23-1.59-.59-2.41-.31-.71-1.12-1.23-1.59-1.94-.43-.65-.62-1.58-1.26-2.16-.56-.52-1.37-.89-2.14-1.31-.7-.38-1.5-.73-2.32-1.15-.73-.37-1.54-.69-2.37-1.05-.76-.32-1.47-.92-2.32-1.2-.79-.26-1.69-.3-2.56-.5-.81-.19-1.66-.44-2.54-.56-.83-.11-1.72.25-2.61.22-.83-.03-1.67.03-2.56.08-.83.05-1.7-.1-2.58.03-.82.13-1.65.38-2.51.59-.81.19-1.77-.02-2.63.25-.8.25-1.51.87-2.34,1.19-1.15.6-1.2.44-2.39.96-.93.4-1.98,1.04-2.56.87Z" style="fill: #003882; stroke-width: 0px;"/>
    <path d="m176.28,165.73c0,.97.1,1.95.3,2.86s.66,1.81,1.07,2.66.78,1.79,1.37,2.52c.59.74,1.28,1.47,2.02,2.07s1.74.81,2.6,1.23,1.72.74,2.65.95c.91.21,1.83.3,2.8.3s1.89-.12,2.8-.33c.94-.21,1.87-.4,2.71-.81s1.71-.87,2.45-1.46c.74-.59,1.21-1.46,1.8-2.2s1.18-1.45,1.6-2.31.99-1.66,1.2-2.6.08-1.89.08-2.87c0-.97-.21-1.88-.42-2.79s-.16-1.97-.57-2.82c-.41-.86-.95-1.71-1.54-2.45s-1.39-1.35-2.13-1.94c-.74-.59-1.71-.81-2.57-1.22s-1.67-.83-2.6-1.04c-.91-.21-1.83-.36-2.8-.36-.97,0-1.9.1-2.81.31s-1.78.63-2.62,1.03-1.85.64-2.58,1.23c-.74.59-1.31,1.4-1.9,2.14s-1.23,1.48-1.65,2.34-.83,1.76-1.04,2.69c-.21.91-.22,1.91-.22,2.88Z" style="fill: #003882; stroke-width: 0px;"/>
  </g>
</svg>