<svg xmlns="http://www.w3.org/2000/svg" viewBox="0 0 300 300">
    <g fill="#fff">
        <path d="M176.37 164.22c.23-.7-.66-.87-.28-1.71.17-.38.88-.62 1.14-1.11.21-.4 1.22-.36 1.5-.81.25-.4.45-.79.75-1.2.28-.38-.82-1.89-.49-2.28s1.03-.46 1.39-.82.87-.56 1.25-.88 1-.32 1.42-.6.84-.49 1.29-.72.95-.23 1.42-.4.84-.54 1.32-.67.87-.73 1.37-.8 1.03.29 1.54.28c.48-.02 1-.3 1.51-.27.48.03 1.03-.12 1.54-.04.47.07.9.61 1.4.73s.86.73 1.34.87c.5.15 1.08-.03 1.55.14.49.18.68 1.01 1.13 1.21s.98.24 1.42.47.95.34 1.37.61 1.51-.32 1.9-.01.15 1.43.51 1.77 1.37.13 1.7.51.16 1.21.44 1.62.89.67 1.13 1.1-.03 1.16.17 1.62 1.26.64 1.42 1.12.18 1.07.29 1.56-.36 1.12-.3 1.62-.39 1.03-.37 1.54-.52.95-.55 1.46 1.67 1.14 1.61 1.64-.3 1.03-.4 1.52-.22 1.03-.36 1.52-1.13.72-1.3 1.2-.25.93-.47 1.36-.61.73-.9 1.13-.88.45-1.22.81.15 1.55-.23 1.87-1.12.16-1.53.43-.45 1.2-.89 1.43-1.01.27-1.46.46-1.11-.14-1.58.01-.73 1.08-1.21 1.2-1.03.07-1.52.15-.95.66-1.44.72-1.11-1.37-1.6-1.35-.96.24-1.45.23-.98.02-1.46-.02-.91-.47-1.39-.55-1.08.44-1.55.32-.85-.6-1.3-.76c-.48-.17-1.21.3-1.64.1-.46-.22-1.02-.35-1.46-.6s-.78-.74-1.2-1.04-1.04-.39-1.43-.72c-.39-.33-.59-.94-.95-1.3s.11-1.45-.21-1.85-1.69 0-1.97-.43-.41-1-.65-1.45.33-1.26.14-1.74-.72-.8-.85-1.3.39-1.07.31-1.58-.79-.9-.81-1.42-.49-1.04-.46-1.56 1.04-.9 1.12-1.41-.56-1.13-.43-1.64.76-.83.93-1.32z"/>
        <path d="M126.69 164.04c-.23-.7-1-.19-1.37-1.03-.17-.38.11-1.05-.15-1.54-.21-.4.3-1.3.03-1.75-.25-.4-.6-.83-.9-1.24-.28-.38-1.99.35-2.32-.03s-.26-.99-.62-1.34-.55-.78-.94-1.1-.54-.89-.95-1.16-.81-.55-1.26-.78-.8-.62-1.27-.8-1-.1-1.49-.23-1.02.3-1.52.23-.89-.52-1.4-.54c-.48-.02-.94.28-1.45.31-.48.03-.9.28-1.4.36-.47.07-1.01-.28-1.51-.17s-1.13-.24-1.61-.1c-.5.15-.89.64-1.35.81-.49.18-1.25-.28-1.7-.07s-.89.63-1.33.86-.84.66-1.26.93-.19 1.47-.58 1.78-1.44-.14-1.8.2c-.37.35-.08 1.32-.4 1.69s-1.14.36-1.43.77-.24 1.03-.48 1.47-.98.64-1.18 1.11.51 1.25.35 1.73-.39.88-.5 1.37-.76.87-.82 1.37-.6.99-.62 1.49-.57 1.07-.55 1.58 1.8.89 1.86 1.39-.03.98.07 1.48.2.95.33 1.44-.57 1.23-.4 1.71.47.92.7 1.35.37.99.65 1.38.32 1.11.66 1.47 1.54-.16 1.92.15.42 1.06.83 1.33 1.21-.16 1.65.07.75.61 1.21.8.71.87 1.18 1.03 1.15-.51 1.63-.39.89.38 1.37.46 1-.35 1.49-.3.85 1.56 1.34 1.59 1.02-.18 1.5-.19 1-.09 1.49-.14 1.06.26 1.54.18.87-.8 1.34-.92 1.07.07 1.53-.08c.48-.17.65-1.01 1.08-1.22.46-.22.81-.58 1.25-.84s.97-.32 1.38-.61.61-.82 1-1.14.96-.41 1.32-.77 1.53-.03 1.85-.42-.43-1.61-.15-2.03.68-.73.92-1.18 1.23-.57 1.42-1.05-.03-1.12.1-1.61.87-.9.95-1.41-.54-1.11-.52-1.63-.46-.99-.49-1.51.86-1.12.78-1.63-.92-.85-1.05-1.36.22-1.12.05-1.62z"/>
    </g>
    <g stroke-width="0" fill="#003882">
        <path d="M198.61 152.87c1.65 1.37 1.93.38 4.45.47 1.27.04 2.73-.46 4.27-.59 1.38-.12 2.81-.24 4.21-.6s2.65-.76 3.9-1.43c.2 2.52-1.07 2.16-2.79 4.09-1.16 1.31-2.41 2.23-3.94 2.52-2.61-.97-2.15-1.61-4.6-3.02-1.84-1.06-4.18-1.47-5.51-1.43zM103.82 152.78c-1.65 1.37-1.88 0-4.39.08-1.27.04-2.75.39-4.29.26-1.38-.12-2.85-.3-4.26-.66s-2.97-1.11-4.21-1.78c-.2 2.52 1.57 2.1 3.28 4.03 1.16 1.31 2.51 2.86 4.04 3.15 2.61-.97 2.17-1.77 4.62-3.18 1.84-1.06 3.89-1.94 5.22-1.9z"/>
        <path d="M186 160.2c.61-.41.38-.4 1.23-.72.39-.14.69-1.03 1.24-1.13.44-.08 1.04.42 1.57.4.45-.02.9.44 1.42.49.46.05 1.02-.46 1.53-.34.45.11 1.05-.04 1.53.13.44.16.84.57 1.3.79.42.2.7.75 1.14 1s.97.41 1.35.73.69.77 1.02 1.15.39.95.66 1.38.33.92.55 1.38 1.19.61 1.35 1.09.2 1.04.3 1.54-.17 1.07-.13 1.57-.38.99-.4 1.49.12.99.03 1.48-.05 1.01-.23 1.48-.63.78-.89 1.21-.02 1.24-.36 1.61-.81.69-1.23.98-.94.43-1.43.62c-.45.18-1 .14-1.52.24-.69.16-.46.25-1.38.32-.39.03-.87-.05-1.42-.06-.43 0-.9.05-1.41 0-.44-.04-.96.24-1.46.16-.44-.07-.8-.74-1.29-.84-.44-.1-1.06.35-1.54.22-.73-.26-.39-.68-1.19-1.17-.38-.24-.84-.49-1.29-.85-.38-.31-.72-.69-1.1-1.08-.35-.36-.82-.65-1.12-1.09-.29-.42-.51-.89-.73-1.38-.21-.46-.99-.81-1.11-1.33-.11-.49.43-1.14.42-1.69-.02-.49-.66-1.11-.59-1.65.07-.49.72-.91.88-1.44.14-.82.17-.65.44-1.61.13-.47-.22-1.24.03-1.8.21-.47.43-1.12.76-1.6.3-.43 1.13-.56 1.55-.96.38-.37 1.03-.42 1.52-.73z"/>
        <path d="M176.17 163.91c-3.34-1.16-3.27-3.17-.5-6.67 1.09-1.38 2.98-2.04 4.46-3.22 1.28-1.02 2.3-2.94 4.23-3.62 1.49-.52 3.56.51 5.61.29 1.63-.18 3.26-1.72 4.9-1.61 1.64.11 3.04 1.79 4.62 2.26s3.55.02 4.98.89c1.36.83 1.89 2.76 3.07 4.01 1.06 1.13 2.67 1.86 3.54 3.38 1.81 1.91 1.54 1.94 4.44 2.82 1.49.45 3.37-.43 5.31-.46 1.62-.02 4.01.25 5.8-.41.87 2.35-1.76 2.26-3.97 4.05-1.19.96-2.79 1.82-4.33 2.64-1.49.79-3.26.85-4.88 1.08s-2.84 0-4.42-.78c-1.49-1.58-.4-1.79-1.99-3.84-.77-.99-2.04-2.04-3.26-3.09-1.02-.88-2.37-1.69-3.73-2.44-1.19-.65-2.84-.56-4.32-.99-1.76-.52-3.47-.69-5.22-.53s-3.78-.09-5.42.51c-1.79.66-3.51 1.58-4.9 2.39-2.67 1.56-1.49 4.18-4.02 3.31z"/>
        <path d="M205.15 153.58c-1.19-2.49 1.82 1.68 4.9 2.78 1.49.53 3.38.56 5.47.65 1.66.08 3.66.12 5.64-.34.31 2.82-2.09 1.95-4.64 3.45-1.59.94-3.18 1.59-5.1 1.4-1.9-1.68-1.49-1.98-3.13-3.91-1.66-1.96-2.04-1.74-3.14-4.03zM207.48 176.29c2.08-.62 1.55-.03 3.7 1.86a16.3 16.3 0 012.88 3.34c-1.89 1.19-2.04-.81-4.32-1.35-1.49-.35-2.93-.74-4.23-.5-.46-1.98.63-2.41 1.98-3.35zM203.67 180.94c2.74 0 1.72.26 3.08 4.34-1.78 2.86-3.2-1.25-6.45-2.06-.98-1.83 1.74-1.98 3.37-2.27z"/>
        <path d="M116.74 159.83c-.61-.41-.53-.26-1.37-.58-.39-.14-1.02.46-1.56.35-.44-.08-.8-.7-1.33-.72-.45-.02-.98-.44-1.5-.39-.46.05-.84.71-1.35.83-.45.11-.78.54-1.27.71-.44.16-.93.12-1.39.34-.42.2-1.01.11-1.45.37s-.74.7-1.13 1.03-.81.61-1.14.99-.88.63-1.15 1.05-.71.82-.93 1.28.38 1.25.22 1.73-.37.91-.47 1.4-.52.94-.56 1.44-.48 1.04-.45 1.55.29 1.05.38 1.54.4.98.58 1.45.16 1.1.41 1.53 1.1.46 1.44.83.63.71 1.06 1.01.76.61 1.25.81c.45.18.88.5 1.4.6.69.16.51.02 1.43.09.39.03.87.15 1.41.14.43 0 .89-.12 1.41-.16.44-.04.86-.43 1.36-.51.44-.07 1.01.42 1.5.31.44-.1.74-.77 1.22-.9.73-.26.75.2 1.55-.29.38-.24.8-.59 1.25-.95.38-.31.82-.62 1.2-1.02.35-.36.55-.88.85-1.32.29-.42.59-.84.81-1.33.21-.46-.23-1.09-.11-1.62.11-.49.79-.86.81-1.41.02-.49-.68-.92-.76-1.46-.07-.49.35-1.08.19-1.61-.14-.82.09-.68-.17-1.64-.13-.47-.83-.76-1.08-1.32-.21-.47-.53-.8-.86-1.28-.3-.43-.17-1.16-.59-1.56-.38-.37-.6-.99-1.09-1.3z"/>
        <path d="M126.36 163.98c3.34-1.16 3.03-3.07.27-6.56-1.09-1.38-2.51-2.53-3.99-3.71-1.28-1.02-2.93-1.54-4.87-2.22-1.49-.52-3.03-1.96-5.09-2.18-1.63-.18-3.42-.33-5.06-.22s-3.34.77-4.92 1.24-3.23 1.07-4.65 1.94-1.73 2.9-2.9 4.15c-1.06 1.13-2.87 1.67-3.74 3.19-1.81 1.91-1.52 1.96-4.42 2.85-1.49.45-3.39.81-5.32.79-1.62-.02-2.63-.49-4.43-1.15-.87 2.35.15 2.08 2.35 3.86 1.19.96 2.79 1.99 4.33 2.81 1.49.79 3.4 1.23 5.01 1.46 1.64.23 3.2-.65 4.78-1.43 1.49-1.58.85-1.48 2.44-3.52.77-.99 1.25-2.68 2.48-3.73 1.02-.88 2.66-1.22 4.02-1.96 1.19-.65 2.44-1.59 3.92-2.03 1.76-.52 3.64.27 5.39.43s3.36.85 4.99 1.45c1.79.66 4.09.14 5.48.95 2.67 1.56 1.39 4.47 3.91 3.59z"/>
        <path d="M96.93 153.38c1.19-2.49-1.46 1.7-4.54 2.8-1.49.53-3.3 1.16-5.39 1.25-1.66.08-3.59-.29-5.58-.74-.31 2.82 1.76 2.35 4.31 3.85 1.59.94 3.48 1.25 5.4 1.06 1.9-1.68 1.46-2.02 2.98-4.05s1.71-1.88 2.8-4.16zM95.07 176.15c-2.08-.62-1.76-.08-3.9 1.82-.87.77-1.66 1.88-2.61 3.36 1.89 1.19 1.89-.88 4.17-1.42 1.49-.35 3.08-.48 4.38-.24.48-2.03-.68-2.57-2.03-3.52zM98.83 180.92c-2.74 0-1.76.31-3.13 4.38 1.78 2.86 3.32-1.23 6.58-2.05.97-1.84-1.82-2.04-3.45-2.33z"/>
    </g>
</svg>