<?xml version="1.0" encoding="UTF-8"?>
<svg id="h" data-name="eye" xmlns="http://www.w3.org/2000/svg" viewBox="0 0 300 300">
  <g id="i" data-name="eye_3">
    <path d="m125.6,162.8c-.3-.8-.7-.4-1.1-1.4s-.3-1-.6-1.6-.8-.8-1.1-1.3-.3-1.1-.6-1.6-.8-.8-1.2-1.2-.9-.7-1.3-1.1-.6-.9-1.1-1.3-.8-.8-1.3-1.1-.9-.7-1.4-1-1.3.2-1.8,0-1-.4-1.5-.6-1-.4-1.6-.5-1.1-.3-1.6-.3-1.1-.4-1.7-.4-1,.9-1.6,1-1.2-.3-1.7-.1-1,.8-1.5.9-1.2,0-1.8.1-.9.8-1.4,1.1-1.4-.3-1.9,0-.6,1.2-1.1,1.5-1.2.3-1.7.6-1,.6-1.5,1-.6,1-1,1.4-.5,1.1-.8,1.5-1.1.7-1.4,1.2.2,1.4,0,1.9-.5,1-.7,1.5-.9.9-1.1,1.5-.4,1.1-.4,1.7.7,1.2.6,1.8,0,1.1,0,1.7-.2,1.1-.2,1.7,0,1.1.2,1.7,0,1.2.1,1.7.6,1,.8,1.5.3,1.1.6,1.6.7.9,1,1.3.3,1.2.7,1.6.8.8,1.2,1.2,1.2.3,1.7.6,1,.5,1.5.7,1,.4,1.5.7.9.6,1.5.7,1,.4,1.6.5,1.1.2,1.6.3,1.1.3,1.6.4,1.1,0,1.7,0,1.1.6,1.7.6,1.1-.8,1.6-.9,1.2.6,1.7.5,1-.9,1.5-1,1.2.2,1.7,0,.9-.8,1.3-1.1,1-.5,1.5-.8,1.3-.2,1.7-.5.7-1,1.1-1.4,1.3-.3,1.7-.7.8-.9,1.2-1.3.4-1.2.7-1.6.3-1.1.6-1.7,1.2-.7,1.4-1.3-.2-1.3,0-1.8,0-1.1.2-1.7.8-1.1.9-1.7-.3-1.2-.4-1.7-.4-1.1-.5-1.7.5-1.3.4-1.8-.2-1.1-.4-1.7Z" style="fill: #e4ecef; stroke-width: 0px;"/>
    <path d="m174.9,162.9c.3-.8.3-.5.7-1.5s.5-.9.8-1.4.2-1.1.5-1.6.5-1,.8-1.5.7-.9,1.1-1.3.5-1.1.9-1.5.9-.7,1.3-1.1.8-.8,1.3-1.1,1-.6,1.5-.9,1.4.3,1.9.1.9-.9,1.4-1,1.1-.2,1.7-.3,1.1-.4,1.7-.4,1.1.8,1.7.8,1.1-.5,1.7-.5,1,.7,1.5.8,1.1.4,1.6.6,1.2,0,1.7.2,1,.5,1.5.7,1.2.2,1.7.5.9.8,1.4,1.1,1.2.4,1.6.7.7,1,1.1,1.4.8.8,1.2,1.2,1.2.5,1.6,1-.2,1.5.1,2,1,.7,1.3,1.3.5,1.1.7,1.6.4,1.1.5,1.7.3,1.1.3,1.7,0,1.2.1,1.7-.6,1.1-.7,1.7.3,1.2.2,1.7-.3,1.1-.4,1.7-.5,1-.7,1.6.6,1.4.4,1.9-1,.8-1.3,1.3-.5,1-.8,1.5-.8.8-1.2,1.2-.8.8-1.2,1.1-.9.6-1.4.9-.8.8-1.3,1.1-1.1.3-1.6.5-.9.8-1.4,1-1.1.2-1.7.3-1,.7-1.6.8-1.2-.3-1.7-.3-1.1.3-1.6.3-1.1.2-1.7.2-1.1-.2-1.7-.2-1.1-.3-1.6-.3-1-.4-1.6-.5-1.1,0-1.6-.3-1.2-.2-1.6-.4-.9-.7-1.4-1-.7-1-1.2-1.3-1.4,0-1.9-.4-.5-1.2-.9-1.6-1-.6-1.4-1.1-.6-1-.9-1.5-.5-1-.7-1.6-1-.8-1.2-1.4-.3-1.2-.4-1.7-.2-1.1-.3-1.7.1-1.2,0-1.8-.4-1.2-.3-1.7.2-1.1.3-1.7.8-1,.9-1.6,0-1.1.3-1.7Z" style="fill: #e4ecef; stroke-width: 0px;"/>
  </g>
</svg>