<?xml version="1.0" encoding="UTF-8"?>
<svg id="eye" xmlns="http://www.w3.org/2000/svg" viewBox="0 0 300 300">
  <g id="eye_9">
    <path d="m127.21,165.44c.04-1.31.66-1.09.34-2.62-.16-.74-.31-1.68-.69-2.57-.32-.74-.78-1.57-1.32-2.33-.47-.67-1.53-.9-2.21-1.53-.6-.55-1.26-1.02-2.05-1.5-.7-.42-1.39-.87-2.25-1.21-.76-.3-1.46-.94-2.36-1.16-.8-.2-1.66-.4-2.58-.53-.82-.11-1.72.23-2.64.19-.83-.04-1.69-.3-2.61-.28-.84.02-1.74-.29-2.65-.21s-1.66.79-2.48.91c-.88.13-1.76.02-2.56.19-.87.19-1.63.63-2.41.87-.86.26-1.73.3-2.49.61-.83.34-1.76.42-2.47.8-.79.43-1.45,1.03-2.11,1.5-.73.52-1.06,1.44-1.65,2-.65.62-1.19,1.22-1.67,1.87-.55.72-1.57,1.09-1.94,1.8-.43.82-.04,1.9-.26,2.65-.28.94-.58,1.69-.62,2.4-.04.79-.29,1.65-.14,2.54.13.8.22,1.7.63,2.51.36.71.96,1.37,1.61,2.04.54.56,1.04,1.39,1.83,1.89.66.42,1.71.28,2.57.65.72.31,1.37,1.02,2.26,1.28.76.23,1.67.14,2.56.33.79.16,1.65.15,2.54.27.8.11,1.58.84,2.47.92.81.07,1.7-.33,2.6-.29.82.04,1.67.21,2.56.23.82.01,1.68-.43,2.56-.44.75,0,1.63.25,2.59.17.81-.07,1.64-.37,2.54-.52.83-.14,1.69-.18,2.55-.42s1.52-.78,2.32-1.12,1.77-.3,2.5-.77,1.14-1.29,1.76-1.9,1.43-1,1.91-1.75c.44-.7.52-1.6.82-2.46.27-.77,1.16-1.45,1.3-2.36.12-.81-.65-1.74-.65-2.67Z" style="fill: #fff; stroke-width: 0px;"/>
    <path d="m120.45,165.73c0,.97.29,1.96.08,2.87s-.84,1.74-1.24,2.58-.71,1.8-1.3,2.54-1.32,1.39-2.07,1.98-1.54,1.13-2.4,1.55-1.75.81-2.68,1.02-1.89.31-2.86.31-1.96-.08-2.87-.29-1.9-.51-2.74-.92-1.58-1.12-2.31-1.71-1.43-1.26-2.03-2-.9-1.65-1.31-2.51-.68-1.71-.89-2.65-.5-1.8-.5-2.77-.02-1.94.19-2.85.63-1.81,1.04-2.66.97-1.63,1.56-2.37,1.16-1.53,1.9-2.13,1.6-1.03,2.46-1.45,1.79-.54,2.73-.76,1.82-.69,2.79-.69,1.9.4,2.8.61,1.77.61,2.62,1.02,1.87.6,2.61,1.19,1.4,1.34,1.99,2.08,1.09,1.58,1.5,2.44.45,1.83.67,2.77.29,1.81.29,2.78Z" style="fill: #003882; stroke-width: 0px;"/>
    <path d="m172.79,165.44c-.04-1.31-.81-1.12-.49-2.65.16-.74.66-1.56,1.05-2.46.32-.74.58-1.65,1.12-2.42.47-.67,1.53-.9,2.21-1.53.6-.55,1.2-1.1,2-1.59.7-.42,1.31-1.12,2.17-1.46.76-.3,1.62-.49,2.53-.71.8-.2,1.68-.12,2.6-.25.82-.11,1.67-.08,2.59-.12.83-.04,1.69-.41,2.61-.39.84.02,1.71.06,2.62.14s1.68.53,2.49.65c.88.13,1.74.08,2.54.26.87.19,1.69.4,2.47.64.86.26,1.69.44,2.45.74.83.34,1.64.62,2.36,1,.79.43,1.35,1.12,2.01,1.59.73.52,1.25,1.17,1.83,1.73.65.62,1.68.84,2.17,1.48.55.72.96,1.52,1.33,2.23.43.82.97,1.59,1.19,2.33.28.94.07,1.91.11,2.62.04.79.32,1.71.17,2.61-.13.8-1.06,1.38-1.47,2.19-.36.71-.64,1.43-1.28,2.1-.54.56-.87,1.52-1.66,2.03-.66.42-1.64.42-2.49.78-.72.31-1.36,1.1-2.24,1.36-.76.23-1.76-.22-2.65-.03-.79.16-1.55.75-2.44.88-.8.11-1.65.26-2.54.34-.81.07-1.69-.19-2.58-.15-.82.04-1.67.18-2.56.19-.82.01-1.68.27-2.57.26-.75,0-1.62-.34-2.58-.42-.81-.07-1.67-.21-2.56-.36-.83-.14-1.76,0-2.61-.24s-1.51-.89-2.32-1.24-1.73-.42-2.46-.9-1.21-1.24-1.84-1.86-1.34-1.11-1.81-1.86c-.44-.7-.77-1.52-1.08-2.37-.27-.77-.42-1.63-.56-2.53-.12-.81.19-1.68.19-2.6Z" style="fill: #fff; stroke-width: 0px;"/>
    <path d="m179.48,165.73c0,.97-.12,1.94.09,2.85s.52,1.87.92,2.71.92,1.71,1.51,2.44,1.23,1.51,1.97,2.1,1.69.92,2.55,1.34,1.75.72,2.68.94,1.86.15,2.83.15,1.87-.18,2.77-.38,1.83-.43,2.67-.84,1.66-.88,2.4-1.47c.74-.59,1.52-1.16,2.11-1.9s.93-1.64,1.35-2.5.66-1.73.87-2.67.55-1.81.55-2.78-.37-1.87-.58-2.78-.24-1.92-.65-2.77-1.18-1.48-1.77-2.22-.97-1.7-1.71-2.3-1.58-1.12-2.44-1.53-1.8-.66-2.74-.88-1.88-.2-2.85-.2-1.96-.12-2.87.09-1.9.52-2.74.93-1.61,1.08-2.35,1.67c-.74.59-1.38,1.32-1.97,2.07s-1.05,1.58-1.46,2.43-.76,1.73-.97,2.66-.18,1.85-.18,2.82Z" style="fill: #003882; stroke-width: 0px;"/>
  </g>
</svg>