<?xml version="1.0" encoding="UTF-8"?>
<svg id="eye" xmlns="http://www.w3.org/2000/svg" viewBox="0 0 300 300">
  <g id="eye_2">
    <path d="m119.59,171.07c.26-1.38.23-1.1-.1-2.7-.16-.78-.19-1.74-.82-2.63-.47-.67-1.16-1.29-2.03-1.93-.67-.49-1.39-1.13-2.35-1.56-.75-.34-1.73-.25-2.62-.53-.81-.26-1.52-1.01-2.4-1.23-.84-.21-1.81.06-2.69-.11s-1.66-.81-2.53-.94-1.78-.22-2.64-.31-1.82.01-2.67-.05c-.93-.07-1.83-.03-2.65-.05-.99-.03-1.89-.1-2.65-.05-1.36.08-2.41.22-2.65.53-.31.4-.03,1.39.53,2.61.31.68.76,1.44,1.36,2.27.47.66.9,1.45,1.55,2.16.56.61,1.41,1.01,2.11,1.63.63.56,1.29,1.12,2.04,1.68.68.51,1.39,1.02,2.17,1.51.72.46,1.34,1.16,2.15,1.59.76.4,1.71.47,2.55.84s1.42,1.13,2.16,1.39c.86.31,1.74.32,2.49.5.9.22,1.75.09,2.5.15.94.08,1.71.06,2.45-.06.94-.15,1.78-.16,2.43-.54.8-.48,1.43-1.08,1.83-1.73.48-.79.48-1.71.47-2.46Z" style="fill: #003882; stroke-width: 0px;"/>
    <path d="m175.8,171.05c-.26-1.38-.66-1.14-.33-2.73.16-.78.64-1.57,1.26-2.46.47-.67,1.04-1.36,1.9-2,.67-.49,1.41-1.06,2.37-1.49.75-.34,1.57-.68,2.47-.97.81-.26,1.7-.37,2.59-.59.84-.21,1.69-.46,2.57-.63s1.75-.26,2.62-.4,1.77-.17,2.64-.26,1.78-.3,2.63-.36c.93-.07,1.83.07,2.65.05.99-.03,1.87-.08,2.63-.04,1.36.08,2.21.19,2.45.51.31.4.03,1.13-.53,2.35-.31.68-.32,1.7-.91,2.53-.47.66-1.38,1.06-2.03,1.77-.56.61-.99,1.43-1.69,2.06-.63.56-1.28,1.18-2.03,1.73-.68.51-1.5.88-2.28,1.38-.72.46-1.59.71-2.4,1.14-.76.4-1.48.93-2.31,1.3s-1.55.8-2.29,1.07c-.86.31-1.65.58-2.41.76-.9.22-1.76.03-2.52.09-.94.08-1.79.54-2.53.42-.94-.15-1.67-.7-2.31-1.08-.8-.48-1.49-1-1.88-1.66-.48-.79-.33-1.75-.32-2.49Z" style="fill: #003882; stroke-width: 0px;"/>
  </g>
</svg>