<?xml version="1.0" encoding="UTF-8"?>
<svg id="eye" xmlns="http://www.w3.org/2000/svg" viewBox="0 0 300 300">
  <g id="eye_16">
    <path d="m122.81,165.06c-.34-1.34.13-1.25-.85-2.59-.46-.63-1.24-1.14-2.12-1.75-.67-.46-1.42-.95-2.41-1.29-.78-.28-1.65-.57-2.66-.73-.83-.13-1.75-.13-2.76-.15-.86-.01-1.76.12-2.76.2-.87.07-1.73-.01-2.56.13s-1.61.67-2.42.88c-.84.22-1.65.41-2.44.7s-1.75.3-2.49.66c-.79.38-1.38,1.08-2.08,1.52-.75.47-1.62.71-2.26,1.23-.68.56-1.24,1.24-1.79,1.85-.59.66-1.11,1.35-1.53,2.05-.46.76-.82,1.54-1.06,2.33-.26.84-.19,1.69-.17,2.53s.09,1.66.42,2.47c.35.86.63,1.8,1.24,2.51s1.32,1.33,2.11,1.87c.74.5,1.55,1.06,2.45,1.42.83.34,1.87.17,2.8.38.88.2,1.75.59,2.71.66.9.07,1.83-.24,2.78-.28.91-.04,1.82-.03,2.76-.18s1.78-.37,2.7-.61,1.79-.4,2.68-.73,1.71-.66,2.57-1.07c.8-.39,1.53-.78,2.18-1.21.75-.49,1.35-1.06,1.92-1.58.66-.61,1.17-1.23,1.62-1.86.53-.73.82-1.46,1.12-2.18.35-.83.73-1.55.85-2.32.15-.92.33-1.76.28-2.49-.1-1.48-.5-1.16-.8-2.38Z" style="fill: #fff; stroke-width: 0px;"/>
    <path d="m89.58,171.46c.26,1.66.17,2.02,2.23.8.54-.32,1.04-.87,1.57-1.87.35-.65.86-1.33,1.4-2.14.43-.65,1.05-1.2,1.69-1.89.54-.58,1.03-1.25,1.76-1.82.63-.49,1.2-1.15,2.01-1.61.69-.4,1.54-.6,2.39-.96.74-.32,1.53-.59,2.4-.87.77-.25,1.5-.89,2.38-1.11,1.28-.26,1.1.41,2.66.34.76-.03,1.65-.59,2.6-.54.82.04,1.69.38,2.58.53.84.14,1.67.44,2.5.71s1.6.62,2.36,1.05c1.45.83,2.46.95,3.06,1.02,1.53.16.76-1.48.75-2.42,0-.32-.06-1.4-.85-2.54-.44-.62-1.35-1.03-2.1-1.71-.6-.55-1.28-1.07-2.1-1.59-.7-.44-1.43-.91-2.31-1.28-.77-.32-1.61-.56-2.52-.8-.81-.21-1.65-.46-2.59-.58-.84-.11-1.72-.03-2.66-.06-.84-.03-1.71,0-2.64.05-.85.05-1.79-.46-2.72-.34-.85.11-1.73.33-2.64.5-.84.16-1.57.9-2.47,1.12-1.17.38-1.12.1-2.33.75-.69.37-1.4.87-2.06,1.36-.74.55-1.33,1.16-1.63,1.79-.35.73-.39,1.57.44,2.28,1.02.52.9.11,2.3-.6.55-.28,1.01-.94,1.74-1.53.48-.39,1.47-.43,2.41-.87.69-.32,1.33-.97,2.21-1.24.76-.24,1.56-.58,2.43-.75.8-.15,1.69.19,2.56.14.82-.05,1.66-.56,2.52-.5s1.57.73,2.41.92,1.64.18,2.45.49c.76.29,1.74.25,2.49.68.71.4,1.43,1.39,2.12,1.93-1.02.87-1.22-.23-2.87-.48-.76-.12-1.62-.49-2.63-.56-.83-.06-1.73-.19-2.69-.18-.86,0-1.78-.16-2.71-.07-.87.08-1.72.53-2.63.7s-1.77.27-2.64.54-1.59.81-2.43,1.18-1.82.36-2.61.83c-.75.45-1.27,1.3-2,1.86s-1.38,1.09-2.04,1.74c-.62.62-1.05,1.39-1.63,2.12-.91,1.22-1.06.93-1.64,2.53-.32.88-.27,1.88-.3,2.95Z" style="fill: #003882; stroke-width: 0px;"/>
    <path d="m99.79,163.4c-.49,1.24-.45,1.06-.57,2.57-.07.8.02,1.67.24,2.61.19.81.53,1.56,1.09,2.34.47.65,1.03,1.26,1.86,1.8.74.49,1.48,1.02,2.35,1.29s1.76.33,2.67.39,1.77-.12,2.67-.25c.9-.14,1.73-.37,2.57-.69s1.68-.65,2.4-1.16c.74-.53,1.4-1.12,1.94-1.84s1.04-1.46,1.31-2.34c.32-1.06.25-2.03.28-2.89.03-1.11,0-2.04-.31-2.85-.39-1-.87-1.88-1.55-2.47-.83-.72-1.83-1.1-2.65-1.25-.56-.1-1.52.04-2.68.03-.81,0-1.72-.1-2.67,0-.87.08-1.74.32-2.62.52s-1.73.43-2.54.77c-.85.37-1.81.55-2.46,1.12s-1.01,1.47-1.34,2.33Z" style="fill: #003882; stroke-width: 0px;"/>
    <path d="m176.87,164.98c.34-1.34-.02-1.33.96-2.67.46-.63,1.37-1.1,2.26-1.71.67-.46,1.55-.69,2.54-1.04.78-.28,1.65-.38,2.66-.54.83-.13,1.7-.62,2.71-.64.86-.01,1.78.13,2.77.21.87.07,1.72.16,2.54.3s1.65.51,2.46.72,1.6.59,2.39.88,1.83.11,2.58.48c.79.38,1.25,1.32,1.95,1.76.75.47,1.76.52,2.4,1.04.68.56,1.08,1.4,1.63,2.02.59.66,1.29,1.22,1.71,1.92.46.76.58,1.65.81,2.44.26.84.66,1.66.64,2.49-.02.85-.39,1.66-.71,2.47-.35.86-.82,1.65-1.43,2.36s-1.38,1.14-2.17,1.68c-.74.5-1.4,1.23-2.29,1.59-.83.34-1.79.39-2.72.6-.88.2-1.78.32-2.74.39-.9.07-1.83.5-2.78.46s-1.77-.7-2.71-.84c-.9-.14-1.87.02-2.79-.22-.88-.23-1.74-.6-2.63-.93s-1.58-.95-2.43-1.37c-.8-.39-1.62-.58-2.28-1.01-.75-.49-1.3-1.1-1.87-1.63-.66-.61-1.22-1.17-1.68-1.8-.53-.73-.97-1.39-1.27-2.11-.35-.83-.56-1.61-.68-2.38-.15-.92-.12-1.74-.07-2.47.1-1.48-.07-1.26.24-2.47Z" style="fill: #fff; stroke-width: 0px;"/>
    <path d="m210.95,171.54c-.26,1.66-.78,2.08-2.85.86-.54-.32-1.04-.97-1.57-1.96-.35-.65-.7-1.43-1.23-2.24-.43-.65-.8-1.45-1.44-2.14-.54-.58-1.46-.82-2.19-1.39-.63-.49-1.32-.91-2.12-1.37-.69-.4-1.37-.89-2.21-1.25-.74-.32-1.38-1.06-2.24-1.34-.77-.25-1.65-.37-2.53-.58-1.28-.26-1.07.06-2.63,0-.76-.03-1.64.01-2.59.06-.82.04-1.74-.19-2.63-.04-.84.14-1.58.8-2.41,1.07s-1.66.45-2.41.88c-1.45.83-2.45.99-3.05,1.06-1.53.16-.67-1.51-.66-2.46,0-.32.2-1.23,1-2.37.44-.62,1.07-1.24,1.81-1.93.6-.55,1.29-1.07,2.11-1.59.7-.44,1.34-1.14,2.22-1.51.77-.32,1.64-.58,2.56-.82.81-.21,1.74-.08,2.67-.21.84-.11,1.7-.26,2.64-.29.84-.03,1.74-.34,2.67-.29.85.05,1.73.28,2.66.4.85.11,1.7.41,2.61.58.84.16,1.74.25,2.64.47,1.17.38,1.07.31,2.28.96.69.37,1.56.68,2.22,1.18.74.55,1.13,1.44,1.44,2.07.35.73.2,1.27-.63,1.98-1.02.52-.69.34-2.1-.38-.55-.28-1.21-.67-1.94-1.25-.48-.39-1.06-1.16-2-1.6-.69-.32-1.5-.69-2.38-.96-.76-.24-1.67-.16-2.54-.33-.8-.15-1.63-.39-2.5-.45-.82-.05-1.68,0-2.54.06s-1.72-.05-2.56.13-1.59.61-2.4.91c-.76.29-1.43.87-2.18,1.3-.71.4-1.56.9-2.25,1.43,1.02.87,1.12-.19,2.77-.44.76-.12,1.64-.36,2.65-.43.83-.06,1.73-.48,2.69-.47.86,0,1.76.34,2.68.43.87.08,1.82-.08,2.72.09s1.71.58,2.59.84,1.58.84,2.42,1.21,1.63.68,2.42,1.15,1.4,1.06,2.13,1.62,1.3,1.15,1.95,1.81c.62.62,1.65.91,2.22,1.64.91,1.22.79,1.19,1.38,2.79.32.88.61,2.03.64,3.1Z" style="fill: #003882; stroke-width: 0px;"/>
    <path d="m200.41,163.33c.49,1.24.24,1.14.36,2.65.07.8.25,1.73.03,2.67-.19.81-.53,1.69-1.09,2.47-.47.65-1.31,1.05-2.14,1.59-.74.49-1.44,1.13-2.32,1.39s-1.79.15-2.7.2-1.78.07-2.68-.06c-.9-.14-1.72-.46-2.55-.78-.85-.33-1.62-.73-2.34-1.24-.74-.53-1.59-.93-2.13-1.65s-.92-1.56-1.19-2.44c-.32-1.06-.36-2.03-.39-2.9-.03-1.11.12-2.04.44-2.86.39-1,1.07-1.66,1.75-2.25.83-.72,1.68-1.12,2.49-1.26.56-.1,1.48-.53,2.64-.54.81,0,1.74.02,2.7.11.87.08,1.76.35,2.64.55s1.74.51,2.54.85c.85.37,1.71.72,2.36,1.29s1.26,1.34,1.58,2.2Z" style="fill: #003882; stroke-width: 0px;"/>
  </g>
</svg>