<?xml version="1.0" encoding="UTF-8"?>
<svg id="eye" xmlns="http://www.w3.org/2000/svg" viewBox="0 0 300 300">
  <g id="eye_14">
    <path d="m114.91,173c.8-.14,1.54-.4,2.27-.56.81-.18,1.58-.25,2.29-.45.81-.23,1.61-.29,2.28-.57.79-.34,1.41-.84,1.97-1.26.68-.51,1.36-.99,1.66-1.67s.04-1.46-.07-2.32c-.09-.67.04-1.47-.36-2.17-.33-.58-.95-1.05-1.52-1.62-.48-.48-.92-1.11-1.58-1.55-.56-.38-1.39-.4-2.1-.75-.62-.3-1.23-.68-1.96-.95-.65-.24-1.36-.38-2.11-.59-.67-.19-1.26-.86-2.02-1.02-.69-.14-1.41-.37-2.17-.48-.7-.11-1.47.04-2.23-.04-.71-.07-1.47.19-2.23.14s-1.54-.41-2.26-.41c-.8,0-1.57-.05-2.29,0-.8.05-1.51.53-2.22.63-.8.12-1.61-.08-2.3.1-.79.21-1.54.44-2.18.71-.76.32-1.24,1.01-1.81,1.41-.68.47-1.39.78-1.84,1.32-.51.63-.89,1.31-1.13,1.99-.26.75-.46,1.54-.41,2.27.05.78.41,1.51.74,2.18s.76,1.39,1.35,1.85c.48.38,1.22.69,2.04,1.07.63.29,1.36.52,2.15.8.68.24,1.51.12,2.28.34.71.2,1.34.77,2.11.95s1.4.77,2.17.91,1.61-.43,2.37-.33,1.51.14,2.27.19,1.52.35,2.27.36,1.52-.36,2.27-.42,1.55.09,2.28-.04Z" style="fill: #fff; stroke-width: 0px;"/>
    <path d="m116.62,167.46c-.22.82-.71,1.5-1.15,2.18s-.89,1.42-1.52,1.93-1.38.96-2.14,1.26-1.62.22-2.45.27-1.64.19-2.46-.03c-.82-.22-1.48-.75-2.15-1.19-.7-.45-1.32-.95-1.83-1.59s-.84-1.37-1.13-2.14-.46-1.52-.5-2.35c-.04-.8-.19-1.63.03-2.45.22-.82.6-1.57,1.04-2.24s1.07-1.25,1.71-1.76,1.34-.94,2.1-1.23c.76-.29,1.56-.35,2.39-.39s1.58.02,2.39.24,1.68.32,2.35.75,1.34,1.04,1.85,1.67.85,1.43,1.14,2.2.43,1.58.47,2.41.07,1.65-.15,2.46Z" style="fill: #003882; stroke-width: 0px;"/>
    <path d="m185.04,173.25c-.8-.14-1.6-.18-2.33-.34-.81-.18-1.55-.48-2.26-.68-.81-.23-1.48-.69-2.14-.97-.79-.34-1.54-.59-2.11-1.01-.68-.51-1.01-1.2-1.31-1.88s-.77-1.39-.65-2.26c.09-.67.67-1.26,1.07-1.96.33-.58.59-1.29,1.16-1.86.48-.48,1.16-.78,1.83-1.23.56-.38,1.01-1.1,1.71-1.44.62-.3,1.35-.5,2.09-.77.65-.24,1.34-.54,2.09-.75.67-.19,1.5.14,2.26-.01.69-.14,1.41-.18,2.17-.29.7-.11,1.38-.44,2.14-.52.71-.07,1.41-.46,2.17-.51s1.56.25,2.29.24c.8,0,1.54.07,2.26.11.8.05,1.6-.28,2.31-.18.8.12,1.48.61,2.17.79.79.21,1.48.47,2.12.74.76.32,1.6.37,2.18.77.68.47,1.07,1.19,1.51,1.73.51.63.86,1.28,1.09,1.96.26.75.25,1.48.2,2.21-.05.78-.1,1.53-.43,2.19s-.9,1.2-1.49,1.66c-.48.38-1.09.84-1.91,1.22-.63.29-1.32.64-2.1.92-.68.24-1.31.83-2.08,1.05-.71.2-1.56.02-2.33.2s-1.56-.12-2.33.01-1.4.92-2.16,1.02-1.53.21-2.29.26-1.56-.18-2.31-.17-1.57.32-2.32.27-1.54-.38-2.27-.51Z" style="fill: #fff; stroke-width: 0px;"/>
    <path d="m183.54,167.42c.22.82.54,1.55.98,2.23s.86,1.46,1.5,1.97,1.47.77,2.23,1.07,1.55.62,2.38.67,1.65-.1,2.46-.32,1.62-.52,2.29-.96,1.36-1.02,1.87-1.65.76-1.47,1.06-2.24.45-1.55.49-2.38c.04-.8.16-1.66-.06-2.47s-.74-1.5-1.18-2.18-1.05-1.23-1.69-1.74-1.31-.93-2.08-1.22c-.76-.29-1.52-.71-2.35-.76s-1.59.33-2.41.55-1.53.54-2.2.98-1.38.89-1.89,1.53-1.04,1.31-1.34,2.08-.38,1.61-.42,2.44.13,1.6.35,2.42Z" style="fill: #003882; stroke-width: 0px;"/>
  </g>
</svg>