<?xml version="1.0" encoding="UTF-8"?>
<svg id="eye" xmlns="http://www.w3.org/2000/svg" viewBox="0 0 300 300">
  <g id="eye_1">
    <path d="m115.7,173c.8-.14,1.54-.4,2.27-.56.81-.18,1.58-.25,2.29-.45.81-.23,1.61-.29,2.28-.57.79-.34,1.41-.84,1.97-1.26.68-.51,1.36-.99,1.66-1.67.3-.67.04-1.46-.07-2.32-.09-.67.04-1.47-.36-2.17-.33-.58-.95-1.05-1.52-1.62-.48-.48-.92-1.11-1.58-1.55-.56-.38-1.39-.4-2.1-.75-.62-.3-1.23-.68-1.96-.95-.65-.24-1.36-.38-2.11-.59-.67-.19-1.26-.86-2.02-1.02-.69-.14-1.41-.37-2.17-.48-.7-.11-1.47.04-2.23-.04-.71-.07-1.47.19-2.23.14s-1.54-.41-2.26-.41c-.8,0-1.57-.05-2.29,0-.8.05-1.51.53-2.22.63-.8.12-1.61-.08-2.3.1-.79.21-1.54.44-2.18.71-.76.32-1.24,1.01-1.81,1.41-.68.47-1.39.78-1.84,1.32-.51.63-.89,1.31-1.13,1.99-.26.75-.46,1.54-.41,2.27.05.78.41,1.51.74,2.18s.76,1.39,1.35,1.85c.48.38,1.22.69,2.04,1.07.63.29,1.36.52,2.15.8.68.24,1.51.12,2.28.34.71.2,1.34.77,2.11.95s1.4.77,2.17.91,1.61-.43,2.37-.33,1.51.14,2.27.19,1.52.35,2.27.36,1.52-.36,2.27-.42,1.55.09,2.28-.04Z" style="fill: #fff; stroke-width: 0px;"/>
    <path d="m125.78,164.42c1.15-.71.11-.87-.29-2.45-.19-.73-.19-1.68-.77-2.56-.44-.66-1.13-1.24-1.89-1.92-.6-.54-1.28-1.11-2.14-1.63-.7-.43-1.42-1.01-2.32-1.41-.76-.34-1.76-.24-2.68-.55-.8-.27-1.66-.48-2.59-.72s-1.82-.58-2.68-.76c-.97-.2-1.82-.82-2.68-.95-.99-.15-1.95-.13-2.81-.19-1.02-.07-1.96.14-2.8.16-1.06.03-1.96.18-2.76.32-1.11.2-2.1.2-2.77.51-1.48.7-1.65,1.65-1.52,1.99.33.89,1.46.81,3.38.06.44-.17,1.34-.19,2.51-.35.72-.1,1.56-.12,2.51-.15.78-.02,1.62-.14,2.52-.08.8.05,1.62.22,2.5.35.8.12,1.61.29,2.47.49.79.19,1.69.11,2.52.38.78.25,1.57.58,2.37.92.76.32,1.39.95,2.16,1.35.73.38,1.51.56,2.24,1.02-1.25.46-.98-.08-2.55-.56-.73-.22-1.54-.61-2.51-.84-.8-.19-1.64-.54-2.57-.71-.84-.15-1.73-.18-2.65-.29-.86-.1-1.75-.06-2.65-.1s-1.75.13-2.64.16-1.78-.25-2.67-.12c-.96.13-1.89.13-2.7.32-.96.23-1.76.74-2.53,1.02-.95.36-1.74.76-2.42,1.17-.94.57-1.88.92-2.33,1.48-.85,1.05-.82,2.45-.19,2.84,1.56.97,2.03.13,3.17-1.14.88-.96.83-.46,2.32-1.14.67-.31,1.45-.67,2.4-.98.76-.24,1.64-.24,2.56-.43.8-.17,1.61-.49,2.53-.58.82-.09,1.67-.38,2.59-.39.83,0,1.69.27,2.6.35.83.07,1.67.22,2.57.36.83.14,1.7.17,2.58.38.82.2,1.77.07,2.62.35.8.26,1.54.82,2.38,1.15,1.11.4,1.1.07,2.29.72.63.34,1.24.96,1.9,1.48.61.49,1,1,1.45,1.65Z" style="fill: #003882; stroke-width: 0px;"/>
    <path d="m117.66,166.71c-.22.82-.71,1.5-1.15,2.18-.45.7-.89,1.42-1.52,1.93s-1.38.96-2.14,1.26-1.62.22-2.45.27-1.64.19-2.46-.03-1.48-.75-2.15-1.19-1.32-.95-1.83-1.59-.84-1.37-1.13-2.14-.46-1.52-.5-2.35-.19-1.63.03-2.45.6-1.57,1.04-2.24,1.07-1.25,1.71-1.76,1.34-.94,2.1-1.23,1.56-.35,2.39-.39,1.58.02,2.39.24,1.68.32,2.35.75,1.34,1.04,1.85,1.67.85,1.43,1.14,2.2c.29.76.43,1.58.47,2.41s.07,1.65-.15,2.46Z" style="fill: #003882; stroke-width: 0px;"/>
    <path d="m180.48,173.25c-.8-.14-1.6-.18-2.33-.34-.81-.18-1.55-.48-2.26-.68-.81-.23-1.48-.69-2.14-.97-.79-.34-1.54-.59-2.11-1.01-.68-.51-1.01-1.2-1.31-1.88s-.77-1.39-.65-2.26c.09-.67.67-1.26,1.07-1.96.33-.58.59-1.29,1.16-1.86.48-.48,1.16-.78,1.83-1.23.56-.38,1.01-1.1,1.71-1.44.62-.3,1.35-.5,2.09-.77.65-.24,1.34-.54,2.09-.75.67-.19,1.5.14,2.26-.01.69-.14,1.41-.18,2.17-.29.7-.11,1.38-.44,2.14-.52.71-.07,1.41-.46,2.17-.51s1.56.25,2.29.24c.8,0,1.54.07,2.26.11.8.05,1.6-.28,2.31-.18.8.12,1.48.61,2.17.79.79.21,1.48.47,2.12.74.76.32,1.6.37,2.18.77.68.47,1.07,1.19,1.51,1.73.51.63.86,1.28,1.09,1.96.26.75.25,1.48.2,2.21-.05.78-.1,1.53-.43,2.19s-.9,1.2-1.49,1.66c-.48.38-1.09.84-1.91,1.22-.63.29-1.32.64-2.1.92-.68.24-1.31.83-2.08,1.05-.71.2-1.56.02-2.33.2s-1.56-.12-2.33.01-1.4.92-2.16,1.02-1.53.21-2.29.26-1.56-.18-2.31-.17c-.78,0-1.57.32-2.32.27s-1.54-.38-2.27-.51Z" style="fill: #fff; stroke-width: 0px;"/>
    <path d="m170.26,164.73c-1.15-.71-.21-1.25.19-2.83.19-.73.44-1.64,1.02-2.51.44-.66,1.22-1.16,1.98-1.84.6-.54,1.25-1.14,2.11-1.66.7-.43,1.53-.75,2.43-1.14.76-.34,1.64-.49,2.56-.79.8-.27,1.48-1.16,2.41-1.4s1.97,0,2.83-.18c.97-.2,1.82-.82,2.68-.95.99-.15,1.97.09,2.83.03,1.02-.07,1.96-.42,2.8-.4,1.06.03,1.93.66,2.73.8,1.11.2,1.94.48,2.61.8,1.48.7,2.08,1.38,1.95,1.72-.33.89-1.82,1.01-3.75.26-.44-.17-1.17-.89-2.34-1.05-.72-.1-1.6-.12-2.55-.14-.78-.02-1.64.02-2.55.08-.8.05-1.67.03-2.55.16-.8.12-1.65.3-2.5.5-.79.19-1.59.54-2.41.81-.78.25-1.57.57-2.37.9-.76.32-1.54.66-2.31,1.06-.73.38-1.47,1.14-2.21,1.6,1.25.46.94-.84,2.51-1.32.73-.22,1.74.07,2.71-.16.8-.19,1.65-.41,2.58-.58.84-.15,1.66-.62,2.57-.73.86-.1,1.75-.11,2.66-.15s1.75.26,2.65.3,1.82-.48,2.7-.36c.96.13,1.74.88,2.55,1.07.96.23,1.84.33,2.61.62.95.36,1.89.48,2.57.89.94.57,1.78,1.1,2.23,1.66.85,1.05.6,2.11-.03,2.5-1.56.97-1.69.37-2.84-.89-.88-.96-1-.23-2.49-.91-.67-.31-1.27-1.21-2.21-1.51-.76-.24-1.65-.37-2.58-.56-.8-.17-1.67-.38-2.59-.48-.82-.09-1.72.42-2.64.42-.83,0-1.72-.5-2.62-.43-.83.07-1.72.16-2.61.31-.83.14-1.58.79-2.46,1-.82.2-1.8-.08-2.66.19-.8.26-1.64.53-2.48.86-1.11.4-.8.71-1.99,1.37-.63.34-1.48.55-2.13,1.08-.61.49-1.15,1.34-1.61,1.99Z" style="fill: #003882; stroke-width: 0px;"/>
    <path d="m178.64,166.69c.22.82.63,1.53,1.07,2.2s.94,1.36,1.58,1.87,1.4.82,2.17,1.12,1.53.59,2.36.63,1.62-.09,2.43-.31,1.61-.48,2.28-.91,1.24-1.09,1.75-1.73,1-1.32,1.3-2.08.54-1.58.58-2.41-.22-1.61-.44-2.43-.51-1.58-.94-2.25-.92-1.41-1.56-1.92-1.44-.8-2.21-1.1-1.55-.55-2.38-.6-1.63.09-2.44.31-1.58.55-2.25.99-1.38.96-1.89,1.6-.9,1.4-1.2,2.17-.38,1.59-.42,2.42,0,1.62.21,2.44Z" style="fill: #003882; stroke-width: 0px;"/>
  </g>
</svg>