<?xml version="1.0" encoding="UTF-8"?><svg id="eyebrow" xmlns="http://www.w3.org/2000/svg" viewBox="0 0 300 300"><defs><style>.cls-1{fill:#003882;}</style></defs><g id="eyebrow_6"><path class="cls-1" d="m122.96,147.69c-.77-1.2-.39-.79-1.96-2.22-.56-.51-1.59-.78-2.5-1.49-.66-.51-1.31-1.23-2.18-1.85-.71-.5-1.54-.98-2.4-1.55-.74-.49-1.35-1.3-2.22-1.84-.76-.48-1.72-.73-2.58-1.25-.77-.47-1.78-.64-2.64-1.14-.8-.46-1.39-1.25-2.16-1.68s-1.57-.96-2.34-1.37c-.82-.43-1.73-.66-2.52-1.03-.85-.4-1.89-.24-2.7-.55-.88-.35-1.57-1.03-2.4-1.26-.92-.26-1.84,0-2.69-.08-.94-.1-1.76-.37-2.61-.22-.9.16-1.89.05-2.68.52-.73.43-1.38,1.14-2.01,1.88-.54.63-1.24,1.29-1.7,2.16-.39.73-.85,1.57-1.18,2.49-.28.79.27,1.9.03,2.84-.21.82-.46,1.66-.63,2.6-.16.84-.55,1.68-.68,2.62-.12.85.04,2.07-.05,3.01-.77.89-1.26-.14-1.79-1.99-.16-.56.03-1.33-.03-2.33-.04-.67.12-1.41.15-2.31.03-.81-.56-1.71-.43-2.59.12-.82.46-1.64.67-2.48s.43-1.65.73-2.45.9-1.46,1.29-2.21.97-1.36,1.46-2.05.37-1.93.97-2.53,1.84-.42,2.56-.88,1.1-1.6,1.92-1.88,1.75.06,2.63-.01c.8-.06,1.69-.38,2.63-.27.81.1,1.6.67,2.5.89.81.2,1.78.02,2.64.31.8.27,1.52.87,2.36,1.2.79.32,1.6.65,2.41,1.01s1.44.99,2.23,1.39,1.79.32,2.57.74,1.35,1.15,2.12,1.59,1.49.89,2.24,1.35,1.83.37,2.57.84.99,1.69,1.71,2.18,1.77.52,2.48,1.02,1.36,1.13,2.05,1.65,1.13,1.42,1.81,1.95,1.61.79,2.27,1.33c1.17.99.88,1.06,1.99,2.29.67.74,1.38,1.5,1.88,2.33.65,1.09,1.06,1.88.55,2.61-.6.85-1.25,1.33-2.13,1.47-.82.13-1.57-.1-2.49-.72-.66-.44-1.07-1.15-1.72-2.03Z"/><path class="cls-1" d="m177.18,147.76c.77-1.2.77-.32,2.34-1.75.56-.51.92-1.54,1.83-2.25.66-.51,1.39-1.14,2.26-1.76.71-.5,1.96-.35,2.82-.93.74-.49,1.11-1.65,1.98-2.19.76-.48,1.94-.37,2.8-.89.77-.47,1.51-1.09,2.37-1.59.8-.46,1.72-.66,2.49-1.09s1.59-.88,2.37-1.28c.82-.43,1.29-1.52,2.08-1.89.85-.4,1.74-.64,2.55-.96.88-.35,1.82-.36,2.65-.6.92-.26,1.77-.48,2.62-.56.94-.1,1.75.3,2.6.45.9.16,1.59.35,2.38.82.73.43,1.98.34,2.61,1.08.54.63,1.1,1.45,1.56,2.32.39.73.42,1.74.75,2.66.28.79.41,1.69.65,2.63.21.82.74,1.63.92,2.57.16.84.44,1.72.57,2.66.12.85-.27,1.89-.18,2.82.77.89.87.09,1.4-1.76.16-.56.37-1.28.43-2.29.04-.67.33-1.45.3-2.36-.03-.81-.77-1.6-.9-2.48-.12-.82-.33-1.61-.55-2.45s-.25-1.66-.55-2.47,0-1.88-.4-2.63c-.39-.76-1.01-1.45-1.5-2.14s-1.32-1.15-1.92-1.74-1.3-1.07-2.02-1.52-1.29-1.27-2.11-1.54-1.75.25-2.63.18c-.8-.06-1.63-.27-2.56-.16-.81.1-1.73-.04-2.63.18-.81.2-1.69.38-2.55.67-.8.27-1.56.75-2.4,1.09-.79.32-1.65.55-2.46.91s-1.59.71-2.38,1.1-1.33,1.2-2.11,1.62-1.55.78-2.32,1.22-1.74.47-2.5.93-1.44,1.01-2.17,1.48-1.21,1.35-1.93,1.83-1.58.79-2.29,1.29-1.58.82-2.27,1.34-1.32,1.18-2,1.7-1.28,1.21-1.94,1.75c-1.17.99-.84,1.08-1.96,2.31-.67.74-1.77,1.25-2.26,2.08-.65,1.09-1.17,2.36-.66,3.09.6.85,1.65,1.15,2.53,1.29.82.13,1.66-.09,2.59-.71.66-.44,1.1-1.19,1.76-2.08Z"/></g></svg>