<?xml version="1.0" encoding="UTF-8"?><svg id="eyebrow" xmlns="http://www.w3.org/2000/svg" viewBox="0 0 300 300"><defs><style>.cls-1{fill:#003882;}</style></defs><g id="eyebrow_9"><path class="cls-1" d="m121.26,143.75c-.05-.72.43-1.68.27-2.66-.13-.79-.61-1.6-.85-2.5-.21-.8-.21-1.74-.53-2.58-.3-.79-1.15-1.37-1.56-2.16s-.45-1.73-.96-2.46-1.31-1.15-1.92-1.8-1.38-.95-2.09-1.5c-.66-.52-1.16-1.25-1.95-1.69-.73-.41-1.29-1.31-2.13-1.63-.78-.29-1.8,0-2.68-.21-.81-.19-1.67-.14-2.57-.24-.83-.1-1.65-.7-2.55-.72-.83-.02-1.69.51-2.59.57-.14,0-.26-.16-.39-.13-.38.09-1.39-.05-2.56.39-.7.26-1.34.98-2.19,1.4-.72.35-1.28,1.05-2.05,1.52-.69.43-1.83.29-2.53.83-.65.51-.86,1.56-1.48,2.18-.59.59-1.16,1.16-1.69,1.86-.5.66-1.05,1.28-1.48,2.04-.41.72-.8,1.45-1.13,2.27-.3.77-1.2,1.4-1.41,2.26-.2.8.22,1.77.11,2.65-.1.82-.65,1.65-.67,2.54-.02,1.07-.43,1.77-1.48,1.94,0,0-.03-.16-.03-.16-1.29.21-1.95-.41-2-1.72-.03-.76-.65-1.65-.59-2.67.05-.82.11-1.74.27-2.69.14-.84.95-1.56,1.2-2.46.23-.83-.04-1.85.32-2.71.33-.8.5-1.75.95-2.55.43-.75,1-1.51,1.55-2.25.52-.69,1.69-.86,2.33-1.53.6-.62.65-1.89,1.36-2.47.67-.55,1.43-1.1,2.21-1.6.72-.47,1.72-.57,2.55-1,.77-.4,1.72-.42,2.58-.77.8-.33,1.52-.9,2.41-1.18.82-.26,1.77-.14,2.67-.37,1.3-.32.86-1.13,2.49-1.3.77-.08,1.72.72,2.72.7.83-.01,1.74-.57,2.68-.49.85.07,1.81-.04,2.71.13.85.16,1.72.55,2.59.83.83.27,1.7.6,2.52.99s1.53.93,2.29,1.44,1.13,1.38,1.81,2c.63.59,1.24,1.18,1.81,1.91.54.67,1.3,1.2,1.78,2,.44.74.93,1.5,1.3,2.35.34.78.83,1.56,1.11,2.45.49,1.29.33,1.08.84,2.63.25.77.21,1.76.45,2.73.21.86.6,1.73.74,2.65s.53,1.87.51,2.76c-.03,1.16-1.35,1.62-2.51,1.67-.04,0-.04.06-.07.06-1.17.05-2.39-.4-2.48-1.57Z"/><path class="cls-1" d="m219.49,143.71c-.05-.72-.73-1.53-.89-2.51-.13-.79.25-1.77.02-2.66-.21-.8-.83-1.53-1.15-2.38-.3-.79-.42-1.69-.83-2.49s-.61-1.69-1.11-2.41-1.6-.93-2.21-1.58-1.03-1.37-1.73-1.92c-.66-.52-1.51-.76-2.29-1.2-.73-.41-1.28-1.28-2.12-1.6-.78-.29-1.8.11-2.68-.1-.81-.19-1.54-.96-2.44-1.07-.83-.1-1.72.33-2.63.31-.83-.02-1.71-.58-2.62-.52-.14,0-.23.42-.36.45-.38.09-1.31.16-2.49.6-.7.26-1.61.37-2.47.79-.72.35-1.18,1.29-1.95,1.77-.69.43-1.74.44-2.44.98-.65.51-1.22,1.21-1.84,1.83-.59.59-1.31,1.14-1.84,1.83-.5.66-.45,1.72-.88,2.49-.41.72-1.11,1.32-1.43,2.13-.3.77-.46,1.61-.68,2.47-.2.8-.58,1.6-.69,2.48-.1.82-.04,1.69-.05,2.58-.02,1.07-.77,1.69-1.82,1.85,0,0,.05.29.05.29-1.29.21-2.8-.75-2.86-2.05-.03-.76.33-1.68.39-2.69.05-.82-.28-1.79-.12-2.73.14-.84,1.18-1.52,1.43-2.42.23-.83.23-1.74.58-2.59.33-.8.2-1.88.65-2.68.43-.75,1.29-1.29,1.84-2.03.52-.69,1.08-1.39,1.72-2.05.6-.62,1.05-1.48,1.77-2.07.67-.55,1.67-.7,2.45-1.2.72-.47,1.4-1.06,2.23-1.49.77-.4,1.68-.52,2.54-.87.8-.33,1.5-.98,2.39-1.27.82-.26,1.81-.03,2.71-.26,1.3-.32.92-.63,2.55-.8.77-.08,1.67-.23,2.67-.25.83-.01,1.7.5,2.64.58.85.07,1.75-.07,2.66.1.85.16,1.87-.12,2.74.15s1.68.69,2.5,1.08,1.46,1.06,2.22,1.57,1.62.83,2.3,1.45c.63.59,1.16,1.37,1.74,2.09.54.67,1.19,1.35,1.67,2.15.44.74.26,1.83.64,2.68.34.78,1.33,1.35,1.61,2.24.49,1.29-.03,1.21.48,2.75.25.77.24,1.73.48,2.7.21.86,1.17,1.63,1.3,2.55s-.16,1.91-.18,2.8c-.03,1.16-.98,1.89-2.14,1.94-.04,0-.02.47-.06.48-1.17.05-1.88-1.12-1.97-2.29Z"/></g></svg>