<?xml version="1.0" encoding="UTF-8"?><svg id="eyebrow" xmlns="http://www.w3.org/2000/svg" viewBox="0 0 300 300"><defs><style>.cls-1{fill:#003882;}</style></defs><g id="eyebrow_5"><path class="cls-1" d="m116.89,140.87c-1.33-.23-.91-.16-2.7-.37-.74-.09-1.71.5-2.76.41-.81-.07-1.69-.34-2.68-.4-.83-.05-1.74,0-2.7-.03-.85-.03-1.74-.47-2.69-.49-.86-.01-1.76.08-2.71.08-.87,0-1.77-.26-2.71-.24-.87.01-1.76.73-2.69.76-.87.03-1.77.16-2.7.2-.88.04-1.81-.52-2.73-.47s-1.76.46-2.68.53-1.82-.32-2.74-.25-1.74.69-2.66.77-1.78-.06-2.7.03c-1.09-.65-.41-.85.61-2.4.36-.55,1.04-1.07,1.8-1.8.53-.5.91-1.37,1.69-1.95.61-.46,1.51-.66,2.3-1.17,1.21-.61.97-.23,2.61-.7.74-.21,1.62-.42,2.61-.66.81-.2,1.66-.48,2.61-.67.84-.17,1.71-.39,2.65-.53.86-.13,1.71-.63,2.64-.73.87-.1,1.81.18,2.73.12s1.78-.29,2.7-.3,1.78.54,2.69.58,1.85-.63,2.76-.53,1.8.27,2.7.43,1.79.26,2.67.47c1.24.22.93.56,2.35,1.09.69.25,1.69.23,2.5.7.68.4,1.43.93,2.11,1.52.6.52.84,1.5,1.37,2.21.48.64,1.15,1.23,1.53,2.03.6,1.42.45,1.52-1.76,2.16-.7.2-1.68.85-3.05.79-.86-.03-1.78-.99-2.97-1.18Z"/><path class="cls-1" d="m183,141.46c1.33-.23.89,0,2.68-.22.74-.09,1.6-.47,2.66-.55.81-.07,1.68-.53,2.67-.58.83-.05,1.75.03,2.71,0,.85-.03,1.76.46,2.72.45.86-.01,1.75-.11,2.7-.11.87,0,1.76.02,2.7.03.87.01,1.77-.05,2.7-.02.87.03,1.77.07,2.7.11.88.04,1.76.26,2.69.32s1.77.25,2.69.31,1.78.1,2.7.17,1.83-.43,2.75-.34,1.98.69,2.9.78c1.09-.65.11-1.2-.91-2.75-.36-.55-1.1-.98-1.87-1.71-.53-.5-1.03-1.17-1.8-1.76-.61-.46-1.37-.78-2.15-1.29-1.21-.61-.87-.43-2.51-.9-.74-.21-1.56-.65-2.56-.89-.81-.2-1.65-.58-2.6-.77-.84-.17-1.81.15-2.74,0-.86-.13-1.72-.48-2.64-.58-.87-.1-1.77-.22-2.69-.28s-1.78-.48-2.7-.48-1.81.19-2.72.23-1.83-.09-2.73,0-1.71.81-2.61.96-1.81.08-2.7.3c-1.24.22-.97.28-2.39.8-.69.25-1.71.16-2.52.63-.68.4-1.06,1.37-1.73,1.96-.6.52-.96,1.27-1.49,1.97-.48.64-1.56.97-1.95,1.77-.6,1.42-.31,1.69,1.9,2.33.7.2,1.69.43,3.06.37.86-.03,1.9-.08,3.09-.26Z"/></g></svg>