<?xml version="1.0" encoding="UTF-8"?><svg id="eyebrow" xmlns="http://www.w3.org/2000/svg" viewBox="0 0 300 300"><defs><style>.cls-1{fill:#003882;}</style></defs><g id="eyebrow_8"><path class="cls-1" d="m130.35,135.67c.05,1.37-.11,1.14-.68,2.6-.29.75-.31,1.87-1.05,2.59-.58.57-1.71.49-2.67.89-.75.31-1.36,1.72-2.38,1.87-.82.12-1.85-.18-2.87-.2-.9-.02-1.69-1.26-2.56-1.35s-1.8.29-2.66.14-1.78-.1-2.64-.29-1.81-.04-2.67-.26-1.62-.77-2.48-.99-1.5-1.28-2.36-1.49-1.92.5-2.8.32-1.73-.24-2.61-.37-1.64-1.19-2.54-1.26-1.8.37-2.7.37-1.77-.04-2.67.03c-.86.06-1.71.51-2.6.65-.85.13-1.59.84-2.47,1.05-.83.19-1.99-.76-2.87-.5-.82.25-1.64.69-2.49,1-.8.29-1.28,1.49-2.12,1.85-.79.34-2.1-.33-2.92.07-1.16.62-.21,1.64-1.6,2.5-.64.4-1.58.57-2.41,1.1-.69.44-1.79.36-2.57.88-.7.47-1.45.95-2.19,1.47s-1.31,1.18-2.03,1.7-1.07,1.5-1.76,2.04-1.37,1.1-2.03,1.65-1.78.68-2.4,1.26c-.67.63-1.43,1.17-1.98,1.79-.94,1.06-.09,1.61-1.7,2.43-.69.36-1.98-.29-3.03.02-.8.24-1.7.1-2.73.26-.85.13-1.7.18-2.72.22-.88.03-2.21,1.15-3.21,1.09-.7-1.03,1.19-.57,2.57-1.51.56-.39,1.5-.56,2.24-1.2.55-.49,1.37-.9,2-1.57.53-.55.16-2,.74-2.69.5-.6,2-.47,2.53-1.18.47-.63-.18-2.11.31-2.84.44-.66,1.58-.41,2.04-1.15-1.49.24-1.33.02-2.79.8-.85.46-1.52,1.18-2.48,1.42-.14-1.5,1.19-.02,2.68-1.25.65-.54.72-1.97,1.55-2.78.65-.64,1.99-.76,2.71-1.58.56-.63.79-1.62,1.36-2.34.53-.67,1.64-.92,2.21-1.62s.53-1.81,1.13-2.49.72-1.77,1.37-2.4,1.84-.57,2.56-1.12,1.03-1.62,1.82-2.08c.74-.43,2.01.16,2.86-.2.79-.33,1.28-1.11,2.16-1.36-.82-1.15-1.08.04-2.71.04-.85,0-1.72.49-2.71.63-.93.13-1.77.12-2.64.46s-1.59-.29-2.22.38c-1.14-.58.31.36,1.68-.72.53-.42.77-1.41,1.74-1.83.68-.29,1.28-1.24,2.23-1.49.74-.19,1.65-.28,2.59-.43s1.87.34,2.66.18c.91-.18,1.68-.66,2.47-.85.88-.21,1.76-.21,2.57-.41s1.6-.68,2.45-.87,1.72.07,2.61-.08c.8-.13,1.58-.73,2.5-.83.8-.08,1.71.76,2.63.71.8-.04,1.62-.83,2.55-.84s1.78.84,2.65.89c.92.05,1.92-1.23,2.78-1.13s1.64,1.23,2.51,1.39,1.85-.16,2.72.04,1.5,1.31,2.37,1.53,1.84-.07,2.72.16,1.93-.43,2.82-.2,1.71.32,2.61.53c.84.2,1.51,1.26,2.42,1.45.82.17,1.71-.31,2.53-.23s1.61.85,2.43.89c.86.04,1.73-.81,2.53-.78.88.04,1.65,1,2.42,1.09.91.11,1.57.44,2.25.74.8.35,1.56.46,1.95,1.22.33.62.53,1.38.52,2.38Z"/><path class="cls-1" d="m165.56,135.64c-.05,1.37-.03,1.55.54,3.01.29.75,1.98.77,2.72,1.49.58.57.55,2.3,1.51,2.7.75.31,1.81.62,2.84.76.82.12,1.83-1.07,2.85-1.09.9-.02,1.76.15,2.63.06s1.88.56,2.74.41,1.7-.63,2.56-.83,1.45-1.49,2.31-1.71,1.92.39,2.77.17,1.55-1.07,2.41-1.28,1.95.67,2.83.49,1.65-.69,2.53-.82,1.7-.58,2.6-.65,1.77.75,2.67.75,1.68.2,2.59.26c.86.06,1.74-.29,2.64-.16.85.13,1.75.03,2.64.23.83.19,1.63.58,2.51.84.82.25,1.89-.15,2.75.16.8.29,1.43,1.13,2.27,1.49.79.34,1.38,1.08,2.21,1.48,1.16.62,1.19-.09,2.58.77.64.4,1.38.9,2.21,1.43.69.44.96,1.62,1.74,2.14.7.47,1.96.19,2.7.7s.87,1.77,1.59,2.29,2.11.12,2.8.66.88,1.73,1.54,2.29,1.44,1.05,2.05,1.63c.67.63,1.54,1.01,2.1,1.63.94,1.06.61.82,2.22,1.64.69.36,1.61.49,2.67.81.8.24,1.64.72,2.67.87.85.13,1.81-.54,2.83-.51.88.03,2.42,1.23,3.43,1.17.7-1.03-1.38-.75-2.76-1.7-.56-.39-1-1.12-1.74-1.77-.55-.49-1.67-.52-2.31-1.19-.53-.55-1.48-.87-2.06-1.56-.5-.6.1-2.14-.43-2.85-.47-.63-1.13-1.15-1.62-1.88-.44-.66-1.1-1.75-1.56-2.49,1.49.24.86,1.69,2.31,2.48.85.46,2.02.65,2.98.89.14-1.5-.8-.76-2.29-1.99-.65-.54-1.96-.59-2.78-1.4-.65-.64-.86-1.84-1.59-2.66-.56-.63-.68-1.66-1.25-2.38-.53-.67-1.91-.7-2.48-1.41s-.94-1.47-1.54-2.15-.46-2.02-1.11-2.65-1.73-.76-2.45-1.31-1.67-.64-2.46-1.1c-.74-.43-1.18-1.59-2.02-1.95-.79-.33-1.76.02-2.65-.23.82-1.15,1.09-.14,2.72-.14.85,0,1.82,0,2.81.13.93.13,2.17-.46,3.03-.12s1.34,1.44,1.97,2.12c1.14-.58-.46-.23-1.84-1.32-.53-.42-.73-1.59-1.71-2-.68-.29-1.42-.9-2.37-1.15-.74-.19-1.83.87-2.77.71s-1.62-1.15-2.4-1.3c-.91-.18-1.62-.86-2.41-1.04-.88-.21-1.95.58-2.76.38s-1.68-.28-2.53-.47-1.47-1.23-2.36-1.38c-.8-.13-1.69-.01-2.61-.11-.8-.08-1.62-.83-2.54-.88-.8-.04-1.72,1.56-2.64,1.55s-1.79-.44-2.65-.4c-.92.05-1.74.46-2.6.56s-1.71.37-2.58.53-2.04-1.08-2.91-.88-1.54,1.22-2.41,1.44-1.96-.51-2.84-.28-1.48,1.29-2.37,1.51-1.8.05-2.69.26c-.84.2-1.61.85-2.51,1.04-.82.17-1.62.68-2.44.76s-1.73-.41-2.54-.37c-.86.04-1.71-.34-2.5-.3-.88.04-1.61,1.13-2.38,1.23-.91.11-1.67-.09-2.36.21-.8.35-.82.94-1.22,1.7-.33.62-2.03,1-2.03,2Z"/></g></svg>