<?xml version="1.0" encoding="UTF-8"?><svg id="eyebrow" xmlns="http://www.w3.org/2000/svg" viewBox="0 0 300 300"><defs><style>.cls-1{fill:#003882;}</style></defs><g id="eyebrow_11"><path class="cls-1" d="m123.68,140.81c-.83.12-.79.58-1.62.45s-.76-.57-1.59-.69-.84-.08-1.67-.2-.89.27-1.72.14-.77-.54-1.6-.66-.8-.33-1.63-.46-.87.13-1.7,0-.89.25-1.72.13c-.83-.12-.79-.39-1.62-.52s-.77-.52-1.6-.64-.92.48-1.75.35-.75-.65-1.58-.77-.86.09-1.7-.03-.84-.04-1.68-.17-.84-.06-1.67-.19-.78-.49-1.61-.61-.87.13-1.71.01-.82.06-1.57-.34c-.8-.43-.53-.48-.54-1.58,0-.53-.04-1.19.04-1.85.07-.57.47-1.14.63-1.75.15-.56.24-1.19.5-1.76.24-.54,1.02-.76,1.38-1.27.34-.48.39-1.18.86-1.61.42-.39,1.07-.5,1.61-.83.49-.3.87-.83,1.47-1.07.52-.21,1.02-.71,1.61-.79.55-.08,1.17.45,1.77.46.56.01,1.1.11,1.69.19.56.08,1.13.08,1.7.21s1.18,0,1.74.18.89.92,1.44,1.12,1.08.35,1.61.57,1.03.49,1.56.72,1.33-.12,1.85.14.86.89,1.36,1.15.98.63,1.47.9c.53.29,1.07.5,1.55.77.53.31.94.75,1.39,1.03.56.34,1.41.08,1.82.34.91.59.82.37,1.51.88.73.54.11.94.59,1.87.24.46.39.92.47,1.61.06.54.64,1.15.5,1.82-.11.53-.98.84-1.27,1.45-.24.49-.19.74-.58,1.28Z"/><path class="cls-1" d="m94.71,125.51c-.38.72-.36.5-.8,1.41-.2.42-.22.99-.45,1.55-.19.47-.79.81-.98,1.35-.17.49-.81.88-.96,1.42-.14.51-.04,1.12-.15,1.66s-.47,1.05-.53,1.59.45,1.35.44,1.89c-.81.26-.92-.44-1.77-.44s-.85.39-1.64.06-.21-.55-.05-1.62c.08-.51.59-1.03.72-1.67.1-.55.43-1.07.58-1.67.13-.56.04-1.19.21-1.76s0-1.26.21-1.8.7-1.01.96-1.52c.28-.55.9-.81,1.24-1.25.38-.5.39-1.34.86-1.64.93-.27,1.05.21,1.63.76.33.31.97.71.5,1.67Z"/><path class="cls-1" d="m87.64,125.53c-.07.91-.36.59-.72,1.64-.17.5-.24,1.14-.44,1.79-.17.55-.58,1.09-.74,1.71-.15.58-.02,1.25-.14,1.86s-.26,1.21-.34,1.81.18,1.52.18,2.11c-.83.45-1.01.18-1.93.39-.92.21-1.03.77-1.96.64-.85-.12.08-1.13.2-2.16.06-.49.62-1,.72-1.62.08-.53-.06-1.13.06-1.71.11-.55.5-1.03.65-1.59s-.37-1.31-.19-1.84.82-.92,1.06-1.42c.26-.54.49-1.03.81-1.47.39-.53.46-1.17.76-1.42.64-.52,1.1-.15,1.41.1.51.41.68.42.62,1.2Z"/><path class="cls-1" d="m175.63,141.17c.83.12.81-.01,1.64-.13s.9.38,1.73.25.81-.27,1.64-.39.85.02,1.68-.11.71-.92,1.54-1.04.87.12,1.7,0,.78-.47,1.61-.6.94.58,1.77.46.75-.65,1.58-.77.82-.2,1.65-.32.9.34,1.73.21.85-.02,1.68-.14.81-.26,1.64-.38.87.13,1.7,0,.79-.39,1.62-.52.84-.08,1.67-.2.77-.58,1.6-.7.86.23,1.6-.17c.8-.43-.21-.51-.2-1.6,0-.53.41-1.14.34-1.81-.07-.57.3-1.29.14-1.91-.15-.56-.6-1.11-.86-1.68-.24-.54-.34-1.26-.71-1.77-.34-.48-1.28-.49-1.75-.92-.42-.39-.63-1.12-1.18-1.45-.49-.3-1.08-.55-1.68-.79-.52-.21-1.18.02-1.77-.06-.55-.08-1.1-.53-1.7-.52-.56.01-1.19-.14-1.78-.06-.56.08-1.1.44-1.68.57s-1.01.64-1.57.81-1.18.09-1.72.29-1.23.03-1.77.25-.83,1.01-1.36,1.24-1.29,0-1.8.26-.95.72-1.46.98-1,.62-1.49.89c-.53.29-1,.63-1.48.91-.53.31-1.22.3-1.68.58-.56.34-.92.88-1.33,1.14-.91.59-.82.35-1.52.87-.73.54-.23.82-.72,1.75-.24.46-.37.95-.44,1.63-.06.54-.34,1.1-.19,1.76.11.53.41,1.04.71,1.65.24.49.43.96.82,1.5Z"/><path class="cls-1" d="m204.97,125.35c.38.72-.06.72.38,1.62.2.42.97.67,1.2,1.24.19.47.45.97.64,1.51.17.49.25,1.06.4,1.6.14.51.14,1.08.25,1.62s.26,1.06.32,1.61-.02,1.09,0,1.63c.81.26.85.51,1.7.51s1.06.16,1.84-.17.29-1.09.13-2.15c-.08-.51-.97-.96-1.09-1.61-.1-.55.02-1.17-.13-1.77-.13-.56-.62-1.03-.79-1.61s.32-1.36.11-1.9-.94-.9-1.2-1.41c-.28-.55-.63-.98-.96-1.43-.38-.5-.52-1.26-.98-1.56-.93-.27-1.5-.25-2.09.29-.33.31-.2,1.02.27,1.99Z"/><path class="cls-1" d="m211.28,125.57c.07.91.73.58,1.09,1.63.17.5.63,1.02.82,1.67.17.55-.16,1.29,0,1.91.15.58.39,1.16.51,1.76s.62,1.17.69,1.77-.3,1.24-.3,1.82c.83.45.82.61,1.74.81s.95-.04,1.89-.17c.85-.12-.31-.39-.43-1.43-.06-.49-.03-1.07-.13-1.7-.08-.53-.05-1.12-.17-1.7-.11-.55-.3-1.09-.44-1.65s-.2-1.14-.38-1.67.05-1.31-.19-1.81c-.26-.54-.72-1.04-1.04-1.47-.39-.53-.71-1.08-1.01-1.32-.64-.52-1.21.15-1.52.4-.51.41-1.18.38-1.12,1.16Z"/></g></svg>