<?xml version="1.0" encoding="UTF-8"?><svg id="face" xmlns="http://www.w3.org/2000/svg" viewBox="0 0 300 300"><defs><style>.cls-1{fill:#fdd6c9;}</style></defs><path id="face_3" class="cls-1" d="m249.53,147.93c-4.05-64.73-35.29-71.84-35.29-71.84-19.09-8.99-42.81-14.41-55.43-13.97-5.87.2-11.74.2-17.61,0-12.62-.44-34.06,4.98-53.15,13.97,0,0-29.23,6.22-35.19,69.98,0,0-5.26,52.41,3.74,100.3,0,0,.44,23.59,53.43,22.61l40.1.85v.13l1.01-.06,1.01.06v-.13l40.78.13c56.6.13,55.42-39.77,55.42-39.77,1.33-47.13,1.17-82.25,1.17-82.25Z"/></svg>