<?xml version="1.0" encoding="UTF-8"?>
<svg id="_層_1" xmlns="http://www.w3.org/2000/svg" viewBox="0 0 300 300">
    <path d="M44.37,255.85s27.54,30.94,72.7,40.19l9.86-35.82s-13.03-9.02-31.65,3.95c0,0-10.97-11.44-25.94-1.73,0,0-9.36-12.92-24.96-6.59Z"
          style="fill:#f57556;"/>
    <path d="M257.31,255.85s-27.54,30.94-72.7,40.19l-9.86-35.82s13.03-9.02,31.65,3.95c0,0,10.97-11.44,25.94-1.73,0,0,9.36-12.92,24.96-6.59Z"
          style="fill:#f57556;"/>
    <path d="M126.01,297.78s29.26,4.67,50.67-.42c0,0,.2-1.27-1.42-1.1s-8.32,1.99-14.14,1.94,12.51-3.89,12.51-3.89l-3.35-1.6-10.55,3.51s-2,.59-1.33-1.13,5.32-5.49,5.32-5.49l-2.49-.66s-3.82,6.59-5.76,6.42-.61-7.32-.61-7.32l-3.1-.33s1.99,6.76-.39,7.15-4.6-7.15-4.6-7.15l-2.83,.67s6.04,5.93,3.21,6.87-10.03-5.14-10.03-5.14l-3.1,1.43s11.69,4.32,9.7,5.76-10.91,.38-15.17-1.46c0,0-2.05,.27-2.53,1.92Z"
          style="fill:#714100;"/>
    <path d="M113.75,43.02c0,1.12-1.41,2.15-1.55,3.24s.85,2.44,.57,3.5-1.1,2.04-1.52,3.05-1.82,1.53-2.37,2.49-.13,2.55-.8,3.43-1.82,1.38-2.6,2.16-1.33,1.86-2.21,2.54-2.04,.97-3,1.52-1.77,1.46-2.8,1.88-2.41-.3-3.48-.01-2.02,.72-3.13,.87-2.13,.8-3.25,.8-2.35,.76-3.43,.62-1.98-1.64-3.04-1.92-2.33-.03-3.35-.45-1.64-1.65-2.6-2.2-2.67-.04-3.54-.71-1.07-2.21-1.85-2.99-1.18-1.84-1.86-2.72-2.19-1.19-2.75-2.15-1.31-1.91-1.73-2.94,.37-2.48,.09-3.55-.08-2.14-.22-3.25-.2-2.08-.2-3.2-.5-2.19-.36-3.27-.09-2.28,.19-3.33,.62-2.16,1.04-3.17,1.89-1.49,2.44-2.44,.68-2.11,1.36-2.98,1.37-1.67,2.16-2.45,1.69-1.34,2.57-2.01,1.96-.86,2.92-1.41,1.78-1.1,2.8-1.53,1.75-1.51,2.82-1.79,2.2,.02,3.31-.12,2.11-1.15,3.23-1.15,2.25,.26,3.33,.4,1.99,1.22,3.04,1.5,2.39-.23,3.4,.19,1.85,1.25,2.8,1.8,2.55,.26,3.43,.93,.78,2.51,1.56,3.29,1.65,1.43,2.32,2.31,1.92,1.39,2.47,2.35-.02,2.45,.41,3.48,2.23,1.58,2.52,2.65,.24,2.29,.38,3.39,.46,2.26,.46,3.38Z"
          style="fill:#f30000;"/>
    <path d="M80.27,63.2c-1.05-.38-2.2-.5-3.16-1.03s-1.67-1.47-2.54-2.14-1.7-1.36-2.47-2.15-1.55-1.55-2.19-2.46-1.58-1.65-2.07-2.64-.4-2.22-.74-3.28-1.07-2.01-1.24-3.12-.07-2.22-.07-3.35"
          style="fill:none; stroke:#f3bd09; stroke-linecap:round; stroke-miterlimit:10; stroke-width:1.96px;"/>
    <path d="M108.23,49.5c-.37,1.17-.63,2.38-1.18,3.46s-1.21,2.14-1.93,3.11-1.71,1.74-2.59,2.58-1.7,1.77-2.71,2.45"
          style="fill:none; stroke:#f3bd09; stroke-linecap:round; stroke-miterlimit:10; stroke-width:1.96px;"/>
    <path d="M152.3,27.18c0,1.12-.74,2.1-.88,3.18s-.21,2.1-.49,3.16,.06,2.3-.36,3.31-1.06,1.92-1.61,2.87-.98,1.98-1.65,2.85-1.82,1.28-2.6,2.06-1.78,1.16-2.65,1.83-1.36,1.77-2.32,2.32-1.63,1.67-2.66,2.09-2.29,.07-3.37,.36-2.06,.69-3.17,.83-2.16,.31-3.28,.31-2.27,.39-3.35,.25-2.37,.14-3.43-.15-1.64-2.11-2.65-2.53-2.52,.13-3.47-.42-2.11-.97-2.98-1.64-1.55-1.71-2.33-2.49-.91-2.15-1.58-3.02-1.01-1.9-1.56-2.86-1.89-1.5-2.32-2.52,.24-2.37-.05-3.45-1.7-1.89-1.84-2.99,.89-2.25,.89-3.37-.91-2.27-.76-3.35,.34-2.24,.62-3.3,1.6-1.78,2.02-2.79,.08-2.41,.63-3.36,1.98-1.31,2.65-2.18,1.27-1.72,2.05-2.5,1.36-1.72,2.23-2.39,1.23-2.2,2.18-2.75,2.55,.15,3.58-.27,1.67-1.95,2.75-2.24,2.29-.06,3.4-.21,2.22,.81,3.34,.81,2.28-1.17,3.37-1.03,2.12,.89,3.17,1.17,2.29,.22,3.3,.64,1.86,1.29,2.81,1.84,2.15,.81,3.02,1.49,.95,2.24,1.73,3.02,1.64,1.4,2.32,2.27,1.77,1.45,2.32,2.41,1.83,1.64,2.25,2.66-.43,2.52-.15,3.59,1.14,2.02,1.28,3.12-.39,2.23-.39,3.35Z"
          style="fill:#c60001;"/>
    <path d="M198.31,27.18c0,1.12-.33,2.25-.47,3.33s-1.04,2.04-1.32,3.1-.46,2.13-.88,3.14-.02,2.49-.57,3.44-1.92,1.42-2.6,2.29-1.81,1.27-2.59,2.05-1.49,1.5-2.37,2.18-1.32,1.92-2.28,2.48-1.66,1.76-2.68,2.19-2.4-.06-3.48,.23-2.21-.06-3.32,.09-2.11,.7-3.23,.7-2.13-.65-3.22-.79-2.22,.1-3.28-.19-2.25-.25-3.27-.67-1.44-1.95-2.4-2.51-2.71,.13-3.58-.54-1.85-1.36-2.63-2.14-.34-2.62-1.01-3.5-1.54-1.52-2.09-2.47-.67-2.03-1.09-3.05-1.93-1.63-2.22-2.71,.3-2.29,.16-3.4-.42-2.12-.42-3.24,.74-2.1,.88-3.18,.21-2.1,.49-3.16-.06-2.3,.36-3.31,1.06-1.92,1.61-2.87,.98-1.98,1.65-2.85,1.82-1.28,2.6-2.06,1.78-1.16,2.65-1.83,1.36-1.77,2.32-2.32,1.63-1.67,2.66-2.09,2.29-.07,3.37-.36,2.06-.69,3.17-.83,2.16-.31,3.28-.31,2.27-.39,3.35-.25,2.37-.14,3.43,.15,1.64,2.11,2.65,2.53,2.52-.13,3.47,.42,2.11,.97,2.98,1.64,1.55,1.71,2.33,2.49,.91,2.15,1.58,3.02,1.01,1.9,1.56,2.86,1.89,1.5,2.32,2.52-.24,2.37,.05,3.45,1.7,1.89,1.84,2.99,.22,2.25,.22,3.37Z"
          style="fill:#f30000;"/>
    <path d="M238.92,42.67c0,1.12-.1,2.26-.25,3.34s-.42,2.22-.7,3.27-.44,2.24-.86,3.25-2.09,1.41-2.64,2.36,0,2.64-.66,3.52-1.57,1.65-2.35,2.43-2.35,.63-3.23,1.31-1.1,2.28-2.06,2.84-2.39,.12-3.42,.54-2.07,.46-3.14,.75-1.98,.88-3.08,1.03-2.13,1.57-3.24,1.57-2.16-1.44-3.24-1.59-2.44,.82-3.5,.54-1.89-1.45-2.91-1.87-2.13-.7-3.08-1.25-2.15-.85-3.02-1.52-.88-2.34-1.66-3.12-2.26-.93-2.93-1.8-1.63-1.64-2.18-2.6-.72-2.18-1.14-3.2-.89-2.07-1.18-3.14-.77-2.16-.92-3.27-.02-2.27-.02-3.39,.33-2.25,.47-3.33,1.04-2.04,1.32-3.1,.46-2.13,.88-3.14,.02-2.49,.57-3.44,1.92-1.42,2.6-2.29,1.81-1.27,2.59-2.05,1.49-1.5,2.37-2.18,1.32-1.92,2.28-2.48,1.66-1.76,2.68-2.19,2.4,.06,3.48-.23,2.21,.06,3.32-.09,2.11-.7,3.23-.7,2.13,.65,3.22,.79,2.22-.1,3.28,.19,2.25,.25,3.27,.67,1.44,1.95,2.4,2.51,2.71-.13,3.58,.54,1.85,1.36,2.63,2.14,.34,2.62,1.01,3.5,1.54,1.52,2.09,2.47,.67,2.03,1.09,3.05,1.93,1.63,2.22,2.71-.3,2.29-.16,3.4,1.01,2.12,1.01,3.24Z"
          style="fill:#c60001;"/>
    <path d="M108.8,19.57c0,1.39,.98,3.02,.33,4.14s-2.04,2.08-3.19,2.75-2.6,.19-3.98,.19-2.85,.44-3.97-.21-1.56-2.15-2.23-3.3-.92-2.19-.92-3.58,.02-2.61,.67-3.72,1.1-2.88,2.25-3.55,2.81-.07,4.2-.07,3.01-.45,4.12,.2,1.86,2.15,2.53,3.3,.19,2.46,.19,3.84Z"
          style="fill:#fff;"/>
    <path d="M148.8,51.88c-1.04-.13-1.84-.62-2.44-1.38s-1.35-1.71-1.22-2.76,.79-2.16,1.55-2.76,1.98-.71,3.02-.58,2.12,.58,2.71,1.35,.84,1.92,.71,2.97-.66,2.08-1.43,2.68-1.87,.6-2.91,.48Z"
          style="fill:#fff;"/>
    <path d="M52.2,57.73c-1.37-.17-2.84-.38-3.63-1.38s-1.16-2.55-.99-3.92,.95-2.72,1.95-3.51,2.46-.79,3.82-.62,2.41,.81,3.19,1.81,1.77,2.25,1.6,3.61-1.03,2.83-2.04,3.62-2.55,.56-3.91,.39Z"
          style="fill:#fff;"/>
    <path d="M246.68,52.88c-1.37-.17-2.11-1.03-2.9-2.04s-1.96-2-1.79-3.37,.94-2.83,1.95-3.61,2.54-.58,3.9-.41,2.84,.39,3.62,1.39,1.16,2.55,.99,3.91-.94,2.72-1.95,3.51-2.46,.78-3.82,.62Z"
          style="fill:#fff;"/>
    <path d="M149.77,4.41c1.42,.27,2.36,.99,3.11,2.1s1.72,2.38,1.45,3.79-1.14,2.99-2.24,3.74-2.78,.41-4.2,.14-2.14-1.23-2.89-2.34-1.9-2.23-1.63-3.65,1.18-2.89,2.29-3.64,2.69-.41,4.11-.14Z"
          style="fill:#fff;"/>
    <path d="M110.8,14.31c.68-.88,1.29-1.84,2.09-2.6s1.6-1.62,2.5-2.25,2.24-.56,3.23-1.05,1.97-.88,3.02-1.21,2.06-.68,3.15-.85,2.15-.18,3.26-.18,2.18-.15,3.28,.02,2.21,.18,3.28,.52"
          style="fill:none; stroke:#f3bd09; stroke-linecap:round; stroke-miterlimit:10; stroke-width:1.96px;"/>
    <path d="M115.59,45.46c-1.01-.7-1.77-1.68-2.63-2.53s-1.95-1.55-2.66-2.53-1.19-2.15-1.73-3.24-1.07-2.21-1.42-3.38"
          style="fill:none; stroke:#f3bd09; stroke-linecap:round; stroke-miterlimit:10; stroke-width:1.96px;"/>
    <path d="M175.95,7.02c1.1,.17,2.12,.53,3.16,.86s2.04,.75,3.02,1.24,1.94,.98,2.85,1.61,1.93,1.11,2.73,1.87,1.64,1.51,2.32,2.39,.93,2.02,1.46,2.99,1.51,1.74,1.89,2.79,.4,2.19,.62,3.3"
          style="fill:none; stroke:#f3bd09; stroke-linecap:round; stroke-miterlimit:10; stroke-width:1.96px;"/>
    <path d="M151.25,26.01c.13-1.22,.23-2.43,.56-3.59s.65-2.36,1.18-3.46,1.31-2.05,2.01-3.05,1.53-1.86,2.39-2.73"
          style="fill:none; stroke:#f3bd09; stroke-linecap:round; stroke-miterlimit:10; stroke-width:1.96px;"/>
    <path d="M232.17,33.66c.48,1.01,.87,2.11,1.18,3.16s.45,2.22,.6,3.31,.36,2.25,.35,3.35-.22,2.26-.4,3.35-1.12,1.99-1.47,3.05-.52,2.13-1.03,3.12-.88,2.04-1.54,2.95-1.63,1.48-2.42,2.28"
          style="fill:none; stroke:#f3bd09; stroke-linecap:round; stroke-miterlimit:10; stroke-width:1.96px;"/>
    <path d="M101.9,48.38c-2.17,1.1-7.58-1.25-9.52-2.45-.62-.37-1.13-.89-1.85-1.08-.26-.09-.52-.05-.77,.08-.2,.1-.36,.27-.47,.48-.28,.61-.55,2.35-.69,3.11-.44,2.39-1.03,4.83-2.26,6.94-.31,.5-.64,1.31-1.16,1.58-.94,.47-3.62-.34-4.09-1.28l-.08-.4c.18-.56,.46-1.1,.67-1.67,.51-1.19,.98-2.42,1.42-3.63,.53-1.48,.92-2.98,1.06-4.53,.15-1.54-.03-3.12-.38-4.62-.44-1.92-1.24-3.74-2.12-5.47-.24-.47-.76-1.51-.49-2.01,.27-.51,1.26-.95,1.75-1.2,.57-.29,1.78-.96,2.41-.57,.36,.22,.81,.99,1.02,1.34,.51,.89,1.06,1.73,1.62,2.59,1.52,2.27,3.36,4.38,5.68,5.84,.72,.44,1.44,.83,2.22,1.14,.97,.38,6.79,1.53,7.06,2.07,.46,.92-.12,3.26-1.06,3.73Z"
          style="fill:#f3bd09;"/>
    <path d="M115.93,26.52c0-6.14,.86-6.78,6.89-6.78,.66,0,1.74,.06,2.32-.28,1.58-.97-.91-3.93,2.93-3.93,.89,0,2.85-.03,2.85,1.27,0,.36-.03,.75-.03,1.14,0,.66,.17,1.05,.72,1.44,1,.75,5.84-.05,7.75,1.11,1.44,.86,1.49,4.59,1.49,6.09v3.24c0,3.57-.28,4.73-4.18,4.73-1.08,0-.58-.55-.97-1-.39-.41-1.85-.33-2.32-.33-2.13,0-2.49,.69-2.49,2.71,0,.75,.06,1.52,.06,2.27,0,1.6-.72,2.46-2.35,2.46s-2.85-.14-2.85-2.05c0-.78,.08-1.58,.08-2.38,0-1.99-.28-3.02-2.52-3.02-.64,0-1.61-.03-2.16,.33-.58,.39,.14,.97-1.44,.97-3.85,0-3.79-1.55-3.79-4.84v-3.16Zm9.82,.41c0-2.55,.06-3.07-2.74-3.07-2.08,0-2.16,1.25-2.16,2.96,0,2.38,.66,2.49,2.85,2.49,1.69,0,2.05-.83,2.05-2.38Zm10.16-1.16c0-1.74-.97-1.91-2.46-1.91-1.41,0-2.35,.25-2.35,1.88v1.49c0,1.77,.8,2.08,2.41,2.08,1.83,0,2.41-.36,2.41-2.27v-1.27Z"
          style="fill:#f3bd09;"/>
    <path d="M171.8,33.69c0,1.6,6.61,1.72,7.8,1.72,1.33,0,2.66-.19,3.99-.19,.3,0,.55,.14,.55,.47,0,2.49-.64,3.9-3.38,3.9-.91,0-1.85-.06-2.8-.06-2.38,0-4.79-.14-7.06-.91-.97-.33-5.48-3.02-5.76-3.02-1.52,0-1.27,3.62-2.69,3.62-1.05,0-3.38-1.49-3.38-2.63s2.44-7.31,3.27-8.14c.64-.64,1.55-.53,2.38-.53,.22,0,.5,.05,.72,.08,1.83,.22,1.38,1.94,2.46,1.94,1.36,0,7.64-4.32,7.64-5.7,0-.14-.03-.25-.11-.36-.53-.78-5.65-.75-6.73-.75-1.85,0-3.74,.06-5.59,.06-1.11,0-2.99,0-2.99-1.52,0-.47,0-1,.19-1.44,.75-1.77,6.14-.61,7.78-1.38,1.91-.91-1.05-3.49,3.43-3.49,.64,0,2.38,0,2.41,.94v.86c0,.44,.06,.91,.33,1.27,.89,1.16,7.28,.06,8.14,1.49,.33,.55,.5,1.55,.5,2.19,0,2.71-4.9,6.95-7,8.47-.89,.64-1.8,1.27-2.74,1.83-.44,.25-.86,.55-1.22,.91l-.17,.36Z"
          style="fill:#f3bd09;"/>
    <path d="M214.06,31.19c-.23,.5,.83,1.03,1.19,1.19,.3,.14,.65,.24,.95,.38,.98,.46,.43,1.57,.1,2.28-.89,1.91-1.9,.28-2.51,1.58-.22,.48,.74,.65,.99,1.1,.17,.29-.12,.86-.25,1.13-.15,.33-.27,.7-.62,.87-.9,.43-7.01-2.52-7.94-2.96-.5-.23-1.04-.39-1.54-.62-.9-.42-2.27-1.15-1.7-2.38,1.01-2.18,2.07,.08,2.5-.85,.66-1.43-1-1.07-.44-2.28,.99-2.13,1.33-1.88,3.37-1.27,.3,.08,.69,.23,1,.16,.8-.14,.45-.71,1.21-.84,.73-.12,2.46,.69,3.14,1,.78,.36,.9,.75,.55,1.51Zm-10.12,16.91c.58,.27,.75,.35,1.04-.28,.2-.43-.4-.71-.7-.85-.88-.41-1.44-.45-1.88,.5-.28,.6-.37,1.26-.66,1.89-.36,.78-.99,.76-1.7,.43-.6-.28-1.33-.62-1.74-1.18-.17-.23-.28-.53-.32-.82-.23-1.42,1.83-6.5,2.51-7.96,1.23-2.64,2.79-3.71,5.6-2.4,1.13,.53,2.27,1.09,3.43,1.62,.85,.4,2.21,1.09,2.55,2.01,.15,.4,.19,.85,.11,1.27-.13,.95-.63,1.81-1,2.68-.73,1.77-1.52,3.54-2.33,5.27-1.34,2.89-2.22,2.87-4.98,1.59-1.73-.81-1.5-2.1-.81-3.58,.09-.2,.16-.35,.38-.43,.2,.03,.33,.15,.5,.23Zm2.92-6.28c.28,.13,.63,.29,.79-.06,.14-.3-.03-.59-.3-.72l-1.25-.58c-.3-.14-.59-.18-.75,.17s.27,.61,.54,.74l.98,.46Zm-.59,3.05l-.04-.63c-.09-.07-.25-.18-.35-.23l-1.15-.54c-.3-.14-.56-.23-.74,.14-.19,.4,.28,.65,.58,.79l.53,.25c.33,.15,.66,.28,1.01,.38l.17-.17Zm3.54-11.29c-.25-.12-.64-.27-.79,.06-.2,.43-.1,1.2,.38,1.42,.3,.14,1.29-.34,1.43-.65,.15-.32-.36-.53-.59-.64l-.43-.2Zm3.26,9.66c.99-2.13,2.01-3.67,4.52-2.51,.15,.07,.33,.15,.49,.26,.77,.45,1.58,.86,2.39,1.23,.23,.1,.63,.02,.91,.15l.02-.17c-.22-.44-1.6-1.02-2.08-1.24-.35-.16-.69-.29-1.04-.45-.53-.25-1.07-.53-1.55-.87-1.4-.99-.91-2.38-.3-3.68,.27-.58,.5-1.14,.77-1.72,.33-.7,.81-1.42,1.63-1.59,.68-.14,1.51,.3,2.08,.57,.35,.16,1.49,.72,1.64,1.07,.4,.85-.77,1.26,1.39,2.26,.55,.26,1.09,.48,1.62,.72,1.48,.69,3.29,1.65,2.39,3.59-.38,.83-2.22,.04-2.82-.24-1.05-.49-2.04-1.13-3.12-1.63-.18-.08-.75-.29-.92-.18-.21,.45,1.8,1.32,2.12,1.47,.43,.2,.88,.35,1.3,.55,2.59,1.2,2.47,2.31,1.37,4.67-.7,1.51-2.84,.6-3.92,.1-.8-.37-1.56-.85-2.36-1.22-.3-.14-.65-.24-1-.16-.04,.41,1.33,1.02,1.65,1.17,.9,.42,1.85,.74,2.73,1.15,.93,.43,2.29,1.18,1.7,2.44-.12,.25-.3,.44-.57,.5-.28,.08-.53,.03-.78-.09-.8-.37-1.64-.73-2.46-1.08-.91-.4-1.79-.8-2.71-1.2-.18-.08-.78-.24-.89,.01-.15,.33,1.24,.82,1.46,.93l3.79,1.76c.63,.29,1.35,.72,.98,1.49-.25,.53-.57,.9-1.21,.84-.91-.09-4.1-1.63-4.82-1.97-.18-.08-1.38-.64-1.5-.39-.15,.32,.57,.69,.79,.79,1.48,.69,3.03,1.29,4.51,1.98,.4,.19,1.09,.35,.96,.96-.04,.22-.43,.8-.27,.97,.24,.27,.62,.38,.41,.83-.4,.85-.97,1.69-1.83,2.11-2.39,1.15-5.32-.12-7.55-1.16l-2.11-.98c-2.26-1.05-2.25-2.57-1.26-4.64l3.43-7.38Zm1.41,9.38c-.04,.08-.05,.16-.08,.24l.04,.17c.06,.06,.13,.12,.2,.16l1.48,.69c.35,.16,1.15,.35,1.35-.08v-.15l-.24-.26-1.78-.83c-.2-.09-.59-.24-.81-.16l-.11,.1-.06,.12Z"
          style="fill:#f3bd09;"/>
    <path d="M76.39,31.96c0,.29,.42,.63,.33,.89s-.15,.65-.32,.87-.87-.1-1.1,.07-.17,.83-.44,.92-.61-.34-.89-.34-.48-.06-.74-.14-.68,.15-.91,0-.59-.3-.75-.52,.23-.74,.14-1.01-.75-.45-.75-.73,.14-.65,.23-.9,.39-.49,.56-.71,.68-.04,.9-.2,.2-.7,.47-.79,.56-.39,.85-.39,.6,.27,.86,.35,.59,.18,.81,.34,.13,.65,.29,.87,.87,.21,.96,.47-.51,.66-.51,.95Z"
          style="fill:none; stroke:#f3bd09; stroke-linecap:round; stroke-miterlimit:10; stroke-width:1.96px;"/>
    <path d="M208.92,61.43c0,.29,.42,.63,.33,.89s-.15,.65-.32,.87-.87-.1-1.1,.07-.17,.83-.44,.92-.61-.34-.89-.34-.48-.06-.74-.14-.68,.15-.91,0-.59-.3-.75-.52,.23-.74,.14-1.01-.75-.45-.75-.73,.14-.65,.23-.9,.39-.49,.56-.71,.68-.04,.9-.2,.2-.7,.47-.79,.56-.39,.85-.39,.6,.27,.86,.35,.59,.18,.81,.34,.13,.65,.29,.87,.87,.21,.96,.47-.51,.66-.51,.95Z"
          style="fill:none; stroke:#f3bd09; stroke-linecap:round; stroke-miterlimit:10; stroke-width:1.96px;"/>
    <path d="M169.27,45.36c0,.29,.42,.63,.33,.89s-.15,.65-.32,.87-.87-.1-1.1,.07-.17,.83-.44,.92-.61-.34-.89-.34-.48-.06-.74-.14-.68,.15-.91,0-.59-.3-.75-.52,.23-.74,.14-1.01-.75-.45-.75-.73,.14-.65,.23-.9,.39-.49,.56-.71,.68-.04,.9-.2,.2-.7,.47-.79,.56-.39,.85-.39,.6,.27,.86,.35,.59,.18,.81,.34,.13,.65,.29,.87,.87,.21,.96,.47-.51,.66-.51,.95Z"
          style="fill:none; stroke:#f3bd09; stroke-linecap:round; stroke-miterlimit:10; stroke-width:1.96px;"/>
    <path d="M76.38,47.23c-.78-.09-1.1,.45-1.48-.24-.64-1.18-.04-1.3-.04-2.65,0-.33-.31-.71-.64-.71s-.8,.38-.8,.71c0,1.27,.93,1.5,.28,2.59-.36,.61-.74-.47-1.45-.55-.33-.04-.75,.54-.79,.87s.31,.35,.64,.39c.78,.09,.87-.08,1.23,.61,.65,1.24,.08,1.24,.08,2.64,0,.33,.48,.83,.81,.83s.98-.5,.98-.83c0-1.33-.81-1.37-.15-2.53,.35-.62,.44,.31,1.15,.39,.02,0,.09-.23,.11-.23,.3,0,.69-.34,.73-.65,.04-.33-.34-.62-.66-.65Z"
          style="fill:#f3bd09;"/>
    <path d="M139.42,12.65c-.78-.09-1.1,.45-1.48-.24-.64-1.18-.04-1.3-.04-2.65,0-.33-.31-.71-.64-.71s-.8,.38-.8,.71c0,1.27,.93,1.5,.28,2.59-.36,.61-.74-.47-1.45-.55-.33-.04-.75,.54-.79,.87s.31,.35,.64,.39c.78,.09,.87-.08,1.23,.61,.65,1.24,.08,1.24,.08,2.64,0,.33,.48,.83,.81,.83s.98-.5,.98-.83c0-1.33-.81-1.37-.15-2.53,.35-.62,.44,.31,1.15,.39,.02,0,.09-.23,.11-.23,.3,0,.69-.34,.73-.65,.04-.33-.34-.62-.66-.65Z"
          style="fill:#f3bd09;"/>
    <path d="M224.84,25.71c-.78-.09-1.1,.45-1.48-.24-.64-1.18-.04-1.3-.04-2.65,0-.33-.31-.71-.64-.71s-.8,.38-.8,.71c0,1.27,.93,1.5,.28,2.59-.36,.61-.74-.47-1.45-.55-.33-.04-.75,.54-.79,.87s.31,.35,.64,.39c.78,.09,.87-.08,1.23,.61,.65,1.24,.08,1.24,.08,2.64,0,.33,.48,.83,.81,.83s.98-.5,.98-.83c0-1.33-.81-1.37-.15-2.53,.35-.62,.44,.31,1.15,.39,.02,0,.09-.23,.11-.23,.3,0,.69-.34,.73-.65,.04-.33-.34-.62-.66-.65Z"
          style="fill:#f3bd09;"/>
    <path d="M98.46,290.95s2.62-26,32.63-36.84c14.99-5.41,27.63-6.02,42.65-.69,16.85,5.99,31.48,20.63,29.95,36.87,0,0-4.24,2.38-27.02,7.06,0,0-24.24-20.88-50.67,.42,0,0-11.85,2.97-27.55-6.83Z"
          style="fill:#f3c503;"/>
    <path d="M128.19,292.11s-17.29-14.96-18.62-13.3,17.29,14.96,17.29,14.96c0,0,2,2,1.33-1.66Z"
          style="fill:#fff; opacity:.19;"/>
    <path d="M135.33,286.96s-11.62-19.7-13.41-18.55,11.62,19.7,11.62,19.7c0,0,1.25,2.53,1.79-1.15Z"
          style="fill:#fff; opacity:.19;"/>
    <path d="M142.87,284.36s-2.88-22.69-4.98-22.34,2.88,22.69,2.88,22.69c0,0,.15,2.82,2.1-.35Z"
          style="fill:#fff; opacity:.19;"/>
    <path d="M177.41,292.11s17.29-14.96,18.62-13.3-17.29,14.96-17.29,14.96c0,0-2,2-1.33-1.66Z"
          style="fill:#fff; opacity:.19;"/>
    <path d="M170.27,286.96s11.62-19.7,13.41-18.55-11.62,19.7-11.62,19.7c0,0-1.25,2.53-1.79-1.15Z"
          style="fill:#fff; opacity:.19;"/>
    <path d="M162.73,284.36s2.88-22.69,4.98-22.34-2.88,22.69-2.88,22.69c0,0-.15,2.82-2.1-.35Z"
          style="fill:#fff; opacity:.19;"/>
    <path d="M153.92,282.4s.76-22.86-1.37-22.84-.76,22.86-.76,22.86c0,0-.3,2.81,2.13-.01Z"
          style="fill:#fff; opacity:.19;"/>
    <path d="M99.76,288.96s3.33-13.31,7.98-13.31c0,0,2.66,.17,0,2.33s-5.82,8.52-5.82,8.52c0,0,.5,2.79-2.16,2.46Z"
          style="fill:#fff; opacity:.19;"/>
    <path d="M110.53,271.77s7.85-11.25,12.2-9.59c0,0,2.43,1.1-.83,2.17s-8.48,5.89-8.48,5.89c0,0-.53,2.79-2.9,1.53Z"
          style="fill:#fff; opacity:.19;"/>
    <path d="M126.92,260.22s10.87-8.36,14.52-5.47c0,0,1.98,1.78-1.45,1.82s-9.85,3.06-9.85,3.06c0,0-1.35,2.5-3.22,.58Z"
          style="fill:#fff; opacity:.19;"/>
    <path d="M144.84,253.98s13.21-3.68,15.51,.37c0,0,1.17,2.4-2.02,1.15s-10.28-.85-10.28-.85c0,0-2.18,1.81-3.2-.67Z"
          style="fill:#fff; opacity:.19;"/>
    <path d="M166.52,254.48s13.62,1.63,14.2,6.25c0,0,.17,2.66-2.31,.29s-9.18-4.7-9.18-4.7c0,0-2.71,.85-2.71-1.84Z"
          style="fill:#fff; opacity:.19;"/>
    <path d="M184.44,262.45s12.32,6.03,11.34,10.59c0,0-.72,2.57-2.28-.49-1.56-3.05-7.12-7.47-7.12-7.47,0,0-2.84-.1-1.95-2.63Z"
          style="fill:#fff; opacity:.19;"/>
    <path d="M198.22,274.51s6.49,12.08,3.05,15.21c0,0-2.08,1.67-1.57-1.72,.51-3.39-1.43-10.22-1.43-10.22,0,0-2.25-1.73-.05-3.27Z"
          style="fill:#fff; opacity:.19;"/>
    <g>
        <g>
            <path d="M279.32,176.49c-.74,.02-1.45,.27-2.14,.44s-1.39,.43-2.03,.75-1.38,.57-1.94,1.04-.88,1.18-1.32,1.76-.74,1.21-1.04,1.88-.67,1.28-.82,2-.22,1.43-.2,2.17,.2,1.45,.38,2.14,.4,1.4,.73,2.04,.65,1.33,1.11,1.88,1.18,.85,1.76,1.29,1.07,1,1.74,1.3,1.39,.34,2.11,.49,1.4,.51,2.14,.5,1.43-.41,2.12-.58,1.49-.2,2.13-.53,1.12-.95,1.67-1.42,1.2-.86,1.64-1.43,.83-1.22,1.13-1.88,.33-1.41,.47-2.13,.34-1.4,.32-2.14-.04-1.49-.22-2.18-.57-1.36-.89-2-.63-1.34-1.1-1.89-1.04-1.04-1.62-1.48-1.22-.8-1.89-1.1-1.36-.51-2.08-.66-1.44-.26-2.18-.24Zm3.72,10.45c-.61,.64-.5,.74-1.11,1.38s-.62,.63-1.22,1.27c-.44,.47-1.07,.34-1.54-.11-.64-.61-.82-.42-1.46-1.03s-.69-.56-1.32-1.16c-.47-.44-.37-1.27,.07-1.74,.61-.64,.62-.63,1.22-1.27s.55-.7,1.15-1.33c.44-.47,1.22-.46,1.69-.01,.64,.61,.56,.69,1.2,1.3s.83,.4,1.47,1.01c.47,.44,.29,1.23-.15,1.7Z"
                  style="fill:#f3c503;"/>
            <path d="M279.32,176.49c-.74,.02-1.45,.27-2.14,.44s-1.39,.43-2.03,.75-1.38,.57-1.94,1.04-.88,1.18-1.32,1.76-.74,1.21-1.04,1.88-.67,1.28-.82,2-.22,1.43-.2,2.17,.2,1.45,.38,2.14,.4,1.4,.73,2.04,.65,1.33,1.11,1.88,1.18,.85,1.76,1.29,1.07,1,1.74,1.3,1.39,.34,2.11,.49,1.4,.51,2.14,.5,1.43-.41,2.12-.58,1.49-.2,2.13-.53,1.12-.95,1.67-1.42,1.2-.86,1.64-1.43,.83-1.22,1.13-1.88,.33-1.41,.47-2.13,.34-1.4,.32-2.14-.04-1.49-.22-2.18-.57-1.36-.89-2-.63-1.34-1.1-1.89-1.04-1.04-1.62-1.48-1.22-.8-1.89-1.1-1.36-.51-2.08-.66-1.44-.26-2.18-.24Zm3.72,10.45c-.61,.64-.5,.74-1.11,1.38s-.62,.63-1.22,1.27c-.44,.47-1.07,.34-1.54-.11-.64-.61-.82-.42-1.46-1.03s-.69-.56-1.32-1.16c-.47-.44-.37-1.27,.07-1.74,.61-.64,.62-.63,1.22-1.27s.55-.7,1.15-1.33c.44-.47,1.22-.46,1.69-.01,.64,.61,.56,.69,1.2,1.3s.83,.4,1.47,1.01c.47,.44,.29,1.23-.15,1.7Z"
                  style="fill:none; stroke:#eda100; stroke-linecap:round; stroke-miterlimit:10; stroke-width:1.93px;"/>
        </g>
        <g>
            <path d="M281.86,156.92c-.86,.02-1.68,.31-2.48,.51s-1.61,.49-2.35,.87-1.6,.67-2.24,1.2-1.02,1.37-1.53,2.04-.85,1.41-1.2,2.18-.78,1.48-.95,2.32-.26,1.65-.23,2.51,.24,1.68,.44,2.48,.47,1.62,.85,2.36,.75,1.54,1.29,2.18,1.37,.99,2.04,1.49,1.24,1.16,2.01,1.5,1.62,.4,2.45,.56,1.62,.6,2.48,.57,1.66-.47,2.46-.68,1.72-.23,2.46-.61,1.3-1.1,1.94-1.64,1.39-.99,1.9-1.66,.96-1.41,1.31-2.18,.38-1.63,.55-2.47,.39-1.63,.37-2.49-.05-1.73-.25-2.53-.65-1.57-1.03-2.31-.73-1.55-1.27-2.19-1.21-1.21-1.88-1.71-1.42-.93-2.19-1.28-1.58-.6-2.41-.76-1.66-.3-2.52-.28Zm4.32,12.11c-.7,.74-.58,.86-1.28,1.6s-.71,.73-1.42,1.47c-.52,.54-1.24,.39-1.79-.13-.74-.7-.95-.49-1.69-1.19s-.8-.64-1.54-1.35c-.54-.52-.43-1.47,.09-2.01,.7-.74,.72-.73,1.42-1.47s.63-.81,1.34-1.55c.52-.54,1.41-.53,1.95-.02,.74,.7,.65,.8,1.39,1.5s.96,.47,1.7,1.17c.54,.52,.34,1.42-.18,1.97Z"
                  style="fill:#f2ac14;"/>
            <path d="M281.86,156.92c-.86,.02-1.68,.31-2.48,.51s-1.61,.49-2.35,.87-1.6,.67-2.24,1.2-1.02,1.37-1.53,2.04-.85,1.41-1.2,2.18-.78,1.48-.95,2.32-.26,1.65-.23,2.51,.24,1.68,.44,2.48,.47,1.62,.85,2.36,.75,1.54,1.29,2.18,1.37,.99,2.04,1.49,1.24,1.16,2.01,1.5,1.62,.4,2.45,.56,1.62,.6,2.48,.57,1.66-.47,2.46-.68,1.72-.23,2.46-.61,1.3-1.1,1.94-1.64,1.39-.99,1.9-1.66,.96-1.41,1.31-2.18,.38-1.63,.55-2.47,.39-1.63,.37-2.49-.05-1.73-.25-2.53-.65-1.57-1.03-2.31-.73-1.55-1.27-2.19-1.21-1.21-1.88-1.71-1.42-.93-2.19-1.28-1.58-.6-2.41-.76-1.66-.3-2.52-.28Zm4.32,12.11c-.7,.74-.58,.86-1.28,1.6s-.71,.73-1.42,1.47c-.52,.54-1.24,.39-1.79-.13-.74-.7-.95-.49-1.69-1.19s-.8-.64-1.54-1.35c-.54-.52-.43-1.47,.09-2.01,.7-.74,.72-.73,1.42-1.47s.63-.81,1.34-1.55c.52-.54,1.41-.53,1.95-.02,.74,.7,.65,.8,1.39,1.5s.96,.47,1.7,1.17c.54,.52,.34,1.42-.18,1.97Z"
                  style="fill:none; stroke:#eda100; stroke-linecap:round; stroke-miterlimit:10; stroke-width:2.23px;"/>
        </g>
        <g>
            <path d="M280.25,132.86c-1.02,.03-2,.37-2.96,.61s-1.92,.59-2.8,1.04-1.91,.79-2.68,1.44-1.21,1.63-1.82,2.43-1.02,1.68-1.43,2.6-.93,1.77-1.13,2.77-.31,1.97-.28,3,.28,2,.52,2.96,.56,1.94,1.01,2.82,.9,1.84,1.54,2.6,1.63,1.18,2.43,1.78,1.48,1.38,2.4,1.79,1.93,.47,2.92,.67,1.94,.71,2.96,.69,1.98-.56,2.93-.81,2.06-.28,2.94-.73,1.55-1.32,2.31-1.96,1.66-1.18,2.27-1.98,1.14-1.68,1.56-2.6,.45-1.95,.65-2.94,.47-1.94,.44-2.96-.06-2.06-.3-3.01-.78-1.88-1.23-2.76-.88-1.85-1.52-2.62-1.44-1.44-2.24-2.04-1.69-1.11-2.61-1.53-1.88-.71-2.88-.91-1.98-.36-3.01-.33Zm5.15,14.45c-.84,.88-.69,1.02-1.53,1.91s-.85,.87-1.69,1.75c-.61,.65-1.48,.46-2.13-.15-.88-.84-1.13-.58-2.01-1.42s-.95-.77-1.83-1.61c-.65-.61-.51-1.76,.1-2.4,.84-.88,.85-.87,1.69-1.75s.75-.96,1.59-1.85c.61-.65,1.68-.64,2.33-.02,.88,.84,.77,.96,1.65,1.79s1.15,.56,2.03,1.4c.65,.62,.4,1.7-.21,2.35Z"
                  style="fill:#f3c503;"/>
            <path d="M280.25,132.86c-1.02,.03-2,.37-2.96,.61s-1.92,.59-2.8,1.04-1.91,.79-2.68,1.44-1.21,1.63-1.82,2.43-1.02,1.68-1.43,2.6-.93,1.77-1.13,2.77-.31,1.97-.28,3,.28,2,.52,2.96,.56,1.94,1.01,2.82,.9,1.84,1.54,2.6,1.63,1.18,2.43,1.78,1.48,1.38,2.4,1.79,1.93,.47,2.92,.67,1.94,.71,2.96,.69,1.98-.56,2.93-.81,2.06-.28,2.94-.73,1.55-1.32,2.31-1.96,1.66-1.18,2.27-1.98,1.14-1.68,1.56-2.6,.45-1.95,.65-2.94,.47-1.94,.44-2.96-.06-2.06-.3-3.01-.78-1.88-1.23-2.76-.88-1.85-1.52-2.62-1.44-1.44-2.24-2.04-1.69-1.11-2.61-1.53-1.88-.71-2.88-.91-1.98-.36-3.01-.33Zm5.15,14.45c-.84,.88-.69,1.02-1.53,1.91s-.85,.87-1.69,1.75c-.61,.65-1.48,.46-2.13-.15-.88-.84-1.13-.58-2.01-1.42s-.95-.77-1.83-1.61c-.65-.61-.51-1.76,.1-2.4,.84-.88,.85-.87,1.69-1.75s.75-.96,1.59-1.85c.61-.65,1.68-.64,2.33-.02,.88,.84,.77,.96,1.65,1.79s1.15,.56,2.03,1.4c.65,.62,.4,1.7-.21,2.35Z"
                  style="fill:none; stroke:#eda100; stroke-linecap:round; stroke-miterlimit:10; stroke-width:2.66px;"/>
        </g>
        <path d="M275.56,206.91c.97-.02,1.67-.8,2.3-1.45s1.01-1.37,.99-2.34-.39-1.71-1.04-2.34-1.41-1.27-2.38-1.26-1.94,.47-2.57,1.12-.6,1.63-.58,2.6,.34,1.63,.99,2.26,1.33,1.43,2.3,1.41Z"
              style="fill:#fff;"/>
        <path d="M275.9,214.77c.3-.93-.2-1.84-.61-2.65s-.96-1.4-1.89-1.71-1.75-.19-2.55,.21-1.67,.91-1.97,1.83-.2,1.99,.21,2.79,1.34,1.11,2.26,1.41,1.65,.22,2.46-.19,1.79-.78,2.09-1.71Z"
              style="fill:#fff;"/>
        <path d="M270.5,225.85c.41-.71,.15-1.55-.05-2.28s-.55-1.32-1.26-1.73-1.41-.46-2.14-.26-1.53,.46-1.94,1.17-.51,1.6-.31,2.34,.91,1.14,1.62,1.55,1.32,.46,2.06,.27,1.61-.34,2.02-1.05Z"
              style="fill:#fff;"/>
        <path d="M264.66,234.13c.29-.5,.11-1.1-.03-1.62s-.39-.93-.89-1.22-.99-.33-1.51-.19-1.08,.33-1.37,.83-.36,1.13-.22,1.65,.64,.81,1.15,1.1,.94,.33,1.45,.19,1.14-.24,1.43-.74Z"
              style="fill:#fff;"/>
        <path d="M277.95,109.68c.97,.04,2.03,.1,2.64,.77s.96,1.73,.92,2.71-.51,1.98-1.17,2.59-1.69,.7-2.66,.66-1.75-.43-2.36-1.1-1.38-1.48-1.34-2.46,.57-2.06,1.23-2.67,1.77-.54,2.74-.5Z"
              style="fill:#fff;"/>
        <path d="M278.09,101.55c.28,.93,.57,1.95,.15,2.74s-1.32,1.48-2.25,1.77-2.03,.17-2.83-.25-1.22-1.36-1.5-2.3-.17-1.79,.25-2.59,.95-1.79,1.88-2.07,2.13-.14,2.93,.28,1.09,1.49,1.38,2.42Z"
              style="fill:#fff;"/>
        <path d="M273.02,90.4c.39,.72,.81,1.51,.59,2.24s-.83,1.45-1.55,1.84-1.65,.49-2.37,.28-1.24-.91-1.63-1.63-.45-1.45-.23-2.18,.47-1.64,1.19-2.03,1.73-.48,2.46-.27,1.16,1.04,1.55,1.76Z"
              style="fill:#fff;"/>
        <path d="M267.45,81.94c.28,.51,.57,1.06,.42,1.58s-.59,1.02-1.1,1.3-1.16,.35-1.68,.2-.87-.65-1.15-1.15-.32-1.02-.17-1.54,.33-1.16,.84-1.44,1.22-.34,1.74-.19,.82,.73,1.1,1.24Z"
              style="fill:#fff;"/>
        <g>
            <path d="M284.9,130.02s6.84,6.72,2.53,7.94-5.24-7.88-5.24-7.88c0,0-1.05-2.49,2.72-.06Z"
                  style="fill:#ed0000;"/>
            <path d="M274.81,131.11s-5.9,7.56-1.46,8.2c4.44,.64,4.16-8.5,4.16-8.5,0,0,.71-2.61-2.7,.29Z"
                  style="fill:#ed0000;"/>
            <g>
                <path d="M278.41,126.71c.05,1.53,.51,1.1,1.89,2.37,.63,.59,1.48,1.11,2.54,1.65,.81,.42,1.71,.85,2.81,1.13,.9,.23,1.88,.59,3,.68,1.43,.11,2.68-.15,3.62-.7,1.07-.62,1.86-1.66,2.32-2.85,.41-1.07,.45-2.34,.39-3.65-.05-1.17-.35-2.35-.77-3.56-.39-1.13-.71-2.36-1.41-3.4s-1.63-1.82-2.59-2.62c-.99-.83-1.93-1.28-2.84-1.26-1.01,.02-1.88,.66-2.76,1.39-.75,.63-1.59,1.31-2.22,2.22-.6,.85-1.04,1.85-1.52,2.78-.52,1-1.17,1.91-1.54,2.78-.7,1.7-.98,1.45-.93,3.02Zm3.96,.11c-.53-1.84,.36-2,1.42-3.55,.72-1.05,1.82-2.04,3.23-1.97,1.06,.05,1.98,.75,2.61,1.56s.83,1.88,.97,2.83c.18,1.24,0,2.26-.73,2.62-1.08,.54-2.35,.79-3.9,.37-1.09-.29-2.31-.81-3.59-1.86Z"
                      style="fill:#c60001;"/>
                <path d="M265.72,118.24c-.7,1.03-1.07,2.23-1.45,3.37s-.76,2.38-.83,3.57c-.07,1.27,.22,2.49,.49,3.62,.3,1.28,.58,2.52,1.27,3.43,.77,1.02,1.86,1.64,3.06,1.94,1.06,.27,2.29,.36,3.64-.13,1.05-.39,1.95-.92,2.75-1.39,.99-.58,1.7-1.32,2.37-1.94,.87-.81,1.55-1.55,2-2.28,.97-1.6,1.66-1.36,1.29-2.85s-.94-1-2.09-2.45c-.59-.74-1.15-1.7-1.92-2.52-.71-.76-1.48-1.54-2.29-2.2-.86-.71-1.88-1.1-2.77-1.5-1.05-.47-2.05-.81-3.03-.56-.88,.23-1.77,.81-2.5,1.89Zm3.85,12.06c-.8-.15-1.45-1.08-1.62-2.32-.12-.95,.12-2.03,.49-2.97s.95-1.9,1.96-2.24c1.33-.45,2.54,.32,3.52,1.13,1.45,1.2,2.51,.98,2.5,2.89-.94,1.36-2.04,2.17-3.01,2.75-1.38,.82-2.66,.98-3.85,.76Z"
                      style="fill:#c60001;"/>
                <path d="M276.91,124.96c.66-2.4,1.22-3.43,3.74-1.93,1.21,.72,1.69,2.21,1.59,3.66-.11,1.57-.87,3.09-2.17,3.32-1.45,.25-2.33-.39-2.79-1.59-.34-.87-.44-2.04-.37-3.46Z"
                      style="fill:#ed0000;"/>
            </g>
        </g>
    </g>
    <g>
        <g>
            <path d="M11.32,186.03c-.02,.74,.19,1.46,.33,2.16s.36,1.41,.65,2.06,.5,1.41,.94,1.99,1.13,.94,1.69,1.4,1.18,.8,1.82,1.13,1.25,.74,1.96,.92,1.41,.29,2.15,.31,1.46-.13,2.15-.27,1.42-.33,2.07-.63,1.36-.58,1.93-1.02,.91-1.14,1.38-1.69,1.05-1.02,1.38-1.67,.41-1.38,.59-2.09,.59-1.37,.6-2.11-.34-1.45-.47-2.15-.13-1.5-.42-2.15-.89-1.17-1.33-1.74-.79-1.24-1.35-1.71-1.17-.89-1.82-1.22-1.39-.4-2.1-.58-1.38-.41-2.13-.43-1.49-.03-2.19,.11-1.39,.5-2.04,.79-1.37,.56-1.95,1-1.09,.99-1.56,1.54-.86,1.18-1.2,1.83-.58,1.33-.76,2.05-.33,1.42-.35,2.16Zm6.35-.59c.64-.61,.54-.71,1.18-1.32s.65-.6,1.28-1.2c.47-.44,1.09-.28,1.53,.19,.61,.64,.79,.46,1.4,1.1s.66,.59,1.26,1.23c.44,.47,.31,1.29-.16,1.73-.64,.61-.65,.6-1.29,1.2s-.58,.67-1.22,1.27c-.47,.44-1.24,.4-1.68-.07-.61-.64-.52-.72-1.13-1.36s-.81-.45-1.42-1.08c-.44-.47-.23-1.24,.24-1.69Z"
                  style="fill:#f3c503;"/>
            <path d="M11.32,186.03c-.02,.74,.19,1.46,.33,2.16s.36,1.41,.65,2.06,.5,1.41,.94,1.99,1.13,.94,1.69,1.4,1.18,.8,1.82,1.13,1.25,.74,1.96,.92,1.41,.29,2.15,.31,1.46-.13,2.15-.27,1.42-.33,2.07-.63,1.36-.58,1.93-1.02,.91-1.14,1.38-1.69,1.05-1.02,1.38-1.67,.41-1.38,.59-2.09,.59-1.37,.6-2.11-.34-1.45-.47-2.15-.13-1.5-.42-2.15-.89-1.17-1.33-1.74-.79-1.24-1.35-1.71-1.17-.89-1.82-1.22-1.39-.4-2.1-.58-1.38-.41-2.13-.43-1.49-.03-2.19,.11-1.39,.5-2.04,.79-1.37,.56-1.95,1-1.09,.99-1.56,1.54-.86,1.18-1.2,1.83-.58,1.33-.76,2.05-.33,1.42-.35,2.16Zm6.35-.59c.64-.61,.54-.71,1.18-1.32s.65-.6,1.28-1.2c.47-.44,1.09-.28,1.53,.19,.61,.64,.79,.46,1.4,1.1s.66,.59,1.26,1.23c.44,.47,.31,1.29-.16,1.73-.64,.61-.65,.6-1.29,1.2s-.58,.67-1.22,1.27c-.47,.44-1.24,.4-1.68-.07-.61-.64-.52-.72-1.13-1.36s-.81-.45-1.42-1.08c-.44-.47-.23-1.24,.24-1.69Z"
                  style="fill:none; stroke:#eda100; stroke-linecap:round; stroke-miterlimit:10; stroke-width:1.93px;"/>
        </g>
        <g>
            <path d="M7.19,167.98c-.02,.86,.22,1.69,.38,2.5s.41,1.63,.75,2.39,.58,1.64,1.09,2.3,1.32,1.09,1.96,1.63,1.36,.92,2.11,1.31,1.44,.86,2.27,1.07,1.64,.34,2.5,.36,1.69-.15,2.5-.31,1.64-.38,2.4-.72,1.57-.67,2.24-1.18,1.05-1.32,1.59-1.96,1.22-1.18,1.6-1.93,.48-1.59,.69-2.42,.68-1.59,.7-2.45-.39-1.68-.55-2.49-.15-1.73-.49-2.49-1.04-1.35-1.54-2.02-.92-1.44-1.56-1.98-1.36-1.03-2.11-1.42-1.61-.46-2.44-.67-1.6-.48-2.46-.5-1.73-.04-2.53,.13-1.61,.57-2.36,.92-1.59,.65-2.25,1.16-1.27,1.15-1.81,1.79-1,1.37-1.39,2.12-.68,1.55-.88,2.37-.38,1.65-.4,2.5Zm7.36-.68c.74-.7,.62-.83,1.36-1.53s.75-.69,1.49-1.4c.54-.52,1.26-.33,1.78,.22,.7,.74,.92,.53,1.62,1.27s.76,.68,1.46,1.42c.52,.54,.35,1.49-.19,2.01-.74,.7-.75,.69-1.49,1.39s-.67,.77-1.41,1.48c-.54,.52-1.44,.46-1.95-.08-.7-.74-.61-.83-1.31-1.57s-.94-.52-1.64-1.26c-.52-.54-.26-1.44,.28-1.95Z"
                  style="fill:#f2ac14;"/>
            <path d="M7.19,167.98c-.02,.86,.22,1.69,.38,2.5s.41,1.63,.75,2.39,.58,1.64,1.09,2.3,1.32,1.09,1.96,1.63,1.36,.92,2.11,1.31,1.44,.86,2.27,1.07,1.64,.34,2.5,.36,1.69-.15,2.5-.31,1.64-.38,2.4-.72,1.57-.67,2.24-1.18,1.05-1.32,1.59-1.96,1.22-1.18,1.6-1.93,.48-1.59,.69-2.42,.68-1.59,.7-2.45-.39-1.68-.55-2.49-.15-1.73-.49-2.49-1.04-1.35-1.54-2.02-.92-1.44-1.56-1.98-1.36-1.03-2.11-1.42-1.61-.46-2.44-.67-1.6-.48-2.46-.5-1.73-.04-2.53,.13-1.61,.57-2.36,.92-1.59,.65-2.25,1.16-1.27,1.15-1.81,1.79-1,1.37-1.39,2.12-.68,1.55-.88,2.37-.38,1.65-.4,2.5Zm7.36-.68c.74-.7,.62-.83,1.36-1.53s.75-.69,1.49-1.4c.54-.52,1.26-.33,1.78,.22,.7,.74,.92,.53,1.62,1.27s.76,.68,1.46,1.42c.52,.54,.35,1.49-.19,2.01-.74,.7-.75,.69-1.49,1.39s-.67,.77-1.41,1.48c-.54,.52-1.44,.46-1.95-.08-.7-.74-.61-.83-1.31-1.57s-.94-.52-1.64-1.26c-.52-.54-.26-1.44,.28-1.95Z"
                  style="fill:none; stroke:#eda100; stroke-linecap:round; stroke-miterlimit:10; stroke-width:2.23px;"/>
        </g>
        <g>
            <path d="M6.55,146.05c-.03,1.02,.27,2.02,.46,2.98s.49,1.95,.9,2.85,.7,1.95,1.3,2.75,1.57,1.3,2.34,1.94,1.63,1.1,2.52,1.56,1.72,1.02,2.71,1.27,1.95,.41,2.98,.43,2.01-.18,2.98-.37,1.96-.46,2.86-.86,1.88-.8,2.67-1.4,1.26-1.57,1.9-2.34,1.45-1.41,1.91-2.31,.57-1.9,.82-2.89,.81-1.9,.84-2.92-.46-2-.66-2.97-.17-2.07-.58-2.97-1.24-1.61-1.84-2.41-1.1-1.72-1.87-2.37-1.62-1.23-2.52-1.69-1.92-.55-2.91-.8-1.91-.57-2.94-.59-2.06-.04-3.02,.15-1.92,.68-2.82,1.09-1.89,.78-2.69,1.38-1.51,1.37-2.16,2.13-1.2,1.63-1.66,2.53-.81,1.84-1.06,2.83-.46,1.96-.48,2.99Zm8.79-.82c.88-.84,.74-.99,1.63-1.82s.89-.83,1.78-1.67c.65-.61,1.51-.39,2.12,.26,.84,.88,1.1,.64,1.94,1.52s.91,.82,1.75,1.7c.61,.65,.42,1.78-.23,2.4-.88,.84-.9,.82-1.78,1.66s-.8,.92-1.69,1.76c-.65,.61-1.71,.55-2.33-.1-.84-.88-.72-.99-1.56-1.88s-1.12-.62-1.96-1.5c-.61-.65-.32-1.72,.33-2.33Z"
                  style="fill:#f3c503;"/>
            <path d="M6.55,146.05c-.03,1.02,.27,2.02,.46,2.98s.49,1.95,.9,2.85,.7,1.95,1.3,2.75,1.57,1.3,2.34,1.94,1.63,1.1,2.52,1.56,1.72,1.02,2.71,1.27,1.95,.41,2.98,.43,2.01-.18,2.98-.37,1.96-.46,2.86-.86,1.88-.8,2.67-1.4,1.26-1.57,1.9-2.34,1.45-1.41,1.91-2.31,.57-1.9,.82-2.89,.81-1.9,.84-2.92-.46-2-.66-2.97-.17-2.07-.58-2.97-1.24-1.61-1.84-2.41-1.1-1.72-1.87-2.37-1.62-1.23-2.52-1.69-1.92-.55-2.91-.8-1.91-.57-2.94-.59-2.06-.04-3.02,.15-1.92,.68-2.82,1.09-1.89,.78-2.69,1.38-1.51,1.37-2.16,2.13-1.2,1.63-1.66,2.53-.81,1.84-1.06,2.83-.46,1.96-.48,2.99Zm8.79-.82c.88-.84,.74-.99,1.63-1.82s.89-.83,1.78-1.67c.65-.61,1.51-.39,2.12,.26,.84,.88,1.1,.64,1.94,1.52s.91,.82,1.75,1.7c.61,.65,.42,1.78-.23,2.4-.88,.84-.9,.82-1.78,1.66s-.8,.92-1.69,1.76c-.65,.61-1.71,.55-2.33-.1-.84-.88-.72-.99-1.56-1.88s-1.12-.62-1.96-1.5c-.61-.65-.32-1.72,.33-2.33Z"
                  style="fill:none; stroke:#eda100; stroke-linecap:round; stroke-miterlimit:10; stroke-width:2.66px;"/>
        </g>
        <path d="M25.13,206.51c-.97-.02-2.03-.06-2.66-.71s-1-1.71-.98-2.69,.47-1.99,1.12-2.61,1.67-.73,2.65-.72,1.76,.39,2.38,1.04,1.41,1.45,1.39,2.43-.52,2.07-1.17,2.69-1.75,.58-2.73,.56Z"
              style="fill:#fff;"/>
        <path d="M25.17,214.64c-.3-.93-.61-1.93-.21-2.74s1.29-1.51,2.21-1.81,2.03-.22,2.83,.19,1.25,1.34,1.55,2.26,.21,1.79-.2,2.59-.91,1.81-1.83,2.11-2.12,.19-2.93-.22-1.12-1.46-1.43-2.39Z"
              style="fill:#fff;"/>
        <path d="M30.48,225.68c-.41-.71-.84-1.49-.64-2.22s.8-1.46,1.51-1.87,1.63-.53,2.37-.33,1.26,.89,1.67,1.6,.48,1.44,.28,2.17-.44,1.65-1.15,2.06-1.72,.52-2.45,.33-1.18-1.01-1.59-1.72Z"
              style="fill:#fff;"/>
        <path d="M36.23,234.01c-.29-.5-.59-1.05-.45-1.57s.57-1.04,1.07-1.33,1.16-.37,1.67-.23,.89,.63,1.18,1.13,.34,1.02,.2,1.53-.31,1.16-.81,1.45-1.21,.37-1.73,.23-.83-.72-1.12-1.22Z"
              style="fill:#fff;"/>
        <path d="M22.72,109.28c-.97,.04-1.65,.83-2.27,1.5s-.98,1.39-.94,2.37,.43,1.7,1.1,2.32,1.44,1.24,2.41,1.2,1.93-.51,2.54-1.17,.57-1.64,.53-2.61-.37-1.62-1.04-2.24-1.36-1.4-2.33-1.36Z"
              style="fill:#fff;"/>
        <path d="M22.21,101.44c-.28,.93,.24,1.84,.67,2.63s.99,1.38,1.92,1.67,1.75,.16,2.55-.27,1.65-.94,1.93-1.88,.16-1.99-.27-2.79-1.36-1.08-2.29-1.36-1.66-.18-2.45,.24-1.77,.82-2.05,1.75Z"
              style="fill:#fff;"/>
        <path d="M27.36,90.24c-.39,.72-.12,1.55,.1,2.28s.58,1.31,1.3,1.7,1.41,.43,2.14,.22,1.52-.49,1.91-1.21,.47-1.61,.26-2.34-.94-1.12-1.65-1.51-1.33-.43-2.06-.22-1.6,.37-1.99,1.09Z"
              style="fill:#fff;"/>
        <path d="M33.02,81.83c-.28,.51-.08,1.1,.07,1.61s.41,.93,.92,1.2,1,.3,1.52,.15,1.07-.35,1.35-.86,.33-1.14,.18-1.66-.66-.79-1.17-1.07-.94-.31-1.46-.16-1.13,.26-1.41,.77Z"
              style="fill:#fff;"/>
        <g>
            <path d="M15.78,130.02s-6.84,6.72-2.53,7.94,5.24-7.88,5.24-7.88c0,0,1.05-2.49-2.72-.06Z"
                  style="fill:#ed0000;"/>
            <path d="M25.87,131.11s5.9,7.56,1.46,8.2c-4.44,.64-4.16-8.5-4.16-8.5,0,0-.71-2.61,2.7,.29Z"
                  style="fill:#ed0000;"/>
            <g>
                <path d="M10.44,115.75c-.96,.8-1.72,1.77-2.39,2.77s-1.15,2.17-1.54,3.3c-.42,1.21-.72,2.38-.77,3.55-.06,1.31-.07,2.58,.34,3.65,.46,1.19,1.26,2.23,2.33,2.85,.94,.54,2.19,.8,3.62,.69,1.12-.09,2.11-.41,3.01-.64,1.11-.28,2.02-.72,2.83-1.13,1.06-.54,2.03-.95,2.66-1.54,1.37-1.28,1.66-.99,1.71-2.53s-.29-1.28-.99-2.98c-.36-.87-.99-1.78-1.51-2.78-.48-.93-.85-1.96-1.45-2.81-.64-.91-1.42-1.66-2.17-2.29-.88-.74-1.8-1.42-2.81-1.44-.91-.02-1.87,.5-2.86,1.34Zm.32,12.67c-.73-.36-1.04-1.51-.86-2.76,.14-.95,.47-2.06,1.08-2.86s1.61-1.38,2.67-1.43c1.41-.07,2.35,.94,3.08,2,1.07,1.55,1.98,1.58,1.45,3.42-1.28,1.05-2.39,1.6-3.47,1.89-1.55,.42-2.87,.28-3.95-.26Z"
                      style="fill:#c60001;"/>
                <path d="M20.44,125.6c-.37,1.49,.3,1.2,1.28,2.81,.45,.74,.95,1.64,1.82,2.45,.67,.62,1.58,1.08,2.57,1.65,.81,.47,1.62,1.13,2.68,1.52,1.35,.5,2.58,.41,3.63,.15,1.2-.3,2.3-.91,3.07-1.93,.69-.91,1.12-2.13,1.42-3.4,.27-1.14,.21-2.38,.14-3.65-.07-1.19-.19-2.41-.59-3.6s-.75-2.36-1.45-3.39c-.73-1.07-1.71-1.48-2.59-1.71-.98-.26-2.03-.24-3.08,.23-.89,.4-1.82,.99-2.69,1.69-.81,.66-1.42,1.59-2.13,2.35-.77,.82-1.6,1.54-2.19,2.29-1.14,1.45-1.53,1.02-1.91,2.55Zm3.96,1.2c0-1.91,.78-1.85,2.23-3.05,.98-.82,2.26-1.24,3.59-.79,1.01,.34,1.82,1.03,2.2,1.98s.23,2.06,.11,3.01c-.16,1.25-.59,2.33-1.39,2.49-1.19,.23-2.49-.07-3.87-.89-.97-.58-1.93-1.39-2.87-2.75Z"
                      style="fill:#c60001;"/>
                <path d="M23.83,124.94c-.66-2.4-1.31-3.48-3.84-1.98-1.21,.72-1.7,2.28-1.6,3.73,.11,1.57,.94,2.98,2.24,3.21,1.45,.25,2.36-.27,2.82-1.46,.34-.87,.45-2.07,.37-3.5Z"
                      style="fill:#ed0000;"/>
            </g>
        </g>
    </g>
</svg>
