<svg xmlns="http://www.w3.org/2000/svg" viewBox="0 0 300 300"><defs><clipPath id="a"><path d="M142.85 281.7s-4.64.6-3.48 2.2c1.16 1.59 16.58 3.48 25.32-4.65 8.73-8.13 8.61-19.37 2.37-22.03-6.25-2.66-9.65 4.66-16.05 9-6.41 4.34-12.79 3.12-13.48 4.76-.69 1.64 4.74 1.81 4.74 1.81s-5.19.8-4.68 3.03c.51 2.23 5.1 1.2 5.1 1.2s-4.89.91-4.68 3.03 4.86 1.65 4.86 1.65Z" style="fill:none"/></clipPath><clipPath id="b"><path d="M130.72 274.93s10.07 2.42 21.75-4.72 14.99-23.28 26.39-24.63c11.4-1.35 17.91 10.4 16.42 25.5s-14.78 27.53-34.65 27.58c-19.86.05-30.83-15.74-30.83-15.74l.91-8Z" style="fill:none"/></clipPath><clipPath id="c"><circle cx="181.64" cy="257.77" r="5.39" style="fill:none"/></clipPath><clipPath id="d"><path d="M256.38 262.12s4.26.7 3.15 2.14c-1.12 1.44-15.42 2.69-23.22-5.1-7.8-7.78-7.34-18.16-1.49-20.41s8.76 4.61 14.53 8.82c5.78 4.21 11.71 3.29 12.3 4.82.59 1.53-4.43 1.52-4.43 1.52s4.77.9 4.23 2.95c-.54 2.04-4.75.95-4.75.95s4.49 1 4.23 2.95-4.54 1.37-4.54 1.37Z" style="fill:none"/></clipPath><clipPath id="e"><path d="M267.8 256.25s-9.37 1.91-19.93-5.05-13.1-21.97-23.58-23.57c-10.48-1.61-16.86 9.03-15.97 23.02.9 13.99 12.77 25.89 31.11 26.56 18.34.68 28.96-13.55 28.96-13.55l-.59-7.41Z" style="fill:none"/></clipPath><clipPath id="f"><circle cx="221.33" cy="238.79" r="4.97" style="fill:none"/></clipPath></defs><path style="fill:none" d="M0-1.21h300v300H0z"/><path d="M276.75 204.44c.37-1.04.34-2 .03-2.82a4.49 4.49 0 0 0-1.49-2.08c-1.2-.92-2.63-1.11-3.93-.79-.49.07-.97.21-1.43.43-1.58.76-2.48 2.25-2.24 3.89 0 .32.01.65.08.98.79 4.2 7.64 4.17 8.98.38Z" style="fill:#f88dac"/><path d="M79.26 265.09c-1.75-2.15-4.56-2-6.24-.4-.75.54-1.36 1.33-1.67 2.29-1.1 3.41 2.09 6.48 5.21 5.72 3-.73 5.09-4.66 2.7-7.6Z" style="fill:#005f91"/><path d="M65.99 261.16c-1.24-1.52-3.23-1.42-4.42-.29-.53.38-.97.94-1.18 1.62-.78 2.41 1.48 4.59 3.69 4.05 2.12-.52 3.61-3.3 1.91-5.39Z" style="fill:#fff"/><path d="M263.32 210.97c.19-1.77-.61-3.69-2.51-4.02-.25-.04-.51-.05-.76-.04-3.2-.78-5.95 3.15-4.13 6.01 2.07 3.26 7.01 1.71 7.41-1.95Zm-5.36 2.18s.05 0 .08-.01c.03.02.05.04.09.06.19.11.38.19.56.25-.26-.07-.5-.17-.73-.31ZM94.74 268.41c.19-1.77-.61-3.69-2.51-4.02-.25-.04-.51-.05-.76-.04-3.2-.78-5.95 3.15-4.13 6.01 2.07 3.26 7.01 1.71 7.41-1.95Zm-5.36 2.18s.05 0 .08-.01c.03.02.05.04.09.06.19.11.38.19.56.25-.26-.07-.5-.17-.73-.31Z" style="fill:#d62339"/><path d="M149.64 299.8c53.5 0 100.44-28.07 126.92-70.28a113.188 113.188 0 0 0-37.13-6.23c-49.33 0-91.28 31.54-106.82 75.54 5.59.63 11.27.97 17.03.97Z" style="fill:#fff"/><path d="M180.58 245.65s-1-2.06-1.56-4.65-.12-2.98.32-2.59c.44.4 1.57 3.81 1.57 3.81s-.63-3.64.2-3.76c.82-.13 1.79 3.88 1.79 3.88s.03-2.78.97-2.25c.93.52 1.81 7.09 1.81 7.09s-2.02-.81-3.41-1.03-1.46-.08-1.46-.08l-.22-.42Z" style="fill:#f7882d"/><path style="fill:#cc1c36" d="m191.93 253.9 10.3-2.45-4.66 4.73 6.61 2.05-9.83 2.83-2.42-7.16z"/><path d="M130.72 274.93s10.07 2.42 21.75-4.72 14.99-23.28 26.39-24.63c11.4-1.35 17.91 10.4 16.42 25.5s-14.78 27.53-34.65 27.58c-19.86.05-30.83-15.74-30.83-15.74l.91-8Z" style="fill:#2f1f4f"/><path d="M142.85 281.7s-4.64.6-3.48 2.2c1.16 1.59 16.58 3.48 25.32-4.65 8.73-8.13 8.61-19.37 2.37-22.03-6.25-2.66-9.65 4.66-16.05 9-6.41 4.34-12.79 3.12-13.48 4.76-.69 1.64 4.74 1.81 4.74 1.81s-5.19.8-4.68 3.03c.51 2.23 5.1 1.2 5.1 1.2s-4.89.91-4.68 3.03 4.86 1.65 4.86 1.65Z" style="fill:#7eccbf"/><circle cx="181.64" cy="257.77" r="5.39" style="fill:#fff"/><path d="M131.53 275.08s-1.56-.22-4.48-1.92c-7.05-4.11-10.4-9.23-11.76-9.37-1.56-.16.32 3.24 2.68 5.43s3.56 2.97 3.56 2.97l1.59 1.04s-2.57-1.28-5.86-3.63c-3.29-2.35-5.05-3.71-5.81-3.15-.76.55.94 3.16 3.78 5.31 2.84 2.16 6.92 3.71 6.77 3.68-.15-.03-6.23-1.04-10.57-2.44-5.68-1.83-6.4 1.5-.69 3.61 3.78 1.4 10.36 1.79 10.36 1.79s-5.16 1.14-8.99.99c-4.85-.19-7.35 1.07-4.26 2.38 3.1 1.32 13.48-.48 13.48-.48s-5.23 2.19-9.61 2.87c-4.38.67-6.11 1.99-4.03 2.74 2.08.75 12.02-2.2 12.02-2.2s-3.05 2.02-7.11 3.48c-4.8 1.72-5.45 3.89-2.93 3.73s12.98-4.64 16.11-6.33c3.13-1.7 4.16-2.47 4.16-2.47l1.58-8.04Z" style="fill:#f7882c"/><g style="clip-path:url(#a)"><path d="M168.9 275.41c-.14-.03-5.3-1.17-8.87-5.95-4.22-5.66-4.3-9.53-4.3-9.53l-.89.75s.02 4.64 4.06 9.82c3.65 4.67 9.38 6.21 9.38 6.21l.61-1.29Z" style="fill:#fff"/></g><g style="clip-path:url(#b)"><path d="M167.32 299.28s-1.03-16.77 9.07-24.83c10.1-8.05 21.09-7.01 21.09-7.01s.43 15.12-9.64 23.39c-10.07 8.26-20.52 8.45-20.52 8.45Z" style="fill:#cc1c36"/></g><g style="clip-path:url(#c)"><path d="M185.38 252.41s-2.48 2.24-2.29 5.64c.2 3.4 2.76 4.85 2.76 4.85s2.82-3.13 2.12-5.91c-.7-2.78-2.59-4.58-2.59-4.58Z" style="fill:#250f17"/></g><circle cx="184.92" cy="257.02" r=".83" style="fill:#fff"/><path d="M222.7 227.64s.99-1.87 1.59-4.24.21-2.75-.21-2.4c-.42.35-1.57 3.47-1.57 3.47s.69-3.34-.06-3.48c-.76-.14-1.78 3.52-1.78 3.52s.06-2.57-.82-2.11c-.88.45-1.89 6.49-1.89 6.49s1.89-.69 3.18-.84 1.35-.02 1.35-.02l.21-.38Z" style="fill:#f7882d"/><path style="fill:#cc1c36" d="m211.95 234.89-9.43-2.59 4.15 4.52-6.17 1.68 8.99 2.93 2.46-6.54z"/><path d="M267.8 256.25s-9.37 1.91-19.93-5.05-13.1-21.97-23.58-23.57c-10.48-1.61-16.86 9.03-15.97 23.02.9 13.99 12.77 25.89 31.11 26.56 18.34.68 28.96-13.55 28.96-13.55l-.59-7.41Z" style="fill:#2f1f4f"/><path d="M256.38 262.12s4.26.7 3.15 2.14c-1.12 1.44-15.42 2.69-23.22-5.1-7.8-7.78-7.34-18.16-1.49-20.41s8.76 4.61 14.53 8.82c5.78 4.21 11.71 3.29 12.3 4.82.59 1.53-4.43 1.52-4.43 1.52s4.77.9 4.23 2.95c-.54 2.04-4.75.95-4.75.95s4.49 1 4.23 2.95-4.54 1.37-4.54 1.37Z" style="fill:#7eccbf"/><circle cx="221.33" cy="238.79" r="4.97" style="fill:#fff"/><path d="M267.04 256.37s1.45-.16 4.19-1.63c6.64-3.57 9.9-8.19 11.15-8.28 1.44-.1-.4 2.98-2.64 4.93-2.24 1.94-3.38 2.63-3.38 2.63l-1.5.91s2.41-1.1 5.52-3.16c3.12-2.07 4.78-3.26 5.47-2.73.68.53-.96 2.89-3.66 4.79-2.69 1.9-6.51 3.21-6.37 3.18.14-.03 5.78-.77 9.84-1.92 5.3-1.51 5.86 1.59.53 3.35-3.53 1.17-9.62 1.32-9.62 1.32s4.73 1.21 8.26 1.2c4.48-.02 6.75 1.22 3.85 2.34-2.9 1.12-12.43-.87-12.43-.87s4.76 2.19 8.78 2.95c4.02.76 5.58 2.04 3.63 2.66-1.95.63-11.03-2.41-11.03-2.41s2.75 1.97 6.46 3.44c4.38 1.74 4.91 3.76 2.58 3.54s-11.83-4.69-14.67-6.36-3.77-2.41-3.77-2.41l-1.21-7.47Z" style="fill:#f7882c"/><g style="clip-path:url(#d)"><path d="M232.53 255.48c.13-.02 4.93-.91 8.37-5.21 4.07-5.09 4.27-8.66 4.27-8.66l.8.72s-.17 4.29-4.06 8.93c-3.52 4.2-8.86 5.43-8.86 5.43l-.52-1.21Z" style="fill:#fff"/></g><g style="clip-path:url(#e)"><path d="M233.23 277.57s1.48-15.45-7.58-23.21c-9.06-7.75-19.25-7.14-19.25-7.14s-.88 13.95 8.16 21.9c9.04 7.95 18.68 8.45 18.68 8.45Z" style="fill:#cc1c36"/></g><g style="clip-path:url(#f)"><path d="M218.05 233.73s2.22 2.15 1.93 5.28c-.29 3.13-2.7 4.39-2.7 4.39s-2.51-2.98-1.77-5.52c.74-2.54 2.54-4.15 2.54-4.15Z" style="fill:#250f17"/></g><circle cx="218.32" cy="237.99" r=".77" style="fill:#fff"/><path d="M270.83 214.12c-2.43 1.33-2.8 4.12-1.53 6.06.39.84 1.06 1.58 1.95 2.06 3.15 1.71 6.75-.88 6.57-4.08-.17-3.08-3.65-5.86-6.98-4.04Z" style="fill:#005f91"/><path d="M204.53 275.75c-2.01-.6-4.42-.09-5.2 2.05-.11.29-.17.58-.21.88-1.59 3.55 2.38 7.58 6.08 6.09 4.23-1.7 3.49-7.77-.67-9.02Zm1.38 6.69v-.09c.03-.03.06-.05.09-.09.17-.2.31-.4.42-.6-.13.29-.31.55-.51.78Z" style="fill:#d62339"/><path d="M262.9 240.2c-1.05-1.38-3.4-2.41-5.23-1.76-1.71.61-2.7 2.43-2.74 4.12-.04 1.83 1.09 3.62 2.82 4.35 1.48.63 3.72.32 4.61-.9 1.42-1.29 1.96-3.93.54-5.81ZM264.47 218.65c-.67-.89-2.19-1.55-3.36-1.13-1.1.39-1.74 1.56-1.76 2.65-.03 1.18.7 2.33 1.81 2.8.95.4 2.4.21 2.97-.58.92-.83 1.26-2.53.35-3.74Z" style="fill:#5c9a50"/><path d="M93.85 274.17c-.11.01-.22.03-.32.05-3.51-.4-5.46 4.36-3.91 7.3 1.19 2.25 3.93 3.08 6.13 2.29.35-.09.65-.24.9-.43.6-.37 1.13-.89 1.52-1.56 1.87-3.2-.25-8.05-4.31-7.64Z" style="fill:#ea5a2c"/><path d="M287.8 191.2c-.81-1.86-2.91-2.86-4.67-2.51-1.5.07-2.77 1.37-3.25 2.86-.65 2.02.09 4.33 1.93 5.44.99.6 2.17.73 3.22.43.89-.13 1.72-.51 2.28-1.27 1.02-1.37 1.15-3.39.48-4.94Z" style="fill:#ffe4cc"/><path d="M292.63 179.8c-.49-1.11-1.74-1.71-2.79-1.5-.9.04-1.65.82-1.94 1.71-.39 1.2.05 2.59 1.15 3.25.59.36 1.29.44 1.93.25.53-.07 1.03-.3 1.36-.76.61-.82.69-2.03.28-2.95ZM284.52 206.95c-.49-1.11-1.74-1.71-2.79-1.5-.9.04-1.65.82-1.94 1.71-.39 1.2.05 2.59 1.15 3.25.59.36 1.29.44 1.93.25.53-.07 1.03-.3 1.36-.76.61-.82.69-2.03.28-2.95ZM248.94 214.83c-.7-1.59-2.49-2.45-4-2.15-1.28.06-2.37 1.17-2.78 2.45-.56 1.73.08 3.71 1.66 4.66.85.51 1.86.63 2.76.37.76-.11 1.47-.44 1.96-1.09.88-1.17.99-2.91.41-4.23Z" style="fill:#fff"/><path d="M140.55 261.82c-.81-1.86-2.91-2.86-4.67-2.51-1.5.07-2.77 1.37-3.25 2.86-.65 2.02.09 4.33 1.93 5.44.99.6 2.17.73 3.22.43.89-.13 1.72-.51 2.28-1.27 1.02-1.37 1.15-3.39.48-4.94ZM130.06 290.43c-.46-1.06-1.66-1.63-2.66-1.43-.86.04-1.58.78-1.85 1.63-.37 1.15.05 2.47 1.1 3.1.57.34 1.24.42 1.84.24.51-.07.98-.29 1.3-.72.58-.78.66-1.94.27-2.82Z" style="fill:#ffe4cc"/><path d="M105.28 266.46c-.46-1.06-1.66-1.63-2.66-1.43-.86.04-1.58.78-1.85 1.63-.37 1.15.05 2.47 1.1 3.1.57.34 1.24.42 1.84.24.51-.07.98-.29 1.3-.72.58-.78.66-1.94.27-2.82Z" style="fill:#ffe45f"/><path d="M250.89 226.64c-.96-.55-1.9-.69-2.77-.54-.85.12-1.67.5-2.31 1.09-1.12 1.01-1.57 2.39-1.49 3.72-.02.49.03.99.16 1.48.46 1.69 1.76 2.85 3.42 2.91.31.07.64.11.98.1 4.28-.01 5.49-6.76 2.01-8.76Z" style="fill:#f88dac"/><path d="M127.44 21.57c-9.64 1.86-18.48-.29-24.41-2.56-7.03-2.69-11.6-6.11-11.64-6.15-.04-.03-.05-.08-.02-.12.03-.04.08-.05.12-.02.05.03 4.6 3.45 11.61 6.13 6.47 2.47 16.41 4.81 27.06 1.91 10.65-2.9 17.74-8.3 21.81-12.31 4.41-4.35 6.33-8.07 6.35-8.1.02-.04.07-.06.12-.04.04.02.06.07.04.12-.02.04-1.95 3.77-6.38 8.14-4.09 4.03-11.21 9.45-21.89 12.36-.92.25-1.84.46-2.76.64Z" style="fill:#bb6625"/><path d="m154.39 5.84 1.94 12.01-10.24-4.54s2.33-1.44 4.8-3.88c2.46-2.43 3.5-3.59 3.5-3.59Z" style="fill:#da3528"/><path d="m145.15 13.97 1.13 13.45-11.55-8.17s3.77-1.47 6.18-2.83c2.41-1.36 4.24-2.45 4.24-2.45Z" style="fill:#7eccbf"/><path d="M123.28 21.95s7.82 10.59 7.79 10.5c-.09-.28 3.01-12.93 3.01-12.93s-1.87.75-5.29 1.51-5.51.93-5.51.93Z" style="fill:#ff802d"/><path d="m109.94 20.96 5.34 11.66 5.7-10.54s-4.11.07-7.02-.4c-2.26-.36-4.02-.72-4.02-.72Z" style="fill:#cc1c36"/><path d="M75.28 55.26c-10.78 8.6-23.19 11.68-32.05 12.72-10.51 1.23-18.42-.05-18.5-.06-.07-.01-.11-.07-.1-.14.01-.07.07-.11.14-.1.08.01 7.97 1.29 18.44.06 9.66-1.14 23.56-4.7 34.92-15.25C89.49 41.94 94.8 30.6 97.25 22.95c2.66-8.29 2.63-14.17 2.63-14.23 0-.07.05-.12.12-.12.07 0 .12.05.12.12 0 .06.03 5.96-2.64 14.29-2.46 7.68-7.79 19.06-19.19 29.65-.99.92-1.99 1.78-3.01 2.59Z" style="fill:#bb6625"/><path d="m98.58 18.12 10.24 13.68-15.71 1.02s1.97-3.32 3.45-7.95c1.48-4.63 2.02-6.75 2.02-6.75Z" style="fill:#da3528"/><path d="m92.37 34.27 10.17 16.01-19.7-2.65s3.74-4.28 5.85-7.55c2.12-3.26 3.68-5.82 3.68-5.82Z" style="fill:#7eccbf"/><path d="M70.35 58.44s16.63 8.09 16.53 7.99c-.29-.29-4.68-18.06-4.68-18.06s-1.84 2.15-5.6 5.33c-3.76 3.17-6.25 4.74-6.25 4.74Z" style="fill:#ff802d"/><path d="m53.1 65.9 14.25 11.04.23-16.83s-5.08 2.77-9 4.08c-3.05 1.02-5.47 1.72-5.47 1.72Z" style="fill:#cc1c36"/><path d="m50.59 66.5-4.55 16.44L35.5 68.27s3.98-.07 7.7-.59 7.38-1.18 7.38-1.18Z" style="fill:#1e4872"/><path d="M20.06 90.11c.28-.31.06-.35.16-.75s.46-.32.55-.73-.45-.82-.04-.94c.37-.1.39.29.59.62s.21.32.4.65.05.41.25.74 0 .5.38.6c.39.1.35-.09.71-.28s.44-.04.8-.23.43-.9.75-.65c.29.23-.34.41-.55.72s-.34.22-.55.52 0 .45-.21.76-.5.22-.51.59.14.39.33.72.34.25.53.58.48.32.21.6-.31.08-.67-.07-.39-.08-.75-.23-.19-.56-.56-.71-.4-.04-.78.06c-.33.08-.34.07-.52.36s-.2.28-.38.57.03.42-.16.71-.16.8-.49.72.2-.53.19-.88-.39-.33-.41-.67.04-.35.02-.69.3-.38.09-.66c-.22-.29-.21-.39-.56-.51s-.44.16-.79.03-.4.02-.74-.1-.68-.07-.69-.44.38-.2.72-.29.41.15.75.06.24-.47.58-.56.41.17.76.11c.32-.06.33-.06.57-.32Z" style="fill:#ffa0d2"/><path d="M24.62 104.08c.52-.59.12-.65.29-1.41s.85-.61 1.03-1.37-.84-1.53-.08-1.75c.68-.19.73.54 1.09 1.15s.39.6.75 1.21.1.77.47 1.38.01.93.7 1.11c.73.19.64-.17 1.32-.51s.81-.08 1.49-.42.8-1.68 1.4-1.21c.54.43-.64.77-1.03 1.34s-.64.4-1.02.98 0 .84-.39 1.41-.93.4-.95 1.1.27.72.62 1.34.64.46 1 1.08.89.6.4 1.13-.58.15-1.26-.13-.73-.16-1.4-.43-.36-1.05-1.04-1.32-.74-.07-1.45.11c-.62.16-.63.13-.97.67s-.36.52-.7 1.06.05.79-.29 1.32-.3 1.5-.92 1.33.38-.99.35-1.63-.73-.61-.76-1.25.07-.64.05-1.28.56-.72.17-1.23c-.41-.54-.4-.73-1.04-.96s-.83.29-1.47.06-.74.04-1.38-.19-1.28-.14-1.29-.82.72-.37 1.36-.54.76.28 1.39.11.45-.87 1.09-1.04.76.32 1.41.2c.6-.11.62-.11 1.06-.6ZM168.82 13.2c.52-.59.12-.65.29-1.41s.85-.61 1.03-1.37-.84-1.53-.08-1.75c.68-.19.73.54 1.09 1.15s.39.6.75 1.21.1.77.47 1.38.01.93.7 1.11c.73.19.64-.17 1.32-.51s.81-.08 1.49-.42.8-1.68 1.4-1.21c.54.43-.64.77-1.03 1.34s-.64.4-1.02.98 0 .84-.39 1.41-.93.4-.95 1.1.27.72.62 1.34.64.46 1 1.08.89.6.4 1.13-.58.15-1.26-.13-.73-.16-1.4-.43-.36-1.05-1.04-1.32-.74-.07-1.45.11c-.62.16-.63.13-.97.67s-.36.52-.7 1.06.05.79-.29 1.32-.3 1.5-.92 1.33.38-.99.35-1.63-.73-.61-.76-1.25.07-.64.05-1.28.56-.72.17-1.23c-.41-.54-.4-.73-1.04-.96s-.83.29-1.47.06-.74.04-1.38-.19-1.28-.14-1.29-.82.72-.37 1.36-.54.76.28 1.39.11.45-.87 1.09-1.04.76.32 1.41.2c.6-.11.62-.11 1.06-.6Z" style="fill:#d0fdff"/><path d="M33.5 87.54c.24-.23.02-.23.09-.55s.55-.21.63-.54-.3-.41-.23-.74-.09-.36-.02-.69.04-.82.37-.87.27.53.44.82.22.26.39.55.07.35.24.64 0 .4.17.69.55.06.72.35-.18.68.15.75c.39.08.49 0 .85-.18s.21-.48.57-.66.42-.07.78-.25.3-.61.59-.32-.04.27-.26.59-.45.17-.67.49.09.54-.13.86-.14.38-.37.7-.96.08-.98.48.66.25.85.58-.14.52.04.85.17.34.36.67.86.31.65.63c-.19.29-.51.04-.83-.09s-.14-.57-.46-.7-.51.33-.83.2-.29-.19-.61-.32-.27-.26-.59-.39-.38-.75-.71-.64-.03.65-.22.95-.02.41-.22.72-.34.21-.53.52-.15.33-.34.64-.12.45-.47.36-.39-.17-.41-.53.38-.38.37-.74-.02-.36-.04-.73-.01-.36-.02-.73-.12-.24-.34-.53c-.23-.31-.11-.3-.47-.43s-.35-.15-.72-.28-.45.12-.82-.02-.2-.59-.56-.72-.79.33-.77-.06.39.1.77 0 .28-.44.66-.54.4-.01.78-.11.36-.15.74-.25.47.27.85.18c.35-.09.27-.34.56-.61ZM49.85 51.91c.24-.23.02-.23.09-.55s.55-.21.63-.54-.3-.41-.23-.74-.09-.36-.02-.69.04-.82.37-.87.27.53.44.82.22.26.39.55.07.35.24.64 0 .4.17.69.55.06.72.35-.18.68.15.75c.39.08.49 0 .85-.18s.21-.48.57-.66.42-.07.78-.25.3-.61.59-.32-.04.27-.26.59-.45.17-.67.49.09.54-.13.86-.14.38-.37.7-.96.08-.98.48.66.25.85.58-.14.52.04.85.17.34.36.67.86.31.65.63c-.19.29-.51.04-.83-.09s-.14-.57-.46-.7-.51.33-.83.2-.29-.19-.61-.32-.27-.26-.59-.39-.38-.75-.71-.64-.03.65-.22.95-.02.41-.22.72-.34.21-.53.52-.15.33-.34.64-.12.45-.47.36-.39-.17-.41-.53.38-.38.37-.74-.02-.36-.04-.73-.01-.36-.02-.73-.12-.24-.34-.53c-.23-.31-.11-.3-.47-.43s-.35-.15-.72-.28-.45.12-.82-.02-.2-.59-.56-.72-.79.33-.77-.06.39.1.77 0 .28-.44.66-.54.4-.01.78-.11.36-.15.74-.25.47.27.85.18c.35-.09.27-.34.56-.61ZM127.94 10.28c.24-.23.02-.23.09-.55s.55-.21.63-.54-.3-.41-.23-.74-.09-.36-.02-.69.04-.82.37-.87.27.53.44.82.22.26.39.55.07.35.24.64 0 .4.17.69.55.06.72.35-.18.68.15.75c.39.08.49 0 .85-.18s.21-.48.57-.66.42-.07.78-.25.3-.61.59-.32-.04.27-.26.59-.45.17-.67.49.09.54-.13.86-.14.38-.37.7-.96.08-.98.48.66.25.85.58-.14.52.04.85.17.34.36.67.86.31.65.63c-.19.29-.51.04-.83-.09s-.14-.57-.46-.7-.51.33-.83.2-.29-.19-.61-.32-.27-.26-.59-.39-.38-.75-.71-.64-.03.65-.22.95-.02.41-.22.72-.34.21-.53.52-.15.33-.34.64-.12.45-.47.36-.39-.17-.41-.53.38-.38.37-.74-.02-.36-.04-.73-.01-.36-.02-.73-.12-.24-.34-.53c-.23-.31-.11-.3-.47-.43s-.35-.15-.72-.28-.45.12-.82-.02-.2-.59-.56-.72-.79.33-.77-.06.39.1.77 0 .28-.44.66-.54.4-.01.78-.11.36-.15.74-.25.47.27.85.18c.35-.09.27-.34.56-.61ZM191.2 13.83c.24-.23.02-.23.09-.55s.55-.21.63-.54-.3-.41-.23-.74-.09-.36-.02-.69.04-.82.37-.87.27.53.44.82.22.26.39.55.07.35.24.64 0 .4.17.69.55.06.72.35-.18.68.15.75c.39.08.49 0 .85-.18s.21-.48.57-.66.42-.07.78-.25.3-.61.59-.32-.04.27-.26.59-.45.17-.67.49.09.54-.13.86-.14.38-.37.7-.96.08-.98.48.66.25.85.58-.14.52.04.85.17.34.36.67.86.31.65.63c-.19.29-.51.04-.83-.09s-.14-.57-.46-.7-.51.33-.83.2-.29-.19-.61-.32-.27-.26-.59-.39-.38-.75-.71-.64-.03.65-.22.95-.02.41-.22.72-.34.21-.53.52-.15.33-.34.64-.12.45-.47.36-.39-.17-.41-.53.38-.38.37-.74-.02-.36-.04-.73-.01-.36-.02-.73-.12-.24-.34-.53c-.23-.31-.11-.3-.47-.43s-.35-.15-.72-.28-.45.12-.82-.02-.2-.59-.56-.72-.79.33-.77-.06.39.1.77 0 .28-.44.66-.54.4-.01.78-.11.36-.15.74-.25.47.27.85.18c.35-.09.27-.34.56-.61Z" style="fill:#fff900"/></svg>