<?xml version="1.0" encoding="UTF-8"?><svg id="glasses" xmlns="http://www.w3.org/2000/svg" viewBox="0 0 300 300"><defs><style>.cls-1{fill:none;}.cls-1,.cls-2,.cls-3{stroke-width:0px;}.cls-2{fill:#231815;}.cls-3{fill:#fff;}</style></defs><g id="component_9"><path class="cls-2" d="m139.8,163.58c.24-1.35.76-1.11.86-2.69.05-.82-.59-1.79-.7-2.77-.1-.89-.38-1.75-.71-2.61s-.98-1.37-1.61-2.06c-.58-.63-.84-1.74-1.76-2.14-.75-.33-1.75-.15-2.77-.26-.82-.08-1.67.27-2.68.36-.79.07-1.77-1.02-2.75-.96-.83.05-1.67,1.03-2.62,1.07-.85.04-1.77-.77-2.7-.74-.86.03-1.71,1.16-2.63,1.19-.87.03-1.79-1.03-2.7-1s-1.74.95-2.64.98-1.8-.92-2.71-.88-1.77.25-2.67.29-1.78.11-2.67.15-1.76.63-2.65.67-1.78.2-2.66.25-1.8-.12-2.69-.05-1.76.46-2.64.54-1.86-.54-2.74-.45-1.8.23-2.67.34-1.66,1.12-2.52,1.25c-.91.14-1.86-.14-2.7.03-.92.18-1.71.66-2.52.87-.93.24-1.67.68-2.44.96-.93.34-2.04,0-2.71.41-.89.55-1.58,1.22-1.93,1.91-.4.77-.9,1.56-1.15,2.4s-.04,1.78-.14,2.66.26,1.7.29,2.59-.92,1.83-.78,2.71,1.32,1.5,1.54,2.36-.02,1.8.28,2.63,1.11,1.41,1.47,2.21.6,1.61,1.02,2.38.23,1.88.7,2.62,1.28,1.25,1.8,1.96,1.51,1.01,2.07,1.68.33,2.03.93,2.67,1.66.82,2.3,1.42.84,1.72,1.51,2.27,1.47,1.01,2.18,1.51,1.82.42,2.57.87,1.33,1.2,2.11,1.59,1.6.73,2.41,1.05,1.8.11,2.63.35,1.54,1.11,2.39,1.26,1.81-.45,2.68-.39,1.73.67,2.6.62,1.61-1.01,2.48-1.16,1.93.43,2.79.23,1.85-.22,2.69-.49,1.37-1.56,2.19-1.89,2.06.18,2.85-.21,1.73-.69,2.49-1.14,1.04-1.73,1.76-2.25,1.43-1.06,2.11-1.64,2.02-.49,2.65-1.11.89-1.67,1.48-2.35,1.13-1.42,1.66-2.13,1.56-1.15,2.04-1.9.93-1.6,1.35-2.38.7-1.72,1.07-2.52.45-1.8.76-2.62.37-1.79.63-2.64,1.26-1.56,1.47-2.41c.22-.91-.04-1.9.11-2.76.16-.93.23-1.83.31-2.68Z"/><path class="cls-3" d="m94.18,175.95s-.02-.03-.02-.03c-.96.62-2.22.31-2.85-.64-.79-1.21-.72-1.26-1.51-2.48s-.93-1.13-1.72-2.34-.81-1.2-1.6-2.42-.88-1.16-1.68-2.38-.77-1.23-1.56-2.45c-.62-.96-.25-2.32.71-2.94,0,0,.05.08.05.08.96-.62,2.27-.48,2.89.48.79,1.21.84,1.18,1.63,2.4s.77,1.23,1.57,2.44.6,1.34,1.39,2.56.9,1.15,1.69,2.37.9,1.15,1.7,2.37c.62.96.27,2.37-.68,2.99Z"/><path class="cls-3" d="m99.19,170.66s-.1-.15-.1-.15c-.65.42-1.43.25-1.86-.4-.76-1.17-.9-1.08-1.67-2.24s-.64-1.25-1.4-2.42-.78-1.16-1.54-2.33-.74-1.18-1.51-2.35c-.42-.65-.32-1.54.33-1.97,0,0,.03.04.03.04.65-.42,1.51-.22,1.94.43.76,1.17.8,1.14,1.57,2.31s.78,1.16,1.54,2.32.78,1.16,1.54,2.33.77,1.17,1.54,2.34c.42.65.24,1.66-.41,2.09Z"/><path class="cls-2" d="m160.21,163.58c-.24-1.35.34-1.18.24-2.76-.05-.82-.55-1.73-.44-2.7.1-.89.76-1.61,1.09-2.47s.65-1.48,1.29-2.17c.58-.63.91-1.55,1.82-1.94.75-.33,1.63-.61,2.65-.71.82-.08,1.71.32,2.72.41.79.07,1.71-.21,2.7-.15.83.05,1.73-.19,2.68-.15.85.04,1.72.71,2.65.74.86.03,1.75.15,2.67.18.87.03,1.76-.1,2.67-.07s1.77-.02,2.67,0,1.76.38,2.66.41,1.78-.06,2.67-.03,1.81-.61,2.7-.57,1.74.87,2.63.91,1.8-.17,2.68-.12,1.77.26,2.66.33,1.84-.54,2.72-.46,1.83-.17,2.71-.08,1.77.48,2.64.59,1.73.68,2.59.81c.91.14,1.94-.43,2.78-.26.92.18,1.76.63,2.58.84.93.24,1.8.56,2.57.84.93.34,1.94.52,2.61.94.89.55,1.21,1.67,1.56,2.36.4.77.87,1.54,1.11,2.38s.02,1.75.12,2.63-.21,1.68-.24,2.57.45,1.74.31,2.62-.38,1.68-.6,2.54-.11,1.79-.41,2.62-.86,1.54-1.22,2.34-.3,1.81-.72,2.59-1.7,1.02-2.17,1.77-.15,2-.66,2.71-1.06,1.42-1.62,2.1-1.8.74-2.4,1.38-1.36,1.06-2,1.66-.54,2.04-1.22,2.59-1.86.46-2.57.96-1,1.7-1.75,2.14-2.08-.15-2.85.24-1.19,1.62-2,1.94-1.8.2-2.63.44-1.68.49-2.54.64-1.73.38-2.6.44-1.72-.8-2.6-.84-1.76.51-2.63.36-1.94.27-2.79.06-1.8-.48-2.64-.74-1.6-1.01-2.43-1.33-1.35-1.4-2.15-1.79-2.09.06-2.85-.4-1.39-1.24-2.11-1.75-1.07-1.56-1.75-2.13-1.27-1.23-1.9-1.86-1.41-1.11-2-1.78-1.53-1.09-2.06-1.8-.64-1.75-1.12-2.5-1.6-1.16-2.02-1.95-.19-1.94-.56-2.74-1.1-1.5-1.42-2.33-.82-1.66-1.08-2.5-.51-1.77-.72-2.62c-.22-.91.43-1.95.28-2.8-.16-.93-.92-1.71-1-2.56Z"/><path class="cls-3" d="m205.78,176.01s.07-.11.07-.11c.96.62,2.34.42,2.96-.54.79-1.21.7-1.28,1.49-2.49s.72-1.26,1.51-2.48.9-1.14,1.7-2.36.76-1.24,1.55-2.46.73-1.26,1.53-2.48c.62-.96.49-2.33-.47-2.95,0,0-.05.08-.05.08-.96-.62-2.17-.25-2.8.71-.79,1.21-.96,1.11-1.75,2.32s-.64,1.32-1.43,2.53-.86,1.17-1.65,2.39-.73,1.26-1.52,2.48-.9,1.15-1.69,2.37c-.62.96-.41,2.37.55,2.99Z"/><path class="cls-3" d="m200.86,170.58s.05-.08.05-.08c.65.42,1.55.34,1.97-.31.76-1.17.65-1.24,1.41-2.41s.83-1.12,1.6-2.29.82-1.13,1.58-2.31.7-1.21,1.46-2.38c.42-.65.29-1.62-.36-2.04,0,0-.1.15-.1.15-.65-.42-1.39-.25-1.82.4-.76,1.17-.84,1.11-1.61,2.28s-.82,1.13-1.59,2.3-.72,1.2-1.49,2.37-.7,1.21-1.47,2.38c-.42.65-.3,1.52.35,1.94Z"/><path class="cls-2" d="m162.27,158.45c-.44-1.28-.92-.53-2.48-1.14-.72-.28-1.53-.76-2.51-1.04-.8-.24-1.75-.2-2.69-.39-.84-.17-1.74-.2-2.68-.3-.86-.09-1.75-.39-2.68-.4-.87-.01-1.77.18-2.69.26-.87.08-1.76.17-2.67.34-.86.17-1.81.14-2.69.41-.84.26-1.6.83-2.45,1.19-.81.34-1.64.65-2.46,1.09-.06,1.09.53.97.87,2.01s-.27,1.33.46,2.13c.85.93.92-.17,2.42-.67.69-.23,1.38-.9,2.31-1.13.76-.19,1.65-.08,2.54-.23.79-.13,1.61-.41,2.49-.49.81-.08,1.67-.04,2.54-.06.82-.01,1.67.06,2.53.12s1.7-.12,2.56.02,1.65.36,2.49.57,1.58.59,2.4.88,1.38.55,2.17.92c.43-.94.03-.97.15-2s.4-1.11.06-2.09Z"/></g><rect class="cls-1" x="0" width="300" height="300"/></svg>