<?xml version="1.0" encoding="UTF-8"?><svg id="glasses" xmlns="http://www.w3.org/2000/svg" viewBox="0 0 300 300"><defs><style>.cls-1{fill:none;}.cls-1,.cls-2{stroke-width:0px;}.cls-2{fill:#231815;}</style></defs><g id="component_3"><g id="component_3-2"><path class="cls-2" d="m170.28,158.2c-.52,0-.52-.2-1.03-.2-.85,0-1.59.52-2.39.69s-1.93-.48-2.68-.14-1.04,1.56-1.71,2.05-1.39.86-1.95,1.48-.8,1.4-1.22,2.12-1.33.93-1.6,1.73c-.7-.29-1.49.32-2.39.08-.76-.21-1.42-1.02-2.32-1.15-.79-.11-1.63-.56-2.53-.59-.81-.02-1.68.3-2.56.38-.81.07-1.68.07-2.55.24-.8.15-1.55.67-2.4.92-.78.23-1.55.29-2.37.6-.25-.82-.24-1.71-.65-2.45s-1.73-.86-2.29-1.5-.63-1.79-1.31-2.3-1.55-.78-2.33-1.13-1.71-.06-2.55-.24-1.55-.57-2.42-.57c-.52,0-.52-.29-1.03-.29-.92,0-1.95-.47-2.81-.27s-1.43,1.47-2.23,1.86-1.94.29-2.64.85-1.04,1.53-1.6,2.23-1.47,1.22-1.87,2.03-.76,1.72-.96,2.6.04,1.84.04,2.76c0,.52-.48.52-.48,1.03,0,.92.03,1.95.23,2.81s1.38,1.47,1.77,2.27.8,1.55,1.36,2.25,1.19,1.27,1.89,1.83,1.43.97,2.24,1.36,1.5,1.01,2.38,1.21,1.76.48,2.68.48c.52,0,.52-.74,1.03-.74.92,0,1.76.22,2.62.02s2,.16,2.8-.23,1.27-1.43,1.97-1.99,1.1-1.35,1.66-2.05,1.92-.93,2.32-1.74.74-1.78.95-2.66-.04-1.89-.04-2.81c0-.52-.89-.52-.89-1.03,0-.11.47-.47.47-.58.79-.3,1.77-.48,2.74-.73.85-.21,1.78-.38,2.74-.51.88-.11,1.82-.47,2.78-.48.89,0,1.76.93,2.71,1.04.89.11,1.85-.15,2.78.09.86.22,1.57.84,2.46,1.2,0,.11-.47-.14-.47-.04,0,.52.96.52.96,1.03,0,.92-.59,1.9-.4,2.76s.77,1.7,1.16,2.5,1.04,1.48,1.59,2.18,1.01,1.56,1.71,2.12,1.58.91,2.39,1.3,1.59,1.01,2.47,1.22,1.84-.32,2.75-.32c.52,0,.52-.36,1.03-.36.92,0,1.83.58,2.69.38s1.69-.64,2.49-1.03,1.23-1.29,1.93-1.84,1.64-.79,2.2-1.49,1.52-1.2,1.92-2.02-.04-1.92.16-2.81.22-1.68.22-2.6c0-.52.13-.52.13-1.03,0-.92.08-1.79-.12-2.65s-.57-1.68-.96-2.48-.74-1.64-1.3-2.33-.78-1.86-1.48-2.42-1.67-.94-2.48-1.34-1.7-.91-2.59-1.11-1.9.56-2.82.56Z"/></g></g><rect class="cls-1" x="0" y="-.69" width="300" height="300"/></svg>