<svg id="accessories" xmlns="http://www.w3.org/2000/svg" viewBox="0 0 300 300">
    <path  stroke-width="11px" fill="none" stroke="#231815" stroke-miterlimit="10" d="m137.91 167.98-5.32 17.17-12.48 12.74-17.26 4.36-17.4-4.13-12.67-12.78-4.72-17.36 4.49-17.49 13.18-12.16 17.12-4.92 17.34 4.54 13.1 12.46 4.62 17.57z"/>
    <path stroke-width="8px"  fill="none" stroke="#231815" stroke-miterlimit="10" d="m232.3 167.98-5.33 17.17-12.47 12.74-17.27 4.36-17.4-4.13-12.67-12.78-4.71-17.36 4.49-17.49 13.18-12.16 17.11-4.92 17.34 4.54 13.1 12.46 4.63 17.57z"/>
    <path stroke-width="8px"  fill="none" stroke="#231815" stroke-miterlimit="10" d="M137.5 167.98s12.29-6.25 25.08 0"/>
    <path stroke-width="0" fill="#231815" d="m50.65 134.6 11.18.19 10.41-2.62 9.74-4.4 9.55-4.77 10.09-1.49 10.29.82 9.63 3.9 8.53 5.89 7.95 6.7 5.21 9.01-3.96 11.73-7.21-7.75-8.89-7.19-10.05-5.12-11.14-2.68-10.23 3.24-10.53 1.8-10.68 1.54-10.2-3.32-9.69-5.48z"/>
    <path stroke-width="5px" stroke="#231815" stroke-miterlimit="10" fill="none" d="m50.65 134.6 11.18.19 10.41-2.62 9.74-4.4 9.55-4.77 10.09-1.49 10.29.82 9.63 3.9 8.53 5.89 7.95 6.7 5.21 9.01-3.96 11.73-7.21-7.75-8.89-7.19-10.05-5.12-11.14-2.68-10.23 3.24-10.53 1.8-10.68 1.54-10.2-3.32-9.69-5.48z"/>
    <path stroke-width="0" fill="#231815" d="m248.4 135.14-10.1-1.17-10.36-2.35-10.14-3.38-9.31-5.27-10.11-2.02-10.03 2.28-9.45 3.84-8.78 5.29-7.04 7.42-6.26 8.04 2.51 12.79 8.47-8.96 8.62-7.6 9.83-6.17 11.3.58 10.51 2.36 10.56 2.26 10.77-.69 10.7-1.23 8.31-6.02z"/>
    <path stroke-width="5px" stroke="#231815" stroke-miterlimit="10" fill="none" d="m248.4 135.14-10.1-1.17-10.36-2.35-10.14-3.38-9.31-5.27-10.11-2.02-10.03 2.28-9.45 3.84-8.78 5.29-7.04 7.42-6.26 8.04 2.51 12.79 8.47-8.96 8.62-7.6 9.83-6.17 11.3.58 10.51 2.36 10.56 2.26 10.77-.69 10.7-1.23 8.31-6.02z"/>
    <path fill="#231815" stroke="#231815" stroke-miterlimit="10" d="M101.46 211.42s14.89-19.67 35.64-13.31c23.55 7.22 15.43 31.87 0 28.01-11.64-2.92-5.9-10.26-18.99-15.18-7.95-2.99-16.65.49-16.65.49Z"/>
    <path fill="#231815" stroke="#231815" stroke-miterlimit="10" d="M198.54 212.87s-14.89-19.67-35.64-13.31c-23.55 7.22-15.43 31.87 0 28.01 11.64-2.92 5.9-10.26 18.99-15.18 7.95-2.99 16.65.49 16.65.49Z"/>
    <path d="m147.04 160.08 4.92 1.15 11.76 28.97 6.11 3.78s8.92 10.21-5.84 15.13c0 0-.55 7.47-14.76 9.11-14.22 1.64-16.4-6.56-16.4-6.56s-10.75-4.16 6.74-22.4c0 0 2.55-30.33 7.47-29.18Z" style="stroke-width:0;fill:#f99a7d"/>
    <path fill="#d16850" stroke-width="0" d="m139.57 189.26-6.74 22.4s-7.75-3.29.67-15.13l6.08-7.27ZM164.4 190.2l-3.24 8.21c-.88 2.24-1.21 4.66-.95 7.05l.9 8.4s5.11-6.21 7.85-6.94 5.65-6.38 3.65-9.66-8.2-7.06-8.2-7.06Z"/>

</svg>
