<svg xmlns="http://www.w3.org/2000/svg" viewBox="0 0 300 300">
    <path fill="#fffefd" d="M209.16 141.74c.22.08.44.21.67.22 5.34.31 10.62 1.05 15.77 2.46 3.69 1.01 7.16 2.57 10.25 4.88.49.36 1.01.67 1.49 1.05 1.47 1.16 2.66 2.58 3.68 4.14.82 1.25 1.17 2.61 1.27 4.11.14 2.16-.6 4.06-1.38 5.98-1.46 3.59-3.52 6.8-6.03 9.77-2.12 2.51-4.41 4.85-6.59 7.29-1.79 2-3.86 3.65-5.92 5.35-2.35 1.95-4.96 3.48-7.48 5.18-1.37.93-2.68 1.96-4.11 2.8-3.08 1.8-6.32 3.26-9.78 4.25-2.16.62-4.33 1.07-6.57.92-1.4-.1-2.82-.27-4.19-.59-2.8-.66-5.54-1.53-8.1-2.91-1.83-.99-3.48-2.21-5.03-3.58-.94-.83-1.91-1.63-2.77-2.54-2.57-2.74-5.1-5.52-7.39-8.51-.96-1.25-1.93-2.49-2.97-3.68-.58-.67-1.28-1.24-1.97-1.8-1.68-1.39-3.35-2.79-5.09-4.11-1.35-1.02-2.97-1.62-4.63-1.65-2.26-.04-4.47.51-6.1 2.22-1.08 1.13-2.09 2.38-2.91 3.71-3.42 5.6-7.25 10.92-11.2 16.15-2.41 3.19-5.7 5.07-9.48 6.17-.27.08-.55.15-.83.15-2.6 0-5.2.12-7.78-.03-3.75-.22-7.46-.75-11.11-1.74-4.39-1.19-8.7-2.61-12.81-4.53-3.15-1.47-6.08-3.37-8.89-5.45-3-2.21-5.82-4.63-8.66-7.03-2.16-1.82-4.16-3.81-5.84-6.13-1.19-1.65-2.38-3.26-3.24-5.11-.1-.22-.24-.43-.39-.62-1.8-2.34-2.67-5.08-3.37-7.88-.39-1.54-.31-3.13-.03-4.7.19-1.03.38-2.07.59-3.1.07-.36.16-.72.32-1.04.92-1.88 2.12-3.55 3.94-4.66 3.11-1.9 6.47-3.19 10.03-3.88 2.46-.47 4.92-.88 7.45-.85 1.52.02 3.05-.26 4.58-.4.32-.03.65-.04.97-.04 2.35 0 4.71-.07 7.06 0 2.66.09 5.32.26 7.98.47 2.49.2 4.98.47 7.47.76 1.64.2 3.27.5 4.91.75 2.03.31 4.07.63 6.1.92 3.91.56 7.83 1.08 11.74 1.67 3.99.61 7.96 1.32 11.95 1.93 1.23.19 2.49.22 3.74.3 1.57.09 3.15.19 4.72.23 3.5.09 6.92-.47 10.32-1.27 4.99-1.17 9.97-2.41 15.06-3.12 2.88-.4 5.75-.81 8.63-1.2 2.36-.32 4.71-.66 7.08-.93 1.44-.16 2.9-.19 4.35-.28 1.41-.09 2.82-.17 4.23-.27.15-.01.28-.13.42-.2h5.84z" />
    <path fill="#171111" d="M224.25 162.45c-.23 1.23-.44 2.46-.7 3.68-.48 2.27-1.17 4.48-2.28 6.52-2.14 3.96-4.48 7.79-7.67 11.04-2.95 3.01-6.26 5.53-10.07 7.33-3.11 1.47-6.44 1.9-9.84 1.31-1.55-.27-3.1-.61-4.62-1.03-4.93-1.38-8.97-4.22-12.58-7.76-2.58-2.52-4.66-5.41-6.16-8.67-1.55-3.39-2.03-6.98-1.33-10.67.15-.78.46-1.57.87-2.25 2.17-3.59 5.06-6.4 8.91-8.17 2.54-1.17 5.08-2.34 7.84-2.89 3.93-.77 7.87-1.54 11.9-1.57 5.25-.03 10.43.52 15.53 1.76 2.56.62 4.83 1.88 6.83 3.59 1.57 1.34 2.69 3.01 3.18 5.06.03.11.12.2.18.3v2.43zM105.05 149.39c2.91.13 5.83.2 8.74.4 2.02.14 4.02.45 6.03.71 3.78.49 7.52 1.16 11.19 2.2 2 .57 3.94 1.27 5.63 2.51 3.15 2.32 4.76 5.31 4.03 9.35-.31 1.73-.77 3.4-1.55 4.96-1.48 2.97-2.81 6.04-5 8.59-2.11 2.46-4.28 4.86-6.79 6.95-3.33 2.77-7.13 4.42-11.36 5.17-7.59 1.35-14.59-.2-20.95-4.47-1.97-1.32-3.75-2.96-5.5-4.59-2.75-2.57-5.4-5.25-7.77-8.2-2.28-2.85-4.07-5.93-5.13-9.44-.57-1.9-.87-3.85-.54-5.76.4-2.28 1.7-4.11 3.92-5.08.89-.39 1.82-.69 2.76-.92 2.91-.72 5.81-1.42 8.83-1.57 3.76-.19 7.51-.53 11.26-.79.73-.05 1.46 0 2.19 0v-.02z" />
    <path fill="#e0d0c6" d="M60.19 152.87c.07-.36.16-.72.32-1.04.92-1.88 2.12-3.55 3.95-4.67 3.11-1.9 6.47-3.19 10.04-3.88 2.46-.47 4.93-.88 7.46-.85 1.53.02 3.05-.26 4.58-.4.32-.03.65-.04.97-.04 2.35 0 4.71-.07 7.06 0 2.66.09 5.33.26 7.99.47 2.49.2 4.99.47 7.47.76 1.64.2 3.27.5 4.91.75 2.03.31 4.07.63 6.11.92 3.92.56 7.84 1.08 11.75 1.67 3.99.61 7.97 1.32 11.96 1.93 1.23.19 2.49.22 3.74.3 1.57.09 3.15.19 4.72.23 3.5.09 6.92-.47 10.32-1.27 5-1.17 9.98-2.41 15.07-3.13 2.88-.4 5.76-.81 8.64-1.2 2.36-.32 4.72-.66 7.08-.93 1.44-.16 2.9-.19 4.36-.28 1.41-.09 2.82-.17 4.23-.27.15-.01.28-.13.42-.2h5.84c.22.08.44.21.67.22 5.34.31 10.62 1.05 15.78 2.46 3.69 1.01 7.16 2.57 10.26 4.88.49.36 1.01.67 1.49 1.05 1.47 1.16 2.66 2.58 3.69 4.15.73 1.12 1.08 2.34 1.22 3.66v-.53c-.1-1.51-.46-2.86-1.27-4.11-1.02-1.57-2.21-2.98-3.68-4.14-.48-.38-1-.68-1.49-1.05-3.09-2.31-6.56-3.87-10.25-4.88-5.16-1.41-10.43-2.15-15.77-2.46-.23-.01-.44-.14-.67-.22h-5.84c-.14.07-.28.19-.42.2-1.41.1-2.82.19-4.23.27-1.45.09-2.91.12-4.35.28-2.36.26-4.72.6-7.08.93-2.88.39-5.75.8-8.63 1.2-5.09.71-10.07 1.96-15.06 3.12-3.4.8-6.82 1.35-10.32 1.27-1.57-.04-3.15-.13-4.72-.23-1.25-.07-2.51-.11-3.74-.3-3.99-.61-7.96-1.32-11.95-1.93-3.91-.6-7.83-1.11-11.74-1.67-2.04-.29-4.07-.61-6.1-.92-1.64-.25-3.27-.56-4.91-.75-2.48-.3-4.97-.57-7.47-.76-2.66-.21-5.32-.38-7.98-.47-2.35-.08-4.7-.01-7.06 0-.32 0-.65.01-.97.04-1.53.14-3.05.42-4.58.4-2.53-.02-5 .38-7.45.85-3.57.69-6.92 1.97-10.03 3.88-1.83 1.12-3.02 2.78-3.94 4.66-.16.32-.24.69-.32 1.04-.21 1.03-.4 2.06-.59 3.1-.13.71-.2 1.42-.22 2.13.04-.38.1-.76.16-1.14.19-1.03.38-2.07.59-3.1z" />
    <path fill="#e0d0c6" d="M242.35 158.57c-.01-.16-.04-.3-.05-.46 0 1.94-.67 3.69-1.38 5.45-1.46 3.59-3.52 6.8-6.03 9.77-2.12 2.51-4.41 4.85-6.59 7.29-1.79 2-3.86 3.65-5.92 5.35-2.35 1.95-4.96 3.48-7.48 5.18-1.37.93-2.68 1.96-4.11 2.8-3.08 1.8-6.32 3.26-9.78 4.25-2.16.62-4.33 1.07-6.57.92-1.4-.1-2.82-.27-4.19-.59-2.8-.66-5.54-1.53-8.1-2.91-1.83-.99-3.48-2.21-5.03-3.58-.94-.83-1.91-1.63-2.77-2.55-2.57-2.74-5.1-5.52-7.39-8.51-.96-1.25-1.93-2.49-2.97-3.68-.58-.67-1.28-1.24-1.97-1.8-1.68-1.39-3.35-2.79-5.09-4.11-1.35-1.02-2.97-1.62-4.63-1.65-2.26-.04-4.47.51-6.1 2.22-1.08 1.13-2.09 2.38-2.91 3.71-3.42 5.6-7.25 10.92-11.21 16.15-2.41 3.19-5.7 5.07-9.48 6.17-.27.08-.55.15-.83.15-2.6 0-5.2.12-7.78-.03-3.75-.22-7.46-.75-11.11-1.74-4.39-1.2-8.7-2.61-12.81-4.53-3.15-1.47-6.08-3.37-8.89-5.45-3-2.21-5.82-4.63-8.66-7.03-2.16-1.82-4.16-3.81-5.84-6.13-1.19-1.65-2.38-3.26-3.24-5.11-.1-.22-.24-.43-.39-.62-1.8-2.34-2.67-5.08-3.37-7.88-.21-.85-.28-1.71-.25-2.57-.13 1.19-.1 2.39.19 3.56.71 2.8 1.58 5.54 3.38 7.88.15.19.29.4.39.62.85 1.85 2.04 3.47 3.24 5.12 1.68 2.32 3.68 4.32 5.84 6.14 2.84 2.4 5.67 4.82 8.66 7.03 2.82 2.07 5.75 3.98 8.9 5.45 4.11 1.92 8.43 3.33 12.81 4.53 3.65.99 7.36 1.52 11.12 1.74 2.59.15 5.19.04 7.79.03.28 0 .56-.07.83-.15 3.79-1.09 7.07-2.98 9.49-6.17 3.96-5.23 7.79-10.56 11.21-16.16.82-1.34 1.83-2.58 2.91-3.72 1.64-1.72 3.84-2.27 6.11-2.22 1.66.03 3.28.63 4.63 1.65 1.74 1.31 3.41 2.72 5.1 4.11.69.57 1.39 1.14 1.97 1.8 1.04 1.19 2.01 2.43 2.97 3.68 2.29 2.99 4.83 5.77 7.4 8.51.85.91 1.83 1.72 2.77 2.55 1.56 1.36 3.21 2.59 5.04 3.58 2.56 1.38 5.3 2.25 8.1 2.91 1.37.32 2.79.49 4.19.59 2.24.15 4.41-.3 6.57-.92 3.46-.98 6.7-2.44 9.79-4.25 1.43-.84 2.74-1.87 4.11-2.8 2.52-1.7 5.13-3.23 7.48-5.18 2.06-1.7 4.13-3.36 5.92-5.36 2.19-2.44 4.48-4.78 6.59-7.29 2.51-2.97 4.57-6.18 6.03-9.78.77-1.91 1.52-3.82 1.38-5.98z" />
</svg>