<svg xmlns="http://www.w3.org/2000/svg" id="accessories" viewBox="0 0 300 300"><defs>
    <style>.cls-1{fill:#006934}.cls-2{fill:#fff}.cls-3{fill:#fcc900}.cls-4{fill:#8fc31f}.cls-5{fill:#c30d23}</style></defs>
    <path d="M150 141.55c-2.56 0-4.78 1.76-6.66 1.58-2.18-.21-3.7-3.29-5.95-3.88-1.79-.47-3.58-1.46-6.02-2.27-1.78-.59-4.25.11-6.62-.69-1.76-.59-3.83-1.7-6.28-2.05-1.99-.29-4.25-.12-6.57-.27-2.08-.14-4.29.41-6.54.36-2.13-.05-4.29 1.18-6.5 1.2s-4.33-.19-6.5-.12-4.41-.74-6.55-.63-4.55-1.83-6.64-1.69c-2.3.15-4.27 3.38-6.29 3.54-2.44.19-4.67-.14-6.53.03-4.02.37-6.28-3.59-7.17-.45-1.15 4.09-2.88 5.78-.74 9.45s8.01.61 8.85 4.25c.16.68-.12 3.17-.17 6.48-.03 1.83.84 3.89.92 6.23.07 1.97-2.19 4.24-1.95 6.43.22 2.02 2.38 3.82 2.8 5.94s-.37 4.37.27 6.39 3.05 3.21 3.96 5.12 1.53 3.69 2.75 5.41 2.22 3.32 3.77 4.78 2.83 2.85 4.69 3.97c1.72 1.04 3.2 2.76 5.27 3.51 1.87.67 4.31-.74 6.49-.35 1.96.35 3.71 3.11 5.93 3.2 2.41.1 4.59-2.07 6.7-2.25 2.41-.21 4.83 1 6.87.46 2.32-.61 4.45-1.54 6.35-2.51 2.1-1.07 3.24-3.28 4.9-4.69 1.75-1.5 2.92-3.18 4.26-4.96s2.96-3.31 3.98-5.3 1.15-4.34 1.93-6.42 2.55-3.93 3.19-6.01c.7-2.29 2.93-3.97 3.56-5.97.77-2.45-.8-5.57.12-7.26 1.3-2.4 3.88-3.7 6.13-3.7s2.48 2.58 3.78 4.98c.91 1.69 3.04 3.11 3.82 5.56.63 2-.02 4.58.68 6.86.64 2.08 3.96 3.34 4.78 5.51s.94 4.35 1.99 6.38 2.6 3.47 3.97 5.29 2.91 2.95 4.66 4.44c1.65 1.42 3.23 2.36 5.33 3.43 1.9.97 2.73 5.1 5.05 5.71 2.04.54 4.83-2.13 7.23-1.92 2.1.18 4.28 2.54 6.69 2.44 2.22-.09 4.1-2.21 6.06-2.56 2.18-.39 4.47.25 6.35-.42 2.07-.75 3.99-1.73 5.71-2.77 1.86-1.12 2.74-3.3 4.23-4.7s2.48-3.14 3.68-4.83 2.57-3.16 3.47-5.04 1.8-3.7 2.43-5.69 3.24-3.59 3.64-5.62-2.3-4.66-2.08-6.68c.24-2.2 3.07-4.1 3.15-6.07.09-2.34.17-4.53.15-6.36-.05-3.3-.93-5.48-.77-6.15.84-3.64 5.19-.81 7.42-4.64s1.61-5.55.46-9.65c-.88-3.14-3.99-1.05-8.01-1.41-1.87-.17-4.04-.88-6.48-1.07-2.02-.16-4.4 2.22-6.7 2.07-2.09-.14-4.24-.86-6.47-.97s-4.35.71-6.55.64-4.34.19-6.51.17-4.4-1.91-6.53-1.86c-2.25.05-4.45.34-6.53.47-2.32.15-4.27 2.1-6.27 2.39-2.45.35-4.88-.83-6.64-.23-2.37.8-4.6.83-6.38 1.42-2.44.81-4.43 1.19-6.22 1.67-2.25.59-4.07.41-6.25.61-1.88.18-3.77 1.75-6.33 1.75Zm-46.25 59.77c-2.23-.09-4.78 1.43-6.9.96s-3.49-3.78-5.49-4.64-3.53-2.16-5.33-3.42-4.28-1.5-5.79-3.12-2.22-3.67-3.36-5.6-2.31-3.59-3.05-5.73c-.69-2-1.83-3.99-2.17-6.25-.32-2.08-1.72-4.32-1.73-6.62 0-2.34.43-4.68.74-6.62.37-2.32 1.85-4.34 2.58-6.16.87-2.16 3.64-2.77 4.92-4.31 1.43-1.72 1.06-5.37 2.83-6.46s4.33-1.63 6.37-2.24 4.56.49 6.64.26c2.26-.25 4.38.61 6.35.61 1.46 0 3.87-2.36 6.7-2.17 2.01.14 4.32.54 6.66.95 2.12.37 4.67.07 6.82.77s3.27 3.76 5.18 4.87 4.88 1.02 6.38 2.66 1.62 4.23 2.47 6.4c.74 1.91 3.02 3.86 3.15 6.29.11 2.19-.27 4.5-.45 6.57-.19 2.18-.83 4.39-1.32 6.41-.51 2.12-1.52 4.16-2.32 6.08s-2.63 3.5-3.74 5.27-.93 4.84-2.34 6.38-4.8 1.2-6.48 2.45-2.52 4.22-4.43 5.1-4.57.09-6.64.51-4.13.87-6.27.79Zm60.15-39.49c.13-2.43-1.12-5.2-.37-7.11.85-2.17 4.42-2.69 5.87-4.27s3.23-2.43 5.16-3.54 3.25-3.23 5.36-3.91 4.45-.56 6.57-.93c2.34-.4 4.5-1.01 6.51-1.15 2.83-.19 5.16-.82 6.62-.82 1.97 0 4.33-1.15 6.6-.9 2.07.23 4.42.91 6.51 1.54s3.87 2.34 5.72 3.48 1.93 3.88 3.36 5.6c1.28 1.54 4.98 1.78 5.85 3.93.74 1.82.88 4.27 1.25 6.6.31 1.95-1.06 4.22-1.06 6.56 0 2.3-1.08 4.25-1.4 6.33-.35 2.26 1.43 4.89.74 6.89-.74 2.15-1.87 4.21-2.95 6.05-1.14 1.93-1.9 4.39-3.37 5.98s-4.79 1.31-6.58 2.56-2.82 3.96-4.85 4.83-4.56.3-6.73.77-4.17 2.56-6.4 2.65c-2.14.09-4.57-.47-6.65-.9s-4.24-1.44-6.19-2.34-3.71-2.33-5.44-3.63-2.67-3.38-4.13-4.98-4.36-2.13-5.51-3.97.14-4.89-.69-6.9-3.48-3.32-3.99-5.44.75-4.44.56-6.62c-.18-2.07-.48-4.16-.37-6.35Z" fill="#fff" stroke-width="0"/>
    <path d="M150 140.61c-2.56 0-4.46-.69-6.34-.87-2.18-.21-4.56 2.13-6.81 1.53-1.79-.47-2.96-3.76-5.4-4.56-1.78-.59-4.12-.28-6.49-1.08-1.76-.59-4.23.22-6.68-.13-1.99-.29-4.17.16-6.49 0-2.08-.14-4.19-1.11-6.44-1.16-2.13-.05-4.3.76-6.51.78s-4.35-.72-6.53-.65-4.47-1.62-6.61-1.51-4.46.05-6.55.19c-2.3.15-4.38 1.94-6.41 2.1-2.44.19-4.68-.13-6.55.04-4.02.37-6.83-2.42-7.72.72-1.15 4.09-.01 4.69 2.13 8.36 2.24 3.83 3.44 2.44 4.28 6.08.16.68 1.32 2.61 1.27 5.92-.03 1.83.55 3.95.64 6.29.07 1.97 1.18 3.96 1.42 6.15.22 2.02.63 3.98 1.05 6.09s-1.15 4.56-.51 6.59 3.24 3.18 4.15 5.08.55 4.42 1.77 6.15 1.87 4.1 3.42 5.56 4.64.75 6.49 1.87c1.72 1.04 3.37 1.96 5.44 2.7 1.87.67 3.35 3.27 5.54 3.66 1.96.35 4.19.54 6.41.63 2.41.1 4.6-2.21 6.7-2.39 2.41-.21 4.74.66 6.78.13 2.32-.61 4.77-.73 6.67-1.7 2.1-1.07 2.8-3.98 4.45-5.4 1.75-1.5 4.83-1.66 6.17-3.43s2.32-4.05 3.34-6.04-.12-4.96.66-7.04 4.05-3.45 4.69-5.53c.7-2.29.27-4.8.91-6.8.77-2.45.68-5.08 1.59-6.77 1.3-2.4 3.78-2.3 6.03-2.3s4.39.09 5.69 2.49c.91 1.69 1.41 4.06 2.18 6.5.63 2-.32 4.67.38 6.96.64 2.08 3.62 3.48 4.44 5.64s-.65 5.22.39 7.25 3.25 3.45 4.62 5.27 4.19 2 5.94 3.5c1.65 1.42 2.64 3.56 4.74 4.63 1.9.97 4.11 1.03 6.43 1.64 2.04.54 4.04 1.22 6.44 1.43 2.1.18 4.32 1.78 6.73 1.68 2.22-.09 4.5.17 6.45-.18 2.18-.39 3.64-3.16 5.51-3.83 2.07-.75 3.83-1.48 5.55-2.52 1.86-1.12 4.34-1.24 5.83-2.65s1.47-4.2 2.67-5.9 3.07-2.91 3.97-4.8 3.28-3.31 3.91-5.3-1-4.66-.6-6.69 2.61-3.93 2.83-5.95c.24-2.2-1.71-4.46-1.64-6.43.09-2.34.61-4.43.58-6.25-.05-3.3-1.22-5.97-1.07-6.64.84-3.64 4.54-1.89 6.78-5.73s2.05-3.38.89-7.47c-.88-3.14-1.91-.17-5.92-.53-1.87-.17-3.99-1.31-6.42-1.5-2.02-.16-4.17-1.13-6.47-1.28-2.09-.14-4.38 1.42-6.62 1.31s-4.34.55-6.54.48-4.32-2.45-6.49-2.47-4.44.29-6.57.33c-2.25.05-4.35 2.31-6.43 2.45-2.32.15-4.75-1.98-6.75-1.69-2.45.35-4.26 2.55-6.02 3.14-2.37.8-4.96-.24-6.74.35-2.44.81-3.87 3.21-5.67 3.68-2.25.59-4.36.17-6.54.37-1.88.18-3.9-.56-6.47-.56Zm-46.22 59.77c-2.23-.09-4.09-.96-6.21-1.42s-5.04 1.47-7.04.62-2.54-4.32-4.34-5.58-3.94-1.74-5.44-3.36-3.83-2.56-4.96-4.49-2.67-3.73-3.41-5.88c-.69-2-.39-4.49-.74-6.75-.32-2.08-1.3-4.33-1.3-6.62 0-2.34.95-4.53 1.26-6.48.37-2.32 2.61-3.8 3.35-5.62.87-2.16 1.91-3.5 3.19-5.04 1.43-1.72 1.83-4.16 3.6-5.25s4.01-1.49 6.04-2.09c2.09-.62 4.25-.12 6.33-.35 2.26-.25 4.31-2.63 6.28-2.63 1.46 0 3.71 2.61 6.54 2.81 2.01.14 4.33-.97 6.67-.56 2.12.37 4.45.31 6.6 1s4.72.73 6.64 1.83 4.11 2.62 5.61 4.25.96 4.65 1.81 6.82c.74 1.91 3.19 3.74 3.31 6.17.11 2.19-1.49 4.37-1.67 6.44-.19 2.18-1.55 4-2.04 6.02-.51 2.12 1.16 4.9.36 6.82s-2 4.02-3.11 5.79-4.13 2.26-5.54 3.8-2.85 2.95-4.54 4.2-2.44 4.34-4.35 5.22-4.5.42-6.58.85-4.16-.42-6.31-.51Zm61.05-38.51c.13-2.43 1.12-4.02 1.86-5.93.85-2.17-.3-5.35 1.15-6.93s4.91-.77 6.84-1.88 3.32-2.81 5.43-3.5 4.02-2.48 6.14-2.84c2.34-.4 4.61-1.3 6.63-1.44 2.83-.19 5.27.69 6.73.69 1.97 0 4.29-.73 6.55-.48 2.07.23 4.2 1.41 6.29 2.03s3.19 3 5.04 4.14 2.93 2.29 4.36 4.02c1.28 1.54 3.66 2.34 4.53 4.49.74 1.82.8 3.97 1.17 6.3.31 1.95-.41 4.01-.41 6.35 0 2.3 2.14 4.64 1.82 6.72-.35 2.26-3.39 3.72-4.08 5.72-.74 2.15-.37 4.52-1.45 6.36-1.14 1.93-1.99 4.04-3.46 5.63s-2.65 3.91-4.45 5.16-3.9 2.57-5.93 3.44-4.81-.46-6.97.01-4.1 2.74-6.33 2.83c-2.14.09-4.27-1.66-6.36-2.09s-3.61-2.05-5.56-2.95-4.98.13-6.71-1.16-3.34-2.91-4.8-4.52-1.01-4.52-2.17-6.37-2.06-3.48-2.9-5.49-3.62-3.27-4.13-5.39.4-4.42.21-6.6c-.18-2.07.82-4.14.93-6.33Z" fill="#006934" stroke-width="0"/>
    <path d="M59.71 144.25c-3.43.35-4.34 1.12-6.93-.68-1.7-1.19-1.53-3.49-.57-6.49.52-1.61 1.09-3.56 3.03-5.87 1.24-1.48 2.11-3.84 4.09-5.65 1.61-1.47 4.1-1.96 5.96-3.27s3.25-3.12 5.24-4.21 4.02-1.94 6.09-2.81 4.27-1.24 6.43-1.88 4.24-1.35 6.44-1.76 4.35-1.44 6.58-1.59 4.52.16 6.76.3 4.5.32 6.71.75 4.37 1.1 6.5 1.84 3.72 2.52 5.73 3.56 3.71 2.21 5.56 3.54 3.98 2.02 5.66 3.59c1.58 1.48 3.62 2.7 5.09 4.47 1.38 1.66 1.56 4.24 2.83 6.17 1.71 3.16 2.42 2.85 3.15 6.42.51 2.51-.11 4.99-1.21 6.82-.64 1.06-2.36.79-5.84-.71-1.7-.73-3.45-2.33-5.83-3.28-1.87-.75-3.91-1.75-6.2-2.5-1.97-.64-4.3-.64-6.59-1.2-2.04-.5-4.3-.43-6.59-.81-2.09-.34-4.15-1.75-6.45-1.95-2.12-.18-4.38.01-6.68 0-2.13-.02-4.38-.03-6.66.11-2.13.14-4.33.62-6.6.92-2.12.28-4.25 1.01-6.49 1.45-2.1.42-4.35.53-6.56 1.11-2.08.54-4.36.72-6.53 1.42-2.05.66-4 1.39-6.14 2.19Z" fill="#006934" stroke-width="0"/>
    <path d="M80.07 118.77c-2.78-.88-.96-1.79-4.26-3.37-1.39-.66-3.19-1.78-5.61-1.89-1.65-.08-3.59.72-5.83 1.09-3.37.56-5.42-.07-6.6-.91-1.69-1.21-1.37-3.23.64-5.81 1.18-1.52 3.14-2.73 5.34-4.24 1.75-1.19 3.63-2.43 5.91-3.41 1.75-.75 3.53-2.11 5.74-2.95 1.88-.71 4.14-.75 6.3-1.42 1.97-.61 3.96-1.37 6.12-1.86 2.04-.47 4.1-.98 6.28-1.28s4.22-.03 6.4-.11 4.17.1 6.34.26 4.37-.77 6.51-.35 3.83 2.02 5.91 2.71 4.18.81 6.17 1.76c1.88.9 3.85 1.77 5.72 2.97 1.75 1.12 3.77 2.09 5.49 3.49 2.77 2.43 2.24 3.18 4.15 6.18 1.53 2.39 3.3 5.4 1.73 7.17s-4.68 1.47-7.67.89c-2.12-.41-4.44-1.87-7.14-1.43-2.07.34-4.29 1.2-6.65 2.91-3.38.63-3.4-.31-6.83-.31-3.44 0-3.44.47-6.87.47s-3.43-.69-6.87-.69-3.44.98-6.87.98-3.42.16-6.86.3-3.43-.11-6.71-1.15Z" fill="#006934" stroke-width="0"/>
    <path d="M89.22 98.31c-2.9-1.54.22-3.97-1.44-6.42-1.07-1.58-3.03-2.64-6.01-1.66-3.27 1.07-4.95.08-4.97-2.01-.02-1.59.96-3.8 2.46-5.92 1.13-1.59 2.56-3.34 4.39-4.68 1.44-1.05 3.54-1.75 5.53-2.93 1.69-1.01 3.51-1.95 5.52-2.76 1.88-.76 3.77-1.56 5.87-1.92 1.99-.34 4.09-1.04 6.24-.83 1.97.19 3.85 1.33 5.91 2.14 1.8.7 3.47 1.8 5.32 3.08 1.58 1.1 3.08 2.39 4.68 3.97 1.97 2.09 2.22 1.88 3.55 4.4.99 1.88 2 4.05 1.23 5.56-1.13 2.2-5.37.71-7.65 2.38-1.36.99-2.34 2.74-1.59 7.21-3.02 2.06-3.41.81-7.07.81s-3.66-.32-7.31-.32-3.68-.58-7.3-.02-4.12 1.65-7.36-.07Z" fill="#006934" stroke-width="0"/>
    <path d="M106.05 58.55c.14 1.02.26 1 .4 2.02s-.19 1.06-.05 2.08c.08.55.56.97 1.06 1.22.92.46.95.4 1.87.86s.88.53 1.8.99c.63.31.93.96.93 1.56s-.42 1.04-1.05 1.35c-.92.45-.97.35-1.9.79s-.81.69-1.73 1.14c-.5.24-1.01.71-1.09 1.26-.15 1.02.09 1.05-.06 2.07s-.24 1-.4 2.02c-.11.69-.68.87-1.25 1.06s-1.04.26-1.52-.25c-.71-.74-.94-.52-1.65-1.26s-.41-1.03-1.13-1.77c-.39-.4-1.16-.6-1.71-.51-1.01.17-.97.44-1.98.61s-1.02.13-2.03.3c-.69.11-1.17-.34-1.52-.83s-.37-.95-.04-1.57c.48-.91.43-.93.92-1.84s.44-.93.92-1.84c.26-.49.19-1.16-.07-1.66-.47-.91-.38-.96-.85-1.87s-.43-.94-.9-1.85c-.32-.62-.42-1.23-.06-1.71s1.04-1.01 1.73-.89c1.01.18 1.03.08 2.04.26s.91.75 1.92.93c.55.1 1.18-.27 1.57-.66.72-.73.82-.63 1.54-1.36s.47-.98 1.19-1.72c.49-.5 1.28-.47 1.85-.27s1.15.65 1.24 1.34Z" fill="#fcc900" stroke-width="0"/>
    <path d="m90.51 101.93.12.87c.06.43.18.42.24.86.03.24 0 .54.21.64.39.2.4.19.79.39s.46.06.86.26c.27.13.4.46.39.72s-.2.45-.47.58c-.4.19-.36.27-.75.46s-.41.16-.81.35c-.21.1-.4.33-.43.56-.07.44-.02.44-.08.88s-.17.42-.23.85c-.05.3-.12.63-.36.71s-.61-.04-.82-.26c-.31-.32-.29-.33-.6-.65s-.22-.4-.53-.71a.859.859 0 0 0-.7-.23c-.43.07-.43.1-.86.17s-.43.1-.86.17c-.3.05-.61-.04-.76-.25s-.14-.54 0-.8c.21-.39.27-.36.48-.74s.26-.36.46-.75c.11-.21-.1-.46-.21-.67-.2-.39-.13-.43-.34-.82s-.13-.43-.34-.82c-.14-.27-.07-.5.08-.71s.36-.36.66-.3c.43.08.42.17.85.25s.46-.08.89 0c.23.04.46 0 .62-.17.31-.31.37-.25.68-.56s.23-.39.54-.71c.21-.21.54-.27.79-.19s.46.33.5.62ZM124.99 125.72l.12.87c.06.43.18.42.24.86.03.24 0 .54.21.64.39.2.4.19.79.39s.46.06.86.26c.27.13.4.46.39.72s-.2.45-.47.58c-.4.19-.36.27-.75.46s-.41.16-.81.35c-.21.1-.4.33-.43.56-.07.44-.02.44-.08.88s-.17.42-.23.85c-.05.3-.12.63-.36.71s-.61-.04-.82-.26c-.31-.32-.29-.33-.6-.65s-.22-.4-.53-.71a.859.859 0 0 0-.7-.23c-.43.07-.43.1-.86.17s-.43.1-.86.17c-.3.05-.61-.04-.76-.25s-.14-.54 0-.8c.21-.39.27-.36.48-.74s.26-.36.46-.75c.11-.21-.1-.46-.21-.67-.2-.39-.13-.43-.34-.82s-.13-.43-.34-.82c-.14-.27-.07-.5.08-.71s.36-.36.66-.3c.43.08.42.17.85.25s.46-.08.89 0c.23.04.46 0 .62-.17.31-.31.37-.25.68-.56s.23-.39.54-.71c.21-.21.54-.27.79-.19s.46.33.5.62ZM64.14 132.39l.12.87c.06.43.18.42.24.86.03.24 0 .54.21.64.39.2.4.19.79.39s.46.06.86.26c.27.13.4.46.39.72s-.2.45-.47.58c-.4.19-.36.27-.75.46s-.41.16-.81.35c-.21.1-.4.33-.43.56-.07.44-.02.44-.08.88s-.17.42-.23.85c-.05.3-.12.63-.36.71s-.61-.04-.82-.26c-.31-.32-.29-.33-.6-.65s-.22-.4-.53-.71a.859.859 0 0 0-.7-.23c-.43.07-.43.1-.86.17s-.43.1-.86.17c-.3.05-.61-.04-.76-.25s-.14-.54 0-.8c.21-.39.27-.36.48-.74s.26-.36.46-.75c.11-.21-.1-.46-.21-.67-.2-.39-.13-.43-.34-.82s-.13-.43-.34-.82c-.14-.27-.07-.5.08-.71s.36-.36.66-.3c.43.08.42.17.85.25s.46-.08.89 0c.23.04.46 0 .62-.17.31-.31.37-.25.68-.56s.23-.39.54-.71c.21-.21.54-.27.79-.19s.46.33.5.62Z" fill="#fff" stroke-width="0"/>
    <path d="M133.7 89.99c0 3.37-2.67 6.01-6.04 6.01s-6.1-2.64-6.1-6.01 2.73-6.17 6.1-6.17 6.04 2.8 6.04 6.17ZM64.67 113.27c0 2.11-.84 3.93-2.22 5.31s-3.2 2.33-5.31 2.33-4.1-.78-5.48-2.16-2.04-3.37-2.04-5.48.71-4.05 2.09-5.43 3.32-2.12 5.43-2.12 4.04.74 5.43 2.12 2.1 3.32 2.1 5.43ZM102.59 125.89c0 3.28-2.75 5.99-6.03 5.99s-6.01-2.71-6.01-5.99 2.72-6 6.01-6 6.03 2.71 6.03 6Z" fill="#c30d23" stroke-width="0"/>
    <path d="M81.6 89.99c0 1.64-1.35 2.98-2.99 2.98s-2.95-1.34-2.95-2.98 1.31-2.97 2.95-2.97 2.99 1.33 2.99 2.97ZM124.9 104.06c0 2.41-1.87 4.33-4.28 4.33s-4.42-1.92-4.42-4.33 2.01-4.31 4.42-4.31 4.28 1.9 4.28 4.31ZM84.39 133.93c0 2.41-1.98 4.42-4.39 4.42s-4.3-2.01-4.3-4.42 1.89-4.44 4.3-4.44 4.39 2.03 4.39 4.44Z" fill="#8fc31f" stroke-width="0"/>
    <path d="M237.23 144.32c3.43.35 3.95.49 6.54-1.31 1.7-1.19 3.52-3.43 2.55-6.44-.52-1.61-3.03-2.75-4.97-5.07-1.24-1.48-2.36-3.48-4.34-5.29-1.61-1.47-3.31-2.89-5.17-4.21s-3.23-3.23-5.22-4.33-4.29-1.41-6.37-2.29-3.96-2.24-6.11-2.89-4.5-.45-6.71-.85-4.37-1.1-6.6-1.24-4.48.03-6.72.16-4.54-.05-6.75.39-4.35 1.21-6.48 1.95-3.9 2.17-5.92 3.22-4.27 1.52-6.13 2.85-3.41 2.88-5.08 4.45c-1.58 1.48-3.04 3.22-4.52 4.99-1.38 1.66-3.17 3.25-4.45 5.18-1.71 3.16-1.76 3.4-2.48 6.97-.51 2.51.61 5.14 1.71 6.97.64 1.06 2.62 1.23 6.1-.27 1.7-.73 3.44-2.32 5.82-3.27 1.87-.75 3.88-1.73 6.17-2.48 1.97-.64 4.01-1.68 6.29-2.24 2.04-.5 4.4-.06 6.69-.44 2.09-.34 4.16-1.78 6.47-1.97 2.12-.18 4.39-.33 6.69-.35 2.13-.02 4.34 1.19 6.62 1.34 2.13.14 4.32.32 6.59.62 2.12.28 4.23.97 6.47 1.42 2.1.42 4.36.41 6.57.99 2.08.54 3.97 1.87 6.15 2.57 2.05.66 4.44.06 6.58.87Z" fill="#006934" stroke-width="0"/>
    <path d="M217.25 119.95c2.78-.88.75-2.64 4.04-4.21 1.39-.66 3.06-1.35 5.49-1.46 1.65-.08 3.49.35 5.73.73 3.37.56 5.51-.43 6.69-1.27 1.69-1.21 1.68-3.54-.32-6.11-1.18-1.52-3.06-3.08-5.26-4.58-1.75-1.19-4.03-1.85-6.32-2.83-1.75-.75-3.82-1.36-6.03-2.19-1.88-.71-3.95-1.19-6.11-1.86-1.97-.61-3.61-2.8-5.77-3.29-2.04-.47-4.27-.53-6.44-.83s-4.27-.48-6.46-.56-4.23 1.06-6.4 1.22-4.32-.4-6.46.02-4.07 1.23-6.15 1.92-4.11 1.14-6.1 2.09c-1.88.9-3.78 1.95-5.65 3.14-1.75 1.12-3.04 2.94-4.77 4.34-2.77 2.43-2.97 2.38-4.88 5.38-1.53 2.39-2.27 4.59-.7 6.37s3.68 2.11 6.67 1.53c2.12-.41 4.35-.81 7.05-.37 2.07.34 4.35.81 6.7 2.52 3.38.63 3.48-1.01 6.91-1.01s3.44 1.19 6.87 1.19 3.43.33 6.87.33 3.44.07 6.87.07 3.45-1.19 6.85-.67c3.57.54 3.81 1.46 7.08.41Z" fill="#006934" stroke-width="0"/>
    <path d="M207.83 98.5c2.9-1.54-.48-4.27 1.17-6.72 1.07-1.58 3.09-2.22 6.07-1.24 3.27 1.07 4.31-.24 4.34-2.33.02-1.59-.47-3.62-1.97-5.74-1.13-1.59-2.74-2.93-4.57-4.27a65.912 65.912 0 0 0-5.16-3.43c-1.69-1.01-3.27-2.52-5.28-3.33-1.88-.76-3.89-1.52-5.99-1.88a23.9 23.9 0 0 0-6.29-.21c-1.97.19-4.14.47-6.2 1.27-1.8.7-3.48 2.1-5.33 3.38-1.58 1.1-3.23 2.38-4.83 3.96-1.97 2.09-2.18 2.08-3.51 4.59-.99 1.88-1.75 4.34-.98 5.84 1.13 2.2 5.76.29 8.04 1.96 1.36.99 1.67 3.69.93 8.16 3.02 2.06 3.83.13 7.49.13s3.66-.13 7.31-.13 3.73-1 7.34-.39c3.79.64 4.19 2.08 7.42.37Z" fill="#006934" stroke-width="0"/>
    <path d="M191.24 58.59c-.14 1.02-.3 1-.44 2.01s-.14 1.02-.28 2.04c-.08.55-.62.81-1.11 1.06-.92.46-.8.69-1.72 1.15s-.89.51-1.81.97c-.63.31-1.16.86-1.15 1.46s.45 1.32 1.09 1.63c.92.45.93.43 1.86.88s1.06.17 1.98.62c.5.24.66.91.74 1.46.15 1.02.47.97.63 1.98s-.07 1.05.09 2.07c.11.69.59 1.21 1.16 1.39s1.13-.08 1.62-.59c.71-.74.82-.64 1.53-1.38s.91-.55 1.62-1.29c.39-.4.73-.59 1.28-.49 1.01.17 1.05-.03 2.06.14s1.03.04 2.05.21c.69.11 1.27-.05 1.62-.55s.58-1.23.25-1.85l-.96-1.82c-.48-.91-.45-.93-.93-1.83-.26-.49-.51-1.02-.25-1.52.47-.91.64-.82 1.11-1.74s.48-.91.95-1.82c.32-.62.19-1.41-.17-1.89s-1.02-.6-1.71-.47c-1.01.18-1.04.04-2.05.22s-1.02.11-2.03.3c-.55.1-1.13.03-1.52-.37-.72-.73-.65-.81-1.37-1.54s-.74-.71-1.46-1.44c-.49-.5-1.12-.38-1.69-.19s-.86.51-.96 1.2Z" fill="#fcc900" stroke-width="0"/>
    <path d="m206.49 101.93-.12.87c-.06.43.06.45 0 .89-.03.24-.36.35-.58.45l-.78.4c-.39.2-.32.34-.72.53-.27.13-.41.32-.41.58s.08.59.35.72c.4.19.43.11.83.3s.38.23.77.42c.21.1.33.29.37.52.07.44.11.43.18.86s-.04.45.03.89c.05.3.38.38.63.46s.45.1.66-.12c.31-.32.32-.3.62-.62s.39-.24.69-.56c.17-.17.34-.24.58-.2.43.07.44.04.87.11s.44.04.87.12c.3.05.5-.13.65-.34s.24-.46.1-.72c-.21-.39-.15-.42-.35-.81s-.16-.41-.37-.8c-.11-.21-.32-.46-.21-.67.2-.39.27-.36.47-.75s.27-.36.47-.75c.14-.27.12-.61-.04-.82s-.47-.32-.76-.26c-.43.08-.45-.01-.88.06s-.41.23-.84.31c-.23.04-.49-.07-.66-.24-.31-.31-.25-.38-.56-.69s-.39-.23-.7-.54c-.21-.21-.45-.25-.7-.17s-.44.26-.48.55ZM172.01 125.72l-.12.87c-.06.43.06.45 0 .89-.03.24-.36.35-.58.45l-.78.4c-.39.2-.32.34-.72.53-.27.13-.41.32-.41.58s.08.59.35.72c.4.19.43.11.83.3s.38.23.77.42c.21.1.33.29.37.52.07.44.11.43.18.86s-.04.45.03.89c.05.3.38.38.63.46s.45.1.66-.12c.31-.32.32-.3.62-.62s.39-.24.69-.56c.17-.17.34-.24.58-.2.43.07.44.04.87.11s.44.04.87.12c.3.05.5-.13.65-.34s.24-.46.1-.72c-.21-.39-.15-.42-.35-.81s-.16-.41-.37-.8c-.11-.21-.32-.46-.21-.67.2-.39.27-.36.47-.75s.27-.36.47-.75c.14-.27.12-.61-.04-.82s-.47-.32-.76-.26c-.43.08-.45-.01-.88.06s-.41.23-.84.31c-.23.04-.49-.07-.66-.24-.31-.31-.25-.38-.56-.69s-.39-.23-.7-.54c-.21-.21-.45-.25-.7-.17s-.44.26-.48.55ZM232.86 132.4l-.12.87c-.06.43.06.45 0 .89-.03.24-.36.35-.58.45l-.78.4c-.39.2-.32.34-.72.53-.27.13-.41.32-.41.58s.08.59.35.72c.4.19.43.11.83.3s.38.23.77.42c.21.1.33.29.37.52.07.44.11.43.18.86s-.04.45.03.89c.05.3.38.38.63.46s.45.1.66-.12c.31-.32.32-.3.62-.62s.39-.24.69-.56c.17-.17.34-.24.58-.2.43.07.44.04.87.11s.44.04.87.12c.3.05.5-.13.65-.34s.24-.46.1-.72c-.21-.39-.15-.42-.35-.81s-.16-.41-.37-.8c-.11-.21-.32-.46-.21-.67.2-.39.27-.36.47-.75s.27-.36.47-.75c.14-.27.12-.61-.04-.82s-.47-.32-.76-.26c-.43.08-.45-.01-.88.06s-.41.23-.84.31c-.23.04-.49-.07-.66-.24-.31-.31-.25-.38-.56-.69s-.39-.23-.7-.54c-.21-.21-.45-.25-.7-.17s-.44.26-.48.55Z" fill="#fff" stroke-width="0"/>
    <path d="M163.12 89.99c0 3.37 2.79 6.15 6.17 6.15 3.37 0 6.2-2.78 6.2-6.15 0-3.37-2.83-6.14-6.2-6.14s-6.17 2.76-6.17 6.14ZM232.08 113.27c0 2.11.93 4.03 2.31 5.41s3.31 2.07 5.41 2.07 4.02-.71 5.4-2.09 2.26-3.29 2.26-5.4-.8-4.09-2.18-5.48-3.37-2.26-5.48-2.26-4.02.95-5.4 2.33-2.32 3.3-2.32 5.4ZM194.47 125.89c0 3.28 2.64 6.05 5.93 6.05s5.93-2.77 5.93-6.05-2.64-5.97-5.93-5.97c-3.28 0-5.93 2.68-5.93 5.97Z" fill="#c30d23" stroke-width="0"/>
    <path d="M215.31 89.99c0 1.64 1.38 2.95 3.02 2.95s2.97-1.31 2.97-2.95-1.32-2.94-2.97-2.94-3.02 1.3-3.02 2.94ZM171.98 104.06c0 2.41 1.93 4.42 4.34 4.42s4.43-2.01 4.43-4.42-2.02-4.41-4.43-4.41-4.34 2-4.34 4.41ZM212.67 133.93c0 2.41 1.87 4.33 4.28 4.33s4.38-1.92 4.38-4.33-1.97-4.42-4.38-4.42-4.28 2.01-4.28 4.42Z" fill="#8fc31f" stroke-width="0"/></svg>
