<svg xmlns="http://www.w3.org/2000/svg" viewBox="0 0 300 300">
    <path fill="#3f0707" opacity=".25" d="M115.51 150.29c.91.28 1.67 1.08 2.57 1.39.68.23 1.37.34 1.99.66s1.2.71 1.77 1.13 1.33.61 1.84 1.1.69 1.27 1.13 1.83c.37.47 1 .74 1.33 1.22s.6 1.04.89 1.55.44 1.1.67 1.65.16 1.17.32 1.75c.17.63.85 1.16.93 1.79s-.19 1.33-.19 1.97.09 1.31 0 1.95-.52 1.21-.68 1.84c-.17.67-.42 1.32-.6 1.99s.1 1.47-.1 2.13-.75 1.22-.98 1.87-.61 1.23-.88 1.87-.24 1.42-.57 2.03c-.34.61-.6 1.28-.97 1.87s-1.18.9-1.56 1.48-.55 1.31-.93 1.9c-.32.51-.7.98-1.05 1.47s-.67 1-1.04 1.47-.71.98-1.11 1.43-.78.92-1.2 1.35-1.09.6-1.53 1.02c-.19.19-.19.58-.37.79-.46.54-.98 1.01-1.46 1.51s-.81 1.19-1.32 1.66-1.17.8-1.72 1.24-1.21.72-1.79 1.11-1.22.66-1.83 1-1.19.7-1.83.99-1.14.88-1.81 1.12-1.41.17-2.09.36c-.52.15-1 .43-1.52.4s-1.1.07-1.62-.08c-.6-.18-1.15-.56-1.7-.82s-1.12-.56-1.64-.89-1.02-.71-1.51-1.08-.77-1.02-1.25-1.4c-.5-.39-1.26-.46-1.76-.86s-.72-1.13-1.2-1.54-1.24-.52-1.71-.95-.89-.92-1.36-1.36-.74-1.07-1.2-1.52-.97-.83-1.42-1.28-.86-.94-1.29-1.41c-.47-.5-1.14-.82-1.62-1.32s-.84-1.11-1.31-1.61-.96-.99-1.42-1.51-.98-.98-1.42-1.51-.62-1.27-1.03-1.82-.78-1.12-1.16-1.7c-.34-.52-.85-.92-1.15-1.46s-.64-1.06-.89-1.62-.47-1.14-.69-1.72-.35-1.18-.53-1.77-.55-1.13-.7-1.72-.25-1.21-.37-1.82c-.12-.57.09-1.19 0-1.76s-.39-1.11-.44-1.68.17-1.15.16-1.73c-.01-.67-.05-1.3.07-1.93s.3-1.26.55-1.86.64-1.11.98-1.67c.36-.59.49-1.32.9-1.83s1.16-.77 1.63-1.24.68-1.29 1.21-1.68 1.39-.3 1.99-.62 1.11-.73 1.74-.96 1.25-.4 1.92-.55 1.25-.59 1.94-.66c.64-.07 1.3.08 1.94.08s1.26.28 1.89.34 1.31-.14 1.93 0 1.13.65 1.74.85 1.3.13 1.89.4.98.84 1.54 1.17c.59.34 1.2.65 1.78 1s1.24.59 1.82.96 1.2.65 1.79 1.01c.19.11.26-.01.57.12.25-.57.83-.72 1.26-1.07s.76-.9 1.24-1.22c.52-.35 1.2-.47 1.73-.8s.96-.86 1.51-1.16 1.21-.4 1.78-.66 1.15-.5 1.74-.71 1.14-.58 1.76-.73c.56-.14 1.17-.16 1.73-.3.55 0 1.1.14 1.65.14s1.15-.35 1.7-.35zM160.62 168.11c.41.25 1.05.3 1.54.6-.04-.76.36-1.27.28-1.84-.08-.59 0-1.17-.04-1.75s-.5-1.16-.48-1.75.29-1.16.36-1.74-.13-1.22 0-1.8c.15-.64.42-1.23.66-1.8s.52-1.19.87-1.71 1.11-.69 1.56-1.15.71-1.02 1.24-1.41c.55-.41 1.12-.72 1.7-1.02s1.09-.86 1.71-1.09 1.28-.42 1.94-.57 1.27-.57 1.94-.67c.76-.12 1.57.08 2.32.04s1.53-.35 2.29-.34 1.5.72 2.26.76c.62.03 1.19.22 1.8.32s1.27-.11 1.87.04 1.33-.05 1.91.17 1.03.78 1.59 1.05 1.12.53 1.66.85c.69.4 1.14 1.18 1.81 1.61s1.44.99 2.11 1.42c.65-.18 1.35-.82 2-1.01s1.42.08 2.06-.1 1.28-.37 1.93-.54 1.1-1.17 1.75-1.32c.66-.14 1.39 0 2.05-.12s1.34-.18 2.01-.27 1.38.23 2.05.17 1.32-.56 1.99-.57 1.32.64 1.99.68c.73.05 1.45-.12 2.16 0s1.57-.26 2.26-.04 1.26.83 1.91 1.16 1.43.47 2.02.93c.46.36.88.83 1.23 1.27s.16 1.22.41 1.74c.26.54 1.09.84 1.28 1.4s-.3 1.3-.18 1.88.04 1.14.08 1.74.87 1.16.85 1.75c-.02.59-.39 1.17-.45 1.76s-.64 1.09-.74 1.67.67 1.35.53 1.92-1.14.92-1.3 1.49c-.18.62-.1 1.29-.3 1.9s-.46 1.19-.68 1.78.04 1.39-.21 1.98-1.06.93-1.33 1.51-.07 1.38-.36 1.95-.68 1.09-.99 1.65-.79 1.02-1.11 1.57-1.01.87-1.34 1.42c-.32.52.02 1.52-.37 2s-1.16.64-1.57 1.09c-.4.45-.63 1.06-1.04 1.51s-1.18.56-1.6 1-.92.77-1.36 1.2c-.42.41-.33 1.37-.76 1.77s-1.23.41-1.67.8-1.01.63-1.45 1.02-.5 1.22-.95 1.6c-.57.49-1.05 1.12-1.65 1.57s-1.65.25-2.28.66c-.62.41-1.04 1.13-1.7 1.46s-1.37.57-2.06.82-1.39.54-2.11.69-1.45.36-2.2.41c-.7.04-1.44.03-2.1-.11s-1.12-.9-1.74-1.2-1.34-.35-1.91-.75c-.57-.4-1.08-.89-1.65-1.29s-1.38-.47-1.94-.89-.96-1.05-1.5-1.49c-.43-.35-.69-.91-1.09-1.29s-.68-.89-1.08-1.28-.85-.74-1.26-1.12c-.1-.09-.54.19-.64.11-.49-.41-.66-1.18-1.11-1.62s-1.16-.65-1.59-1.12-1.09-.76-1.49-1.26-.6-1.16-.98-1.67-.77-1.02-1.13-1.54-.68-1.08-1.04-1.61c-.36-.54-.3-1.39-.69-1.92s-1.31-.66-1.69-1.18-.22-1.42-.56-1.97c-.35-.57-1.24-.82-1.55-1.41s-.5-1.25-.8-1.84-.21-1.38-.5-1.98c-.23-.48-.56-.89-.74-1.41s-.37-1.1-.56-1.62c-.32.2-.51.68-.73.82-.9.56-1.85.19-2.64-.46-.56-.46-1.16-.86-1.75-1.26s-1.27-.67-1.89-1.02-1.07-1.11-1.73-1.39-1.36-.56-2.06-.76-1.48 0-2.21-.11c-.66-.1-1.32-.06-1.97-.11s-1.31-.11-1.97-.11-1.32-.11-1.98-.08-1.29.38-1.95.42c-.63.04-1.22.04-1.82.15s-1.33-.23-1.92-.06-1.07.72-1.65.94-1.3.12-1.86.38-1.04.7-1.59 1c-.23.13-.42.22-.64.3-.73-.28-1.05-.63-1.33-.97-.35-.43-.75-.89-.41-1.61.2-.42 1.04-.6 1.47-1.17 0-.05-.59-.06-.61-.09-.7-.86-.22-1.68.08-2.35.25-.56.54-1.1 1.55-1.59.7-.34 1.4-.61 2.13-.87s1.31-1 2.06-1.2 1.58-.09 2.34-.24c.57-.11 1.2.16 1.77.07s1.08-.64 1.65-.68 1.12.52 1.7.57c.72.06 1.49-.38 2.21-.33s1.4.63 2.12.7 1.44.07 2.15.17c.53.08 1.07 0 1.59.18s1.06.28 1.56.5c.54.25 1.24.16 1.77.42s.82.99 1.35 1.27 1.28.12 1.8.41c.43.23.6.94.95 1.3.54.55 1.19.91 1.25 1.42.05.46-.85 1.06-1.16 1.78z"/>
    <path fill="#f15942" d="M98.85 150.63c.48-.53 1.19-.69 1.73-1.09s1.09-.76 1.7-1.06 1.11-.84 1.77-1.07 1.32-.37 1.99-.55 1.29-.54 1.96-.69c.68-.15 1.43.07 2.11-.04s1.37-.16 2.06-.22 1.37-.15 2.06-.17 1.38-.08 2.07-.05 1.36.22 2.05.31 1.4 0 2.08.14 1.43.04 2.1.24 1.28.58 1.93.83c.61.23 1.09.7 1.64 1s1.25.41 1.77.78.86.97 1.33 1.4 1.17.65 1.59 1.13.73 1.07 1.12 1.58c.36.48.39 1.17.63 1.74s.32 1.16.45 1.74c.14.63.64 1.19.75 1.82s.06 1.3.14 1.94.46 1.26.5 1.91-.2 1.31-.19 1.95.07 1.29.05 1.94.05 1.3 0 1.95c-.06.7-.38 1.37-.46 2.06s-.24 1.37-.36 2.06-.07 1.41-.25 2.09c-.16.61-.35 1.22-.56 1.82s-.83 1.02-1.08 1.6-.12 1.33-.4 1.89-.87.96-1.19 1.51-.73 1.02-1.07 1.55-.41 1.24-.77 1.76c-.4.58-.95 1.04-1.37 1.6s-.67 1.26-1.1 1.81-.93 1.05-1.39 1.59-.89 1.08-1.36 1.61-1.21.79-1.69 1.3-.83 1.15-1.32 1.64-1.01.97-1.51 1.46-.85 1.14-1.36 1.62c-.46.43-.93.86-1.41 1.28s-.83.99-1.32 1.39-1.12.63-1.62 1.02-.89.94-1.4 1.31-1.33.3-1.86.65-1.11.6-1.65.93-.95.87-1.49 1.19-.95.9-1.5 1.21c-.63.34-1.44.39-2.14.6s-1.42.4-2.12.52c-.89.15-1.84-.42-2.75-.66-.63-.17-1.19-.43-1.79-.68s-1.32-.21-1.9-.52-.94-.94-1.49-1.29-1.09-.69-1.62-1.06c-.57-.39-1.51-.25-2.06-.66s-.98-1-1.52-1.42-1.05-.89-1.58-1.33-.85-1.12-1.36-1.58-1.26-.67-1.75-1.14-.66-1.29-1.14-1.78-1.09-.86-1.56-1.36-1.24-.73-1.7-1.25-.71-1.21-1.15-1.74-1.05-.92-1.48-1.46c-.41-.52-.8-1.05-1.21-1.57s-.48-1.3-.88-1.83-1.2-.75-1.59-1.28-.39-1.35-.78-1.89c-.4-.56-.68-1.17-1.03-1.75s-1.22-.88-1.54-1.48-.4-1.34-.67-1.96-.18-1.39-.42-2.03-1.09-1.08-1.29-1.74.27-1.48.11-2.15-.49-1.28-.61-1.96c-.13-.72-.17-1.43-.21-2.16s-.42-1.47-.36-2.2.61-1.38.75-2.11c.14-.72-.11-1.51.04-2.22s.4-1.41.61-2.11.59-1.33.9-2c.27-.59.84-.99 1.16-1.53s.16-1.45.54-1.95 1.09-.77 1.54-1.21.83-1 1.33-1.39 1.23-.43 1.79-.75 1.13-.5 1.72-.75.98-.99 1.6-1.18c.62-.19 1.35.03 1.98-.1s1.28-.1 1.92-.2 1.22-.6 1.87-.66 1.29-.24 1.93-.26 1.3.54 1.94.54 1.29-.3 1.94-.28c.8.02 1.61.22 2.41.44s1.59.43 2.35.71c.62.23 1.26.4 1.86.67s1.21.51 1.81.8 1.11.69 1.71.97zm-27.72 15.41c.09.63-.19 1.29-.11 1.9s.21 1.27.36 1.87c.16.65.64 1.21.86 1.83s.42 1.26.68 1.86.74 1.11 1.04 1.69.31 1.34.63 1.91.64 1.16.99 1.73.74 1.1 1.1 1.65c.29.46.76.82 1.11 1.24.4.47.69 1.03 1.09 1.5s.95.81 1.35 1.28c.4.47 1.01.76 1.4 1.23s.67 1.04 1.08 1.5c.45.5.76 1.14 1.23 1.61s1.16.74 1.64 1.2.83 1.08 1.33 1.53 1.24.61 1.75 1.04.95.95 1.48 1.37.87 1.07 1.41 1.47 1.03.88 1.57 1.27c.55.4 1.34.47 1.92.83s1.11.81 1.72 1.13 1.36.3 1.99.56 1.16.74 1.82.96c.78.26 1.45.21 2.17-.2.65-.38 1.26-.83 1.91-1.2s1.43-.53 2.05-.95c.54-.37 1.11-.69 1.63-1.07s.91-.95 1.42-1.35 1.01-.82 1.5-1.24 1.26-.54 1.74-.98.65-1.21 1.12-1.66 1.15-.68 1.61-1.15.98-.87 1.43-1.34.64-1.18 1.07-1.67c.5-.55 1.12-1 1.6-1.57s.76-1.3 1.2-1.9.91-1.17 1.31-1.8c.34-.54.63-1.1.93-1.65s.93-.95 1.2-1.52.37-1.23.62-1.81.51-1.16.73-1.76.22-1.27.41-1.87.38-1.2.55-1.81.12-1.27.27-1.88.48-1.18.61-1.8c.12-.57-.02-1.17.04-1.76s.58-1.17.54-1.75c-.04-.6-.03-1.23-.16-1.81s-.55-1.1-.76-1.65-.73-.95-1.01-1.48-.35-1.14-.68-1.64c-.36-.55-.77-1.04-1.18-1.5-.44-.49-.69-1.17-1.18-1.56s-1.04-.84-1.6-1.13-1.3-.24-1.92-.43-1.16-.68-1.81-.78c-.61-.09-1.29-.13-1.95-.13-.63 0-1.23.68-1.85.74s-1.26-.05-1.88.07-1.23.23-1.84.39-1.3.06-1.9.24-1.09.72-1.69.92c-.57.19-1.31 0-1.83.26s-.97.74-1.47 1.06-.74 1-1.22 1.36c-.81.6-1.51.68-2.04.67s-1.2-.15-1.99-.77c-.29-.23-.52-.49-.83-.69-.52-.33-.79-1.04-1.31-1.37s-1.28-.21-1.84-.44c-.59-.25-1.03-.92-1.63-1.1s-1.23-.46-1.85-.59-1.36.36-1.99.28-1.23-.38-1.87-.43-1.27-.43-1.9-.44-1.27.68-1.9.7c-.62.02-1.29-.58-1.89-.5s-1.2.42-1.78.6-1.19.36-1.75.63-.86.91-1.38 1.26c-.54.37-1.32.41-1.77.83s-.61 1.17-.99 1.68-.76.98-1.02 1.57-.59 1.11-.73 1.76c-.12.55-.53 1.05-.62 1.6s.48 1.2.4 1.75-.44 1.06-.53 1.61zM195.49 151.51c.59-.3 1.04-.54 1.64-.8s1.27-.42 1.89-.64 1.32-.22 1.96-.38 1.25-.49 1.91-.58c.59-.08 1.22.31 1.81.26s1.15-.66 1.74-.68c.66-.03 1.35.37 2.02.32s1.33-.19 1.99-.2 1.3.3 1.96.37c.7.08 1.41-.09 2.07.04s1.45.01 2.09.22 1.24.69 1.87.97 1.12.82 1.71 1.17 1.34.48 1.88.9.91 1.05 1.4 1.54 1.07.88 1.5 1.42.96 1.01 1.34 1.6.67 1.21 1 1.83c.31.59.23 1.35.47 1.96s.51 1.2.68 1.84.71 1.21.8 1.87-.13 1.34-.13 2.01c0 .77-.09 1.54-.19 2.31s-.23 1.53-.36 2.29c-.12.69-.12 1.41-.28 2.08s-.72 1.25-.92 1.91-.36 1.34-.61 1.99-.2 1.43-.48 2.07-.81 1.16-1.14 1.78-.58 1.27-.93 1.88-.89 1.08-1.28 1.66-.57 1.3-.98 1.87-1.12.89-1.56 1.44c-.4.51-.79 1.02-1.2 1.52s-.59 1.19-1.01 1.69-.88.95-1.31 1.44-.7 1.11-1.14 1.59-1.14.7-1.6 1.16c-.46.47-.95.9-1.42 1.35s-.93.92-1.42 1.35-.94.91-1.45 1.32-1.1.71-1.62 1.11-.92.95-1.46 1.33-.92.98-1.46 1.35-1.19.58-1.75.93-1.23.5-1.79.84c-.65.39-1.17 1.01-1.85 1.36s-1.46.47-2.15.8-1.21.97-1.89 1.31c-.72.36-1.54.41-2.27.41s-1.37-.45-2.13-.72c-.64-.23-1.23-.55-1.85-.8s-1.4-.17-2.01-.45-1.16-.71-1.76-1.02-1.36-.35-1.94-.69-1.03-.92-1.6-1.29-1.17-.68-1.72-1.07-1.17-.7-1.7-1.12-.9-1.04-1.42-1.47-.99-.92-1.5-1.36-1.14-.75-1.64-1.21-.98-.93-1.46-1.41c-.49-.49-.66-1.27-1.12-1.78s-1.25-.73-1.69-1.26-.61-1.27-1.02-1.82-.73-1.16-1.11-1.73-1.05-.95-1.41-1.54-.56-1.26-.9-1.86-.87-1.09-1.18-1.71-.56-1.26-.85-1.88-.6-1.24-.87-1.87-.18-1.41-.43-2.05-.66-1.21-.89-1.86c-.21-.59-.37-1.19-.55-1.78s-.55-1.15-.69-1.75-.25-1.23-.35-1.84-.39-1.22-.44-1.85.13-1.27.12-1.89-.21-1.27-.16-1.89c.05-.7.62-1.37.69-2.07s.25-1.38.37-2.07 0-1.43.19-2.11.12-1.47.41-2.12c.27-.6.78-1.09 1.08-1.64s.62-1.16.97-1.69.99-.88 1.4-1.37.87-.92 1.33-1.37.7-1.14 1.21-1.53 1.23-.46 1.79-.8 1.08-.63 1.68-.9.94-1.11 1.56-1.32 1.31-.17 1.95-.32 1.27-.22 1.93-.31c.86-.12 1.75.09 2.61.01.69-.06 1.35-.41 2.01-.36s1.26.62 1.92.76 1.34.12 1.98.32 1.42 0 2.05.23 1.18.7 1.82.93c.64.23 1.37.27 2 .55s1.24.61 1.84.94c.59.32.94 1.05 1.51 1.44.55.37 1.26.24 1.85.63zm25.89 15.04c-.11-.75-.11-1.67-.36-2.58-.17-.62-.27-1.23-.49-1.81-.24-.6-.32-1.25-.62-1.79s-.83-.96-1.22-1.44-.51-1.27-.99-1.68-1.31-.3-1.87-.61-.91-.95-1.53-1.17c-.57-.2-1.22-.25-1.87-.37-.77-.14-1.51-.53-2.28-.59s-1.57.2-2.34.23-1.5.41-2.27.53c-.62.09-1.28-.05-1.9.05s-1.29-.03-1.9.11-1.13.62-1.72.84-1.25.26-1.8.59-.93.81-1.42 1.25c-.58.53-1.19.91-1.74.86-.52-.05-1.13-.42-1.74-.89-.33-.25-.37-.88-.71-1.11-.46-.31-.96-.58-1.41-.91s-1.15-.3-1.62-.61-.81-.82-1.31-1.06c-.55-.27-1.1-.55-1.67-.76s-1.15-.43-1.73-.6-1.21-.19-1.81-.32-1.13-.62-1.74-.71-1.23-.1-1.84-.16c-.67-.07-1.34.26-1.98.29-.67.03-1.35-.13-1.97 0s-1.26.42-1.86.65-1.3.34-1.88.66-.98.9-1.51 1.29-1.26.53-1.75.98c-.54.5-1.05 1.08-1.49 1.64s-.59 1.37-.93 2.01-.66 1.29-.88 1.98-.17 1.42-.28 2.15-.53 1.39-.54 2.13c-.01.68-.04 1.38 0 2.05s.15 1.37.24 2.03.28 1.34.42 2 .18 1.36.37 2.01.61 1.23.84 1.87.75 1.14 1.03 1.76.41 1.29.73 1.89c.33.62.49 1.35.85 1.95s.99 1.04 1.39 1.61.62 1.29 1.05 1.85 1.14.89 1.59 1.43.8 1.16 1.28 1.68.72 1.25 1.21 1.76.92 1.07 1.43 1.57c.45.44 1.18.6 1.64 1.04s.84.96 1.31 1.38 1.17.58 1.65.99.8 1.01 1.29 1.41 1.03.73 1.53 1.11 1.07.67 1.58 1.04.87.95 1.39 1.31c.57.39 1.14.82 1.75 1.16s1.33.48 1.95.8 1.25.64 1.86.96c.58.31 1.28.77 1.92.52.61-.24 1.07-.9 1.68-1.14s1.35-.2 1.96-.48 1.26-.49 1.83-.82.95-.98 1.47-1.39c.47-.36 1.04-.6 1.5-.97s.76-.94 1.21-1.32.94-.73 1.38-1.11c.5-.43.97-.9 1.44-1.34s1.22-.65 1.68-1.11.78-1.09 1.22-1.57.9-.97 1.33-1.47.66-1.16 1.07-1.68.8-1.04 1.18-1.57.57-1.19.94-1.74.88-.99 1.22-1.55.47-1.24.79-1.81 1.08-.91 1.37-1.5.68-1.14.95-1.74.3-1.31.56-1.91.2-1.33.43-1.95.69-1.14.9-1.77c.23-.67.37-1.35.49-2.05s.51-1.36.56-2.07-.5-1.38-.5-2.11z"/>
</svg>