<svg id="accessories" xmlns="http://www.w3.org/2000/svg" viewBox="0 0 300 300">
    <path   fill="none" stroke-width="0" d="M1.21 1.21h297.58v297.58H1.21z"/>
    <path fill="#0d0709" stroke-width="0" d="m45.19 87.84 4.09-6 5.09-5.8 6.9-2.98 7.21-1.93 7.1-1.98 6.85-3.25 7.69 1.11 7.12-2.27 7.35-.51 7.33-1.22 7.41 3.25 7.33-2.11 7.24 2.49 7.51-3 7.2 2.27 7.11 2.55 7.01-1.5 6.39 3.4 7.25-2.42 6.41 2.91 6.76.85 6.48 2.17 6.17 3.15 6.52 1.7 6.78 1.02 7.74.87 5.68 5.3 5.98 4.34 7.74 2.33 4.67 6.09 5.55 5.22 3.58 6.75 3.68 6.56 1.18 7.6 4.11 6.47 1.2 7.41-.54 7.52-1.29 7.28 2.91 7.66-.49 7.03-4.57 5.84-1.95 6.63-5.34 4.4-4.12 5.69-6.11 3.99-7.93-1.89-7.03 1.07-7.08.49-7.32 2.65-7.08-2.24-6.86-2.57-7.8 1.53-6.11-5.36-7.5-.04-6.91-2.28-7.05-1.76-7.39-.52-6.62-3.13-6.95-2.67-7.4 1.88-7.35-3.02-6.99 3.26-7.39-.03-6.45 3.97-7.28.71-6.27 4.46-8.05-2.86-6.6 3.78-7.23-.11-7.29 2.42-7.4-.88-5.41-6.32-5.98-3.13-6.9-2.2-5.07-4.92-5.58-4.63-4.64-5.66-1.92-7.11-2.43-6.74-2.28-6.91 3.03-7.31.54-6.8-1.93-7.45 4.98-5.83-.96-8.1 6.84-4.3 1.58-7.47 7.04-3.3 4.51-5.56z"/>
    <path  fill="#f7b932" stroke-width="0" d="m129.3 121.82-.24 6.8-1.87 6.59-3.9 5.61-4.35 5.08-5.23 4.14-5.76 3.38-6.42 1.91-6.67 1.04-6.61-1.33-6.47-1.63-6.35-2.51-4.72-4.93-4.72-4.86-2.34-6.36-2.21-6.28-1.53-6.65 1.02-6.75 2.07-6.45 3.81-5.54 4.16-5.16 4.59-4.98 6.19-2.78 6.3-2.6 6.81-.5 6.84.4 6.3 2.64 5.92 3.19 5.45 4.02 3.72 5.65 3.42 5.75 2.39 6.34.4 6.77z"/>
    <path fill="#0d0a0a" stroke-width="0" d="m106.88 121.82-.89 7.09-.24 7.22-2.41 6.78-3.11 6.44-5.37 3.9-5.47-3.87-3.14-6.46-2.38-6.8-.75-7.16-.71-7.14-.33-7.27 2.15-6.95 1.96-6.91 3.09-6.51 5.58-4.37 5.3 4.53 3.14 6.41 2.08 6.85 1.74 7-.24 7.22z"/>
    <path fill="#fffcf5" stroke-width="0" d="m106.48 119.5-1.73 6-4.4 4.39-6 2-6.19-1.66-4.47-4.57-1.56-6.16 1.5-6.19 4.65-4.33 6.07-1.44 6.16 1.29 4.38 4.59 1.59 6.08z"/>
    <path  fill="#f7b932" stroke-width="0" d="m231.68 131.66-.39 6.66-1.24 6.71-3.4 5.93-4.73 4.85-5.12 4.32-5.93 3.15-6.37 2.23-6.73.08-6.66-.48-6.56-1.54-6.18-2.89-4.98-4.65-3.84-5.52-3.8-5.59-1.26-6.64-1.14-6.62.86-6.68 1.97-6.41 3.37-5.77 3.87-5.5 4.98-4.63 5.98-3.34 6.72-1.21 6.67-.51 6.62.76 6.47 1.69 5.89 3.19 5.45 3.98 3.73 5.61 3.43 5.73 2.71 6.26-.39 6.83z"/>
    <path fill="#0d0a0a" stroke-width="0" d="m209.52 131.66.37 7.2-1.99 6.93-1.59 6.98-3.41 6.26-5.13 3.98-5.21-3.97-3.5-6.25-2.78-6.71-.73-7.23-.5-7.19.95-7.15.72-7.17 2.53-6.75 2.7-6.74 5.82-4.14 5.27 4.48 2.81 6.53 1.98 6.82 2.2 6.9-.51 7.22z"/>
    <path fill="#fffcf5" stroke-width="0" d="m209.19 129.34-1.58 5.97-4.24 4.6-6.11 1.58-6.08-1.62-4.54-4.4-1.71-6.13 1.68-6.15 4.63-4.29 6.02-1.9 6.01 1.93 4.55 4.31 1.37 6.1z"/>
    <path fill="#0d0709" stroke-width="0" d="m56.47 26.11 3.29-3.93 5.49.6 4.89 5.78 5.78 4.79 5.99 4.57 5.46 5.16 5.57 5.02 6.07 4.46 4.93 5.75 5.79 4.79 2 4.82-3.69 3.75-7.3 1.8-6.72 3.56-7.08 2.48-7.13 2.38-7.16 2.22-7.27 1.92-7.2 2.14-6.94 2.93-4.8-1.66-1.74-4.46.74-7.51 1.68-7.31 2.05-7.24 1.41-7.38 1.51-7.35 1.2-7.41 2.06-7.23 1.12-7.44zM243.63 43.53l4.52-.42 2.39 3.85.87 7.47.81 7.46.81 7.47-.02 7.52.3 7.5.45 7.49.67 7.48.16 7.51-1.61 5.06-5.76.48-6.62-3.54-6.75-3.27-6.52-3.74-6.54-3.72-6.94-2.89-6.67-3.43-6.77-3.25-6.92-2.94-2.46-4.88 2.16-4.65 5.92-4.64 6.88-3.21 6.12-4.35 5.95-4.6 6.39-3.94 6.3-4.08 5.9-4.74 6.98-3z"/>
    <path fill="#e6c5b2" stroke-width="0" d="m233.94 63.86 3.19 1.54.26 5.84.14 5.85.73 5.81.1 5.85-2.81 2.04-5.22-2.63-5.25-2.57-5.05-2.98-5.27-2.54-.15-3.06 4.78-3.36 4.8-3.35 4.8-3.34 4.95-3.1zM68.09 51.67l3.07-1.21 4.64 3.56 4.82 3.31 4.76 3.4 4.48 3.77-.44 3.11-5.26 2.58-5.32 2.41-5.47 2.09-5.35 2.35-2.78-2.16.94-5.78.35-5.84.97-5.77.59-5.82z"/>

</svg>
