<?xml version="1.0" encoding="UTF-8"?><svg id="glasses" xmlns="http://www.w3.org/2000/svg" viewBox="0 0 300 300"><defs><style>.cls-1{fill:none;}.cls-1,.cls-2,.cls-3,.cls-4,.cls-5,.cls-6,.cls-7{stroke-width:0px;}.cls-2{fill:#4b9bd5;}.cls-3{fill:#8f4596;}.cls-4{fill:#fff;}.cls-5{fill:#ec6308;}.cls-6{fill:#ffe300;}.cls-7{fill:#eb5f5b;}</style></defs><g id="component_4"><path class="cls-3" d="m221.69,153.06c-.22-.49-.71-.7-1.14-1.12-.37-.37-.44-1.15-.96-1.46-.45-.27-.89-.72-1.44-.96-.49-.21-1.1-.26-1.66-.45-.51-.17-1.17.07-1.74-.07-.53-.14-1.02-.48-1.59-.6-.54-.11-1.07-.34-1.64-.43s-1.1-.21-1.67-.29-1.17.41-1.74.35-1.05-.74-1.62-.78-1.17.6-1.74.57-1.1-.29-1.67-.31-1.11-.4-1.68-.42-1.13.19-1.7.19-1.13-.47-1.69-.47-1.14-.11-1.7-.1-1.11.91-1.68.93-1.16-.72-1.72-.7-1.13.18-1.7.2-1.14.01-1.7.05-1.14.07-1.69.11-1.14.09-1.69.14-1.13.19-1.68.24-1.14.05-1.7.1-1.17-.11-1.72-.04c-.58.07-1.1.49-1.64.56-.58.08-1.06.65-1.6.73-.58.09-1.18-.09-1.71,0-.59.11-1.12.28-1.64.39-.59.13-1.07.44-1.59.63-.56.21-1.34-.1-1.83.17-.52.29-1.07.61-1.5.96-.46.37-.96.78-1.33,1.21s-.06,1.39-.36,1.88-1.23.65-1.46,1.18-.1,1.22-.27,1.76-.5,1.08-.61,1.64.31,1.22.25,1.78c-.07.6-.26,1.57-.28,2.12-.45-.31-1.34-.61-1.86-.84s-.83-.86-1.39-1.02-1.07-.32-1.64-.41-1.13.19-1.7.15-1.09-.46-1.66-.47-1.11.29-1.67.31-1.13-.19-1.69-.13-1.13.04-1.68.12-1.1.22-1.66.32-1.05.5-1.6.61-1.11.16-1.66.29-1.08.29-1.62.43-1.02.55-1.55.7-1.12.18-1.65.34-1.12.23-1.63.4c-.55.18-1.08.36-1.59.54-.56.19-1.13.25-1.63.42-.57.21-1.08.35-1.56.53.03-.48-.11-1.01-.1-1.64,0-.52-.26-1.05-.3-1.64-.03-.53.41-1.13.33-1.7-.07-.54-.21-1.09-.34-1.65s-.72-.93-.9-1.47.3-1.32.06-1.82-.87-.8-1.18-1.27-.85-.7-1.23-1.12-.22-1.4-.67-1.75-1.18-.27-1.69-.55c-.47-.26-1.1-.15-1.65-.35-.5-.18-.9-.78-1.47-.9-.51-.11-1.06-.28-1.65-.38-.53-.1-1.06-.35-1.64-.44-.54-.08-1.18.43-1.76.35-.54-.07-1.02-.73-1.6-.8s-1.18.51-1.75.44-1.11-.05-1.68-.11-1.11-.05-1.68-.1-1.05-.93-1.62-.97-1.17.74-1.74.71-1.08-.78-1.65-.8-1.13.06-1.7.04-1.13.1-1.7.08-1.14.46-1.7.45-1.13-.85-1.69-.85-1.13.56-1.69.57-1.13-.03-1.69-.01-1.12.22-1.68.24-1.12.21-1.68.24-1.14-.13-1.7-.08-1.14.04-1.69.1-1.13.12-1.68.2-1.13.16-1.67.25-1.15.07-1.69.18c-.57.12-1.12.23-1.65.37-.57.15-1.19.05-1.71.21-.56.18-1.07.48-1.56.7-.55.24-1.25.21-1.7.49-.52.31-.69,1.09-1.06,1.46-.43.42-1.05.72-1.27,1.21-.23.51-.61.98-.81,1.5s.18,1.25.01,1.78-.74.96-.87,1.5.07,1.17-.04,1.72-.69,1.03-.78,1.58.06,1.15,0,1.71.61,1.18.57,1.73-.54,1.09-.56,1.64.15,1.13.15,1.68.16,1.12.18,1.67.02,1.12.07,1.66c.05.57.2,1.11.28,1.64.08.58-.25,1.19-.16,1.71.11.58.68,1.02.8,1.52.13.52.31,1.05.46,1.6s.16,1.09.35,1.62.21,1.1.47,1.6.87.71,1.21,1.17c.32.44.37,1.06.79,1.47.39.37.71.84,1.2,1.17.44.3.9.63,1.43.89.48.23,1.09.19,1.65.38.5.17.94.68,1.51.81.52.12,1.17-.32,1.75-.24.53.08,1.06.12,1.65.17.53.04,1.07.05,1.66.07.54.02,1.08,0,1.66,0,.54,0,1.12.72,1.7.69.54-.03,1.05-.86,1.63-.91.54-.04,1.15.58,1.73.52.89-.05.89.23,1.78.2s.85-.99,1.74-1.02.9.42,1.79.39.89.14,1.78.11.9.26,1.79.22.87-.38,1.76-.41.87-.51,1.76-.55.91.45,1.79.42.9.23,1.78.2.89-.08,1.78-.11.9.09,1.79.06.88-.29,1.77-.31c.81-.01.63-.19,1.61-.2.47,0,1.03.44,1.62.42.51-.02,1.02-.65,1.58-.69.53-.03,1.07,0,1.61-.07s1.14.3,1.66.22c.55-.09,1.03-.5,1.53-.62.56-.14,1.02-.43,1.48-.63.56-.25,1.09-.39,1.4-.74.32-.36.45-.94.71-1.56.2-.48.17-1.08.34-1.68.15-.53.62-.99.74-1.59.12-.55.05-1.14.15-1.73s.41-1.1.49-1.68.14-1.15.2-1.73c.52-.23.87-.85,1.38-1.06s1.22.01,1.73-.19,1.01-.52,1.53-.7,1.15-.14,1.67-.32,1.04-.45,1.56-.61c.55-.17.97-.71,1.5-.86.55-.16,1.12-.22,1.65-.36.56-.14,1.11-.28,1.64-.4.56-.12,1.16,0,1.69-.09.57-.1,1.08-.44,1.62-.52.57-.08,1.17.17,1.7.12.58-.05,1.13-.11,1.67-.13.58-.02,1.14,0,1.67,0,.58.01,1.1.44,1.63.49.58.06,1.21-.51,1.74-.41.58.1,1.15.18,1.66.32.57.16.85,1.02,1.34,1.22.55.22,1.07.31,1.52.56.53.29,1.18.29,1.59.6.05.59-.31,1.26-.25,1.86s.22,1.21.29,1.8.85,1.11.95,1.7.31,1.18.43,1.75c.13.62-.18,1.31-.03,1.86.18.63.57,1.12.78,1.63.27.65.64,1,.98,1.38.31.35.51.79,1.07,1.03.45.2.96.31,1.52.46.5.13.93.75,1.48.84s1.17-.64,1.71-.58,1.06.13,1.59.17c.56.04,1.09.19,1.6.21.6.02,1.13.73,1.6.73.98,0,.81-.38,1.61-.36.89.02.89-.11,1.78-.08s.9-.22,1.78-.19.87.39,1.76.43.89-.21,1.78-.18.88.14,1.77.18.89-.16,1.78-.13.87.57,1.76.61.9-.38,1.79-.35.89-.03,1.78,0,.88.27,1.77.3.89-.08,1.79-.05.89.09,1.78.14c.57.06,1.09.6,1.63.65.58.05,1.19-.65,1.73-.63.58.03,1.12.73,1.66.74.58,0,1.16.05,1.7.03.59-.02,1.11-.74,1.65-.79.58-.05,1.14-.04,1.67-.12.58-.09,1.22.23,1.73.11.58-.13,1.04-.59,1.54-.76.56-.19,1.1-.35,1.57-.58.53-.26,1.24-.21,1.68-.51.48-.33.97-.73,1.36-1.1.41-.4.72-.95,1.04-1.39.34-.46.39-1.11.64-1.6s.1-1.16.29-1.68.92-.88,1.06-1.41c.15-.55.5-1.05.63-1.57.13-.51-.47-1.21-.36-1.8.1-.52.15-1.07.23-1.64.07-.53.64-1.03.7-1.6.05-.54.3-1.09.33-1.67s-.78-1.13-.77-1.7.78-1.11.76-1.68.03-1.13,0-1.69-.69-1.06-.76-1.62.49-1.19.4-1.75-.42-1.07-.53-1.62-.72-.98-.86-1.52.48-1.3.31-1.83-.62-.99-.82-1.51-.74-.91-.97-1.42Zm-92.4,14.06c-.01.6.24,1.18.22,1.71-.03.6-.66,1.13-.71,1.66-.06.61-.32,1.13-.4,1.65-.09.61-.03,1.18-.16,1.68-.15.61.06,1.28-.13,1.75-.25.6-.73.99-1.04,1.39-.38.49-.86.75-1.31,1.04-.48.31-.98.47-1.52.66s-.88.86-1.43,1.04c-.34.11-1.06-.39-1.8-.31-.48.06-.98.8-1.61.85-.52.04-1.1-.15-1.69-.11-.53.03-1.11-.3-1.7-.27-.54.02-1.09.27-1.67.29-.55.02-1.12-.43-1.69-.41s-1.11-.09-1.68-.07-1.09.92-1.66.93-1.13-.74-1.69-.73-1.11.15-1.68.15-1.12-.03-1.68-.03-1.13,0-1.68.01-1.13.02-1.68.02-1.13.1-1.68.1-1.13-.06-1.68-.06c-.58,0-1.14-.23-1.68-.23-.58,0-1.14.35-1.68.36-.59,0-1.15.5-1.68.5-.61,0-1.17-.27-1.68-.26-.66,0-1.22.08-1.67.09-.62.02-1.29.07-1.78-.1-.55-.2-.72-1.02-1.13-1.4s-.65-.79-.93-1.29-.41-.97-.59-1.51-1.11-.91-1.21-1.44c-.11-.6.56-1.29.52-1.78-.08-1-.38-.81-.42-1.66s.11-.69.04-1.76c-.03-.51-.59-1.08-.61-1.73-.02-.55-.14-1.16-.14-1.77,0-.57.06-1.18.09-1.78s.57-1.14.64-1.72.2-1.16.31-1.73-.08-1.26.09-1.8c.18-.59.77-.99,1.03-1.49.29-.55.4-1.19.8-1.58.42-.42,1.04-.51,1.61-.7.43-.14.99-.17,1.66-.28.51-.08,1.06-.21,1.68-.27.53-.05,1.07-.4,1.68-.44.54-.04,1.12,0,1.71-.02.55-.03,1.12-.08,1.7-.1.55-.02,1.12-.31,1.7-.32s1.13.11,1.71.1,1.13.09,1.71.09,1.13-.01,1.71,0,1.14.14,1.71.15,1.14.07,1.71.08,1.15-.16,1.72-.15,1.15-.23,1.72-.21,1.13.53,1.7.55,1.15,0,1.71.02,1.17-.43,1.73-.4,1.12.79,1.67.81c.59.03,1.18-.35,1.73-.33.59.03,1.18-.22,1.72-.19.61.04,1.12.91,1.65.94.63.04,1.23-.38,1.74-.34.71.06,1.34-.23,1.74-.18.58.08.96.77,1.4,1.14.4.35.68.8.97,1.32.26.47.32,1.02.5,1.58.17.52.9.91,1.02,1.48s-.36,1.22-.29,1.77c.08.58.77,1.09.81,1.62.05.62.14,1.21.15,1.71.03,1.02-.2.86-.23,1.71Zm82.85,13.41c-.45-.01-1.02.25-1.68.25-.51,0-1.06-.6-1.67-.6-.53,0-1.09-.21-1.68-.21-.54,0-1.1.16-1.68.16-.54,0-1.11.41-1.68.4s-1.11-.23-1.68-.24-1.11-.14-1.68-.14-1.11-.05-1.68-.05-1.12.55-1.68.54-1.11-.64-1.67-.65-1.14.68-1.7.67-1.12-.24-1.68-.25-1.12-.38-1.67-.39-1.14.2-1.69.18-1.12-.5-1.66-.51c-.58-.02-1.13-.15-1.67-.18-.59-.02-1.19.84-1.72.81-.6-.03-1.11-.82-1.62-.86-.63-.05-1.19.03-1.67-.03-.74-.09-1.25-.22-1.59-.33-.55-.18-1.09-.34-1.61-.52s-1-.37-1.48-.68c-.45-.29-.87-.54-1.25-1.03-.3-.4-.5-.87-.74-1.47-.19-.47-.12-1.02-.27-1.64-.12-.5-.57-.96-.66-1.57-.08-.52-.64-1.03-.69-1.64-.05-.53.19-1.12.16-1.72-.03-.54-.11-1.1-.12-1.7-.03-.85-.19-.68-.16-1.71.01-.49.65-1.04.7-1.66.04-.53.14-1.08.22-1.66s.22-1.08.34-1.63-.53-1.33-.35-1.86c.19-.56,1.09-.8,1.35-1.27.29-.53.33-1.17.74-1.51.43-.37.99-.44,1.57-.52.4-.06.93-.63,1.64-.7.5-.04,1.07-.2,1.7-.25.53-.04,1.1-.04,1.71-.07.54-.03,1.14.43,1.73.4.55-.03,1.12,0,1.7-.03.55-.03,1.11-.4,1.69-.42s1.14.36,1.72.34,1.12-.31,1.7-.33,1.14.22,1.71.21,1.14.05,1.71.04,1.14-.08,1.71-.09,1.14-.32,1.71-.32,1.14.06,1.71.06,1.15-.04,1.71-.04,1.15-.27,1.71-.26,1.15.15,1.71.16,1.15.13,1.71.15c.59.02,1.16.03,1.71.06.59.03,1.16.2,1.7.23.6.04,1.17.14,1.7.2.62.06,1.22-.05,1.72.03.67.1,1.33-.01,1.76.13.57.18.87.95,1.29,1.36.4.39.75.83,1.04,1.38.26.49.92.89,1.1,1.48.17.54-.41,1.3-.29,1.89s.6,1.08.66,1.67.4,1.16.43,1.74-.79,1.21-.78,1.78c0,.62.46,1.21.45,1.76-.02.65.31,1.27.27,1.78-.07,1.07-.58.84-.62,1.72s-.03.68-.11,1.68c-.04.5-.27,1.03-.38,1.63-.1.53.35,1.24.17,1.79s-.93.83-1.2,1.31-.13,1.35-.53,1.73-.97.81-1.53,1.01c-.49.17-1.18.06-1.8.04Z"/><path class="cls-4" d="m82.77,145.05c-1.15-.82-.37-1.07-.83-2.72-.22-.79-.26-1.77-.51-2.78-.21-.86-.67-1.73-.86-2.69-.18-.91-.03-1.9-.17-2.83s-.41-1.86-.49-2.78c-.08-.98.04-1.92.07-2.81.03-1.02-.11-1.98.1-2.8.27-1.04.66-1.93,1.31-2.48.76-.64,1.58-.98,2.3-1.29.91-.39,1.74-.74,2.53-.73.97.02,1.84.38,2.53.77.92.53,1.67,1.27,1.83,1.92.09.35.15,1.29.3,2.54.08.74.16,1.6.25,2.53.08.8.09,1.66.16,2.54.07.83-.05,1.7,0,2.56s.1,1.71.15,2.54c.05.88.12,1.74.15,2.54.03.94.13,1.8.12,2.54-.01,1.25.22,2.26.06,2.62-.28.62-1.59.83-2.93.95-.97.09-2.06.2-3.04.16-1.66-.06-1.8.56-3.03-.32Z"/><path class="cls-2" d="m79.91,131.98c.29-1.3.37-1.05,1.37-2.29.49-.6,1.21-1.16,1.99-1.77.65-.51,1.36-1.04,2.23-1.44.75-.35,1.6-.61,2.53-.8.81-.17,1.74-.34,2.7-.35.63,1.6.51,1.72.22,3.42-.21,1.27-.85.17-2.35.76-.68.27-1.49.58-2.34,1.07-.68.39-1.39.88-2.13,1.45-.64.49-1.24,1.1-1.9,1.74-.58.57-1.22,1.16-1.8,1.86-1.11-1.47-.63-2.32-.52-3.65Z"/><path class="cls-2" d="m91.44,132.49c.88,1.64.35,2.34.25,3.77-.88,1.12-1.19.15-2.79.7-.79.27-1.72.57-2.65,1.04-.8.41-1.63.91-2.42,1.5-.74.55-1.48,1.31-2.12,2.05-1.35-.74-.81-1.64-.74-3.07.34-1.19.64-.81,1.68-1.86.51-.52,1.18-1.03,1.9-1.57.63-.47,1.25-1.04,2.03-1.43.72-.36,1.51-.64,2.34-.85.77-.19,1.67-.28,2.53-.27Z"/><path class="cls-2" d="m82.44,144.1c.22-1.33.69-.83,1.99-1.84.6-.47,1.29-1.07,2.2-1.52.73-.36,1.61-.55,2.55-.81.8-.22,1.61-.44,2.57-.54.94,1.01.32,1.39.02,2.68-.91.84-1.13.49-2.25,1.02s-1.09.6-2.22,1.13-1.03.81-2.25,1.03c-1.12.2-1.17.13-2.26-.16-.5-.13-.42-.51-.34-.98Z"/><path class="cls-6" d="m84.9,122.71c-1.07.32-1.14.63-2.19.09-.52-.27-.9-.9-1.23-1.82-.2-.56-.33-1.26-.37-2.17-.07-1.37-.11-1.28.25-2.7.21-.85.55-1.79,1.18-2.47.56.54-.08,1.26.86.84s.15-1.34.52-2.81c.35-1.38,1.04.25,2.12,1.89.42.63.81,1.5,1.21,2.59.37.99.61,1.89.66,2.66.06,1.08-.16,2.02-.62,2.67-.51.73-1.41,1.04-2.39,1.23Z"/><path class="cls-5" d="m84.67,122.02c-1.53-.13-1.94-.17-1.73-2.13.21-1.95-.44-2.62,1.18-3.27.98-.4.93.55,1.68,1.32.52.53.9,1.18.94,1.83.09,1.37-.51,2.37-2.07,2.25Z"/><path class="cls-4" d="m102,143.19c-1.15-.82-.12-1.2-.58-2.86-.22-.79-.4-1.73-.64-2.74-.21-.86-.56-1.76-.75-2.72-.18-.91-.62-1.8-.76-2.73s.03-1.92-.05-2.84c-.08-.98-.16-1.92-.13-2.81.03-1.02.16-1.95.37-2.77.27-1.04.72-1.77,1.37-2.32.76-.64,1.32-1.39,2.04-1.71.91-.39,1.84-.35,2.63-.33.97.02,1.83.25,2.52.64.92.53,1.38,1.32,1.54,1.97.09.35.19,1.25.33,2.5.08.74.17,1.6.26,2.53.08.8.25,1.64.32,2.52.07.83.27,1.68.33,2.53s.31,1.7.35,2.53c.05.88-.19,1.76-.16,2.56.03.94.2,1.8.19,2.55-.01,1.25-.36,2.08-.52,2.43-.28.62-1.22.8-2.55.92-.97.09-2.03.17-3.01.14-1.66-.06-1.87.89-3.1,0Z"/><path class="cls-2" d="m99.29,130.05c.29-1.3.36-1.01,1.36-2.25.49-.6,1.11-1.25,1.89-1.87.65-.51,1.37-1.03,2.24-1.43.75-.35,1.62-.52,2.56-.72.81-.17,1.64-.37,2.6-.38.63,1.6.64,1.7.35,3.4-.21,1.27-.93.1-2.43.69-.68.27-1.48.61-2.34,1.1-.68.39-1.36.92-2.1,1.49-.64.49-1.37.96-2.03,1.6-.58.57-1.1,1.28-1.67,1.98-1.06-1.5-.54-2.3-.43-3.62Z"/><path class="cls-2" d="m110.66,130.57c.88,1.64.4,2.3.3,3.72-.88,1.12-1.17.17-2.78.72-.79.27-1.69.62-2.62,1.09-.8.41-1.66.85-2.45,1.44-.74.55-1.43,1.22-2.07,1.96-1.35-.74-.82-1.54-.75-2.97.34-1.19.6-.83,1.63-1.87.51-.52,1.17-1.04,1.9-1.58.63-.47,1.3-.97,2.07-1.35.72-.36,1.5-.63,2.33-.84.77-.19,1.59-.31,2.45-.31Z"/><path class="cls-2" d="m101.85,142.17c.22-1.33.54-.88,1.84-1.89.6-.47,1.36-.94,2.27-1.39.73-.36,1.56-.65,2.5-.91.8-.22,1.62-.45,2.58-.55.94,1.01.3,1.39,0,2.68-.91.84-1.05.65-2.18,1.18s-1.16.46-2.28,1-1.05.75-2.27.97c-1.12.2-1.16.17-2.25-.12-.46-.12-.3-.48-.22-.95Z"/><path class="cls-6" d="m104.22,120.87c-1.07.32-1.15.46-2.19-.08-.52-.27-.91-.85-1.25-1.78-.2-.56-.45-1.25-.5-2.16-.07-1.37.04-1.28.39-2.7.21-.85.54-1.81,1.16-2.5.56.54-.1,1.26.84.85s.07-1.35.45-2.82c.35-1.38,1,.35,2.08,1.99.42.63.85,1.45,1.25,2.54.37.99.56,1.86.6,2.64.06,1.08-.06,1.98-.52,2.64-.51.73-1.34,1.18-2.32,1.38Z"/><path class="cls-5" d="m103.97,120.01c-1.53-.13-1.96-.12-1.75-2.07.21-1.95-.42-2.61,1.2-3.26.98-.4.88.59,1.64,1.36.52.53.99,1.14,1.03,1.79.09,1.37-.56,2.32-2.12,2.19Z"/><path class="cls-4" d="m120.18,143.12c-1.15-.82-.35-1.09-.81-2.74-.22-.79-.4-1.73-.65-2.75-.21-.86-.43-1.79-.62-2.75-.18-.91-.37-1.84-.52-2.77s-.47-1.87-.55-2.79c-.08-.98,0-1.95.01-2.84.03-1.02.04-2.02.25-2.85.27-1.04,1.06-1.65,1.71-2.2.76-.64,1.28-1.45,2-1.76.91-.39,1.85-.3,2.64-.29.97.02,1.72.41,2.4.81.92.53,1.69,1.07,1.85,1.72.09.35.19,1.27.33,2.52.08.74,0,1.61.1,2.55.08.8.14,1.65.22,2.53.07.83.26,1.68.32,2.53s.23,1.7.27,2.54c.05.88-.11,1.75-.08,2.56.03.94.31,1.8.3,2.54-.01,1.25-.39,2.08-.55,2.43-.28.62-1.2.99-2.54,1.12-.97.09-2.06.32-3.04.28-1.66-.06-1.81.48-3.04-.4Z"/><path class="cls-2" d="m117.25,130.01c.29-1.3.48-1,1.48-2.24.49-.6,1.11-1.26,1.9-1.88.65-.51,1.44-.91,2.31-1.31.75-.35,1.56-.71,2.5-.91.81-.17,1.67-.26,2.63-.27.63,1.6.7,1.71.41,3.41-.21,1.27-1.01.04-2.51.63-.68.27-1.45.68-2.3,1.17-.68.39-1.32.97-2.06,1.54-.64.49-1.39.93-2.04,1.57-.58.57-1.11,1.23-1.68,1.94-1.16-1.46-.73-2.32-.62-3.65Z"/><path class="cls-2" d="m128.81,130.57c.88,1.64.34,2.27.24,3.69-.88,1.12-1.16.12-2.76.66-.79.27-1.7.62-2.63,1.1-.8.41-1.53,1.04-2.33,1.63-.74.55-1.56,1.2-2.2,1.93-1.35-.74-.82-1.64-.75-3.06.34-1.19.62-.84,1.66-1.88.51-.52,1.1-1.14,1.83-1.68.63-.47,1.39-.83,2.17-1.22.72-.36,1.51-.58,2.34-.78.77-.19,1.58-.39,2.44-.38Z"/><path class="cls-2" d="m120,142.17c.22-1.33.53-.86,1.83-1.88.6-.47,1.33-1,2.24-1.45.73-.36,1.53-.78,2.47-1.04.8-.22,1.7-.31,2.66-.42.94,1.01.3,1.46,0,2.75-.91.84-1.16.46-2.28,1s-1.09.61-2.21,1.14-1.04.79-2.26,1.01c-1.12.2-1.17.14-2.27-.15-.46-.12-.27-.49-.19-.97Z"/><path class="cls-6" d="m122.31,120.75c-1.07.32-1.11.55-2.15.01-.52-.27-1.01-.8-1.34-1.72-.2-.56-.34-1.28-.38-2.19-.07-1.37-.12-1.31.23-2.73.21-.85.68-1.79,1.31-2.48.56.54-.13,1.24.81.83s.22-1.28.6-2.75c.35-1.38.97.24,2.05,1.88.42.63.72,1.53,1.13,2.62.37.99.64,1.86.68,2.63.06,1.08-.22,1.93-.68,2.58-.51.73-1.29,1.12-2.26,1.32Z"/><path class="cls-5" d="m122.09,120.05c-1.53-.13-1.93-.16-1.72-2.12.21-1.95-.42-2.55,1.2-3.2.98-.4.88.5,1.63,1.27.52.53.92,1.17.96,1.81.09,1.37-.51,2.36-2.07,2.24Z"/><path class="cls-7" d="m129.13,140.12c-.89,0-1.79.26-2.57.57s-1.6.81-2.22,1.39-1.04,1.51-1.41,2.29c-.27-.96-.4-2.2-1.03-2.93s-1.64-1.31-2.53-1.73-1.94-.27-2.96-.27c-.87,0-1.53.47-2.29.76s-1.63.38-2.24.94-1.17.76-1.55,1.51c-.38-.75-1.04-.83-1.66-1.39s-1.03-1.57-1.82-1.88-1.74-.05-2.61-.05-1.81,0-2.59.31-1.62.81-2.24,1.4-.94,1.02-1.3,1.81c-.62-.91-1.52-1.2-2.5-1.72s-2.01-.4-3.16-.4c-.94,0-1.63.26-2.44.6s-1.93.26-2.56.9-1.04,1.22-1.38,2.07c-.63-.7-1.19-1.34-2.06-1.73s-1.95-.39-2.93-.39c-.92,0-1.89.18-2.69.51s-1.41,1.14-2.04,1.77-1.67,1.1-2.02,1.93-.27,1.87-.27,2.79.85,1.61,1.18,2.42.23,1.93.86,2.56,1.64.72,2.48,1.06,1.58,1.34,2.5,1.34,1.95-.47,2.76-.81,1.13-1.5,1.76-2.14,1.45-1.23,1.79-2.08c.63.7,1.46,1.37,2.33,1.76s1.75,1.25,2.73,1.25c.89,0,1.95-.26,2.73-.58s1.14-1.52,1.76-2.11,1.31-.95,1.68-1.74c.62.9,1.69,1.11,2.67,1.63s1.81.88,2.95.88c.87,0,1.49-.36,2.25-.66s1.76-.19,2.37-.75,1.08-1.2,1.46-1.95c.38.75,1.04,1.17,1.66,1.73s1.03,1.56,1.82,1.87,1.74.21,2.6.21,1.64-.55,2.42-.86,1.71-.47,2.33-1.06.89-.79,1.26-1.57c.27.96.62,1.49,1.25,2.23s1.66,1.21,2.56,1.63,1.88,1.06,2.9,1.06c.92,0,1.72-.94,2.52-1.28s1.55-.76,2.18-1.39,1.82-1.03,2.16-1.86-.31-1.92-.31-2.84.21-1.86-.13-2.66-.93-1.58-1.56-2.2-1.21-1.61-2.04-1.95-1.9-.22-2.82-.22Z"/><path class="cls-4" d="m217.23,144.85c1.15-.82.63-.83,1.08-2.48.22-.79.38-1.74.63-2.76.21-.86.24-1.83.43-2.79.18-.91.44-1.82.58-2.76s.29-1.88.37-2.8c.08-.98-.11-1.92-.14-2.82-.03-1.02.22-2.01.01-2.83-.27-1.04-.79-1.89-1.44-2.44-.76-.64-1.57-.98-2.29-1.29-.91-.39-1.74-.65-2.53-.64-.97.02-1.95.11-2.64.5-.92.53-1.23,1.54-1.4,2.18-.09.35-.18,1.24-.33,2.49-.08.74-.18,1.59-.27,2.53-.08.8-.21,1.65-.29,2.53-.07.83-.31,1.67-.37,2.53s-.21,1.71-.25,2.54c-.05.88.1,1.75.08,2.56-.03.94-.32,1.8-.31,2.54.01,1.25.18,2.2.34,2.56.28.62,1.48.7,2.82.83.97.09,2.03.16,3.01.12,1.66-.06,1.66.58,2.9-.3Z"/><path class="cls-2" d="m220.15,132c-.29-1.3-.42-.97-1.41-2.2-.49-.6-1.07-1.27-1.86-1.88-.65-.51-1.39-.97-2.26-1.37-.75-.35-1.56-.7-2.5-.9-.81-.17-1.74-.31-2.7-.32-.63,1.6-.59,1.74-.3,3.43.21,1.27.95.11,2.45.7.68.27,1.48.61,2.33,1.11.68.39,1.45.81,2.19,1.38.64.49,1.21,1.14,1.87,1.78.58.57,1.17,1.18,1.74,1.89,1.06-1.5.56-2.29.45-3.62Z"/><path class="cls-2" d="m208.67,132.47c-.88,1.64-.33,2.38-.23,3.8.88,1.12,1.18.22,2.78.76.79.27,1.71.56,2.64,1.04.8.41,1.65.85,2.44,1.44.74.55,1.42,1.14,2.06,1.88,1.35-.74.84-1.48.77-2.91-.34-1.19-.55-.86-1.59-1.91-.51-.52-1.14-1.09-1.87-1.63-.63-.47-1.35-.89-2.12-1.28-.72-.36-1.48-.7-2.31-.91-.77-.19-1.7-.29-2.56-.29Z"/><path class="cls-2" d="m217.57,144.12c-.22-1.33-.51-.9-1.81-1.92-.6-.47-1.36-.94-2.28-1.4-.73-.36-1.54-.72-2.49-.98-.8-.22-1.74-.45-2.7-.55-.94,1.01-.2,1.49.09,2.78.91.84,1.07.61,2.19,1.14s1.16.45,2.29.98,1.01.85,2.23,1.07c1.12.2,1.14.03,2.24-.27.46-.12.3-.38.22-.86Z"/><path class="cls-6" d="m215.24,122.76c1.07.32,1.16.57,2.2.04.52-.27.91-.89,1.24-1.82.2-.56.33-1.26.37-2.17.07-1.37.16-1.3-.19-2.72-.21-.85-.64-1.81-1.27-2.49-.56.54.14,1.21-.8.8-.94-.42-.2-1.26-.57-2.73-.35-1.38-.89.34-1.96,1.97-.42.63-.96,1.4-1.37,2.49-.37.99-.61,1.89-.66,2.67-.06,1.08.29,1.94.75,2.6.51.73,1.28,1.17,2.26,1.36Z"/><path class="cls-5" d="m215.48,122.06c1.53-.13,1.89-.21,1.68-2.17s.49-2.64-1.13-3.29c-.98-.4-.89.61-1.64,1.38-.52.53-1.04,1.13-1.08,1.78-.09,1.37.61,2.42,2.17,2.3Z"/><path class="cls-4" d="m198.16,143.21c1.15-.82.18-1.21.64-2.86.22-.79.76-1.64,1.01-2.66.21-.86.18-1.85.38-2.81.18-.91.49-1.82.63-2.76s.04-1.91.12-2.83c.08-.98.24-1.92.22-2.81-.03-1.02-.39-1.92-.6-2.74-.27-1.04-.34-2.11-.98-2.66-.76-.64-1.66-.9-2.38-1.22-.91-.39-1.77-.62-2.56-.6-.97.02-1.73.5-2.42.9-.92.53-1.43,1.16-1.6,1.81-.09.35-.64,1.19-.78,2.44-.08.74-.18,1.6-.27,2.53-.08.8.06,1.67-.02,2.56-.07.83-.15,1.69-.21,2.54s.01,1.72-.04,2.55c-.05.88,0,1.74-.04,2.55-.03.94-.18,1.8-.17,2.54.01,1.25.09,2.14.25,2.49.28.62,1.34.8,2.68.92.97.09,2.05.43,3.03.4,1.66-.06,1.87.59,3.11-.29Z"/><path class="cls-2" d="m201.03,130.01c-.29-1.3-.43-1.05-1.43-2.28-.49-.6-1.2-1.17-1.99-1.78-.65-.51-1.36-1.04-2.24-1.44-.75-.35-1.58-.69-2.52-.89-.81-.17-1.64-.18-2.6-.19-.63,1.6-.82,1.71-.54,3.4.21,1.27,1.06.1,2.56.69.68.27,1.46.64,2.31,1.13.68.39,1.4.85,2.15,1.42.64.49,1.34,1,1.99,1.64.58.57,1.12,1.25,1.7,1.96,1.16-1.46.71-2.34.6-3.66Z"/><path class="cls-2" d="m189.49,130.58c-.88,1.64-.41,2.3-.3,3.72.88,1.12,1.15.24,2.75.79.79.27,1.75.48,2.68.95.8.41,1.66.87,2.45,1.47.74.55,1.41,1.28,2.05,2.02,1.35-.74.77-1.55.7-2.98-.34-1.19-.52-.88-1.56-1.92-.51-.52-1.19-1.02-1.92-1.56-.63-.47-1.35-.87-2.12-1.25-.72-.36-1.44-.8-2.26-1.01-.77-.19-1.6-.22-2.46-.22Z"/><path class="cls-2" d="m198.29,142.17c-.22-1.33-.51-.91-1.81-1.93-.6-.47-1.35-.98-2.26-1.43-.73-.36-1.59-.58-2.54-.84-.8-.22-1.62-.45-2.58-.55-.94,1.01-.27,1.38.02,2.67.91.84,1.09.55,2.21,1.08s1.12.53,2.25,1.07,1,.92,2.22,1.14c1.12.2,1.16-.03,2.26-.33.46-.12.31-.4.23-.88Z"/><path class="cls-6" d="m195.96,120.77c1.07.32,1.1.51,2.14-.03.52-.27,1.1-.75,1.43-1.67.2-.56.24-1.31.28-2.22.07-1.37.18-1.32-.17-2.74-.21-.85-.62-1.68-1.25-2.37-.56.54,0,1.19-.93.77s-.16-1.34-.54-2.81c-.35-1.38-.96.29-2.04,1.92-.42.63-.92,1.44-1.32,2.53-.37.99-.56,1.9-.6,2.68-.06,1.08.23,1.97.68,2.63.51.73,1.34,1.1,2.31,1.3Z"/><path class="cls-5" d="m196.18,120.04c1.53-.13,1.88-.14,1.67-2.09-.21-1.95.5-2.63-1.11-3.28-.98-.4-.9.58-1.66,1.35-.52.53-1.01,1.15-1.06,1.8-.09,1.37.6,2.35,2.16,2.23Z"/><path class="cls-4" d="m179.96,143.11c1.15-.82.26-1.1.72-2.75.22-.79.63-1.67.88-2.69.21-.86.4-1.8.59-2.76.18-.91.27-1.86.42-2.8s.41-1.87.49-2.79c.08-.98.14-1.95.12-2.84-.03-1.02-.16-2.01-.37-2.83-.27-1.04-.83-1.87-1.47-2.42-.76-.64-1.61-.9-2.32-1.21-.91-.39-1.7-.93-2.49-.91-.97.02-1.9.38-2.59.77-.92.53-1.61,1.37-1.78,2.01-.09.35,0,1.31-.14,2.56-.08.74-.42,1.57-.51,2.51-.08.8,0,1.67-.08,2.55-.07.83.07,1.7,0,2.56s-.15,1.71-.2,2.54c-.05.88-.17,1.74-.2,2.54-.03.94-.06,1.8-.06,2.54.01,1.25.22,2.08.38,2.43.28.62,1.19,1.03,2.53,1.15.97.09,2.05-.04,3.03-.08,1.66-.06,1.82.79,3.05-.09Z"/><path class="cls-2" d="m182.75,130.04c-.29-1.3-.42-.97-1.42-2.21-.49-.6-.99-1.38-1.77-1.99-.65-.51-1.45-.92-2.33-1.32-.75-.35-1.59-.65-2.52-.84-.81-.17-1.69-.28-2.65-.29-.63,1.6-.71,1.73-.42,3.42.21,1.27.99.17,2.49.76.68.27,1.51.54,2.36,1.03.68.39,1.37.9,2.12,1.47.64.49,1.32,1.01,1.98,1.65.58.57,1.08,1.19,1.65,1.9,1.07-1.49.62-2.26.51-3.58Z"/><path class="cls-2" d="m171.36,130.58c-.88,1.64-.39,2.28-.29,3.7.88,1.12,1.18.12,2.78.66.79.27,1.72.59,2.65,1.06.8.41,1.56,1.02,2.35,1.61.74.55,1.51,1.21,2.15,1.94,1.35-.74.78-1.59.71-3.02-.34-1.19-.58-.84-1.62-1.88-.51-.52-1.17-1.04-1.9-1.58-.63-.47-1.3-.95-2.08-1.34-.72-.36-1.48-.71-2.3-.91-.77-.19-1.59-.25-2.45-.24Z"/><path class="cls-2" d="m180.21,142.16c-.22-1.33-.56-.91-1.85-1.93-.6-.47-1.33-1.01-2.25-1.46-.73-.36-1.58-.64-2.53-.91-.8-.22-1.74-.43-2.7-.54-.94,1.01-.26,1.55.03,2.83.91.84,1.18.45,2.3.98s1.1.58,2.23,1.11,1.02.83,2.25,1.05c1.12.2,1.17.13,2.27-.17.47-.13.34-.51.26-.98Z"/><path class="cls-6" d="m177.82,120.8c1.07.32,1.09.44,2.13-.1.52-.27.97-.76,1.3-1.69.2-.56.51-1.25.56-2.16.07-1.37-.05-1.3-.4-2.72-.21-.85-.6-1.8-1.22-2.48-.56.54.05,1.38-.89.97-.94-.42-.03-1.47-.41-2.94-.35-1.38-1.06.3-2.13,1.93-.42.63-.8,1.49-1.21,2.58-.37.99-.56,1.87-.61,2.65-.06,1.08.06,2.01.51,2.67.51.73,1.4,1.08,2.38,1.28Z"/><path class="cls-5" d="m178.05,120.01c1.53-.13,1.94-.12,1.73-2.08-.21-1.95.44-2.62-1.17-3.27-.98-.4-.95.54-1.7,1.31-.52.53-.91,1.2-.96,1.84-.09,1.37.54,2.32,2.1,2.2Z"/><path class="cls-7" d="m171.02,140.36c.89,0,1.55.63,2.32.94s2.13-.11,2.75.48.83,2.07,1.2,2.86c.27-.96,1.09-1.82,1.72-2.55s1.06-1.57,1.95-1.99,1.76-.4,2.78-.4c.87,0,1.84-.58,2.6-.29s1.75.7,2.37,1.26.73,1.3,1.11,2.05c.38-.75.62-1.36,1.24-1.92s1.62-.66,2.41-.97,1.57-.09,2.44-.09,1.74-.24,2.52.07,1.69.64,2.31,1.23,1.03,1.83,1.4,2.62c.62-.91,1.59-1.7,2.57-2.22s1.85-1.35,2.99-1.35c.94,0,1.98.06,2.79.4s1.71.97,2.34,1.62.89,1.47,1.23,2.32c.63-.7,1.61-.55,2.49-.94s1.54-1.48,2.52-1.48c.92,0,2.01.05,2.82.38s1.26,1.46,1.89,2.09,1.41,1.2,1.75,2.03.39,1.75.39,2.68-.39,1.73-.73,2.54-.44,1.9-1.07,2.52-1.48,1.22-2.32,1.56-1.82.08-2.74.08-1.84-.06-2.65-.4-1.2-1.27-1.83-1.92-1.57-.65-1.91-1.5c-.63.7-1.36.86-2.24,1.25s-1.76.65-2.75.65c-.89,0-1.65-.44-2.43-.75s-1.47-.73-2.09-1.32-1.22-.55-1.59-1.34c-.62.9-1.63.87-2.61,1.39s-1.92.55-3.07.55c-.87,0-1.52-.18-2.28-.47s-1.59-.4-2.21-.96-1.21-1.49-1.59-2.24c-.38.75-1.02,1.63-1.64,2.19s-1.42.59-2.21.9-1.37.64-2.24.64-1.96.75-2.74.44-1.37-1.28-1.99-1.87-.93-.83-1.3-1.62c-.27.96-1.12,1.11-1.75,1.85s-1.4,1.09-2.3,1.51-1.62,1.57-2.64,1.57c-.92,0-1.75-.82-2.55-1.15s-1.52-.84-2.14-1.46-1.55-1.13-1.89-1.97-.3-1.81-.3-2.73-.17-1.98.16-2.79,1.04-1.65,1.67-2.28,1.82-.4,2.66-.75,1.48-.98,2.41-.98Z"/></g><rect class="cls-1" x="0" y="-.69" width="300" height="300"/></svg>