<svg xmlns="http://www.w3.org/2000/svg" viewBox="0 0 300 300">
    <path fill="#563422" d="M137.48 162.42c4.08-1.15 8.24-2.07 12.52-2.22 4.23-.15 8.41.34 12.59 1.39.29-.84.56-1.53.77-2.23.98-3.3 2.56-6.34 4.59-9.07 2.02-2.71 4.31-5.22 6.95-7.4 4.3-3.55 9.2-5.81 14.54-7.18 3.31-.85 6.7-1.23 10.11-.92 1.8.17 3.6.66 5.33 1.22 2.4.77 4.81 1.61 7.1 2.66 2.94 1.35 5.65 3.11 7.97 5.39 1.33 1.31 2.76 2.55 3.9 4.01 1.28 1.64 2.34 3.46 3.41 5.26 1.48 2.5 2.46 5.21 3.22 8 .37 1.38.54 2.81.73 4.23.23 1.73.12 3.47-.01 5.19-.31 4.01-1.12 7.91-2.57 11.69-1.25 3.26-3.18 6.12-5.2 8.91-2.44 3.36-5.58 6.03-9.3 7.87-4.42 2.2-9.04 3.88-14 4.51-2.09.27-4.14.19-6.24.03-2.27-.17-4.5-.49-6.68-1.11-3.33-.93-6.55-2.14-9.51-3.96-2.4-1.47-4.47-3.34-6.33-5.44-2.88-3.25-5.31-6.79-7.13-10.74a31.372 31.372 0 01-2.53-8.49c-.31-2.08-.4-4.15-.02-6.24.06-.32-.04-.68-.06-.97-4.33-2.32-18.97-2.09-23.42.37-.03.17-.08.38-.09.59-.07 3.19-.5 6.33-1.32 9.41-1.27 4.76-3.08 9.3-6.11 13.23-1.96 2.55-4.07 4.99-6.56 7.09-1.72 1.46-3.43 2.92-5.29 4.21-3.08 2.12-6.47 3.45-10.12 4.07-3.96.67-7.89.39-11.77-.71-3.23-.91-6.14-2.48-8.97-4.22-1.78-1.09-3.56-2.23-5.11-3.61-2.14-1.89-4.18-3.91-6.04-6.12-3.94-4.7-6.23-10.15-7.55-16.06-.23-1.01-.3-2.06-.39-3.1-.12-1.43-.19-2.86-.27-4.3-.15-2.83.52-5.53 1.24-8.23.79-2.95 2.2-5.58 3.85-8.11 1.88-2.9 3.85-5.72 6.43-8.05 2.75-2.49 5.66-4.78 8.99-6.46 2.4-1.22 4.99-1.79 7.6-2.35 2.24-.48 4.49-.6 6.76-.51.82.03 1.64.16 2.46.25 1.64.19 3.36.14 4.9.63 2.94.94 5.76 2.23 8.4 3.91 3.27 2.08 6.08 4.67 8.7 7.48 2.41 2.59 4.43 5.49 5.97 8.69 1.17 2.43 2.31 4.88 3.53 7.48zm-4.57 6.27c.09-2.34-.2-4.64-1.17-6.77-1.1-2.42-2.34-4.77-3.59-7.12-1.33-2.48-3.2-4.55-5.19-6.52-1.3-1.28-2.7-2.44-4.07-3.63-1.89-1.64-4.05-2.72-6.27-3.74-1.65-.77-3.33-1.54-5.24-1.47-.2 0-.41-.15-.62-.19-1.02-.2-2.04-.51-3.06-.53-1.47-.04-2.97 0-4.42.26-2.05.37-4.15.74-6.06 1.52-3.66 1.49-6.88 3.73-9.7 6.53a37.694 37.694 0 00-3.54 4.02c-2.23 2.94-4.2 6-5.21 9.59-.35 1.25-.82 2.55-.81 3.82.02 2.04-.52 4.05-.08 6.11.34 1.57.36 3.2.68 4.77.7 3.45 2.1 6.63 3.97 9.61.23.37.42.77.68 1.11 1.25 1.67 2.55 3.31 4.1 4.72 1.64 1.49 3.21 3.08 4.99 4.38 1.75 1.28 3.7 2.3 5.61 3.34 2.48 1.34 5.15 2.02 7.95 2.4 2.29.31 4.51.23 6.74-.22 3.7-.74 6.93-2.39 9.86-4.83 2.62-2.18 5.05-4.54 7.26-7.12.79-.92 1.48-1.94 2.13-2.96 1.19-1.88 2.1-3.89 2.91-5.98 1.38-3.58 2.06-7.27 2.16-11.08zm63.84 30.04c1.9.12 4.09.03 6.19-.6 2.46-.74 4.89-1.6 7.28-2.55 2.83-1.12 5.27-2.9 7.36-5.11.78-.82 1.37-1.81 2.15-2.62 1.91-1.96 2.94-4.43 4.05-6.84.84-1.82 1.48-3.73 1.71-5.74.17-1.51.28-3.03.56-4.52.45-2.41.19-4.78-.21-7.14-.6-3.58-2.24-6.76-4.06-9.86-.31-.52-.62-1.05-1.01-1.52-.81-.97-1.67-1.89-2.5-2.83-1.59-1.79-3.42-3.3-5.44-4.59-2.04-1.3-4.22-2.3-6.49-3.08-3.41-1.17-6.82-2.47-10.55-1.76-.17.03-.37.05-.52 0-.99-.36-1.96-.16-2.96 0-2.78.47-5.43 1.34-7.91 2.63-3.32 1.74-6.39 3.85-9 6.61-1.53 1.62-3.01 3.29-4.2 5.14-1.56 2.42-2.74 5.07-3.44 7.89-.43 1.73-.73 3.49-.99 5.25-.18 1.2-.33 2.43-.26 3.64.1 1.55.37 3.11.67 4.64.62 3.13 2.16 5.88 3.72 8.61.47.83 1.01 1.63 1.59 2.39.79 1.02 1.63 2.02 2.5 2.98 1.83 2 3.7 3.92 6.17 5.2 4.81 2.49 9.85 3.96 15.6 3.78z"/>
</svg>