<svg id="glasses" xmlns="http://www.w3.org/2000/svg" viewBox="0 0 300 300">
    <defs>
        <style>
            .cls-1,.cls-2{fill:none;stroke-width:0}.cls-2{fill:#d66a5e}
        </style>
    </defs>
    <path class="cls-1" d="M0 0h300v300H0z"/>
    <path class="cls-1" d="M.5 0h299v300H.5z"/>
    <path class="cls-2" d="M89.65 59.24c-5.35.58-8.16 4.31-8.71 8.44-1.01-.68-2.29-1.04-3.85-.87-4.39.47-5.84 4.58-4.84 7.85-6.96 1.91-8.51 9.89-5.58 15.21-1-.28-2.12-.39-3.36-.26-7.63.82-9.05 9.34-5.49 14.02-2.09 1.45-3.17 3.79-3.34 6.23-4.92 2.74-3.14 11.91 3.62 11.18 1.64-.18 2.86-.86 3.71-1.82a9.372 9.372 0 003.02-.23c1.55 1.59 3.79 2.54 6.67 2.23 6.54-.71 8.52-7.06 6.71-11.81 2.69-1.38 4.06-4.06 4.22-6.85.45 0 .9-.01 1.38-.06 7.41-.8 9.94-7.65 8.37-13.21 5.78-1.35 7.33-7.56 5.35-12.06 6.29-5.71 2.88-19.13-7.87-17.97zM243.69 96.92c3.42-10.01-1.73-23.34-15.49-23.34-3.41 0-6.3.83-8.65 2.22-.05-.08-.11-.15-.16-.22 1.81-5.04-.05-11.54-5.58-13.54-1.48-.97-3.33-1.57-5.56-1.57-1.58 0-2.97.3-4.17.82-1.28-4.51-4.95-8.23-11.03-8.23-2.47 0-4.53.62-6.21 1.65-1.92.98-3.25 2.6-4.01 4.48-1.22 2.48-1.61 5.39-1.14 8.14-8.32 5.67-6.13 22.01 6.62 22.01 2.4 0 4.43-.58 6.09-1.57-5.16 6.89-2.14 19.62 9.11 19.62 3.61 0 6.36-1.32 8.28-3.34-3.76 9.09.74 21.96 13.57 21.96 3 0 5.54-.72 7.64-1.92 1.65.67 3.53 1.06 5.66 1.06 16.83 0 18.53-23.54 5.04-28.24z"/>
</svg>