<?xml version="1.0" encoding="UTF-8"?><svg id="hair" xmlns="http://www.w3.org/2000/svg" viewBox="0 0 300 300"><defs><style>.cls-1{fill:#a8534a;}.cls-2{fill:#d66a5e;}</style></defs><g id="hair_6"><path class="cls-2" d="m145.09,30.49c.32.93.39.93.39,1.92s-.29.99-.29,1.98c0,.99.21.99.21,1.98s-.2.99-.2,1.98-.12.99-.12,1.98c0,.99.33.99.33,1.98,0,.99.02.99.02,1.98s.08.99.08,1.98c0,.99-.09.99-.09,1.98s-.48.99-.48,1.98.48.99.48,1.98c0,.99-.35.99-.35,1.98s.4.99.4,1.98c0,.99.07.99.07,1.98s-.13.99-.13,1.98-.05.99-.05,1.98-.12.99-.12,1.99.51,1.11.17,2.05c-.34.93-.87-.13-2.15-.16-.55,0-1.22.03-1.97.04-.6,0-1.25.27-1.97.3-.62.02-1.26.16-1.96.21-.63.04-1.31-.26-1.99-.2-.63.05-1.31-.11-1.99-.04-.64.07-1.22.72-1.9.81-.64.08-1.36-.31-2.03-.21s-1.27.33-1.93.45-1.34-.07-2,.06-1.22.58-1.87.73-1.36-.05-2.01.1-1.19.64-1.84.81-1.36.02-2,.21-1.28.34-1.91.54-1.26.41-1.89.62-1.04,1-1.67,1.23-1.41-.01-2.03.23-1.3.31-1.91.56-1.08.82-1.69,1.09-1.06.83-1.66,1.12-1.35.23-1.94.53-1.12.7-1.71,1.01-1.17.61-1.75.94-.95.98-1.52,1.32-1.26.45-1.82.81-1.16.64-1.71,1.01-.96.92-1.5,1.31-1.24.53-1.78.93-.83,1.08-1.35,1.49-1.04.8-1.55,1.22-1.17.65-1.67,1.09-.84,1.03-1.33,1.49-1,.86-1.47,1.33-1.16.71-1.62,1.18-1.01.87-1.46,1.36-.84,1.02-1.28,1.53-.87,1-1.29,1.51-.66,1.16-1.07,1.69-1.01.89-1.4,1.43-.24,1.45-.63,1.99-1.27.72-1.64,1.28-.19,1.44-.55,2.01-1.16.83-1.5,1.4-.53,1.22-.86,1.8-.31,1.33-.62,1.92-.62,1.16-.92,1.75-.71,1.11-1,1.71-.72,1.12-1,1.72-.62,1.17-.88,1.78c-.42.93-.2.73-.69,1.93-.22.54-.31,1.23-.59,1.96-.22.59-.73,1.13-.97,1.82-.21.61-.53,1.23-.75,1.91-.2.62-.27,1.32-.47,2-.19.64-.62,1.23-.8,1.91s-.31,1.33-.47,2-.02,1.39-.16,2.07-.37,1.31-.49,1.99-.46,1.31-.56,1.99.16,1.4.09,2.08-.43,1.34-.48,2.02.54,1.39.52,2.08-.35,1.35-.34,2.04.17,1.35.21,2.03c.09,1.02-.06.82.01,2.06.03.6.27,1.3.27,2.06,0,.65-.55,1.34-.58,2.05s.13,1.37.06,2.06-.45,1.32-.58,1.97c-.15.71-.24,1.35-.48,1.95-.28.7-.39,1.39-.82,1.84-.49.5-1.09.72-1.81.78-.59.05-1.35.38-2.1.15-.59-.18-1.21-.6-1.86-.97-.55-.31-1.22-.6-1.8-1.05-.5-.4-.71-1.21-1.21-1.72-.45-.46-1.08-.81-1.53-1.37-.41-.51-.93-.99-1.32-1.57-.36-.54-.77-1.12-1.11-1.73-.32-.57-.69-1.17-.99-1.8-.28-.59.05-1.49-.21-2.14-.25-.61-.92-1.08-1.15-1.74-.21-.62-.48-1.26-.68-1.93-.18-.64-.22-1.33-.39-2.01s-.39-1.29-.52-1.98-.42-1.3-.53-1.99-.05-1.36-.13-2.05.18-1.37.12-2.06-.61-1.31-.65-2,.56-1.37.54-2.06-.41-1.34-.4-2.04.4-1.34.43-2.04.05-1.34.09-2.03-.24-1.37-.18-2.06.33-1.33.4-2.02c.06-.65-.06-1.34.01-2.02s.37-1.29.45-1.97-.08-1.35.02-2.02.58-1.26.68-1.93.02-1.34.13-2.01.34-1.29.47-1.96.29-1.3.42-1.96-.04-1.37.11-2.03-.06-1.39.09-2.04.45-1.27.62-1.92.59-1.23.77-1.88.34-1.29.53-1.94.33-1.3.53-1.94.6-1.21.81-1.85.5-1.24.73-1.87.39-1.28.63-1.91.24-1.34.5-1.97.3-1.33.56-1.95.9-1.07,1.18-1.68.76-1.12,1.05-1.72.53-1.22.84-1.82.17-1.42.49-2.02,1-.97,1.34-1.56.58-1.21.93-1.79.52-1.25.88-1.82.88-1.03,1.25-1.59.41-1.35.8-1.9,1.29-.72,1.69-1.26.33-1.44.74-1.97,1.11-.83,1.54-1.35,1.09-.82,1.54-1.33.82-1.05,1.28-1.55.84-1.04,1.31-1.52.92-.96,1.41-1.44.64-1.27,1.14-1.73,1.09-.8,1.59-1.25,1.01-.88,1.53-1.32.97-.94,1.49-1.36,1.36-.43,1.9-.84.94-.97,1.49-1.36,1.2-.61,1.76-.99.92-1.03,1.48-1.4,1.38-.31,1.96-.67,1.12-.71,1.7-1.06,1.08-.79,1.67-1.12,1.18-.62,1.77-.94,1.01-.96,1.61-1.26,1.31-.37,1.92-.66,1.16-.68,1.77-.95,1.25-.48,1.87-.75,1.21-.57,1.83-.83,1.2-.61,1.83-.85,1.18-.69,1.81-.92,1.47.16,2.11-.05,1.29-.34,1.93-.55,1.11-.94,1.75-1.13,1.26-.47,1.91-.65,1.42.13,2.08-.04,1.22-.61,1.88-.77,1.36-.06,2.02-.21,1.27-.43,1.93-.58,1.37.05,2.03-.08,1.29-.35,1.95-.47,1.29-.37,1.96-.49,1.29-.42,1.95-.52,1.38.23,2.05.13,1.24-.8,1.91-.89,1.33-.15,2.01-.23,1.38.32,2.05.25,1.3-.46,1.97-.52,1.35.06,2.02.01,1.35.12,2.02.08,1.3-.6,1.98-.64,1.33-.25,2.01-.28,1.35.02,2.02,0,1.19.29,1.86.28Z"/><path class="cls-2" d="m154.76,30.44c-.32.93.35.99.35,1.98,0,.99-.53.99-.53,1.98,0,.99.39.99.39,1.98,0,.99-.49.99-.49,1.98s.05.99.05,1.98.49.99.49,1.98c0,.99-.03.99-.03,1.98s-.05.99-.05,1.98-.03.99-.03,1.98-.52.99-.52,1.98.42.99.42,1.98.02.99.02,1.98.31.99.31,1.98-.41.99-.41,1.98.19.99.19,1.98-.17.99-.17,1.98-.11.99-.11,1.99-.45,1.14-.11,2.07.93-.13,2.21-.15c.55,0,1.21,0,1.97.02.6,0,1.27-.2,1.99-.17.62.02,1.27.19,1.97.24.63.04,1.26.39,1.95.45.63.05,1.32-.17,2-.1.64.07,1.3.09,1.97.18.64.08,1.32.01,1.99.11s1.18.85,1.85.96,1.36-.17,2.02-.04,1.22.56,1.87.7,1.32.09,1.97.25,1.33.1,1.97.27,1.31.19,1.95.38,1.11.86,1.75,1.06,1.35.1,1.98.31,1.12.77,1.75.99,1.21.48,1.84.72,1.31.25,1.92.51,1.21.51,1.82.78,1.25.43,1.85.72,1.24.46,1.84.76,1.08.77,1.67,1.09,1.34.31,1.92.64,1.13.7,1.69,1.04,1.06.8,1.62,1.15,1.07.77,1.62,1.15,1.17.64,1.71,1.02.83,1.1,1.36,1.5.9.98,1.42,1.4,1.46.3,1.96.73.74,1.17,1.24,1.61,1.22.62,1.7,1.08.86,1.01,1.34,1.48,1.06.82,1.52,1.29.54,1.3.99,1.79.95.91,1.39,1.41,1,.87,1.43,1.39,1.07.84,1.48,1.36.72,1.12,1.12,1.65.58,1.21.96,1.76.71,1.11,1.08,1.66.57,1.19.93,1.76.6,1.17.94,1.74.9,1,1.22,1.58.91,1.01,1.22,1.59.73,1.11,1.03,1.71.19,1.38.48,1.98.75,1.11,1.03,1.71.12,1.39.38,2.01c.42.93.8.47,1.29,1.67.22.54-.02,1.37.25,2.1.22.59,1.11.99,1.35,1.69.21.61-.09,1.43.13,2.12.2.62.31,1.3.5,1.98.19.64.92,1.14,1.1,1.82s.22,1.34.38,2.02.23,1.34.37,2.02.25,1.34.37,2.02.19,1.35.29,2.03.13,1.36.21,2.04.02,1.37.07,2.05.19,1.35.21,2.04.05,1.37.05,2.05-.36,1.34-.4,2.02c-.09,1.02.2.84.14,2.07-.03.6.33,1.31.32,2.06,0,.65-.67,1.36-.65,2.07s.16,1.38.23,2.07.3,1.38.44,2.04c.15.71.4,1.38.64,1.97.28.7.45,1.5.88,1.95.49.5,1.3.86,2.02.92.59.05,1.28-.32,2.03-.55.59-.18,1.13-.59,1.78-.96.55-.31,1.26-.46,1.83-.91.5-.4.81-1.07,1.31-1.58.45-.46,1.13-.76,1.58-1.32.41-.51.51-1.27.9-1.86.36-.54.74-1.09,1.09-1.7.32-.57.66-1.15.96-1.78.28-.59.73-1.13.99-1.79.25-.61.42-1.27.65-1.93.21-.62.2-1.33.39-2,.18-.64.94-1.14,1.1-1.82s-.02-1.38.11-2.07-.04-1.37.06-2.05.37-1.3.45-1.99.34-1.32.4-2.01.02-1.35.06-2.04c.03-.67.45-1.34.47-2.03s-.08-1.36-.08-2.05-.29-1.35-.31-2.04.2-1.36.17-2.05-.18-1.35-.24-2.04-.31-1.33-.38-2.02c-.06-.65-.44-1.28-.52-1.96s.32-1.37.23-2.05c-.08-.65-.16-1.32-.26-1.99s-.25-1.31-.35-1.98-.2-1.32-.32-1.99-.13-1.33-.25-2-.33-1.3-.47-1.96-.58-1.24-.73-1.9.23-1.42.07-2.08-.62-1.23-.79-1.88-.14-1.34-.32-2-.46-1.26-.65-1.91-.07-1.38-.27-2.02-.4-1.28-.62-1.92-.98-1.08-1.21-1.71-.39-1.28-.63-1.91-.33-1.31-.59-1.93-.83-1.1-1.1-1.72-.08-1.43-.35-2.04-.59-1.21-.88-1.81-.59-1.2-.9-1.8-.63-1.18-.95-1.78c-.32-.59-.75-1.12-1.08-1.7s-.39-1.33-.74-1.91-.71-1.15-1.07-1.72-1.19-.83-1.56-1.39-.26-1.45-.65-2-1.04-.91-1.44-1.45-1.02-.9-1.43-1.43-.82-1.05-1.25-1.57-.42-1.41-.86-1.91-1.05-.86-1.51-1.36-1.19-.71-1.66-1.2-.91-.97-1.4-1.44-.66-1.24-1.15-1.71-1.24-.63-1.74-1.08-1.06-.81-1.58-1.25-.81-1.12-1.34-1.54-1.21-.62-1.75-1.03-.78-1.19-1.33-1.59-1.17-.67-1.73-1.05-1.11-.75-1.67-1.12-1.16-.67-1.74-1.02-1.23-.55-1.81-.9-1.15-.68-1.74-1.01-1.18-.62-1.78-.93-1.28-.42-1.88-.73-1.06-.86-1.67-1.15-1.14-.72-1.76-1-1.31-.34-1.93-.6-1.27-.41-1.9-.66-1.24-.48-1.88-.72-1.25-.46-1.89-.69-1.24-.5-1.88-.71-1.27-.41-1.91-.62-1.18-.71-1.83-.9-1.26-.46-1.91-.64-1.37-.08-2.02-.26-1.26-.46-1.92-.62-1.28-.42-1.94-.57-1.37,0-2.03-.14-1.31-.28-1.97-.42-1.28-.45-1.94-.57-1.39.21-2.06.1-1.24-.71-1.91-.81-1.39.26-2.06.17-1.27-.59-1.94-.68-1.33-.16-2-.24-1.31-.4-1.98-.47-1.39.45-2.06.39-1.3-.51-1.97-.56-1.34,0-2.02-.06-1.35.19-2.03.16-1.32-.48-1.99-.51-1.34-.19-2.01-.21-1.35.25-2.03.23Z"/><path class="cls-1" d="m125.42,71.76c.92.42.58.48,1.81.89.54.18,1.15.51,1.89.73.59.18,1.25.32,1.96.51.61.17,1.3.21,1.99.38.62.15,1.26.39,1.95.54.63.14,1.28.36,1.96.49.64.13,1.3.29,1.98.4s1.37-.16,2.05-.06,1.31.23,1.99.31,1.3.4,1.98.46,1.36-.18,2.04-.13,1.32.36,2,.39,1.34-.1,2.02-.09,1.34.16,2.02.15,1.34-.2,2.02-.23,1.34.05,2.02,0,1.33-.22,2-.29,1.32-.24,1.99-.32,1.34-.06,2.01-.17,1.35-.08,2.02-.2,1.3-.35,1.96-.5,1.34-.17,2-.34,1.22-.61,1.88-.8,1.29-.37,1.93-.58,1.26-.44,1.9-.68,1.38-.15,2.01-.41,1.18-.66,1.8-.93,1.28-.44,1.89-.74,1.09-.87,1.69-1.18c.95-.4.91-.02,1.88-.83.45-.37.73-1.05,1.19-1.69.37-.5,1-.92,1.32-1.61.26-.57.32-1.29.52-2.01.16-.62.23-1.29.32-2.03.08-.64.35-1.31.36-2.05,0-.65-.08-1.34-.14-2.07-.05-.65-.36-1.3-.46-2.02-.09-.65-.07-1.35-.21-2.05-.13-.65-.2-1.34-.38-2.03-.17-.64-.54-1.25-.75-1.94-.19-.64-.24-1.34-.48-2.02-.22-.64-.3-1.33-.54-1.94s-.72-1.16-.99-1.76-.43-1.28-.73-1.88-.84-1.08-1.16-1.66-.53-1.25-.87-1.81-.58-1.24-.95-1.78-.92-1.01-1.31-1.53-.76-1.12-1.18-1.63-.84-1.06-1.29-1.54-.91-1.01-1.38-1.47-1.19-.7-1.69-1.13-.98-.92-1.49-1.33-1.13-.73-1.66-1.1c-.56-.39-.99-.95-1.54-1.29-.59-.36-1.24-.56-1.81-.87-.61-.32-1.1-.85-1.69-1.11-.64-.28-1.37-.25-1.97-.47-.67-.24-1.24-.63-1.85-.79-.7-.18-1.38-.12-1.99-.19-.74-.09-1.38-.1-1.96-.05s-1.26,0-1.99,0c-.61,0-1.27-.26-1.98-.27-.63,0-1.29.12-1.98.13-.64,0-1.3.06-1.98.1-.64.04-1.28.29-1.95.37-.64.08-1.29.1-1.96.22s-1.35-.03-2,.14-1.16.68-1.8.9-1.21.45-1.83.72-1.22.45-1.82.77c-.57.3-1.14.62-1.72.98-.54.34-1.11.68-1.66,1.08-.52.38-1.09.73-1.61,1.17-.49.41-.93.91-1.43,1.38-.47.44-.97.88-1.43,1.37s-.77,1.06-1.21,1.57-.83,1-1.24,1.54-.79,1.04-1.18,1.59-.77,1.05-1.14,1.62c-.53.82-.6.49-1.2,1.56-.27.48-.62,1.05-.96,1.71-.27.53-.42,1.19-.72,1.82-.27.56-.53,1.16-.8,1.78-.25.58-.34,1.24-.59,1.87s-.56,1.16-.78,1.79-.31,1.26-.51,1.88-.59,1.18-.76,1.81-.44,1.24-.58,1.88-.26,1.29-.35,1.93-.19,1.3-.25,1.95-.03,1.32-.03,1.97.04,1.32.1,1.96.26,1.29.4,1.92.5,1.2.72,1.81.45,1.19.77,1.77.56,1.16.97,1.68.75,1.06,1.24,1.52c.46.43.96.87,1.51,1.26.52.36,1.2.46,1.81.77Z"/><path class="cls-2" d="m145.88,24.86c-.94.23-.64.35-1.69.97-.48.28-1.06.58-1.68.99-.5.33-.96.8-1.52,1.22-.49.37-1.05.71-1.57,1.15-.48.4-.96.84-1.46,1.29-.46.43-.98.83-1.45,1.31s-.83.99-1.26,1.49-.77,1.03-1.17,1.56-.85.98-1.21,1.53-.73,1.07-1.06,1.64-.58,1.15-.87,1.75c-.28.58-.55,1.17-.8,1.78s-.45,1.21-.65,1.84-.34,1.24-.5,1.89-.28,1.26-.4,1.91-.21,1.27-.28,1.93c-.01.9-.01,1.17.58,1.67.34.29.89.3,1.7-.19.38-.23.82-.74,1.24-1.56.27-.51.53-1.14.84-1.84.25-.57.44-1.22.73-1.89.26-.58.56-1.19.86-1.83.27-.59.62-1.17.92-1.8.29-.59.61-1.18.94-1.79.31-.58.53-1.23.87-1.83s.66-1.16,1.03-1.74.81-1.07,1.2-1.63.77-1.09,1.19-1.63.75-1.12,1.19-1.64.93-.97,1.39-1.47.97-.92,1.47-1.4.94-.96,1.46-1.4c.59-.58.7-.73.93-1.36.19-.51.05-1-.94-.9Z"/><path class="cls-2" d="m151.96,25.19c-.76.59-.28.67-.69,1.83-.18.51-.4,1.12-.6,1.83-.16.57-.29,1.2-.44,1.88-.13.59-.27,1.22-.38,1.89-.1.61-.14,1.25-.21,1.92-.07.62-.21,1.25-.25,1.92-.04.62-.04,1.27-.05,1.93s.03,1.27.06,1.93.07,1.27.13,1.93.1,1.28.19,1.93.31,1.24.44,1.89.21,1.26.38,1.9c.41.76.62.82,1.45.86.44.02.95-.2,1.44-.85.26-.34.34-1.01.33-1.9,0-.56.01-1.23-.06-1.96-.06-.6-.23-1.24-.31-1.94-.07-.62-.12-1.27-.2-1.95-.07-.63-.19-1.28-.26-1.94s-.11-1.29-.16-1.96-.05-1.3-.08-1.96-.04-1.31-.03-1.96,0-1.32.05-1.97.24-1.3.34-1.94.22-1.3.39-1.92c.22-1.38.28-2.37-1.5-1.37Z"/><path class="cls-2" d="m159.09,24.95c1.01-.14.72.13,1.92.58.54.2,1.22.37,1.92.7.56.27,1.13.66,1.77,1.04.55.33,1.16.65,1.74,1.07.53.38,1.1.77,1.64,1.23.5.43.93.97,1.43,1.47.46.47.92.98,1.37,1.52.42.51.88,1.02,1.29,1.59.38.54.81,1.08,1.17,1.69.34.57.61,1.2.93,1.83.3.59.56,1.22.83,1.87.26.61.56,1.23.79,1.89.22.63.4,1.29.58,1.97.18.64.35,1.3.5,1.99.27.93.32.99.14,1.93-.11.58-.45,1.14-1.17,1.45s-1.38.15-2-.44c-.43-.41-.86-1.02-1.26-1.77-.31-.58-.61-1.25-.9-1.98-.26-.63-.49-1.33-.73-2.05-.19-.57-.37-1.19-.59-1.84-.2-.58-.39-1.2-.64-1.82-.23-.58-.48-1.17-.76-1.78-.26-.57-.56-1.14-.89-1.72-.31-.55-.71-1.05-1.09-1.6-.35-.52-.68-1.07-1.1-1.58-.4-.48-.87-.92-1.34-1.39-.44-.44-.92-.86-1.43-1.29-.48-.4-.95-.84-1.49-1.22-.51-.36-1.07-.66-1.65-1-.83-.41-.98-.53-1.49-1.08-.41-.44-.5-.86.53-1.25Z"/><path class="cls-1" d="m209.23,76.68c-.32-.98.14-.77.24-2.06.04-.58.16-1.27.18-2.05.02-.63-.02-1.32-.04-2.06-.01-.65-.08-1.34-.13-2.06-.04-.66-.12-1.34-.2-2.05-.07-.66-.16-1.34-.27-2.04s-.22-1.34-.37-2.02-.2-1.35-.38-2.03-.47-1.28-.69-1.94-.41-1.3-.68-1.95-.57-1.24-.88-1.86-.52-1.27-.87-1.87-.77-1.13-1.17-1.71c-.44-.76-.6-1.02-.41-1.7.12-.43.59-.77,1.55-.65.44.05.97.27,1.67.53.56.2,1.16.51,1.72,1.02.45.41.94.89,1.38,1.47.38.5.7,1.09,1.07,1.71.32.55.7,1.12,1,1.75.28.58.48,1.23.74,1.87.24.6.49,1.23.71,1.88s.39,1.27.58,1.93.44,1.26.6,1.92.26,1.31.39,1.98.14,1.33.23,2,.16,1.32.22,2,.12,1.33.15,2,.03,1.33.03,2.01.06,1.34.03,2.01c-.03.67-.06,1.34-.13,2.01-.15,1.05-.13,1.21-.83,1.95-.43.46-1.1.67-1.98.45-.52-.13-1.11-.44-1.83-1-.47-.37-1.05-.79-1.62-1.39Z"/><path class="cls-1" d="m226.28,91.63c-.13-1.02.27-.72.62-1.97.15-.56.24-1.25.41-2.02.14-.62.4-1.27.53-2,.11-.64.23-1.32.32-2.04.08-.66.14-1.34.2-2.05.05-.67,0-1.36.03-2.06s.16-1.36.15-2.06-.15-1.36-.2-2.06,0-1.37-.1-2.06-.29-1.34-.42-2.02-.23-1.35-.41-2.02-.44-1.3-.66-1.96-.38-1.32-.65-1.96c-.29-.83-.46-1.07-.14-1.71.2-.4.69-.63,1.61-.34.42.13.91.42,1.55.81.51.31.99.76,1.44,1.37.37.49.68,1.07,1,1.73.28.56.55,1.17.79,1.84.21.6.35,1.26.53,1.93.17.62.39,1.25.52,1.93.13.64.19,1.3.29,1.99.09.65.15,1.31.21,2s.19,1.32.22,2,.02,1.33.01,2.01.01,1.33-.02,2.01-.04,1.34-.11,2.01-.28,1.31-.37,1.98c-.09.66-.14,1.33-.27,1.99s-.27,1.31-.43,1.97-.42,1.27-.62,1.91c-.34,1-.35,1.08-1.18,1.68-.51.37-1.14.59-1.97.21-.49-.22-1.02-.65-1.62-1.34-.39-.45-.83-1-1.27-1.7Z"/><path class="cls-1" d="m238.67,112.39c.07-1.03.43-.62,1-1.78.26-.52.51-1.17.82-1.89.25-.58.51-1.22.77-1.91.23-.61.41-1.28.64-1.96.21-.63.45-1.27.64-1.96.18-.64.28-1.33.44-2.01s.34-1.32.46-2.01.21-1.35.29-2.04.12-1.36.16-2.05.14-1.37.14-2.06-.17-1.36-.22-2.06,0-1.38-.11-2.06-.27-1.34-.42-2.02c-.13-.87-.14-1.13.3-1.69.27-.35.79-.56,1.64-.1.39.21.87.55,1.42,1.05.44.4.7,1.04,1.03,1.72.27.55.64,1.12.84,1.83.17.6.14,1.3.25,2,.1.63.17,1.29.22,1.99.04.64.23,1.31.24,2,0,.65-.1,1.32-.14,2.01s-.08,1.32-.15,2-.22,1.31-.33,1.98-.21,1.31-.34,1.98-.17,1.33-.33,1.98-.41,1.27-.6,1.92-.28,1.31-.5,1.95-.55,1.23-.8,1.85-.55,1.22-.83,1.83-.47,1.26-.79,1.86c-.53.92-.63,1.01-1.55,1.44-.57.27-1.28.31-2.02-.22-.43-.31-.9-.83-1.36-1.62-.3-.51-.53-1.16-.83-1.93Z"/><path class="cls-1" d="m92.45,76.65c.32-.98-.16-.73-.26-2.02-.04-.58,0-1.28-.03-2.06-.02-.63.07-1.32.09-2.06.01-.65-.09-1.34-.04-2.06.04-.66.13-1.35.2-2.05.07-.66.2-1.34.31-2.04s.24-1.34.39-2.02.22-1.35.4-2.02.51-1.27.73-1.93.32-1.34.59-1.98.58-1.24.88-1.87.61-1.23.96-1.83.68-1.19,1.07-1.76c.44-.76.53-.95.34-1.64-.12-.43-.46-.81-1.42-.69-.44.05-1,.2-1.7.46-.56.2-1.08.64-1.64,1.15-.45.41-.94.87-1.38,1.45-.38.5-.73,1.07-1.09,1.68-.32.55-.62,1.15-.93,1.78-.28.58-.59,1.18-.85,1.82-.24.6-.52,1.22-.74,1.87s-.31,1.29-.5,1.95-.38,1.27-.53,1.94-.35,1.29-.48,1.95-.26,1.31-.36,1.98-.02,1.34-.08,2.01-.16,1.33-.19,2-.15,1.34-.15,2.01.15,1.34.18,2.01-.06,1.35.01,2.02c.15,1.05.3,1.1.99,1.85.43.46,1.02.88,1.9.67.52-.13,1.09-.54,1.81-1.1.47-.37.95-.83,1.52-1.43Z"/><path class="cls-1" d="m75.46,91.63c.13-1.02-.3-.7-.65-1.95-.15-.56-.28-1.25-.45-2.01-.14-.62-.28-1.29-.41-2.02-.11-.64-.29-1.31-.38-2.03-.08-.66.03-1.36-.03-2.07-.05-.67-.22-1.34-.24-2.05s.07-1.36.08-2.06-.03-1.36.02-2.06.14-1.36.23-2.05.11-1.37.24-2.05.39-1.32.57-1.99.45-1.29.67-1.95.44-1.29.72-1.93c.29-.83.2-1.06-.11-1.7-.2-.4-.56-.62-1.48-.33-.42.13-.91.4-1.55.79-.51.31-1.01.72-1.47,1.32-.37.49-.75,1.04-1.07,1.69-.28.56-.55,1.18-.79,1.85-.21.6-.33,1.27-.5,1.94-.17.62-.38,1.26-.51,1.94-.13.64-.17,1.31-.26,1.99s-.23,1.31-.28,1.99-.02,1.33-.05,2.01-.02,1.33-.01,2.01.01,1.33.05,2,.08,1.33.15,2,0,1.35.09,2.01.19,1.33.32,1.99.27,1.32.43,1.97.44,1.27.64,1.91c.34,1,.37,1.12,1.19,1.71.51.37,1.16.49,1.98.11.49-.22,1.05-.59,1.65-1.28.39-.45.79-1.02,1.23-1.72Z"/><path class="cls-1" d="m63.19,112.38c-.07-1.03-.39-.68-.96-1.84-.26-.52-.6-1.13-.91-1.84-.25-.58-.6-1.18-.87-1.88-.23-.61-.37-1.29-.59-1.98-.21-.63-.43-1.28-.62-1.96-.18-.64-.35-1.31-.5-2s-.34-1.32-.46-2.01-.2-1.35-.28-2.04-.15-1.36-.19-2.06.09-1.37.09-2.07-.01-1.37.04-2.06.05-1.37.15-2.06.33-1.33.48-2.01c.13-.87.09-1.18-.34-1.75-.27-.35-.84-.51-1.69-.05-.39.21-.83.59-1.39,1.08-.44.4-.82.96-1.15,1.64-.27.55-.5,1.18-.69,1.88-.17.6-.38,1.25-.49,1.95-.1.63.01,1.32-.03,2.02-.04.64-.12,1.31-.12,2,0,.65.06,1.32.1,2s.03,1.32.1,2,.16,1.32.26,1.99.25,1.31.38,1.97.13,1.34.29,1.99.37,1.29.56,1.93.39,1.28.61,1.92.47,1.26.72,1.88.5,1.24.78,1.86.54,1.23.86,1.83c.53.92.67.95,1.58,1.38.57.27,1.25.35,1.99-.18.43-.31.95-.79,1.41-1.58.3-.51.58-1.19.88-1.96Z"/></g></svg>