<?xml version="1.0" encoding="UTF-8"?>
<svg id="glasses" xmlns="http://www.w3.org/2000/svg" viewBox="0 0 300 300">
    <defs>
        <style>
            .cls-1 {
                fill:none;
            }
            .cls-1,.cls-2,.cls-3 {
                stroke-width:0px;
            }
            .cls-2 {
                fill:#d66a5e;
            }
            .cls-3 {
                fill:#ed938c;
            }

        </style>
    </defs>
    <rect class="cls-1" x=".5" width="299" height="300"/>
    <path class="cls-2"
          d="m203.37,141.8c-1.36-3.36,1.02-2.29,2.24-6.32.63-2.09-.41-4.87.04-7.41.41-2.36,1.25-4.62,1.21-7.01s-1-4.51-1.85-6.67-1.08-4.76-3.19-6.2c-1.74-1.19-4.15-1.21-6.96-1.58-2.55-.34-4.83-.61-7.03-.62-2.6-.02-4.94-.24-7.1.06-2.61.37-5.04.46-7.08,1.09-2.65.82-5.2,1.02-7.02,1.81-3.32,1.43-5.19,3.65-6.49,2.51-.99-.87-1.57-3.74-2.35-7.01-.52-2.18-1.88-4.3-2.78-6.66s-.27-5.53-1.85-7.33-4.43-1.91-6.97-2.62c-2.02-.56-4.34-1.88-7.16-1.45-2.31.35-4.71.82-6.84,1.59s-3.75,2.91-5.68,4.13-3.55,2.69-5.16,4.36-3.87,2.75-5.06,4.79c-1.11,1.91-2.42,4.02-3.16,6.3-.67,2.08-.45,4.58-.77,6.98-.28,2.16.73,4.46.77,6.88.03,2.19-1.44,4.57-1.12,6.97.29,2.17.67,4.5,1.2,6.85.49,2.15,2.77,4.79,3.48,7.09-2.1.23-5.42-.38-7.73-.19s-4.39,1.31-6.62,1.46-4.65-1.19-6.78-1.07c-2.46.14-4.64,2.19-6.6,2.28-4.03.19-4.52,1.64-6.97-.65-2.63-2.45-1.22-3.03-1.53-7.31-.15-2.11,1.37-4.66,1.26-7.28-.09-2.31-.72-4.73-.71-7.17s.23-4.86.39-7.18c.18-2.58.62-4.41,1.07-6.53-.99,2.35-1.49,4.37-2.52,6.66s-2.51,4.25-3.37,6.72c-.77,2.24-1.99,4.48-2.48,7.14-.42,2.28.41,4.84.29,7.58-.1,2.32-1.34,4.44-1.15,7.17-2.93.45-5.5-.32-8.23-.6-4.83-.51-4.29-1.6-8.66-1.7-5.39-.11-4.22,2.07-3.11,10.69.32,2.49-1.52,1.42-4.51-2.11-1.26-1.49-2.76-3.39-4.27-5.71-1.19-1.82-1.38-4.45-2.62-6.7-1.08-1.98-3.05-3.62-4.09-5.88-.96-2.09-1.06-4.6-1.94-6.89s-2.82-3.99-3.53-6.31.04-4.87-.49-7.22-2.72-4.31-3.05-6.68,1.19-4.86,1.09-7.25-.55-4.67-.4-7.06.44-4.66.87-7.01.97-4.56,1.7-6.85,1.05-4.62,2.09-6.8,2.96-3.65,4.29-5.7,1.15-4.98,2.74-6.85c1.49-1.76,3.89-2.83,5.69-4.51,1.69-1.57,3.19-3.51,5.16-4.99s3.96-2.93,5.89-4.35,4.65-1.98,6.59-3.37,4.01-2.84,5.98-4.2,3.88-3.05,5.87-4.37,3.67-3.41,5.68-4.68c2.11-1.34,4.51-2.1,6.55-3.32,2.15-1.29,4.44-2.18,6.51-3.33,2.2-1.22,3.62-3.76,5.73-4.82,2.25-1.13,5.15-.73,7.31-1.68,2.31-1.02,4.6-1.76,6.8-2.57,2.38-.88,4.3-2.83,6.55-3.45,2.45-.68,4.84-1.42,7.15-1.8,2.51-.41,5.02-.92,7.37-.97,2.52-.05,4.82,2,7.16,2.36s4.87.26,7.13,1.12,4.26,2.13,6.35,3.46,3.49,3.1,5.34,4.82c1.71,1.59,3.86,2.8,5.45,4.79,1.46,1.82,2.65,3.92,4.01,6.07,1.47,2.31,3.44,3.92,4.72,5.67,1.7,2.32,2.26,5.11,3.69,6.57,2.23,2.27,5.27,1.96,7.04,2.58,2.61.93,5.09,2.18,7.29.95,1.94-1.08,3.77-3.01,5.93-4.51,1.92-1.34,3.41-3.75,5.87-4.53,2.12-.66,4.55.42,7.31.75,2.11.25,4.18.83,6.79,1.94,1.99.84,4.86.55,7.2,2.02,1.88,1.18,3.62,3.01,5.75,4.66,1.93,1.5,4.01,2.83,5.9,4.36s4.04,2.84,5.87,4.43,2.65,4.39,4.39,6.06,3.38,3.51,5.01,5.28,3.86,3.14,5.33,5.03,3.06,3.88,4.3,5.93,3.27,3.96,4.19,6.18,1.38,4.87,1.87,7.25.36,4.94.34,7.42.2,4.96-.34,7.44c-.44,2.04-1.68,4.2-2.74,6.48-.91,1.95-3.27,3.2-4.65,5.22-1.23,1.81-.98,4.94-2.6,6.73-1.49,1.63-4.46,1.89-6.28,3.44-1.69,1.44-3.2,3.13-5.19,4.46-1.85,1.23-3.59,2.77-5.7,3.87-1.97,1.03-3.81,2.62-6.02,3.51-2.07.83-4.65.42-6.93,1.1-2.14.64-4.41.75-6.74,1.24-2.18.46-4.08,3.05-6.44,3.36-2.21.29-4.68-.98-7.05-.83-2.23.14-3.73.2-6.1.2Z"/>
    <path class="cls-3"
          d="m99.21,110.23c-1.61,3.77-2.08,8.08-1.32,12.11l.2-.03c.52-1.12.81-2.09,1.05-3.06.72-3.02.9-5.81.26-8.94l-.19-.07Z"/>
    <path class="cls-3"
          d="m92.4,109.19c-1.72,6.09-.55,13.13-.34,19.37l.2-.02c1.69-6.25.78-12.59,1.64-18.87.25-2.1,1.6-3.85,1.89-6.01l-.18-.08c-.95,1.92-2.63,3.48-3.21,5.61Z"/>
    <path class="cls-3"
          d="m205.94,98.27s.03.2.03.2c5.82-.78,11.44,4.24,11.33,10.11,0,0,.2,0,.2,0,3.07-6.47-5.46-14.11-11.55-10.31Z"/>
    <path class="cls-3"
          d="m214.65,95.08l-.02.2c2.92.46,5.28,3.08,5.45,6.03,0,0,.2,0,.2,0,2.77-3.29-2.07-8.67-5.63-6.23Z"/>
    <path class="cls-3"
          d="m165.98,47.46s-.11.17-.11.17c4.68,3.18,7.21,9.3,6.13,14.85,0,0,.2.04.2.04,3.82-5.21.18-14.07-6.21-15.06Z"/>
    <path class="cls-3"
          d="m161.66,57.42s-.12.16-.12.16c4.61,3.56,7.49,9.33,7.55,15.15,0,0,.2,0,.2,0,2.6-5.87-1.37-13.86-7.63-15.31Z"/>
    <path class="cls-3"
          d="m206.27,52.08l.19-.13c.1-1.25-.91-2.32-1.93-2.89-3.02-1.68-7.28.05-8.02,3.51l.13.18c2.71-1.88,6.99-3.37,9.63-.67Z"/>
    <path class="cls-3"
          d="m207.11,56.05c-4.52-4.4-12.12-3.49-13.84,3.07l.14.18c1.01-.76,1.92-1.62,2.92-2.32,3.13-2.26,7.2-1.31,10.73-.7,0,0,.05-.22.05-.22Z"/>
</svg>