<?xml version="1.0" encoding="UTF-8"?><svg id="hair" xmlns="http://www.w3.org/2000/svg" viewBox="0 0 300 300"><defs><style>.cls-1{fill:#fff;}.cls-2{fill:#d66a5e;}</style></defs><g id="hair_3"><path class="cls-2" d="m271.87,103.05c-.16-.64-.19-1.32-.35-1.97s-.39-1.27-.56-1.92.75-1.58.57-2.23-.7-1.19-.89-1.83-.91-1.12-1.1-1.76.46-1.54.25-2.18-.5-1.25-.71-1.88-.47-1.25-.69-1.89-.76-1.15-.99-1.78-.56-1.22-.8-1.84-.48-1.24-.73-1.86.08-1.48-.17-2.09-1.86-.66-2.12-1.27-.17-1.37-.44-1.98-.9-1.04-1.19-1.64-.19-1.38-.48-1.98-.66-1.15-.96-1.75-.87-1.04-1.19-1.63.38-1.72.05-2.3-.9-1.03-1.24-1.6-.67-1.15-1.02-1.72-.8-1.07-1.16-1.64-.63-1.18-1-1.74-.5-1.28-.88-1.83-1.3-.71-1.69-1.26-.55-1.25-.95-1.78-.37-1.41-.78-1.93-1.43-.57-1.85-1.08-1.1-.8-1.54-1.31-.62-1.22-1.07-1.71-.93-.95-1.39-1.44-1.34-.54-1.81-1.01.08-1.98-.41-2.44-1.65-.2-2.14-.64-.49-1.46-.99-1.9-1.39-.42-1.91-.84-.95-.95-1.48-1.36-1.5-.21-2.04-.6-.61-1.42-1.16-1.8-.79-1.23-1.35-1.6-1.26-.53-1.83-.88-1.69.24-2.27-.1-.99-.94-1.57-1.26-1.3-.36-1.9-.67-.99-.98-1.59-1.27-1.07-.86-1.68-1.13-1.16-.68-1.78-.93-1.49.16-2.12-.08-1.06-.95-1.69-1.17-1.42.05-2.05-.16-1.12-.86-1.76-1.05-1.44.24-2.09.06-1.31-.17-1.96-.33-1.26-.36-1.92-.51-1.29-.27-1.94-.4-1.09-1.39-1.75-1.51-1.3-.35-1.96-.45-1.33-.21-1.99-.3-1.42.7-2.09.63-1.29-.45-1.96-.5-1.36.42-2.03.37-1.3-.53-1.97-.56-1.34.41-2.01.4-1.32.28-1.99.27-1.32-.63-1.99-.62-1.35-.75-2.02-.73-1.29,1.07-1.96,1.1-1.33-.14-2-.1-1.35-.21-2.01-.16-1.33.02-2,.08-1.25.82-1.92.89-1.45-.98-2.12-.9-1.17,1.31-1.83,1.4-1.36-.15-2.02-.05-1.3.29-1.96.4-1.26.47-1.92.58-1.32.16-1.98.29-1.48-.61-2.13-.47-1.29.34-1.95.48-1.15.95-1.81,1.1-1.4-.15-2.06,0-1.26.49-1.91.65c-.65-.16-1.34-.15-1.99-.31s-1.23-.63-1.87-.77-1.24-.62-1.88-.76-1.49.59-2.14.46-1.27-.48-1.92-.6-1.22-.74-1.88-.85-1.28-.49-1.93-.6-1.52,1.03-2.17.93-1.26-.59-1.92-.68-1.22-.97-1.88-1.05-1.45.9-2.11.83-1.22-1.28-1.88-1.34-1.42.94-2.09.89-1.26-1.26-1.92-1.3-1.39.87-2.05.84-1.32-.67-1.98-.69-1.34-.38-2-.39-1.35.36-2.01.37-1.34.05-2.01.06-1.32.45-1.99.48-1.36-.29-2.02-.24-1.3.63-1.96.68-1.37-.33-2.03-.26-1.33.16-1.99.25-1.31.3-1.97.4-1.44-.45-2.09-.34-1.12,1.33-1.77,1.46-1.49-.61-2.14-.46-1.22.67-1.86.83-1.26.46-1.9.64-1.13.89-1.76,1.08-1.24.44-1.87.65-1.68-.79-2.3-.56-.84,1.59-1.46,1.83-1.72-.7-2.33-.45-1.25.51-1.86.78-.67,1.73-1.27,2.02-1.5-.03-2.09.27-1.17.64-1.76.96-1.45.16-2.03.49-1.14.73-1.7,1.08-.69,1.4-1.25,1.77-1.48.19-2.03.57-.57,1.49-1.11,1.88-1.55.16-2.07.57-1.24.6-1.76,1.02-.45,1.55-.95,1.98-1.07.79-1.57,1.24-.99.89-1.47,1.35-.93.95-1.4,1.42-1.04.85-1.49,1.33-.97.91-1.42,1.41-.39,1.42-.83,1.92-1.65.35-2.08.86-.91.99-1.32,1.51-.71,1.15-1.11,1.68-.22,1.49-.61,2.03-1.62.49-2,1.04-.08,1.56-.45,2.11-1.47.64-1.82,1.21-.13,1.5-.47,2.07-1.09.91-1.42,1.48-.25,1.4-.57,1.98-1.3.82-1.62,1.4.35,1.69.04,2.28-.71,1.13-1,1.73-.95,1.02-1.24,1.62-.55,1.22-.82,1.83-.79,1.11-1.06,1.72-.36,1.3-.62,1.91-.95,1.06-1.2,1.68.09,1.47-.15,2.09-.78,1.14-1,1.76-.57,1.22-.79,1.85.27,1.51.06,2.14-.59,1.21-.79,1.84-.13,1.36-.33,1.99-.1,1.36-.29,2-1.4.99-1.58,1.62.1,1.42-.07,2.06-.3,1.3-.47,1.94-1,1.13-1.16,1.77c-.16.66-.08,1.38-.22,2.03s.1,1.41-.03,2.05-.32,1.32-.43,1.97.23,1.4.14,2.05-.3,1.32-.37,1.98-.73,1.3-.78,1.96.3,1.38.28,2.04.33,1.35.33,2.01.23,1.33.26,1.99.04,1.33.1,1.99.07,1.33.17,1.98-.64,1.49-.51,2.13c.14.67,1.04,1.15,1.21,1.78.18.66.02,1.4.23,2.02s.77,1.15,1.02,1.75-.27,1.63.02,2.22c.31.61,1.21.91,1.54,1.47s1.23.79,1.61,1.32.6,1.2,1.02,1.7.38,1.48.84,1.95,1.36.53,1.85.97c.52.45,1.21.61,1.73,1,.55.41.81,1.17,1.36,1.52.59.37,1.4.26,1.96.57.62.33.9,1.23,1.48,1.49.66.3,1.31.46,1.89.67.71.26,1.3.66,1.85.81,1.21.34.82.46,1.59-.18,0-.72.08-.97.15-1.61.09-.72.98-1.24,1.15-1.86.19-.7.53-1.21.8-1.8.3-.65.58-1.16.96-1.68.42-.59.92-.89,1.39-1.33.53-.5.65-1.34,1.18-1.68.64-.41,1.18-.88,1.72-1.1,1.13-.47,1.42-1.63,2.31-1.14.22.7-.14,2.07.11,2.68.29.68.49,1.4.81,1.97.37.64.55,1.47.96,1.98.46.58,1.09,1.12,1.59,1.55.55.47,1.75,0,2.34.32.63.34.99,1.31,1.64,1.5.69.2,1.5-.27,2.17-.21.71.06,1.34-.44,2.01-.49.73-.06,1.54.87,2.19.73.75-.16,1.49-.31,2.07-.5,1.18-.41,1.23-.28,1.67-1.22-.26-.63-1.05-1-1.22-1.62-.19-.66.34-1.49.23-2.12-.11-.67.09-1.34.07-1.98-.02-.68-.7-1.37-.64-2.01s.41-1.33.54-1.96.21-1.36.41-1.97.65-1.21.92-1.8c.28-.62.87-1.06,1.19-1.61.34-.6.16-1.51.53-2.03.4-.58.78-1.18,1.17-1.65.47-.57.98-1.07,1.38-1.48.85-.87.99-1.61,1.91-1.27.11.73.12,1.69.33,2.29.24.69.27,1.49.61,2.03.38.61.86,1.23,1.35,1.67.52.47,1.2.85,1.8,1.16s1.54-.22,2.19-.04,1.2.97,1.87,1.04c.71.07,1.41-.57,2.06-.58.75-.02,1.37-.32,1.96-.39,1.21-.15,1.41,1.1,1.99.27.55-.79-.26-1.06.05-1.97s1.24-.6,1.54-1.51.55-.83.85-1.74-.12-1.06.19-1.97.54-.83.85-1.75,0-1.02.3-1.94.17-.96.78-1.71c.36.64.88.9,1.25,1.44.41.61.13,1.69.56,2.19.48.56,1.11.98,1.6,1.41.55.49,1.31.68,1.86,1.02.62.38,1.24.71,1.87.92.68.23,1.33.83,1.99.9.7.07,1.39-1.03,2.06-1.1s1.46.39,2.11.2,1.4-.33,2-.61c.65-.31,1.21-.78,1.76-1.13.65-.4,1.11-.97,1.59-1.34.98-.76,2.07-.19,2.19-1.21-.44-.52-1.83-.9-2.19-1.48s-.37-1.39-.65-2.03-.99-1.14-1.19-1.8-.23-1.41-.37-2.08.05-1.42-.03-2.11-.26-1.37-.3-2.05-.44-1.39-.44-2.07,1.18-1.37,1.21-2.04-.13-1.39-.07-2.05c.06-.71.19-1.38.28-2.03.09-.73-.28-1.48-.17-2.1.13-.76.75-1.35.87-1.92.26-1.25-.86-1.27-.6-2.26.18-.67,1.01-1.15,1.21-1.78.2-.67.32-1.35.54-1.97.23-.66,1.15-1.02,1.4-1.62.27-.65-.08-1.52.21-2.11.3-.63.06-1.55.39-2.12.35-.61,1.53-.69,1.89-1.24.39-.58,1.05-.89,1.46-1.39.44-.54.51-1.34.98-1.8.5-.49,1.04-.88,1.55-1.28.55-.43,1.01-.94,1.57-1.27.59-.36,1.05-.99,1.66-1.25s1.3-.55,1.94-.74,1.38-.24,2.04-.34,1.41.56,2.08.54,1.36-.68,2.03-.63,1.26.87,1.91.98,1.35.07,1.99.23,1.58-.47,2.2-.26c.67.22,1.21.79,1.81,1.03.67.27,1.01,1.15,1.58,1.43.69.33.82.52,1.32.8.18.47.87.13,1.04.6s-.09-.64.44-.96c.53.32,1.03,1.69,1.2,1.23s-.17-.52.01-.99c.5-.28.48-1.26,1.17-1.59.56-.27,1.44,0,2.11-.27.6-.24,1.41.07,2.08-.16.62-.21,1.09-.92,1.77-1.09s1.34-.06,2.02-.17,1.24-1.04,1.92-1.09,1.38.71,2.06.73,1.25.5,1.93.6,1.29.03,1.95.22,1.41-.07,2.05.2,1.06.82,1.66,1.18c.56.34.91.93,1.46,1.36.51.4.87.91,1.37,1.4.46.46,1.91.05,2.36.59.41.51.7,1.19,1.1,1.77.37.54-.03,1.59.31,2.2.32.57,1.58.68,1.88,1.31.28.59-.35,1.62-.09,2.27.25.61.99,1.04,1.22,1.7.22.62-.06,1.42.15,2.09.19.63,1,1.1,1.18,1.78.27.99-.19.85.06,2.1.12.57.68,1.18.8,1.95.1.63.56,1.27.66,2,.08.65-.24,1.39-.18,2.1.06.66-.41,1.39-.37,2.09s.38,1.35.38,2.05-.49,1.35-.53,2.04.89,1.47.81,2.15-.24,1.4-.38,2.07-.25,1.42-.45,2.07-1.57.9-1.84,1.52-.07,1.47-.42,2.06-1.2,1.18-1.65,1.71c.12,1.03,1.39.05,2.37.81.47.37.47,1.57,1.12,1.98.55.34,1.62-.21,2.28.1.61.28.83,1.63,1.5,1.83s1.49-.3,2.19-.22,1.31-.13,2.01-.2c.66-.07,1.52.58,2.2.35.62-.21,1.2-.76,1.83-1.14.56-.34.58-1.4,1.13-1.88.49-.43,1.31-.51,1.78-1.07.42-.49,1.1-.85,1.51-1.46.37-.54.91-1.54,1.27-2.18.61.74-.19,1.25.12,2.16s-.23,1.09.07,2.01,1.11.64,1.42,1.55-.15,1.07.16,1.98,1.18.62,1.49,1.53-.22,1.09.09,2.01-.43,1.38.12,2.17c.58.84,1.28-.16,2.5,0,.59.07,1.28.44,2.03.46.65.01,1.39.15,2.09.08.67-.07,1.44-.09,2.11-.27s.88-1.47,1.49-1.79,1.2-.43,1.71-.9c.49-.44.54-1.09.93-1.7.34-.54,1.35-.73,1.59-1.42.21-.6.14-1.7.25-2.43.93-.34.39,1.22,1.24,2.1.39.41,1.65.18,2.12.76.39.47.21,1.47.61,2.04.36.52,1.29.73,1.63,1.33.32.55.67,1.17.95,1.79s.32,1.32.54,1.96-.48,1.47-.34,2.13.68,1.18.74,1.85.2,1.29.17,1.97.62,1.41.51,2.08c-.1.63-.52,1.29-.7,1.94-.17.62-1.39,1.38-1.65,2.02.44.94,1.49-.41,2.67,0,.57.2,1.19.37,1.95.53.64.14,1.23.59,1.96.64.67.05,1.34.1,2.05.04s1.38-.01,2.06-.21c.65-.19,1.42-.21,2.05-.55.59-.32,1.02-.95,1.58-1.42.5-.43,1.11-.82,1.57-1.4.41-.51.36-1.36.73-2,.33-.57.6-1.16.88-1.84.25-.61.66-1.46.88-2.17.89-.5,1.13.21,2.26.68.55.23.73,1.31,1.37,1.72.53.34.9.79,1.43,1.29.47.44,1.31.51,1.73,1.09.38.52.75,1.07,1.05,1.72.27.58,1.11,1.04,1.3,1.74.17.62-.03,1.41.06,2.12.08.64.33.86.33,1.58.77.64.38.52,1.6.18.55-.15,1.35.04,2.07-.22.58-.21,1.24-.48,1.89-.78.58-.26,1.24-.53,1.86-.86.57-.31,1.09-.82,1.68-1.19.55-.35,1.11-.78,1.66-1.19.52-.39.83-1.1,1.35-1.55s.49-1.38.97-1.87.96-.86,1.4-1.38,1.13-.77,1.53-1.33,1.1-.87,1.46-1.46.78-1.11,1.09-1.72.19-1.39.46-2.02-.15-1.45.07-2.1,1.37-.95,1.55-1.61-.41-1.45-.27-2.12,1.18-1.14,1.28-1.81.08-1.35.15-2.03-.82-1.39-.78-2.07.11-1.3.12-1.99.09-1.31.07-2,0-1.31-.04-2,.9-1.41.83-2.09-.94-1.24-1.03-1.91-.21-1.31-.33-1.99-.8-1.2-.93-1.87.51-1.46.37-2.13-.84-1.17-1-1.84Z"/><path class="cls-1" d="m155.54,45.51c-.99-.06-.02-1.02-.66-2.09-.28-.48-.93-.83-1.43-1.4-.39-.45-.71-1.04-1.27-1.51-.47-.39-.91-.93-1.51-1.31-.52-.33-1.13-.63-1.76-.94-.56-.28-1.19-.5-1.84-.75-.58-.23-1.22-.44-1.88-.63-.6-.18-1.3-.1-1.98-.26-.62-.14-1.24-.35-1.92-.46-.63-.11-1.28-.2-1.96-.28-.63-.07-1.29-.08-1.97-.13-.64-.05-1.28-.37-1.97-.39-.64-.02-1.31.08-1.99.07-.64,0-1.31-.1-1.99-.09-.65.02-1.3.23-1.98.27s-1.41-.18-2.08-.11c-.7.07-1.39.16-2.06.26-.7.1-1.38.29-2.03.41-.7.13-1.38.27-2.03.43-.69.17-1.3.56-1.93.76-.68.22-1.37.31-1.99.56-.67.26-1.27.6-1.86.9-.64.32-1.26.62-1.82.96-.62.38-1.16.8-1.68,1.2-.57.45-1.04.95-1.5,1.41-.52.52-.85,1.11-1.22,1.64-.43.6-1.08,1.02-1.33,1.6-.31.69-.55,1.39-.63,2.01-.1.77.27,1.45.49,2.02.26.68.69,1.08,1.33,1.35.55.23,1.2.55,1.99.38.61-.13,1.22-.48,1.89-.73.6-.22,1.28-.34,1.93-.61.59-.25,1.18-.6,1.82-.88.6-.26,1.28-.37,1.92-.64.6-.26,1.2-.56,1.83-.82s1.21-.55,1.85-.77,1.23-.53,1.88-.72,1.34-.12,2.01-.27,1.24-.61,1.92-.71,1.33-.17,2.01-.23,1.34.18,2.02.18,1.33-.16,2.02-.1,1.31.23,1.99.33,1.28.35,1.95.5,1.36.05,2.02.25,1.3.32,1.95.57,1.23.54,1.86.82,1.19.75,1.8,1.07c-.66.81-.88-.21-2.14-.19-.61.01-1.31.24-2.08.3-.66.05-1.35.17-2.07.28s-1.37.21-2.05.39-1.35.38-1.98.64c-.67.28-1.29.58-1.82.98-.58.43-1.21.82-1.55,1.42s-.62,1.29-.66,2.05.15,1.4.27,1.95c.16.73.37,1.38.72,1.83.42.54,1.08.79,1.67,1.02s1.24.31,1.89.33,1.31-.08,1.91-.2c.78-.15,1.52-.14,1.93-.32.34-.15.95-.53,1.73-.98.51-.29,1.04-.7,1.66-1.06.55-.31,1.03-.82,1.62-1.14s1.22-.54,1.8-.82c.62-.3,1.3-.41,1.88-.63.7-.27,1.33-.35,1.88-.43.85-.11,1.28-.09,1.49.51.17.46.21,1.05.13,1.84-.06.58.06,1.26-.05,1.93-.1.62-.17,1.26-.26,1.91s-.52,1.26-.55,1.89c-.04.68-.02,1.37.08,1.97.11.68.55,1.23.92,1.72s.85.86,1.55,1.06c.53.15,1.16.17,1.92.13s1.41.06,1.9-.13c.68-.27,1.21-.77,1.5-1.26.3-.52.34-1.22.34-1.88,0-.59-.06-1.24-.18-1.87s-.34-1.22-.48-1.8c-.16-.68-.2-1.31-.23-1.83-.04-.78.02-1.36.72-1.46.54-.08,1.2-.11,1.91,0,.57.08,1.16.37,1.82.55.57.16,1.16.39,1.78.63.57.22,1.24.25,1.84.52.56.25,1.09.62,1.67.92s1.11.59,1.66.92,1.02.74,1.56,1.08,1.05.7,1.57,1.07.99.78,1.49,1.17c.65.51,1.31.58,1.84.57.66,0,1.2-.29,1.61-.89.32-.47.36-1.13.47-1.86.09-.59.38-1.24.31-1.94-.06-.61-.31-1.24-.52-1.9-.19-.6-.23-1.3-.55-1.91-.29-.56-.69-1.12-1.1-1.66-.38-.5-1.08-.75-1.58-1.22-.45-.43-.83-.99-1.38-1.38-.51-.36-1.12-.6-1.72-.92-.56-.29-1.09-.68-1.73-.93-.59-.23-1.21-.44-1.86-.62-.61-.17-1.45-.21-2.12-.33-.38-.96.62-.68,2.09-.91.54-.09,1.24.13,2.08.13.6,0,1.3-.27,2.07-.19.62.06,1.29.31,2.03.44s1.44.27,1.99.08c.65-.23.98-.89,1.34-1.43s.57-1.09.63-1.77c.06-.62.28-1.33.1-1.99-.17-.61-.64-1.15-1.03-1.71-.36-.52-.79-1.01-1.34-1.43-.49-.37-1.03-.79-1.69-1.04-.57-.22-1.22-.49-1.92-.58-.61-.08-1.3-.06-2-.03-.61.03-1.25.3-1.94.44-.74.14-1.41.4-2.07.56-.74.18-1.47.22-2.11.41-.73.22-1.47.28-2.09.52-.73.28-1.26.85-1.84,1.14-.72.35-1.5.44-2.02.79-.72.47-1.27.97-1.69,1.38-1.02,1-.08,2.11-1.14,2.04Z"/></g></svg>