<?xml version="1.0" encoding="UTF-8"?><svg id="hair" xmlns="http://www.w3.org/2000/svg" viewBox="0 0 300 300"><defs><style>.cls-1{fill:#a8534a;}.cls-2{fill:#d66a5e;}</style></defs><g id="hair_13"><path class="cls-2" d="m75.98,39.97c.73-.78.15-.75.4-2.06.11-.6-.1-1.39.1-2.18.16-.63.24-1.38.47-2.11.21-.64.48-1.33.75-2.03.25-.64.52-1.33.83-2,.29-.63.62-1.3.96-1.94s1.22-.93,1.61-1.55.35-1.49.78-2.07,1.12-.93,1.6-1.48.74-1.26,1.26-1.77,1.59-.34,2.15-.81.93-1.07,1.52-1.49.87-1.26,1.5-1.63,1.55-.1,2.2-.42.96-1.34,1.64-1.6,1.53.05,2.22-.16,1.4-.16,2.11-.33,1.26-.87,1.98-.99,1.42-.14,2.14-.22,1.44.34,2.17.3,1.41,0,2.09-.03,1.4.07,2.09.06,1.41-.62,2.09-.61,1.42-.06,2.1-.04,1.41.14,2.1.18,1.38.45,2.07.5,1.43-.16,2.12-.09,1.45-.24,2.14-.16,1.41.15,2.09.24,1.3.91,1.98,1.01,1.49-.42,2.17-.31,1.34.51,2.03.62,1.35.45,2.03.56,1.35.47,2.03.58,1.51-.6,2.2-.51,1.3.88,1.99.96,1.39.3,2.08.36,1.41,0,2.11.04,1.41-.45,2.12-.44,1.4.51,2.1.49,1.38-.41,2.08-.46,1.4.08,2.11,0,1.4-.06,2.1-.18,1.3-.58,2-.73,1.36-.24,2.05-.43,1.43-.05,2.11-.26,1.24-.69,1.92-.93,1.25-.6,1.92-.86,1.3-.53,1.96-.75,1.43-.08,2.1-.27,1.17-1.06,1.85-1.23,1.51.37,2.2.23,1.38-.13,2.07-.23,1.28-1.01,1.97-1.08,1.44.35,2.14.3,1.4.16,2.1.13,1.39-.06,2.08-.06,1.38.16,2.08.19,1.43-.5,2.12-.45,1.34.67,2.03.75,1.49-.54,2.17-.43,1.34.54,2.02.67,1.34.42,2.02.57,1.43.08,2.09.26,1.17.98,1.83,1.19,1.35.35,1.99.58,1.64-.31,2.27-.04,1.15.94,1.76,1.23c.65.31,1.08.97,1.67,1.3.63.36,1.53.22,2.09.6.61.41.71,1.42,1.22,1.85.57.47,1.25.7,1.69,1.19.51.55,1.24.88,1.57,1.44.38.65.42,1.4.53,2.04-.11,1.1-.12.87-.35,2.19-.12.64-.38,1.36-.46,2.18-.07.7,0,1.45,0,2.22,0,.73-.27,1.5-.18,2.25s.65,1.38.86,2.1.22,1.51.58,2.16.63,1.44,1.16,1.98c.5.51,1.41.58,2.09.97.61.34,1.09,1.2,1.86,1.42.67.19,1.53-.4,2.25-.32s1.37.3,2.1.28c.69-.01,1.4-.02,2.13-.09.69-.06,1.38-.25,2.11-.34s1.48.39,2.2.28,1.27-1.04,1.98-1.14,1.43-.02,2.14-.12,1.41-.12,2.13-.2,1.42-.05,2.14-.09,1.42.29,2.14.28,1.43-.78,2.15-.75,1.39.54,2.11.63,1.37.37,2.08.51,1.32.46,2.02.65,1.47,0,2.15.25,1.23.7,1.89,1,1.41.32,2.05.67,1.05.99,1.66,1.38,1.14.79,1.74,1.22,1.56.29,2.13.75,1.02,1.19,1.56,1.69c.29.99-.03.88-.21,2.15-.08.58-.08,1.26-.16,2.03-.06.63-.65,1.27-.68,2.01-.03.65-.22,1.35-.22,2.06,0,.66.19,1.35.23,2.06s.4,1.32.49,2.02,0,1.38.14,2.06.34,1.32.53,1.99.81,1.15,1.06,1.8.4,1.27.71,1.89.11,1.5.49,2.08,1.13.87,1.56,1.41.52,1.37,1.02,1.86,1.37.48,1.94.9.72,1.17,1.33,1.53c.63.89.26.7.52,2.02.12.61.34,1.32.46,2.12.1.67.24,1.39.32,2.15.07.7-.07,1.43-.03,2.18s.05,1.43.03,2.16.24,1.47.16,2.19,0,1.5-.14,2.21-1.07,1.2-1.32,1.87-.08,1.55-.45,2.16-.75,1.29-1.27,1.8-1.06,1.08-1.72,1.44c-.6.34-1.35.61-2.09.82-.66.18-1.6-.39-2.38-.33-.96.34-.65.66-1.66,1.38-.48.34-.91.91-1.52,1.36-.51.38-1.1.73-1.67,1.16-.52.4-.92,1.01-1.46,1.43s-1.18.7-1.7,1.13c-.53.44-1.08.86-1.57,1.29-.53.47-.91,1.07-1.36,1.52-.54.53-1.26.82-1.63,1.28-.57.71-.89,1.34-.89,1.79-.71.82-.67.09-2,.41-.6.14-1.17,1.19-2.01,1.26-.66.06-1.43-.38-2.23-.41-.68-.02-1.34-.52-2.11-.63-.68-.1-1.57.61-2.31.42-.67-.17-1.1-1.26-1.82-1.51-.66-.23-1.48-.08-2.18-.4-.64-.29-1.12-.92-1.79-1.28-.62-.33-1.37-.46-2.01-.86-.59-.37-1.49-.36-2.11-.8-.57-.41-.68-1.48-1.27-1.95-.55-.44-1.39-.56-1.96-1.06-.53-.47-.64-1.25-1.19-1.76-.53-.89-.61-.51-1.07-1.74-.21-.55-.76-1.08-1.07-1.81-.25-.59-.62-1.17-.94-1.84-.29-.59-.51-1.24-.85-1.88-.32-.59-.13-1.5-.5-2.12-.35-.58-.69-1.21-1.09-1.8s-.92-1.06-1.35-1.62-.85-1.1-1.31-1.64-.71-1.25-1.21-1.75-1.45-.5-1.98-.96-.64-1.42-1.2-1.84-1.49-.31-2.08-.69-1.07-.9-1.7-1.23-1.35-.37-2-.63-1.13-.96-1.8-1.17-1.36-.34-2.06-.48-1.44.33-2.15.25-1.32-.92-2.04-.94-1.38.55-2.09.59-1.39-.12-2.1-.03-1.34.34-2.04.48-1.38.16-2.07.35-1.2.79-1.87,1.02-1.32.37-1.99.63-1.43.19-2.1.44-1.26.63-1.93.88-1.39.31-2.05.56-1.29.56-1.95.81-1.29.58-1.95.82-1.45.11-2.12.35-1.18.89-1.85,1.13-1.19.86-1.87,1.09-1.62-.39-2.29-.17-1.08,1.25-1.75,1.46-1.56-.26-2.24-.05-1.28.63-1.96.83-1.29.61-1.97.8-1.37.35-2.05.54-1.45.03-2.14.21-1.33.5-2.01.67-1.34.46-2.03.62-1.36.39-2.05.54-1.36.38-2.06.52-1.41.18-2.1.31-1.39.28-2.08.4-1.42.08-2.12.18-1.37.38-2.07.47-1.37.45-2.07.53-1.44-.11-2.14-.04-1.44-.31-2.15-.26-1.38.53-2.09.56-1.41.4-2.11.42-1.43-.32-2.13-.32-1.42.12-2.12.11-1.43.18-2.13.15-1.41-.24-2.12-.29-1.34-.92-2.04-.98-1.42.11-2.12.02c-.7-.09-1.45.17-2.15.07s-1.46.12-2.16,0-1.38-.36-2.07-.51-1.26-.82-1.95-.99-1.5.14-2.18-.05-1.23-.82-1.91-1.03-1.27-.63-1.94-.86-1.3-.52-1.96-.78-1.3-.51-1.95-.78-1.24-.65-1.88-.94-1.68.25-2.31-.07-1.2-.78-1.82-1.12-.87-1.33-1.48-1.69-1.27-.59-1.88-.96-1.4-.52-1.99-.92c-.95.5.27.92-.03,2.24-.14.59-.99,1.13-1.19,1.92-.17.64-.25,1.35-.46,2.09-.19.65-.12,1.42-.35,2.14-.21.66-.09,1.46-.33,2.16-.23.66-.78,1.23-1.04,1.91s-.47,1.34-.74,2.02-.86,1.18-1.16,1.84-.31,1.43-.63,2.08-.43,1.4-.77,2.03-.8,1.21-1.17,1.82-1.11,1-1.5,1.6-.97,1.06-1.39,1.64-.85,1.13-1.3,1.69-.29,1.65-.77,2.18-1.25.82-1.77,1.31-1.09.94-1.65,1.4-1.35.6-1.94,1.01c-.83.63-.72.41-1.68,1.3-.43.4-.6,1.25-1.16,1.8-.46.45-.7,1.18-1.21,1.72-.46.48-1.01.9-1.49,1.44-.45.5-.96.96-1.42,1.51s-1.32.71-1.76,1.27-.58,1.3-.98,1.88-.56,1.29-.94,1.88c-.37.59-.72,1.18-1.06,1.78s-1.05,1.02-1.35,1.65-.35,1.37-.6,2.02-.04,1.43-.22,2.09-.49,1.28-.59,1.96-.13,1.34-.12,2.03-.02,1.75.11,2.43c-.84.59-1.02-.51-2.19-1.04-.53-.24-1.03-.81-1.72-1.16-.57-.28-1.21-.52-1.86-.87-.57-.31-1.46-.15-2.07-.51-.57-.34-1.02-.93-1.62-1.31-.56-.36-1.2-.66-1.77-1.06s-.64-1.42-1.19-1.84-1.29-.55-1.82-1-1.33-.57-1.83-1.05-.39-1.53-.85-2.04-1.58-.45-2-.99-.58-1.3-.96-1.87-.47-1.31-.79-1.91-1.08-1.01-1.34-1.65-.37-1.35-.54-2.01-.06-1.38-.15-2.07.07-1.34.07-2.04c0-.69-.72-1.38-.73-2.08s.64-1.4.62-2.1-.2-1.39-.22-2.08.2-1.4.18-2.09.03-1.39,0-2.08-.86-1.38-.87-2.07.88-1.4.88-2.09-.95-1.42-.93-2.11,1.03-1.34,1.09-2.02.12-1.37.21-2.05.01-1.39.14-2.07-.29-1.51-.11-2.17.89-1.18,1.13-1.83.38-1.34.69-1.96.86-1.08,1.25-1.67.86-1.03,1.31-1.57.56-1.33,1.08-1.82,1.16-.75,1.72-1.18c.54-.41.8-1.28,1.41-1.65.57-.35,1.25-.63,1.89-.95.6-.3,1.43-.17,2.1-.44.62-.26,1.22-.63,1.9-.86.72-.24,1.37-.52,1.97-.83.67-.34,1.05-1,1.59-1.42.58-.45,1.5-.5,1.96-1.02s.54-1.38.89-2,.61-1.25.86-1.92.3-1.35.47-2.05.46-1.33.58-2.04.61-1.35.69-2.06-.36-1.46-.29-2.18.23-1.4.29-2.12.69-1.36.77-2.07-.55-1.5-.45-2.21.02-1.47.16-2.16,1.17-1.19,1.36-1.87.05-1.47.32-2.13.86-1.14,1.21-1.77.09-1.64.53-2.22,1.01-1.06,1.53-1.57c.49-.48,1.17-.84,1.76-1.28.55-.41,1.12-.88,1.76-1.25.59-.34,1.21-.75,1.89-1.06.62-.28,1.31-.54,2.01-.78.65-.23,1.41-.22,2.12-.41.66-.18,1.29-.66,2.02-.81.67-.14,1.48.28,2.21.17.68-.11,1.34-.55,2.07-.64.69-.08,1.38.02,2.11-.04Z"/><path class="cls-1" d="m80.89,71.19c.06,1.1,0,.77,1.21,1.51.53.33,1.37.37,2.1.8.58.33,1.13.88,1.83,1.26.61.33,1.52.17,2.22.52.63.32,1.34.53,2.03.86.64.31,1.28.65,1.98.96.66.29,1.12,1.07,1.81,1.36s1.33.6,2.03.87,1.5.16,2.2.41,1.24.89,1.95,1.12,1.49.16,2.2.37,1.34.67,2.06.86,1.41.44,2.13.61,1.45.25,2.18.39,1.5-.05,2.23.06,1.44.3,2.17.39,1.46.13,2.2.19,1.48-.18,2.22-.15,1.45.19,2.19.2,1.46.11,2.2.08,1.46-.08,2.2-.14,1.48.02,2.21-.08,1.47-.14,2.2-.27,1.4-.46,2.13-.63,1.35-.6,2.07-.8,1.56.11,2.27-.12,1.38-.52,2.07-.79,1.22-1.02,1.92-1.29,1.7.2,2.39-.07,1.25-.96,1.94-1.23,1.29-.84,1.98-1.11,1.74.29,2.43.02,1.22-1.03,1.91-1.3,1.27-.92,1.96-1.18,1.59-.08,2.28-.35,1.44-.49,2.12-.76,1.48-.38,2.17-.64,1.19-1.15,1.88-1.4,1.64.07,2.33-.18,1.19-1.17,1.88-1.41,1.42-.57,2.11-.8c.73-.25,1.43-.53,2.13-.75.74-.23,1.72.42,2.42.21.74-.22,1.22-1.28,1.93-1.47.75-.2,1.66.37,2.37.21.75-.17,1.45-.44,2.17-.57.76-.14,1.47-.4,2.19-.49.77-.1,1.48-.69,2.2-.73.77-.04,1.53.86,2.26.88s1.54-.52,2.27-.42,1.37.34,2.09.52c.66-.95-.38-.67-1.16-1.83-.37-.55-.92-.97-1.57-1.56-.52-.47-.94-1.06-1.67-1.48-.61-.35-1.25-.72-2.04-.99-.67-.23-1.39-.43-2.2-.58-.71-.13-1.45-.22-2.27-.28-.72-.05-1.48-.2-2.3-.18-.71.02-1.47.05-2.26.1-.72.05-1.5-.17-2.29-.1-.73.07-1.47.27-2.24.37-.73.09-1.54-.17-2.3-.06s-1.4.78-2.16.9-1.54-.1-2.3.03-1.52.08-2.27.23-1.35.92-2.1,1.07-1.58-.14-2.32.03-1.39.69-2.13.87-1.6-.15-2.33.04-1.41.61-2.14.82-1.24,1.16-1.97,1.37-1.6-.06-2.32.17-1.39.64-2.1.88-1.39.63-2.09.89-1.44.48-2.13.76-1.37.66-2.05.95-1.58.2-2.25.52c-.7.33-1.14,1.12-1.79,1.47-.69.37-1.28.77-1.9,1.15-.93.62-.81.36-2.09.96-.57.27-1.37.36-2.18.65-.65.23-1.26.89-2.04,1.09-.68.17-1.52-.06-2.31.06-.7.11-1.47.03-2.25.09-.72.05-1.46.02-2.24.01-.72,0-1.49.26-2.26.19-.72-.06-1.42-.54-2.18-.66-.72-.11-1.57.34-2.33.16-.71-.16-1.47-.34-2.21-.57s-1.41-.4-2.09-.59-1.41-.39-2.09-.58-1.2-1.17-1.88-1.35-1.63.46-2.32.29c-.72-.18-1.26-1.07-1.94-1.22-.73-.17-1.39-.6-2.08-.74-.73-.15-1.63.74-2.32.63-.74-.12-1.37-.71-2.07-.79-.75-.09-1.46-.34-2.15-.37-.75-.04-1.5-.36-2.19-.34-.76.02-1.47.47-2.16.57-.75.11-1.3.78-1.96.99-.71.23-1.03.07-1.64.43Z"/><path class="cls-1" d="m86.21,58.3c1.14-.07.69-.86,1.69-1.92.44-.47,1.03-.93,1.68-1.52.51-.47.84-1.25,1.48-1.77.56-.45,1.44-.54,2.1-1,.6-.42.92-1.29,1.6-1.71.62-.39,1.48-.43,2.17-.81.65-.36,1.16-1.02,1.87-1.36.67-.32,1.27-.89,1.99-1.19s1.56-.16,2.3-.42,1.49-.27,2.24-.49,1.38-.67,2.14-.85,1.47-.33,2.24-.47,1.42-.77,2.19-.87,1.53-.07,2.31-.14,1.53,0,2.31-.04,1.52.56,2.3.56,1.52-.34,2.3-.3,1.52.08,2.3.15,1.53-.1,2.26-.03c.77.07,1.53.04,2.25.12.77.08,1.5.31,2.22.39.77.09,1.47.58,2.18.67.77.09,1.6-.47,2.31-.38.77.1,1.43.83,2.14.92.77.11,1.51.25,2.22.35.77.11,1.5.31,2.21.41.77.11,1.62-.58,2.33-.49.77.1,1.48.37,2.2.45.76.09,1.48.37,2.21.43s1.51-.29,2.25-.26,1.46.18,2.21.16,1.48.29,2.24.24c.72-.05,1.5.15,2.26.06.71-.09,1.36-.77,2.13-.9.7-.12,1.52.21,2.29.05.7-.15,1.28-.94,2.04-1.12.7-.16,1.52.09,2.28-.1.7-.18,1.54.09,2.29-.12.7-.19,1.68-.63,2.42-.84.52-.97-.48-1.19-1.34-2.16-.41-.46-.94-1.02-1.75-1.36-.58-.25-1.29-.68-2.14-.77-.65-.07-1.41.38-2.24.44-.67.04-1.38.4-2.18.47-.69.05-1.49-.78-2.27-.73-.7.05-1.41.51-2.18.54-.71.04-1.44.29-2.21.31-.71.02-1.46.09-2.21.09s-1.44-.73-2.2-.75-1.47.33-2.22.29-1.47.07-2.22,0-1.47-.06-2.21-.15-1.39-.61-2.13-.73-1.4-.4-2.13-.55-1.62.5-2.34.32-1.22-1.12-1.94-1.32-1.49-.12-2.2-.36-1.5-.2-2.2-.46-1.42-.44-2.11-.74-1.24-.83-1.94-1.04-1.44-.25-2.16-.38-1.41-.53-2.14-.59-1.49-.38-2.22-.36-1.46.49-2.19.57-1.52-.14-2.24-.01-1.49.17-2.21.35-1.23,1.1-1.93,1.31-1.59-.1-2.28.15-1.3.75-1.97,1.03-1.36.59-2.02.9-1.34.63-1.98.97-1.3.72-1.92,1.08c-.65.38-1.08,1.1-1.68,1.48-.65.41-1.36.65-1.93,1.05-.64.44-1.28.82-1.82,1.23-.65.49-1.19,1-1.69,1.41-.72.6-1.14.84-1.49,1.21-.79-.82-.75-.73-.47-2.15.12-.62,1.01-1.18,1.3-2,.23-.64.69-1.22,1.07-1.96.31-.62.24-1.51.68-2.19.38-.6,1.11-.99,1.6-1.62.44-.56.9-1.13,1.44-1.72.48-.53.86-1.2,1.42-1.75.52-.5,1.31-.73,1.91-1.24.55-.47.54-1.69,1.16-2.17.58-.45,1.51-.46,2.15-.91.95-.57.72-.39,2.03-.86.59-.21,1.28-.51,2.1-.73.66-.18,1.47.12,2.26-.03.69-.13,1.37-.38,2.14-.47.71-.08,1.43-.03,2.19-.06.72-.03,1.43-.05,2.19-.02.72.03,1.47-.3,2.23-.21s1.41.37,2.16.52,1.39.38,2.13.58,1.34.54,2.05.8,1.17-.13,1.87.18c.65-.93.13-.67-.79-1.74-.42-.49-1.03-.98-1.7-1.54-.53-.44-1.32-.61-2.03-1.04-.6-.36-1.12-.98-1.87-1.3-.65-.28-1.32-.71-2.09-.94-.69-.2-1.42-.51-2.21-.66-.71-.13-1.53.24-2.32.17-.72-.06-1.47-.05-2.26-.06-.73,0-1.45.29-2.24.34-.73.04-1.52-.48-2.31-.39-.73.09-1.52,0-2.29.13-.72.12-1.45.44-2.21.61-.72.16-1.36.74-2.11.94-.71.19-1.5.17-2.25.4-1.06.39-.83.23-2.06.95-.55.33-1.23.7-1.94,1.19-.57.39-.85,1.29-1.49,1.79-.56.44-1.55.43-2.14.96-.54.48-.61,1.5-1.17,2.06-.52.52-1.18.9-1.7,1.49-.49.55-1.24.91-1.71,1.52s-.71,1.33-1.14,1.97-1.22,1.02-1.6,1.68-.84,1.28-1.19,1.97.18,1.73-.12,2.44-1.26,1.12-1.51,1.86-.34,1.48-.54,2.23-.3,1.29-.45,2.05c-1.02.64-.89-.1-2.3.25-.67.16-1.49.44-2.3.84-.66.32-1.34.83-2.03,1.36-.59.45-1.26.96-1.84,1.6-.5.55-1.22,1.08-1.69,1.8-.41.63-.49,1.67-.86,2.44.87.74.77-.84,2.07-1.27.63-.21,1.47-.16,2.29-.34.7-.16,1.46-.36,2.25-.44.74-.08,1.53-.29,2.3-.27s1.44.71,2.2.86,1.39.4,2.09.71,1.23.69,1.85,1.16c.58.44,1.38,1.05,1.89,1.67Z"/><path class="cls-1" d="m214.22,63.26c.27,1.09.97.03,2.33.39.62.16,1.34.44,2.15.7.66.22,1.36.51,2.11.8.67.26,1.43.41,2.14.74.66.3,1.23.86,1.91,1.23s1.45.47,2.1.88,1.08,1.08,1.69,1.53,1.31.75,1.89,1.25,1.11,1.02,1.63,1.57.85,1.24,1.32,1.84,1.07,1.07,1.47,1.72.52,1.41.85,2.1.93,1.23,1.18,1.96.11,1.51.27,2.27c.15.72.49,1.42.57,2.19.08.73.04,1.49.05,2.26,0,.73-.04,1.49-.1,2.27.28,1.23.49,1.09,1.37,2.13.52.61,1.24,1.12,2.01,1.5.72.35,1.54.69,2.45.46.63-.16,1.2-.76,1.71-1.53.37-.56.88-1.2,1.15-2.01.23-.67.07-1.51.21-2.31.13-.72.44-1.45.48-2.24.04-.74.05-1.51,0-2.3s-.27-1.49-.38-2.27-.19-1.51-.39-2.26-.32-1.5-.6-2.22-.68-1.37-1.04-2.05-.68-1.3-1.12-1.93c.53-1.03.87-.35,2.21-.53.69-.09,1.49-.26,2.33-.23.75.03,1.55.18,2.32.4s1.53.46,2.18.92c.6.43.88,1.23,1.34,1.93.74,1.15,1.65,1.17,1.89.52.16-.44.13-1.29-.05-2.24-.12-.62-.58-1.25-.88-2.01-.25-.62-.35-1.38-.74-2.05-.34-.6-.74-1.22-1.2-1.83-.42-.55-.98-1.04-1.5-1.59-.48-.5-.98-1.04-1.56-1.52-.54-.44-1.14-.87-1.77-1.28-.59-.38-1.17-.84-1.84-1.18-.62-.32-1.4-.37-2.1-.65-.65-.26-1.36-.39-2.08-.61s-1.39-.54-2.1-.7-1.43-.48-2.15-.59-1.51.07-2.24,0-1.48-.18-2.21-.2-1.5-.29-2.23-.26-1.49.32-2.21.39-1.46.34-2.18.46c-.75.12-1.47.28-2.17.44-.75.17-1.47.31-2.15.51-.75.21-1.56.13-2.22.36-.76.26-1.4.69-2.03.95-.78.32-1.38.79-1.95,1.06-1.26.61-2.41-.18-2.14.9Z"/></g></svg>