<?xml version="1.0" encoding="UTF-8"?><svg id="hair" xmlns="http://www.w3.org/2000/svg" viewBox="0 0 300 300"><defs><style>.cls-1{fill:#fff;}.cls-2{fill:#d66a5e;}</style></defs><g id="hair_17"><path class="cls-2" d="m137.61,26.64c-1.53.19-3.22-.54-4.81-.31s-3.15.16-4.73.42-2.99,1.12-4.56,1.43-2.92,1.29-4.47,1.65-3.41-.65-4.94-.22-2.54,2.48-4.05,2.97-2.86,1.21-4.34,1.77-3.52-.36-4.98.28-2.64,1.8-4.06,2.52-2.47,2.01-3.84,2.81-2.7,1.54-4.02,2.42-2.97,1.23-4.23,2.19-1.88,2.63-3.08,3.68-2.96,1.39-4.09,2.52-2.21,2.23-3.28,3.43c-1.03,1.16-1.93,2.48-2.92,3.74-.96,1.22-1,3.12-1.91,4.43-.88,1.27-1.71,2.55-2.55,3.92s-1.98,2.42-2.74,3.83-1.05,2.93-1.74,4.38c-.67,1.39-2.2,2.41-2.82,3.89s-1.06,2.94-1.62,4.44-.24,3.2-.74,4.72-1.63,2.74-2.07,4.29c-.42,1.49-1.17,2.92-1.55,4.48-.37,1.5-.44,3.1-.78,4.67s-.13,3.15-.42,4.73c-.28,1.52-1.04,2.98-1.29,4.57-.24,1.53-1.58,2.95-1.78,4.54s-.03,3.56-.19,5.15c1.03,2.02,2.29-.29,5.07.65,1.2.4,2.48,1.19,4.19,1.59,1.33.31,2.56,1.99,4.2,2.24,1.39.21,2.99-.06,4.6.08,1.42.12,2.95.45,4.55.49,1.44.03,2.97-.77,4.55-.82,1.45-.04,2.38-.45,3.95-.58,1.34-2.07.53-1.53.48-4.54-.03-1.42-.76-3.12-.65-4.95.09-1.53.93-3.13,1.18-4.84.23-1.57,1.33-2.98,1.74-4.62.38-1.56.7-3.08,1.28-4.65s.89-3.08,1.67-4.55,1.61-3.68,2.61-5.02c1.95,1.32-.22,2.5-.51,5.34-.14,1.36-.28,2.94-.4,4.67-.11,1.48-1.06,3.02-1.12,4.65-.06,1.54.16,3.14.17,4.72.01,1.59.05,3.18.16,4.72.12,1.63.91,3.12,1.17,4.58.3,1.68-.36,4.08.17,5.39,1.86,1.45,2.27-.6,5.27-.05,1.3.24,2.97-.26,4.77.03,1.41.23,2.77,1.71,4.46,1.96,1.46.21,3,.58,4.66.79,1.49.19,3.08.19,4.71.37,1.5.17,3.11-.09,4.74.07,1.52.15,3,1.26,4.61,1.39,1.53.13,3.13-.08,4.74.04s3.12-.02,4.73.07,3.14-.44,4.74-.37,3.09,1.05,4.68,1.09,3.13-.19,4.73-.17,3.13-.33,4.72-.33c1.55,0,3.14.79,4.73.77s3.1-1.5,4.68-1.55c1.56-.05,3.1-.35,4.69-.42s3.22,1.66,4.8,1.57c1.56-.09,3.13-.36,4.71-.48s3.01-1.59,4.59-1.73,3.24.92,4.82.75c1.55-.17,2.93-1.96,4.5-2.15s3.13-.18,4.69-.41,3.28.72,4.84.47c1.55-.25,3.12-.42,4.68-.7s2.93-1.43,4.48-1.74,3.17-.16,4.71-.5c1.53-.33,3.07-.69,4.61-1.05s2.73-1.11,4.26-1.5c1.67-1.91.52-1.62.79-4.76.12-1.44,1.37-3.13,1.36-5.05,0-1.56-.38-3.31-.55-5.11-.14-1.6-1.45-3.14-1.76-4.88-.29-1.6.47-3.51,0-5.21-.43-1.58-1.1-2.4-1.71-4.03,1.78-1.44.48.68,2.11,3.08.72,1.06,1.38,2.34,2.12,3.95.57,1.25,1.4,2.51,1.89,4.12.41,1.35.55,2.84.84,4.46.25,1.4,1.65,2.78,1.78,4.39.12,1.44-.1,2.45-.1,4.07,1.72,1.48,1.29.32,4-.04,1.31-.17,2.74-.83,4.38-1.17,1.41-.29,2.87-.59,4.38-1.03,1.43-.42,3.32.29,4.73-.3s2.31-2.24,3.59-3.03c1.31-.81,3.23-1.32,4.27-2.37.62-2.34-.36-2-1.15-4.98-.35-1.32-1.15-2.8-1.7-4.56-.44-1.41-.39-3.16-.97-4.8-.51-1.44-1.45-2.83-2.08-4.41-.57-1.44-.64-3.19-1.32-4.72-.63-1.43-1.68-2.76-2.41-4.25-.69-1.41-2.45-2.32-3.24-3.78s-1.59-2.75-2.43-4.16-.65-3.37-1.55-4.74-1.73-2.73-2.69-4.06c-.93-1.29-2.67-2.02-3.68-3.3-.99-1.25-2.03-2.47-3.1-3.7-1.05-1.2-1.97-2.54-3.1-3.72s-2.27-2.27-3.46-3.38-2.39-2.14-3.64-3.19c-1.23-1.03-3-1.34-4.3-2.32s-2.5-1.94-3.86-2.85-2.32-2.3-3.72-3.12-2.97-1.21-4.43-1.96-2.23-2.81-3.72-3.47-3.47-.05-5-.63-2.69-2.05-4.25-2.55-3.08-1.01-4.67-1.43-3.22-.44-4.82-.77-3.2-.36-4.82-.61-3.24.14-4.87-.04-3.18-.07-4.82-.17-3.14-1.26-4.79-1.29-3.2.95-4.84.98-3.25-1.18-4.89-1.09-3.11,1.4-4.75,1.55-3.19.15-4.82.36Z"/><path class="cls-1" d="m168.4,44.35s-2.28-11.08-26.14-9.75-25.31,17.24-18.38,15.71,18-11.36,34.64-2.67c0,0-13.82-.85-14.11,5.91-.29,6.77,6.36,5.25,8.13,4.46s11.29-7.23,12.3-4.46-4.05,12.97,3.57,12.53.41-9.75,3.57-10.2,9.8,2.38,15.35,6.73c5.55,4.35,7.77-12.14-8.2-14.98,0,0,1.5-1.53,8.07-.41s5.68-11.74-5.85-9.52c-11.53,2.22-12.95,6.65-12.95,6.65Z"/></g></svg>