<?xml version="1.0" encoding="UTF-8"?><svg id="hair" xmlns="http://www.w3.org/2000/svg" viewBox="0 0 300 300"><defs><style>.cls-1{fill:#fff;}.cls-2{fill:#d66a5e;}</style></defs><g id="hair_2"><path class="cls-2" d="m283.87,198.05c.31-.41.87-.73,1.14-1.3.23-.48-.17-1.25.03-1.83.18-.51,1.14-.81,1.29-1.4.14-.53.14-1.13.26-1.72.12-.54-.03-1.15.07-1.74.09-.54.3-1.1.38-1.68.08-.55.4-1.09.47-1.68.06-.55-.14-1.16-.09-1.74s-.33-1.16-.29-1.74.4-1.11.43-1.69.32-1.13.33-1.71-.6-1.15-.59-1.73.3-1.13.29-1.71-.3-1.13-.31-1.71.57-1.15.56-1.73-.06-1.14-.08-1.72-.46-1.12-.49-1.69.25-1.15.22-1.73-.12-1.13-.16-1.71.02-1.15-.02-1.72.08-1.15.02-1.73-.36-1.11-.42-1.68-.08-1.14-.15-1.71-.27-1.12-.34-1.69-.57-1.07-.65-1.64.25-1.18.17-1.75-.2-1.12-.28-1.69.29-1.2.2-1.77-.96-1-1.06-1.56.54-1.26.43-1.82-.77-1.02-.88-1.58-.29-1.1-.41-1.67-.07-1.15-.19-1.71-.13-1.14-.25-1.7-.68-1.02-.81-1.58-.17-1.13-.31-1.69-.08-1.15-.22-1.71-.58-1.03-.73-1.59.35-1.27.2-1.83-.15-1.15-.3-1.7-.61-1.02-.76-1.57-.09-1.17-.25-1.72-.29-1.11-.46-1.66-.44-1.06-.61-1.61-.94-.9-1.11-1.45-.07-1.18-.26-1.72-.52-1.03-.71-1.57-.04-1.2-.24-1.74-.47-1.05-.66-1.59-.06-1.2-.26-1.74-1.13-.79-1.34-1.33.27-1.34.06-1.87-.79-.92-1.01-1.45-.67-.96-.89-1.49-.51-1.02-.74-1.55-.52-1.02-.75-1.54-.17-1.18-.41-1.7-.68-.94-.92-1.46-.24-1.16-.49-1.67-.1-1.23-.36-1.74-.77-.9-1.03-1.41-.67-.94-.94-1.45-.62-.96-.9-1.47-.31-1.14-.59-1.64-.66-.94-.94-1.44-.59-.98-.88-1.48-.48-1.05-.78-1.54-1.11-.66-1.41-1.15-.09-1.3-.4-1.78-.86-.8-1.18-1.28-.36-1.14-.68-1.61-1.05-.67-1.37-1.14-.4-1.11-.74-1.58-1.03-.67-1.37-1.13-.45-1.09-.79-1.55-.23-1.27-.58-1.72-.9-.75-1.26-1.2-.69-.92-1.06-1.36-1.05-.62-1.42-1.06-.81-.81-1.19-1.24-.89-.73-1.27-1.16-.26-1.31-.65-1.73-1.24-.41-1.63-.82-.62-.98-1.02-1.39-.67-.95-1.08-1.35-1-.61-1.41-1.01-.52-1.11-.94-1.5-1.08-.52-1.5-.91-.59-1.06-1.02-1.44-.81-.82-1.25-1.19-.96-.64-1.4-1.01-.99-.59-1.44-.95-.86-.76-1.32-1.11-.8-.85-1.26-1.19-1.37-.06-1.83-.39-.81-.82-1.28-1.15-.6-1.16-1.07-1.48-1.25-.19-1.73-.5-.64-1.14-1.12-1.44-1.1-.4-1.6-.69-1.17-.27-1.67-.55-1.03-.49-1.53-.77-.77-.99-1.28-1.26-.97-.63-1.48-.89-1.11-.35-1.62-.6-1.26-.02-1.78-.26-.78-1.06-1.3-1.29-1.31.16-1.84-.07-.75-1.19-1.28-1.4-1.14-.24-1.68-.44-1.04-.49-1.58-.69-1.3.23-1.84.04-1.1-.31-1.64-.49-1.04-.47-1.59-.64-.94-.84-1.49-1-1.27.29-1.82.14-1.07-.39-1.63-.53-1.16-.05-1.72-.18-.92-1.1-1.48-1.23-1.1-.36-1.67-.48-1.16.03-1.73-.07c-.83-.22-.61-.02-1.69-.33-.46-.13-.91-.69-1.55-.86-.5-.13-1.23.39-1.84.24-.52-.13-1.03-.46-1.63-.59-.53-.12-1.09-.24-1.68-.36-.54-.11-1.15,0-1.73-.1-.54-.1-1.07-.44-1.65-.54-.55-.1-1.18.21-1.76.12-.55-.09-1.01-.91-1.59-1s-1.23.56-1.81.48-1.03-.92-1.61-1-1.13-.15-1.72-.21-1.17.2-1.75.15-1.18.37-1.76.32-1.07-.97-1.65-1.01-1.16.17-1.74.13-1.15.13-1.73.1-1.15.12-1.73.1-1.13-.67-1.71-.68-1.16.9-1.74.9-1.14-.12-1.72-.12-1.15-.75-1.73-.74-1.15.02-1.73.03-1.12.93-1.69.96-1.15-.12-1.72-.09-1.14.07-1.72.1-1.18-.5-1.76-.46-1.12.43-1.69.48-1.18-.39-1.76-.33-1.1.51-1.67.57-1.15.05-1.72.12-1.19-.27-1.76-.2-1.01,1.03-1.58,1.12-1.24-.54-1.81-.45-1,.95-1.57,1.05-1.17-.06-1.74.04-1.14.12-1.71.23-1.11.3-1.67.42-1.23-.25-1.79-.13-1.16.09-1.72.22-1.02.69-1.58.83-1.21-.1-1.77.05-1.03.61-1.59.76-1,.68-1.56.84-1.08.36-1.64.53-1.05.46-1.6.63-1.2,0-1.75.17-1,.61-1.55.8-1.08.39-1.62.58-1.33-.29-1.87-.09-.94.76-1.48.97-1.15.22-1.68.43-1.1.34-1.64.56-1.09.39-1.62.62-.99.61-1.52.85-1.14.28-1.67.52-1,.59-1.52.84-1.1.36-1.61.61-.97.62-1.48.89-.69,1.14-1.19,1.41-1.1.35-1.6.63-1.1.37-1.59.66-.93.66-1.42.96-.79.89-1.27,1.19-1.34,0-1.82.32-.8.86-1.28,1.17-.66,1.06-1.13,1.38-1.18.28-1.65.61-.88.72-1.35,1.05-1.09.43-1.55.77-.79.85-1.24,1.19-.8.82-1.25,1.18-1.11.43-1.56.79-.55,1.13-.99,1.49-1.07.49-1.5.86-1.16.39-1.59.77-.44,1.22-.87,1.6-.95.64-1.38,1.02-.68.94-1.1,1.33-1.2.38-1.62.77-.88.73-1.29,1.13-.35,1.28-.75,1.68-.84.76-1.24,1.17-.8.8-1.2,1.21-1.17.45-1.57.87-.54,1.06-.92,1.48-1.09.55-1.47.97-.27,1.29-.65,1.72-.75.86-1.12,1.29-1.15.51-1.52.95-.69.91-1.06,1.35-.42,1.13-.79,1.57-1.4.33-1.76.78-.21,1.3-.56,1.74-1.15.55-1.5,1-.5,1.05-.85,1.51-.66.93-1,1.39-.24,1.24-.57,1.7-1.22.53-1.55.99-.72.89-1.05,1.36-.28,1.19-.61,1.66-1.11.63-1.43,1.1-.21,1.23-.52,1.71-.78.85-1.09,1.33-.71.9-1.02,1.38-.65.94-.95,1.43-.7.92-.99,1.4-.27,1.17-.56,1.66-.69.92-.98,1.41-.65.95-.92,1.45-.43,1.07-.7,1.57-.6.97-.87,1.48-.32,1.12-.58,1.63-.3,1.13-.56,1.64-.78.88-1.04,1.39-.83.87-1.07,1.38-.3,1.12-.54,1.64-.76.91-1,1.43-.45,1.05-.68,1.57-.11,1.2-.33,1.72-.29,1.12-.51,1.64-.22,1.14-.44,1.67-.46,1.04-.66,1.57-.63.98-.83,1.51-.38,1.07-.58,1.61-.2,1.14-.39,1.68-1.02.86-1.2,1.4.4,1.34.23,1.88-1.2.82-1.37,1.36.51,1.35.35,1.89-.31,1.09-.46,1.64-.94.92-1.08,1.48,0,1.18-.14,1.73-.82.97-.96,1.53.11,1.2-.02,1.76-.24,1.12-.36,1.67.23,1.21.12,1.77-.12,1.13-.22,1.69-.43,1.08-.53,1.64-.61,1.06-.69,1.62-.3,1.11-.38,1.68.3,1.19.23,1.76-.21,1.12-.27,1.69-.44,1.1-.49,1.67.56,1.19.51,1.76-.32,1.12-.36,1.69-.45,1.12-.48,1.69-.36,1.13-.38,1.7.07,1.15.06,1.72.1,1.15.1,1.72.67,1.13.68,1.7-.36,1.15-.34,1.72-.33,1.16-.3,1.73.4,1.12.44,1.69-.01,1.15.04,1.72.08,1.14.14,1.71.4,1.1.47,1.67-.34,1.2-.26,1.76.65,1.06.74,1.62-.35,1.22-.24,1.78,1.09.95,1.2,1.51.21,1.11.34,1.67.02,1.16.16,1.71.51,1.04.66,1.59-.35,1.28-.19,1.83.11,1.16.28,1.71.52,1.04.7,1.58.35,1.21.54,1.75c.56.71.74.37,1.72.9.46.25,1.09.36,1.72.63.51.22.96.8,1.57.99.55.18,1.34-.43,1.96-.3.57.13,1.03,1.04,1.65,1.11.58.07,1.15-.37,1.77-.37.49-.68.26-.64.01-1.64-.11-.46-.79-.88-.92-1.49-.11-.51-.46-1.02-.57-1.6-.1-.53-.04-1.12-.12-1.68s-.24-1.1-.3-1.66-.1-1.13-.13-1.69.44-1.14.44-1.7-.56-1.18-.51-1.72c.06-.58.78-.63.9-1.15.7-.24.74-.35,1.18.47.19.36.21.98.36,1.54.11.42.1.96.14,1.52.04.48-.55,1.16-.46,1.86.07.55.26,1.15.36,1.77.09.57.31,1.16.42,1.76s.77,1.07.91,1.64c.15.61.39,1.14.56,1.68.19.63-.08,1.37.14,1.85.34.73.83,1.18,1.22,1.33.32.12,1-.12,1.79.08.49.12.87,1.1,1.51,1.24.53.11,1.28-.63,1.89-.51.54.11,1.04.64,1.64.75.55.1,1.19-.17,1.79-.07.56.09,1.08.55,1.67.63s1.09.6,1.68.68,1.16.15,1.75.22,1.19-.1,1.78-.04,1.17-.01,1.76.03,1.2-.47,1.79-.44,1.15.38,1.74.4c.51.02,1.04,0,1.62-.06.52-.06.99-.42,1.55-.54.52-.11,1.23.43,1.76.27s.9-.75,1.41-.95,1-.42,1.49-.65,1.05-.36,1.52-.64.78-.8,1.21-1.12c.45-.34.72-.81,1.09-1.18.41-.4.71-.76,1-1.19.32-.47.43-.88.59-1.38s.35-.89.29-1.44.44-1.16.39-1.74c-.05-.54,0-1.12-.06-1.7-.05-.55-.25-1.1-.3-1.68s-.17-1.11-.22-1.68-.19-1.11-.23-1.69-.22-1.11-.27-1.68.26-1.14.23-1.72-.15-1.12-.18-1.69-.03-1.12-.06-1.7-.69-1.1-.71-1.67.9-1.16.88-1.73-.46-1.11-.47-1.69-.46-1.12-.47-1.7-.04-1.13-.04-1.71.17-1.13.17-1.71.22-1.13.23-1.7.53-1.11.55-1.68-.1-1.13-.08-1.7-.22-1.14-.19-1.71-.13-1.14-.1-1.71.44-1.1.48-1.67-.54-1.18-.49-1.75.24-1.12.3-1.69.62-1.07.68-1.64.09-1.13.17-1.69-.46-1.21-.38-1.77.16-1.13.25-1.69,1.07-.97,1.17-1.53-.03-1.15.08-1.71.13-1.13.25-1.68.16-1.12.28-1.68.61-1.02.74-1.57-.46-1.28-.32-1.83.12-1.15.27-1.7.79-.96.95-1.51.62-1,.78-1.54.16-1.14.34-1.68.36-1.07.55-1.61.34-1.08.54-1.62.15-1.16.36-1.69.52-1.02.74-1.54.48-1.03.71-1.55.61-.97.85-1.48.57-.98.82-1.49.71-.9.98-1.41.15-1.2.42-1.7.31-1.13.59-1.62,1.08-.68,1.37-1.17.17-1.22.48-1.7.85-.8,1.17-1.27.25-1.21.58-1.67.68-.92,1.02-1.38.92-.73,1.26-1.19.61-.97.97-1.41.44-1.12.81-1.55,1-.64,1.38-1.06.57-1.02.97-1.44.83-.79,1.23-1.19.75-.86,1.16-1.26.86-.76,1.28-1.14.76-.86,1.19-1.24,1.22-.32,1.66-.69,1.07-.48,1.51-.84.58-1.09,1.03-1.44.77-.88,1.23-1.21,1.23-.23,1.7-.55.93-.64,1.41-.95.59-1.18,1.07-1.49,1.11-.38,1.6-.67,1.11-.34,1.61-.63.73-1.02,1.23-1.3,1.01-.53,1.52-.8,1.11-.34,1.62-.6,1.22-.12,1.73-.37c.74-.4.43-.45,1.4-.96.42-.22.83-.68,1.42-.96.46-.22,1.1-.19,1.67-.44.48-.22.95-.55,1.51-.78.5-.21,1.09-.25,1.64-.46.51-.2,1.02-.43,1.57-.64.51-.19.98-.57,1.53-.76.52-.18,1.18.01,1.73-.17.53-.17.91-.82,1.47-.99s1.07-.34,1.63-.5,1.11-.2,1.67-.34,1.1-.22,1.66-.35,1.04-.49,1.6-.61,1.08-.36,1.64-.47,1.17.13,1.74.02,1.09-.3,1.66-.4,1.13-.1,1.69-.18,1.09-.33,1.66-.41,1.15.13,1.72.07,1.16.31,1.73.26,1.12-.05,1.69-.09,1.09-.6,1.66-.63,1.13.12,1.7.09,1.12-.4,1.69-.41,1.13.37,1.71.36,1.13-.54,1.7-.54,1.12.59,1.69.61,1.11.27,1.68.29,1.16-.69,1.73-.65,1.13.05,1.7.09,1.12.17,1.69.22,1.08.55,1.65.61,1.13.04,1.7.11,1.14-.03,1.71.05,1.09.36,1.65.45,1.2-.35,1.77-.26,1.06.52,1.62.62,1.15.01,1.71.12,1.16,0,1.72.12.97.85,1.53.98,1.23-.27,1.78-.13.93.91,1.48,1.06,1.25-.3,1.8-.14.96.76,1.51.92,1.17.04,1.72.21,1.13.2,1.67.37,1.13.2,1.67.38.79,1.19,1.33,1.37,1.33-.36,1.87-.16,1.07.4,1.6.6.8,1.06,1.34,1.27.99.56,1.52.78,1.16.15,1.68.38,1.33-.15,1.85.09.96.68,1.48.94.72,1.11,1.23,1.38,1.34-.05,1.84.24.88.79,1.37,1.09,1.16.32,1.65.64.65,1.09,1.13,1.42.75.91,1.21,1.25.93.65,1.39,1,1.46.02,1.9.39.78.88,1.21,1.26.89.75,1.31,1.14.4,1.24.8,1.65.79.83,1.18,1.25.75.86,1.13,1.29,1.08.57,1.45,1.02.93.72,1.28,1.19.32,1.18.65,1.66.99.71,1.31,1.19.69.92,1,1.41.42,1.09.71,1.59.22,1.18.5,1.69.65.94.92,1.45.28,1.13.53,1.65.32,1.1.56,1.62.56.98.79,1.51,1.27.7,1.49,1.23-.23,1.32-.02,1.86.87.89,1.07,1.43-.14,1.26.04,1.81.84.92,1.02,1.47-.12,1.23.05,1.78,1.04.88,1.2,1.43.11,1.16.26,1.71.05,1.17.2,1.72.19,1.12.33,1.69-.1,1.19.02,1.75,1.17.91,1.29,1.48.23,1.12.34,1.69-.02,1.17.08,1.73-.2,1.19-.1,1.76-.09,1.16,0,1.73.42,1.08.5,1.65,0,1.15.07,1.72.55,1.08.61,1.65-.3,1.18-.25,1.75.74,1.07.79,1.65.24,1.13.29,1.7-.37,1.17-.33,1.75.57,1.11.61,1.68.07,1.14.1,1.72.08,1.14.1,1.72-.83,1.17-.81,1.75.05,1.14.06,1.71-.09,1.14-.09,1.71.14,1.13.14,1.71.11,1.14.11,1.71.16,1.14.14,1.72.11,1.15.09,1.72.39,1.16.37,1.73-.4,1.13-.43,1.71.07,1.15.04,1.72-.41,1.12-.44,1.7-.31,1.12-.35,1.7.39,1.18.34,1.75-.23,1.13-.28,1.7-.27,1.13-.33,1.7.29,1.18.23,1.76-.72,1.2-.67,1.77.24,1.23.4,1.79.84.96,1.1,1.48.34,1.17.7,1.64.84.84,1.27,1.24.79.94,1.28,1.25,1.24.15,1.78.36,1,.7,1.58.8,1.2.5,1.79.47,1.2-.33,1.78-.49.96-.88,1.5-1.16c.83-.23.73-.15,1.77-.24.5-.04,1.16.78,1.79.72.55-.05,1.06-.89,1.66-.95s1.22.56,1.79.5,1.11-.78,1.66-.83c.63-.06,1.22-.11,1.72-.17.94-.11,1.8.34,1.9.26.12-.08.51-.88.6-1.78.05-.46-.35-1.06-.31-1.65.03-.51.15-1.05.17-1.61.02-.53-.38-1.08-.37-1.63s.52-1.08.52-1.61-.56-1.1-.57-1.62c0-.58.7-1.15.67-1.64-.03-.65-.76-1.37-.82-1.78.33-.62.97-.17,1.55-.16.35,0,.96-.14,1.14.6.09.38-.37,1.08-.26,1.81.08.51.57,1.03.65,1.64.07.55-.21,1.16-.15,1.75s.71,1.1.76,1.67.03,1.19.05,1.74c.03.62-.05,1.23-.07,1.74-.02.73-.25,1.2-.36,1.58.76.49.65.29,1.74.25.53-.02,1.16.08,1.82.03.58-.04,1.22.06,1.84,0s1.21-.28,1.8-.39,1.23-.32,1.78-.49c.63-.19,1.03-.73,1.5-1,.42-.71.1-.6.2-1.59.05-.48.47-1,.52-1.61.04-.52.06-1.08.09-1.65s0-1.11.01-1.66-.54-1.11-.55-1.65c-.01-.58.53-1.17.47-1.68-.07-.62-.79-1.28-.94-1.71.3-.88,1.19-1.13,2.11-.39.21.17.03.96.12,1.78.05.49-.02,1.05,0,1.65.02.53,0,1.09,0,1.66s-.07,1.12-.08,1.66c-.01.61.27,1.18.25,1.67-.04.99.48.86.43,1.69-.06.88-.52,1.3.64,1.05.37-.08,1.08-.34,1.91-.48.64-.11,1.32-.22,1.94-.33,1.08-.18,1.03.08,1.92-.33Z"/><path class="cls-2" d="m124.89,82.55c-.78.38-.62.28-.92,1.33-.14.47.37,1.23.19,1.86-.14.52-1.06.87-1.22,1.47-.14.53.11,1.2-.04,1.79-.13.55-.33,1.1-.46,1.68s-.36,1.1-.48,1.68.29,1.23.18,1.81-.85,1.03-.95,1.6.38,1.24.31,1.81-.14,1.15-.19,1.72-.51,1.14-.53,1.71c-.02.6.21,1.19.23,1.75.02.61.08,1.18.16,1.72.09.62-.12,1.29.06,1.79.22.6.73,1.03,1.1,1.41.4.43.92.61,1.52.72.57.11,1.07.05,1.62-.21.47-.22.62-.84,1.07-1.29.38-.37,1.27-.33,1.63-.83.32-.44.04-1.29.34-1.82.28-.47.97-.73,1.24-1.26.25-.5.28-1.11.52-1.65s.62-.96.84-1.51.41-1.06.61-1.6.13-1.16.32-1.71,1.03-.86,1.21-1.41-.35-1.32-.18-1.86.66-1,.82-1.55-.12-1.24.03-1.78.49-1.07.64-1.61c.15-.57.13-1.17.27-1.7.15-.58.61-1.06.74-1.59.15-.6.87-1.02.99-1.53.15-.63.22-1.22.32-1.69.23-1.06.74-1.31-.1-1.47s-.77.07-1.63.23-.93-.21-1.79-.04-.83.32-1.7.48-.81.45-1.67.61-.93-.17-1.79,0-.8.51-1.66.68-.88-.13-1.67.26Z"/><path class="cls-2" d="m144.72,79.96c-.8.25.06.75-.25,1.75-.14.46-.36.98-.54,1.58-.14.5-.01,1.11-.17,1.68-.14.52-.75.93-.89,1.49-.13.53-.54,1.01-.67,1.56s.02,1.15-.09,1.7-.66,1.03-.75,1.58-.09,1.14-.15,1.69.49,1.19.46,1.73c-.04.58.06,1.12.07,1.66.01.59-.45,1.19-.36,1.71.1.61.67,1,.89,1.46.26.55.47.94.93,1.21.44.25.89.53,1.54.47.58-.05,1.07-.35,1.58-.62s.82-.69,1.23-1.12c.38-.39,1.16-.52,1.48-1.02.3-.46.58-1,.84-1.54.24-.5.16-1.18.37-1.72s.33-1.08.5-1.64.5-1.04.65-1.6.59-1.05.72-1.61-.3-1.25-.2-1.8.11-1.15.2-1.71c.09-.59.68-1.09.75-1.63.08-.61.36-1.16.41-1.69.07-.64-.82-1.31-.78-1.8.09-1.07,1.41-1.42.61-1.73s-.86.16-1.69.16-.83-.07-1.67-.07-.84-.44-1.67-.44-.84.48-1.67.37-.91-.31-1.7-.05Z"/><path class="cls-2" d="m163.53,78.33c-.86,0,.38.27.38,1.35,0,.49-.78,1.07-.77,1.72,0,.53,0,1.11.03,1.72.02.54.04,1.12.07,1.72.03.55.65,1.09.69,1.68s-.44,1.17-.39,1.75.4,1.11.46,1.69-.12,1.17-.04,1.74.6,1.08.69,1.64.26,1.12.37,1.68.06,1.17.19,1.71.09,1.18.26,1.72c.17.57.65,1.01.86,1.52.22.56-.03,1.34.23,1.81.3.54.8.96,1.15,1.37.4.46.82,1.04,1.29,1.3.5.27,1.24.23,1.84.23.64,0,1.28-.16,1.78-.41s.76-.89,1.14-1.37c.34-.43.37-1.02.62-1.59.22-.51.67-.93.83-1.53.15-.54.11-1.14.21-1.73.1-.56.37-1.11.43-1.7s.39-1.14.42-1.73-.44-1.19-.43-1.78.25-1.18.24-1.76-.34-1.17-.37-1.75c-.03-.61.47-1.23.43-1.79-.04-.62-.68-1.16-.73-1.71-.06-.66.32-1.29.26-1.79-.13-1.09.64-1.47-.08-1.98s-.86-.51-1.7-.82-1.12.43-1.97.12-.82-.4-1.67-.71-.9-.16-1.75-.47-.59-1.04-1.44-1.35-.87-.26-1.73-.56-.9.06-1.81.06Z"/><path class="cls-1" d="m173.41,50.62c-.84-.24-.11-.64-.65-1.6-.24-.43-.38-1.07-.81-1.59-.33-.41-1.25-.32-1.72-.76-.4-.37-.3-1.39-.81-1.76-.44-.32-.92-.74-1.46-1.05-.48-.27-1.34.1-1.9-.16-.5-.23-1.02-.45-1.6-.66-.52-.19-.93-.8-1.52-.97-.54-.16-1.05-.58-1.64-.72-.55-.13-1.26.41-1.85.3-.55-.1-1.08-.49-1.68-.57-.56-.07-1.19.43-1.79.38-.56-.05-1.09-.85-1.69-.88-.57-.03-1.18.58-1.78.56-.57-.01-1.14-.19-1.74-.19s-1.16-.32-1.76-.3-1.13.58-1.73.61-1.16.03-1.73.08-1.25-.67-1.82-.6c-.59.07-1.15.37-1.7.46-.59.1-1.16.23-1.71.34-.58.12-1.07.59-1.61.73-.58.15-1.02.66-1.55.83-.57.18-1.25-.06-1.77.15-.56.22-.9.84-1.41,1.08-.54.25-1.1.38-1.58.65-.53.29-1.35.06-1.81.38-.5.34-.68,1.07-1.11,1.43-.47.39-1.35.32-1.73.71-.42.44-.7,1.03-1.02,1.47-.36.5-.2,1.28-.45,1.77-.28.56-1.06.9-1.19,1.42-.16.62-.09,1.3-.05,1.83.04.64.63,1.06.93,1.5.32.48.61.97,1.2,1.13.49.14.98-.33,1.63-.47.53-.12,1.22.29,1.8.09.52-.18.95-.65,1.51-.88.51-.21,1.29.14,1.84-.1.51-.22.83-.94,1.37-1.18.51-.23,1.19-.11,1.73-.34s1.03-.46,1.58-.68.89-.87,1.45-1.06,1.29.29,1.85.12.88-1.11,1.45-1.25,1.15-.15,1.73-.26,1.18.14,1.76.07,1.1-.6,1.69-.63,1.16.6,1.75.61,1.13-.1,1.72-.06,1.08.45,1.66.53,1.26-.6,1.83-.48.99.75,1.56.9,1.05.41,1.61.6,1.17.1,1.72.32,1.26,0,1.79.25,1.05,1.04,1.57,1.31c-.4.73-.87-.07-1.89-.06-.48,0-1.03.34-1.65.38-.52.03-1.08-.08-1.66-.02-.54.06-1.09.1-1.65.19s-1.06.3-1.6.43-1.08.23-1.59.42-1.22.06-1.69.33c-.5.29-.63,1-1.02,1.39s-.83.67-1.06,1.18c-.22.49-.28.97-.31,1.57s.25,1.08.33,1.57c.1.62-.37,1.32-.13,1.75.29.52.64,1.14,1.08,1.44.46.31,1.17.34,1.72.45s1.14.02,1.69,0c.58-.03,1.18,0,1.68-.11.66-.15,1-.9,1.36-1.06.3-.14.88-.27,1.55-.66.44-.26.97-.51,1.52-.82.48-.27,1.25-.08,1.77-.37s.95-.65,1.46-.91.78-1.1,1.28-1.33c.56-.25,1.19-.34,1.69-.51.63-.21,1.26-.5,1.74-.53.72-.05,1.34.52,1.54,1.06.15.42-.25,1-.31,1.69-.04.52.7,1.2.6,1.81-.09.54-1.15.96-1.24,1.54s.26,1.21.2,1.77-.54,1.18-.53,1.72c.01.61.45,1.2.6,1.72.17.57.42,1.17.84,1.56.38.36.9.9,1.54,1.04.48.11,1.16.02,1.82-.02s1.2-.22,1.65-.36c.6-.2,1.29-.42,1.6-.78.36-.41-.14-1.24-.06-1.8.08-.51.92-1.05.86-1.61-.06-.53-.49-1.05-.61-1.58s-.79-.97-.9-1.47c-.13-.61-.05-1.24-.05-1.69,0-.65.43-1.06,1.07-1.14.49-.07,1.04.08,1.68.16.52.07,1.16-.23,1.75-.07.52.14.9.84,1.46,1.04.51.18,1.21-.05,1.75.19.51.22.96.6,1.48.86s1.2.15,1.71.43.7,1.06,1.19,1.36,1,.53,1.48.84.8.83,1.26,1.17.84.75,1.29,1.1c.54.43,1.29.73,1.76.79.6.08,1.27-.5,1.69-.91.36-.35.11-1.07.29-1.69.15-.5.95-.93.96-1.54.01-.53-.73-1.03-.84-1.62-.09-.53.18-1.16-.02-1.71-.18-.51-.81-.82-1.09-1.33-.26-.48-.02-1.28-.37-1.75-.33-.44-.9-.7-1.31-1.12-.38-.39-.46-1.19-.93-1.55-.43-.34-1.13-.38-1.63-.69-.47-.28-.88-.77-1.41-1.01-.5-.23-.99-.63-1.54-.83-.52-.18-1.26.25-1.83.1-.53-.14-1.28-.28-1.85-.39-.34-.75.63-.24,1.78-.49.43-.09.92-.32,1.59-.35.48-.02,1.03-.23,1.65-.19.5.03,1.07-.04,1.67.03.51.06.99.56,1.58.66.67.11,1.41.32,1.92.17.61-.17.61-1.24.98-1.69s1.39-.59,1.52-1.2c.12-.56-.27-1.24-.36-1.86-.09-.57.07-1.31-.21-1.86-.26-.51-1.27-.52-1.69-.97-.39-.42-.49-1.15-1.02-1.47-.48-.29-1.03-.56-1.63-.74-.54-.16-1.12-.42-1.75-.48-.56-.05-1.15.42-1.79.46-.56.04-1.24-.52-1.86-.4-.57.11-.95,1.02-1.47,1.14-.57.13-1.18-.07-1.69.07-.56.15-1.01.56-1.51.72-.56.18-1.11.25-1.59.45-.56.22-1.05.43-1.51.65-.55.26-1.16.27-1.59.53-.54.32-.92.73-1.31,1.03-.52.4-.81.86-1.12,1.2-.74.81-.28,1.43-1.08,1.2Z"/><path class="cls-1" d="m25.2,140.47c-.58.62-.3.43-.69,1.45-.17.45-.81.82-1.03,1.44-.18.49-.34,1.04-.54,1.62-.17.51-.03,1.16-.21,1.73-.17.52-.25,1.09-.42,1.65-.16.53-.14,1.12-.3,1.69-.15.53-.43,1.05-.57,1.61s-.61,1.01-.74,1.57-.05,1.15-.17,1.71.1,1.17-.01,1.74-1.1.95-1.19,1.52-.13,1.14-.22,1.71.01,1.16-.06,1.72-.08,1.14-.14,1.71-.12,1.14-.16,1.71.64,1.17.62,1.74-.31,1.12-.31,1.69-.69,1.16-.67,1.73.4,1.13.45,1.7.54,1.09.61,1.65.14,1.12.24,1.68.14,1.12.27,1.67-.01,1.18.15,1.73.91.88,1.12,1.41.12,1.09.36,1.6c.67.7.64.71,1.59.94.61.15,1.29.17,1.87-.2.31-.19.75-.79.72-1.62-.02-.49-.06-1.1-.14-1.74-.06-.53-.81-1.01-.89-1.61-.08-.55.6-1.21.53-1.79s-1.02-1.04-1.07-1.61.65-1.19.64-1.76-.03-1.13,0-1.69c.04-.59-.41-1.24-.29-1.77.13-.59.79-.94,1.05-1.42.36-.64.24-1.53.61-1.81.57-.43,1.28.1,1.79.32.48.2,1.27.23,1.62.76.31.48.18,1.23.32,1.79.15.61.7,1.29.58,1.79-.09.38-1.02.89-1.05,1.67-.02.53.43,1.16.44,1.81,0,.57.36,1.16.38,1.78s-.3,1.21-.25,1.81.2,1.2.26,1.78c.07.63-.06,1.26.03,1.81.11.66.1,1.32.24,1.82.26.88.86.94,1.24.93.66-.03,1.12.21,1.65-.12.37-.23,1.04-.35,1.35-1.17.18-.46.6-1,.76-1.73.11-.52.03-1.17.14-1.86.09-.55-.5-1.24-.41-1.91.08-.62.95-1.12.99-1.67.04-.62-.31-1.23-.3-1.78,0-.62-.25-1.19-.27-1.75-.03-.61-.03-1.18-.07-1.75s.48-1.2.44-1.78-.55-1.12-.56-1.73c0-.56.5-1.12.53-1.74.03-.55-.16-1.13-.08-1.75.07-.55.45-1.06.56-1.68.1-.54.05-1.13.19-1.74.13-.54.39-1.07.56-1.66s-.12-1.26-.03-1.77c.11-.62.07-1.19.09-1.7.02-.66-.14-1.16-.25-1.64-.15-.66-.43-.96-.76-1.32-.42-.45-.68-.69-1.24-.7s-1.01.06-1.52.38c-.46.29-.96.55-1.29,1.05-.29.45-.69.96-.79,1.55s-.18,1.17-.28,1.72c-.12.61.12,1.27-.02,1.79-.17.62-.38,1.2-.59,1.67-.27.63-.52,1.32-.9,1.64-.45.38-1.17.02-1.82-.14-.57-.14-1.35-.06-1.73-.58-.3-.41.05-1.21-.11-1.88-.12-.51-.94-.99-.97-1.65-.02-.54.13-1.16.17-1.8.04-.55.79-1.06.88-1.69.08-.55-.59-1.26-.47-1.87.11-.55.28-1.13.43-1.74s.32-1.15.44-1.69c.14-.6.91-1.02,1.02-1.56.13-.61-.14-1.26-.04-1.79.12-.64.11-1.23.17-1.74.07-.71.57-1.37.49-1.81-.13-.73-.88-.64-1.54-.56-.41.05-.78.08-1.45.47Z"/><path class="cls-1" d="m281.38,181.99c.42-.74.37-.6.51-1.68.06-.48-.49-1.12-.42-1.77.06-.52.72-1.02.78-1.64.05-.53-.06-1.12-.02-1.72.04-.54.26-1.11.29-1.7.03-.55-.61-1.15-.59-1.73.02-.55.42-1.11.43-1.69s-.1-1.13-.1-1.71.23-1.13.21-1.71-.16-1.13-.18-1.71.19-1.15.15-1.72-.38-1.11-.43-1.68-.45-1.09-.51-1.66.23-1.17.15-1.74-.61-1.05-.71-1.61.68-1.29.57-1.85-.54-1.06-.68-1.61-.87-.94-1.03-1.49.11-1.22-.07-1.76-.39-1.07-.59-1.6-.73-.93-.96-1.44-.03-1.24-.29-1.75-.69-.92-.98-1.41-.36-1.13-.69-1.6-.95-.67-1.31-1.11c-.81-.52-.82-.86-1.81-.86-.63,0-1.26.54-1.75,1.03-.26.26-.11.79.11,1.59.13.47-.16,1.18.07,1.78.19.5.65.94.87,1.5.2.51.92.85,1.13,1.4s.32,1.11.5,1.65.09,1.19.24,1.73.58,1.08.67,1.63c.1.59.01,1.22.02,1.76,0,.6.09,1.27-.05,1.79-.19.7-1.04.91-1.33,1.27-.45.55-.8,1.34-1.35,1.25-.52-.09-.9-.89-1.36-1.33-.41-.39-.49-.99-.76-1.5-.29-.56-1.24-.96-1.24-1.47,0-.39.29-1.01.14-1.77-.1-.52,0-1.18-.15-1.81-.14-.55-.77-1.01-.94-1.6s-.32-1.15-.5-1.72.19-1.35-.01-1.9c-.22-.59-.74-1.05-.96-1.56-.27-.62-.29-1.32-.55-1.76-.46-.79-1.11-.84-1.47-.73-.64.18-1.45-.15-1.89.29-.31.31-.22.98-.34,1.85-.06.48.22,1.05.24,1.8.01.53-.3,1.13-.24,1.83.05.55-.5,1.23-.42,1.89.07.62.75,1.12.84,1.67.1.61.43,1.13.55,1.67.14.6-.26,1.3-.1,1.84.17.58.85.98,1.03,1.52s.18,1.17.35,1.73-.07,1.21.08,1.79c.14.54.68,1.01.8,1.62.1.54.54,1.08.61,1.7.06.55-.68,1.2-.64,1.83.03.55.73,1.11.73,1.73,0,.56-.05,1.15-.07,1.77s-.12,1.16-.09,1.68c.04.63.07,1.17.18,1.67.13.64-.31,1.44-.09,1.88.3.61,1.18.72,1.58.99.51.34,1.11.91,1.65.79s1.1-.65,1.52-1.09c.38-.39.9-.9,1.09-1.47.18-.51.38-1.24.33-1.84s-.72-1.15-.74-1.7c-.03-.62-.08-1.22-.07-1.76.01-.64.72-1.14.8-1.65.12-.67-.27-1.39.02-1.79.34-.48.95-1.07,1.62-1.07.58,0,1.36.35,1.85.77.39.33.1,1.27.42,1.88.24.46,1.31.67,1.5,1.31.15.52.29,1.14.4,1.78.09.54-.25,1.2-.19,1.83.06.55-.3,1.16-.27,1.79.03.56.34,1.14.34,1.76s-.38,1.19-.38,1.75c0,.61.95,1.18.97,1.73.02.62-.85,1.24-.82,1.78.04.65.7,1.18.77,1.69.1.71.44,1.13.62,1.55.3.68.24.87.87.64.39-.14,1-.19,1.55-.73Z"/></g></svg>