<?xml version="1.0" encoding="UTF-8"?><svg id="hair" xmlns="http://www.w3.org/2000/svg" viewBox="0 0 300 300"><defs><style>.cls-1{fill:#d66a5e;}</style></defs><g id="hair_10"><g id="hair_10-2"><path class="cls-1" d="m166.29,85.2c-.03-1.02.02-.8-.2-2.02-.1-.58-.17-1.27-.41-1.99-.2-.6-.48-1.23-.82-1.87-.3-.57-.71-1.11-1.13-1.68-.39-.52-.77-1.08-1.29-1.57-.47-.45-1-.88-1.59-1.28-.54-.36-1.17-.62-1.82-.92-.58-.27-1.17-.63-1.85-.84-.62-.2-1.3-.27-2-.41-.64-.13-1.29-.32-2-.39-.65-.07-1.33-.05-2.04-.07s-1.35-.04-1.99-.02c-.69.02-1.36.05-1.99.11-.69.07-1.36.09-1.99.21-.68.13-1.28.47-1.89.65-.67.2-1.34.29-1.92.54-.64.28-1.17.68-1.72,1.01-.59.36-1.14.73-1.62,1.14-.52.45-.97.93-1.38,1.42-.44.53-.77,1.09-1.08,1.66-.33.6-.59,1.2-.8,1.81-.22.65-.35,1.29-.45,1.92-.1.69-.11,1.34-.09,1.97.03.72.04,1.38.2,1.96s.39,1.2.64,1.78.45,1.19.79,1.73.71,1.06,1.14,1.53.94.83,1.45,1.23c.48.37,1.04.67,1.62.97.54.28,1.09.57,1.71.79.57.2,1.17.39,1.82.52.59.12,1.22.14,1.88.2.6.05,1.23.12,1.89.12s1.3.15,1.88.27c.67.14,1.33.2,1.85.47.59.31,1.02.81,1.43,1.26.44.48.73,1.03.96,1.6s.54,1.18.56,1.81-.08,1.28-.26,1.9-.46,1.19-.82,1.72-.87.89-1.38,1.29c-.48.37-.93.85-1.55,1.09-.91.48-1.04.46-1.62,1.21-.45.58-.71,1.35-.12,1.92.33.32.95.62,1.89.84.56.13,1.24-.03,1.99-.13.6-.08,1.24-.24,1.92-.47.59-.2,1.21-.44,1.83-.76.57-.29,1.19-.54,1.77-.94.53-.37,1.07-.77,1.59-1.22.49-.43.88-.97,1.35-1.48.44-.48.92-.94,1.33-1.49.39-.52.85-1.02,1.2-1.61.34-.56.51-1.22.8-1.84.28-.58.61-1.17.85-1.81.23-.61.38-1.26.57-1.92.18-.63.4-1.26.54-1.93.13-.64.33-1.28.42-1.96s.11-1.32.15-2-.07-1.32-.07-2.01-.01-1.32-.05-2-.04-1.32-.11-2Z"/></g></g></svg>