<?xml version="1.0" encoding="UTF-8"?><svg id="hair" xmlns="http://www.w3.org/2000/svg" viewBox="0 0 300 300"><defs><style>.cls-1{fill:#fff;}.cls-2{fill:#a8534a;}.cls-3{fill:#d66a5e;}</style></defs><g id="hair_4"><path class="cls-3" d="m185.99,72.35c-.74.69-.03.76-.36,2.03-.15.55.23,1.38,0,2.13-.18.59-1.06,1.02-1.3,1.71-.21.6-1,1.01-1.26,1.68-.24.6.43,1.61.15,2.26-.26.6-.28,1.35-.59,1.99-.28.59-.82,1.1-1.14,1.72-.3.59-1.36.79-1.7,1.4s-.25,1.4-.6,1.99-.99.96-1.36,1.55-.95.97-1.33,1.54-.45,1.31-.85,1.87-.69,1.15-1.11,1.7-.52,1.3-.95,1.84-1.22.74-1.66,1.26-1.02.88-1.48,1.39-.3,1.56-.77,2.05-1.1.82-1.58,1.31-1.12.79-1.62,1.26-1.38.48-1.89.94-.36,1.64-.89,2.08-1.54.25-2.07.68-1.24.58-1.79.99-.93.98-1.49,1.38-1.2.61-1.77,1-.51,1.66-1.08,2.04-1.49.17-2.08.53-.78,1.33-1.37,1.68-1.55.04-2.14.38c-.86.52-.71.28-1.8.88-.51.28-1.07.64-1.74.98-.56.28-1.2.47-1.85.77-.59.27-1.27.32-1.92.58s-.9,1.36-1.55,1.59-1.22.68-1.87.87-1.58-.86-2.24-.73-1.18,1.18-1.84,1.24-1.42.4-2.08.36c-.69-.04-1.49-.14-2.12-.31s-1.21-.88-1.79-1.23-1.11-.82-1.57-1.34c-.42-.47-.93-1.01-1.25-1.65-.28-.56.11-1.41-.08-2.11-.16-.6-.38-1.2-.47-1.92-.08-.63-.15-1.27-.16-1.98-.01-.64-.6-.9-.56-1.61-.74-.66-.37-.4-1.61-.09-.54.14-.99.98-1.72,1.19-.58.17-1.28.1-1.96.32-.59.19-1.17.51-1.83.74-.59.2-1.35.04-1.99.28-.59.22-1.04.89-1.67,1.15-.59.24-1.53-.32-2.16-.06-.59.25-1.05.86-1.67,1.13s-1.43.03-2.04.31-1.12.72-1.72,1.02-1.25.45-1.85.76-.7,1.47-1.28,1.79-1.61-.16-2.18.18-.54,1.65-1.11,2-1.28.41-1.84.78-.89,1.01-1.44,1.39-1.75-.2-2.29.19-.67,1.31-1.2,1.72-.87,1.01-1.39,1.43-1.1.71-1.61,1.14-1.34.46-1.84.9-1.16.7-1.65,1.15-.56,1.33-1.04,1.79-1.23.64-1.7,1.12-.93.95-1.38,1.44-.97.91-1.41,1.42-.73,1.13-1.15,1.64-.72,1.12-1.13,1.64-.49,1.28-.88,1.82-.98.92-1.35,1.47-.2,1.44-.56,2-1.6.55-1.95,1.12-.32,1.28-.64,1.86c-.9.54-.76-.28-1.99-.35-.61-.03-1.49,1.02-2.24.85-.65-.15-.94-1.5-1.6-1.8-.61-.28-1.75.25-2.31-.2-.52-.42-1-1.07-1.43-1.67-.38-.53-.85-1.18-1.12-1.88-.24-.6-.1-1.42-.24-2.16-.12-.64.27-1.36.24-2.11-.03-.65-.36-1.35-.31-2.09-.84-.54-.52.57-1.56,1.29-.47.33-1.25.4-1.85.88-.48.38-.94.89-1.47,1.37-.47.43-1.26.59-1.76,1.1-.45.46-.75,1.13-1.2,1.65-.43.49-.25,1.49-.67,2.04s-.95.92-1.32,1.49-1.24.8-1.58,1.39-.4,1.3-.7,1.92.04,1.44-.21,2.07-.38,1.23-.58,1.88-1.08,1.07-1.23,1.74.52,1.43.42,2.1-1.27,1.19-1.32,1.87.57,1.58.57,2.27c-.76.64-.85-.65-2.03-.97-.55-.15-1.09-.44-1.78-.73-.56-.23-1.35-.06-1.97-.42-.54-.31-1.26-.45-1.82-.87-.5-.38-1.25-.6-1.75-1.08-.46-.44-.64-1.23-1.08-1.76-.4-.49-.35-1.34-.73-1.92-.35-.53-.78-1.01-1.1-1.62-.29-.56-1-.96-1.26-1.6-.24-.59-.34-1.27-.55-1.92-.2-.61-.06-1.33-.23-2-.15-.62-.25-1.26-.37-1.94-.11-.63-.26-1.27-.35-1.95-.07-.59.26-1.28.19-2.01-.06-.61-1.33-1.17-1.38-1.88-.04-.63.61-1.33.58-2.03-.03-.63.15-1.3.13-1.99-.02-.64-.14-1.29-.15-1.97,0-.64.21-1.3.21-1.98s-.73-1.31-.72-1.99.3-1.3.32-1.98-.18-1.32-.15-1.99.69-1.28.73-1.95.17-1.3.22-1.97.22-1.29.29-1.96-.18-1.33-.11-2-.67-1.41-.59-2.07,1.37-1.15,1.47-1.81-.74-1.44-.64-2.1-.14-1.37-.02-2.03,1.3-1.11,1.42-1.76.43-1.25.56-1.91c.13-.64-.64-1.48-.5-2.14s.52-1.24.67-1.89-.15-1.4.02-2.05.65-1.2.83-1.84.45-1.25.64-1.89-.17-1.44.03-2.08.57-1.22.78-1.85,1.06-1.04,1.28-1.66.31-1.29.55-1.92,1-1.02,1.25-1.64-.38-1.59-.12-2.2.96-1.03,1.23-1.64.22-1.36.5-1.96,1.14-.91,1.44-1.51-.17-1.57.14-2.16.67-1.15,1-1.73.5-1.25.83-1.83,1.57-.61,1.92-1.17.68-1.13,1.04-1.69.82-1.03,1.19-1.58-.07-1.66.31-2.2,1.21-.76,1.61-1.29.93-.95,1.34-1.47.1-1.62.53-2.13,1.66-.34,2.09-.85.8-1.05,1.24-1.54.43-1.4.89-1.88,1.07-.82,1.53-1.29.92-.96,1.4-1.42,1.06-.81,1.55-1.26.88-1.01,1.38-1.44,1.41-.37,1.93-.8.51-1.46,1.03-1.88,1.25-.55,1.78-.95.74-1.24,1.28-1.63,1.22-.59,1.77-.96,1.54-.07,2.1-.43.63-1.46,1.2-1.81,1.04-.85,1.62-1.19,1.52,0,2.11-.33.75-1.38,1.34-1.7,1.26-.46,1.86-.76,1.51.07,2.11-.22.88-1.24,1.49-1.51,1.18-.62,1.79-.89,1.64.5,2.26.25.85-1.45,1.47-1.69,1.57.41,2.19.19,1.16-.65,1.8-.87,1.36-.07,2-.27,1.25-.39,1.89-.59.98-1.35,1.62-1.54,1.33-.18,1.97-.36,1.37.04,2.02-.12,1.27-.38,1.92-.53,1.4.21,2.05.07,1.27-.34,1.93-.47,1.07-1.43,1.73-1.55,1.31-.26,1.97-.37,1.39.27,2.05.17,1.34-.01,2-.11,1.25-.63,1.92-.72,1.3-.34,1.96-.42,1.4.56,2.07.49c.96-.14.65-.43,1.87-.58.54-.07,1.2-.03,1.94-.09.59-.05,1.26.26,1.95.22.61-.04,1.21-.97,1.89-.99.62-.02,1.28-.11,1.95-.12.62,0,1.28.28,1.95.29.63,0,1.25.96,1.91.99s1.28-.18,1.93-.13,1.31-.36,1.96-.3,1.29.04,1.94.12,1.18.81,1.82.92,1.44-.7,2.08-.58,1.2.58,1.84.73,1.15.71,1.77.88,1.2.45,1.82.64c.74.24,1.54-.36,1.88-.89s.48-1.45-.05-2.02c-.41-.44-.85-.94-1.35-1.4-.45-.42-1.34-.38-1.86-.8-.48-.4-.93-.84-1.47-1.22-.51-.36-.71-1.24-1.27-1.58s-1.19-.52-1.78-.82-1.4.03-2.01-.23-1.06-.74-1.68-.94-1.05-.63-1.69-.78c-.61-.7-.32-.7.51-1.6.32-.35.71-.93,1.41-1.29.47-.24.97-.83,1.66-1.04.53-.16,1.33.36,2.01.23.51-.1,1.19.16,1.97.09.59-.05,1.2-.59,1.92-.61.61-.02,1.27-.06,1.97-.05.62,0,1.25.75,1.93.79.63.03,1.26.14,1.93.2.63.05,1.34-.49,2-.42s1.25.4,1.91.5,1.29.09,1.95.21,1.18.69,1.83.82,1.34-.1,1.99.06,1.38-.15,2.02.03,1.11.85,1.74,1.05,1.2.5,1.82.72,1.31.18,1.93.43,1.51-.21,2.11.06.97,1.05,1.56,1.34,1.45.07,2.03.38.97.98,1.53,1.32.8,1.18,1.35,1.54,1.16.61,1.69,1,.85,1.01,1.36,1.42.9.91,1.39,1.35,1.75.06,2.21.53.88,1.01,1.31,1.5.61,1.22,1.02,1.73,1.23.74,1.62,1.28.18,1.49.53,2.06c1.01.09.79-.1,1.91-.74.49-.28,1.15-.36,1.86-.68.56-.25.85-1.31,1.54-1.55.6-.2,1.31-.19,2.01-.37.62-.16,1.27-.35,1.97-.48.64-.12,1.35.16,2.05.09.64-.07,1.3.13,2,.1.65-.03,1.31-1.22,2-1.21.65.01,1.27,1.27,1.96,1.32.65.05,1.44-1.04,2.13-.95.65.08,1.22.87,1.9.99.65.12,1.4-.21,2.08-.05s1.16.84,1.83,1.02,1.45-.2,2.11.01,1.14.82,1.79,1.05,1.26.45,1.9.71,1.07.87,1.7,1.15,1.51-.08,2.13.22.97,1.01,1.59,1.33c.86.52.68.5,1.47,1.27.45.44,1.61.47,1.96,1.04.37.6-.49,1.51-.53,2.15-.04.59.38,1.32-.25,1.85-.68.58-1.39.83-1.94,1.13-.74.4-1.59.02-2.25.26s-1.15.95-1.88,1.39c-.53.32-1.51.89-2.17,1.49-.03,1.01.9.69,1.98,1.42.47.31,1.1.57,1.73,1.03.49.36,1.04.75,1.61,1.2.49.39.96.87,1.51,1.33.49.41,1.41.37,1.94.84.48.43.95.93,1.45,1.41.47.45,1.14.74,1.63,1.24.46.46,1.02.88,1.49,1.39s.82,1.07,1.28,1.58.4,1.43.84,1.95,1.08.84,1.51,1.37,1.19.78,1.6,1.32.86,1.05,1.26,1.6.49,1.3.88,1.87.71,1.14,1.08,1.72.42,1.32.78,1.9,1.36.76,1.71,1.35.23,1.42.56,2.02.17,1.43.48,2.03.79,1.09,1.09,1.71,1.29.88,1.58,1.5.16,1.4.43,2.03.88,1.1,1.13,1.73.43,1.29.67,1.92-.62,1.65-.4,2.29,1.5.91,1.71,1.56.38,1.3.58,1.95-.05,1.42.13,2.07.08,1.37.25,2.03,0,1.37.15,2.04.6,1.23.74,1.9.71,1.23.84,1.9c.12.66-.15,1.39-.04,2.06s.17,1.33.27,2,1.03,1.22,1.11,1.9-.98,1.51-.9,2.19c.18,1,1.26.51,1.51,1.77.11.56-.25,1.33-.11,2.09.11.61.01,1.31.12,2.03.1.63.15,1.3.25,2.01.09.64.66,1.26.74,1.95.07.65-.03,1.35.03,2.04s-.54,1.38-.49,2.07.96,1.29.98,1.98.07,1.35.07,2.04-.14,1.36-.15,2.04.06,1.36.03,2.04-.23,1.35-.28,2.02.19,1.39.11,2.06-.15,1.37-.26,2.04-1.39,1.11-1.54,1.77-.16,1.33-.34,1.97.67,1.64.45,2.28-1.07,1.06-1.34,1.68-.46,1.29-.78,1.88-.65,1.21-1.03,1.76-1.12.84-1.56,1.35-.86.97-1.36,1.43c-.75.6-.45,1.03-1.55,1.22-.54.09-1.13-.82-1.85-.96-.56-.11-1.33.37-1.96.03-.5-.28-1.21-.46-1.75-.94-.43-.39-.2-1.47-.64-2.01-.37-.46-1.55-.39-1.92-.97-.32-.5.34-1.61.03-2.22-.28-.53-.95-.88-1.23-1.5-.25-.55-1.33-.81-1.57-1.44s-.38-1.26-.61-1.89-.42-1.24-.64-1.87.05-1.41-.17-2.04-.25-1.3-.47-1.92-.03-1.38-.25-2-1.03-1.03-1.26-1.65-.23-1.31-.46-1.93-.94-1.05-1.17-1.67.37-1.55.13-2.16-1.25-.92-1.49-1.53-.41-1.25-.67-1.86-.85-1.05-1.12-1.66.04-1.46-.25-2.06-1.13-.9-1.43-1.49-.02-1.47-.33-2.05-1.02-.93-1.35-1.5-.53-1.21-.87-1.77-.57-1.19-.94-1.74-.86-1-1.25-1.53-.94-.93-1.35-1.44-.51-1.28-.94-1.78-1.4-.5-1.85-.98-.79-1.03-1.26-1.49-.42-1.46-.92-1.9-1.42-.35-1.93-.77-1-1.18-1.54-1.57c-.12,1,.7.82,1.13,1.84.25.59.46,1.27.56,1.93.1.72.05,1.38-.3,1.92-.3.48-.73,1.18-1.59,1.33-.54.09-1.27-.09-2.08-.19-.57-.07-.95-.78-1.57-1.2-.49-.32-.95-.69-1.47-1.19-.44-.42-.69-1.03-1.15-1.56-.41-.47-1.57-.36-1.99-.91-.39-.5-.35-1.35-.75-1.9-.37-.52-1.31-.66-1.69-1.22s-.57-1.19-.93-1.75-.79-1.04-1.16-1.6-.51-1.22-.87-1.78-.66-1.13-1.02-1.68-.68-1.12-1.03-1.67-.85-1.01-1.21-1.56-.78-1.06-1.14-1.6-.9-.98-1.27-1.52-.43-1.3-.8-1.83-.48-1.29-.86-1.81-.59-1.23-.98-1.74-1.56-.44-1.97-.92c-.44-.51-.2-1.62-.64-2.07-.47-.49-1.08-.85-1.55-1.27-.52-.46-1.1-.84-1.61-1.18-.58-.39-1.54.12-2.11-.11-.64-.26-1.06-1.08-1.68-1.09Z"/><path class="cls-2" d="m65.42,69.04c-.43.27-.87.56-1.26.88s-.54.91-.91,1.26c-.39.38-.82.88-1.36,1.47-.41.44-.82.96-1.3,1.52-.4.47-1.02.83-1.46,1.39-.39.5-.6,1.18-1.02,1.75-.38.51-1.04.86-1.44,1.44-.37.53-.86,1.01-1.24,1.59-.35.54-.63,1.17-.99,1.76-.34.56-.77,1.08-1.12,1.68-.33.57-.54,1.22-.86,1.83s-.41,1.28-.72,1.89-.65,1.16-.95,1.77-.79,1.09-1.07,1.72-.16,1.38-.43,2.01-.67,1.16-.92,1.79-.6,1.19-.84,1.83-.33,1.29-.56,1.94-.34,1.29-.56,1.93c-.21.63-.54,1.23-.74,1.88s-.4,1.27-.59,1.92-.24,1.31-.42,1.97-.57,1.23-.74,1.89-.39,1.28-.54,1.94-.21,1.32-.36,1.99-.1,1.34-.24,2.01-.19,1.32-.31,1.99-.24,1.32-.35,1.99c-.17,1.01-.13.77-.31,2.01-.08.58-.63,1.21-.72,1.96-.08.63-.05,1.33-.13,2.05-.07.66.13,1.36.07,2.06s0,1.36-.03,2.04-.2,1.36-.21,2.04.06,1.38.1,2.04c.04.72.05,1.4.15,2.03.11.75.3,1.39.51,1.96.28.76.45,1.55.95,1.86s1.26.11,2.06-.21c.97-.25.69.03,1.93-.49.5-.21,1.15-.43,1.83-.82.51-.3,1.16-.55,1.77-.97.5-.35.93-.9,1.5-1.35.49-.39,1.02-.8,1.55-1.27.47-.42,1.04-.79,1.55-1.29.46-.45.82-1.03,1.3-1.54.45-.47,1.04-.79,1.48-1.24s.57-1.26,1.01-1.7.98-.86,1.43-1.29c.48-.45,1.15-.66,1.62-1.07.5-.44.94-.92,1.42-1.3.53-.42,1.02-.83,1.52-1.18.56-.39,1.22-.53,1.73-.82.62-.35,1.06-.88,1.59-1.07.71-.25,1.36-.32,1.9-.24.65.09,1.38.43,1.72,1.07.08,1-.29.87-.46,2.01-.09.6-.42,1.27-.44,1.98s.12,1.37.23,2c.13.71.28,1.41.66,1.9s1.05.74,1.81.84c.86.48.55.87,1.9.32.46-.18,1-.61,1.67-1.13.44-.34.94-.78,1.49-1.31.42-.41.68-1.06,1.17-1.61.4-.45,1.1-.73,1.55-1.28.38-.48.62-1.13,1.04-1.69.37-.5.73-1.05,1.13-1.62.36-.51.79-1.02,1.17-1.59.35-.53.62-1.14.99-1.72s.96-.97,1.36-1.5.77-1.1,1.22-1.6.67-1.23,1.16-1.7,1.29-.58,1.81-1.01.95-.95,1.5-1.35,1.07-.82,1.63-1.19,1.04-.89,1.63-1.22,1.34-.36,1.94-.66,1.09-.85,1.7-1.13,1.23-.56,1.85-.82,1.25-.53,1.88-.77,1.29-.44,1.92-.65,1.31-.37,1.94-.57,1.37-.13,2.02-.32,1.19-.81,1.83-.98,1.33-.3,1.97-.46,1.42.05,2.05-.1c.68-.16,1.26-.65,1.89-.8.68-.16,1.36-.24,1.98-.38.7-.16,1.38-.19,1.99-.35.72-.18,1.37-.37,1.95-.54.76-.23,1.45-.41,1.93-.65.82-.62.97-.8,1.21-1.76.15-.6-.25-1.17-.9-1.78-.38-.36-.87-.73-1.71-1.01-.55-.19-1.22-.21-2.01-.34-.61-.1-1.25-.42-2.02-.49-.64-.06-1.3.09-1.96.07s-1.29-.37-1.96-.36-1.3.12-1.96.17-1.28.24-1.94.31-1.29.14-1.94.24-1.32-.03-1.97.09-1.25.39-1.9.53-1.31.1-1.95.26-1.18.64-1.81.81-1.2.5-1.84.69-1.37-.01-1.99.19-1.26.36-1.88.57-1.06.89-1.68,1.12-1.3.25-1.91.49-1.31.23-1.92.48-1.14.66-1.74.93-1.11.7-1.72.97-1.28.32-1.88.6-1.24.44-1.83.73-1.23.96-1.82,1.26c-.77-.63-.16-.98-.68-1.94-.28-.53-.57-1.09-1.12-1.54-.47-.38-.94-.97-1.66-1.12-.57-.12-1.26.09-2.01.2-.57.09-1.28.06-1.97.32-.56.21-.99.85-1.63,1.2-.57.31-1.23.44-1.8.75s-1.13.65-1.69.96-1.12.67-1.68.98-1.17.6-1.72.9c-.59.32-1.12.7-1.68.99-.6.31-1.23.52-1.78.77-.64.29-1.2.64-1.76.84-.7.25-1.36.42-1.9.48-.79.09-1.59-.04-1.98-.46-.34-.37-.35-1.12-.31-1.98.02-.54.1-1.22.23-2.01.1-.6.26-1.25.42-1.97.14-.61.26-1.28.44-1.97.16-.62.13-1.33.33-2.01.18-.63.62-1.2.83-1.86.2-.63.61-1.2.83-1.85s.07-1.38.3-2.03.35-1.3.59-1.94.56-1.23.81-1.86.78-1.13,1.04-1.76.36-1.31.63-1.93.66-1.18.94-1.8.66-1.18.95-1.79.47-1.28.78-1.87.59-1.22.91-1.81.54-1.26.88-1.83.85-1.08,1.21-1.63.81-1.1,1.19-1.63c.4-.57.53-1.22.93-1.74.28-1.13.18-1.3-.61-2.03-.43-.4-1.04-.65-2.13-.32-.58.18-1.35.35-2.18.88Z"/><path class="cls-2" d="m230.79,92.51c-.41.9.43.57,1.17,1.6.32.45.61,1.06,1.04,1.69.34.5.69,1.05,1.08,1.65.33.52.79,1.01,1.16,1.6.33.54.8,1.03,1.15,1.62.32.55.48,1.22.81,1.82.31.56.67,1.11.99,1.71.3.57.57,1.17.87,1.78s.55,1.18.84,1.79.74,1.1,1.02,1.71.43,1.24.69,1.86.53,1.2.78,1.82.3,1.29.54,1.92.76,1.12.99,1.75.38,1.26.6,1.9.32,1.28.52,1.92.48,1.23.66,1.87.13,1.33.3,1.97.55,1.22.7,1.87.26,1.3.4,1.95.15,1.31.28,1.97.39,1.27.5,1.93.14,1.32.24,1.98c.13.98.14.79.35,1.94.11.58.03,1.29.2,1.98.15.63.29,1.3.49,1.93.2.65.59,1.24.85,1.81.31.68.65,1.28,1.04,1.68.52.54,1.17.84,1.84.57.45-.18.86-.72,1.39-1.42.33-.43.72-.99.98-1.76.19-.57.21-1.27.36-2,.13-.61.18-1.29.28-2,.09-.64.41-1.28.48-1.99.06-.65.03-1.33.08-2.03.04-.65.22-1.32.24-2.02s.03-1.34.04-2.03c0-.66-.22-1.34-.23-2.03s-.02-1.34-.04-2.03.17-1.35.14-2.04-.31-1.33-.35-2.01-.09-1.34-.15-2.02-.21-1.33-.28-2.01-.05-1.35-.13-2.03-.09-1.35-.18-2.03-.15-1.35-.25-2.02-.42-1.3-.54-1.97-.2-1.34-.33-2-.11-1.37-.25-2.03-.32-1.33-.48-1.98-.41-1.3-.59-1.95-.36-1.32-.55-1.96-.57-1.25-.79-1.87-.21-1.38-.46-2-.7-1.19-.98-1.79c-.29-.63-.62-1.22-.93-1.8-.33-.62-.46-1.33-.81-1.88-.38-.59-.96-1.01-1.36-1.52-.44-.55-.82-1.15-1.29-1.6-.82.52-.15.74-.81,1.75-.3.45-.61,1.01-1.2,1.5-.44.37-.93.8-1.58,1.15-.52.27-1.19.35-1.86.58-.57.2-1.14.51-1.83.66-.59.13-1.22.33-1.91.42-.61.08-1.26.2-1.95.24-.62.04-1.27.04-1.96.05-.62,0-1.28-.11-1.97-.13Z"/><path class="cls-1" d="m188.3,52.72c.71-.31.12-.66.38-1.53.13-.44.33-.93.54-1.44.19-.46.35-.97.62-1.42s.61-.85.96-1.21.78-.71,1.24-.91.96-.23,1.52-.19c.46.03.94.16,1.47.39.42.18.85.45,1.32.78s.88.66,1.17,1.01c.38.46.68.89.78,1.34.11.52-.08,1.02-.25,1.52-.16.46-.33.96-.66,1.4-.3.4-.64.81-1.03,1.18s-.86.59-1.28.9-.87.6-1.3.87c-.48.31-.89.67-1.29.89-.81.45-1.43-.09-1.38.68.04.7.61.08,1.34.43.38.18.79.46,1.19.76.36.28.7.62.98,1.02.26.37.53.78.65,1.26.1.42.12.91.06,1.43-.05.42-.23.86-.42,1.36-.2.54-.43,1.01-.7,1.39-.33.47-.75.77-1.16,1.01-.46.27-.93.5-1.46.5-.49,0-.99-.17-1.51-.4-.44-.2-.9-.44-1.34-.81-.37-.31-.69-.73-1.04-1.16-.31-.38-.7-.75-.98-1.22-.26-.42-.5-.89-.74-1.39-.21-.45-.36-.89-.55-1.4-.78.07-.35.46-.9,1.22-.27.37-.59.79-.97,1.22-.33.37-.7.74-1.11,1.1-.38.34-.73.76-1.17,1.05s-.93.48-1.42.68-.99.31-1.52.37-1.04.15-1.58.06c-.49-.09-.95-.35-1.46-.59-.44-.2-.89-.45-1.35-.79s-.84-.59-1.12-.92c-.35-.42-.55-.86-.67-1.29-.13-.48-.11-.97.01-1.44.12-.44.35-.87.65-1.29.26-.37.58-.75.95-1.09.34-.32.77-.56,1.17-.85s.75-.61,1.18-.85.88-.42,1.32-.62.88-.44,1.33-.59c.48-.16.96-.27,1.41-.37.52-.11,1.01-.09,1.45-.1.58-.02,1.08.03,1.43.22-.65.31-.6-.06-1.44-.26-.41-.1-.86-.31-1.37-.47-.43-.14-.93-.21-1.39-.4-.44-.18-.88-.4-1.31-.63s-.8-.55-1.18-.83-.82-.54-1.14-.9-.62-.76-.84-1.19-.24-.91-.31-1.41c-.06-.45-.18-.93-.1-1.44.09-.56.32-1.03.5-1.47.21-.53.46-.96.79-1.31.37-.39.81-.61,1.3-.77.46-.15.95-.19,1.51-.12.47.05,1,.07,1.52.28.44.18.9.43,1.38.72.41.25.81.59,1.25.93.39.3.78.64,1.18,1.01.36.34.68.75,1.05,1.14.34.37.68.75,1.03,1.16.32.39.75.71,1.07,1.14.3.4.61.83.91,1.27.29.42.53.93.82,1.38Z"/></g></svg>