<?xml version="1.0" encoding="UTF-8"?>
<svg id="_層_1" xmlns="http://www.w3.org/2000/svg" viewBox="0 0 300 300">
    <path d="M39.28,150s-9.94,28.97,3.1,34.89l7.09-3.55s-5.29-23.66,4.21-31.34c0,0-4.89-6.45-14.4,0Z"
          style="fill:#e9401b; stroke:#bd4121; stroke-miterlimit:10; stroke-width:3px;"/>
    <path d="M73.97,89.34s-9.98-18.61-32.59-4.98-12.63,46.22,11.64,45.88c0,0,13.3-34.92,20.95-40.9Z"
          style="fill:#d37566;"/>
    <path d="M59.34,105.3s19.11-54.87,94.35-52.87c0,0,70.26-2,92.2,52.87l-10.97,6.98s-16.58-50.46-82.3-45.89c0,0-59.36-6.98-84.3,45.89l-8.98-6.98Z"
          style="fill:#e9401b;"/>
    <path d="M79.88,95.71c.78-1.82,.59-3.91-.51-5.55-2.19-3.26-6.48-7.84-12.04-4.81s-16.22,26.81-20.82,37.4c-.6,1.39-.66,2.95-.13,4.37,.97,2.63,3.3,6.49,8.66,7.38,2.41,.4,4.82-.81,6.02-2.94,4.16-7.38,14.78-26.41,18.82-35.83Z"
          style="fill:#e9401b; stroke:#bd4121; stroke-miterlimit:10; stroke-width:3px;"/>
    <path d="M53.03,130.24s-7.54-5.65-16.85,6.76c-9.31,12.41-5.76,27.72-5.76,27.72,0,0,12.85-.39,23.27-14.72,10.43-14.33,3.78-20.76-.66-19.76Z"
          style="fill:#c84120; stroke:#a94123; stroke-miterlimit:10; stroke-width:3px;"/>
    <path d="M53.03,130.24s-15.96,8.09,3.54,36.47c0,0,8.74-13.61,6.61-24.39,0,0,.49-16.18-10.16-12.08Z"
          style="fill:#e9401b; stroke:#bd4121; stroke-miterlimit:10; stroke-width:3px;"/>
    <path d="M267.53,150s9.94,28.97-3.1,34.89l-7.09-3.55s5.29-23.66-4.21-31.34c0,0,4.89-6.45,14.4,0Z"
          style="fill:#e9401b; stroke:#bd4121; stroke-miterlimit:10; stroke-width:3px;"/>
    <path d="M232.83,89.34s9.98-18.61,32.59-4.98,12.63,46.22-11.64,45.88c0,0-13.3-34.92-20.95-40.9Z"
          style="fill:#d37566;"/>
    <path d="M226.93,95.71c-.78-1.82-.59-3.91,.51-5.55,2.19-3.26,6.48-7.84,12.04-4.81,5.31,2.89,16.22,26.81,20.82,37.4,.6,1.39,.66,2.95,.13,4.37-.97,2.63-3.3,6.49-8.66,7.38-2.41,.4-4.82-.81-6.02-2.94-4.16-7.38-14.78-26.41-18.82-35.83Z"
          style="fill:#e9401b; stroke:#bd4121; stroke-miterlimit:10; stroke-width:3px;"/>
    <path d="M253.78,130.24s7.54-5.65,16.85,6.76,5.76,27.72,5.76,27.72c0,0-12.85-.39-23.27-14.72-10.43-14.33-3.78-20.76,.66-19.76Z"
          style="fill:#c84120; stroke:#a94123; stroke-miterlimit:10; stroke-width:3px;"/>
    <path d="M253.78,130.24s15.96,8.09-3.54,36.47c0,0-8.74-13.61-6.61-24.39,0,0-.49-16.18,10.16-12.08Z"
          style="fill:#e9401b; stroke:#bd4121; stroke-miterlimit:10; stroke-width:3px;"/>
    <path d="M167.08,100.14c-2.42-4.85-10.31-14.8-24.94-10.81-16.64,4.54-12.7,21.55-4.68,24.42,1.71,.61,3.11,1.75,4.73,2.57,10.42,5.27,12.16,11.09,11.5,16.91,0,0,23.02-13.77,13.39-33.09Z"
          style="fill:#d37566;"/>
</svg>
