<?xml version="1.0" encoding="UTF-8"?><svg id="hair" xmlns="http://www.w3.org/2000/svg" viewBox="0 0 300 300"><defs><style>.cls-1{fill:#a8534a;}.cls-2{fill:#d66a5e;}</style></defs><g id="hair_5"><path class="cls-2" d="m222.35,40.05c-.73-.78.02-.84-.23-2.16-.11-.6-.64-1.21-.84-1.99-.16-.63-.48-1.26-.72-1.99-.21-.64-.41-1.3-.68-2-.25-.64-.53-1.27-.84-1.94-.29-.63-.6-1.24-.95-1.88s-.17-1.52-.56-2.14-1.21-.87-1.64-1.45c-.42-.56-.6-1.31-1.08-1.85s-1.15-.84-1.66-1.35-.46-1.6-1.02-2.07-1.28-.7-1.87-1.12-1.47-.32-2.09-.69-.91-1.28-1.57-1.6-1.6.15-2.28-.12-1.11-1.04-1.81-1.26-1.31-.63-2.02-.8-1.5.26-2.22.14-1.37-.29-2.1-.37-1.37-.6-2.1-.64-1.42-.13-2.1-.16-1.42-.15-2.11-.15-1.41.6-2.1.61-1.41.11-2.09.14-1.41-.03-2.1,0-1.44-.27-2.12-.22-1.39.39-2.07.46-1.36.53-2.04.61-1.39.19-2.08.28-1.5-.52-2.18-.42-1.3.84-1.98.95-1.43-.07-2.12.04-1.42,0-2.11.11-1.42-.03-2.11.08-1.27,1.03-1.95,1.12-1.48-.5-2.17-.42-1.39.02-2.09.08-1.37.23-2.07.27-1.37.58-2.07.59-1.39-.5-2.09-.52-1.4.3-2.1.25-1.36-.32-2.06-.41-1.34-.31-2.04-.43-1.42.08-2.12-.07-1.33-.38-2.02-.56-1.23-.68-1.91-.89-1.4-.15-2.08-.38-1.35-.33-2.02-.59-1.32-.45-1.98-.67-1.23-.77-1.89-.97-1.52.33-2.2.17-1.21-.98-1.89-1.12-1.36-.38-2.05-.48-1.49.62-2.18.54-1.34-.63-2.03-.68-1.39-.33-2.08-.35-1.41,0-2.1,0-1.41-.12-2.11-.09-1.37.64-2.06.7-1.45-.42-2.14-.34-1.29.88-1.98.99-1.43-.1-2.11.03-1.41.13-2.08.29-1.3.57-1.97.75-1.54-.22-2.19-.02-1.33.52-1.97.76-1,1.3-1.63,1.57-1.45.19-2.06.49c-.65.31-1.45.3-2.03.63-.63.36-.92,1.22-1.48,1.59-.61.41-1.63.22-2.14.64-.57.47-.91,1.19-1.35,1.67-.51.55-.61,1.34-.93,1.9-.38.65-.82,1.19-.93,1.84.11,1.1.39.82.63,2.14.12.64.08,1.41.15,2.23.07.7.22,1.44.21,2.21,0,.73-.35,1.44-.45,2.19s.17,1.55-.04,2.26-.77,1.29-1.13,1.94-.96,1.04-1.49,1.57c-.5.51-.75,1.34-1.43,1.72-.61.34-1.48.05-2.25.27-.67.19-1.22,1.03-1.94,1.11s-1.43-.11-2.16-.12c-.69-.01-1.4-.09-2.13-.16-.69-.06-1.41-.05-2.13-.15s-1.3-.79-2.02-.9-1.52.6-2.23.49-1.37-.4-2.08-.49-1.39-.24-2.11-.32-1.4-.22-2.12-.27-1.41-.43-2.13-.44-1.4.79-2.12.83-1.44-.36-2.15-.27-1.44,0-2.15.14-1.44.13-2.14.32-1.24.8-1.92,1.04-1.4.31-2.07.6-1.14.88-1.78,1.23-1.4.39-2.02.79-1.21.76-1.8,1.19-.69,1.4-1.25,1.87-1.13.63-1.67,1.12c-.29.99.32.63.51,1.9.08.58.25,1.28.33,2.05.06.63-.43,1.37-.4,2.1.03.65-.14,1.34-.15,2.05,0,.66.12,1.35.08,2.05s.18,1.39.09,2.08-.39,1.33-.52,2.01-.24,1.35-.43,2.02c-.19.66.01,1.47-.23,2.12s-.63,1.27-.94,1.89-1.16.93-1.54,1.51-.41,1.39-.85,1.93-1.26.69-1.76,1.18-.64,1.35-1.2,1.77-1.49.4-2.1.76c-.63.89-.19.92-.46,2.23-.12.61-.18,1.36-.3,2.16-.1.67-.16,1.41-.24,2.17-.07.7-.33,1.42-.36,2.17s-.04,1.46-.03,2.2c.02.73.36,1.44.44,2.17s.39,1.4.54,2.11-.35,1.65-.1,2.32,1.07,1.15,1.45,1.76.91,1.1,1.43,1.61,1.11.8,1.77,1.17c.6.34,1.2.61,1.94.82.66.18,1.15,1,1.92,1.06.96.34.65.23,1.66.95.48.34,1.15.57,1.76,1.02.51.38,1.02.84,1.59,1.27.52.4,1.21.62,1.76,1.05s.95.99,1.47,1.42,1.03.9,1.52,1.34c.53.47,1.17.79,1.62,1.24.54.53.76,1.24,1.13,1.7.57.71.94,1.31.94,1.76.71.82.78.68,2.11,1,.6.14,1.47-.64,2.3-.57.66.06,1.34.55,2.14.52.68-.02,1.46.34,2.23.22.68-.1,1.21-1.1,1.96-1.29.67-.17,1.63.49,2.35.23.66-.23,1.18-.93,1.87-1.24.64-.29,1.46-.3,2.12-.67.62-.33,1.12-.95,1.76-1.35.59-.37.9-1.2,1.52-1.64.57-.41,1.63-.22,2.22-.69.55-.44.83-1.25,1.4-1.75.53-.47,1.5-.67,2.05-1.19.53-.89-.19-.98.27-2.21.21-.55.17-1.34.48-2.06.25-.59.46-1.28.79-1.95.29-.59.7-1.19,1.05-1.83.32-.59,1.2-.89,1.58-1.5.35-.58.76-1.13,1.15-1.72s.66-1.21,1.09-1.77.85-1.08,1.31-1.61,1.12-.82,1.61-1.32.52-1.45,1.04-1.92,1.46-.39,2.02-.81.75-1.32,1.35-1.7,1.29-.53,1.92-.86,1.14-.85,1.79-1.12,1.45-.02,2.13-.23,1.3-.4,1.99-.54,1.27-.82,1.97-.9,1.42.68,2.13.66,1.37-.56,2.08-.52,1.34.34,2.05.43,1.38.07,2.07.22,1.3.43,1.99.62,1.45-.03,2.13.19,1.28.54,1.95.8,1.18.83,1.84,1.09,1.36.38,2.02.64,1.24.69,1.91.94,1.34.43,2.01.67,1.35.4,2.02.64,1.19.84,1.86,1.08,1.48.05,2.15.28,1.47.06,2.14.29,1.05,1.3,1.73,1.52,1.6-.37,2.28-.15,1.13,1.11,1.8,1.32,1.42.2,2.09.4,1.41.19,2.09.38,1.35.42,2.03.61,1.27.71,1.96.89,1.41.2,2.09.37,1.4.21,2.09.37,1.39.24,2.08.39,1.4.2,2.09.34,1.37.37,2.06.5,1.39.22,2.09.34,1.37.38,2.07.48,1.42.03,2.12.12,1.43-.1,2.13-.02,1.37.41,2.08.47,1.37.55,2.08.6,1.44-.34,2.14-.31,1.42-.28,2.12-.26,1.4.38,2.11.39,1.41-.12,2.11-.14,1.4-.26,2.1-.29,1.41.1,2.11.05,1.48.7,2.18.63,1.39-.4,2.09-.49,1.35-.54,2.05-.65,1.33-.57,2.02-.69,1.39-.17,2.08-.32,1.49.21,2.18.04,1.24-.83,1.92-1.02,1.48.04,2.16-.17,1.42-.23,2.09-.46,1.36-.42,2.02-.67,1.32-.52,1.98-.79,1.35-.46,2-.76.88-1.44,1.51-1.75,1.32-.49,1.95-.83,1.6-.02,2.22-.37,1.16-.84,1.76-1.21.99-.98,1.58-1.37c.95.5.54.63.84,1.96.14.59-.38,1.46-.17,2.25.17.64.46,1.31.68,2.05.19.65.67,1.25.9,1.97.21.66.78,1.21,1.03,1.91.23.66.17,1.43.43,2.12.25.65.56,1.3.84,1.97s.25,1.44.55,2.1.88,1.16,1.21,1.81.86,1.15,1.2,1.79.58,1.3.95,1.92.38,1.45.77,2.05.63,1.32,1.05,1.9.87,1.16,1.32,1.72,1.56.55,2.04,1.07.73,1.27,1.25,1.76,1.02,1,1.57,1.45.9,1.17,1.49,1.58c.83.63.48.59,1.44,1.48.43.4,1.28.52,1.84,1.08.46.45,1.19.72,1.71,1.26.46.48.85,1.08,1.33,1.62.45.5.84,1.09,1.3,1.64s.42,1.42.85,1.98,1.09.9,1.5,1.48,1.01,1,1.39,1.59.74,1.19,1.08,1.8.27,1.43.57,2.06.8,1.17,1.04,1.82.89,1.21,1.07,1.88.16,1.44.26,2.13.17,1.43.17,2.12-.14,1.03-.26,1.72c.84.59.41-.03,1.59-.56.53-.24,1.29-.25,1.99-.6.57-.28,1.15-.67,1.79-1.02.57-.31.89-1.14,1.51-1.5.57-.34,1.29-.45,1.89-.83.56-.36,1.07-.82,1.64-1.22s1.57-.16,2.12-.59.85-1.14,1.38-1.59.73-1.23,1.22-1.71,1.57-.39,2.03-.9.25-1.6.67-2.14,1.08-.89,1.46-1.46.99-1.02,1.31-1.63.13-1.45.38-2.08.57-1.23.74-1.89.55-1.28.64-1.96.33-1.36.33-2.06-.7-1.4-.69-2.09.7-1.37.72-2.07-.1-1.4-.08-2.09.31-1.38.33-2.08.12-1.39.14-2.09-.79-1.41-.78-2.1.9-1.39.89-2.08c0-.7-1-1.37-1.03-2.06s.9-1.45.84-2.14-.14-1.41-.23-2.1-.39-1.37-.53-2.05-.88-1.22-1.06-1.89.09-1.49-.16-2.14-.67-1.24-.98-1.86-.44-1.36-.82-1.95-.72-1.24-1.17-1.78-1.26-.74-1.77-1.23-.88-1.09-1.45-1.52c-.54-.41-1.42-.33-2.03-.7-.57-.35-1.11-.76-1.75-1.08-.6-.3-1.04-1.01-1.7-1.29-.62-.26-1.33-.37-2.01-.6-.72-.24-1.37-.51-1.97-.81-.67-.34-1.48-.44-2.02-.85-.58-.45-.69-1.38-1.15-1.9s-1.21-.88-1.56-1.5-.68-1.28-.93-1.95-.59-1.33-.76-2.03-.14-1.43-.25-2.15.21-1.45.13-2.17c-.08-.7-.65-1.36-.71-2.07s-.02-1.42-.08-2.14.44-1.47.37-2.18-.87-1.33-.97-2.03-.42-1.35-.57-2.05.55-1.6.35-2.28-.81-1.25-1.08-1.91-.29-1.46-.64-2.08-1.37-.78-1.81-1.35-.77-1.12-1.29-1.63c-.49-.48-.89-1.06-1.47-1.5-.55-.41-1.16-.73-1.8-1.1-.59-.34-1.24-.58-1.91-.88-.62-.28-1.25-.54-1.95-.79-.65-.23-1.24-.65-1.96-.84-.66-.18-1.41-.03-2.14-.18-.67-.14-1.27-.81-2-.93-.68-.11-1.43.15-2.16.07-.69-.08-1.42-.31-2.15-.37Z"/><path class="cls-1" d="m218.46,71.23c-.06,1.1-1.3.14-2.5.88-.53.33-.96,1.04-1.7,1.46-.58.33-1.33.51-2.03.89-.61.33-1.01,1.17-1.7,1.52-.63.32-1.25.76-1.94,1.09-.64.31-1.34.58-2.04.89-.66.29-1.55.09-2.25.38s-1.37.5-2.07.77-1.24.87-1.95,1.12-1.52.07-2.24.3-1.31.73-2.02.94-1.48.13-2.2.32-1.44.27-2.16.44-1.41.38-2.14.52-1.39.59-2.12.71-1.47.14-2.2.23-1.46.21-2.2.27-1.46.41-2.2.44-1.49-.09-2.23-.08-1.48-.12-2.22-.15-1.48-.06-2.22-.12-1.45-.28-2.19-.38-1.45-.26-2.18-.39-1.49-.08-2.21-.24-1.51-.08-2.23-.28-1.26-.93-1.97-1.16-1.4-.44-2.09-.71-1.59-.07-2.28-.34-1.12-1.29-1.81-1.56-1.57-.14-2.26-.41-1.52-.26-2.21-.53-1.08-1.39-1.77-1.66-1.59-.08-2.28-.35-1.55-.19-2.24-.46-1.23-1.02-1.92-1.28-1.39-.6-2.08-.87-1.35-.71-2.04-.97-1.65.07-2.34-.18-1.2-1.12-1.89-1.37-1.66.14-2.35-.11-1.45-.44-2.14-.67c-.73-.25-1.45-.43-2.15-.65-.74-.23-1.18-1.33-1.89-1.54-.74-.22-1.7.43-2.41.25-.75-.2-1.28-1.13-1.99-1.29-.75-.17-1.52-.21-2.24-.34-.76-.14-1.53-.11-2.25-.2-.77-.1-1.54.36-2.27.32-.77-.04-1.5-.96-2.23-.94s-1.47.69-2.2.79-1.59.14-2.31.32c-.66-.95.05-1.14.83-2.3.37-.55.79-1.33,1.44-1.92.52-.47,1.32-.8,2.06-1.22.61-.35,1.37-.63,2.16-.91.67-.23,1.44-.44,2.26-.59.71-.13,1.49-.23,2.31-.29.72-.05,1.51.08,2.32.11.71.02,1.47.08,2.27.13.72.05,1.45.41,2.23.49.73.07,1.49.05,2.26.14.73.09,1.43.56,2.19.67s1.56-.34,2.32-.21,1.42.6,2.17.73,1.44.46,2.19.61,1.6-.33,2.35-.17,1.37.78,2.11.95,1.55-.01,2.29.16,1.33.88,2.07,1.07,1.52.16,2.25.36,1.68-.34,2.4-.12,1.31.94,2.02,1.16,1.5.29,2.21.53,1.49.36,2.2.62,1.42.58,2.11.86,1.46.49,2.14.78,1.21,1.04,1.88,1.36c.7.33,1.61.23,2.25.58.69.37,1.4.72,2.02,1.11.93.62.55.6,1.83,1.2.57.27,1.17.76,1.98,1.04.65.23,1.47,0,2.25.19.68.17,1.31.71,2.09.83.7.11,1.43.37,2.21.43.72.05,1.47.14,2.25.14.72,0,1.45-.33,2.23-.39.72-.06,1.52.25,2.28.12.72-.11,1.33-.85,2.09-1.02.71-.16,1.41-.37,2.15-.59s1.4-.44,2.08-.64,1.4-.43,2.09-.62,1.63.38,2.31.2,1.2-1.21,1.89-1.38c.72-.18,1.6.36,2.29.2.73-.17,1.49-.05,2.18-.18.73-.15,1.26-1.3,1.95-1.41.74-.12,1.54.26,2.23.18.75-.09,1.48.03,2.18,0,.75-.04,1.46.26,2.15.28.76.02,1.48-.29,2.17-.19.75.11,1.6-.22,2.26,0,.71.23,1.69.98,2.31,1.33Z"/><path class="cls-1" d="m212.25,57.52c-1.14-.07-.29-.5-1.3-1.56-.44-.47-.94-1.09-1.59-1.68-.51-.47-1.35-.69-2-1.21-.56-.45-.9-1.29-1.56-1.76-.6-.42-1.54-.4-2.22-.83-.62-.39-1.09-1.12-1.79-1.5-.65-.36-1.5-.39-2.21-.73-.67-.32-1.47-.37-2.2-.67s-1.25-.95-1.99-1.21-1.38-.69-2.13-.91-1.54-.14-2.3-.32-1.48-.33-2.25-.47-1.56.26-2.33.16-1.47-.29-2.25-.35-1.49-.22-2.27-.25-1.51-.65-2.28-.64-1.52.38-2.3.42-1.52.09-2.3.16-1.49.36-2.21.43c-.77.07-1.5.25-2.22.32-.77.08-1.53,0-2.25.09-.77.09-1.56-.24-2.28-.15-.77.09-1.43.84-2.14.94-.77.1-1.59-.43-2.31-.33-.77.11-1.52.17-2.23.27-.77.11-1.53.12-2.24.22-.77.11-1.4,1-2.12,1.1-.77.1-1.53.03-2.25.11-.76.09-1.53-.04-2.26.02s-1.49.51-2.23.54-1.51-.11-2.26-.12-1.47-.39-2.23-.45c-.72-.05-1.42-.41-2.19-.51-.71-.09-1.53.36-2.3.23-.7-.12-1.35-.73-2.11-.89-.7-.15-1.57.33-2.33.15-.7-.16-1.32-.78-2.08-.97-.7-.18-1.29-.83-2.04-1.03-.7-.19-1.15-.16-1.9-.37-.52-.97-.28-.78.58-1.74.41-.46,1.02-.81,1.83-1.16.58-.25,1.28-.2,2.13-.29.65-.07,1.35-.56,2.18-.51.67.04,1.43-.2,2.23-.14.69.05,1.36,1,2.14,1.05.7.05,1.47-.32,2.24-.28.71.04,1.46-.16,2.22-.14.71.02,1.45-.03,2.2-.03s1.47.72,2.23.69,1.45-.44,2.2-.48,1.45-.27,2.2-.34,1.44-.24,2.19-.33,1.51.21,2.25.09,1.48-.1,2.22-.25,1.25-1.11,1.98-1.29,1.62.39,2.34.18,1.32-.72,2.03-.96,1.28-.77,1.98-1.03,1.32-.63,2-.93,1.5-.25,2.2-.46,1.4-.5,2.12-.63,1.49.1,2.22.04,1.44.24,2.18.25,1.47-.37,2.2-.29,1.39.51,2.12.64,1.39.4,2.1.58,1.61-.34,2.31-.12,1.21,1.02,1.89,1.27,1.45.31,2.12.6,1.35.6,2,.91,1.31.67,1.95,1.01,1.31.69,1.93,1.04c.65.38,1.49.42,2.1.8.65.41,1.17.97,1.74,1.36.64.44,1.21.92,1.76,1.33.65.49,1.28.89,1.78,1.31.72.6,1.39,1.37,1.74,1.75.79-.82-.58-.92-.85-2.34-.12-.62.39-1.52.09-2.35-.23-.64-.35-1.45-.73-2.2-.31-.62-1.13-1.05-1.57-1.73-.38-.6-.52-1.44-1.01-2.07-.44-.56-.94-1.16-1.47-1.75-.48-.53-1.16-.95-1.72-1.5-.52-.5-.84-1.29-1.44-1.81-.55-.47-1.74-.21-2.36-.69-.58-.45-.87-1.32-1.51-1.77-.95-.57-.75-.38-2.06-.85-.59-.21-1.33-.38-2.14-.6-.66-.18-1.29-.82-2.07-.97-.69-.13-1.47-.12-2.24-.21-.71-.08-1.47-.26-2.24-.29-.72-.03-1.49-.02-2.26,0-.72.03-1.45.46-2.21.54s-1.49.01-2.24.16-1.47.24-2.2.44-1.47.3-2.19.57-1.56,1.19-2.25,1.51c-.65-.93.84-.92,1.75-2,.42-.49.86-1.09,1.53-1.65.53-.44.96-1.16,1.67-1.59.6-.36,1.42-.45,2.17-.77.65-.28,1.41-.37,2.18-.6.69-.2,1.42-.24,2.21-.38.71-.13,1.38-.71,2.17-.78.72-.06,1.49-.15,2.28-.16.73,0,1.51-.26,2.3-.22.73.04,1.44.7,2.22.79.73.09,1.43.39,2.21.53.72.12,1.49.1,2.25.27.72.16,1.55-.07,2.31.13.71.19,1.39.62,2.14.84,1.06.39.7.45,1.93,1.18.55.33,1.17.76,1.88,1.25.57.39,1.52.39,2.16.9.56.44.74,1.41,1.34,1.94.54.48,1.58.5,2.13,1.06.52.52.89,1.24,1.4,1.83.49.55.69,1.36,1.17,1.98s1.08,1.07,1.51,1.71.42,1.5.8,2.16.62,1.34.96,2.03,1.46.98,1.76,1.69-.16,1.66.09,2.39.58,1.37.78,2.12.43,1.62.58,2.38c1.02.64,1.04-.02,2.45.32.67.16,1.39.39,2.21.78.66.32,1.37.63,2.06,1.15.59.45,1.12,1.01,1.7,1.65.5.55.77,1.29,1.24,2.01.41.63,1.12.99,1.48,1.77-.87.74-.86.06-2.17-.37-.63-.21-1.28-.69-2.1-.87-.7-.16-1.45-.23-2.24-.32-.74-.08-1.47.04-2.25.06s-1.58-.51-2.33-.36-1.54.35-2.25.66-1.44.67-2.06,1.15c-.58.44-.86.89-1.37,1.51Z"/><path class="cls-1" d="m83.98,63.2c-.27,1.09-.71.25-2.07.61-.62.16-1.37.31-2.18.58-.66.22-1.39.43-2.14.72-.67.26-1.3.69-2.02,1.02-.66.3-1.45.41-2.14.78s-1.16.97-1.81,1.38-1.43.55-2.05,1-1.07,1.07-1.64,1.57-1.11,1-1.64,1.55-1.16.98-1.63,1.58-.7,1.34-1.1,1.99-.98,1.18-1.3,1.87-.26,1.5-.5,2.23-.76,1.33-.92,2.09-.06,1.5-.14,2.27c-.08.73-.2,1.47-.21,2.25,0,.73,0,1.48.06,2.25-.28,1.23-.48,1.05-1.36,2.09-.52.61-1.1,1.32-1.87,1.7-.72.35-1.56.33-2.47.1-.63-.16-1.23-.56-1.74-1.33-.37-.56-.52-1.32-.79-2.13-.23-.67-.75-1.32-.89-2.13-.13-.72,0-1.51-.04-2.3-.04-.74-.05-1.5,0-2.28s-.05-1.53.07-2.3.34-1.49.53-2.24.52-1.43.8-2.15.48-1.45.84-2.13.82-1.35,1.26-1.99c-.53-1.03-.99-.27-2.33-.45-.69-.09-1.48-.04-2.32-.01-.75.03-1.52.09-2.28.31s-1.36.6-2.01,1.07c-.6.43-1.4.73-1.85,1.43-.74,1.15-.98,1.23-1.22.58-.16-.44-.21-1.1-.02-2.05.12-.62.07-1.39.37-2.15.25-.62.77-1.18,1.16-1.85.34-.6.74-1.18,1.2-1.79.42-.55.8-1.17,1.33-1.71.48-.5,1.05-.95,1.63-1.42.54-.44,1.11-.88,1.74-1.29.59-.38,1.25-.66,1.92-1,.62-.32,1.17-.87,1.86-1.15.65-.26,1.32-.6,2.03-.82s1.48-.27,2.2-.43,1.5-.13,2.22-.24,1.45-.48,2.18-.55,1.5-.03,2.23-.05,1.49.28,2.22.31,1.51-.14,2.23-.07,1.52.02,2.23.13c.75.12,1.5.26,2.2.41.75.17,1.47.4,2.15.59.75.21,1.36.75,2.03.98.76.26,1.51.36,2.14.62.78.32,1.54.47,2.1.74,1.26.61,2.03.11,1.76,1.18Z"/></g></svg>