<?xml version="1.0" encoding="UTF-8"?><svg id="hair" xmlns="http://www.w3.org/2000/svg" viewBox="0 0 300 300"><defs><style>.cls-1{fill:#fff;}.cls-2{fill:#a8534a;}.cls-3{fill:#d66a5e;}</style></defs><g id="hair_18"><path class="cls-3" d="m108.62,72.41c.74.69.21.66.55,1.92.15.55.89,1.02,1.13,1.77.18.59-.26,1.44-.01,2.13.21.6-.09,1.45.17,2.12.24.6,1.43.84,1.72,1.49.26.6.8,1.08,1.1,1.71.28.59.35,1.3.67,1.92.3.59-.12,1.58.22,2.19s1.07.94,1.42,1.53.4,1.33.77,1.92.51,1.29.89,1.86,1.08.9,1.48,1.46.89,1.02,1.31,1.56,1.12.82,1.55,1.35.49,1.34.93,1.86.74,1.15,1.2,1.66,1.52.42,1.99.92.78,1.11,1.26,1.59.81,1.09,1.31,1.56.6,1.35,1.11,1.81,1.66.15,2.18.59.53,1.47,1.06,1.9.87,1.09,1.41,1.51,1.22.64,1.77,1.04.99.96,1.56,1.35,1.73-.15,2.3.23.77,1.29,1.35,1.65,1.53.08,2.12.43.79,1.32,1.39,1.65c.86.52.59.54,1.67,1.15.51.28,1.14.56,1.81.9.56.28,1.13.68,1.78.98.59.27,1.14.76,1.78,1.02s1.58-.39,2.23-.16,1.33.16,1.98.34,1.03,1.53,1.69,1.66c.67.13,1.49-.73,2.15-.67s1.3-.25,1.95-.29c.69-.04,1.23-.14,1.86-.31s1.35.02,1.92-.32,1.06-.7,1.53-1.22c.42-.47.66-1.05.98-1.69.28-.56,1.13-.96,1.32-1.66.16-.6.19-1.33.28-2.05.08-.63.1-1.32.11-2.04.01-.64-.6-1.71-.64-2.42.74-.66,1.01.67,2.25.99.54.14,1.37-.36,2.1-.15.58.17,1.14.62,1.83.83.59.19,1.26.28,1.92.51.59.2,1.08.81,1.73,1.05.59.22,1.38.02,2.02.27.59.24.88,1.29,1.5,1.55.59.25,1.34.17,1.96.44s.95,1.05,1.55,1.34,1.24.41,1.84.71,1.08.73,1.68,1.05,1.61-.23,2.2.1.68,1.45,1.26,1.79c.56.33,1.72-.3,2.29.05.56.34.95.98,1.51,1.35s1.3.43,1.85.81.41,1.7.95,2.09,1.45.24,1.98.64,1.21.59,1.74,1.01.94.94,1.45,1.37c.5.42.66,1.25,1.16,1.69s.8,1.06,1.28,1.52,1.35.48,1.83.95.63,1.22,1.09,1.7.89.96,1.33,1.45.79,1.05,1.22,1.55.98.88,1.4,1.4.93.94,1.33,1.46,1.11.82,1.5,1.36.56,1.22.93,1.77,1.27.75,1.63,1.31-.19,1.68.15,2.25,1.03.98,1.36,1.56c.9.54.94.54,2.17.47.61-.03,1.16-1.25,1.9-1.42.65-.15,1.7.78,2.36.48.61-.28.67-1.53,1.23-1.99.52-.42.99-.77,1.42-1.37.38-.53.58-1.1.85-1.8.24-.6.76-1.12.89-1.86.12-.64.66-1.29.69-2.04.03-.65-.32-1.35-.37-2.1.84-.54.78.15,1.82.87.47.33.77,1.06,1.36,1.53.48.38,1.05.74,1.58,1.23.47.43.65,1.18,1.14,1.69.45.46,1.06.78,1.51,1.3.43.49,1.45.53,1.86,1.08s.62,1.21,1,1.79.18,1.44.52,2.03.86,1.03,1.15,1.65,1.13.98,1.37,1.61.53,1.27.73,1.92-.36,1.49-.21,2.15,1.05,1.18,1.15,1.85-.94,1.44-.89,2.13.71,1.07.71,1.76c.76.64.68.57,1.86.25.55-.15,1.28-.26,1.97-.55.56-.23.97-.98,1.59-1.34.54-.31.93-.89,1.49-1.31.5-.38.77-1.01,1.27-1.49.46-.44,1.18-.62,1.62-1.15.4-.49,1.25-.71,1.63-1.28.35-.53.59-1.19.91-1.81.29-.56.15-1.36.42-2,.24-.59.6-1.15.81-1.81.2-.61.69-1.16.86-1.83.15-.62.34-1.28.46-1.95.11-.63.17-1.31.25-1.99.07-.59.55-1.22.62-1.95.06-.61-1.1-1.37-1.05-2.08.04-.63.78-1.24.82-1.94.03-.63.27-1.29.29-1.98.02-.64-.07-1.31-.06-1.99,0-.64.23-1.31.23-1.99s-.75-1.3-.76-1.98.24-1.31.22-1.99-.28-1.3-.31-1.97.56-1.35.52-2.02,0-1.32-.06-1.99,0-1.33-.05-2-.43-1.29-.5-1.95-.97-1.21-1.05-1.88,1.04-1.47.95-2.13-1.12-1.17-1.22-1.83-.55-1.24-.67-1.9.84-1.49.72-2.15-.07-1.34-.21-1.99-1.18-1.1-1.33-1.75-.07-1.34-.22-1.99-.78-1.16-.94-1.81-.02-1.36-.2-2-.26-1.3-.45-1.94-.93-1.09-1.13-1.73-.24-1.3-.45-1.93.21-1.47-.02-2.09-.59-1.2-.82-1.82.05-1.45-.19-2.07-1.38-.87-1.64-1.48-.09-1.4-.36-2.01-.88-1.05-1.16-1.65,0-1.47-.3-2.07-1.36-.79-1.67-1.38-.57-1.19-.89-1.77-.79-1.06-1.13-1.63.23-1.68-.12-2.24-.71-1.13-1.07-1.69-.62-1.19-1-1.74-1.57-.53-1.95-1.07-.33-1.39-.73-1.93-.66-1.17-1.07-1.69-1.54-.46-1.96-.98-.03-1.7-.47-2.2-.94-.95-1.38-1.44-1.35-.56-1.81-1.04-.76-1.1-1.23-1.57-.96-.91-1.44-1.37-.86-1.01-1.35-1.46-1.08-.77-1.59-1.21-.59-1.36-1.1-1.78-1.53-.22-2.05-.63-.83-1.08-1.36-1.49-1.38-.35-1.92-.74-.94-.95-1.49-1.32-.65-1.41-1.21-1.78-1.59.03-2.16-.32-1.21-.53-1.79-.87-.76-1.32-1.34-1.65-1.56.1-2.15-.21-1.07-.78-1.67-1.08-.86-1.25-1.46-1.54-1.51.1-2.11-.17-1.23-.46-1.84-.72-.79-1.54-1.41-1.79-1.61.46-2.23.22-.9-1.36-1.53-1.58-1.32-.24-1.96-.46-1.14-.78-1.78-.99-1.27-.41-1.91-.6-1.56.6-2.2.41-1.22-.53-1.87-.7-1.18-.71-1.83-.87-1.3-.25-1.95-.4-1.18-.8-1.84-.94-1.32-.21-1.97-.34-1.52.91-2.18.79-1.3-.22-1.96-.33-1.22-.71-1.88-.81-1.28-.39-1.94-.48-1.37.27-2.03.18-1.33.01-2-.06-1.23-.85-1.9-.92c-.96-.14-.73.18-1.96.03-.54-.07-1.17-.25-1.91-.32-.59-.05-1.21-.47-1.9-.52-.61-.04-1.29.82-1.97.8-.62-.02-1.25.03-1.92.02-.62,0-1.26-.29-1.92-.28-.63,0-1.31-.91-1.97-.88s-1.28.3-1.93.35-1.24.56-1.89.63-1.26.24-1.91.32-1.37-.46-2.01-.35-1.1,1.14-1.74,1.27-1.32-.05-1.95.1-1.36-.09-1.98.08-1.28.27-1.9.47c-.74.24-1.25.17-1.59-.36s-.25-1.09.28-1.65c.41-.44.88-.87,1.37-1.33.45-.42.52-1.32,1.04-1.75.48-.4,1.06-.74,1.6-1.13.51-.36,1.39-.2,1.95-.54s1.01-.76,1.6-1.06.89-1.14,1.5-1.39,1.31-.19,1.94-.4,1.39-.12,2.03-.27c.61-.7,0-.83-.83-1.73-.32-.35-.88-.51-1.58-.87-.47-.24-1.09-.12-1.78-.33-.53-.16-.92-.99-1.6-1.13-.51-.1-1.14-.54-1.92-.61-.59-.05-1.28.42-2,.4-.61-.02-1.26.02-1.96.03-.62,0-1.31-.69-1.99-.65-.63.03-1.31,0-1.98.07-.63.05-1.24.73-1.9.81s-1.32-.08-1.98.02-1.27.3-1.93.42-1.38-.21-2.03-.07-1.2.65-1.85.81-1.14.79-1.78.96-1.4-.13-2.03.07-1.29.31-1.91.53-1.14.71-1.75.95-.91,1.19-1.51,1.45-1.41.02-2.01.31-.89,1.1-1.46,1.42-1.32.29-1.88.63-1.43.19-1.98.56-1,.87-1.53,1.26-1.23.57-1.74.98-1.1.77-1.59,1.21-.17,1.72-.63,2.18-.94.87-1.38,1.36-1.1.76-1.51,1.27-.36,1.33-.75,1.87-1.3.66-1.65,1.22c-1.01.09-.34-.85-1.46-1.48-.49-.28-1.05-.82-1.76-1.13-.56-.25-1.53.32-2.22.08-.6-.2-1.17-.61-1.87-.79-.62-.16-1.29-.26-1.99-.39-.64-.12-1.26-.59-1.96-.67-.64-.07-1.33-.38-2.02-.41-.65-.03-1.34,1.14-2.04,1.15-.65.01-1.38-1.19-2.08-1.14-.65.05-1.21,1.27-1.9,1.36-.65.08-1.41-.5-2.1-.37-.65.12-1.21.71-1.89.86s-1.43-.22-2.1-.03-1.11.93-1.77,1.14-1.4.02-2.05.26-1.25.48-1.89.74-1.4.15-2.03.43-.93,1.19-1.56,1.49-1.43.17-2.05.49c-.86.52-.81.52-1.61,1.29-.45.44-.23,1.47-.58,2.05-.37.6-1.7.99-1.66,1.63.04.59,1,1.03,1.63,1.57.68.58,1.16,1.13,1.71,1.43.74.4,1.19,1.21,1.85,1.44s1.41,0,2.14.44c.53.32.72.6,1.37,1.2.03,1.01-.35,0-1.44.72-.47.31-.95.83-1.58,1.29-.49.36-1.03.79-1.6,1.24-.49.39-1.07.76-1.62,1.22-.49.41-.58,1.33-1.1,1.8-.48.43-1,.84-1.51,1.32-.47.45-.77,1.09-1.26,1.58-.46.46-.84,1.01-1.32,1.51s-.99.88-1.45,1.39-1.36.57-1.81,1.1-.63,1.21-1.06,1.74-.47,1.32-.88,1.86-.75,1.09-1.15,1.64-1.06.88-1.44,1.44-.78,1.08-1.15,1.65-1.02.94-1.37,1.52-.02,1.54-.36,2.13-1.1.91-1.43,1.51-1.1.93-1.42,1.54-.42,1.3-.72,1.91.14,1.54-.14,2.16-.93,1.04-1.2,1.67-.16,1.37-.41,2.01-.55,1.21-.79,1.85-1.55.87-1.77,1.51.63,1.63.42,2.27-.43,1.26-.62,1.91-.8,1.16-.99,1.82-.62,1.23-.78,1.89-.65,1.23-.8,1.9,0,1.38-.13,2.05c-.14.65.18,1.41.05,2.07s-.63,1.25-.75,1.92-.26,1.32-.36,2,.65,1.44.56,2.12-1.3,1.16-1.38,1.84c-.18,1,.91.92.65,2.19-.11.56-.73,1.13-.86,1.89-.11.61-.43,1.25-.54,1.97-.1.63-.24,1.3-.33,2-.09.64.32,1.38.25,2.07-.07.65-.31,1.3-.37,2s-.76,1.29-.8,1.98.8,1.39.77,2.07-.03,1.33-.03,2.02-.16,1.34-.15,2.02.12,1.34.16,2.02-.07,1.35-.02,2.03.44,1.3.52,1.97.21,1.32.32,1.98-.91,1.56-.76,2.22.46,1.32.64,1.96,1.45.96,1.67,1.59c.23.64-.12,1.49.15,2.1s.68,1.17,1,1.76.71,1.14,1.08,1.7.46,1.36.9,1.87.94,1.04,1.44,1.5c.75.6.91-.09,2.01.09.54.09,1.24,1.05,1.96.91.56-.11.99-1,1.62-1.34.5-.28.83-.82,1.36-1.29.43-.39,1.54-.23,1.98-.77.37-.46-.06-1.56.31-2.14.32-.5,1.62-.5,1.94-1.11.28-.53.16-1.33.44-1.95.25-.55-.35-1.48-.11-2.11s.55-1.18.78-1.8.48-1.21.7-1.84.93-1.06,1.15-1.68.62-1.17.84-1.79.83-1.1,1.05-1.72-.16-1.45.06-2.07.65-1.16.88-1.78-.04-1.41.2-2.03,1.3-.91,1.54-1.53-.28-1.53-.04-2.14.59-1.18.85-1.79.19-1.36.46-1.96,1.13-.93,1.41-1.53.01-1.47.31-2.05,1.19-.87,1.5-1.45.25-1.37.58-1.94.81-1.06,1.16-1.62.84-1.03,1.21-1.58.62-1.17,1.01-1.71.63-1.19,1.03-1.71,1.14-.77,1.57-1.27.33-1.48.79-1.97,1.03-.87,1.5-1.33,1.48-.35,1.97-.79.56-1.37,1.08-1.79,1.06-.45,1.59-.84c.12,1-.28.73-.7,1.75-.25.59-.48,1.28-.58,1.94-.1.72-.06,1.45.28,1.99.3.48.94.48,1.8.62.54.09,1.13.28,1.94.18.57-.07,1.4.13,2.03-.29.49-.32,1.04-.8,1.56-1.3.44-.42,1.08-.78,1.54-1.31.41-.47.07-1.6.49-2.14.39-.5,1.2-.7,1.6-1.25.37-.52.19-1.44.57-2s.89-.95,1.26-1.51.64-1.13,1-1.69.91-.96,1.26-1.52.75-1.07,1.11-1.63.74-1.08,1.09-1.63.57-1.2.93-1.75.66-1.14,1.02-1.69.57-1.22.93-1.75,1.07-.87,1.44-1.4,1.06-.87,1.45-1.38,1.01-.89,1.41-1.39.11-1.63.53-2.11c.44-.51,1.56-.39,2-.84.47-.49.81-1.05,1.28-1.46.52-.46.97-.89,1.48-1.24.58-.39.77-1.54,1.34-1.76.64-.26,1.51.27,2.13.25Z"/><path class="cls-2" d="m229.08,69.32c.43.27.8.58,1.2.9s.99.4,1.35.75c.39.38.91.83,1.45,1.41.41.44.89.92,1.37,1.48.4.47.64,1.15,1.09,1.71.39.5,1.01.88,1.43,1.44.38.51.5,1.25.9,1.83.37.53.62,1.16,1,1.74.35.54.79,1.06,1.15,1.64.34.56.59,1.18.94,1.78.33.57.77,1.08,1.1,1.69s.84,1.06,1.15,1.67.54,1.21.84,1.83.34,1.3.63,1.92.92,1.05,1.19,1.67.36,1.29.62,1.92.38,1.28.62,1.92.59,1.2.82,1.84.54,1.23.75,1.87.29,1.31.5,1.96.38,1.28.57,1.93.49,1.25.67,1.91c.17.64.11,1.35.28,2.01s.25,1.31.41,1.97.38,1.28.53,1.95.45,1.27.58,1.94.32,1.3.44,1.97.23,1.32.34,1.99c.17,1.01.14.78.33,2.02.08.58-.27,1.33-.18,2.08.08.63.26,1.3.34,2.01.07.66.39,1.31.44,2.01s.19,1.36.22,2.04-.1,1.38-.1,2.05c0,.7.04,1.4,0,2.05-.04.72-.16,1.41-.25,2.04-.11.75-.24,1.44-.45,2.01-.28.76-.87,1.11-1.37,1.42s-1.07.63-1.87.31c-.97-.25-.64-.15-1.88-.67-.5-.21-1.06-.58-1.74-.97-.51-.3-1-.75-1.61-1.17-.5-.35-1.14-.59-1.7-1.04-.49-.39-.98-.84-1.51-1.32-.47-.42-.87-.96-1.38-1.45-.46-.45-1.03-.82-1.51-1.33-.45-.47-.74-1.08-1.18-1.53s-1.25-.58-1.7-1.01-.89-.94-1.35-1.36c-.48-.45-.77-1.09-1.23-1.5-.5-.44-1.06-.78-1.54-1.16-.53-.42-1.06-.78-1.55-1.13-.56-.39-.98-.95-1.49-1.24-.62-.35-1.33-.37-1.86-.56-.71-.25-1.32-.38-1.86-.31-.65.09-.93.43-1.27,1.07-.08,1,.15.78.32,1.93.09.6-.09,1.32-.07,2.03s.1,1.36-.01,2c-.13.71-.44,1.3-.82,1.8s-.84.98-1.6,1.07c-.86.48-.46.34-1.82-.2-.46-.18-1.03-.39-1.7-.9-.44-.34-.92-.76-1.46-1.3-.42-.41-1.05-.72-1.53-1.26-.4-.45-.54-1.19-.99-1.75-.38-.48-.94-.87-1.36-1.43-.37-.5-.78-1.02-1.18-1.59-.36-.51-.67-1.1-1.06-1.67-.35-.53-.8-1.02-1.17-1.6s-.55-1.27-.96-1.8-.91-1.01-1.36-1.51-1.17-.74-1.66-1.2-.69-1.25-1.21-1.68-1.15-.74-1.69-1.13-1.14-.73-1.7-1.1-1.24-.54-1.83-.87-1.02-.95-1.62-1.26-1.33-.35-1.94-.63-1.23-.55-1.85-.8-1.26-.48-1.89-.72-1.26-.5-1.89-.71-1.26-.49-1.9-.69-1.22-.66-1.86-.84-1.43.07-2.07-.1-1.3-.39-1.94-.55-1.23-.7-1.87-.86c-.68-.16-1.41.03-2.05-.12-.68-.16-1.33-.38-1.95-.52-.7-.16-1.32-.44-1.93-.59-.72-.18-1.37-.33-1.95-.51-.76-.23-1.35-.49-1.84-.73-.82-.62-.71-.74-.95-1.7-.15-.6-.39-1.36.26-1.96.38-.36,1.06-.65,1.9-.94.55-.19,1.2-.49,2-.63.61-.1,1.33.04,2.1-.02.64-.06,1.29-.28,1.95-.3s1.3.33,1.96.34,1.29-.03,1.96.01,1.3-.03,1.96.04,1.29.17,1.94.27,1.24.44,1.89.56,1.3.1,1.94.24,1.22.46,1.86.62,1.34,0,1.98.18,1.3.2,1.93.39,1.12.78,1.75.98,1.21.46,1.84.68,1.39-.02,2.01.21c.61.23,1.14.67,1.75.91s1.11.73,1.72.98,1.27.34,1.87.6,1.28.34,1.88.61,1.09.75,1.69,1.03,1.12.67,1.72.96,1.12.18,1.71.48c.77-.63.11-.8.63-1.76.28-.53.8-1.06,1.35-1.51.47-.38,1.16-.4,1.88-.55.57-.12,1.18-.37,1.92-.25.57.09,1.14.45,1.83.71.56.21,1.33.12,1.97.47.57.31,1.04.8,1.6,1.11s1.14.62,1.7.93,1.16.6,1.71.91,1.13.67,1.68.97c.59.32,1.2.54,1.75.83.6.31,1.15.67,1.7.93.64.29,1.27.44,1.82.64.7.25,1.3.4,1.84.46.79.09,1.22-.06,1.61-.49.34-.37.67-.81.63-1.67-.02-.54-.1-1.21-.24-2-.1-.6-.21-1.26-.37-1.98-.14-.61-.34-1.26-.52-1.95-.16-.62-.55-1.21-.74-1.89-.18-.63-.13-1.34-.34-2.01-.2-.63-.2-1.34-.41-1.99s-.78-1.14-1.01-1.79-.55-1.22-.79-1.86-.38-1.29-.63-1.92-.21-1.37-.47-1.99-.68-1.18-.95-1.8-.43-1.29-.71-1.9-.48-1.27-.77-1.88-.72-1.16-1.03-1.75-.67-1.18-.99-1.77-.79-1.11-1.12-1.69-.55-1.26-.91-1.82-.69-1.18-1.07-1.72c-.4-.57-1.08-.99-1.49-1.5-.28-1.13.03-1.53.82-2.26.43-.4,1.18-.54,2.27-.21.58.18,1.17.65,2,1.18Z"/><path class="cls-2" d="m63.86,92.51c.41.9-.46.52-1.21,1.56-.32.45-.8.93-1.23,1.56-.34.5-.71,1.04-1.1,1.65-.33.52-.57,1.15-.94,1.75-.33.54-.53,1.18-.88,1.78-.32.55-.81,1.03-1.14,1.63-.31.56-.57,1.17-.89,1.77-.3.57-.63,1.14-.93,1.75s-.61,1.16-.9,1.76-.37,1.27-.64,1.88-.63,1.15-.9,1.77-.49,1.22-.74,1.84-.67,1.15-.9,1.78-.16,1.34-.38,1.97-.49,1.22-.7,1.86-.5,1.22-.7,1.86-.28,1.29-.47,1.93-.58,1.21-.75,1.85-.11,1.33-.26,1.98-.34,1.27-.48,1.92-.39,1.27-.51,1.92-.1,1.32-.21,1.98-.28,1.29-.37,1.95c-.13.98-.06.81-.28,1.96-.11.58-.45,1.19-.61,1.89-.15.63-.35,1.26-.55,1.89s-.28,1.33-.54,1.9c-.31.68-.67,1.24-1.06,1.65-.52.54-1.05.69-1.72.42-.45-.18-1.03-.46-1.56-1.16-.33-.43-.52-1.1-.77-1.87-.19-.57-.51-1.19-.66-1.92-.13-.61-.31-1.28-.4-2-.09-.64.08-1.34.01-2.05-.06-.65-.19-1.32-.23-2.02-.04-.65.08-1.33.06-2.03s-.04-1.33-.04-2.02c0-.66-.22-1.34-.22-2.03s.03-1.34.05-2.03.27-1.33.3-2.02-.16-1.36-.11-2.04.1-1.35.16-2.02.03-1.36.1-2.03.24-1.34.32-2.01.25-1.33.34-2.01.24-1.33.34-2,.01-1.37.13-2.04.28-1.33.42-1.99.44-1.3.58-1.96.29-1.33.45-1.98.27-1.34.44-1.99.39-1.31.59-1.95.26-1.35.48-1.98c.23-.65.72-1.19.96-1.81s.34-1.34.62-1.95c.29-.63.56-1.26.87-1.85.33-.62.89-1.08,1.24-1.63.38-.59.58-1.28.99-1.79.44-.55.96-.96,1.43-1.41.82.52-.05.83.61,1.84.3.45.81.89,1.4,1.38.44.37,1.01.66,1.66,1,.52.27,1.04.72,1.72.95.57.2,1.24.24,1.93.39.59.13,1.24.17,1.93.26.61.08,1.25.1,1.94.15.62.04,1.26.1,1.94.11.62,0,1.26.11,1.95.09Z"/><path class="cls-1" d="m106.41,52.65c-.71-.31-.1-.6-.36-1.47-.13-.44-.28-.95-.5-1.47-.19-.46-.5-.9-.77-1.34s-.55-.88-.91-1.24-.8-.66-1.26-.86-.95-.36-1.5-.33c-.46.03-.97.15-1.51.38-.42.18-.89.43-1.36.77s-.85.73-1.14,1.08c-.38.46-.51.95-.61,1.41-.11.52-.19,1.04-.01,1.55.16.46.52.87.85,1.31.3.4.68.75,1.08,1.11s.7.78,1.12,1.09.86.64,1.28.91c.48.31,1,.48,1.4.71.81.45,1.41-.04,1.36.73-.04.7-.57.19-1.3.54-.38.18-.82.38-1.22.69-.36.28-.71.6-.99.99-.26.37-.4.8-.52,1.29-.1.42-.15.86-.09,1.38.05.42.08.89.27,1.38.2.54.46,1,.73,1.38.33.47.68.88,1.1,1.12.46.27,1,.3,1.53.3.49,0,1-.07,1.52-.3.44-.2.86-.51,1.29-.87.37-.31.79-.63,1.15-1.06.31-.38.54-.86.82-1.33.26-.42.51-.87.74-1.37.21-.45.46-.98.65-1.5.78.07.25.65.81,1.42.27.37.6.8.98,1.23.33.37.69.77,1.1,1.13.38.34.87.58,1.31.87s.87.59,1.36.78.99.35,1.52.41,1.02-.06,1.56-.15c.49-.09,1.02-.12,1.53-.36.44-.2.9-.48,1.36-.81s.75-.7,1.02-1.03c.35-.42.59-.82.7-1.25.13-.48.11-.96-.02-1.43-.12-.44-.32-.88-.62-1.3-.26-.37-.6-.72-.98-1.07-.34-.32-.68-.68-1.09-.97s-.85-.46-1.28-.69-.84-.49-1.28-.68-.93-.32-1.37-.47c-.48-.16-.94-.32-1.39-.42-.52-.11-.99-.27-1.43-.28-.58-.02-1.05.08-1.39.27.65.31.53-.1,1.38-.3.41-.1.9-.14,1.41-.3.43-.14.86-.39,1.32-.58.44-.18.88-.36,1.31-.59s.88-.41,1.27-.69.7-.67,1.02-1.02.59-.74.81-1.18.48-.84.55-1.34c.06-.45-.05-.93-.13-1.44-.09-.56-.12-1.09-.3-1.53-.21-.53-.52-.97-.85-1.32-.37-.39-.81-.71-1.3-.87-.46-.15-1.01-.19-1.57-.13-.47.05-.95.3-1.48.51-.44.18-.91.39-1.39.68-.41.25-.87.52-1.3.86-.39.3-.77.65-1.17,1.02-.36.34-.77.67-1.14,1.07-.34.37-.68.76-1.02,1.18-.32.39-.53.88-.86,1.31-.3.4-.6.82-.9,1.27-.29.42-.61.78-.9,1.23Z"/></g></svg>