<?xml version="1.0" encoding="UTF-8"?><svg id="hair" xmlns="http://www.w3.org/2000/svg" viewBox="0 0 300 300"><defs><style>.cls-1{fill:#a8534a;}.cls-2{fill:#d66a5e;}</style></defs><g id="hair_11"><path class="cls-2" d="m232.73,75.62c-.54-.83-.1-.36.32-1.53.19-.52.32-1.17.5-1.9.14-.58.86-1.14.96-1.84.09-.61-.66-1.35-.63-2.05.03-.62.21-1.26.18-1.95-.02-.63.68-1.36.6-2.04-.08-.63-1.01-1.16-1.15-1.83-.13-.62-.4-1.21-.58-1.86-.17-.61.58-1.56.35-2.2-.22-.6-1.6-.75-1.88-1.37-.26-.58-.15-1.34-.46-1.94-.29-.57-.09-1.44-.43-2.03-.33-.55-1.07-.87-1.45-1.43-.35-.53-.81-1.01-1.21-1.55s-.66-1.13-1.08-1.66-1.02-.84-1.47-1.34-.46-1.35-.92-1.84-1.52-.33-2-.8-.99-.82-1.49-1.27-.14-1.8-.65-2.24-1.71,0-2.23-.42-.51-1.45-1.04-1.86-.85-1.06-1.38-1.46-1.1-.74-1.64-1.13-1.43-.25-1.98-.62-1.1-.73-1.67-1.08-1.3-.39-1.88-.72-.68-1.5-1.27-1.82-1.23-.54-1.83-.84-1.6.28-2.21,0-.86-1.32-1.48-1.58-1.54.28-2.17.04-1.29-.29-1.92-.52-1.01-1.09-1.64-1.31-1.2-.6-1.84-.8-1.14-.84-1.78-1.02-1.61.85-2.26.68-1.17-.76-1.81-.92-1.27-.36-1.93-.5-1.38.14-2.03,0-1.21-.69-1.87-.81-1.34,0-2-.12-1.25-.56-1.91-.66-1.38.35-2.05.26-1.17-1.27-1.84-1.35-1.41.61-2.07.55-1.34.18-2.01.12-1.33.15-2,.1-1.24-1.28-1.9-1.32-1.37.71-2.03.68-1.28-1.02-1.95-1.04-1.36,1.1-2.03,1.08-1.31-.67-1.98-.68-1.33.81-1.99.81-1.32,0-1.98,0-1.35-1.4-2.01-1.38-1.33.07-2,.09-1.28,1.28-1.94,1.3-1.33-.18-2-.15-1.36-.52-2.02-.48-1.33.02-2,.07-1.27.77-1.93.82-1.32.06-1.99.12-1.4-.68-2.06-.61-1.24.89-1.9.96-1.34,0-2,.08-1.39-.41-2.05-.32-1.2.99-1.86,1.09-1.32.17-1.97.27-1.31.18-1.97.29-1.35-.01-2,.1-1.32.15-1.98.27-1.26.48-1.92.6-1.28.37-1.93.5-1.48-.58-2.13-.44-1.21.71-1.86.86-1.11,1.1-1.76,1.24-1.44-.32-2.08-.17-1.19.72-1.83.88-1.28.33-1.93.49-1.53-.6-2.17-.43-1.15.86-1.78,1.04-1.33.2-1.97.38-1.19.68-1.82.87-1.16.76-1.79.96-1.62-.73-2.26-.53-1.23.53-1.86.74-1.07.98-1.7,1.2-1.53-.34-2.16-.12-1.21.6-1.83.83-.99,1.15-1.61,1.38-1.56-.35-2.18-.11-1.03,1.02-1.64,1.27-1.23.5-1.84.76-1.18.62-1.79.88-1.22.53-1.82.8-.99,1.18-1.62,1.43-1.6-.41-2.23-.2-1.21.66-1.86.84-1.17.94-1.82,1.09-1.56-.83-2.22-.7-1.29.38-1.96.49-1.26.72-1.93.8-1.31.48-1.98.55-1.45-.98-2.12-.93-1.28.99-1.95,1.03-1.41-.8-2.08-.76-1.33.32-2.01.36-1.34.31-2.01.35-1.33.42-2,.46-1.34.23-2.01.28-1.38-.25-2.05-.19-1.31.47-1.98.55-1.39-.19-2.05-.1-1.43-.28-2.09-.16-1.1,1.38-1.76,1.53-1.33.15-1.98.33-1.44-.11-2.08.11-1.35.28-1.97.54-1.19.68-1.8.98-.86,1.21-1.45,1.55-1.72-.22-2.29.16-.61,1.45-1.15,1.87-1.54.26-2.05.72-.44,1.47-.92,1.97-1.24.67-1.69,1.19-.34,1.43-.76,1.97-1.73.4-2.12.97-.28,1.43-.64,2.02-.54,1.23-.87,1.84-.26,1.36-.57,1.98c-.29.58-1.36.81-1.62,1.42s-.71,1.16-.94,1.79.49,1.56.29,2.19-.4,1.24-.56,1.88-.15,1.3-.29,1.95-.33,1.26-.44,1.91-.92,1.19-1,1.85-.51,1.29-.57,1.95.78,1.38.75,2.04-.86,1.31-.86,1.97.47,1.33.49,1.99.08,1.32.13,1.98.8,1.24.87,1.9-.79,1.44-.68,2.09.71,1.22.84,1.87.45,1.24.61,1.88-.38,1.48-.19,2.11.3,1.32.51,1.94.4,1.3.65,1.9,1.32.87,1.6,1.47.79,1.06,1.1,1.64-.42,1.8-.07,2.35,1.55.56,1.94,1.1.55,1.24.98,1.74,1.29.59,1.75,1.06.83.99,1.32,1.43.84,1.02,1.37,1.42,1.14.63,1.7.98,1.18.53,1.77.83,1.12.61,1.74.86c.6.25,1.25.28,1.89.47s1.22.32,1.88.46,1.16.79,1.82.89,1.24.89,1.91.95,1.35-.15,2.02-.15,1.28-.98,1.95-1.01,1.35.62,2.02.55,1.18-.98,1.84-1.09,1.37.34,2.03.21,1.3-.17,1.96-.34,1.25-.45,1.9-.64c1-.13.68-.28,2-.34.56-.02,1.27.64,2.05.58.6-.05,1.31.24,2.05.16.62-.06,1.31-.05,2.02-.13.63-.08,1.17-1.17,1.86-1.27.63-.09,1.41.54,2.1.43.64-.1,1.3-.25,1.98-.37.64-.11,1.18-.87,1.86-1,.64-.12,1.23-.56,1.91-.7.64-.13,1.28-.29,1.95-.44s1.37.05,2.03-.1,1.51.59,2.17.43,1.26-.46,1.92-.63,1.14-.9,1.79-1.08,1.14-.85,1.79-1.03,1.46.27,2.11.07,1.05-1.13,1.69-1.33,1.47.24,2.12.04,1.04-1.1,1.68-1.31,1.56.45,2.2.23,1.1-.9,1.74-1.12,1.61.54,2.25.3.79-1.71,1.43-1.94,1.25-.44,1.89-.69,1.67.6,2.3.35,1.26-.47,1.89-.73.89-1.35,1.51-1.62,1.08-.87,1.71-1.13,1.36-.23,1.98-.5,1.5.17,2.12-.09.78-1.52,1.4-1.78,1.21-.53,1.83-.78,1.51.21,2.13-.05.94-1.19,1.56-1.44,1.51.23,2.13-.01,1.25-.42,1.87-.66.98-1.13,1.6-1.37c.61-.23,1.43.06,2.05-.18s1.47.18,2.1-.05,1.04-.99,1.66-1.22,1.27-.37,1.89-.59,1.41.03,2.03-.19,1.04-1.01,1.67-1.23,1-1.15,1.63-1.36,1.66.82,2.29.61,1-1.17,1.63-1.37,1.4.04,2.03-.16,1.11-.87,1.74-1.07,1.43.14,2.06-.05,1.31-.22,1.94-.41,1.1-.95,1.73-1.13,1.36-.06,2-.24,1.29-.29,1.93-.47,1.11-.95,1.75-1.12,1.4.1,2.04-.07,1.2-.66,1.84-.82,1.14-.9,1.78-1.06,1.51.59,2.15.44,1.12-1.05,1.76-1.2,1.32-.17,1.97-.32,1.4.16,2.04.03,1.41.28,2.06.15,1.2-.76,1.85-.89,1.4.26,2.04.14,1.09-1.48,1.74-1.59,1.39.27,2.04.16c.66-.1,1.39.33,2.04.23s1.28-.37,1.94-.46,1.25-.76,1.9-.84,1.34.02,2-.04,1.3-.44,1.96-.49,1.33-.22,1.98-.26,1.36.32,2.01.3,1.35.57,2,.56,1.32.25,1.97.25,1.32-.13,1.97-.1,1.38-.74,2.03-.69,1.34.12,1.99.2,1.27.58,1.92.68,1.28.4,1.91.53,1.26.39,1.88.56,1.13.74,1.74.96,1.2.44,1.78.71,1.78-.55,2.34-.22.9,1.12,1.41,1.51,1.13.76,1.58,1.23.52,1.28.9,1.82.73,1.05,1.03,1.65.22,1.26.43,1.9,1,.99,1.12,1.66c.57.8.91-.14,1.92.59.45.32.1,1.86.69,2.33.46.38,1.69-.05,2.21.42.46.41.28,1.54.77,2.03.44.44,1.26.55,1.72,1.05.43.47,1.02.83,1.45,1.35.41.49.95.91,1.36,1.44.38.51.03,1.57.41,2.12s.84.97,1.19,1.54.58,1.14.9,1.72,1.3.78,1.59,1.37-.31,1.57-.04,2.18,1.8.66,2.04,1.28-.78,1.67-.56,2.3,1.17.99,1.35,1.63-.6,1.49-.44,2.14,1.37,1.02,1.5,1.67-.32,1.38-.21,2.03.1,1.29.17,1.95,1.01,1.22,1.06,1.88-.39,1.34-.36,2,.48,1.31.48,1.97-.73,1.46-.76,2.12c.65.77.94.39,2.23.22.55-.07,1.32-.03,2.07-.25.58-.17,1.27-.41,1.96-.7.57-.24.66-1.59,1.3-1.93.55-.3,1.21-.42,1.81-.81.53-.34,1.55-.05,2.12-.47.51-.38,1.12-.74,1.66-1.19.49-.41.43-1.51.94-1.98.47-.44.67-1.17,1.16-1.66.46-.46,1.36-.5,1.83-1.01.44-.48.83-1.03,1.28-1.55.42-.49,1.14-.78,1.57-1.31.41-.51.86-1.02,1.28-1.57s1.22-.86,1.58-1.44.1-1.54.4-2.14,1.21-.98,1.45-1.61-.8-1.71-.61-2.36,1.66-.99,1.79-1.65-.87-1.53-.79-2.2-.2-1.33-.17-2.01.03-1.3.02-1.98-.03-1.3-.1-1.98-.15-1.3-.26-1.96.23-1.39.08-2.05.56-1.57.36-2.22-.71-1.22-.96-1.86-1.09-1.02-1.37-1.63.27-1.67-.06-2.26-1.92-.43-2.29-1,.21-1.8-.2-2.33-1.43-.58-1.88-1.08-.62-1.28-1.11-1.74-1.02-.92-1.55-1.33-1.03-.92-1.6-1.28-1.55.02-2.15-.28-1.07-.8-1.71-1.04-1.28-.31-1.94-.47-1.26-.34-1.94-.43-1.27-1.11-1.95-1.13-1.37.4-2.06.45-1.2,1.04-1.88,1.16-1-.76-1.67-.58Z"/><path class="cls-1" d="m211.27,56.95c-.14-.84-.59-.46-1.39-1.23-.35-.33-1.07-.38-1.56-.82-.39-.34-.6-.97-1.08-1.36-.41-.34-1.07-.42-1.55-.8-.43-.34-.74-.86-1.22-1.22-.44-.33-.7-.94-1.19-1.29-.45-.32-.98-.57-1.47-.9-.46-.31-.85-.77-1.34-1.08s-.92-.66-1.42-.96-1.31.01-1.82-.28-.96-.59-1.47-.87-.9-.71-1.41-.98-1.14-.23-1.67-.49-.83-.87-1.36-1.12-.93-.71-1.46-.94-1-.58-1.53-.8-1.25.06-1.79-.15-1.01-.53-1.56-.73-1.08-.36-1.62-.55-1.01-.58-1.56-.76-1.04-.49-1.6-.66-1.29.35-1.84.2-.91-1.01-1.47-1.15-1.27.39-1.83.26-1.02-.66-1.58-.78-1.17.04-1.74-.08-1.06-.53-1.63-.64-1.18.15-1.75.06-1.09-.42-1.66-.5-1.13-.14-1.7-.21-1.11-.37-1.68-.43-1.17.3-1.75.25-1.11-.38-1.69-.42-1.14-.09-1.71-.12-1.16.46-1.74.44-1.12-.74-1.7-.75-1.15.43-1.73.42-1.14-.11-1.72-.1-1.15-.35-1.73-.33-1.13.33-1.71.36-1.15-.13-1.73-.09-1.14.13-1.72.18-1.14.18-1.71.24-1.14.12-1.71.18c-.85.08-.61,0-1.7.12-.47.05-1,.5-1.65.58-.51.07-1.08.11-1.69.2-.53.08-1.06.31-1.66.41-.53.08-1.08.24-1.67.34-.54.09-1.11.12-1.69.22-.54.1-1.17-.17-1.75-.06-.54.11-1.07.39-1.64.51s-1.04.49-1.61.62-1.09.28-1.65.41-1.15.05-1.71.19-1.1.24-1.66.39-1.15.08-1.71.23-.97.74-1.52.9-1.17.02-1.72.18-1.18.02-1.73.19-1.05.46-1.59.63-.93.8-1.48.98-1.15.12-1.7.31-.99.59-1.53.79-1.08.35-1.61.55-1.31-.23-1.84-.03-.81,1.04-1.34,1.26-1.05.42-1.58.64-1.15.21-1.67.44-1.11.32-1.63.56-1.12.3-1.64.55-.95.66-1.46.92-.89.75-1.4,1.02-1.12.32-1.62.59-1.01.53-1.51.81c-.78.44-.34.77-1.29,1.32-.44.26-1.31-.03-1.88.31-.48.28-.65,1.15-1.19,1.47-.49.29-1.15.35-1.67.67s-1.07.51-1.58.83-1.02.61-1.52.94-.84.9-1.33,1.22-1.06.59-1.53.92c-.51.36-1.23.4-1.68.73-.52.39-.66,1.17-1.07,1.52-.54.46-.94.86-1.23,1.23-.56.7-.74.91.02,1.05.44.08.95-.02,1.64-.17.5-.11,1.06-.18,1.66-.38.51-.17.97-.55,1.53-.78.51-.21,1.02-.46,1.56-.7.51-.23,1.33.15,1.86-.11s.99-.59,1.51-.86.71-1.12,1.22-1.39,1.2-.21,1.7-.49.98-.63,1.47-.91,1-.6,1.48-.88c.52-.3,1.14-.38,1.62-.66.53-.31,1.03-.61,1.48-.89.56-.34.86-.96,1.28-1.22.92-.57,1.01,0,1.75-.43s.33-.66,1.35-1.15c.44-.21.91-.6,1.52-.88.48-.22,1.23.04,1.81-.21.5-.22.8-.99,1.37-1.23.51-.21,1.3.19,1.87-.04.52-.21.96-.67,1.52-.89.52-.2.88-.92,1.44-1.13.53-.2,1.1-.35,1.66-.55s1.09-.37,1.66-.56,1.19-.08,1.75-.27,1.13-.25,1.7-.43,1.17-.1,1.74-.28,1-.7,1.56-.86,1.15-.19,1.71-.35,1.03-.61,1.6-.76,1.25.22,1.82.08,1.01-.75,1.58-.89,1.14-.21,1.71-.34,1.09-.46,1.66-.58,1.21.14,1.79.02,1.07-.59,1.65-.69,1.21.18,1.79.08,1.1-.45,1.68-.54,1.16-.08,1.74-.16,1.16-.07,1.74-.14,1.14-.23,1.72-.29,1.14-.25,1.73-.3,1.18.13,1.76.09,1.13-.52,1.71-.56,1.17.01,1.75-.02,1.18.4,1.77.38,1.15-.43,1.74-.44,1.17.38,1.75.38,1.16-.13,1.75-.12,1.16.03,1.75.04,1.16.05,1.74.08,1.18-.17,1.76-.13,1.15.19,1.74.24,1.13.41,1.71.47,1.15.11,1.73.18,1.13.27,1.71.35,1.23-.41,1.81-.32,1.1.5,1.67.6,1.22-.19,1.79-.08,1.12.35,1.69.47,1.15.2,1.72.33,1.1.41,1.67.56,1.12.33,1.68.48,1.11.34,1.67.51,1.14.24,1.7.42,1.12.32,1.67.51,1.14.27,1.69.48,1.01.62,1.56.84,1,.63,1.54.86,1,.6,1.54.84,1.29-.03,1.82.22.81.99,1.34,1.25,1.08.43,1.6.7,1.04.51,1.56.79,1.33.12,1.83.41c.68.5.5.46,1.29,1.12.37.31.34,1.26.84,1.65.42.33.98.53,1.46.89.44.33.96.58,1.44.9s.8.86,1.28,1.15,1.33-.03,1.82.22c.53.27.97.58,1.47.76.58.21,1.07.32,1.58.38.63.07,1.34.63,1.8.38s.86-1.05,1.07-1.68Z"/><path class="cls-1" d="m194.76,60.62c-.28-.82-.59-.37-1.58-.9-.42-.22-.86-.65-1.46-.95-.47-.23-1.23.03-1.8-.23-.49-.22-.88-.75-1.44-.99-.5-.22-1-.53-1.56-.75-.51-.21-1.06-.37-1.62-.58-.52-.2-1.02-.49-1.58-.69-.52-.19-1.18-.06-1.74-.25-.53-.18-1.04-.47-1.6-.65s-1.11-.24-1.68-.4-1.01-.59-1.58-.75-1.09-.34-1.66-.49-1.09-.33-1.66-.47-1.14-.13-1.71-.26-1.19.12-1.76,0-1.01-.77-1.58-.88-1.2.21-1.78.11-1.15-.03-1.73-.12-1.06-.66-1.63-.74-1.13-.24-1.7-.31-1.19.29-1.76.22-1.13-.22-1.71-.28-1.16.12-1.74.07-1.13-.23-1.71-.27-1.14-.11-1.72-.14-1.15.21-1.73.2-1.14-.11-1.72-.12-1.14-.32-1.72-.32-1.14.07-1.72.08-1.15-.24-1.73-.22-1.13.47-1.71.49-1.16-.16-1.74-.13-1.14.23-1.71.27-1.17-.2-1.75-.16-1.1.49-1.68.55-1.14.09-1.72.16-1.13.21-1.71.29-1.2-.33-1.77-.24-1.14.17-1.72.26-1.15.12-1.72.22c-.84.13-.52.53-1.61.72-.47.08-1.07-.06-1.71.07-.5.1-1.08.14-1.68.27-.52.11-.97.65-1.56.79-.52.12-1.19-.21-1.76-.06-.53.13-1.07.31-1.64.47-.53.14-1,.57-1.56.73-.53.15-1.1.22-1.65.38s-1.07.34-1.62.51-1.09.28-1.64.46-1.04.42-1.59.61-1.16.09-1.7.29-.93.73-1.47.93-1.11.25-1.64.46-.96.64-1.49.86-1.08.33-1.61.55-1.18.1-1.71.33-.87.82-1.39,1.06-.99.54-1.51.78-1.17.17-1.69.42-.85.84-1.36,1.1-1.05.43-1.56.7-1.17.24-1.68.51c-.7.46-1.04.85-.5,1.27.21.17.56.18,1.51.12.45-.03,1.06.41,1.73.3.46-.07.94-.67,1.61-.85.5-.14,1.19.1,1.8-.09.52-.16,1.05-.44,1.64-.63.53-.17,1.14-.2,1.72-.39.53-.18,1.09-.36,1.66-.55.54-.18.95-.8,1.52-.99.54-.18,1.12-.28,1.69-.47s1.16-.19,1.73-.36,1.1-.38,1.67-.55,1.18-.11,1.75-.28,1.1-.36,1.67-.52.97-.84,1.55-1,1.13-.31,1.7-.46,1.19-.07,1.76-.21,1.15-.19,1.73-.33,1.09-.46,1.67-.59,1.13-.32,1.71-.44,1.21.09,1.79-.01,1.13-.34,1.71-.44,1.16-.13,1.75-.22,1.18,0,1.76-.07,1.12-.55,1.7-.61,1.17-.15,1.75-.19,1.18.04,1.77,0,1.19.37,1.77.35,1.16-.14,1.75-.14,1.17-.21,1.76-.19,1.18,0,1.76.03,1.15.37,1.73.42,1.2-.32,1.75-.28c.59.05,1.15.24,1.7.28.59.04,1.15.27,1.7.3.6.04,1.17.11,1.71.14.6.03,1.17-.06,1.72-.04.6.02,1.17.12,1.72.13.6.02,1.17.04,1.72.05.59,0,1.17-.27,1.72-.26.59,0,1.16.05,1.72.05s1.14.3,1.71.31,1.13-.04,1.71,0,1.14-.23,1.73-.19c.55.04,1.11.23,1.69.29.54.06,1.09.27,1.68.35.54.07,1.12.06,1.71.15.54.09,1.12.08,1.71.19.54.1,1.13.04,1.72.16.54.11,1.03.54,1.62.66.54.11,1.06.39,1.64.52.54.12,1.14.02,1.72.15.54.12,1.1.24,1.67.38.54.13,1.01.58,1.58.72.54.13,1.08.3,1.65.45.54.14,1.16,0,1.73.15.54.14,1.06.39,1.63.54s1.11.24,1.68.39,1.02.49,1.58.64c.83.31.81.17,1.76.37.54.12,1.18-.02,1.78-.06s1.28,0,1.74-.36c.41-.32.77-.95.93-1.65Z"/><path class="cls-1" d="m207.53,76.69c-.34-.78-.85-.05-1.82-.59-.42-.23-.92-.5-1.51-.81-.46-.24-.98-.46-1.55-.74-.48-.24-.96-.54-1.52-.8-.49-.23-.96-.56-1.51-.81-.5-.22-.84-.88-1.39-1.11-.51-.22-1.33.28-1.88.05-.51-.21-1.01-.49-1.56-.71-.52-.2-.82-1.02-1.37-1.23s-1.26.16-1.82-.03-1.03-.49-1.58-.68-1.01-.56-1.56-.74-1.09-.31-1.65-.48-1.06-.42-1.62-.59-1.05-.48-1.61-.63-1.27.33-1.83.18-1.06-.42-1.63-.56-1.16-.03-1.72-.17-1.02-.65-1.58-.77-1.17.06-1.74-.05-1-.81-1.57-.92-1.15-.09-1.71-.19-1.16.03-1.73-.06-1.12-.21-1.69-.3-1.07-.57-1.64-.65-1.16.08-1.74.01-1.1-.45-1.67-.52-1.2.42-1.77.36-1.16.15-1.73.1-1.07-.8-1.65-.84-1.13-.18-1.71-.22-1.19.74-1.76.71-1.12-.44-1.69-.46-1.13-.5-1.7-.51-1.15.27-1.73.26-1.15.32-1.72.32-1.14-.4-1.72-.4-1.15-.21-1.72-.2-1.13.81-1.7.82-1.14-.03-1.72,0-1.15-.12-1.72-.1-1.17-.47-1.75-.44-1.11.46-1.69.5-1.17-.26-1.74-.22-1.08.78-1.65.83-1.17-.23-1.74-.17-1.13.15-1.71.22-1.13.2-1.7.27-1.14.08-1.72.16-1.11.3-1.68.39-1.15.03-1.72.12-1.1.36-1.67.46-1.13.2-1.7.3-1.1.35-1.66.45-1.2-.15-1.76-.03-1.12.23-1.69.35c-.83.23-.6.16-1.66.49-.46.15-1,.39-1.63.58-.5.15-.95.67-1.55.85-.52.15-1.2-.1-1.78.07-.53.15-1.18-.05-1.76.11-.54.15-.93.91-1.5,1.06-.54.14-1.06.47-1.63.62s-1.15.13-1.72.27-1.23-.24-1.81-.1-1.05.55-1.62.68-1.17.04-1.74.17-1.16.08-1.73.2-1.08.46-1.65.58-1.11.3-1.68.4-1.09.45-1.66.55-1.18-.09-1.75,0-1.15.06-1.73.15-1.07.68-1.64.77-1.16.02-1.74.1-1.16,0-1.74.07-1.18-.24-1.76-.18-1.1.72-1.67.77-1.19-.41-1.76-.37-1.16-.13-1.74-.11-1.15.18-1.72.19-1.15-.11-1.73-.11-1.17.67-1.74.66-1.15-.46-1.72-.49c-.98-.02-.96.38-1.64.95-.41.34-.98.7-.66,1.59.17.46.5,1.17,1.02,1.83.76.44.75.02,1.87.03.49,0,1.09.08,1.75.08.53,0,1.12.14,1.75.14.55,0,1.13-.59,1.75-.6.56,0,1.14-.18,1.75-.19.57-.01,1.17.74,1.77.73s1.14-.64,1.73-.66,1.15-.25,1.74-.27,1.16-.07,1.75-.1,1.18.21,1.76.18,1.17-.06,1.75-.1,1.16-.17,1.74-.22,1.21.31,1.79.25,1.17-.19,1.74-.26,1.17-.16,1.75-.24,1.09-.65,1.66-.75,1.24.22,1.8.11c.59-.12,1.07-.66,1.62-.79.59-.14,1.19-.13,1.72-.29.5-.15,1.03-.39,1.63-.58.52-.16,1.14-.09,1.72-.27.52-.16.98-.62,1.56-.8.53-.16,1.24.18,1.81,0,.53-.16,1.01-.55,1.58-.72.54-.16,1.19.02,1.75-.15s1.06-.41,1.63-.57,1.12-.2,1.69-.36.95-.88,1.51-1.02,1.25.28,1.81.14.94-.96,1.51-1.1,1.16-.06,1.73-.19,1.07-.47,1.64-.59,1.27.48,1.84.36,1.04-.63,1.61-.74,1.1-.38,1.67-.48,1.15-.11,1.72-.2,1.18.14,1.76.05,1.15,0,1.73-.09,1.09-.51,1.66-.58,1.17.12,1.74.06,1.14-.11,1.71-.17,1.14-.04,1.72-.09,1.13-.21,1.71-.25,1.14-.16,1.71-.2,1.13-.31,1.71-.33,1.15.11,1.73.09,1.14-.43,1.72-.44,1.16.64,1.74.64,1.15-.23,1.73-.23,1.14.26,1.72.27,1.17-.69,1.75-.67,1.12.8,1.69.83,1.19-.59,1.76-.55,1.15.14,1.72.19,1.15.03,1.73.09,1.12.33,1.7.4,1.11.42,1.68.49,1.17-.06,1.74.02,1.16,0,1.74.09,1.1.43,1.67.53,1.14.14,1.71.24,1.08.47,1.65.58,1.15.09,1.72.21,1.23-.22,1.79-.09,1.09.39,1.66.53,1.03.65,1.59.8c.83.19.66-.04,1.7.19.47.1,1.12-.15,1.75-.01.51.12,1.08.21,1.67.35.52.13.97.72,1.54.86.53.13,1.21-.21,1.77-.06s.91.96,1.47,1.11,1.21-.15,1.76.01.97.73,1.51.9,1.06.4,1.6.58,1.18.06,1.72.24,1.14.22,1.67.41,1.15.23,1.67.44c.54.22.98.68,1.47.91.54.25.9.81,1.37,1.06.53.29,1.04.49,1.47.79.73.55.83.3,1.69.72.55.27,1.11.57,1.68.57.59,0,1.28-.11,1.61-.78.21-.41.44-1.17.46-1.96Z"/><path class="cls-1" d="m52.89,72.14c-.16-1.01-.1-.77-.36-2-.12-.57-.13-1.28-.35-2.01-.18-.61-.55-1.2-.81-1.88-.23-.61-.31-1.32-.62-1.96-.29-.6-.54-1.25-.91-1.85s-.8-1.11-1.22-1.65-.83-1.1-1.32-1.58-1.06-.86-1.62-1.28-1.19-.64-1.8-.97-1.18-.63-1.84-.87c-.62-.22-1.23-.57-1.92-.72-.64-.14-1.35.03-2.06-.03-.65-.06-1.32-.18-2.03-.17-.66.02-1.34-.01-2.05.07s-1.36.29-2.01.43c-.69.15-1.32.4-1.95.61-.67.23-1.32.4-1.92.69s-1.23.62-1.79.99-1.08.84-1.59,1.27-1.13.8-1.59,1.29-.94,1-1.35,1.55-.74,1.15-1.09,1.74-.57,1.24-.87,1.86-.53,1.25-.77,1.89-.47,1.28-.67,1.93-.38,1.31-.54,1.97-.59,1.28-.71,1.95-.16,1.38-.25,2.04c-.09.7,0,1.4-.05,2.06-.06.72-.04,1.4-.06,2.05-.03.74-.13,1.42-.12,2.04.01.8.08,1.48.12,2.03s.07,1.21.16,2c.07.6.18,1.26.29,1.98.1.62,0,1.32.14,2.01.12.63.45,1.25.61,1.92.15.63.26,1.3.45,1.96s.33,1.29.55,1.93.37,1.29.62,1.92.63,1.19.92,1.79.58,1.21.92,1.79.63,1.2,1.01,1.75.87,1.03,1.3,1.54.79,1.1,1.28,1.57,1.19.66,1.73,1.07,1.05.79,1.64,1.13,1.08.8,1.71,1.06,1.26.42,1.92.6,1.29.3,1.97.4c.64.1,1.3.32,1.99.35.65.03,1.32-.16,2.02-.19s1.35-.07,1.99-.15c.68-.09,1.31-.34,1.94-.48.67-.15,1.31-.28,1.92-.49.65-.22,1.32-.31,1.91-.59s1.16-.69,1.71-1.05,1.13-.73,1.63-1.16.89-.99,1.33-1.49.98-.93,1.35-1.49.64-1.17.94-1.77.56-1.2.8-1.83.28-1.29.46-1.95.56-1.22.69-1.89.11-1.32.2-1.99.14-1.31.19-1.98.13-1.32.15-1.99-.05-1.32-.05-2,.13-1.33.1-2-.13-1.32-.19-1.99-.35-1.29-.42-1.96.13-1.35.04-2.02-.29-1.3-.4-1.96-.26-1.3-.39-1.96-.38-1.28-.52-1.93-.3-1.3-.45-1.95Z"/></g></svg>