<?xml version="1.0" encoding="UTF-8"?><svg id="hair" xmlns="http://www.w3.org/2000/svg" viewBox="0 0 300 300"><defs><style>.cls-1{fill:#fff;}.cls-2{fill:#a8534a;}.cls-3{fill:#d66a5e;}</style></defs><g id="hair_15"><path class="cls-3" d="m195.19,82.37c-.18.61-1.46.9-1.68,1.56-.2.61-.46,1.2-.69,1.85-.21.6.66,1.63.41,2.27-.23.6-1.65.75-1.91,1.38s.03,1.42-.24,2.04-.41,1.25-.69,1.87-.83,1.05-1.13,1.66-.05,1.45-.36,2.05-.81,1.06-1.14,1.65-.98.95-1.32,1.54-.33,1.33-.68,1.91-.88,1-1.25,1.57-.88.99-1.26,1.55-.98.91-1.37,1.46-.14,1.52-.53,2.06-.66,1.16-1.07,1.69-1.54.46-1.97.98-.77,1.06-1.2,1.57.07,1.82-.38,2.32-1.29.63-1.74,1.12-1.08.79-1.55,1.27-.92.95-1.39,1.42-1.18.67-1.67,1.13-.81,1.07-1.31,1.51-.63,1.3-1.14,1.73-.95.94-1.47,1.36-.92.99-1.45,1.4-1.59.11-2.12.51-1.21.58-1.75.96-.46,1.67-1.01,2.04-1.62-.05-2.19.31-.81,1.19-1.38,1.54-1.1.75-1.68,1.09-1.25.49-1.84.81-1.51-.02-2.1.3-.81,1.3-1.4,1.61-1.42.11-2.02.41-.71,1.6-1.32,1.88-1.65-.44-2.27-.17-1.12.75-1.74,1-1.3.3-1.93.54-1.22.52-1.84.75-1.06,1-1.69,1.22c-.98.32-.95-.03-2.11-.02-.62,0-1.15-.58-1.86-.8-.62-.19-1.05-.36-1.61-.84-.47-.41-.58-.86-.92-1.55-.27-.55-.69-.95-.84-1.71-.12-.61-.98-1.18-1-1.94-.02-.63.28-1.32.34-2.07.05-.64-.1-1.06.02-1.79-.68-.73-.33.32-1.58.58-.55.11-1.34-.4-2.09-.22-.59.14-1.04,1.02-1.74,1.22-.6.17-1.43-.31-2.1-.11-.61.18-1.42-.15-2.08.07-.61.2-.93,1.31-1.58,1.54-.61.22-1.37.07-2.01.32-.6.24-1.26.41-1.88.68s-1.16.65-1.78.93-1.35.24-1.96.53-.87,1.21-1.48,1.52-1.21.53-1.8.86-1.2.56-1.78.9-1.48.12-2.05.47-.64,1.47-1.2,1.84-1.25.5-1.8.89-1.03.83-1.57,1.23-.91.98-1.44,1.39-1.51.24-2.03.67-.43,1.53-.93,1.98-.91.94-1.4,1.4-1.78.06-2.25.54-.65,1.24-1.11,1.72-1.02.88-1.46,1.38-.24,1.54-.67,2.06-1.65.37-2.07.89.04,1.7-.36,2.24-.67,1.13-1.05,1.68-1.82.37-2.19.94.41,1.82.06,2.39-1.14.85-1.48,1.44-.66,1.14-.98,1.74-.45,1.25-.75,1.85-1.4.81-1.68,1.42.39,1.62.13,2.24-.87,1.07-1.11,1.7-.77,1.13-1,1.76-.6,1.21-.81,1.84,0,1.39-.2,2.04-.41,1.26-.58,1.91-.15,1.33-.31,1.98c-.16.64.3,1.42.16,2.08s-.59,1.22-.72,1.88-.56,1.24-.67,1.9-.5,1.26-.6,1.93.75,1.43.67,2.1-.79,1.24-.85,1.91-.36,1.3-.41,1.97.44,1.36.4,2.03c-.04.66-.03,1.3-.06,1.98,0,1.01.1.69.18,1.98.03.57.14,1.23.19,2,.04.61-.76,1.34-.71,2.07.05.63.25,1.29.32,1.99.06.64.61,1.26.68,1.95.07.65.2,1.3.27,1.99.07.65.05,1.32.14,2s-.08,1.35,0,2.02-.46,1.41-.36,2.09.3,1.31.41,1.98.27,1.31.39,1.98.15,1.34.28,2,0,1.37.14,2.04.87,1.19,1.02,1.85,0,1.38.16,2.04.56,1.25.72,1.91.71,1.2.89,1.85.15,1.36.35,2c.19.65.98,1.1,1.19,1.74s.44,1.24.66,1.87c.36.92-.37,1-.09,2.14.14.57-.29,1.29-.2,2,.08.63,1.27,1.23,1.25,1.91s-.99,1.2-1.15,1.85.05,1.4-.3,1.97c-.33.54-.79,1.04-1.33,1.49-.47.39-1.36.01-2.02.3-.56.24-.91,1.01-1.62,1.16-.6.13-1.23.27-1.94.32-.61.04-1.27.18-1.98.16-.62-.02-1.27-.2-1.97-.28-.62-.07-1.14-.57-1.82-.79-.6-.2-1.19-.37-1.82-.68-.57-.28-1.35-.22-1.95-.6-.54-.34-.62-1.36-1.18-1.78-.52-.38-1.04-.74-1.57-1.18-.49-.42-1.9.16-2.41-.31-.47-.44-.31-1.58-.79-2.07-.46-.47-1.59-.33-2.05-.83s-.37-1.45-.81-1.97-1.05-.85-1.47-1.39-.91-.98-1.32-1.53-.54-1.25-.93-1.81-.26-1.43-.63-1.99-1.48-.62-1.84-1.19-.94-.99-1.29-1.57-.75-1.12-1.09-1.7-.73-1.13-1.06-1.73-.35-1.34-.66-1.94-.27-1.36-.57-1.97-.78-1.11-1.07-1.72-.89-1.06-1.17-1.68-.68-1.17-.95-1.79-.04-1.44-.3-2.06-.69-1.17-.94-1.79-.15-1.38-.38-2.01.08-1.45-.14-2.08c-.22-.63-.39-1.27-.6-1.91s-.81-1.13-1.01-1.77-1.12-1.05-1.31-1.7-.56-1.24-.74-1.88.5-1.53.33-2.18-.4-1.27-.56-1.93-.59-1.23-.74-1.89-.24-1.32-.39-1.97-.84-1.19-.98-1.85.82-1.53.69-2.19-.14-1.33-.26-1.99-1.16-1.16-1.27-1.82-.05-1.35-.15-2.02-.43-1.29-.53-1.96-.39-1.31-.47-1.98-.15-1.34-.22-2.01.24-1.38.18-2.05-.43-1.31-.48-1.98-.24-1.33-.28-2-.07-1.35-.1-2.02.9-1.38.88-2.06-.98-1.31-1-1.98.59-1.35.58-2.03.48-1.34.48-2.01-.94-1.34-.93-2.02.8-1.32.82-2c.02-.67-.16-1.34-.13-2.01s.71-1.3.75-1.97-.26-1.35-.22-2.02-.24-1.35-.19-2.02.3-1.31.36-1.98.05-1.34.12-2.01-.7-1.42-.62-2.09.97-1.23,1.05-1.9.45-1.29.55-1.95.45-1.28.55-1.95.14-1.33.25-1.99.27-1.3.39-1.97-.59-1.47-.46-2.13.02-1.36.15-2.02.69-1.23.83-1.89.65-1.22.8-1.88.2-1.32.35-1.98.38-1.28.55-1.93.46-1.26.63-1.91.32-1.29.5-1.94-.68-1.58-.49-2.23,1.28-1.02,1.48-1.66.27-1.31.47-1.96.48-1.25.69-1.89.33-1.3.55-1.93.47-1.25.69-1.89-.08-1.45.15-2.09.2-1.35.43-1.97.87-1.1,1.11-1.72.14-1.38.38-1.99c.25-.62.32-1.31.58-1.92s.75-1.14,1.01-1.75.96-1.04,1.23-1.64.08-1.42.35-2.03.74-1.13,1.02-1.73.69-1.15.97-1.75,1.23-.88,1.53-1.47-.62-1.8-.32-2.39.64-1.18.95-1.76,1.78-.56,2.09-1.14-.25-1.66.07-2.23.61-1.19.94-1.76,1.15-.87,1.49-1.44.96-.97,1.3-1.54.06-1.53.42-2.09.85-1.04,1.22-1.6.6-1.21.96-1.76,1.03-.91,1.41-1.46.62-1.2,1-1.74.49-1.29.88-1.83.62-1.21,1.02-1.74,1.43-.59,1.84-1.12,1.15-.78,1.57-1.3.25-1.51.67-2.02,1.46-.52,1.89-1.02.23-1.55.67-2.05,1.45-.49,1.89-.99.5-1.34.95-1.83.88-1,1.34-1.48.65-1.23,1.11-1.7,1.24-.65,1.71-1.11,1.3-.57,1.77-1.03.75-1.13,1.24-1.58.53-1.39,1.03-1.84.77-1.15,1.27-1.59,1.32-.52,1.83-.94,1.53-.24,2.05-.66,1.08-.77,1.6-1.18.28-1.81.81-2.21,1.67,0,2.2-.39,1.26-.51,1.8-.9.84-1.1,1.39-1.48,1.28-.46,1.84-.83.69-1.37,1.25-1.72,1.01-.91,1.58-1.25,1.55,0,2.12-.33,1.16-.64,1.74-.97.97-1,1.55-1.31,1.37-.24,1.96-.54,1.17-.62,1.76-.91,1.13-.71,1.73-.99.78-1.52,1.38-1.78,1.41-.11,2.03-.36,1.38-.15,1.99-.4,1.25-.45,1.87-.68,1.01-1.13,1.64-1.35,1.42.03,2.05-.18,1.07-1.06,1.7-1.25,1.38-.06,2.02-.24,1.35-.11,2-.28,1.46.39,2.11.23,1.2-.66,1.85-.81,1.22-.68,1.87-.8,1.31-.25,1.97-.36,1.27-.54,1.92-.64,1.43.61,2.09.52,1.23-.92,1.89-.99,1.36.19,2.02.13,1.3-.58,1.96-.62,1.34-.01,2.01-.04,1.36.96,2.02.95,1.32-.53,1.99-.52,1.33.14,1.99.16,1.31.42,1.97.45,1.34-.2,2-.15,1.3.29,1.96.36,1.31.16,1.97.24,1.28.4,1.93.5,1.4-.36,2.05-.25,1.39-.18,2.04-.06,1.34.16,1.98.3,1.33.2,1.98.36,1.08,1.15,1.72,1.32,1.47-.29,2.11-.1,1.28.38,1.92.58,1.21.6,1.84.82,1.1.87,1.72,1.11,1.38.13,1.99.38,1.13.74,1.74,1,1.18.61,1.78.89.98,1.01,1.58,1.3,1.16.62,1.75.92,1.44.1,2.02.42,1.49.05,2.07.38.73,1.39,1.3,1.74,1.26.47,1.83.83,1.04.83,1.6,1.2,1.03.84,1.58,1.22,1.61.03,2.15.42.79,1.18,1.32,1.58.98.69,1.51,1.1c.99-.04.87.32,1.99-.27.49-.26.51-1.81,1.21-2.09.55-.23,1.31-.25,1.99-.46.59-.18,1.36.04,2.04-.12.61-.14,1.2-.7,1.88-.81.62-.09,1.4.82,2.08.76.63-.05,1.25-1.07,1.93-1.08.64-.01,1.32.18,2,.21.64.03,1.26.6,1.94.67.64.06,1.38-.48,2.05-.38.63.1,1.25.51,1.91.64.63.13,1.32.12,1.98.29s1.01,1.23,1.65,1.43,1.17.52,1.81.74,1.45-.21,2.08.03,1.17.57,1.79.84,1.06.8,1.67,1.09,1.48-.06,2.09.24.93,1.05,1.52,1.37,1.48.05,2.06.39,1.28.44,1.86.79.54,1.6,1.1,1.97,1.28.44,1.83.82.7,1.27,1.25,1.66,1.06.76,1.6,1.16,1.62.02,2.16.44,1.02.84,1.54,1.26.41,1.57.93,2,1.66.09,2.16.54.95.93,1.42,1.41,1.23.68,1.68,1.17.59,1.26,1.03,1.77.58,1.24,1,1.76.65,1.16,1.05,1.7,1.52.54,1.9,1.09.61,1.2.97,1.76.1,1.51.45,2.08.75,1.08,1.09,1.66.94.98,1.26,1.57.56,1.2.87,1.79,1.24.86,1.53,1.46-.47,1.7-.18,2.3,1.34.84,1.61,1.45.69,1.15.95,1.77-.48,1.63-.24,2.25,1.42.87,1.65,1.49-.12,1.46.1,2.09.01,1.39.23,2.02.91,1.09,1.11,1.72.75,1.15.94,1.79-.44,1.51-.25,2.15.97,1.1,1.14,1.74.69,1.19.86,1.83.53,1.24.69,1.89.17,1.33.32,1.98-.61,1.49-.47,2.14.19,1.31.32,1.96,1.24,1.11,1.36,1.77.39,1.28.5,1.94.33,1.3.44,1.95-.52,1.42-.43,2.08.93,1.22,1.01,1.88-.8,1.44-.73,2.1-.27,1.36-.2,2.02.41,1.29.47,1.95-.19,1.34-.14,2,.49,1.29.53,1.95.78,1.29.81,1.95-.12,1.34-.1,2-.69,1.34-.68,2.01,1.24,1.32,1.24,1.98-.49,1.33-.5,2-.37,1.32-.39,1.98.37,1.34.34,2.01c-.03.66.24,1.35.2,2.01s-.46,1.31-.51,1.97-.14,1.32-.2,1.98.25,1.36.18,2.02-.84,1.25-.92,1.9-.36,1.29-.45,1.95.07,1.35-.03,2,.3,1.4.19,2.05-.05,1.35-.17,2-.27,1.31-.41,1.96-.26,1.31-.41,1.96-1.61.98-1.77,1.62-.02,1.36-.19,2,.38,1.49.2,2.12-.11,1.36-.31,2-.83,1.14-1.05,1.76-.28,1.31-.51,1.94-.6,1.2-.84,1.82-.39,1.28-.64,1.89-1.37.86-1.64,1.47.26,1.57-.02,2.17-.82,1.08-1.11,1.68-.82,1.07-1.13,1.65-.95.98-1.27,1.56-.18,1.42-.51,1.99-.76,1.09-1.11,1.65-1.01.92-1.37,1.47-.38,1.34-.76,1.88-1.27.7-1.67,1.23.32,1.93-.09,2.45-.98.94-1.41,1.44-1.51.44-1.96.93-.7,1.16-1.16,1.63-.86,1.01-1.34,1.48-1.44.4-1.93.85-.41,1.52-.91,1.96-1.08.78-1.6,1.2-.66,1.33-1.19,1.73-1.19.64-1.74,1.03-1.52.13-2.08.49-.93,1-1.5,1.35-1.28.44-1.85.78-.98,1.09-1.57,1.4c-.94.21-.65-.81-1.69-1.2-.53-.19-1.13-.15-1.7-.58-.46-.35-.84-.74-1.24-1.31-.33-.48-1.29-.71-1.53-1.37-.2-.55.69-1.4.59-2.09-.08-.58-.73-1.12-.73-1.81,0-.59-.04-1.23.04-1.92.07-.6.37-1.19.5-1.86.11-.59-.05-1.29.12-1.94.14-.55.99-1.1,1.09-1.85.07-.6-.11-1.31-.06-2.03.04-.62-.97-1.32-.96-2.02.01-.63,1.35-1.29,1.34-1.99,0-.64-.45-1.3-.48-1.99-.02-.64-.22-1.3-.26-1.98-.04-.64-.67-1.26-.72-1.94s.9-1.38.85-2.06-.93-1.23-.99-1.91-.15-1.3-.22-1.97-.22-1.29-.3-1.96-.06-1.32-.14-1.98.01-1.33-.08-1.99.62-1.42.52-2.09-1.53-1.11-1.63-1.77-.06-1.32-.17-1.98.92-1.49.81-2.15-1.24-1.13-1.35-1.78-.02-1.34-.14-1.99.12-1.37,0-2.02-.31-1.29-.44-1.94-.09-1.33-.23-1.99.02-1.36-.12-2.01-1.39-1.05-1.54-1.7-.05-1.34-.19-1.99-.71-1.19-.86-1.84.38-1.45.22-2.1-.84-1.16-1-1.8.68-1.54.51-2.19-.55-1.23-.72-1.87-.74-1.18-.91-1.82-.31-1.29-.49-1.93.31-1.47.13-2.11-.78-1.16-.97-1.79.14-1.43-.06-2.07-1.32-.98-1.52-1.62-.84-1.12-1.05-1.75.75-1.65.54-2.28-.26-1.32-.48-1.95-1.77-.79-2-1.41.18-1.47-.05-2.1.28-1.53.04-2.15-.96-1.06-1.2-1.68-1.04-1.02-1.29-1.63.14-1.5-.11-2.11-.17-1.38-.43-1.99-1.79-.67-2.06-1.28-.44-1.25-.71-1.86-.29-1.33-.57-1.93.26-1.61-.03-2.2-1.2-.89-1.51-1.48-.07-1.47-.38-2.05-1.68-.61-2-1.18-.12-1.45-.45-2.03-.71-1.12-1.05-1.69-.79-1.08-1.14-1.64-.61-1.19-.97-1.74-.95-.96-1.32-1.51-.55-1.23-.94-1.77-1.04-.88-1.44-1.4c-.43-.56-.82-.87-1.38-1.16-.61-.31-1.09-.18-1.75-.2s-1.31-.55-1.93-.29-1.15.64-1.61,1.15c-.43.48-.24,1.2-.44,1.88Z"/><path class="cls-2" d="m45.96,150.54c.44.56,1.07.93,1.58,1.44s.76,1.29,1.34,1.72,1.15.87,1.79,1.23,1.41.34,2.09.63c.64.27,1.33.62,2.03.83.42.86-.16.8-.48,1.91-.15.54-.24,1.18-.4,1.87-.14.59-.27,1.21-.38,1.87s-.34,1.23-.4,1.87.04,1.28.06,1.91c.02.67.15,1.26.3,1.84.17.66.37,1.15.75,1.63s.66,1.12,1.33,1.32,1.15-.29,1.78-.75c.47-.34,1.07-.64,1.54-1.25.37-.49.91-.96,1.28-1.58.33-.55.34-1.32.67-1.94.3-.58.88-1.04,1.19-1.66s.52-1.23.82-1.85.82-1.1,1.11-1.71.48-1.27.79-1.87.51-1.27.83-1.85c.34-.61.74-1.15,1.08-1.71.37-.6.73-1.17,1.11-1.68.44-.58.66-1.32,1.11-1.74.54-.5,1.3-.64,1.87-.86.64-.25,1.28-.19,1.96,0,1.05-.01,1-.15,1.87.42.48.31.76.64.83,1.58.04.55-.05,1.14-.29,1.98-.16.58-.08,1.32-.4,2.06-.25.58-.47,1.25-.84,1.93-.3.57-.79,1.1-1.18,1.75-.32.53-.76,1.04-1.07,1.66-.28.56-.52,1.18-.79,1.81-.25.58-.52,1.18-.76,1.82-.23.59-.5,1.2-.72,1.84-.21.6-.41,1.23-.61,1.87s.02,1.36-.17,2-.71,1.15-.88,1.79-.29,1.27-.45,1.92-.34,1.26-.49,1.9-.26,1.28-.4,1.93-.29,1.28-.42,1.92-.05,1.32-.17,1.97-.14,1.3-.26,1.95-.39,1.26-.5,1.91-.07,1.32-.17,1.97c-.1.65-.13,1.31-.22,1.96s-.28,1.29-.37,1.94-.35,1.28-.43,1.93.04,1.33-.03,1.98-.22,1.3-.28,1.95-.17,1.31-.22,1.96-.38,1.3-.43,1.95.44,1.35.41,2-.08,1.32-.1,1.96-.55,1.31-.56,1.96.38,1.33.38,1.98.03,1.33.05,1.96c.02.68-.17,1.34-.13,1.97.04.68-.03,1.35.04,1.97.07.68.44,1.3.54,1.91.1.64.16,1.29.3,1.92s.35,1.25.51,1.88c.16.63.21,1.29.39,1.91s.45,1.23.65,1.84.54,1.19.76,1.8.52,1.2.74,1.8.17,1.33.4,1.93.31,1.29.53,1.88c.23.63.73,1.14.94,1.73.22.64.14,1.35.32,1.94.2.65.69,1.18.83,1.78.16.67-.02,1.35.04,1.95.07.7.27,1.32.17,1.91-.11.67-.33,1.27-.7,1.78-.35.48-.77,1.02-1.4,1.36-.51.27-1.18.34-1.9.5-.61.14-1.21-.06-1.92-.23-.59-.14-1.21-.25-1.86-.59-.55-.28-1.25-.42-1.82-.84-.51-.37-1.12-.7-1.65-1.16-.47-.42-.83-1.02-1.32-1.52-.44-.46-.66-1.16-1.11-1.68-.42-.49-.81-1.01-1.24-1.55-.4-.51-1.19-.74-1.59-1.3s-.44-1.29-.83-1.86-.62-1.16-.98-1.73-.83-1.03-1.18-1.61-.55-1.2-.88-1.79-.9-1.01-1.22-1.6-.69-1.13-1-1.73-.31-1.32-.6-1.93-.55-1.2-.83-1.81-.68-1.14-.95-1.76-.36-1.28-.61-1.9-.5-1.22-.74-1.85-.53-1.21-.76-1.84-.83-1.11-1.05-1.74-.26-1.32-.46-1.95-.26-1.31-.46-1.95-.37-1.27-.55-1.91-.63-1.2-.8-1.85-.16-1.33-.32-1.98-.58-1.23-.73-1.88-.17-1.33-.32-1.98-.18-1.32-.31-1.98.02-1.36-.1-2.01-.38-1.28-.49-1.94-.37-1.29-.47-1.95-.19-1.32-.28-1.98-.29-1.3-.37-1.97.16-1.35.1-2.02c-.06-.66-.42-1.3-.47-1.96s.02-1.34-.02-2-.26-1.32-.29-1.99-.03-1.33-.05-2,.36-1.34.35-2-.21-1.33-.2-2,.06-1.33.08-2,.18-1.32.21-1.99-.04-1.34,0-2c0-1.01.03-.73-.01-2.02-.02-.57-.03-1.24-.05-2.01-.01-.61.06-1.29.05-2.02,0-.63-.24-1.3-.24-2.01,0-.65-.17-1.32-.17-2.02,0-.65-.04-1.33-.03-2.02,0-.66-.03-1.34-.01-2.03s.47-1.34.69-1.93c.24-.65.38-1.37.82-1.86s1.03-.97,1.61-1.28,1.3-.48,1.96-.58,1.34.08,2,.21,1.33.24,1.91.61c.54.34,1.02.83,1.46,1.39Z"/><path class="cls-2" d="m239.12,136.11c-.71.71.39.78.59,2.05.09.55.07,1.24.19,1.99.09.6.19,1.26.3,1.98.09.62.23,1.28.33,1.97.09.63-.03,1.32.07,2.01.09.64.41,1.27.5,1.95.08.64.08,1.32.17,1.99s.09,1.32.17,1.99.12,1.32.19,1.99.25,1.31.32,1.98.13,1.32.2,1.99.18,1.32.24,1.99.27,1.31.33,1.98.04,1.33.09,2,.03,1.33.08,2,.03,1.34.07,2,.3,1.32.33,1.99-.08,1.35-.05,2.01,0,1.34.02,2.01.16,1.34.17,2,.03,1.34.03,2,.02,1.35,0,2.01-.01,1.35-.04,2.01-.25,1.34-.29,1.99-.05,1.35-.11,2-.01,1.36-.09,2c-.08.68-.16,1.34-.27,1.98-.13.96-.13.9,0,1.91.08.64.2,1.31.55,1.82s.86.99,1.64.97c.5,0,1.16-.2,1.9-.56.49-.24,1.05-.59,1.67-1.02.47-.34,1-.72,1.56-1.19.49-.41,1.03-.83,1.54-1.33.46-.45.82-1.05,1.29-1.57.43-.48.93-.95,1.37-1.49.41-.51.78-1.08,1.2-1.63s.72-1.12,1.11-1.69.8-1.07,1.18-1.65.6-1.2.96-1.78.69-1.14,1.03-1.74.81-1.08,1.14-1.68.76-1.12,1.07-1.73.37-1.32.67-1.93.77-1.12,1.05-1.74.45-1.27.72-1.89.53-1.23.79-1.86.67-1.18.92-1.82.34-1.31.56-1.95.43-1.28.64-1.92.39-1.29.59-1.94.42-1.28.6-1.93.44-1.28.61-1.94.31-1.31.46-1.97.19-1.34.33-2,.44-1.29.56-1.96.22-1.34.31-2.01-.13-1.38-.05-2.05c.08-.67.37-1.32.43-1.99s-.1-1.32-.06-2c-.18-1.01-.16-.9-.89-1.78-.4-.48-.94-.9-1.59-1.24-.55-.29-1.18-.45-1.94-.47-.6-.01-1.26.02-2,.27-.57.2-1.3.4-1.96.8-.58.82,0,.87-.32,2.04-.16.56-.29,1.24-.52,1.94-.19.6-.4,1.26-.64,1.91-.23.62-.47,1.26-.74,1.88s-.64,1.21-.95,1.79c-.33.61-.76,1.15-1.13,1.67-.42.59-.84,1.14-1.31,1.53-.56.47-1.17.87-1.8.96-.71.1-1.4-.17-1.87-.68-.37-.4-.61-1.06-.92-1.74-.24-.53-.52-1.12-.77-1.78-.22-.57-.36-1.21-.61-1.84-.23-.58-.35-1.23-.62-1.84-.26-.57-.53-1.17-.84-1.75s-.71-1.07-1.08-1.62-.87-.94-1.3-1.44-.87-.91-1.35-1.36-.82-.99-1.36-1.38c-.51-.36-1.07-.7-1.65-1.01-.55-.3-1.16-.51-1.78-.76-.58-.23-1.28-.58-1.92-.76Z"/><path class="cls-1" d="m199.53,54.01c-.73-.72.15-.79.23-1.99.04-.61.09-1.31.06-2.05-.03-.66-.2-1.34-.33-2.02s-.28-1.35-.55-1.96-.68-1.19-1.17-1.66-1.01-.89-1.71-1.1c-.58-.18-1.27-.27-2.04-.23-.61.03-1.3.13-2.04.33s-1.39.51-1.91.81c-.68.39-1.08.94-1.41,1.46-.37.59-.71,1.21-.73,1.91-.02.65.23,1.32.44,2.02.19.63.5,1.24.82,1.88s.52,1.29.89,1.86.77,1.19,1.17,1.71c.45.6,1.01,1.06,1.4,1.52.8.94,1.77.6,1.36,1.55-.37.86-.79-.03-1.86.06-.56.05-1.19.1-1.83.3-.58.18-1.15.41-1.69.77-.49.34-.87.81-1.24,1.35-.32.47-.59,1-.75,1.66-.14.55-.31,1.14-.31,1.84,0,.76.11,1.45.27,2.05.2.74.44,1.4.85,1.9.45.55,1.1.84,1.75,1.08.61.23,1.28.38,2.02.33.64-.04,1.3-.24,2-.48.61-.21,1.27-.42,1.91-.79.56-.33,1.07-.82,1.64-1.26.52-.4,1.04-.85,1.55-1.35.47-.46,1.02-1,1.49-1.55.94.45.02.92.35,2.12.16.59.37,1.27.65,1.98.23.62.5,1.27.84,1.91.32.6.8,1.13,1.22,1.69s.81,1.13,1.33,1.6,1.07.89,1.7,1.21,1.29.41,2,.54c.64.12,1.32.31,2.06.26.64-.05,1.33-.18,2.06-.38s1.25-.52,1.75-.8c.63-.36,1.11-.75,1.44-1.23.38-.54.58-1.13.64-1.78.06-.6,0-1.24-.17-1.9-.15-.59-.41-1.18-.71-1.78-.28-.55-.53-1.16-.9-1.7s-.84-.96-1.26-1.46-.82-.99-1.27-1.44-1-.83-1.48-1.22c-.52-.42-1.02-.83-1.52-1.16-.59-.38-1.11-.79-1.64-1.01-.71-.29-1.34-.38-1.85-.32.66.69.71.12,1.85.26.55.07,1.19.24,1.89.28.6.03,1.24-.08,1.91-.1.62-.02,1.26-.04,1.9-.12s1.28-.1,1.89-.27,1.18-.5,1.74-.78,1.08-.65,1.55-1.08.98-.83,1.29-1.41c.29-.53.37-1.18.51-1.85.15-.73.36-1.41.34-2.04-.02-.75-.19-1.44-.44-2.02-.28-.65-.67-1.26-1.21-1.68-.51-.4-1.16-.71-1.88-.89-.61-.15-1.31-.08-2.06-.06-.63.01-1.31.06-2.04.2-.63.12-1.31.24-2.01.46-.62.2-1.26.45-1.93.73-.6.25-1.26.47-1.9.8-.59.3-1.19.63-1.81.99-.57.33-1.07.84-1.67,1.22-.56.36-1.13.74-1.71,1.15-.55.38-1.12.68-1.68,1.11Z"/></g></svg>