<?xml version="1.0" encoding="UTF-8"?><svg id="hair" xmlns="http://www.w3.org/2000/svg" viewBox="0 0 300 300"><defs><style>.cls-1{fill:#fff;}.cls-2{fill:#a8534a;}.cls-3{fill:#d66a5e;}</style></defs><g id="hair_12"><path class="cls-3" d="m111.29,82.04c.18.61-.7,1.58-.49,2.24.2.61.37,1.27.6,1.91.21.6,1.54.82,1.79,1.46.23.6-.71,1.69-.45,2.31s1.03,1,1.3,1.62.65,1.15.94,1.76.28,1.32.58,1.93,1.13.91,1.44,1.5.41,1.27.73,1.86.29,1.35.63,1.93,1,.94,1.35,1.52.5,1.24.86,1.81.55,1.22.92,1.78.5,1.27.89,1.82,1.4.63,1.8,1.16.92.95,1.33,1.48.09,1.62.51,2.14.91.98,1.34,1.49,1.8.19,2.24.69.49,1.34.94,1.82.73,1.13,1.2,1.61.95.93,1.42,1.4.73,1.16,1.22,1.62,1.14.73,1.64,1.18,1.36.45,1.87.89,1.07.77,1.59,1.19,1.14.67,1.67,1.08.51,1.51,1.05,1.91.92.99,1.47,1.38,1.71-.15,2.26.23.57,1.52,1.14,1.89,1.42.24,1.99.59,1.16.63,1.74.97,1.04.85,1.62,1.18.8,1.3,1.39,1.62,1.53-.06,2.13.24.95,1.08,1.55,1.37,1.68-.46,2.29-.18.76,1.54,1.37,1.81,1.31.31,1.93.57,1.15.71,1.77.96,1.26.45,1.88.68,1.43-.08,2.06.14c.98.32.79.55,1.95.55.62,0,1.5.45,2.2.23.62-.19,1.42-.65,1.97-1.13.47-.41,1.21-1.01,1.55-1.7.27-.55.29-1.43.44-2.19.12-.61-.59-1.38-.57-2.14.02-.63.27-1.3.21-2.05-.05-.64-.38-1.58-.49-2.31.68-.73,1.08-.12,2.34.14.55.11,1.05.92,1.8,1.1.59.14,1.42-.4,2.12-.21.6.17,1.05,1.02,1.73,1.22.61.18,1.06.92,1.72,1.14.61.2,1.54-.46,2.18-.23.61.22,1.08.84,1.72,1.09.6.24,1.18.56,1.81.82s1.26.39,1.88.67,1.05.86,1.66,1.15c.59.28,1.5-.05,2.1.26s1.13.69,1.73,1.01,1.11.72,1.69,1.06.8,1.22,1.37,1.58,1.6-.06,2.17.3.95.97,1.5,1.35,1.13.7,1.67,1.1,1.21.61,1.73,1.03.56,1.41,1.08,1.84,1.6.18,2.1.62,1.06.83,1.55,1.29.14,1.76.62,2.23,1.22.64,1.68,1.13.79,1.06,1.24,1.56,1.51.45,1.94.96.04,1.68.45,2.2,1.66.4,2.06.94.9,1.01,1.28,1.56c.38.54-.33,1.82.04,2.38s1.83.41,2.18.99.22,1.43.55,2.01.63,1.17.94,1.77.77,1.1,1.07,1.71-.25,1.58.03,2.19,1.48.8,1.74,1.42.14,1.38.39,2,.17,1.35.4,1.98.28,1.3.48,1.93.8,1.13.99,1.77.34,1.28.51,1.93.53,1.23.69,1.89.91,1.16,1.06,1.82-.04,1.38.08,2.04-.07,1.37.04,2.03-.07,1.35.03,2.02,1.12,1.19,1.2,1.86-.47,1.4-.4,2.07-.1,1.34-.05,2.01.64,1.29.68,1.96.12,1.35.15,2.02c0,1.01.06.75-.01,2.04-.03.57,0,1.25-.06,2.02-.04.61-.95,1.22-1,1.94-.05.63.04,1.31-.02,2.01-.06.64.37,1.36.3,2.05-.07.65-.08,1.32-.16,2.01-.07.65-.25,1.31-.34,1.99s-.42,1.29-.51,1.96-.83,1.22-.93,1.9-.09,1.33-.2,2-.16,1.32-.27,1.99-.31,1.3-.44,1.96-.5,1.26-.63,1.92.33,1.43.19,2.09-.57,1.24-.73,1.9-.07,1.36-.24,2.01.04,1.4-.14,2.05-.58,1.24-.77,1.88.2,1.48,0,2.12-.41,1.32-.63,1.95c-.36.92-1,.49-1.28,1.63-.14.57-.85,1.16-.94,1.88-.08.63,1.03,1.36,1.05,2.04s-.78,1.43-.62,2.08.87,1.1,1.22,1.68c.33.54.71,1.05,1.25,1.5.47.39.69,1.46,1.35,1.75.56.24,1.46-.12,2.16.03.6.13,1.27.16,1.98.21.61.04,1.28-.07,1.98-.09.62-.02,1.29.07,1.99,0,.62-.07,1.41.15,2.09-.08.6-.2,1.25-.54,1.88-.85.57-.28.96-1,1.55-1.37.54-.34,1.57-.08,2.13-.5.52-.38,1.05-.87,1.58-1.31.49-.42.08-1.89.59-2.36.47-.44,1.6-.24,2.08-.73.46-.47.24-1.58.7-2.09s1.39-.53,1.83-1.05.64-1.18,1.07-1.72.72-1.11,1.13-1.65,1.03-.88,1.43-1.44c.38-.54,1.26-.75,1.64-1.32s0-1.6.35-2.17.47-1.26.82-1.84.61-1.17.95-1.75.59-1.18.91-1.77.92-1,1.23-1.6.96-1,1.26-1.61.4-1.28.69-1.89.25-1.35.53-1.96.41-1.26.68-1.88,1.01-1.01,1.27-1.64.32-1.3.57-1.93.82-1.11,1.06-1.74,1.01-1.06,1.24-1.69.5-1.25.72-1.89.04-1.4.24-2.04-.31-1.49-.11-2.14.21-1.32.4-1.97,1.23-1.04,1.41-1.69.29-1.31.46-1.96.06-1.36.22-2.01.37-1.28.52-1.94-.26-1.42-.13-2.08,1.36-1.09,1.49-1.75c.13-.65.36-1.3.48-1.96s-.7-1.48-.59-2.14.37-1.29.47-1.96-.05-1.35.04-2.02-.04-1.35.04-2.01.16-1.32.23-1.99.52-1.29.58-1.96-.19-1.35-.13-2.02-.03-1.33,0-2.01.1-1.32.13-2,1.04-1.29,1.06-1.96-.88-1.36-.86-2.04.65-1.32.66-1.99.5-1.34.5-2.01-.95-1.33-.96-2,.76-1.35.74-2.02-.24-1.33-.26-2.01.6-1.37.56-2.04-.41-1.32-.45-1.99-.42-1.31-.48-1.98.08-1.35.02-2.02-.2-1.33-.27-2-.98-1.24-1.06-1.9.65-1.42.57-2.09.11-1.37.01-2.04.07-1.37-.03-2.04-.27-1.32-.38-1.99-.17-1.34-.29-2-1.06-1.17-1.19-1.83-.48-1.27-.62-1.93.15-1.4,0-2.05.08-1.39-.06-2.05c-.15-.65-.4-1.28-.56-1.94s-.24-1.32-.41-1.98-.19-1.34-.36-1.99-.36-1.3-.54-1.95c-.18-.64-1.39-1-1.58-1.65s.54-1.55.35-2.2-.5-1.25-.7-1.9-.32-1.31-.52-1.95-.49-1.25-.7-1.89-.39-1.29-.61-1.93-.96-1.09-1.19-1.72-.7-1.16-.93-1.78-.06-1.4-.29-2.02-.82-1.11-1.06-1.72-.66-1.16-.91-1.78-.26-1.33-.52-1.94-.08-1.41-.35-2.02-.99-1.02-1.26-1.62-.36-1.3-.64-1.9-.44-1.26-.73-1.86.07-1.52-.22-2.12-1.81-.58-2.11-1.17-.58-1.19-.88-1.78.53-1.79.21-2.38-1.53-.68-1.85-1.26-.7-1.13-1.03-1.71-.18-1.43-.52-2-.41-1.31-.75-1.88-1.33-.74-1.69-1.31c-.36-.57-.57-1.21-.93-1.77s-.86-1.03-1.23-1.58-.45-1.3-.83-1.85-.9-1-1.28-1.54-1.06-.88-1.45-1.42-.96-.94-1.35-1.47-.18-1.54-.58-2.06-.48-1.32-.89-1.84-1.42-.57-1.84-1.09-.23-1.54-.66-2.05-1.49-.48-1.93-.98-.3-1.51-.75-2.01-1.29-.64-1.74-1.13-.93-.95-1.39-1.43-1.19-.7-1.66-1.17-.63-1.25-1.1-1.72-.6-1.3-1.08-1.75-1.18-.7-1.66-1.16-1.42-.41-1.92-.86-1.22-.62-1.72-1.06-.69-1.23-1.2-1.65-.51-1.47-1.02-1.89-.99-.9-1.51-1.32-1.81.17-2.34-.24-.46-1.61-.99-2-.89-1.06-1.43-1.44-1.33-.43-1.88-.8-.92-1.03-1.47-1.39-1.53-.09-2.09-.44-1.25-.51-1.81-.85-.73-1.38-1.3-1.71-1.15-.69-1.72-1.02-1.36-.3-1.95-.61-.98-1.01-1.57-1.31-1.2-.59-1.8-.88-1.27-.44-1.87-.73-1.64.4-2.25.13-1.02-.96-1.64-1.22-1.08-.87-1.7-1.11-1.23-.52-1.85-.76-1.49.21-2.11-.01-1.09-.9-1.72-1.1-1.46.24-2.1.04-1.17-.7-1.81-.89-1.21-.6-1.85-.77-1.11-1.05-1.76-1.2-1.39.06-2.04-.08-1.38.13-2.04,0-1.3-.25-1.96-.36-1.36.11-2.01,0-1.2-.99-1.86-1.07-1.41.59-2.07.52-1.29-.45-1.95-.5-1.35.37-2.01.33-1.31-.13-1.97-.16-1.3-1.04-1.97-1.05-1.34.5-2,.51-1.33-.1-2-.08-1.35-.32-2.01-.28-1.31.36-1.98.41-1.35-.07-2.01,0-1.33.13-1.99.21-1.36-.05-2.02.05-1.23.77-1.88.88-1.22.65-1.88.78-1.27.37-1.92.51-1.26.39-1.9.55-1.5-.5-2.14-.32-1.09,1.01-1.73,1.19-1.26.39-1.89.6-1.31.23-1.94.45-1.4.01-2.03.25-1.11.82-1.72,1.07-1.32.27-1.94.53-1.26.45-1.86.72-1.43.1-2.03.39-1.22.55-1.82.86-.92,1.12-1.51,1.44-.83,1.22-1.41,1.55-1.57-.07-2.14.28-1.01.9-1.57,1.26-1.2.59-1.76.96-1.18.63-1.73,1.01-.57,1.49-1.11,1.88-1.35.39-1.89.79-1.13.92-1.65,1.33c-.99-.04-.26-1.22-1.37-1.81-.49-.26-1.67.71-2.38.42-.55-.23-1.04-.66-1.73-.87-.59-.18-1.09-.75-1.78-.91-.61-.14-1.32.18-2,.08-.62-.09-1.16-1.16-1.85-1.22-.63-.05-1.34.9-2.02.89-.64-.01-1.27-.19-1.95-.16-.64.03-1.33-.45-2.01-.38-.64.06-1.2.78-1.88.88-.63.1-1.32-.08-1.99.06-.63.13-1.22.44-1.88.6s-1.52-.56-2.16-.36-1.31.26-1.95.48-1,1.09-1.63,1.34-1.25.4-1.87.67-1.33.26-1.94.54-.87,1.2-1.47,1.5-1.4.15-1.99.48-.81,1.22-1.4,1.56-.97.9-1.55,1.25-1.68-.22-2.25.15-.91,1-1.47,1.38-1.46.22-2,.61-1.07.78-1.61,1.18-.47,1.55-1,1.96-1.06.78-1.58,1.2-1.63.09-2.15.52-.35,1.63-.84,2.08-.97.87-1.45,1.35-.62,1.21-1.07,1.7-1.17.7-1.61,1.21-1.12.79-1.53,1.31-.98.92-1.38,1.46-.04,1.59-.42,2.14-.89.98-1.25,1.54-1.34.71-1.69,1.28-.63,1.17-.96,1.75-.38,1.31-.7,1.89-.71,1.12-1.02,1.71.02,1.49-.27,2.09-1.63.68-1.91,1.28.22,1.56-.05,2.17-.38,1.27-.64,1.88-1.51.81-1.76,1.43.44,1.59.2,2.22-1.06,1.01-1.29,1.64-.88,1.1-1.1,1.73.05,1.42-.15,2.05-.06,1.37-.26,2-1.21,1.02-1.4,1.66.23,1.45.06,2.09,0,1.37-.17,2.01-.13,1.33-.28,1.97-.45,1.25-.6,1.9-1.2,1.09-1.34,1.74-.35,1.29-.48,1.94.73,1.49.61,2.14-.08,1.32-.2,1.98-.1,1.32-.21,1.97-.92,1.2-1.02,1.86.56,1.41.48,2.07-1.13,1.19-1.21,1.85c-.08.66-.56,1.28-.63,1.94s.15,1.35.1,2.02-.41,1.31-.46,1.97.31,1.36.27,2.02.63,1.36.6,2.02-.23,1.31-.25,1.98-.77,1.31-.78,1.97,1.21,1.34,1.21,2-.48,1.32-.48,1.99-.33,1.33-.31,2,.45,1.31.48,1.97.36,1.3.4,1.97-.3,1.34-.25,2,.06,1.32.12,1.98.49,1.28.56,1.94-.55,1.39-.47,2.05-.03,1.35.06,2,.45,1.28.55,1.94.72,1.22.83,1.88.41,1.26.54,1.92.24,1.3.37,1.94.3,1.28.44,1.93-1.01,1.61-.85,2.25.63,1.22.8,1.86,1.08,1.08,1.27,1.71.64,1.18.83,1.82-.03,1.4.18,2.03.57,1.2.8,1.82.31,1.3.54,1.92.58,1.19.83,1.81-.35,1.59-.09,2.2,1.34.86,1.62,1.46.32,1.32.61,1.91.37,1.31.68,1.89.3,1.36.62,1.94,1.13.89,1.47,1.46.61,1.19.96,1.75.42,1.32.79,1.87,1.12.85,1.5,1.4.28,1.45.68,1.98,1.94.18,2.35.7.69,1.12,1.12,1.63.22,1.57.67,2.06,1.1.8,1.56,1.28.99.89,1.46,1.35.47,1.44.96,1.89,1.56.26,2.06.69.94.94,1.46,1.36,1.41.33,1.94.73.93.94,1.47,1.33.65,1.39,1.2,1.76,1.29.45,1.85.8.99.94,1.56,1.27,1.32.22,1.91.54c.94.21.99.8,2.03.41.53-.19,1.09-.82,1.65-1.25.46-.35.99-.87,1.39-1.44.33-.48-.03-1.37.21-2.03.2-.55,1.39-.93,1.49-1.63.08-.58-.47-1.31-.48-2,0-.59-.12-1.23-.19-1.91-.07-.6.05-1.26-.08-1.93-.11-.59-.56-1.15-.73-1.81-.14-.55.48-1.31.38-2.06-.07-.6-.37-1.21-.41-1.93-.04-.62-1.09-1.25-1.1-1.96-.01-.63,1.33-1.3,1.34-1.99,0-.64-.4-1.3-.38-1.99.02-.64-.12-1.31-.08-1.99.04-.64-.52-1.35-.47-2.02s1.1-1.23,1.15-1.9-.7-1.38-.63-2.05.11-1.31.19-1.98.07-1.32.15-1.99.26-1.3.34-1.97.35-1.28.44-1.95.98-1.19,1.08-1.85-1.14-1.51-1.04-2.17c.1-.65.34-1.29.45-1.95s1.35-1.11,1.46-1.77-.79-1.48-.67-2.13.44-1.26.57-1.92.61-1.23.73-1.89.2-1.31.33-1.96.43-1.26.57-1.91.56-1.23.7-1.89-.83-1.54-.69-2.19.53-1.24.68-1.89-.11-1.39.04-2.04.99-1.13,1.15-1.78-.21-1.42-.05-2.07,1.33-1.03,1.5-1.68.12-1.34.29-1.98-.05-1.39.13-2.03.4-1.27.58-1.91,1.04-1.08,1.23-1.72-.03-1.39.16-2.03.91-1.11,1.1-1.74-.53-1.56-.33-2.19-.03-1.41.17-2.04,1.58-.88,1.79-1.51.59-1.2.8-1.83-.9-1.73-.68-2.35,1.08-1.03,1.31-1.65,1.2-.97,1.43-1.59-.02-1.43.22-2.04-.07-1.46.18-2.07,1.14-.97,1.4-1.58.86-1.08,1.12-1.68-.73-1.77-.46-2.38.65-1.18.92-1.78.83-1.09,1.11-1.69,1.41-.8,1.7-1.39-.02-1.5.28-2.09,1.15-.9,1.46-1.48-.42-1.74-.11-2.32,1.18-.87,1.5-1.45.62-1.18.96-1.75.59-1.2.94-1.76.81-1.07,1.17-1.62.52-1.26.9-1.8.97-.95,1.36-1.48.54-1.27.94-1.79c.43-.56,1.09-1.11,1.65-1.4.61-.31,1.43-.77,2.09-.8s1.37.75,1.98,1.01,1.18.64,1.63,1.15c.43.48,1.29.91,1.49,1.59Z"/><path class="cls-2" d="m259.48,150.58c-.44.56-.77,1.25-1.28,1.76s-1.33.64-1.91,1.08-1.16.77-1.79,1.13-1.08.99-1.75,1.28c-.64.27-1.3.42-2,.64-.42.86.35.63.67,1.75.15.54.4,1.16.56,1.84.14.59.27,1.24.38,1.9s.05,1.3.1,1.94.2,1.32.18,1.94c-.02.67-.06,1.38-.21,1.96-.17.66-.49,1.36-.87,1.83s-1.15.58-1.81.78-1.39.32-2.02-.13c-.47-.34-.8-1.03-1.26-1.64-.37-.49-.58-1.16-.96-1.78-.33-.55-.98-.96-1.31-1.58-.3-.58-.34-1.32-.65-1.94s-.66-1.17-.96-1.78-.36-1.32-.66-1.93-.72-1.16-1.02-1.76-.74-1.15-1.06-1.73c-.34-.61-.61-1.24-.96-1.79-.37-.6-.78-1.15-1.17-1.66-.44-.58-1.12-.85-1.58-1.28-.54-.5-.91-1.13-1.48-1.35-.64-.25-1.32-.42-2-.23-1.05-.01-1.31-.26-2.17.3-.48.31-.97,1.07-1.03,2.01-.04.55.03,1.32.26,2.16.16.58.7,1.13,1.03,1.87.25.58.63,1.16,1,1.84.3.57.5,1.26.89,1.91.32.53.5,1.17.81,1.79.28.56.58,1.13.85,1.76.25.58.47,1.19.71,1.83.23.59.4,1.22.61,1.86.21.6.42,1.22.62,1.86s.78,1.12.97,1.76,0,1.35.17,1.99.38,1.24.54,1.89.28,1.27.43,1.92.32,1.26.46,1.91.26,1.28.39,1.93.47,1.24.59,1.89.34,1.27.46,1.92.06,1.32.17,1.97c.11.65.35,1.27.45,1.92s.27,1.29.36,1.94.08,1.32.17,1.97-.02,1.33.06,1.98.34,1.29.41,1.94.06,1.32.12,1.97.07,1.32.12,1.97-.18,1.34-.14,1.98.61,1.29.65,1.93.05,1.33.07,1.97-.47,1.34-.45,1.98.41,1.33.41,1.97,0,1.33-.01,1.97c-.02.68-.27,1.32-.31,1.96-.04.68-.22,1.32-.29,1.94-.07.68.13,1.37.03,1.98-.1.64-.29,1.27-.42,1.9s-.23,1.28-.39,1.91c-.16.63-.47,1.22-.65,1.84s-.32,1.27-.52,1.88-.29,1.28-.5,1.89-.36,1.26-.59,1.86-.74,1.12-.97,1.72-.62,1.17-.84,1.77c-.23.63-.19,1.34-.4,1.93-.22.64-.73,1.16-.91,1.75-.2.65-.07,1.37-.21,1.96-.16.67-.57,1.27-.63,1.88-.07.7.14,1.37.24,1.96.11.67.36,1.27.73,1.79.35.48.91.77,1.54,1.11.51.27,1.04.64,1.76.8.61.14,1.33.31,2.03.15.59-.14,1.21-.5,1.86-.83.55-.28.97-.85,1.55-1.27.51-.37.92-.88,1.45-1.35.47-.42,1.07-.74,1.55-1.24.44-.46,1.12-.74,1.58-1.26.42-.49.87-.99,1.3-1.53.4-.51.42-1.33.82-1.88s1.08-.84,1.46-1.41.84-1.03,1.2-1.6.56-1.2.91-1.79.78-1.07,1.11-1.66.38-1.3.7-1.89.53-1.21.84-1.81.87-1.05,1.16-1.65.57-1.19.85-1.81.4-1.27.66-1.89.67-1.15.93-1.78.49-1.23.73-1.86.42-1.26.65-1.89.06-1.38.28-2.02.6-1.19.81-1.83.55-1.21.75-1.85.4-1.26.59-1.91.1-1.35.27-1.99.53-1.23.69-1.88.07-1.35.22-2,.43-1.26.57-1.92.37-1.28.51-1.93.54-1.25.66-1.91.09-1.33.2-1.99.06-1.34.15-2,.19-1.31.28-1.98.04-1.33.12-1.99.46-1.29.52-1.95-.17-1.35-.12-2.02.22-1.32.27-1.98-.11-1.33-.08-2,.08-1.32.1-1.99.42-1.32.43-1.99-.19-1.33-.2-2,.03-1.33.01-2,.1-1.34.07-2-.17-1.32-.21-1.99c0-1.01.11-.72.15-2.01.02-.57.05-1.24.07-2.02.01-.61.12-1.29.13-2.02,0-.63-.2-1.31-.2-2.02,0-.65-.16-1.32-.16-2.02,0-.65-.05-1.33-.05-2.02,0-.66-.05-1.33-.07-2.02s.18-1.4-.04-1.99c-.24-.65-.81-1.07-1.24-1.56s-.93-.88-1.52-1.19-1.16-.59-1.82-.69-1.33-.27-1.99-.14-1.21.5-1.8.87c-.54.34-1.06.73-1.5,1.29Z"/><path class="cls-2" d="m66.06,136.32c.71.71.14.63-.07,1.9-.09.55-.32,1.2-.44,1.95-.09.6-.2,1.26-.31,1.98-.09.62-.15,1.29-.25,1.98-.09.63-.39,1.26-.49,1.95-.09.64.06,1.33-.03,2.01-.08.64-.26,1.29-.35,1.97s-.24,1.3-.32,1.98-.2,1.31-.27,1.98-.05,1.33-.13,2-.15,1.32-.22,1.99-.09,1.33-.15,2,.02,1.34-.04,2.01-.19,1.32-.24,1.98-.18,1.32-.22,1.99-.16,1.33-.2,1.99.14,1.35.1,2.01-.21,1.33-.24,2-.11,1.34-.13,2,.09,1.34.08,2.01,0,1.34,0,2,.02,1.34.03,2,.04,1.34.07,2-.14,1.35-.11,2.01.12,1.35.18,2,.24,1.33.32,1.97c.08.68.19,1.34.3,1.97.13.96.08.95-.05,1.96-.08.64-.32,1.32-.68,1.83-.35.5-.89.7-1.67.69-.5,0-1.07-.13-1.81-.49-.49-.24-1.04-.55-1.65-.99-.47-.34-.97-.74-1.52-1.21-.49-.41-.93-.9-1.44-1.4-.46-.45-1.02-.84-1.49-1.36-.43-.48-.82-1.04-1.26-1.58-.41-.51-.87-1-1.29-1.55s-.86-1.02-1.26-1.58-.71-1.13-1.09-1.7-.85-1.05-1.21-1.63-.7-1.14-1.04-1.74-.52-1.25-.85-1.85-.52-1.24-.83-1.85-.85-1.08-1.15-1.69-.39-1.3-.68-1.92-.66-1.18-.93-1.8-.52-1.24-.78-1.87-.33-1.32-.57-1.95-.61-1.21-.84-1.85-.46-1.27-.67-1.91-.44-1.27-.64-1.92-.36-1.3-.54-1.95-.27-1.32-.44-1.98-.34-1.3-.49-1.96-.39-1.29-.53-1.96-.08-1.36-.19-2.02-.24-1.32-.33-1.99-.51-1.29-.59-1.96.06-1.37,0-2.04-.33-1.37-.37-2.04c.18-1.01.47-.84,1.2-1.72.4-.48.88-1.01,1.53-1.35.55-.29,1.23-.52,1.99-.53.6-.01,1.27.16,2.01.42.57.2,1.08.57,1.74.97.58.82.35.67.68,1.85.16.56.41,1.19.64,1.9.19.6.43,1.23.67,1.89.23.62.49,1.23.76,1.85s.49,1.26.8,1.84c.33.61.6,1.24.97,1.76.42.59.9,1.06,1.37,1.46.56.47,1.14.69,1.77.78.71.1,1.11-.13,1.58-.64.37-.4.77-.87,1.08-1.55.24-.53.44-1.15.68-1.8.22-.57.52-1.15.77-1.78.23-.58.6-1.12.87-1.73.26-.57.55-1.14.86-1.72s.54-1.15.91-1.7.6-1.15,1.03-1.65.83-.99,1.32-1.44,1.1-.68,1.64-1.06c.51-.36,1.04-.71,1.63-1.03.55-.3,1.1-.63,1.73-.88.58-.23,1.1-.3,1.74-.49Z"/><path class="cls-1" d="m105.93,54.08c.73-.72-.16-.87-.23-2.07-.04-.61-.03-1.3,0-2.04.03-.66-.01-1.36.12-2.04s.36-1.34.63-1.95.63-1.24,1.12-1.71,1.09-.73,1.79-.94c.58-.18,1.23-.24,2-.2.61.03,1.26.16,2,.35s1.39.41,1.91.71c.68.39,1.25.78,1.58,1.31.37.59.38,1.3.4,2,.02.65.04,1.34-.17,2.04-.19.63-.41,1.3-.73,1.93s-.79,1.13-1.16,1.71-.81,1.15-1.2,1.67c-.45.6-.79,1.23-1.18,1.69-.8.94-1.81.55-1.41,1.49.37.86.79-.18,1.86-.08.56.05,1.19.2,1.83.39.58.18,1.15.44,1.69.8.49.34,1.02.72,1.39,1.27.32.47.57,1.07.73,1.74.14.55.12,1.18.12,1.87,0,.76-.07,1.45-.23,2.05-.2.74-.57,1.3-.97,1.79-.45.55-.93,1.05-1.58,1.29-.61.23-1.31.25-2.05.2-.64-.04-1.33-.13-2.03-.38-.61-.21-1.19-.59-1.83-.96-.56-.33-1.21-.61-1.78-1.06-.52-.4-1.04-.87-1.55-1.38-.47-.46-.86-.93-1.33-1.48-.94.45-.22.73-.55,1.93-.16.59-.37,1.25-.64,1.97-.23.62-.53,1.24-.86,1.88-.32.6-.56,1.28-.97,1.84s-.93,1.03-1.45,1.5-1.09.84-1.71,1.16-1.22.66-1.93.8c-.64.12-1.34,0-2.09-.05-.64-.05-1.32-.15-2.04-.35s-1.32-.35-1.81-.63c-.63-.36-1.09-.81-1.42-1.29-.38-.54-.59-1.15-.65-1.79-.06-.6.04-1.24.21-1.9.15-.59.37-1.19.67-1.8.28-.55.68-1.06,1.06-1.6s.65-1.1,1.07-1.59.89-.93,1.34-1.37.89-.95,1.38-1.34c.52-.42,1.06-.78,1.57-1.11.59-.38,1.21-.58,1.74-.8.71-.29,1.35-.46,1.87-.39-.66.69-.76.21-1.91.35-.55.07-1.21.02-1.91.06-.6.03-1.25.17-1.91.15-.62-.02-1.27-.09-1.91-.18s-1.24-.31-1.85-.48-1.26-.3-1.82-.59-1.12-.65-1.59-1.08-.73-1.02-1.04-1.6c-.29-.53-.64-1.07-.78-1.74-.15-.73-.08-1.43-.07-2.06.02-.75.12-1.41.37-1.99.28-.65.71-1.14,1.25-1.56.51-.4,1.09-.67,1.81-.85.61-.15,1.27-.37,2.02-.35.63.01,1.32.12,2.05.26.63.12,1.28.35,1.98.57.62.2,1.26.43,1.93.71.6.25,1.19.61,1.83.93.59.3,1.19.61,1.81.97.57.33,1.25.54,1.85.93.56.36,1.14.74,1.72,1.15.55.38,1.09.9,1.65,1.33Z"/></g></svg>