<?xml version="1.0" encoding="UTF-8"?>
<svg id="_層_1" xmlns="http://www.w3.org/2000/svg" viewBox="0 0 300 300">
    <path d="M78.09,88.71c1.84-5.95-.33-12.55-5.49-16.03-3.02-2.04-6.76-2.76-10.89,.35-10.64,7.98-28.36,59.8-6.2,85.1,0,0,11.52,8.01,14.51-13.94,2.67-19.59,2.58-37.76,8.07-55.48Z"
          style="fill:#be6957;"/>
    <path d="M223.1,88.71c-1.84-5.95,.33-12.55,5.49-16.03,3.02-2.04,6.76-2.76,10.89,.35,10.64,7.98,28.36,59.8,6.2,85.1,0,0-11.52,8.01-14.51-13.94-2.67-19.59-2.58-37.76-8.07-55.48Z"
          style="fill:#be6957;"/>
    <path d="M166.82,48.16s-2.76-9.71-19.35-9.05-16.6,8.65-18.59,16.63-6.65,17.29,4.66,23.94c11.31,6.65,30.67,3.99,33.29-3.33s6.69-9.18,0-28.2Z"
          style="fill:#be6957;"/>
    <path d="M162.46,70.92s2.99-8.42-7.32-9.64-22.61-3.1-22.95,9.64c0,0-.33,7.76,10.97,9.09s21.18-1.42,19.29-9.09Z"
          style="fill:#7f210b;"/>
    <g>
        <path d="M134.19,42.74s2-11.28,9.98-13.27,18.3-.01,20.29,14.63c0,0-10.2-10.21-30.27-1.35Z" style="fill:#fff;"/>
        <path d="M134.69,40.72s13.84-10.11,29.34,.96c0,0-.21-1.26-.72-2.59,0,0-9.29-10.18-27.74-.87l-.88,2.5Z"
              style="fill:#aec3e3;"/>
        <path d="M160.85,34.3s-11.38-5.03-23.18,0c0,0,1.2-1.78,2.36-2.65,0,0,11.28-3.33,18.84,.52,0,0,1.69,.43,1.97,2.14Z"
              style="fill:#aec3e3;"/>
    </g>
</svg>
