<?xml version="1.0" encoding="UTF-8"?>
<svg width="34.9985211px" height="35px" viewBox="0 0 34.9985211 35" version="1.1" xmlns="http://www.w3.org/2000/svg" xmlns:xlink="http://www.w3.org/1999/xlink">
    <title>btn_genderBoy Copy</title>
    <g id="視覺" stroke="none" stroke-width="1" fill="none" fill-rule="evenodd">
        <g id="btn_genderBoy-Copy" transform="translate(2.9999, 3)" fill-rule="nonzero">
            <path d="M3.54114504,25.4576296 C6.99827591,28.9157728 12.1982173,29.950699 16.7159748,28.07977 C21.2337323,26.2088409 24.1794882,21.800555 24.1794882,16.9107177 C24.1794882,12.0208805 21.2337323,7.61259455 16.7159748,5.74166553 C12.1982173,3.8707365 6.99827591,4.90566268 3.54114504,8.36380591 C1.27383174,10.6303058 0,13.7048276 0,16.9107177 C0,20.1166079 1.27383174,23.1911297 3.54114504,25.4576296 L3.54114504,25.4576296 Z M17.4296307,11.569144 C19.5901998,13.7289779 20.2368417,16.9776991 19.0679891,19.8002379 C17.8991366,22.6227768 15.1450121,24.4631934 12.0900258,24.4631934 C9.03503937,24.4631934 6.28091489,22.6227768 5.11206236,19.8002379 C3.94320984,16.9776991 4.58985169,13.7289779 6.75042085,11.569144 C8.1662269,10.1523424 10.0870696,9.35630785 12.0900258,9.35630785 C14.0929819,9.35630785 16.0138246,10.1523424 17.4296307,11.569144 L17.4296307,11.569144 Z" id="Shape" fill="#007FDD"></path>
            <polygon id="Path" fill="#007FDD" transform="translate(21.4665, 7.5332) rotate(-135) translate(-21.4665, -7.5332)" points="19.1983579 2.43775295 23.7346594 2.43775295 23.7346594 12.6286803 19.1983579 12.6286803"></polygon>
            <polygon id="Path" fill="#007FDD" points="19.3551961 0 19.3551961 4.53630151 24.4624731 4.53630151 24.4624731 9.64357847 28.9987746 9.64357847 28.9987746 0"></polygon>
            <path d="M21.9265545,10.2263672 C21.2754729,9.27221912 20.4903612,8.41681873 19.5953996,7.68651089 L19.8434786,7.37936548 C20.1663751,7.64319551 20.481396,7.92671436 20.7767281,8.22204649 C21.3230398,8.76971567 21.8173772,9.36687531 22.2533888,10.0058526 L21.9265545,10.2263672 Z M24.6593612,7.74557732 L24.265585,7.74557732 L24.265585,4.7331896 L22.5684097,4.7331896 L22.5684097,4.33941342 L24.6593612,4.33941342 L24.6593612,7.74557732 Z" id="Shape" fill="#0058AF"></path>
        </g>
    </g>
</svg>