<?xml version="1.0" encoding="UTF-8"?>
<svg width="34.9985211px" height="35px" viewBox="0 0 34.9985211 35" version="1.1" xmlns="http://www.w3.org/2000/svg" xmlns:xlink="http://www.w3.org/1999/xlink">
    <title>btn_genderBoy Copy 2</title>
    <g id="視覺" stroke="none" stroke-width="1" fill="none" fill-rule="evenodd">
        <g id="btn_genderGirl-Copy" transform="translate(5.059, 0)" fill="#FF5F89" fill-rule="nonzero">
            <path d="M24.8805717,12.4402858 C24.8805717,5.5686588 19.3101639,0 12.4402858,0 C5.57040776,0 0,5.57040776 0,12.4402858 C0,18.5126424 4.35138917,23.5653608 10.1054367,24.6584549 L10.1054367,27.3063662 L6.28223066,27.3063662 L6.28223066,31.9760644 L10.1054367,31.9760644 L10.1054367,35 L14.7751349,35 L14.7751349,31.9760644 L18.596592,31.9760644 L18.596592,27.3063662 L14.7751349,27.3063662 L14.7751349,24.6584549 C20.5291825,23.5653608 24.8805717,18.5126424 24.8805717,12.4402858 Z M4.66794923,12.4402858 C4.66794923,8.14836098 8.14661203,4.66969818 12.4402858,4.66969818 C16.7339596,4.66969818 20.2108735,8.14836098 20.2108735,12.4402858 C20.2108735,16.7322107 16.7322107,20.2108735 12.4402858,20.2108735 C8.14836098,20.2108735 4.66794923,16.7322107 4.66794923,12.4402858 Z" id="Shape"></path>
            <path d="M12.4402858,25.0834499 C11.6410154,25.0834499 10.8434939,25.0082451 10.0669598,24.8613332 L10.1421647,24.4625725 C11.2982211,24.6829402 12.5102439,24.7336598 13.6907855,24.6147312 L13.7310114,25.0169898 C13.3042674,25.0607136 12.8687787,25.081701 12.4385369,25.081701 L12.4402858,25.0834499 Z M10.1054367,27.1034879 L13.7117729,27.1034879 L13.7117729,27.5092445 L10.1054367,27.5092445 L10.1054367,27.1034879 Z M10.1054367,31.7731861 L13.7117729,31.7731861 L13.7117729,32.1789426 L10.1054367,32.1789426 L10.1054367,31.7731861 Z" id="Shape"></path>
        </g>
    </g>
</svg>