<svg width="117.871" height="110" xmlns="http://www.w3.org/2000/svg" xmlns:xlink="http://www.w3.org/1999/xlink">
    <defs>
        <path id="a" d="M0 110h117.871V0H0z"/>
    </defs>
    <g fill="none" fill-rule="evenodd">
        <path fill="#F8F3E0" d="M40.538 101.441h69.975V8.56H40.538z"/>
        <path fill="#E8E3D2" d="M75.525 101.441h34.988V8.56H75.525z"/>
        <path fill="#DBD4BC" d="M37.878 110h75.296v-8.559H37.878z"/>
        <path fill="#C2BCA6" d="M75.525 110h37.649v-8.559H75.525z"/>
        <path fill="#E15138" d="M37.878 8.559h75.296V0H37.878z"/>
        <path fill="#C23E27" d="M75.525 8.559h37.649V0H75.525z"/>
        <path fill="#E16A56" d="M40.537 64.556h34.988V43.879H40.537z"/>
        <path fill="#CF5A46" d="M75.525 64.556h34.988V43.879H75.525z"/>
        <path d="M75.525 55.297c-23.35 0-42.346-18.996-42.346-42.346 0-1.123.91-2.034 2.034-2.034h5.325a2.034 2.034 0 0 1 0 4.068h-3.237C38.363 35.15 55.1 51.23 75.525 51.23c20.424 0 37.163-16.08 38.225-36.244h-3.237a2.034 2.034 0 1 1 0-4.068h5.324c1.124 0 2.034.91 2.034 2.034 0 23.35-18.996 42.346-42.346 42.346" fill="#C2BCA6"/>
        <path d="M67.042 8.56H40.538v16.217a4.242 4.242 0 1 0 8.483 0v-4.134a4.77 4.77 0 1 1 9.538 0v18.176a4.242 4.242 0 1 0 8.483 0V24.777a4.242 4.242 0 1 0 8.484 0V8.559h-8.484Z" fill="#E16A56"/>
        <path d="M102.03 8.56H75.525v8.426a4.77 4.77 0 1 1 9.54 0V31.48a4.241 4.241 0 1 0 8.482 0v-6.702a4.242 4.242 0 0 0 8.483 0v-5.472a4.242 4.242 0 0 1 8.483 0V8.559h-8.483Z" fill="#CF5A46"/>
        <mask id="b" fill="#fff">
            <use xlink:href="#a"/>
        </mask>
        <path fill="#F8F3E0" mask="url(#b)" d="M6.564 103.224h55.394V43.36H6.564z"/>
        <path fill="#E8E3D2" mask="url(#b)" d="M34.262 103.224h27.697V43.36H34.262z"/>
        <path fill="#DBD4BC" mask="url(#b)" d="M4.458 110h59.607v-6.776H4.458z"/>
        <path fill="#C2BCA6" mask="url(#b)" d="M34.262 110h29.803v-6.776H34.262z"/>
        <path fill="#F79D36" mask="url(#b)" d="M4.458 43.359h59.607v-6.775H4.458z"/>
        <path fill="#E88733" mask="url(#b)" d="M34.262 43.359h29.803v-6.775H34.262z"/>
        <path d="M61.958 47.175h4.215c0 17.624-14.287 31.912-31.912 31.912-17.624 0-31.911-14.288-31.911-31.912h4.215" stroke="#DBD4BC" stroke-width="5" stroke-linecap="round" stroke-linejoin="round" mask="url(#b)"/>
        <path d="M16.637 59.555a3.358 3.358 0 0 1-3.358-3.358V43.36h6.716v12.838a3.358 3.358 0 0 1-3.358 3.358M30.904 70.672a3.358 3.358 0 0 1-3.358-3.358V43.36h6.716v23.954a3.358 3.358 0 0 1-3.358 3.358" fill="#F7BB36" mask="url(#b)"/>
        <path d="M6.564 43.36v8.506a3.357 3.357 0 1 1 6.716 0v-8.507H6.564ZM19.995 43.36v9.565a3.776 3.776 0 0 1 7.55 0v-9.566h-7.55Z" fill="#F7BB36" mask="url(#b)"/>
        <path d="M55.243 43.36H34.262v9.565a3.776 3.776 0 0 1 7.55 0v3.272a3.358 3.358 0 1 0 6.716 0v6.67a3.358 3.358 0 0 0 6.715 0V49.78a3.358 3.358 0 0 0 6.716 0v-6.42h-6.716Z" fill="#F0902A" mask="url(#b)"/>
    </g>
</svg>
