<?xml version="1.0" encoding="UTF-8"?><svg id="mouth" xmlns="http://www.w3.org/2000/svg" viewBox="0 0 300 300"><defs><style>.cls-1{fill:#ab4742;}</style></defs><g id="mouth_6"><g id="mouth_5"><path class="cls-1" d="m143.76,231.46c-.65,0-1.34-.02-1.98-.19-1-.26-1.84-.87-2.59-1.54s-1.51-1.34-1.97-2.32c-.53-1.11-.41-2.21-.43-3.09-.04-1.26.06-2.3.46-3.04.4-.73,1.04-1.31,1.66-1.86s1.04-1.02,1.78-1.42c-.82-.54-1.39-1.12-2.03-1.81-.67-.73-.91-1.73-1.34-2.56-.46-.88-.93-1.69-1.09-2.61-.17-.98-.51-1.95-.33-2.83.19-.93.97-1.64,1.51-2.4s1.05-1.51,1.87-2.04c.74-.49,1.62-.82,2.57-1.1.99-.29,1.91-.23,2.8-.19,1,.05,1.98,0,2.82.34.93.38,1.74.97,2.43,1.52.87.7,1.42,1.54,1.84,2.16.61.92.61,2.34-.3,2.95-.92.61-2.26.09-2.87-.82-.07-.1-1.06-1.18-2.54-1.83-.85-.38-1.77-.42-2.98-.07-1.04.3-2.02.39-2.51.99-.56.68-.45,1.62-.27,2.64.14.79.39,1.56.91,2.3.47.67.97,1.39,1.7,1.9.68.47,1.51.76,2.35,1,.79.23,1.62.27,2.51.22,1.04-.08,2.02.85,2.12,1.92.1,1.07-.7,1.87-1.76,2.01-.76.11-1.65.57-2.62.87-.88.27-1.71.67-2.49,1.09-.92.49-1.96.81-2.33,1.5-.22.41-.51,1.33.09,2.61.59,1.23,1.64,1.22,2.14,1.35.73.19,1.52.31,2.38.1.8-.19,1.72-.24,2.44-.57.94-.44,1.76-.96,2.17-1.25.9-.63,2.12-.69,2.76.21.63.9.46,2.45-.44,3.09-.23.16-1.24.84-2.6,1.5-.81.39-1.83.69-2.85.97-.94.26-1.98.32-2.98.32Z"/></g></g></svg>