<svg xmlns="http://www.w3.org/2000/svg" viewBox="0 0 300 300">
    <path d="M119.77 208.35c.56-1.14 1.11-.48 2.08-1.61.48-.56.49-1.78 1.24-2.33.63-.47 1.37-1.11 2.2-1.45.73-.3 1.72-.13 2.62-.24.78-.09 1.65-.24 2.55-.14.78.09 1.58.46 2.46.73.82.44 1.67.73 2.43 1.11.84.42 1.79.46 2.56.82.86.39 1.54 1.01 2.32 1.33.88.36 1.54 1.14 2.33 1.4.91.31 1.85.32 2.65.51.95.23 1.77.89 2.58.97.97.1 1.95.04 2.76-.03.95-.09 1.73-.83 2.53-1.11.85-.3 1.8-.38 2.57-.83s1.59-.83 2.33-1.37c.69-.51.74-1.91 1.48-2.46.68-.51 2.09-.05 2.87-.56.71-.47 1.39-.95 2.21-1.39.75-.4 1.46-.75 2.32-1.11.9-.22 1.52-1.42 2.32-1.5.9-.08 1.88.02 2.69.16s1.79.42 2.58.84c.7.37 1.22 1.23 1.93 1.84.59.51 1.04 1.27 1.66 1.97.53.59.96 1.32 1.53 2.06.51.66.89 1.42 1.15 2.39.22.82.83 1.67.86 2.65.03.87.1 1.85-.03 2.8-.12.87-1.16 1.59-1.42 2.5-.24.85-.05 1.87-.42 2.73-.35.82-.57 1.76-1.04 2.57s-1.56 1.12-2.12 1.87-.37 2.06-1.02 2.74-1.59 1.01-2.31 1.61-1.35 1.25-2.13 1.77-1.61.87-2.45 1.3c-.79.41-1.65.77-2.52 1.13-.83.33-1.81.29-2.71.56-.85.26-1.74.41-2.66.61-.87.19-1.76.27-2.7.4-.88.12-1.78.14-2.72.21s-1.8.41-2.69.43-1.83.43-2.73.4-1.83-.15-2.73-.22-1.75-.71-2.64-.84-1.92.35-2.8.17-1.87-.16-2.74-.39-1.78-.56-2.63-.84-1.57-1.08-2.4-1.41-1.48-1.15-2.27-1.55-1.7-.67-2.46-1.12-1.33-1.26-2.04-1.78a27.02 27.02 0 0 1-2.08-1.66c-.7-.62-2.14-.46-2.72-1.12-.62-.7-1.11-1.56-1.59-2.29-.52-.78-.24-1.97-.6-2.77-.38-.85-.65-1.63-.84-2.5s-.1-1.7-.09-2.6-.47-1.81-.23-2.7.3-1.82.73-2.66Z" fill="none" stroke="#cc2929" stroke-miterlimit="10" stroke-width="10px"/>
</svg>
