<svg xmlns="http://www.w3.org/2000/svg" viewBox="0 0 300 300">
    <path d="M100.11 195.37c1.29-.51 1.03 1.05 2.56 1.93.68.39 1.23 1.34 2.17 1.84.75.4 1.68.65 2.58 1.1.78.39 1.63.8 2.52 1.21.81.38 1.8.45 2.68.84.82.36 1.55 1.05 2.44 1.41.84.34 1.57 1.06 2.47 1.39s2.11-.41 3.01-.11 1.73.62 2.63.9c.83.26 1.58.92 2.47 1.12s1.68.75 2.58.89 1.82-.09 2.72 0 1.82-.45 2.72-.39 1.76.26 2.66.28 1.77-.73 2.67-.74 1.82 1.62 2.71 1.59 1.71-1.63 2.6-1.68 1.88 1.25 2.77 1.17 1.71-1.01 2.59-1.1 1.84.25 2.71.14 1.68-1.07 2.54-1.19c.91-.13 2.04 1.32 2.89 1.18.92-.15 1.6-1.54 2.43-1.69.94-.17 1.82-.3 2.63-.47.98-.2 2.13.77 2.88.59s1.3-1.77 2.34-2.04c.81-.21 1.79-.12 2.75-.37.84-.23 2.04.65 2.96.4.86-.23 1.29-2.16 2.2-2.42s1.84-.19 2.74-.44 1.76-.53 2.65-.77 1.72-.72 2.6-.97 2.1.62 2.98.37 1.54-1.42 2.4-1.66c.92-.26 2.24 1 3.09.76.95-.27 1.35-2.25 2.17-2.48 1-.28 2.3.87 3.05.65 1.66-.47 1.24-2.03 2.31-1.16s-.72.63-1.05 2.32c-.15.75.69 1.86.45 2.86-.19.81-.56 1.66-.82 2.6-.23.82-.36 1.74-.64 2.65-.26.83-.2 1.83-.51 2.71-.3.83-2.01 1.14-2.36 2s-.05 1.91-.43 2.75-.59 1.71-1 2.53-.01 2.06-.46 2.86-1.32 1.35-1.81 2.12-.7 1.74-1.23 2.49-2.54.34-3.11 1.05-.63 1.78-1.24 2.46-.66 1.88-1.31 2.51-2.08.38-2.78.97-1.31 1.18-2.05 1.72-.72 2.15-1.5 2.63-2.15-.1-2.96.33-1.74.42-2.58.78-1.63.57-2.5.87-1.55.87-2.44 1.11-1.6.92-2.5 1.1-1.67.94-2.59 1.06-1.87-.71-2.8-.64-1.73.85-2.6.87-1.78-.32-2.65-.32-1.8.72-2.68.68-1.67-1.55-2.54-1.63-1.94 1.47-2.81 1.35-1.55-1.64-2.41-1.79-2.03 1.13-2.89.95-1.34-2.01-2.19-2.24-1.98.51-2.81.25-1.46-1.2-2.28-1.49-1.45-1.07-2.26-1.4-1.99.17-2.78-.2-1.59-.78-2.36-1.19-1.29-1.3-2.04-1.74-1.79-.45-2.52-.93-1.48-.98-2.19-1.49-1.02-1.56-1.7-2.1-2.12-.24-2.77-.82-.75-1.8-1.37-2.42-1.31-1.18-1.9-1.82-1.95-.68-2.51-1.35.33-2.5-.19-3.2-2.22-.6-2.7-1.33-.39-1.85-.83-2.61-1.68-1.13-2.07-1.91-.28-1.85-.62-2.66.11-1.93-.18-2.75-1.19-1.46-1.42-2.31-1.17-1.57-1.34-2.43 1.1-1.98.99-2.84-.98-2.17-1.01-3.04Z" stroke-width="0" fill="#853421" id="mouth"/>
    <g id="accessories">
        <path stroke-width="0" fill="#fff" d="m119.81 208.03.77-.98 4.51.53 4.52.37.61 1.3-2.83 3.57-3.36 7.95-1.25-.1-1.28-8.45-1.69-4.19zM168.6 206.25l.36-1.03 3.87-.85 3.84-.99.87.9-1.32 3.75-.49 7.52-1.07.28-3.47-6.61-2.59-2.97z"/>
    </g>
</svg>
