<?xml version="1.0" encoding="UTF-8"?><svg id="mouth" xmlns="http://www.w3.org/2000/svg" viewBox="0 0 300 300"><defs><style>.cls-1{fill:#fff;}.cls-2{fill:#ab4742;}</style></defs><g id="mouth_3"><path class="cls-2" d="m125.47,206.32c1.28.26.93.18,2.58.47.72.13,1.71-.44,2.7-.29.79.12,1.65.17,2.59.29.81.1,1.67.27,2.58.37.83.09,1.62.98,2.53,1.05.84.07,1.78-.72,2.68-.66.85.06,1.69.66,2.58.7s1.74-.47,2.64-.45,1.72.29,2.61.29,1.72-.4,2.61-.41,1.72-.04,2.61-.07,1.72-.14,2.6-.19,1.78.54,2.66.47,1.69-.57,2.57-.66,1.78.25,2.65.14,1.62-.98,2.49-1.11,1.71-.26,2.57-.41,1.7-.31,2.56-.49,1.84.3,2.7.1,1.73-.29,2.58-.51,1.82-.15,2.67-.4c1.5-.56,1.47-1.19,2.27.51.3.64.86,1.53.67,3.05-.09.77-.42,1.65-.71,2.63-.23.8-.68,1.58-1.1,2.46-.36.77-.47,1.76-1.01,2.55-.48.71-1.04,1.46-1.69,2.16-.58.63-1.15,1.41-1.88,2.02-.66.55-1.85.48-2.64,1-.72.47-1.22,1.38-2.06,1.83-.76.4-1.57.84-2.44,1.21-.8.34-1.57.91-2.47,1.22-.82.28-1.88-.05-2.79.2-.84.23-1.73.37-2.65.57-.85.19-1.6,1.15-2.52,1.31-.86.15-1.85-.26-2.78-.14-.87.11-1.78.17-2.71.26-.88.08-1.76.73-2.69.79-1.3.06-1.01-.5-2.62-.61-.74-.05-1.65.12-2.61,0-.8-.1-1.59-.7-2.49-.87-.81-.15-1.56-.69-2.44-.91-.82-.2-1.61-.45-2.45-.72s-1.67-.34-2.48-.67-1.64-.49-2.42-.89-1.69-.52-2.42-1-1.08-1.43-1.76-1.98-1.14-1.22-1.75-1.85-1.41-.98-1.94-1.69-1.49-1.09-1.92-1.86-.98-1.5-1.31-2.32c-.31-.78.53-1.99.31-2.86-.36-1.15-1.48-1.1-1.34-2.26.09-.77.85-1.65,1.73-2,.55-.22,1.29.43,2.35.61Z"/><path class="cls-1" d="m131.38,206.62c-1,.74-.2,1.13-.42,2.64-.1.71.14,1.58.07,2.5-.06.78-.37,1.6-.36,2.47,0,.8-.21,1.67-.13,2.52s.44,1.62.61,2.45c.17.81.21,1.69.48,2.47s.93,1.37,1.33,2.11c.95.89.83.38,2.36.97.69.27,1.57.35,2.51.65.76.24,1.53.63,2.44.86.79.2,1.53.91,2.42,1.09.82.16,1.73,0,2.63.13.83.12,1.67.58,2.56.65.84.07,1.73.07,2.62.09s1.72-.45,2.6-.48,1.72.05,2.6-.04,1.74-.04,2.61-.18,1.75-.1,2.61-.3,1.64-.59,2.49-.85,1.56-.77,2.39-1.08,1.69-.43,2.5-.78,1.26-1.18,2.05-1.59c1.04-.79.93-.37,1.66-1.86.32-.65.48-1.51.77-2.48.23-.75.92-1.49,1.07-2.43.13-.79-.51-1.73-.46-2.66.04-.81.14-1.65.1-2.57-.03-.82.06-1.68-.05-2.59-.1-.82-.24-1.45-.41-2.35-1.09-.71-.83-.46-2.48-.2-.73.11-1.54.59-2.53.73-.79.11-1.64.31-2.58.42-.82.1-1.66.44-2.58.53-.83.08-1.76-.47-2.66-.4-.84.07-1.65.85-2.55.91-.85.06-1.74-.28-2.64-.23s-1.74-.24-2.63-.21-1.72.66-2.6.67-1.74.19-2.62.18-1.73-.5-2.61-.52-1.75.24-2.63.2-1.76.08-2.63.02-1.75-.11-2.62-.19-1.72-.43-2.59-.54-1.87-.59-2.74-.72Z"/></g></svg>