<svg id="nose" xmlns="http://www.w3.org/2000/svg" viewBox="0 0 300 300">
    <path d="M137.7 192.62c.4.27.2.78.66.92s.51-.02.96.12.47.09.93.23.51-.02.97.12.42.28.88.42.5 0 .96.14.39.37.85.51.68-.57 1.13-.43.29.68.75.82.53-.09.99.05.35.48.81.62.59-.3 1.05-.16.33.55.79.69.61-.36 1.07-.22.39.36.85.5.41.29.87.43.43.23.89.37.5 0 .96.15.33.58.78.72.63-.43 1.09-.28.45.18.91.32.34.52.8.66.62-.39 1.08-.25.39.36.85.5.57-.23 1.03-.09.21.93.67 1.07.57-.22 1.02-.08.34.52.79.66.5 0 .95.14.5 0 .96.14.36.45.82.59.73-.74 1.18-.6.44.21.89.35.45.18.9.32.48.08.94.22.21.94.67 1.08.54-.11 1 .03.44.22.89.36.47.1.93.24.65-.49 1.11-.35.35.5.81.64.35.51.8.65.56-.2 1.02-.05.52-.06.98.08.44.21.9.35.34.51.8.66.53-.09.99.06.39.37.85.51.4.33.86.47.62-.37 1.08-.23.42.28.88.42.47.09.93.23.48.06.94.2.56-.19 1.02-.04.26.8.72.94.52-.04.98.1.37.45.83.59.63-.42 1.09-.28.35.51.81.65.44.21.9.35.61-.33 1.07-.19.36.46.82.6.47.1.93.24.61-.36 1.07-.22.32.6.78.74.42.28.88.42.5.02.96.16.51-.03.97.11.35.5.81.64.47.12.93.26.4.34.86.48.68-.59 1.14-.45.27.77.73.91.43.24.9.38.44.22.9.37.71-.65 1.17-.51c.34.1.53.05.83.02.34-.03.6.13.88-.03s.68-.19.87-.45.62-.51.7-.83.05-.77 0-1.1-.58-.49-.76-.78c-.16-.26-.08-.81-.37-1.02-.39-.28-.8.3-1.19.03s-.1-.68-.49-.95-.14-.62-.53-.9-.83.35-1.22.07-.33-.36-.72-.64-.5-.12-.89-.39-.21-.53-.6-.81-.51-.1-.9-.37-.4-.25-.79-.53-.42-.23-.81-.51-.11-.67-.5-.94-.74.23-1.13-.05-.25-.47-.64-.74-.37-.3-.76-.58-.34-.34-.73-.62-.24-.48-.63-.75-.7.16-1.09-.11.05-.89-.34-1.17-.68.13-1.06-.14-.28-.42-.67-.69-.23-.5-.61-.77-.43-.22-.81-.49-.31-.38-.7-.66-.49-.12-.88-.39-.44-.19-.83-.47-.64.08-1.03-.19.05-.9-.33-1.17-.36-.31-.75-.58-.61.04-1-.23-.26-.46-.64-.74-.61.04-1-.24-.28-.43-.67-.7-.28-.43-.67-.7-.81.33-1.2.05-.25-.47-.64-.75-.05-.76-.44-1.03-.68.13-1.06-.14-.16-.6-.54-.88-.78.28-1.17 0-.22-.51-.61-.78-.18-.58-.56-.85-.63.06-1.02-.22-.04-.77-.43-1.05-.8.3-1.19.03-.52-.09-.91-.36-.12-.66-.51-.93-.42-.23-.81-.51-.28-.44-.67-.71-.64.08-1.03-.2-.27-.44-.66-.71-.53-.08-.92-.36.01-.84-.38-1.12-.44-.2-.83-.48-.77.27-1.16-.01.1-.97-.29-1.24-.61.04-1-.23-.21-.53-.6-.81-.84.36-1.23.09.1-.97-.29-1.24-.89.44-1.28.16.03-.87-.36-1.15-.6.01-.99-.26-.2-.54-.59-.82-.52-.1-.91-.38-.69.14-1.08-.13-.18-.57-.57-.85-.53-.07-.92-.35-.46-.19-.85-.46-.1-.69-.49-.97-.36-.33-.75-.61-.63.2-1.07 0-.26-.89-.86-.75c-.27.06-.52.46-.88.56-.29.08-.44.67-.78.78-.29.1-.63.06-.95.18-.29.11-.57.26-.88.4-.29.12-.85-.3-1.15-.16-.28.14-.18 1.04-.47 1.2s-1.03-.5-1.31-.33-.26.8-.54.98-.57.31-.83.51-.28.67-.53.88-.45.43-.7.65-.61.28-.83.52-.2.66-.42.91-.91.07-1.11.33-.17.67-.36.94-.26.59-.43.87-.22.6-.38.89-.96.23-1.11.53.19.8.06 1.11-.35.55-.46.86-.43.54-.54.85.44.8.35 1.12-.58.51-.65.83-.43.58-.49.9-.3.62-.35.95.37.71.33 1.03.19.66.16.99.06.64.05.97-.77.63-.78.96.55.48.56.81Z"  fill="#fcb18b"
          stroke-width="0"/>
    <path  fill="#d88661"
           stroke-width="0" d="M163.99 177.73c-.46-.02-.44.06-.9.4-.21.16-.34.5-.61.72-.22.18-.56.25-.81.47-.22.19-.18.71-.42.92-.22.2-.77.06-1 .28s-.16.71-.37.93-.83.08-1.03.31.01.82-.18 1.06-.59.33-.76.58-.18.62-.34.88-.57.4-.71.67c-.2.41-.53.69-.57.87-.09.38.72.69 1.22.37.21-.14.05-.92.35-1.14.23-.17.86.16 1.14-.04.24-.17.4-.49.68-.67.25-.17.49-.37.77-.55.26-.16.57-.25.85-.41s.49-.39.78-.54.47-.49.76-.61.65-.1.94-.2.66.02.96-.06.54-.41.85-.46.66.39.98.37.6-.65.91-.63c.44-.02.57-.21.29-.58-.15-.2-.68-.16-.94-.41-.22-.2-.14-.78-.39-.98s-.57-.31-.82-.49c-.27-.21-.35-.64-.58-.81-.45-.33-.56-.22-1.03-.24ZM179.5 188.01c-.48-.04-.46.07-.93.43-.22.17-.36.53-.64.76-.23.19-.58.29-.83.52-.23.21-.17.74-.41.97s-.79.13-1.01.38-.12.74-.32 1-.84.21-1.01.48.13.84-.02 1.12c-.34.67-.48.94-.29.89.15-.04.36-.42.76-.71.24-.17.68-.13.99-.35.26-.18.63-.21.93-.4.27-.18.52-.38.82-.55s.24-.97.55-1.11.87.3 1.18.18.57-.37.89-.46.64-.18.97-.22.66.04 1 .05c.44-.02.32-.53-.09-.95-.21-.22-.65-.3-.95-.54-.28-.23-.48-.59-.74-.79-.49-.36-.32-.66-.85-.7Z"/>
</svg>
