<?xml version="1.0" encoding="UTF-8"?><svg id="nose" xmlns="http://www.w3.org/2000/svg" viewBox="0 0 300 300"><defs><style>.cls-1{fill:#d3924c;}.cls-2{fill:#3f8059;}</style></defs><g id="nose_3"><path class="cls-1" d="m153.48,176.24c-.55-1.28-.46-1.01-1.74-2.01-.63-.5-1.37-1-2.37-1.34-.79-.27-1.66-.22-2.69-.24-.84-.02-1.65.16-2.65.39-.82.19-1.53.69-2.47,1.08-.6.25-1.65.09-2.71.42-.75.23-1.73.03-2.67.29-.79.22-1.73.1-2.64.34-.81.21-1.36,1.61-2.26,1.83-.82.21-1.97-.73-2.85-.52-.83.2-1.64.62-2.52.83s-1.68.48-2.56.68-1.43,1.55-2.31,1.75-1.72.37-2.59.57-2.07-1.2-2.94-1.01-1.63.77-2.5.96-1.68.58-2.54.77-1.85-.2-2.71-.02-1.4,1.87-2.26,2.06-1.78.17-2.64.36-1.72.43-2.58.61-2.04-1.06-2.9-.88-1.69.61-2.54.79-1.6,1.02-2.45,1.2-1.73.45-2.58.62-1.89-.33-2.74-.15-1.55,1.33-2.39,1.5c-.89.19-1.8.17-2.64.34-.9.19-1.95-.51-2.78-.34-.91.19-1.58,1.34-2.4,1.51-.94.19-1.78.52-2.57.68-.99.2-2.1-.79-2.83-.64-1.66.34-.98,1.61-2.26,1.95s-1.13-.18-2.21.72c-.58.48-1.74.73-2.16,1.55-.34.67-.08,1.71-.11,2.65-.02.74.19,1.52.45,2.43.24.83.57,1.56,1.27,2.07.62.45,1.49.51,2.36.75.76.21,1.48,1.02,2.35,1.11.81.09,1.7-.9,2.55-.9s1.63-.14,2.46-.19c.87-.05,1.84,1.33,2.63,1.24.92-.1,1.59-1.53,2.31-1.65,1.49-.24,1.42.78,2.64.5,1.32-.31,1.41.06,2.73-.26s1.3-.37,2.62-.69,1.15-1.03,2.47-1.35,1.32-.32,2.64-.64,1.22-.72,2.54-1.04,1.59.8,2.91.48,1.29-.42,2.61-.74,1.05-1.41,2.37-1.73,1.56.67,2.88.35,1.08-1.3,2.4-1.62,1.27-.54,2.59-.86,1.51.47,2.84.15,1.36-.12,2.69-.41c1.26-.28,1.37.29,2.63.04s.97-1.72,2.24-1.97,1.37.27,2.63.01,1.28-.19,2.54-.44,1.17-.75,2.43-1,1.36.26,2.63,0,1.21-.52,2.47-.77,1.35.16,2.61-.09,1.14-.89,2.4-1.14,1.52,1.04,2.79.79,1.09-1.15,2.36-1.4,1.19-.58,2.45-.87.72-.5,1.94-1.31c.64-.42,2.21.08,2.8-.63.51-.62.16-1.83.45-2.69.25-.74,1.5-1.47,1.48-2.41-.02-.77-1.11-1.5-1.37-2.41Z"/><path class="cls-2" d="m81.58,187.35c.76-1.14.27-1.06.02-2.68-.12-.78-.52-1.61-.92-2.56-.33-.77-.72-1.56-1.31-2.36-.5-.68-.97-1.47-1.71-2.13-.63-.56-1.46-.97-2.3-1.48-.73-.44-1.46-1.01-2.35-1.4-.79-.34-1.66-.61-2.59-.9-.82-.25-1.71-.49-2.65-.69-.85-.18-1.76-.35-2.71-.48-1,.89,0,1.08.02,2.68.01.78.01,1.69.11,2.66.08.84.09,1.76.27,2.66s.41,1.74.71,2.58.63,1.71,1.08,2.46,1.21,1.33,1.87,1.92c.96.93.69.89,2.23,1.42.71.25,1.6.27,2.64.31.79.03,1.66.02,2.64-.18.79-.16,1.63-.42,2.55-.77.77-.29,1.55-.62,2.4-1.08Z"/><path class="cls-2" d="m80.6,187.7c-1.08-.84-.58-1.11-.85-2.72-.13-.78-.19-1.74-.12-2.77.06-.83.37-1.72.68-2.67.26-.8.67-1.61,1.16-2.47.42-.73,1.03-1.4,1.66-2.15.55-.65,1.04-1.42,1.77-2.08.64-.57,1.38-1.1,2.17-1.67.7-.5,1.38-1.13,2.21-1.62.74-.44,1.53-.66,2.39-1.09,1.23.52.56.81,1.05,2.34.24.74.46,1.63.68,2.58.19.83.46,1.71.57,2.62s-.01,1.79-.02,2.68.07,1.83-.12,2.68-.68,1.67-1.11,2.44c-.61,1.19-.38,1.08-1.68,2.08-.59.46-1.4.89-2.38,1.26-.74.28-1.62.46-2.61.59-.8.11-1.69.19-2.68.15-.82-.03-1.83-.02-2.79-.18Z"/></g></svg>