<svg xmlns="http://www.w3.org/2000/svg" viewBox="0 0 300 300">
    <path d="M145.38 160.71c-.9.82-1.05.51-1.51 1.92-.22.66-.32 1.53-.36 2.48-.03.73.42 1.51.59 2.41.15.75-.12 1.79-.72 2.76-.42.67-.89 1.53-1.54 2.32-.54.65-1.63.94-2.27 1.68-.57.66-.79 1.67-1.4 2.4-.56.68-1.42 1.17-1.99 1.92s-.99 1.52-1.5 2.3-1.07 1.48-1.51 2.3-1.06 1.53-1.42 2.39-.38 1.82-.64 2.71-.14 1.82-.29 2.74-.47 1.75-.51 2.69c-.03.89.18 1.8.26 2.74.03 1.33-.15 1.16.27 2.61.23.77.8 1.42 1.36 2.2.48.67.61 1.87 1.44 2.36.69.4 1.73.32 2.72.48.78.13 1.67.34 2.67.27s1.86-.16 2.63-.39c.9-.27 1.43-1.14 2.14-1.58.76-.47 1.53-.81 2.16-1.4s1-1.43 1.61-2.07 1.35-1.14 2-1.72 1.27-1.27 2.05-1.73c.7-.42 1.63-.63 2.52-.92.76-.24 1.71.17 2.66.06 1.38-.12 1.26-.15 2.78-.56.82-.22 1.45-1.22 2.3-1.67s1.9-.5 2.49-1.22c.57-.68.76-1.62.91-2.61.12-.8.35-1.74.08-2.78-.25-.97-.79-1.69-1.21-2.31-.54-.8-1.09-1.55-1.8-1.9-.79-.39-1.75-.48-2.6-.49-.9-.02-1.8.22-2.57.41-1.41.36-1.19 1.38-2.32.74s.04-.73.13-2.42c.04-.73-.11-1.55-.23-2.57-.09-.78.28-1.73.04-2.67-.2-.78-.67-1.56-1-2.46-.28-.77-.6-1.6-1.01-2.45-.4-1.37-.03-1.26-.46-2.83-.23-.84-1.04-1.6-1.41-2.52-.36-.91-.38-1.97-.88-2.71-.61-.9-1.33-1.59-2.15-1.82s-1.55.14-2.53.91z" fill="#d1848a"/>
    <path d="M132.73 188.82c-1.06-1.2-1.03-1.26-2.83-1.27-.85 0-1.87.29-2.99 1.06-.77.53-1.27 1.32-1.55 2.18s-.34 1.81-.12 2.69c.23.87.76 1.64 1.49 2.22.64.51 1.46.96 2.5 1.02.78.04 1.73-.08 2.73-.4 1.22-.69.95-.95 1.58-2.33.35-.77.63-1.68.46-2.72-.14-.79-.58-1.57-1.27-2.45z" fill="#dd9c9a"/>
</svg>