<?xml version="1.0" encoding="UTF-8"?><svg id="nose" xmlns="http://www.w3.org/2000/svg" viewBox="0 0 300 300"><defs><style>.cls-1{fill:#d1848a;}</style></defs><g id="nose_5"><g id="nose_5-2"><path class="cls-1" d="m148.3,195.32v-.03c-.75,0-1.3-.35-1.79-.84s-1.08-1.05-1.08-1.79c0-1.29-.15-1.29-.15-2.58s.45-1.29.45-2.58c0-1.29-.09-1.29-.09-2.58s.08-1.29.08-2.58c0-1.29-.29-1.29-.29-2.58s-.08-1.29-.08-2.58c0-1.29.49-1.29.49-2.58s-.08-1.29-.08-2.58-.04-1.29-.04-2.59.1-1.29.1-2.59c0-.75.17-1.32.66-1.82s1.07-.82,1.82-.82v.05c.75,0,1.43.18,1.92.67s.86,1.17.86,1.92c0,1.29,0,1.29,0,2.58s-.29,1.29-.29,2.58.37,1.29.37,2.58.1,1.29.1,2.58c0,1.29-.23,1.29-.23,2.58s-.33,1.29-.33,2.58c0,1.29.05,1.29.05,2.58s.23,1.29.23,2.58.07,1.29.07,2.59-.25,1.29-.25,2.59c0,.75-.19,1.34-.68,1.84s-1.09.83-1.84.83Z"/></g></g></svg>