<svg xmlns="http://www.w3.org/2000/svg" viewBox="0 0 300 300">
    <path d="M148.79 166.72c.13.9.47 1.74.5 2.6s.11 1.8.03 2.66-.62 1.69-.85 2.52-.06 1.87-.44 2.66-1.03 1.46-1.57 2.18-1.07 1.4-1.75 2.01c-.63.57-1.38 1.07-2.16 1.56-.71.46-1.5.87-2.34 1.26-.77.35-1.66.5-2.53.79s-1.58.95-1.88 1.69-.35 1.72-.06 2.57c.24.69.66 1.5 1.23 2.23.47.61 1.18 1.13 1.84 1.72.59.54 1.38.88 2.08 1.37s1.35.92 2.09 1.32 1.38.99 2.15 1.29 1.68.23 2.47.4c.84.18 1.63.15 2.43.14 1.04 0 1.9-.79.95-1.21-.6-.27-1.22-.91-1.97-1.41-.64-.42-1.14-1.1-1.76-1.61s-1.29-1-1.79-1.54c-.65-.71-.93-1.4-1.09-1.97-.29-1 .21-1.57 1.05-2.19.36-.26.98-1.05 2.08-1.55.71-.32 1.49-.64 2.26-1.18.67-.47 1.61-.74 2.19-1.45.51-.63.99-1.42 1.34-2.29.3-.74.63-1.61.75-2.55.1-.79-.17-1.69-.23-2.63-.05-.8-.39-1.61-.57-2.53-.16-.79.17-1.77-.1-2.66-.23-.78-.92-1.47-1.25-2.33-.29-.77-.75-1.5-1.13-2.34-.48-1.07-2.1-.69-1.94.47z" fill="#d1848a"/>
</svg>