<svg xmlns="http://www.w3.org/2000/svg" id="blush" viewBox="0 0 300 300"><defs>
    <style>.cls-1{fill:#facdd1}</style>
</defs>
    <path d="M148.11 185.5c4.66-1.21 7.86-1.12 8.46-4.3.53-2.81-.71-5.43-2.33-7.1-1.54-1.58-4.05-3.13-7.12-2.53-3.09.67-2.72 2.31-5.8 3s-3.44-.87-6.52-.18-2.68 2.45-5.76 3.15-3.25-.06-6.33.64-3.02.97-6.1 1.67-3.33-.41-6.41.29-2.72 2.27-5.8 2.97-3.25-.06-6.33.64-3.05.84-6.13 1.54-3.26-.08-6.34.62-2.9 1.5-5.99 2.2-3.05 1.01-6.17 1.55-2.89-.95-6.41-1.68c-1.95-.4-3.9-1.09-5.85-2.21-1.81-1.04-4.26-1.62-5.43-3.57-.99-1.65-.92-3.98-1.03-6.46-.17-3.43-.87-3.66 1.03-6.83 1.01-1.7 3.22-2.71 5.76-3.73 1.76-.71 3.79-.93 6.57-.87 2.81.24 3-.17 5.65-.64 2.04-.36 3.18-1.24 3.33-3.27.16-2.19.5-3.93-.97-5.37-1.05-1.03-2.5-2.32-5.32-2.58-1.63-.15-3.64.36-6.07.56-2.17.17-4.63-.64-6.74-.04-2.11.6-3.6 2.9-5.51 3.94s-3.52 2.31-5.1 3.83-3.19 2.84-4.26 4.8c-1.01 1.84-.9 4-1.37 6.26-.42 2-2.65 4-2.55 6.35s1.63 4.42 2.22 6.53 1.81 4 2.95 5.9 2.55 3.4 4.22 4.94c1.59 1.46 2.87 3.38 4.94 4.46 1.88.98 4.29.66 6.57 1.28 2.04.55 4.06.87 6.42 1.09 2.1.2 4.2.65 6.57.56 2.12-.08 4.14-.66 6.47-.99 3.13-.68 3.14-.52 6.26-1.28s3.37.29 6.48-.47 3.32.08 6.43-.68 2.63-2.73 5.75-3.5 3.32.07 6.43-.69 3.26-.18 6.37-.94 3.23-.32 6.34-1.08 3.05-1.01 6.17-1.77 2.9-1.66 6.01-2.43 3.17-.52 6.23-1.51 3.01-1.23 6.12-2.04Z" fill="#e80a20"/>
    <path d="M55.14 171.81c.59-1.9 1.74-4.16 4.04-5.76 1.61-1.12 3.75-2.13 6.65-2.37v.17c-1.99-1.51-3.1-3.18-3.79-4.68-1.48-3.24-.75-5.96-.75-5.96-2.49.46-4.88 1.35-7.17 2.4s-4.66 2.25-6.55 3.91c.35 2.28 1.42 4.7 2.76 6.78s3.24 4.12 4.81 5.52ZM56.36 182.12c-1.62.14-3.7.18-5.98-.29-1.79-.37-3.62-1.19-5.51-2.32-1.57-.93-3.08-2.26-4.55-3.92-.03.76.01 1.69.04 2.49.09 2.12.16 4.2.67 6.16s1.3 3.98 2.28 5.78 2.2 3.62 3.64 5.13c1.79-.33 3.95-1.1 6.17-1.76 1.98-.59 4-1.31 5.9-2.22s3.99-1.97 5.45-3.34c-1.55-.5-3.15-1.3-4.56-2.27s-2.64-1.96-3.57-3.45ZM87.17 186.04c-3.22-.48-3.18.56-6.35 1.28s-3.53-.16-6.41 1.36c-.28 2.04-.65 5.06-1.64 7.94-.84 2.45-1.98 4.91-3.62 7.01 1.72.07 3.39.09 5.27-.02 1.72-.1 3.53-.23 5.38-.49 3.86-.87 4.16-.13 7.72-1.87.39-2.08.66-4.85.66-7.72 0-2.47-.26-5-1.01-7.49ZM111.53 180.31c-2.81-.61-2.83.78-5.64 1.41s-3.17-.25-5.68 1.16c.18 1.79.38 4.65-.14 8.03-.35 2.3-1.07 4.99-2.15 7.76 3.02.78 3.08-.75 6.11-1.49 3.03-.74 3.34 0 6.09-1.49.61-2.11 1.03-4.82 1.33-7.62.26-2.46.45-5.19.07-7.77ZM127.8 176.87c-.02 1.77-.15 4.6-1.08 7.99-.65 2.35-1.75 4.74-3.27 7.33 3.52.58 3.43-.75 6.89-1.6s3.72-.11 6.98-1.55c.76-1.71 1.36-4.19 1.91-7.47.36-2.14.72-4.52.84-7.5-3.07-.8-3 .92-6.13 1.41s-3.32-.06-6.14 1.39Z" fill="#facdd1"/></svg>
