<?xml version="1.0" encoding="UTF-8"?><svg id="nose" xmlns="http://www.w3.org/2000/svg" viewBox="0 0 300 300"><defs><style>.cls-1{fill:#d1848a;}</style></defs><g id="nose_1"><path class="cls-1" d="m150,179.96c-2.13-1.04-1.87-1.48-4.33-2.01-1.5-.33-3.3-.32-4.8.16-1.37.44-2.54,1.54-3.38,3.24s-1.29,3.33-1.01,4.85c.3,1.6,1.55,2.91,2.68,4.15s2.45,2.08,3.98,2.7,3.13.96,4.77.79c1.52.17,1.48.64,1.85-1.46.2-1.14-1.44-1.75-3.09-2.73-1.4-.84-2.82-1.98-2.36-3.71,1-3.77,2.33-2.35,5.75-2.95,1.89-.33,2.38-1.97-.08-3.04Z"/></g></svg>