<?xml version="1.0" encoding="UTF-8"?>
<svg id="g" data-name="blush" xmlns="http://www.w3.org/2000/svg" viewBox="0 0 300 300">
  <polygon points="150 185.7 148.5 182.1 147.8 180.5 147.2 178.6 144.1 180.2 144.8 175.9 141.4 179 140 178.7 139.6 175.3 138.3 173.6 136.1 175.8 134.6 175.3 133.3 173.3 131.8 172 129.8 174.9 128.1 175.4 126.7 172.2 125 173.3 123.3 172 121.7 172.8 120 172.4 118.8 176.1 117.1 175.4 115.3 174.5 114.3 176.9 111.6 173.6 111.5 178.1 109.6 177.6 107.7 177.3 106.5 178.4 103.7 177 102.7 178.6 103.4 182.4 100 180.6 99.2 182.2 98.3 183.6 98.7 186.4 97.9 187.8 95 187.2 94.8 189.2 93.2 190 90.7 189.9 91.1 192.4 91.1 194.6 86.3 192.6 89.1 197.1 84.4 195.2 84.8 197.7 85.3 200.4 83.9 201.4 83.7 203.7 81.9 204.3 77.9 201.7 78.2 205 76.2 204.8 74.7 205.2 73.5 207 71.8 207.7 70 207 68.7 204.1 66.5 208 64.9 207.4 64.2 203 62.5 203.5 61 202.9 58.3 205.1 58.5 201.2 55.2 203.4 55.4 200.3 52.2 201.4 51.9 199.2 49.4 199 48.6 197.2 49.9 194.6 51.2 192.5 48.8 191.6 47.8 190 49.2 188.3 49.9 186.8 46.9 184.7 49.6 183.7 48.4 181.3 49.9 183.4 51.7 181.8 52.5 183.2 54.1 183 55.6 185.6 56.6 181.7 60.5 184.8 59.3 180.9 59.1 179.2 62.7 178.2 61.6 176.2 61.5 173.8 58.5 174.3 56.6 174.5 55.8 173.5 55 172.1 53.6 169.5 52.5 173.5 50.7 172.2 47.7 169.9 48 173.5 46.4 174.1 43.2 173.6 43.3 176 45.7 179.2 44.9 180.5 40.6 180.5 43.3 183.1 40.8 184.1 42.4 186 40 187.3 38.4 188.8 40.8 190.6 42.2 192.2 41 193.9 40 195.6 40.1 197.2 41.7 198.6 43.5 199.9 43.8 201.4 41.3 203.8 42.7 205.1 44.3 206.2 41.4 209.2 45.7 209 45.4 211 46.4 212.3 47.8 213.3 48.3 214.9 50.5 215.3 51 216.9 50.5 219.4 53.4 218.9 52.1 222.6 52.9 224.2 54.6 224.9 55.5 226.6 59.1 224.5 60.3 225.5 62.7 224.6 63.6 226.1 65.1 226.8 64.7 231.1 67.1 229.7 67.7 232.5 69.2 233.3 71.1 233.2 72.2 235 74.3 233.9 76.2 233.3 77.5 234.8 79.3 234.2 81.1 233.8 82.8 233.3 84.4 233.1 85.9 234 87.6 233.9 89.3 232.8 90.5 237.1 92.2 236.6 93.9 236.5 95.6 234.5 97.2 237.2 98.8 238.1 100.5 236.2 102.1 235.6 103.9 237.7 105.3 234.3 107.3 238.2 108.4 233.4 110.4 235.8 112 235.7 113.4 233.8 115 233.9 116.9 234.7 118 232.2 119.2 230.8 121.4 232.4 123.8 234.5 125.2 233.4 126.6 232.2 126.5 227.8 128.7 228.8 130.2 228.2 132.4 228.9 134.7 229.4 134.3 225.6 136.4 225.9 137.5 224.6 140.1 225.3 140.9 223.6 141 221.1 142.3 220.2 144.5 220.1 143.7 217 146.7 217.6 145.3 214.3 150.1 215.9 147.7 212.2 150 210.7 148.5 214.8 152.7 213.9 153.7 215.1 155.4 215.8 156.8 216.6 154.5 221.1 158.5 219.3 158.3 221.9 158.9 223.9 160 225.2 161.5 226 165.4 223.2 164.8 227.1 165.9 228.5 167.5 229.1 169.3 229.3 171.6 228.2 173.5 227.8 174.5 229.5 176.3 229.2 176.9 232.3 178.9 231.4 179.3 235.9 181.2 235.4 182.9 235.5 184.7 234.9 186.2 236.1 188 235.5 189.4 237.1 191.6 233 192.9 236.5 194.7 235.2 196.2 237.4 197.9 234.7 199.5 237.3 201.2 234.2 202.8 235.5 204.5 236.4 206.1 236.9 207.8 236 209.6 238.6 210.9 234.9 212.6 235 214.5 237.1 215.6 233.6 217.4 234.7 218.6 232.1 221.2 236.5 222.3 234 224.5 235.9 225.9 234.6 227.2 233.3 229.4 234.6 229.1 228.9 230.7 228.7 232.2 228.3 233.5 227.3 237.2 231 237.9 228.8 239.6 228.4 240.9 227.3 240 223.2 242.6 224 245.3 224.8 245.2 222.1 245.6 220.1 247 219.3 249.8 219.7 249.9 217.6 252 217.2 254 216.5 252.3 213.4 253.9 212.4 254.4 210.9 254.8 209.2 253.6 206.9 258 207.1 257.6 205.1 259.9 204.1 257 201.6 259.6 200.6 260.4 199 257.8 196.9 259.9 195.6 259.8 193.9 256.8 192.2 259.6 190.6 260.3 188.9 259.4 187.4 258.1 185.9 259.9 183.9 259.3 182.3 260 180.2 255.2 180.4 257.9 177.3 257.5 175.4 256.9 173.6 252.1 175.7 250.8 175.2 250.5 173.2 249.7 171.3 248.4 169.2 246.4 169.4 245.1 172.2 242.7 170.2 243.4 174.6 240.5 173.3 237.4 173 240.6 176.6 240 177.9 241.3 179 240.4 181.1 242.3 181.3 243.4 181.8 244.7 181.7 246.2 184.5 246.1 180.7 247.6 181.3 249 179.6 250.9 181.7 250.3 183.8 253.8 184.6 249.5 186.8 252.5 188.4 251.3 189.9 249.4 191.1 249.4 192.6 248.1 193.7 248.4 195.5 248.1 197.1 249 200.1 244.6 198.1 243.4 198.9 243.6 201.6 241.6 201.3 241.2 204 239.3 203.7 237.4 203.2 237.1 207.8 235 206.8 232.8 203.7 231.6 206.8 229.8 204.6 228.2 208.6 226.6 206.7 225.6 204.2 223.3 205.8 223.6 201.9 220 204.6 217.8 204.6 218.3 201.4 216.9 200.5 216.6 198.5 213.6 199.1 213.4 197.1 211.3 196.8 213.4 192.8 211.9 192 207.9 193.3 210.6 188.8 207.8 189 208.1 186.6 203.6 188.5 206 183.9 201.3 186.4 203 182.2 200.4 182.7 200.3 180.1 198.2 180.2 195.2 181.8 195 179.1 192.9 179.6 191.2 179.5 191 176.1 189.7 175.1 186.9 178.1 187 172.1 184.9 173.6 182.7 176.3 181.3 175.2 179.7 175.3 178.4 171.5 176.6 176.4 175 170.9 173.4 174.1 171.8 173.8 170.4 176.1 168.9 176.5 167.1 175.4 165.9 177.5 163.5 174.1 162.4 176 161.1 177.2 159.9 178.4 156.7 175 156.6 178.5 154.9 178.7 152.7 178.5 153.9 182.5 151.1 181.7 150 185.7" style="fill: #e4ecef; stroke-width: 0px;"/>
  <polygon points="170.1 182.9 170.1 184.5 169.9 186.1 169.4 187.7 169.8 189.5 168.5 190.8 168.1 192.4 167.3 193.8 166.8 195.5 165.7 196.7 164.3 197.7 163.1 198.9 161.9 200 160.4 200.7 158.8 201.2 157.1 201.4 155.8 202.7 154.1 202.8 152.4 202.9 150.8 203.4 149.2 202.7 147.5 203.3 146 202.2 144.4 201.9 142.9 201.4 141.1 201.5 139.5 200.8 138 200.1 137.2 198.4 136 197.4 135 196.1 133.5 195.2 132.5 193.9 131.6 192.5 131.2 190.9 130.8 189.3 130.7 187.7 130.1 186.1 129.5 184.5 129.2 182.9 130.4 181.3 129.5 179.5 130 177.9 130.9 176.4 131.2 174.8 132 173.4 133.1 172.2 134 170.8 134.8 169.5 135.6 167.9 137.1 167.1 138.3 166.1 139.5 164.8 141.4 165 142.8 164.1 144.3 163.4 145.9 162.9 147.6 162.9 149.2 162.4 150.8 163.1 152.5 162.9 154.1 162.8 155.7 163.3 157.2 164.2 159 164.2 160.5 164.9 161.6 166.2 162.9 167.2 164.2 168.1 165.8 169 166.7 170.4 167.8 171.7 167.7 173.5 168.9 174.8 169.4 176.4 169.3 178.1 170.5 179.5 170.2 181.2 170.1 182.9" style="fill: #e80a20; stroke-width: 0px;"/>
</svg>